<?xml version="1.0" standalone="no"?>
<!DOCTYPE svg PUBLIC "-//W3C//DTD SVG 1.1//EN" "http://www.w3.org/Graphics/SVG/1.1/DTD/svg11.dtd" >
<svg xmlns="http://www.w3.org/2000/svg" xmlns:xlink="http://www.w3.org/1999/xlink" version="1.1">
<metadata>
Created by FontForge 20201107 at Mon Jun 16 13:58:36 2025
 By 
Copyright (c) 2018 by Dieter Hofrichter. Alle Rechte vorbehalten. |DCNT
</metadata>
<defs>
<font id="Candide-HeavyItalic" horiz-adv-x="407" >
  <font-face 
    font-family="Candide Heavy"
    font-weight="900"
    font-style="italic"
    font-stretch="normal"
    units-per-em="2048"
    panose-1="2 0 5 3 5 0 0 9 0 4"
    ascent="1538"
    descent="-510"
    x-height="997"
    cap-height="1366"
    bbox="-422 -604 2488 2019"
    underline-thickness="102"
    underline-position="-204"
    slope="-11"
    unicode-range="U+000D-FB06"
  />
<missing-glyph horiz-adv-x="999" 
d="M993 0h-987v1382h987v-1382zM164 1284l336 -504l336 504h-672zM895 1194l-338 -502l338 -504v1006zM500 602l-336 -504h672zM440 692l-336 502v-1006z" />
    <glyph glyph-name="f_f" unicode="ff" horiz-adv-x="1370" 
d="M-299 -170h14q28 -96 74 -150.5t92 -54.5q54 0 84 53q38 70 80 293l160 893h-123l14 72q100 30 117 63q7 15 20.5 50t20.5 51q50 132 152 215q125 98 323 98q172 0 172 -74q0 -62 -51 -196h-19q-24 107 -47 145.5t-59 38.5q-62 0 -86 -82q-20 -67 -31 -198l-4 -50h164
q47 0 84 29q16 19 43 90q66 159 158 230q132 100 391 100q94 0 153 -21q52 -15 52 -59q0 -74 -56 -242h-18q-40 139 -72.5 186.5t-97.5 47.5q-73 0 -107 -55q-35 -60 -53 -250l-6 -56h176l-22 -133h-176l-97 -536q-31 -175 -106 -359q-77 -185 -209 -284t-291 -99
q-92 0 -133 21q-37 21 -37 63q0 44 35 154h14q49 -156 133 -156q50 0 80 53q38 70 80 293l152 850h-256l-103 -579q-33 -181 -106 -359q-77 -186 -209.5 -284.5t-296.5 -98.5q-123 0 -164 27q-37 21 -37 65q0 27 12 97q8 61 23 98z" />
    <glyph glyph-name="fi" unicode="fi" horiz-adv-x="1320" 
d="M-297 -168h12q24 -91 73 -149t97 -58q50 0 80 53q36 56 80 293l160 893h-123l14 72q86 28 111 63q6 6 63 142q58 140 179 217q137 88 382 88q172 0 267 -31q51 -15 51 -55q0 -77 -57 -260h-37q-25 122 -85 189t-147 67q-90 0 -137 -53q-48 -61 -78 -277l-4 -29h293
q172 35 219 35q57 0 74.5 -19t17.5 -65q0 -51 -30 -198l-80 -381q-33 -152 -33 -211q0 -56 63 -56q58 0 68 2l2 -12q-73 -43 -182 -78q-106 -34 -203 -34q-133 0 -133 114q0 46 31 189l75 356q29 135 29 176q0 27 -24 39q-23 10 -64 10h-145l-103 -581q-36 -190 -106 -357
q-75 -182 -221 -282q-143 -101 -293 -101q-111 0 -156 25q-37 21 -37 67q0 29 12 99q12 68 25 98z" />
    <glyph glyph-name="fl" unicode="fl" horiz-adv-x="1323" 
d="M-297 -170h10q29 -92 77.5 -148.5t98.5 -56.5q56 0 80 53q34 69 76 293l160 893h-123l14 72q94 35 111 61q10 13 47 117q54 139 156 225q131 107 381 107q41 0 102 -12q58 -8 92 -27q133 39 234 39q51 0 65 -12.5t14 -59.5q0 -33 -38 -209l-162 -794q-35 -169 -35 -213
q0 -56 65 -56q54 0 66 2l2 -12q-71 -44 -178 -78q-103 -34 -199 -34q-137 0 -137 118q0 52 31 195l108 512q72 339 72 438q0 115 -123 115q-81 0 -108 -64q-21 -44 -29 -84l-6 -36q0 -1 -7 -45t-8 -60l-10 -72h172l-22 -133h-170l-101 -571q-28 -172 -108 -367
q-75 -182 -221 -282q-143 -101 -293 -101q-108 0 -156 25q-37 21 -37 67q0 27 12 97q12 68 25 98z" />
    <glyph glyph-name="f_f_i" unicode="ffi" horiz-adv-x="1951" 
d="M608 1055l-4 -58h162q47 0 84 29q13 18 49 92q77 171 184 238q146 90 383 90q172 0 267 -31q49 -15 49 -55q0 -89 -58 -260h-34q-26 122 -86 189t-146 67q-92 0 -139 -53q-29 -34 -43.5 -87.5t-34.5 -189.5l-2 -29h293q169 21 215 21q57 0 74.5 -19t17.5 -65
q0 -30 -31 -199l-71 -362q-35 -169 -35 -215q0 -54 65 -54q9 0 36.5 -1t31.5 -1l2 -12q-76 -44 -188 -76q-115 -34 -211 -34q-75 0 -104 29t-29 85q0 28 36 191l78 352q29 148 29 180q0 34 -31 43q-32 4 -53 4h-147l-97 -536q-33 -181 -106 -359q-77 -185 -209 -284
t-291 -99q-88 0 -131 19q-37 15 -37 63q0 58 33 156h14q28 -88 60.5 -122t76.5 -34q27 0 42 10.5t34 42.5q38 70 80 293l152 850h-256l-103 -579q-33 -181 -106 -359q-76 -183 -217 -282q-137 -101 -287 -101q-122 0 -166 27q-37 21 -37 63q0 29 12 99q11 63 23 100h14
q24 -93 72.5 -150t93.5 -57q54 0 84 53q38 70 80 293l160 893h-123l14 72q100 30 117 63q7 15 20.5 50t20.5 51q50 132 152 215q125 98 323 98q43 0 121 -16q51 -15 51 -58q0 -74 -51 -196h-19q-29 111 -50 147.5t-56 36.5q-62 0 -86 -82q-22 -82 -31 -190z" />
    <glyph glyph-name="f_f_l" unicode="ffl" horiz-adv-x="1970" 
d="M-299 -170h14q29 -96 74 -150.5t90 -54.5q59 0 86 56q37 60 80 290l160 893h-123l14 72q100 30 117 63q7 15 20.5 50t20.5 51q50 132 152 215q125 98 323 98q43 0 121 -16q51 -15 51 -58q0 -74 -51 -196h-19q-29 111 -50 147.5t-56 36.5q-62 0 -86 -82q-22 -82 -31 -190
l-4 -58h158q47 0 84 29q24 35 47 90q56 139 154 221q130 109 380 109q45 0 109 -12q60 -8 94 -27q124 39 238 39q50 0 64 -15t14 -65q0 -42 -37 -209l-160 -778q-33 -143 -33 -221q0 -54 64 -54q9 0 36 -1t31 -1l2 -12q-75 -43 -178 -76q-106 -34 -203 -34q-137 0 -137 116
q0 53 29 195l110 512q76 347 76 442q0 113 -127 113q-37 0 -74 -19t-49 -45q-30 -52 -51 -225l-8 -72h172l-23 -133h-169l-97 -536q-40 -211 -100 -357q-77 -190 -210 -287.5t-306 -97.5q-74 0 -121 21q-38 17 -38.5 61.5t34.5 153.5h14q50 -154 131 -154q52 0 82 56
q39 68 80 290l152 850h-256l-103 -579q-36 -195 -104 -359q-77 -182 -215 -282.5t-299 -100.5q-108 0 -154 27q-41 21 -41 65q0 29 12 99q8 62 23 96z" />
    <glyph glyph-name="f_b" unicode="fb" horiz-adv-x="1857" 
d="M-299 -170h14q29 -92 77 -148.5t93 -56.5q53 0 80 53q41 81 82 299l158 887h-123l14 72q94 35 111 61q10 13 47 117q57 142 156 225q131 107 381 107q43 0 114 -12q70 -9 103 -27q127 39 237 39q51 0 65.5 -12t14.5 -56q0 -53 -37 -198q-50 -221 -108 -461
q67 141 190 223q122 82 242 82q106 0 147 -56.5t41 -203.5q0 -151 -59 -340q-59 -190 -162 -293q-70 -70 -201 -117q-125 -45 -245 -45q-271 0 -471 90q29 46 43 111q46 173 65 276l76 359q72 348 72 440q0 113 -148 113q-72 0 -106 -64q-28 -49 -52 -227l-10 -70h172
l-22 -133h-170l-101 -569q-29 -175 -108 -369q-75 -182 -221 -282q-143 -101 -293 -101q-108 0 -156 25q-37 21 -37 67q0 29 12 99q8 62 23 96zM1147 74q81 0 133 104q33 61 82 254q45 179 45 264q0 55 -14 77t-45 22q-62 0 -127 -115q-62 -115 -91 -258l-22 -115
q-15 -74 -20 -108t-4 -68t16.5 -45.5t46.5 -11.5z" />
    <glyph glyph-name="f_f_b" unicode="ffb" horiz-adv-x="2492" 
d="M-299 -170h14q28 -98 74.5 -151.5t93.5 -53.5q52 0 82 53q38 70 80 293l160 893h-123l14 72q100 30 117 63q7 15 20.5 50t20.5 51q50 132 152 215q125 98 323 98q43 0 121 -16q51 -15 51 -58q0 -74 -51 -196h-19q-29 111 -50 147.5t-56 36.5q-62 0 -86 -82
q-20 -67 -31 -198l-4 -50h158q47 0 84 29q16 19 43 90q58 145 155 223q125 107 381 107q44 0 115 -12q66 -8 100 -27q127 39 240 39q51 0 65.5 -12t14.5 -56q0 -53 -37 -198q-50 -221 -108 -461q67 141 190 223q122 82 242 82q106 0 147 -56.5t41 -203.5q0 -151 -59 -340
q-59 -190 -162 -293q-70 -70 -201 -117q-125 -45 -246 -45q-287 0 -487 90q53 83 59 111q49 185 66 276l76 359q69 324 69 440q0 113 -145 113q-80 0 -107 -64q-35 -65 -53 -225l-8 -72h172l-23 -133h-169l-97 -536q-33 -181 -106 -359q-77 -183 -209 -283t-287 -100
q-95 0 -139 23q-35 18 -35 65q0 54 35 150h14q30 -85 62 -120.5t75 -35.5q46 0 76 53q36 59 80 293l152 850h-256l-103 -579q-33 -181 -106 -359q-77 -188 -209.5 -285.5t-300.5 -97.5q-116 0 -160 27q-37 21 -37 65q0 27 12 97q8 61 23 98zM1782 74q81 0 133 104
q33 61 82 254q45 179 45 264q0 54 -14 76.5t-46 22.5q-62 0 -127 -115q-61 -112 -90 -258l-22 -115q-15 -74 -20 -108t-4 -68t16.5 -45.5t46.5 -11.5z" />
    <glyph glyph-name="f_f_h" unicode="ffh" horiz-adv-x="2502" 
d="M-299 -178h14q25 -89 71 -143t87 -54q62 0 92 53q38 70 80 293l160 893h-123l14 72q97 31 117 63q1 1 5.5 11.5t15.5 37.5t22 52q54 135 150 215q116 98 323 98q46 0 121 -16q53 -15 53 -58q0 -63 -53 -196h-19q-29 109 -51.5 146.5t-58.5 37.5q-61 0 -82 -84
q-11 -41 -31 -180l-4 -66h158q47 0 84 29q16 19 43 90q53 138 155 221q133 109 381 109q43 0 111 -12q62 -8 96 -27q121 39 238 39q52 0 67 -11t15 -51q0 -20 -35 -186q-56 -253 -115 -502q46 115 168 222q118 106 268 106q81 0 119.5 -29.5t38.5 -101.5q0 -85 -92 -518
q-37 -179 -37 -215q0 -58 66 -58q49 0 63 2l2 -12q-69 -43 -186 -78q-112 -34 -211 -34q-65 0 -89 27t-24 83q0 36 29 178q98 471 98 488q0 41 -39 41q-58 0 -129 -105q-50 -76 -78 -213l-96 -479h-364l164 807q69 327 69 438q0 113 -137 113q-78 0 -105 -64
q-30 -58 -53 -225l-10 -72h174l-22 -133h-172l-97 -536q-33 -181 -106 -359q-77 -183 -208 -283t-286 -100q-88 0 -137 19q-36 17 -36.5 68t32.5 153h14q47 -158 137 -158q52 0 76 53q38 80 80 293l152 850h-256l-103 -579q-33 -181 -106 -359q-77 -183 -213 -283t-297 -100
q-112 0 -160 25q-37 21 -37 67q0 27 12 95q8 59 23 92z" />
    <glyph glyph-name="f_f_j" unicode="ffj" horiz-adv-x="1910" 
d="M-299 -168h14q24 -93 72.5 -150t93.5 -57q54 0 84 53q38 70 80 293l160 893h-123l14 72q100 30 117 63q7 15 20.5 50t20.5 51q50 132 152 215q125 98 323 98q43 0 121 -16q51 -15 51 -58q0 -74 -51 -196h-19q-29 111 -50 147.5t-56 36.5q-62 0 -86 -82q-22 -82 -31 -190
l-4 -58h158q58 0 84 29q11 11 49 92q78 170 188 238q146 90 383 90q172 0 267 -31q49 -15 49 -55q0 -89 -58 -260h-34q-25 120 -85 188t-147 68q-92 0 -139 -53q-55 -62 -76 -269l-4 -37h272q170 21 215 21q57 0 75 -19t18 -65q0 -35 -29 -199q-62 -335 -111 -534
q-52 -205 -75 -258q-29 -67 -66 -117q-151 -207 -399 -207q-79 0 -125 21q-39 17 -39 59q0 46 31 151h16q18 -86 43 -117.5t63 -31.5q50 0 80 55q58 112 142 598l49 283q28 162 28 180q0 34 -30 43q-32 4 -54 4h-126l-97 -536q-33 -181 -106 -359q-77 -185 -209 -284
t-291 -99q-88 0 -131 19q-37 15 -37 63q0 58 33 156h14q28 -88 60.5 -122t76.5 -34q27 0 42 10.5t34 42.5q38 70 80 293l152 850h-256l-103 -579q-33 -181 -106 -359q-76 -183 -217 -282q-137 -101 -287 -101q-125 0 -166 27q-37 21 -37 63q0 29 12 99q11 63 23 100z" />
    <glyph glyph-name="f_f_k" unicode="ffk" horiz-adv-x="2469" 
d="M-299 -178h14q25 -89 71 -143t87 -54q62 0 92 53q38 70 80 293l160 893h-123l14 72q97 31 117 63q1 1 5.5 11.5t15.5 37.5t22 52q54 135 150 215q116 98 323 98q46 0 121 -16q53 -15 53 -58q0 -63 -53 -196h-19q-29 109 -51.5 146.5t-58.5 37.5q-61 0 -82 -84
q-11 -41 -31 -180l-4 -66h158q58 0 84 29q7 7 43 90q53 138 155 221q133 109 381 109q43 0 111 -12q62 -8 96 -27q127 39 234 39q51 0 67.5 -12t16.5 -54q0 -40 -45 -227q-73 -328 -107 -446q49 113 166 215t244 102q205 0 205 -172q0 -96 -77 -183t-208 -143
q64 -159 123 -284q27 -62 49 -90q41 -56 94 -56q1 0 37 4l4 -12q-41 -35 -147 -76q-98 -39 -213 -39q-123 0 -158 86q-26 63 -45 119q-10 32 -38 126t-38 126q-4 0 -9.5 -0.5t-16 -1.5t-19.5 -2l-92 -426h-363l174 807q72 348 72 438q0 64 -33.5 88.5t-101.5 24.5
q-75 0 -109 -64q-27 -52 -51 -225l-10 -72h174l-22 -133h-172l-97 -536q-33 -181 -106 -359q-77 -183 -208 -283t-286 -100q-88 0 -137 19q-36 17 -36.5 68t32.5 153h14q47 -158 137 -158q52 0 76 53q38 80 80 293l152 850h-256l-103 -579q-33 -181 -106 -359
q-77 -183 -213 -283t-297 -100q-112 0 -160 25q-37 21 -37 67q0 27 12 95q8 59 23 92zM1776 541l-15 -66q98 10 170 41.5t105 75.5q57 76 57 164q0 71 -78 71q-77 0 -147 -88q-69 -90 -92 -198z" />
    <glyph glyph-name="f_h" unicode="fh" horiz-adv-x="1847" 
d="M-299 -178h14q59 -197 152 -197q68 0 98 53q40 75 82 293l158 893h-123l14 72q94 35 111 61q10 13 47 117q57 142 156 225q131 107 381 107q124 0 192 -39q121 39 231 39q55 0 68.5 -10t13.5 -52q0 -37 -30 -184q-69 -316 -119 -504q46 115 168 222q118 106 268 106
q81 0 119.5 -29.5t38.5 -101.5q0 -85 -92 -518q-37 -179 -37 -215q0 -58 65 -58q50 0 64 2l2 -12q-68 -42 -187 -78q-112 -34 -210 -34q-65 0 -89 27t-24 83q0 36 29 178q98 471 98 492q0 37 -39 37q-59 0 -129 -105q-50 -76 -78 -213l-96 -479h-365l170 815q70 332 70 430
q0 63 -30 88t-91 25q-74 0 -108 -64q-28 -49 -52 -225l-10 -72h172l-22 -133h-170l-101 -569q-29 -175 -108 -369q-75 -182 -221 -282q-143 -101 -293 -101q-108 0 -156 25q-37 21 -37 67q0 27 12 95q8 59 23 92z" />
    <glyph glyph-name="f_j" unicode="fj" horiz-adv-x="1300" 
d="M-299 -178h14q59 -197 150 -197q70 0 100 53q38 70 80 293l160 893h-123l14 72q93 35 113 61q8 11 13 23.5t17.5 45.5t30.5 75q36 87 76.5 133.5t102.5 81.5q159 90 382 90q172 0 267 -31q51 -15 51 -55q0 -77 -57 -260h-37q-25 122 -85 189t-147 67q-89 0 -139 -53
q-28 -34 -42 -87.5t-34 -189.5l-4 -29h289q165 35 225 35q54 0 72 -19t18 -65q0 -95 -78 -471q-75 -370 -116 -487q-41 -128 -94 -205q-145 -201 -400 -201q-31 0 -73.5 9.5t-55.5 19.5q-35 18 -35 55q0 53 33 156h17q27 -156 106 -156q53 0 80 53q36 71 139 603l62 315
q22 126 22 168q0 39 -29 49q-19 8 -49 8h-155l-103 -581q-36 -190 -106 -357q-75 -182 -221 -282q-143 -101 -293 -101q-111 0 -156 25q-37 21 -37 67q0 27 12 95q8 59 23 92z" />
    <glyph glyph-name="f_k" unicode="fk" horiz-adv-x="1818" 
d="M-299 -178h14q59 -197 152 -197q68 0 98 53q40 75 82 293l158 893h-123l14 72q94 35 111 61q10 13 47 117q57 142 156 225q131 107 381 107q122 0 190 -39q127 39 233 39q51 0 67.5 -12t16.5 -54q0 -40 -45 -227q-77 -344 -106 -446q49 113 166 215t243 102
q205 0 205 -172q0 -96 -77 -183t-207 -143q76 -190 120 -284q22 -49 52 -90q41 -56 94 -56q31 0 37 2l4 -12q-40 -34 -148 -76q-101 -37 -213 -37q-122 0 -157 86l-45 117l-43 137q-8 32 -19.5 71.5t-13.5 45.5q-4 0 -9.5 -0.5t-16 -1.5t-19.5 -2l-92 -426h-363l174 807
q72 348 72 438q0 63 -30 88t-91 25q-72 0 -106 -64q-28 -55 -52 -225l-10 -72h172l-22 -133h-170l-101 -569q-29 -175 -108 -369q-75 -182 -221 -282q-143 -101 -293 -101q-108 0 -156 25q-37 21 -37 67q0 27 12 95q8 59 23 92zM1124 541l-14 -66q97 10 169 41.5t105 75.5
q58 77 58 164q0 71 -78 71q-77 0 -147 -88q-70 -92 -93 -198z" />
    <glyph glyph-name=".notdef" horiz-adv-x="999" 
d="M993 0h-987v1382h987v-1382zM164 1284l336 -504l336 504h-672zM895 1194l-338 -502l338 -504v1006zM500 602l-336 -504h672zM440 692l-336 502v-1006z" />
    <glyph glyph-name=".null" horiz-adv-x="0" 
 />
    <glyph glyph-name="nonmarkingreturn" horiz-adv-x="682" 
 />
    <glyph glyph-name="NULL" horiz-adv-x="0" 
 />
    <glyph glyph-name="NULL" horiz-adv-x="0" 
 />
    <glyph glyph-name="CR" unicode="&#xd;" horiz-adv-x="413" 
 />
    <glyph glyph-name="space" unicode=" " horiz-adv-x="471" 
 />
    <glyph glyph-name="exclam" unicode="!" horiz-adv-x="561" 
d="M324 489h-27q-10 109 -43 312q-33 202 -33 323q0 112 60 182t178 70q88 0 140 -42.5t52 -125.5q0 -79 -47 -194q-46 -104 -137 -264q-37 -66 -84.5 -154t-58.5 -107zM465 182q0 -88 -57 -146.5t-152 -58.5q-79 0 -131.5 52.5t-52.5 136.5q0 93 58 155t151 62
q87 0 135.5 -54.5t48.5 -146.5z" />
    <glyph glyph-name="quotedbl" unicode="&#x22;" horiz-adv-x="749" 
d="M420 1217l-187 -367h-32l-13 205q-10 195 -10 213q0 70 6 110q8 46 47.5 79.5t106.5 33.5q129 0 129 -125q0 -53 -47 -149zM797 1217l-187 -367h-32l-13 205q-10 195 -10 213q0 70 6 110q8 46 47.5 79.5t106.5 33.5q129 0 129 -125q0 -53 -47 -149z" />
    <glyph glyph-name="numbersign" unicode="#" horiz-adv-x="1247" 
d="M387 350l-121 -385h-112l120 385h-223l41 262h264l45 140h-229l41 262h270l113 358h111l-113 -358h311l113 358h110l-112 -358h219l-41 -262h-260l-43 -140h223l-41 -262h-264l-119 -385h-110l118 385h-311zM823 752h-311l-43 -140h311z" />
    <glyph glyph-name="dollar" unicode="$" horiz-adv-x="1132" 
d="M465 -12l-35 -181h-90l33 177q-247 0 -342 77q-31 25 -31 84q0 80 41 261h14q48 -135 141.5 -214t200.5 -90l70 367l-107 72q-117 80 -180 159q-59 80 -59 207q0 207 141 312q141 106 377 127l39 200h90l-39 -196h19q152 0 245 -35q33 -12 45.5 -26t12.5 -42
q0 -18 -23 -121q-21 -93 -43 -149h-14q-30 123 -90 183.5t-174 70.5l-68 -348l70 -47q39 -25 127 -91q39 -26 86 -79q48 -49 67 -103.5t19 -130.5q0 -186 -154 -307q-148 -119 -389 -137zM655 248q0 55 -21 88t-87 80l-60 -312q168 15 168 144zM457 1104q0 -46 22 -83.5
t80 -80.5l57 291q-159 -12 -159 -127z" />
    <glyph glyph-name="percent" unicode="%" horiz-adv-x="1783" 
d="M825 1098q0 -144 -45 -278t-133 -216q-94 -88 -260 -88q-272 0 -272 256q0 284 147 453q105 123 291 123q272 0 272 -250zM575 1204q0 70 -43 70q-25 0 -40.5 -17.5t-34.5 -66.5q-36 -88 -62 -260q-28 -179 -28 -264q0 -70 45 -70q27 0 42.5 20.5t34.5 79.5q31 97 56 256
q30 172 30 252zM393 -10l950 1425l101 -65l-950 -1420zM1710 565q0 -144 -45 -277.5t-133 -215.5q-94 -88 -260 -88q-273 0 -273 256q0 281 148 452q105 123 291 123q272 0 272 -250zM1460 672q0 69 -43 69q-25 0 -41 -17.5t-35 -66.5q-34 -84 -61 -260q-29 -185 -29 -264
q0 -70 45 -70q27 0 43 21t35 80q31 97 56 256q30 172 30 252z" />
    <glyph glyph-name="ampersand" unicode="&#x26;" horiz-adv-x="1513" 
d="M1454 201l8 -11q-119 -127 -200 -172q-79 -43 -170 -43q-95 0 -207 95q-139 -97 -371 -97q-259 0 -373 105q-112 103 -112 260q0 146 100 243t262 134q-92 160 -92 284q0 191 130 292.5t370 101.5q196 0 297 -39q63 -21 63 -78q0 -93 -53 -258h-14q-71 256 -271 256
q-83 0 -126.5 -40.5t-43.5 -109.5q0 -80 101 -237q38 -64 145 -209q160 -210 188 -244q39 74 39 133q0 62 -61 99q-46 26 -88 39l2 14h539l-3 -14q-40 -12 -86 -46q-58 -51 -112 -122q-71 -89 -156 -177q144 -172 232 -172q34 0 63 13zM793 170q-80 77 -191 221
q-106 141 -160 240q-16 -50 -16 -123q0 -168 86 -260q87 -90 203 -90q17 0 78 12z" />
    <glyph glyph-name="quotesingle" unicode="'" horiz-adv-x="372" 
d="M420 1217l-187 -367h-32l-13 205q-10 195 -10 213q0 70 6 110q8 46 47.5 79.5t106.5 33.5q129 0 129 -125q0 -53 -47 -149z" />
    <glyph glyph-name="parenleft" unicode="(" horiz-adv-x="634" 
d="M461 -256l-12 -12q-406 182 -406 725q0 386 191.5 648.5t556.5 381.5l10 -17q-129 -67 -225 -186.5t-148 -273.5q-94 -289 -94 -635q0 -510 127 -631z" />
    <glyph glyph-name="parenright" unicode=")" horiz-adv-x="634" 
d="M188 1475l13 12q405 -181 405 -723q0 -387 -191 -650t-554 -382l-13 16q129 68 225 188.5t146 274.5q96 287 96 633q0 510 -127 631z" />
    <glyph glyph-name="asterisk" unicode="*" horiz-adv-x="788" 
d="M479 743q-44 0 -75 21.5t-31 60.5q0 41 24 80q5 9 38 63t50 85q-47 -41 -127 -121q-45 -45 -90 -45q-47 0 -72.5 30t-25.5 74q0 92 131 92h70q69 0 96 2q-88 29 -133 35q-75 23 -100 44.5t-25 62.5q0 39 30.5 70.5t73.5 31.5q52 0 82 -51q4 -8 23 -40.5t40 -67.5l36 -60
q-48 212 -48 219q0 45 28.5 67.5t72.5 22.5q41 0 69.5 -20.5t28.5 -59.5q0 -8 -0.5 -14.5t-3 -15t-5 -15t-9 -18.5t-11.5 -21t-16 -27t-19.5 -32t-25 -41t-29.5 -49l117 111q34 29 56 41t51 12q37 0 60.5 -28t23.5 -66q0 -50 -33.5 -73.5t-116.5 -23.5h-45q-4 0 -102 -4
q7 -2 32 -9.5t41 -10.5q54 -14 111 -31q47 -14 66.5 -32t19.5 -50q0 -44 -29.5 -77.5t-66.5 -33.5q-45 0 -76 31l-29 39q-33 58 -92 150q9 -35 25 -85t26 -83t10 -47q0 -43 -28 -68t-68 -25z" />
    <glyph glyph-name="plus" unicode="+" horiz-adv-x="1302" 
d="M737 451l-71 -375h-220l74 375h-364l41 208h366l72 377h217l-70 -377h377l-41 -208h-381z" />
    <glyph glyph-name="comma" unicode="," horiz-adv-x="573" 
d="M-147 -397l-9 18q167 100 239.5 173.5t72.5 152.5q0 63 -68 125q-51 45 -51 123q0 89 56.5 136.5t152.5 47.5q87 0 141.5 -60t54.5 -161q0 -81 -40 -159.5t-103 -137.5q-59 -59 -147 -111q-131 -81 -299 -147z" />
    <glyph glyph-name="hyphen" unicode="-" horiz-adv-x="706" 
d="M653 688l-59 -287h-533l60 287h532z" />
    <glyph glyph-name="period" unicode="." horiz-adv-x="555" 
d="M381 182q0 -89 -56 -147t-151 -58q-80 0 -132 52.5t-52 136.5q0 95 57 156t150 61q89 0 136.5 -54t47.5 -147z" />
    <glyph glyph-name="slash" unicode="/" horiz-adv-x="677" 
d="M889 1452l-887 -1616l-121 60l885 1611z" />
    <glyph glyph-name="zero" unicode="0" horiz-adv-x="1185" 
d="M1169 940q0 -225 -71 -455q-69 -222 -219 -362q-159 -150 -396 -150q-227 0 -327.5 108t-100.5 320q0 476 230 748q175 211 471 211q220 0 316.5 -104.5t96.5 -315.5zM778 1139q0 104 -63 104q-39 0 -68 -32.5t-53 -114.5q-40 -129 -96 -457q-49 -301 -49 -449
q0 -98 71 -98q43 0 71.5 37t51.5 127q46 181 92 455q43 258 43 428z" />
    <glyph glyph-name="one" unicode="1" horiz-adv-x="1185" 
d="M852 14l-2 -14h-731l2 14q65 11 112 39q69 40 107 230l135 704q14 66 14 125q0 66 -77 66q-53 0 -78 -2l-2 38l614 152l15 -16q-41 -171 -103 -500l-113 -582q-18 -89 -18 -137q0 -42 25 -70q24 -31 100 -47z" />
    <glyph glyph-name="two" unicode="2" horiz-adv-x="1185" 
d="M825 0h-866l25 156q114 72 188 129q74 54 174 145q101 95 156 172q64 92 102.5 204t38.5 228q0 205 -145 205q-85 0 -150.5 -54.5t-134.5 -183.5h-14q3 167 16 228q12 57 92 84q139 47 344 47q227 0 324 -100q98 -98 98 -244q0 -83 -47 -171.5t-119 -160.5
q-74 -74 -176 -145q-134 -93 -182 -121q-146 -84 -189 -107q3 0 181 4l266 9q89 12 115 30q41 26 102 119h16q-57 -355 -75 -403q-18 -39 -47 -54.5t-93 -15.5z" />
    <glyph glyph-name="three" unicode="3" horiz-adv-x="1185" 
d="M51 362h15q86 -268 280 -268q246 0 246 373q0 149 -143 149h-46l31 123h60q65 0 117.5 27.5t64.5 73.5q22 80 22 227q0 70 -35.5 121t-105.5 51q-96 0 -164 -54.5t-137 -185.5h-14q3 134 14 215q12 51 63 80q135 66 383 66q212 0 316 -90q104 -88 104 -207
q0 -329 -417 -375q329 -35 329 -254q0 -97 -39 -176.5t-103.5 -131.5t-152.5 -87t-182.5 -50.5t-196.5 -15.5q-233 0 -340 66q-32 22 -32 65q0 87 63 258z" />
    <glyph glyph-name="four" unicode="4" horiz-adv-x="1185" 
d="M1026 14l-2 -14h-741l2 14q73 15 123 45q35 25 53 61.5t37 121.5l16 71h-539l45 222l754 825h350l-88 -426l-71 -363h184l-51 -258h-185l-8 -43q-18 -68 -18 -133q0 -55 33 -78q19 -17 106 -45zM186 571h379q24 135 107 537z" />
    <glyph glyph-name="five" unicode="5" horiz-adv-x="1185" 
d="M86 360h16q15 -73 72 -161q32 -46 84 -75.5t111 -29.5q124 0 176.5 85t52.5 247q0 106 -33.5 155.5t-115.5 49.5q-133 0 -234 -70l-14 8l202 764h734l-66 -336h-328q-180 2 -340 2l-49 -194q39 32 124.5 55t185.5 23q175 0 279 -97.5t104 -273.5q0 -261 -187 -399
q-187 -140 -471 -140q-231 0 -326 62q-43 27 -43 63q0 85 66 262z" />
    <glyph glyph-name="six" unicode="6" horiz-adv-x="1185" 
d="M522 672q36 79 118 125.5t173 46.5q301 0 301 -275q0 -251 -156 -424q-156 -172 -428 -172q-207 0 -319.5 110.5t-112.5 317.5q0 241 97 484q94 238 274 368q146 107 389 107q134 0 229 -27q97 -28 97 -88q0 -91 -56 -256h-12q-23 124 -83 190t-140 66q-73 0 -126 -34.5
t-103 -114.5q-84 -128 -142 -424zM479 465q-22 -132 -22 -234q0 -139 100 -139q41 0 75 39t48 100q39 157 39 306q0 135 -84 135q-87 0 -127 -105q-21 -47 -29 -102z" />
    <glyph glyph-name="seven" unicode="7" horiz-adv-x="1185" 
d="M1180 1135l-650 -1184l-270 49q271 485 688 1008q-408 -9 -551 -9q-102 0 -143 -47q-48 -54 -68 -104h-12l14 115q2 16 10.5 86t12.5 106q12 95 14 98q12 55 35.5 67.5t99.5 12.5h852z" />
    <glyph glyph-name="eight" unicode="8" horiz-adv-x="1185" 
d="M870 791q222 -103 222 -353q0 -213 -177 -340q-175 -123 -444 -123q-218 0 -325 85.5t-107 232.5q0 242 317 328q-161 100 -161 307q0 205 153 319q152 113 391 113q193 0 293.5 -72t100.5 -194q0 -112 -64.5 -183t-198.5 -120zM420 582q-111 -111 -111 -283
q0 -103 56 -155t133 -52q95 0 147.5 54.5t52.5 148.5q0 43 -7.5 69t-31.5 62q-48 75 -239 156zM805 831q86 127 86 246q0 166 -168 166q-84 0 -127 -43t-43 -119q0 -136 252 -250z" />
    <glyph glyph-name="nine" unicode="9" horiz-adv-x="1185" 
d="M711 662q-102 -166 -293 -166q-142 0 -216.5 72t-74.5 208q0 258 143 420q144 164 424 164q439 0 439 -395q0 -261 -84 -508q-82 -238 -261 -373q-150 -111 -401 -111q-150 0 -246 35q-102 40 -102 107t63 250h17q25 -137 96.5 -207t169.5 -70q64 0 108.5 35t86.5 123
q81 168 131 416zM758 915q22 132 22 215q0 61 -21 87t-67 26q-67 0 -108 -84q-36 -79 -56 -184q-18 -108 -18 -170q0 -48 23 -81.5t59 -33.5q90 0 131 92q26 80 35 133z" />
    <glyph glyph-name="colon" unicode=":" horiz-adv-x="593" 
d="M426 182q0 -88 -57.5 -146.5t-149.5 -58.5q-80 0 -133 52.5t-53 136.5q0 95 58 156t153 61q86 0 134 -54.5t48 -146.5zM551 801q0 -88 -57 -146.5t-152 -58.5q-79 0 -131.5 52t-52.5 136q0 93 58 155t151 62q87 0 135.5 -54t48.5 -146z" />
    <glyph glyph-name="semicolon" unicode=";" horiz-adv-x="593" 
d="M530 801q0 -88 -56.5 -146.5t-151.5 -58.5q-79 0 -132 52.5t-53 135.5q0 93 58 155t151 62q87 0 135.5 -54t48.5 -146zM-109 -397l-8 18q167 100 239.5 173.5t72.5 152.5q0 63 -68 125q-51 45 -51 123q0 86 57.5 135t151.5 49q87 0 141.5 -60t54.5 -161q0 -81 -40 -159.5
t-103 -137.5q-57 -57 -148 -111q-131 -81 -299 -147z" />
    <glyph glyph-name="less" unicode="&#x3c;" horiz-adv-x="1302" 
d="M979 281l-43 -236l-719 397l43 224l870 383l-49 -246l-622 -260z" />
    <glyph glyph-name="equal" unicode="=" horiz-adv-x="1302" 
d="M1118 489l-43 -215h-962l43 215h962zM1186 831l-41 -208h-963l41 208h963z" />
    <glyph glyph-name="greater" unicode="&#x3e;" horiz-adv-x="1302" 
d="M350 823l43 230l711 -385l-41 -228l-862 -391l49 256l620 260z" />
    <glyph glyph-name="question" unicode="?" horiz-adv-x="907" 
d="M367 485h-29q0 18 -2 47v68q3 89 31 143q27 55 129 150q71 71 71 207q0 180 -139 180q-147 0 -229 -199h-15q0 148 13 211q7 39 26.5 56t61.5 28q112 31 254 31q235 0 343.5 -68.5t108.5 -222.5q0 -143 -108 -227q-53 -41 -100.5 -68t-139.5 -71q-212 -102 -246 -166
q-21 -46 -30 -99zM535 182q0 -88 -57 -146.5t-152 -58.5q-79 0 -132 52.5t-53 136.5q0 93 58 155t151 62q87 0 136 -54.5t49 -146.5z" />
    <glyph glyph-name="at" unicode="@" horiz-adv-x="1474" 
d="M1210 -14l35 -60q-238 -143 -528 -143q-293 0 -465 172t-172 451q0 330 211 550q211 224 555 224q264 0 412.5 -133t148.5 -385q0 -122 -59 -252t-156 -205q-135 -105 -258 -105q-150 0 -150 111q0 87 33 160q-66 -121 -150 -190.5t-159 -69.5q-79 0 -114.5 41t-35.5 129
q0 121 70 270q73 154 174 237q104 84 268 84q174 0 304 -43q-48 -93 -152 -473q-21 -79 -21 -118q0 -37 46 -37q44 0 120 73q68 63 109 167.5t41 213.5q0 217 -120.5 336t-356.5 119q-279 0 -465 -195q-182 -194 -182 -505q0 -261 147 -404t408 -143q140 0 241.5 29
t220.5 94zM924 750q0 35 -33 41q-32 4 -51 4q-62 0 -105 -58q-48 -61 -102 -198q-49 -131 -49 -217q0 -46 39 -46q103 0 217 238q33 56 78 191q6 21 6 45z" />
    <glyph glyph-name="A" unicode="A" horiz-adv-x="1460" 
d="M311 14l-4 -14h-405l4 14q15 2 55 15q40 14 82 77l543 932l188 328h268l43 -326l115 -821q15 -128 57 -164q24 -20 84 -41l-2 -14h-673l2 14q66 15 94 35q39 26 39 72q0 34 -10 112l-23 209h-387l-152 -272q-31 -63 -32.5 -88.5t18.5 -34.5q37 -20 96 -33zM446 565h308
q-33 324 -43 484q-50 -97 -265 -484z" />
    <glyph glyph-name="B" unicode="B" horiz-adv-x="1378" 
d="M666 0h-674l4 14q75 18 117 60q32 32 57 162l174 878q16 91 16 139q0 72 -122 99l2 14h616q239 0 344 -51q137 -64 137 -215t-95 -234t-312 -131q358 -37 358 -309q0 -277 -274 -379q-130 -47 -348 -47zM758 1184l-78 -402h33q68 0 116 25q53 27 74 113q23 94 23 163
q0 97 -27 131q-25 31 -78 31h-10q-44 0 -53 -61zM674 664h-19l-71 -383q-19 -78 -19 -117q0 -32 19 -41q13 -8 71 -8q99 0 140 80q55 101 55 284q0 132 -76 166q-40 19 -100 19z" />
    <glyph glyph-name="C" unicode="C" horiz-adv-x="1310" 
d="M1186 319l16 -2q-30 -142 -65 -229q-18 -49 -80 -70q-145 -45 -371 -45q-298 0 -452 147t-154 415q0 280 115 485t331 303q159 72 424 72q188 0 301 -43q56 -24 56 -66q0 -65 -64 -272h-16q-34 161 -99 217q-52 43 -180 43q-154 0 -248 -105q-84 -93 -131 -272
q-45 -170 -45 -336q0 -216 72.5 -339.5t220.5 -123.5q131 0 219 64q67 49 150 157z" />
    <glyph glyph-name="D" unicode="D" horiz-adv-x="1574" 
d="M756 0h-764l2 14q92 20 127 68q26 39 67 240l142 722q26 133 26 197q0 42 -24 67.5t-92 43.5l2 14h651q365 0 508 -125q158 -137 158 -379q0 -137 -28 -261t-90.5 -235t-154.5 -191.5t-228 -127.5t-302 -47zM727 1030l-145 -745q-17 -93 -17 -107q0 -23 23 -43t147 -20
q113 0 197.5 72t126.5 196q76 224 76 491q0 139 -33 218q-61 155 -215 155h-13q-67 0 -94 -30q-18 -18 -53 -187z" />
    <glyph glyph-name="E" unicode="E" horiz-adv-x="1249" 
d="M1034 0h-1042l2 14q61 17 106 47q47 35 62 127l182 928q14 71 14 133q0 46 -28 68q-20 14 -90 35l2 14h983q49 0 49 -33q0 -61 -70 -284h-14q-23 129 -55 157q-37 29 -127 29h-177q-39 0 -55 -20t-24 -70l-76 -367h110q146 0 203 13q37 10 61 37t60 96h16l-86 -424h-16
q-8 67 -29.5 97t-70.5 40q-46 12 -160 12h-109l-73 -373q-15 -71 -15 -106q0 -43 97 -43h176q120 0 182 45q54 39 135 168h14q-41 -225 -63 -297q-8 -25 -23 -34t-51 -9z" />
    <glyph glyph-name="F" unicode="F" horiz-adv-x="1175" 
d="M707 14l-5 -14h-710l2 14q89 21 125 66q24 27 59 192l158 803q22 126 22 156q0 35 -4 51q-15 43 -114 70l2 14h968q52 0 52 -33q0 -61 -70 -284h-14q-15 145 -62 172q-25 14 -137 14h-154q-36 0 -49 -17t-24 -73l-78 -381h110q121 0 183 16q82 21 141 133h14l-82 -424
h-16q-12 122 -106 140q-47 8 -154 8h-113l-71 -373q-17 -90 -17 -137q0 -67 144 -113z" />
    <glyph glyph-name="G" unicode="G" horiz-adv-x="1486" 
d="M1241 18q-87 -6 -313 -30q-231 -15 -258 -15q-302 0 -447 154q-143 152 -143 395q0 318 153 543q154 227 408 291q150 39 371 39q186 0 305 -35q80 -27 80 -78q0 -75 -64 -270h-14q-14 107 -76 182q-65 80 -235 80q-125 0 -217 -53q-265 -154 -265 -707q0 -193 62 -306.5
t176 -113.5q33 0 57 12q33 15 49 103l27 141q16 91 16 137q0 43 -20.5 67.5t-81.5 43.5l2 12h623l-2 -12q-54 -25 -76 -47q-34 -34 -64 -191l-32 -161q-21 -86 -21 -181z" />
    <glyph glyph-name="H" unicode="H" horiz-adv-x="1617" 
d="M1425 14l-2 -14h-686l2 14q78 18 123 66q26 33 60 188l75 381h-344l-73 -383q-23 -131 -23 -157q0 -57 123 -95l-2 -14h-686l4 14q71 14 119 66q31 39 61 188l162 815q20 100 20 166q0 43 -22.5 64t-97.5 39l2 14h682l-4 -14q-93 -36 -111 -54q-22 -20 -34 -57t-32 -141
l-63 -322h346l61 305q21 105 21 166q0 43 -23 64t-100 39l2 14h682l-4 -14q-90 -35 -109 -54q-37 -34 -67 -198l-160 -834q-22 -126 -22 -157q0 -57 120 -95z" />
    <glyph glyph-name="I" unicode="I" horiz-adv-x="876" 
d="M682 14l-4 -14h-686l4 14q71 14 119 66q31 39 61 188l162 817q20 100 20 164q0 43 -22.5 64t-97.5 39l2 14h686l-4 -14q-91 -33 -115 -54q-22 -20 -34 -56.5t-32 -139.5l-161 -836q-23 -131 -23 -157q0 -31 28.5 -53t96.5 -42z" />
    <glyph glyph-name="J" unicode="J" horiz-adv-x="866" 
d="M-147 -2h12q22 -96 61 -146.5t84 -50.5q59 0 80 35q16 25 29 90l14 66l19 92l20 109l172 901q16 88 16 137q0 43 -29 69.5t-112 51.5l2 14h699l-2 -14q-74 -25 -107 -58q-26 -34 -33 -59q-9 -30 -30 -129l-160 -854q-28 -149 -60 -223q-37 -86 -96 -150
q-172 -196 -426 -196q-100 0 -147 18q-49 21 -49 63q0 72 43 234z" />
    <glyph glyph-name="K" unicode="K" horiz-adv-x="1570" 
d="M682 14l-2 -14h-688l4 14q85 21 117 64q37 49 63 190l162 817q20 100 20 164q0 44 -21.5 64.5t-96.5 38.5l2 14h686l-6 -14q-91 -33 -115 -54q-22 -20 -34 -56.5t-32 -139.5l-79 -400q226 194 389 355q127 127 127 194t-123 101l2 14h583l-2 -14q-98 -37 -155 -78
q-64 -45 -160 -137l-293 -273q150 -456 332 -735q40 -63 158 -98l-7 -17q-135 -24 -452 -24q-64 0 -92 20t-43 66q-50 119 -207 547q-72 -54 -86 -64l-53 -293q-21 -108 -21 -155q0 -59 123 -97z" />
    <glyph glyph-name="L" unicode="L" horiz-adv-x="1228" 
d="M1026 0h-1034l2 14q67 16 106 49q42 31 60 125l170 869q28 156 28 184q0 47 -22 69.5t-98 41.5l2 14h686l-2 -14q-91 -28 -115 -58q-37 -37 -72 -215l-155 -796q-15 -77 -15 -111q0 -45 86 -45h176q121 0 179 37q66 45 147 174h14q-25 -173 -63 -297q-9 -41 -80 -41z" />
    <glyph glyph-name="M" unicode="M" horiz-adv-x="1820" 
d="M385 14l-4 -14h-420l2 14q100 24 127 70q31 36 72 211l172 754q35 152 35 202q0 51 -41 72q-43 23 -72 29l4 14h518q50 0 65.5 -10.5t20.5 -46.5q36 -348 64 -664q48 106 317 668q11 21 16.5 29t23 16t46.5 8h508l-2 -14q-46 -16 -68 -29q-42 -33 -57 -113l-168 -911
q-22 -132 -22 -182q0 -39 43 -66q45 -24 82 -37l-2 -14h-697l2 14q33 7 84 27q34 11 48.5 40t27.5 99q164 925 172 955q-98 -217 -477 -979h-205q-6 67 -53 516l-37 340q-14 132 -16 162l-80 -365l-117 -526q-25 -147 -25 -166q0 -33 24.5 -56t88.5 -47z" />
    <glyph glyph-name="N" unicode="N" horiz-adv-x="1564" 
d="M446 14l-6 -14h-448l4 14q83 18 117 58q37 44 63 176q69 335 150 788q26 144 26 193q0 60 -26 80q-37 29 -97 43l2 14h523q43 0 61 -37l365 -799q92 506 98 592q8 88 8 105q0 54 -27.5 80t-101.5 45l2 14h447l-2 -14q-32 -8 -103 -49q-59 -44 -86 -185l-213 -1132h-225
l-502 1179l-61 -352q-16 -95 -41 -236.5t-29 -162.5q-27 -156 -27 -166q-12 -86 -12 -121q0 -39 24 -57.5t117 -55.5z" />
    <glyph glyph-name="O" unicode="O" horiz-adv-x="1470" 
d="M1452 928q0 -204 -82 -428q-84 -228 -237 -361q-91 -79 -226.5 -122.5t-271.5 -43.5q-266 0 -410.5 138.5t-144.5 386.5q0 195 76 399q76 203 231 334q93 81 236 121q142 43 284 43q545 0 545 -467zM1016 1044q0 133 -30 182.5t-101 49.5q-96 0 -176 -121
q-70 -107 -134 -364q-61 -256 -61 -429q0 -151 30 -209.5t103 -58.5q117 0 178 111q87 159 138 416q53 270 53 423z" />
    <glyph glyph-name="P" unicode="P" horiz-adv-x="1386" 
d="M713 14l-4 -14h-715l4 14q67 14 119 66q29 29 63 196l164 828q16 94 16 145q0 52 -45 78q-24 12 -75 25l2 14h589q177 0 314 -25q266 -52 266 -288q0 -132 -54.5 -228.5t-154.5 -148.5q-183 -92 -450 -92q-80 0 -111 2l-66 -332q-18 -99 -18 -145q0 -45 43 -60
q25 -13 113 -35zM756 1167l-92 -462q35 -3 84 -3q241 0 241 367q0 92 -47 145q-44 35 -98 35h-21q-35 0 -47 -15.5t-20 -66.5z" />
    <glyph glyph-name="Q" unicode="Q" horiz-adv-x="1470" 
d="M1452 928q0 -204 -82 -428q-84 -228 -237 -361q-77 -66 -183 -106q158 -116 234 -144q79 -28 176 -28q50 0 86 8l6 -8q-108 -95 -195 -148q-90 -56 -124 -63q-45 -10 -84 -10q-113 0 -220 67q-96 57 -374 287q-183 41 -279 171.5t-96 332.5q0 195 76 399q76 203 231 334
q93 81 236 121q142 43 284 43q545 0 545 -467zM1016 1044q0 133 -30 182.5t-101 49.5q-96 0 -176 -121q-70 -107 -134 -364q-61 -256 -61 -429q0 -151 30 -209.5t103 -58.5q117 0 178 111q87 159 138 416q53 270 53 423z" />
    <glyph glyph-name="R" unicode="R" horiz-adv-x="1515" 
d="M682 14l-4 -14h-686l2 14q95 24 123 66q29 29 63 196l158 820q20 97 20 151q0 42 -25.5 65t-96.5 40l4 14h553q169 0 292 -8q151 -11 238.5 -93.5t87.5 -217.5q0 -149 -99 -248.5t-280 -134.5q85 -27 133 -125q52 -106 125 -349q20 -68 55 -101t111 -60l-4 -15
q-151 -22 -311 -22q-158 0 -217 39q-61 45 -95 196q-63 282 -71 303q-18 58 -88 58h-29l-61 -316q-23 -128 -23 -147q0 -28 16 -57q15 -26 109 -54zM752 1159l-82 -442h26q151 0 205 57q82 85 82 318q0 103 -72 141q-25 14 -86 14h-8q-34 0 -47 -21.5t-18 -66.5z" />
    <glyph glyph-name="S" unicode="S" horiz-adv-x="1056" 
d="M66 401h16q91 -307 369 -307q114 0 165.5 36t51.5 120q0 63 -41 104q-43 46 -156 123l-96 68q-124 85 -182 172.5t-58 214.5q0 101 31.5 180t86.5 131.5t134 87t168.5 49.5t194.5 15q138 0 245 -39q58 -21 58 -64q0 -70 -58 -256h-16q-50 244 -279 244q-115 0 -173 -40.5
t-58 -109.5q0 -81 149 -194l103 -76q89 -66 131 -100q31 -23 84 -86q45 -52 61.5 -108.5t16.5 -145.5q0 -211 -168 -330q-170 -117 -430 -117q-240 0 -353 76q-34 24 -34 88q0 55 37 264z" />
    <glyph glyph-name="T" unicode="T" horiz-adv-x="1275" 
d="M879 14l-2 -14h-682l4 14q86 28 114 66q28 28 66 211l164 817q8 41 8 82q0 45 -51 45h-21q-66 0 -133 -31q-105 -52 -201 -211h-16q27 240 49 328q9 45 58 45h1081q51 0 51 -35q0 -59 -72 -338h-14q-27 177 -117 221q-41 21 -123 21h-26q-30 0 -43.5 -12t-20.5 -47
l-174 -922q-22 -119 -22 -150q0 -56 123 -90z" />
    <glyph glyph-name="U" unicode="U" horiz-adv-x="1511" 
d="M215 1352l2 14h688l-2 -14q-72 -20 -110 -43q-37 -27 -62 -150l-127 -657q-26 -127 -26 -213q0 -97 51.5 -137.5t165.5 -40.5q125 0 213 79q86 77 120 244l134 680q14 80 14 119q0 51 -24.5 75t-96.5 44l4 14h426l-4 -14q-5 0 -23.5 -4.5t-23.5 -4.5q-55 -18 -78 -47
q-25 -32 -39 -110l-131 -697q-46 -236 -123 -325q-87 -103 -207 -147t-305 -44q-469 0 -469 346q0 74 29 242l106 553q17 97 17 146q0 40 -23.5 57t-95.5 35z" />
    <glyph glyph-name="V" unicode="V" horiz-adv-x="1404" 
d="M817 182l-98 -182h-266q-2 28 -13 88q-3 26 -34 215l-138 844q-21 131 -51 166q-17 24 -63 39l4 14h653l-4 -14q-82 -12 -107 -37q-36 -26 -36 -80q0 -11 12 -102q68 -459 110 -795q25 56 402 811q45 86 45 135q0 24 -21 39q-18 14 -84 29l5 14h403l-4 -14l-43 -15
q-29 -13 -51 -41q-26 -33 -74 -120l-463 -840z" />
    <glyph glyph-name="W" unicode="W" horiz-adv-x="1955" 
d="M651 0h-278q-3 103 -21 317l-67 885q-6 82 -37 113q-22 22 -62 37l4 14h609l-2 -14q-3 -2 -22.5 -9t-37.5 -15.5t-24 -14.5q-17 -24 -17 -74q0 -60 2 -115l13 -274q3 -74 8.5 -226t7.5 -198q52 146 369 905h260q109 -776 121 -923q88 249 280 739q29 82 29 119t-45 63
q-15 10 -53 23l4 14h370l-4 -14q-33 -10 -49 -23q-36 -22 -76 -123l-401 -927l-119 -279h-272q-25 224 -52 462.5t-38 336.5t-13 119q-28 -77 -387 -918z" />
    <glyph glyph-name="X" unicode="X" horiz-adv-x="1427" 
d="M303 14l-2 -14h-420l2 14q25 5 45 13q67 30 166 135l457 479l-250 565q-40 88 -74 115q-25 25 -67 31l2 14h653l-2 -14q-43 -8 -70 -25q-19 -9 -18 -37t25 -88l133 -307q9 14 286 342q25 28 25 57q0 22 -31 37q-31 14 -59 21l4 14h395l-2 -14q-24 -5 -57 -25
q-56 -41 -144 -135l-370 -393l289 -637q47 -103 86 -129q22 -16 47 -19l-4 -14h-664l4 14q33 5 76 29q22 16 22 41q0 27 -24 86l-162 371l-352 -400q-33 -36 -33 -65q0 -21 25 -37q39 -20 63 -25z" />
    <glyph glyph-name="Y" unicode="Y" horiz-adv-x="1316" 
d="M924 14l-4 -14h-703l4 14q99 26 127 68q21 27 55 213l62 334l-236 602q-31 78 -65 102q-14 10 -43 19l4 14h623l-3 -14q-35 -6 -69 -21q-23 -13 -23 -35q0 -13 23 -77q149 -406 158 -449l47 68q199 276 274 385q29 47 29 69q0 15 -17 29q-23 20 -73 31l2 14h383l-2 -14
q-19 -3 -43 -13q-44 -23 -115 -114l-428 -533l-76 -409q-20 -97 -20 -160q0 -35 27 -59.5t102 -49.5z" />
    <glyph glyph-name="Z" unicode="Z" horiz-adv-x="1282" 
d="M1090 0h-1221l2 14l967 1223q-187 0 -375 -8q-121 -6 -168 -62q-29 -34 -86 -127h-14q8 121 34 271q5 28 17 41.5t45 13.5h1136l-2 -14l-983 -1223q203 0 449 6q129 3 178 55q63 68 119 160h16q-4 -50 -20 -149q-16 -102 -31 -156q-15 -45 -63 -45z" />
    <glyph glyph-name="bracketleft" unicode="[" horiz-adv-x="690" 
d="M465 -219l-2 -12h-483l327 1679h484l-3 -14q-167 -46 -190 -72q-23 -23 -41 -113l-248 -1284q-8 -39 -8 -74q0 -44 35 -65q32 -20 129 -45z" />
    <glyph glyph-name="backslash" unicode="\" horiz-adv-x="909" 
d="M319 1503l502 -1612l-133 -36l-508 1611z" />
    <glyph glyph-name="bracketright" unicode="]" horiz-adv-x="690" 
d="M225 1436l2 12h484l-328 -1679h-483l2 14q166 47 188 72q23 23 41 112l250 1284q8 41 8 74q0 45 -37 66q-28 19 -127 45z" />
    <glyph glyph-name="asciicircum" unicode="^" horiz-adv-x="1302" 
d="M918 1309l225 -779h-230l-149 562l-352 -562h-256l512 779h250z" />
    <glyph glyph-name="underscore" unicode="_" horiz-adv-x="1021" 
d="M-104 -252l18 105h1020l-19 -105h-1019z" />
    <glyph glyph-name="grave" unicode="`" horiz-adv-x="411" 
d="M258 1442l152 -314l-15 -10l-303 166q-96 53 -96 131q0 56 37.5 92.5t89.5 36.5q83 0 135 -102z" />
    <glyph glyph-name="a" unicode="a" horiz-adv-x="1251" 
d="M1163 100l2 -10q-75 -46 -182.5 -78t-202.5 -32q-131 0 -131 120q0 79 31 234q-182 -361 -447 -361q-70 0 -127 33q-69 43 -69 207q0 175 88 379q88 205 213 309q78 64 171.5 93.5t240.5 29.5q96 0 260 -23q154 -22 192 -47q-36 -42 -82 -225q-34 -133 -78 -367
q-20 -111 -20 -198q0 -66 65 -66q60 0 76 2zM782 881q0 28 -24 37q-15 6 -35 6q-54 0 -98 -56q-61 -76 -129 -288q-66 -216 -66 -322q0 -63 41 -63q43 0 92 55q47 50 84 119q28 57 66 182q42 136 59 240q10 72 10 90z" />
    <glyph glyph-name="b" unicode="b" horiz-adv-x="1210" 
d="M14 59q29 55 43 109q41 153 64 266l135 678q23 115 23 164q0 42 -13 61q-19 32 -106 41v15q227 53 438 53q72 0 72 -62q0 -66 -29 -188q-76 -347 -109 -477q67 140 191 223q122 82 242 82q106 0 147 -56.5t41 -203.5q0 -151 -59 -340q-59 -190 -162 -293
q-70 -70 -201 -117q-125 -45 -246 -45q-271 0 -471 90zM500 74q81 0 133 104q33 61 82 254q45 179 45 264q0 54 -14 76.5t-46 22.5q-62 0 -127 -115q-61 -112 -90 -258l-22 -115q-15 -74 -20 -108t-4 -68t16.5 -45.5t46.5 -11.5z" />
    <glyph glyph-name="c" unicode="c" horiz-adv-x="929" 
d="M797 264l6 -4q0 -29 -10 -59q-6 -26 -43 -68q-76 -76 -188 -118t-230 -42q-146 0 -222.5 69.5t-76.5 203.5q0 180 57 342q58 166 141 268q134 168 426 168q120 0 199 -31q53 -21 53 -63q0 -85 -67 -240h-17q-36 138 -73.5 190t-85.5 52q-59 0 -103 -68q-48 -75 -90 -246
q-37 -161 -37 -323q0 -61 31.5 -92t87.5 -31q133 0 242 92z" />
    <glyph glyph-name="d" unicode="d" horiz-adv-x="1269" 
d="M1165 100l2 -10q-174 -110 -383 -110q-133 0 -133 135q0 73 27 202q-83 -162 -201.5 -253t-234.5 -91q-77 0 -138 35q-71 47 -71 207q0 174 86 375q85 201 207 305q78 68 164 98.5t219 30.5q67 0 102 -12l6 24q37 151 37 240q0 53 -20 70q-22 20 -101 32l2 15
q210 53 436 53q42 0 58 -15t16 -51q0 -39 -37 -227l-129 -637q-51 -254 -51 -350q0 -31 19.5 -49.5t50.5 -18.5q57 0 67 2zM659 381q49 101 111 420q10 58 10 80q0 19 -16 31t-39 12q-62 0 -109 -62q-59 -80 -124 -287q-66 -210 -66 -321q0 -59 43 -59q45 0 96.5 49.5
t93.5 136.5z" />
    <glyph glyph-name="e" unicode="e" horiz-adv-x="985" 
d="M831 266l7 -4q0 -23 -4 -47q-2 -15 -33 -61q-49 -64 -176 -123q-125 -58 -269 -58q-114 0 -182 25q-139 50 -139 254q0 141 65 330q64 185 158 290q143 152 385 152q315 0 315 -209q0 -77 -51 -158q-46 -78 -160 -129t-301 -55q-14 -80 -14 -184q0 -32 9.5 -55.5
t22.5 -35.5t34 -18.5t37.5 -8t39.5 -1.5q60 0 136 29t120 67zM453 516q118 42 178.5 140.5t60.5 220.5q0 61 -49 61q-39 0 -74 -59q-75 -135 -116 -363z" />
    <glyph glyph-name="f" unicode="f" horiz-adv-x="737" 
d="M-299 -168h14q71 -207 168 -207q52 0 82 53q38 72 80 293l160 893h-123l14 72q94 35 111 61q8 12 47 119q60 144 166 225q138 105 391 105q88 0 152 -23q53 -21 53 -59q0 -78 -58 -236h-16q-37 126 -74 177q-37 54 -98.5 53.5t-99.5 -55.5q-22 -45 -31 -78
q0 -1 -10.5 -62.5t-16.5 -107.5l-8 -58h176l-22 -133h-176l-103 -579q-33 -181 -106 -359q-75 -179 -221 -282q-143 -101 -293 -101q-108 0 -156 25q-37 21 -37 67q0 69 35 197z" />
    <glyph glyph-name="g" unicode="g" horiz-adv-x="1243" 
d="M57 -100h19q23 -134 91 -202.5t152 -68.5q90 0 148 64q63 72 129 305q56 183 98 356q-88 -178 -215 -270t-231 -92q-45 0 -72.5 6t-62.5 25q-76 42 -76 200q0 172 88 373q86 200 213 305q84 68 172 94q101 29 272 29q98 0 246 -23q131 -20 176 -47q-60 -73 -145 -532
q-60 -323 -101 -457q-44 -143 -129 -231q-91 -98 -245 -146q-142 -45 -277 -45q-180 0 -254 39q-49 24 -49 68q0 70 53 250zM782 879q0 45 -51 45q-59 0 -100 -50q-60 -72 -129 -274q-70 -204 -70 -324q0 -63 47 -63q43 0 103 66q55 61 92 149q41 108 98 363q10 58 10 88z
" />
    <glyph glyph-name="h" unicode="h" horiz-adv-x="1224" 
d="M492 479l-97 -479h-364l164 811q79 396 79 467q0 51 -20 68q-33 26 -98 32l2 15q239 53 438 53q41 0 55.5 -13.5t14.5 -50.5q0 -50 -27 -176q-67 -331 -115 -510q46 115 168 222q118 106 269 106q81 0 119 -29t38 -102q0 -85 -92 -518q-37 -179 -37 -215q0 -58 66 -58
q49 0 63 2l2 -12q-69 -43 -186 -78q-112 -34 -211 -34q-65 0 -89 27t-24 83q0 36 29 178q98 471 98 488q0 41 -39 41q-58 0 -129 -105q-48 -73 -77 -213z" />
    <glyph glyph-name="i" unicode="i" horiz-adv-x="690" 
d="M575 104v-12q-76 -44 -180 -76q-100 -32 -202 -32q-134 0 -134 116q0 45 31 197l72 344q31 149 31 209q0 49 -29 68q-32 19 -82 22v14q189 64 405 64q58 0 77.5 -17.5t19.5 -60.5q0 -41 -33 -203l-76 -366q-33 -152 -33 -215q0 -56 64 -56q23 0 69 4zM612 1303
q0 -99 -52.5 -156t-145.5 -57q-73 0 -116.5 42t-43.5 113q0 85 54 143t145 58q74 0 116.5 -39.5t42.5 -103.5z" />
    <glyph glyph-name="j" unicode="j" horiz-adv-x="667" 
d="M-238 -188h17q18 -87 56 -138t73 -51q47 0 65 53q44 121 131 627l58 328q31 181 31 227q0 41 -29 60q-17 12 -82 22v14q189 64 418 64q82 0 82 -68q0 -83 -76 -499q-76 -425 -107 -533q-36 -127 -84 -188q-67 -82 -177 -136.5t-249 -54.5q-93 0 -137 33q-33 26 -33 59
q0 17 17 90q18 72 26 91zM608 1303q0 -99 -52.5 -156t-145.5 -57q-73 0 -116.5 42t-43.5 113q0 85 54 143t145 58q74 0 116.5 -39.5t42.5 -103.5z" />
    <glyph glyph-name="k" unicode="k" horiz-adv-x="1234" 
d="M481 426l-86 -426h-364l168 829q75 376 75 449q0 51 -20 68q-33 23 -98 32l2 15q233 53 434 53q44 0 59 -13t15 -53q0 -38 -25 -163q-77 -370 -115 -517q49 119 170 222q120 102 269 102q90 0 135 -38.5t45 -129.5q0 -212 -285 -326q82 -212 121 -288q44 -84 49 -90
q38 -56 94 -56q29 0 37 2l4 -12q-41 -35 -147 -76q-104 -37 -213 -37q-125 0 -160 86q-39 110 -41 115l-43 141l-31 115q-10 -1 -21.5 -2t-17.5 -1.5t-10 -0.5zM506 543l-14 -68q80 8 141.5 32t96 53.5t56 67t28.5 68t7 60.5q0 75 -71 75q-78 0 -150 -90q-70 -88 -94 -198z
" />
    <glyph glyph-name="l" unicode="l" horiz-adv-x="688" 
d="M569 104l2 -12q-74 -42 -182 -76q-100 -32 -203 -32q-73 0 -102 29t-29 85q0 44 29 189l170 839q18 94 18 144q0 56 -22 78q-27 27 -96 30v15q207 53 432 53q48 0 63 -14.5t15 -57.5q0 -35 -35 -213l-158 -788q-33 -152 -33 -215q0 -58 70 -58q15 0 61 4z" />
    <glyph glyph-name="m" unicode="m" horiz-adv-x="1763" 
d="M489 469l-94 -469h-364l114 561q41 193 41 297q0 35 -18 53q-29 26 -90 29v14q186 64 401 64q53 0 70.5 -18t17.5 -66q0 -73 -45 -252q34 113 160 227q127 115 279 115q77 0 111 -28.5t34 -106.5q0 -69 -31 -199q40 115 156 225q115 109 250 109q36 0 62 -4t54 -16.5
t43 -40.5t15 -70q0 -45 -17 -139l-28 -152q-6 -34 -21 -102q-16 -71 -24 -119q-39 -186 -39 -219q0 -60 67 -60q54 0 64 2l2 -12q-56 -37 -184 -76q-115 -36 -187 -36q-141 0 -141 98q0 54 35 215q98 435 98 459q0 45 -39 45q-63 0 -127 -107q-43 -67 -78 -235l-92 -455
h-371l121 557q37 170 37 197q0 26 -9 35.5t-30 9.5q-62 0 -123 -105q-53 -86 -80 -225z" />
    <glyph glyph-name="n" unicode="n" horiz-adv-x="1226" 
d="M494 483l-99 -483h-364l116 569q39 181 39 285q0 39 -18 57q-29 26 -90 29v14q177 64 389 64q55 0 78.5 -17t23.5 -55q0 -68 -47 -264q40 119 164 231q123 111 287 111q145 0 145 -131q0 -79 -92 -518q-37 -179 -37 -213q0 -60 70 -60q47 0 61 2l2 -12q-68 -41 -184 -78
q-115 -34 -205 -34q-125 0 -125 100q0 47 33 196q96 462 96 484q0 37 -30 37q-67 0 -132 -95q-50 -70 -81 -219z" />
    <glyph glyph-name="o" unicode="o" horiz-adv-x="1157" 
d="M1075 666q0 -142 -47 -291q-45 -144 -137 -246q-144 -156 -440 -156q-190 0 -299 106.5t-109 287.5q0 300 182 503q139 154 432 154q193 0 305.5 -94.5t112.5 -263.5zM715 852q0 82 -72 82q-71 0 -115 -115q-46 -119 -90 -332q-41 -211 -41 -335q0 -91 76 -91
q78 0 119 134q46 152 84 350q39 189 39 307z" />
    <glyph glyph-name="p" unicode="p" horiz-adv-x="1204" 
d="M500 -440l-2 -11h-666l2 11q77 27 105 69q19 29 34 99l150 716q63 300 63 406q0 50 -24 65q-28 22 -84 25v14q177 64 395 64q55 0 77.5 -16.5t22.5 -55.5q0 -42 -47 -244q61 149 183 236q124 86 243 86q106 0 150.5 -59.5t44.5 -204.5t-62 -334q-58 -186 -163 -291
q-75 -75 -197 -121q-116 -45 -233 -45q-58 0 -99 8l-39 -215q-10 -58 -10 -88q0 -20 8 -33t43.5 -34.5t104.5 -46.5zM434 129q0 -55 66 -55q81 0 133 106q39 80 80 266q41 190 41 263q0 86 -60 86q-9 3 -22.5 -2t-32.5 -21.5t-38.5 -42.5t-41 -70t-39.5 -100
q-32 -112 -39 -145q-47 -217 -47 -285z" />
    <glyph glyph-name="q" unicode="q" horiz-adv-x="1245" 
d="M1026 -440l-2 -11h-672l2 11q89 36 127 71q50 41 68 133l110 510q-103 -183 -231 -249q-101 -52 -190 -52q-32 0 -57 3.5t-54.5 18t-48.5 39t-32 70.5t-13 109q0 168 86 375q87 205 209 309q154 127 397 127q292 0 457 -80q-17 -35 -58 -213l-194 -926q-21 -95 -21 -129
q0 -64 117 -116zM780 874q0 50 -51 50q-68 0 -111 -58q-57 -75 -126 -293q-66 -216 -66 -315q0 -63 49 -63q38 0 88.5 49t85.5 121q62 127 121 434q10 68 10 75z" />
    <glyph glyph-name="r" unicode="r" horiz-adv-x="956" 
d="M494 485l-99 -485h-364l116 565q39 178 39 289q0 37 -18 55q-25 28 -90 31v14q189 64 391 64q57 0 78.5 -17.5t21.5 -62.5q0 -56 -47 -258q37 121 129 233q95 111 215 111q99 0 99 -68q0 -74 -82 -278h-17q-30 119 -121 119q-108 0 -176 -103q-49 -77 -75 -209z" />
    <glyph glyph-name="s" unicode="s" horiz-adv-x="884" 
d="M57 340h17q21 -125 102 -203q82 -76 174 -76q65 0 96 31t31 78q0 40 -31.5 77.5t-121.5 98.5l-58 39q-89 60 -130.5 121.5t-41.5 152.5q0 176 127 270.5t361 94.5q113 0 198 -33q45 -17 45 -63q0 -27 -20 -103q-19 -81 -45 -137h-17q-47 246 -215 246q-137 0 -137 -103
q0 -72 107 -139l63 -45q77 -55 117 -90q43 -37 75.5 -95.5t32.5 -121.5q0 -170 -125 -268.5t-339 -98.5q-185 0 -267 58q-39 26 -39 69q0 94 41 240z" />
    <glyph glyph-name="t" unicode="t" horiz-adv-x="741" 
d="M639 123l6 -6q0 -33 -22 -58q-20 -20 -48 -36q-88 -46 -221 -46q-103 0 -180 33q-96 44 -96 180q0 47 31 205l96 467h-115l16 72q110 35 140 53q63 32 112 103q48 75 93 151h186l-43 -244h174l-25 -135h-170l-108 -530q-23 -115 -23 -166q0 -74 80 -74q60 0 117 31z" />
    <glyph glyph-name="u" unicode="u" horiz-adv-x="1228" 
d="M1139 100l4 -10q-73 -47 -175 -78.5t-196 -31.5q-131 0 -131 139q0 55 29 203q-71 -130 -189 -242q-113 -107 -248 -107q-80 0 -122.5 36t-42.5 124q0 47 14 135l12 74l23 107l26 116q56 266 56 301q0 44 -49 62q-12 4 -64 14v12q71 29 190 43q130 19 213 19
q55 0 78 -16.5t23 -53.5q0 -30 -41 -211q-98 -410 -98 -479q0 -37 34 -37q41 0 97 62q79 88 120 299l86 417h367l-115 -557q-41 -214 -41 -254q0 -90 84 -90q36 0 56 4z" />
    <glyph glyph-name="v" unicode="v" horiz-adv-x="1034" 
d="M387 0h-231l-17 770q-3 100 -35 125q-29 26 -79 29v14q51 26 194 53q155 29 221 29q52 0 58 -45q6 -30 6 -115q-3 -521 -6 -624l161 268q144 240 144 362q0 45 -37 60q-15 7 -66 14v14q45 26 131 45q85 21 134 21q67 0 67 -39q0 -103 -176 -365q-134 -199 -469 -616z" />
    <glyph glyph-name="w" unicode="w" horiz-adv-x="1529" 
d="M408 0h-236l-37 750q-3 118 -37 145q-15 12 -78 29v14q49 25 197 53q155 29 221 29q59 0 62 -49q1 -23 2 -50.5t1.5 -42t0.5 -20.5q0 -233 -8 -553l258 606h268q43 -356 68 -641l47 92l73 152q109 239 109 350q0 49 -43 64q-28 11 -70 16v10q46 24 135 45t119 21
q64 0 64 -39q0 -75 -82 -238q-88 -174 -445 -743h-235l-55 580q-85 -172 -299 -580z" />
    <glyph glyph-name="x" unicode="x" horiz-adv-x="1122" 
d="M-51 256h18q18 -90 78 -90q58 0 113 55q82 76 196 219l-116 297q-43 100 -76 133q-17 17 -45 17q-19 0 -47 -4l-4 14q51 33 176 78q128 49 198 49q64 0 84 -39q22 -37 70 -158l68 -168q65 100 163 228q44 59 99 98t102 39q42 0 59 -18.5t17 -57.5q0 -58 -41 -192h-19
q-30 65 -81 65q-61 0 -119 -61q-69 -77 -146 -174l140 -338q47 -96 65 -119q28 -31 53 -31q6 0 17 0.5t19 1t9 0.5l5 -12q-50 -34 -175 -76q-113 -39 -186 -39q-85 0 -119 58q-33 57 -61 135l-76 196q-105 -164 -186 -266q-99 -123 -197 -123q-40 0 -61 21t-21 53
q0 98 27 209z" />
    <glyph glyph-name="y" unicode="y" horiz-adv-x="1048" 
d="M-199 -213h23q34 -117 102 -117q58 0 109 45q174 145 299 303h-178l-37 752q-6 103 -31 125q-30 23 -82 29v14q56 29 201 55q155 31 225 31q40 0 49 -45q6 -35 6 -137q2 -211 2 -637q119 177 203 332q113 201 113 317q0 43 -43 64q-44 18 -68 20v14q57 28 148 47
q103 25 137 25q37 0 50 -9.5t13 -35.5q0 -38 -26 -94q-24 -59 -51 -105q-33 -60 -82 -139q-121 -201 -449 -649q-227 -310 -381 -434q-84 -66 -180 -66q-111 0 -111 80q0 94 39 215z" />
    <glyph glyph-name="z" unicode="z" horiz-adv-x="944" 
d="M23 51l-62 -65l-65 51q259 278 692 663q-262 0 -318 -6q-96 -3 -123 -49q-25 -36 -28 -55l-19 2q8 185 35 328q8 44 24.5 60.5t57.5 16.5h760l4 -22q-297 -293 -715 -662q377 -20 414 -20q67 0 110 24.5t72 88.5l19 -3q-2 -45 -25 -190q-21 -131 -39 -172
q-27 -61 -135 -61q-50 0 -301 34q-252 37 -358 37z" />
    <glyph glyph-name="braceleft" unicode="{" horiz-adv-x="755" 
d="M541 -223l-4 -15q-152 0 -263 25q-170 37 -170 201q0 2 1.5 15.5t4 43t5.5 62.5l28 165q25 159 25 177q0 81 -31.5 120t-103.5 43l4 15q114 9 162 78q41 63 77 235l43 232q29 156 155.5 219t385.5 63v-18q-116 -12 -174 -76t-84 -211l-49 -266q-22 -120 -110.5 -183.5
t-247.5 -89.5q247 -40 247 -243q0 -52 -6 -76l-26 -143q-19 -108 -19 -168q0 -181 150 -205z" />
    <glyph glyph-name="bar" unicode="|" horiz-adv-x="641" 
d="M616 1485l-335 -1706h-232l336 1706h231z" />
    <glyph glyph-name="braceright" unicode="}" horiz-adv-x="755" 
d="M244 1442l4 14q110 0 180 -8.5t129 -32.5q125 -46 125 -186q0 -51 -12 -119l-29 -168q-25 -159 -25 -174q0 -80 32.5 -120t105.5 -44l-6 -14q-117 -9 -164 -80q-46 -69 -76 -234l-43 -231q-29 -157 -155 -220t-386 -63v17q116 12 174 76.5t84 212.5l49 266
q24 122 111.5 184t247.5 86q-248 40 -248 246q0 30 6 74l27 143q18 108 18 170q0 181 -149 205z" />
    <glyph glyph-name="asciitilde" unicode="~" horiz-adv-x="1302" 
d="M256 389l-139 146q175 202 348 202q79 0 221 -86q89 -57 158 -57q95 0 205 119l141 -144q-162 -192 -344 -192q-114 0 -197 53q-125 82 -190 82q-109 0 -203 -123z" />
    <glyph glyph-name="exclamdown" unicode="&#xa1;" horiz-adv-x="561" 
d="M223 522h27q12 -135 41 -311q35 -215 35 -324q0 -112 -60 -182t-178 -70q-88 0 -140 42.5t-52 125.5q0 80 47 195q45 102 135 262q40 70 89 159.5t56 102.5zM82 829q0 88 57 146.5t152 58.5q79 0 131.5 -52t52.5 -136q0 -93 -58 -155t-151 -62q-87 0 -135.5 54t-48.5 146
z" />
    <glyph glyph-name="cent" unicode="&#xa2;" horiz-adv-x="1101" 
d="M643 27l-41 -220h-90l37 197q-36 -4 -80 -4q-169 0 -263.5 89.5t-94.5 238.5q0 176 53 307t164 260q142 167 426 170l37 184h90l-37 -186q88 -6 141 -25q45 -15 45 -51q0 -30 -20 -106q-15 -63 -41 -136h-21q-37 199 -123 226l-147 -766q124 3 242 86l6 -2q0 -29 -6 -56
q-5 -35 -50 -77q-103 -89 -227 -129zM530 356q0 -98 62 -133l143 738q-49 -20 -88 -87q-117 -203 -117 -518z" />
    <glyph glyph-name="sterling" unicode="&#xa3;" horiz-adv-x="1267" 
d="M997 678l-34 -156h-220q-84 -128 -356 -207q501 8 619 17q98 9 143 57q42 45 53 70h17q-3 -30 -35 -203q-28 -151 -41 -184q-16 -33 -25 -43.5t-35.5 -18t-85.5 -10.5h-1034l43 219q79 16 133 41q86 41 142.5 108t70.5 134l4 20h-196l35 156h170q0 185 4 225
q10 79 29.5 139.5t63 122.5t109 103t173 66.5t249.5 25.5q128 0 226 -31q67 -21 67 -80q0 -102 -65 -256h-17q-29 133 -75.5 190.5t-124.5 57.5q-54 0 -93 -22t-68 -111t-36 -238q-6 -69 -21 -192h211z" />
    <glyph glyph-name="currency" unicode="&#xa4;" horiz-adv-x="1290" 
d="M1174 260l-156 -154l-123 119q-89 -63 -233 -63q-150 0 -242 65l-123 -125l-147 154l129 121q-72 90 -72 233q0 122 69 234l-129 121l154 155l123 -123q107 70 235 70q125 0 238 -76l123 125l149 -149l-127 -121q72 -78 72 -236q0 -147 -70 -229zM915 610q0 117 -73 193
q-75 78 -183 78q-107 0 -182 -78q-74 -77 -74 -189q0 -119 71 -195.5t181 -76.5t185 78q75 75 75 190z" />
    <glyph glyph-name="yen" unicode="&#xa5;" horiz-adv-x="1435" 
d="M1171 506l-20 -115h-238l-24 -123q-19 -108 -19 -157q0 -33 24 -53.5t91 -43.5l-6 -14h-676l2 14q93 21 125 64q16 18 51 192l25 121h-262l22 115h262l23 108l-23 56h-231l25 114h159l-170 422q-21 50 -57 86q-13 8 -59 27l2 14h667l-2 -14q-56 -15 -71 -27
q-17 -10 -17 -35q0 -18 25 -88q125 -334 135 -370q2 4 293 401q28 42 28 62q0 18 -16 28q-27 19 -61 29l2 14h372l-2 -14q-29 -3 -51 -19q-45 -26 -106 -102l-336 -414h170l-23 -114h-237l-31 -164h235z" />
    <glyph glyph-name="brokenbar" unicode="&#xa6;" horiz-adv-x="679" 
d="M627 1382l-125 -643h-269l125 643h269zM451 477l-125 -639h-269l125 639h269z" />
    <glyph glyph-name="section" unicode="&#xa7;" horiz-adv-x="1085" 
d="M43 43h14q30 -132 113 -207.5t190 -75.5q72 0 117 37.5t45 100.5q0 82 -108 165l-238 185q-133 103 -133 229q0 135 83.5 215t242.5 90q-138 108 -138 275q0 190 152 286q154 95 383 95q168 0 250 -39q35 -17 45 -32t10 -46q0 -62 -70 -248h-14q-26 113 -90 180.5
t-158 67.5q-178 0 -178 -131q0 -79 133 -168l99 -66q136 -102 192.5 -178.5t56.5 -165.5q0 -128 -89.5 -208t-233.5 -85q141 -126 141 -262q0 -189 -153 -303q-147 -112 -373 -112q-83 0 -176 22q-85 20 -125 49q-43 30 -43 70q0 103 53 260zM401 575l183 -145
q33 -33 73 -33q26 0 48 21t22 49q0 23 -12.5 38t-63.5 54l-135 109q-60 45 -88 45q-31 0 -52.5 -20.5t-21.5 -51.5q0 -28 47 -66z" />
    <glyph glyph-name="dieresis" unicode="&#xa8;" 
d="M158 1309q0 -75 -47.5 -128t-120.5 -53q-60 0 -98.5 38.5t-38.5 101.5q0 75 50.5 127.5t119.5 52.5q62 0 98.5 -39t36.5 -100zM561 1309q0 -76 -47 -128.5t-123 -52.5q-60 0 -98.5 38.5t-38.5 101.5q0 75 50 127.5t122 52.5q62 0 98.5 -39t36.5 -100z" />
    <glyph glyph-name="copyright" unicode="&#xa9;" horiz-adv-x="1642" 
d="M1579 688q0 -310 -205 -512q-206 -203 -526 -203q-314 0 -520 203q-205 205 -205 512q0 309 205 514q207 207 518 207q321 0 526 -205q207 -207 207 -516zM846 1311q-265 0 -440 -178q-173 -176 -173 -445q0 -266 173 -442q171 -174 440 -174q274 0 442 174
q170 176 170 442q0 269 -170 445q-169 178 -442 178zM1112 475h14q-9 -101 -26 -145q-8 -25 -41 -41q-73 -33 -221 -33q-189 0 -294.5 97t-105.5 270q0 260 154 399q118 106 346 106q120 0 188 -26q43 -15 43 -51q0 -21 -14 -70q-12 -52 -27 -82h-12q-9 63 -35 107
q-34 49 -133 49q-53 0 -101 -27.5t-77 -77.5q-61 -113 -61 -311q0 -144 48 -225.5t140 -81.5q78 0 125 35q58 42 90 108z" />
    <glyph glyph-name="ordfeminine" unicode="&#xaa;" horiz-adv-x="765" 
d="M793 596l2 -12q-95 -62 -226 -62q-96 0 -96 82q0 23 21 131q-106 -219 -285 -219q-123 0 -123 143q0 97 59 218q58 118 138 186q101 82 286 82q67 0 150 -15q86 -12 108 -28q-35 -40 -100 -336q-16 -75 -16 -135q0 -37 43 -37q29 0 39 2zM557 1059q0 14 -11 19t-30 -2.5
t-37 -26.5q-47 -53 -90 -172q-43 -116 -43 -191q0 -31 23 -31q47 0 106 109q24 42 72 237q10 45 10 58z" />
    <glyph glyph-name="guillemotleft" unicode="&#xab;" horiz-adv-x="905" 
d="M88 575l434 332l10 -8l-231 -389l74 -416l-13 -6l-301 361q-16 16 -16 49q0 43 43 77zM471 575l434 332l10 -8l-231 -389l74 -416l-13 -6l-299 361q-18 18 -18 49q0 43 43 77z" />
    <glyph glyph-name="logicalnot" unicode="&#xac;" horiz-adv-x="1302" 
d="M1130 750l-104 -564h-205l64 355h-713l41 209h917z" />
    <glyph glyph-name="uni00AD" unicode="&#xad;" horiz-adv-x="706" 
d="M653 688l-59 -287h-533l60 287h532z" />
    <glyph glyph-name="registered" unicode="&#xae;" horiz-adv-x="1642" 
d="M1579 688q0 -310 -205 -512q-206 -203 -526 -203q-314 0 -520 203q-205 205 -205 512q0 309 205 514q207 207 518 207q321 0 526 -205q207 -207 207 -516zM846 1311q-265 0 -440 -178q-173 -176 -173 -445q0 -266 173 -442q171 -174 440 -174q274 0 442 174
q170 176 170 442q0 269 -170 445q-169 178 -442 178zM815 315l-4 -10h-403l4 10q52 14 75 37q19 22 39 133l90 455q9 40 9 84q0 26 -21 47q-15 15 -41 21l2 8h291q140 0 207 -13q168 -34 168 -182q0 -91 -60 -147.5t-172 -69.5q66 -13 97 -76q14 -26 26 -55q7 -17 23 -72
l20 -67q18 -52 31.5 -67.5t54.5 -28.5l-2 -11q-130 -10 -166 -10q-103 0 -141 41q-22 25 -43 107q-28 141 -41 165q-20 33 -51 33h-23l-34 -166q-28 -121 12 -143q34 -20 53 -23zM852 969l-55 -254h24q89 0 125 39q47 50 47 178q0 55 -30 76q-22 16 -58 16h-12
q-29 0 -41 -55z" />
    <glyph glyph-name="overscore" unicode="&#xaf;" 
d="M496 1403l-41 -180h-549l39 180h551z" />
    <glyph glyph-name="degree" unicode="&#xb0;" horiz-adv-x="632" 
d="M154 1120q0 122 86 211q90 90 217 90q110 0 180 -72.5t70 -187.5q0 -126 -86 -215q-83 -86 -211 -86q-112 0 -184 74.5t-72 185.5zM451 1329q-80 0 -136.5 -59.5t-56.5 -151.5q0 -73 43.5 -120.5t114.5 -47.5q84 0 138 58.5t54 146.5q0 77 -42.5 125.5t-114.5 48.5z" />
    <glyph glyph-name="plusminus" unicode="&#xb1;" horiz-adv-x="1302" 
d="M776 653l-65 -344h-217l63 344h-356l41 203h360l64 354h219l-66 -354h357l-41 -203h-359zM1061 211l-39 -211h-934l41 211h932z" />
    <glyph glyph-name="twosuperior" unicode="&#xb2;" horiz-adv-x="751" 
d="M633 881h-541l14 75q164 108 277 224q143 149 143 327q0 51 -28 86t-74 35q-56 0 -94 -30t-86 -109h-13q0 58 7 123q6 38 57 53q95 31 213 31q128 0 195 -54.5t67 -140.5q0 -130 -160 -258q-131 -100 -286 -186l-37 -21q126 4 309 4q55 0 80 19q29 23 59 78h13
q-2 -20 -19 -117q-14 -79 -22 -102q-6 -21 -21.5 -29t-52.5 -8z" />
    <glyph glyph-name="threesuperior" unicode="&#xb3;" horiz-adv-x="751" 
d="M152 1087h10q8 -63 58 -106t128 -43q162 0 162 211q0 108 -115 108h-28l14 68h39q86 0 121 59q28 54 28 134q0 110 -96 110q-112 0 -197 -143h-10q2 45 15 121q6 35 43 53q70 37 215 37q129 0 196.5 -47.5t67.5 -120.5q0 -194 -258 -228q215 -18 215 -163
q0 -134 -121 -205q-121 -68 -289 -68q-138 0 -209 41q-20 14 -20 41q0 56 31 141z" />
    <glyph glyph-name="acute" unicode="&#xb4;" 
d="M317 1266l-340 -148l-12 10l195 299q34 53 66.5 77t78.5 24q61 0 96 -33t35 -90q0 -81 -119 -139z" />
    <glyph glyph-name="mu" unicode="&#xb5;" horiz-adv-x="1320" 
d="M442 29l-16 -97q-36 -265 -37 -268q-8 -49 -33 -67q-50 -33 -366 -33l-6 6l225 1001q53 245 53 283q0 34 -11 48.5t-42 25.5q-35 12 -64 14v12q70 28 189 43q127 19 211 19q67 0 90.5 -16.5t23.5 -61.5q0 -37 -41 -203q-104 -410 -104 -495q0 -27 27 -27q50 0 86 51
q75 99 116 279l99 454h360l-115 -573q-34 -173 -34 -246q0 -80 86 -80q49 0 55 2l2 -10q-61 -42 -170 -76t-203 -34q-82 0 -106 49q-17 40 -17 90q0 33 19 182q-47 -149 -106 -219t-119 -70q-42 0 -52 17z" />
    <glyph glyph-name="paragraph" unicode="&#xb6;" horiz-adv-x="1136" 
d="M328 -207l-2 14q87 21 166 109q26 30 47 96q25 85 34 123q15 57 39 172l31 152q-218 7 -330 107t-112 276q0 175 90.5 304.5t255.5 184.5q113 35 389 35h205l-4 -14q-101 -24 -131 -58q-26 -30 -50 -151l-168 -852l-12 -68q-3 -15 -6 -29.5t-5 -24.5t-3 -13l-12 -52
q-4 -18 -7.5 -32t-6 -20.5t-9.5 -22t-10 -23.5q-14 -36 -55 -80q-118 -124 -334 -133z" />
    <glyph glyph-name="middot" unicode="&#xb7;" horiz-adv-x="571" 
d="M465 555q0 -88 -57.5 -147.5t-149.5 -59.5q-82 0 -134 53t-52 138q0 94 58 155.5t153 61.5q86 0 134 -54.5t48 -146.5z" />
    <glyph glyph-name="cedilla" unicode="&#xb8;" 
d="M-6 -420v8l8 9q27 -27 96 -27q41 0 70 26t29 76q0 41 -22 64.5t-56 23.5q-17 0 -37 -4l-8 11l116 251h60l-57 -139q115 0 173 -45.5t58 -126.5q0 -106 -77.5 -165.5t-199.5 -59.5q-113 0 -137 35q-16 22 -16 63z" />
    <glyph glyph-name="onesuperior" unicode="&#xb9;" horiz-adv-x="751" 
d="M641 895l-4 -14h-434l4 14q37 8 67 25q42 22 62 120l82 439q12 62 12 75q0 41 -49 41q-39 0 -53 -2l-2 25l358 82l10 -10l-32 -156l-27 -139l-68 -351q-8 -41 -8 -77q0 -32 19 -45q30 -21 63 -27z" />
    <glyph glyph-name="ordmasculine" unicode="&#xba;" horiz-adv-x="716" 
d="M760 936q0 -91 -33 -181.5t-92 -148.5q-96 -90 -262 -90q-123 0 -195 66.5t-72 173.5q0 180 121 301q91 88 273 88q119 0 189.5 -55.5t70.5 -153.5zM514 1038q0 45 -31 45q-29 0 -49 -45q-27 -61 -55 -198q-31 -149 -31 -217q0 -50 33 -50q36 0 57 64q34 111 51 211
q25 131 25 190z" />
    <glyph glyph-name="guillemotright" unicode="&#xbb;" horiz-adv-x="905" 
d="M811 420l-434 -332l-10 6l231 391l-74 416l13 6l297 -356q20 -23 20 -55q0 -46 -43 -76zM428 420l-434 -332l-10 6l231 391l-74 416l13 6l295 -354q20 -23 20 -57q0 -46 -41 -76z" />
    <glyph glyph-name="onequarter" unicode="&#xbc;" horiz-adv-x="1757" 
d="M322 -10l950 1423l90 -59l-952 -1424zM569 549l-4 -17h-477l6 17q47 12 72 26q38 17 59 132l80 419q12 50 12 76q0 37 -51 37q-37 0 -53 -2l-2 27l397 88l10 -11l-59 -294l-65 -340q-11 -68 -11 -82q0 -28 19 -47q23 -20 67 -29zM1495 14l-6 -14h-475l4 14q59 18 80 33
q42 28 57 117l6 31h-338l27 122l469 498h225l-53 -254l-47 -221h121l-29 -145h-117l-4 -23q-10 -65 -10 -84q0 -17 5 -28.5t21 -20t25 -12t39 -13.5zM963 340h225q33 171 69 317q-85 -102 -294 -317z" />
    <glyph glyph-name="onehalf" unicode="&#xbd;" horiz-adv-x="1757" 
d="M324 -10l950 1423l90 -59l-952 -1424zM565 549l-4 -17h-477l6 17q47 12 72 26q38 17 59 132l80 419q12 50 12 76q0 37 -51 37q-37 0 -53 -2l-2 27l397 88l10 -11l-59 -294l-66 -340q-10 -62 -10 -82q0 -28 19 -47q23 -20 67 -29zM1450 0h-545l19 82q84 56 144 105.5
t120 115.5q131 143 131 328q0 110 -86 110q-57 0 -95 -28.5t-87 -110.5h-11q0 94 7 125q9 38 63 57q98 31 219 31q132 0 200 -54t68 -143q0 -52 -33 -109t-81 -103q-41 -40 -123 -93q-87 -55 -121 -73q-38 -21 -119 -64q114 4 303 4q53 0 80 21q28 21 60 75h10
q-1 -11 -23 -126q-15 -93 -22 -111q-8 -24 -22.5 -31.5t-55.5 -7.5z" />
    <glyph glyph-name="threequarters" unicode="&#xbe;" horiz-adv-x="1757" 
d="M393 -10l950 1423l91 -59l-953 -1424zM117 750h10q13 -68 58 -111t120 -43q152 0 152 209q0 98 -97 98h-32l14 74h45q90 0 117 70q18 43 18 127q0 100 -86 100q-102 0 -194 -148h-11q3 56 15 125q9 40 43 58q68 39 223 39q136 0 205 -47t69 -123q0 -193 -268 -228
q72 -6 120 -22.5t69 -41.5t28.5 -47.5t7.5 -50.5q0 -136 -127 -204t-299 -68q-146 0 -217 41q-18 9 -18 41q0 62 35 152zM1534 14l-6 -14h-475l4 14q59 18 80 33q42 28 57 117l6 31h-338l27 122l469 498h225l-53 -254l-47 -221h121l-29 -145h-117l-4 -23q-10 -65 -10 -84
q0 -17 5 -28.5t21 -20t25 -12t39 -13.5zM1001 340h226q33 171 69 317q-79 -95 -295 -317z" />
    <glyph glyph-name="questiondown" unicode="&#xbf;" horiz-adv-x="907" 
d="M528 524h29v-47q2 -29 2 -67q-3 -88 -31 -146q-27 -52 -129 -147q-71 -71 -71 -207q0 -180 139 -180q147 0 229 198h15q0 -148 -13 -211q-7 -39 -26.5 -56t-61.5 -28q-108 -30 -254 -30q-236 0 -344 69t-108 222q0 143 106 225q51 40 107 71q84 46 135 70
q212 102 246 166q21 47 30 98zM360 827q0 88 57 146.5t152 58.5q79 0 132 -52.5t53 -135.5q0 -93 -58 -155t-151 -62q-87 0 -136 54t-49 146z" />
    <glyph glyph-name="Agrave" unicode="&#xc0;" horiz-adv-x="1460" 
d="M311 14l-4 -14h-405l4 14q15 2 55 15q40 14 82 77l543 932l188 328h268l43 -326l115 -821q15 -128 57 -164q24 -20 84 -41l-2 -14h-673l2 14q66 15 94 35q39 26 39 72q0 34 -10 112l-23 209h-387l-152 -272q-31 -63 -32.5 -88.5t18.5 -34.5q37 -20 96 -33zM446 565h308
q-33 324 -43 484q-50 -97 -265 -484zM852 1782l156 -318l-9 -10l-313 199q-108 71 -108 145q0 52 35 81.5t85 29.5q92 0 154 -127z" />
    <glyph glyph-name="Aacute" unicode="&#xc1;" horiz-adv-x="1460" 
d="M311 14l-4 -14h-405l4 14q15 2 55 15q40 14 82 77l543 932l188 328h268l43 -326l115 -821q15 -128 57 -164q24 -20 84 -41l-2 -14h-673l2 14q66 15 94 35q39 26 39 72q0 34 -10 112l-23 209h-387l-152 -272q-31 -63 -32.5 -88.5t18.5 -34.5q37 -20 96 -33zM446 565h308
q-33 324 -43 484q-50 -97 -265 -484zM1137 1571l-359 -117l-8 12l231 277q81 90 152 90q55 0 89 -33t34 -92q0 -46 -38 -81.5t-101 -55.5z" />
    <glyph glyph-name="Acircumflex" unicode="&#xc2;" horiz-adv-x="1460" 
d="M311 14l-4 -14h-405l4 14q15 2 55 15q40 14 82 77l543 932l188 328h268l43 -326l115 -821q15 -128 57 -164q24 -20 84 -41l-2 -14h-673l2 14q66 15 94 35q39 26 39 72q0 34 -10 112l-23 209h-387l-152 -272q-31 -63 -32.5 -88.5t18.5 -34.5q37 -20 96 -33zM446 565h308
q-33 324 -43 484q-50 -97 -265 -484zM1053 1724l161 -256l-10 -10l-289 127l-346 -127l-8 12l279 265q48 45 104 45q65 0 109 -56z" />
    <glyph glyph-name="Atilde" unicode="&#xc3;" horiz-adv-x="1460" 
d="M311 14l-4 -14h-405l4 14q15 2 55 15q40 14 82 77l543 932l188 328h268l43 -326l115 -821q15 -128 57 -164q24 -20 84 -41l-2 -14h-673l2 14q66 15 94 35q39 26 39 72q0 34 -10 112l-23 209h-387l-152 -272q-31 -63 -32.5 -88.5t18.5 -34.5q37 -20 96 -33zM446 565h308
q-33 324 -43 484q-50 -97 -265 -484zM1247 1751l17 -6q-79 -266 -226 -266q-62 0 -147 39q-101 43 -148 43q-80 0 -139 -93l-18 7q114 272 250 272q48 0 153 -51q65 -33 113 -33q47 0 78.5 19t66.5 69z" />
    <glyph glyph-name="Adieresis" unicode="&#xc4;" horiz-adv-x="1460" 
d="M311 14l-4 -14h-405l4 14q15 2 55 15q40 14 82 77l543 932l188 328h268l43 -326l115 -821q15 -128 57 -164q24 -20 84 -41l-2 -14h-673l2 14q66 15 94 35q39 26 39 72q0 34 -10 112l-23 209h-387l-152 -272q-31 -63 -32.5 -88.5t18.5 -34.5q37 -20 96 -33zM446 565h308
q-33 324 -43 484q-50 -97 -265 -484zM866 1647q0 -77 -46 -130t-122 -53q-58 0 -97.5 39.5t-39.5 100.5q0 75 50 127.5t122 52.5q62 0 97.5 -38t35.5 -99zM1290 1647q0 -77 -47 -130t-123 -53q-58 0 -96.5 39.5t-38.5 100.5q0 75 49 127.5t121 52.5q61 0 98 -39t37 -98z" />
    <glyph glyph-name="Aring" unicode="&#xc5;" horiz-adv-x="1460" 
d="M311 14l-4 -14h-405l4 14q15 2 55 15q40 14 82 77l543 932l188 328h268l43 -326l115 -821q15 -128 57 -164q24 -20 84 -41l-2 -14h-673l2 14q66 15 94 35q39 26 39 72q0 34 -10 112l-23 209h-387l-152 -272q-31 -63 -32.5 -88.5t18.5 -34.5q37 -20 96 -33zM446 565h308
q-33 324 -43 484q-50 -97 -265 -484zM1100 1632q0 -75 -52.5 -128.5t-132.5 -53.5q-67 0 -111 45t-44 113q0 79 53.5 129.5t132.5 50.5q71 0 112.5 -43t41.5 -113zM1030 1628q0 43 -25.5 70.5t-66.5 27.5q-50 0 -79.5 -32.5t-29.5 -87.5q0 -39 28.5 -66t70.5 -27
q44 0 73 32.5t29 82.5z" />
    <glyph glyph-name="AE" unicode="&#xc6;" horiz-adv-x="2091" 
d="M393 14l-2 -14h-467l2 14q66 21 115 60q85 63 141 131l801 942q64 76 64 123q0 28 -32 45.5t-104 36.5l4 14h1153q48 0 48 -33q0 -51 -66 -284h-16q-24 147 -80 174q-24 12 -123 12h-162q-40 -4 -53 -22.5t-21 -67.5l-73 -367h110q143 0 197 13q42 11 68.5 38.5
t56.5 94.5h18l-86 -424h-16q-8 64 -30 95.5t-71 41.5q-77 12 -161 12h-107l-74 -368q-16 -88 -16 -109q0 -45 88 -45h162q142 0 199 45q69 44 141 168h14q0 -2 -12 -70q-30 -164 -51 -229q-7 -26 -23.5 -33.5t-60.5 -7.5h-1041l2 14q75 23 119 52q39 26 60 122l51 254h-520
l-166 -213q-86 -109 -86 -141q0 -23 24 -41q6 -4 82 -33zM647 565h434l136 701q-119 -160 -570 -701z" />
    <glyph glyph-name="Ccedilla" unicode="&#xc7;" horiz-adv-x="1310" 
d="M420 -426v8l8 6q30 -24 98 -24q42 0 72.5 26t30.5 76q0 41 -24 66.5t-58 25.5q-25 0 -41 -4l-6 8l102 215q-257 20 -389.5 164.5t-132.5 393.5q0 280 115 485t331 303q159 72 424 72q188 0 301 -43q56 -24 56 -66q0 -65 -64 -272h-16q-34 161 -99 217q-52 43 -180 43
q-154 0 -248 -105q-84 -93 -131 -272q-45 -170 -45 -336q0 -216 72.5 -339.5t220.5 -123.5q131 0 219 64q67 49 150 157l16 -2q-30 -142 -65 -229q-18 -49 -80 -70q-145 -45 -371 -45h-20l-41 -96q237 0 237 -176q0 -109 -86 -168q-85 -61 -205 -61q-105 0 -135 34
q-16 22 -16 68z" />
    <glyph glyph-name="Egrave" unicode="&#xc8;" horiz-adv-x="1249" 
d="M1034 0h-1042l2 14q61 17 106 47q47 35 62 127l182 928q14 71 14 133q0 46 -28 68q-20 14 -90 35l2 14h983q49 0 49 -33q0 -61 -70 -284h-14q-23 129 -55 157q-37 29 -127 29h-177q-39 0 -55 -20t-24 -70l-76 -367h110q146 0 203 13q37 10 61 37t60 96h16l-86 -424h-16
q-8 67 -29.5 97t-70.5 40q-46 12 -160 12h-109l-73 -373q-15 -71 -15 -106q0 -43 97 -43h176q120 0 182 45q54 39 135 168h14q-41 -225 -63 -297q-8 -25 -23 -34t-51 -9zM764 1782l156 -318l-9 -10l-313 199q-109 71 -109 145q0 52 35.5 81.5t85.5 29.5q92 0 154 -127z" />
    <glyph glyph-name="Eacute" unicode="&#xc9;" horiz-adv-x="1249" 
d="M1034 0h-1042l2 14q61 17 106 47q47 35 62 127l182 928q14 71 14 133q0 46 -28 68q-20 14 -90 35l2 14h983q49 0 49 -33q0 -61 -70 -284h-14q-23 129 -55 157q-37 29 -127 29h-177q-39 0 -55 -20t-24 -70l-76 -367h110q146 0 203 13q37 10 61 37t60 96h16l-86 -424h-16
q-8 67 -29.5 97t-70.5 40q-46 12 -160 12h-109l-73 -373q-15 -71 -15 -106q0 -43 97 -43h176q120 0 182 45q54 39 135 168h14q-41 -225 -63 -297q-8 -25 -23 -34t-51 -9zM999 1571l-358 -117l-8 12l231 277q81 90 152 90q55 0 89 -33t34 -92q0 -46 -38.5 -81.5t-101.5 -55.5
z" />
    <glyph glyph-name="Ecircumflex" unicode="&#xca;" horiz-adv-x="1249" 
d="M1034 0h-1042l2 14q61 17 106 47q47 35 62 127l182 928q14 71 14 133q0 46 -28 68q-20 14 -90 35l2 14h983q49 0 49 -33q0 -61 -70 -284h-14q-23 129 -55 157q-37 29 -127 29h-177q-39 0 -55 -20t-24 -70l-76 -367h110q146 0 203 13q37 10 61 37t60 96h16l-86 -424h-16
q-8 67 -29.5 97t-70.5 40q-46 12 -160 12h-109l-73 -373q-15 -71 -15 -106q0 -43 97 -43h176q120 0 182 45q54 39 135 168h14q-41 -225 -63 -297q-8 -25 -23 -34t-51 -9zM979 1724l162 -256l-11 -10l-288 127l-346 -127l-9 12l279 265q48 45 104 45q65 0 109 -56z" />
    <glyph glyph-name="Edieresis" unicode="&#xcb;" horiz-adv-x="1249" 
d="M1034 0h-1042l2 14q61 17 106 47q47 35 62 127l182 928q14 71 14 133q0 46 -28 68q-20 14 -90 35l2 14h983q49 0 49 -33q0 -61 -70 -284h-14q-23 129 -55 157q-37 29 -127 29h-177q-39 0 -55 -20t-24 -70l-76 -367h110q146 0 203 13q37 10 61 37t60 96h16l-86 -424h-16
q-8 67 -29.5 97t-70.5 40q-46 12 -160 12h-109l-73 -373q-15 -71 -15 -106q0 -43 97 -43h176q120 0 182 45q54 39 135 168h14q-41 -225 -63 -297q-8 -25 -23 -34t-51 -9zM780 1647q0 -77 -46 -130t-122 -53q-58 0 -97.5 39.5t-39.5 100.5q0 75 50 127.5t122 52.5
q62 0 97.5 -38t35.5 -99zM1204 1647q0 -77 -47 -130t-123 -53q-58 0 -96.5 39.5t-38.5 100.5q0 75 49 127.5t121 52.5q61 0 98 -39t37 -98z" />
    <glyph glyph-name="Igrave" unicode="&#xcc;" horiz-adv-x="876" 
d="M682 14l-4 -14h-686l4 14q71 14 119 66q31 39 61 188l162 817q20 100 20 164q0 43 -22.5 64t-97.5 39l2 14h686l-4 -14q-91 -33 -115 -54q-22 -20 -34 -56.5t-32 -139.5l-161 -836q-23 -131 -23 -157q0 -31 28.5 -53t96.5 -42zM578 1782l155 -318l-8 -10l-313 199
q-109 71 -109 145q0 52 35.5 81.5t85.5 29.5q92 0 154 -127z" />
    <glyph glyph-name="Iacute" unicode="&#xcd;" horiz-adv-x="876" 
d="M682 14l-4 -14h-686l4 14q71 14 119 66q31 39 61 188l162 817q20 100 20 164q0 43 -22.5 64t-97.5 39l2 14h686l-4 -14q-91 -33 -115 -54q-22 -20 -34 -56.5t-32 -139.5l-161 -836q-23 -131 -23 -157q0 -31 28.5 -53t96.5 -42zM827 1571l-358 -117l-8 12l231 277
q81 90 152 90q55 0 89 -33t34 -92q0 -46 -38.5 -81.5t-101.5 -55.5z" />
    <glyph glyph-name="Icircumflex" unicode="&#xce;" horiz-adv-x="876" 
d="M682 14l-4 -14h-686l4 14q71 14 119 66q31 39 61 188l162 817q20 100 20 164q0 43 -22.5 64t-97.5 39l2 14h686l-4 -14q-91 -33 -115 -54q-22 -20 -34 -56.5t-32 -139.5l-161 -836q-23 -131 -23 -157q0 -31 28.5 -53t96.5 -42zM762 1724l162 -256l-11 -10l-288 127
l-346 -127l-9 12l279 265q48 45 104 45q65 0 109 -56z" />
    <glyph glyph-name="Idieresis" unicode="&#xcf;" horiz-adv-x="876" 
d="M682 14l-4 -14h-686l4 14q71 14 119 66q31 39 61 188l162 817q20 100 20 164q0 43 -22.5 64t-97.5 39l2 14h686l-4 -14q-91 -33 -115 -54q-22 -20 -34 -56.5t-32 -139.5l-161 -836q-23 -131 -23 -157q0 -31 28.5 -53t96.5 -42zM578 1647q0 -77 -46 -130t-122 -53
q-58 0 -98 39.5t-40 100.5q0 75 50 127.5t122 52.5q62 0 98 -38t36 -99zM1001 1647q0 -77 -47 -130t-123 -53q-58 0 -96.5 39.5t-38.5 100.5q0 75 49 127.5t121 52.5q61 0 98 -39t37 -98z" />
    <glyph glyph-name="Eth" unicode="&#xd0;" horiz-adv-x="1574" 
d="M756 0h-764l2 14q92 20 127 68q26 39 67 240l62 321h-184l30 152h185l49 249q26 133 26 197q0 42 -24 67.5t-92 43.5l2 14h651q365 0 508 -125q158 -137 158 -379q0 -137 -28 -261t-90.5 -235t-154.5 -191.5t-228 -127.5t-302 -47zM651 643l-69 -358q-17 -93 -17 -107
q0 -23 23 -43t147 -20q113 0 197.5 72t126.5 196q76 224 76 491q0 139 -33 218q-61 155 -215 155h-13q-67 0 -94 -30q-18 -18 -53 -187l-47 -235h270l-30 -152h-269z" />
    <glyph glyph-name="Ntilde" unicode="&#xd1;" horiz-adv-x="1564" 
d="M446 14l-6 -14h-448l4 14q83 18 117 58q37 44 63 176q69 335 150 788q26 144 26 193q0 60 -26 80q-37 29 -97 43l2 14h523q43 0 61 -37l365 -799q92 506 98 592q8 88 8 105q0 54 -27.5 80t-101.5 45l2 14h447l-2 -14q-32 -8 -103 -49q-59 -44 -86 -185l-213 -1132h-225
l-502 1179l-61 -352q-16 -95 -41 -236.5t-29 -162.5q-27 -156 -27 -166q-12 -86 -12 -121q0 -39 24 -57.5t117 -55.5zM1313 1751l16 -6q-79 -266 -225 -266q-63 0 -148 39q-101 43 -147 43q-80 0 -139 -93l-19 7q114 272 250 272q49 0 154 -51q65 -33 112 -33t79 19t67 69z
" />
    <glyph glyph-name="Ograve" unicode="&#xd2;" horiz-adv-x="1470" 
d="M1452 928q0 -204 -82 -428q-84 -228 -237 -361q-91 -79 -226.5 -122.5t-271.5 -43.5q-266 0 -410.5 138.5t-144.5 386.5q0 195 76 399q76 203 231 334q93 81 236 121q142 43 284 43q545 0 545 -467zM1016 1044q0 133 -30 182.5t-101 49.5q-96 0 -176 -121
q-70 -107 -134 -364q-61 -256 -61 -429q0 -151 30 -209.5t103 -58.5q117 0 178 111q87 159 138 416q53 270 53 423zM864 1782l156 -318l-8 -10l-314 199q-108 71 -108 145q0 52 35.5 81.5t85.5 29.5q91 0 153 -127z" />
    <glyph glyph-name="Oacute" unicode="&#xd3;" horiz-adv-x="1470" 
d="M1452 928q0 -204 -82 -428q-84 -228 -237 -361q-91 -79 -226.5 -122.5t-271.5 -43.5q-266 0 -410.5 138.5t-144.5 386.5q0 195 76 399q76 203 231 334q93 81 236 121q142 43 284 43q545 0 545 -467zM1016 1044q0 133 -30 182.5t-101 49.5q-96 0 -176 -121
q-70 -107 -134 -364q-61 -256 -61 -429q0 -151 30 -209.5t103 -58.5q117 0 178 111q87 159 138 416q53 270 53 423zM1149 1571l-358 -117l-9 12l232 277q81 90 151 90q55 0 89 -33t34 -92q0 -46 -38 -81.5t-101 -55.5z" />
    <glyph glyph-name="Ocircumflex" unicode="&#xd4;" horiz-adv-x="1470" 
d="M1452 928q0 -204 -82 -428q-84 -228 -237 -361q-91 -79 -226.5 -122.5t-271.5 -43.5q-266 0 -410.5 138.5t-144.5 386.5q0 195 76 399q76 203 231 334q93 81 236 121q142 43 284 43q545 0 545 -467zM1016 1044q0 133 -30 182.5t-101 49.5q-96 0 -176 -121
q-70 -107 -134 -364q-61 -256 -61 -429q0 -151 30 -209.5t103 -58.5q117 0 178 111q87 159 138 416q53 270 53 423zM1077 1724l162 -256l-10 -10l-289 127l-346 -127l-8 12l278 265q48 45 105 45q64 0 108 -56z" />
    <glyph glyph-name="Otilde" unicode="&#xd5;" horiz-adv-x="1470" 
d="M1452 928q0 -204 -82 -428q-84 -228 -237 -361q-91 -79 -226.5 -122.5t-271.5 -43.5q-266 0 -410.5 138.5t-144.5 386.5q0 195 76 399q76 203 231 334q93 81 236 121q142 43 284 43q545 0 545 -467zM1016 1044q0 133 -30 182.5t-101 49.5q-96 0 -176 -121
q-70 -107 -134 -364q-61 -256 -61 -429q0 -151 30 -209.5t103 -58.5q117 0 178 111q87 159 138 416q53 270 53 423zM1280 1751l16 -6q-79 -266 -225 -266q-62 0 -147 39q-101 43 -148 43q-80 0 -139 -93l-19 7q114 272 250 272q49 0 154 -51q65 -33 113 -33q47 0 78.5 19
t66.5 69z" />
    <glyph glyph-name="Odieresis" unicode="&#xd6;" horiz-adv-x="1470" 
d="M1452 928q0 -204 -82 -428q-84 -228 -237 -361q-91 -79 -226.5 -122.5t-271.5 -43.5q-266 0 -410.5 138.5t-144.5 386.5q0 195 76 399q76 203 231 334q93 81 236 121q142 43 284 43q545 0 545 -467zM1016 1044q0 133 -30 182.5t-101 49.5q-96 0 -176 -121
q-70 -107 -134 -364q-61 -256 -61 -429q0 -151 30 -209.5t103 -58.5q117 0 178 111q87 159 138 416q53 270 53 423zM930 1647q0 -77 -46 -130t-122 -53q-58 0 -97.5 39.5t-39.5 100.5q0 75 50 127.5t122 52.5q62 0 97.5 -38t35.5 -99zM1354 1647q0 -77 -47 -130t-123 -53
q-58 0 -96.5 39.5t-38.5 100.5q0 75 49 127.5t121 52.5q61 0 98 -39t37 -98z" />
    <glyph glyph-name="multiply" unicode="&#xd7;" horiz-adv-x="1302" 
d="M653 406l-307 -269l-125 150l299 272l-248 268l160 148l246 -268l293 264l127 -154l-291 -262l244 -264l-156 -150z" />
    <glyph glyph-name="Oslash" unicode="&#xd8;" horiz-adv-x="1470" 
d="M295 55l-88 -112l-80 59l90 115q-137 140 -137 381q0 195 76 399q76 203 231 334q93 81 236 121q142 43 284 43q173 0 283 -45l123 155l80 -59l-113 -141q172 -117 172 -377q0 -204 -82 -428q-84 -228 -237 -361q-91 -79 -226.5 -122.5t-271.5 -43.5q-206 0 -340 82z
M823 205q80 142 131 362q56 246 64 404l-512 -647q6 -125 40.5 -177.5t102.5 -52.5q113 0 174 111zM709 1157q-62 -90 -119 -283q-61 -203 -78 -385l504 639q-10 83 -40 115.5t-89 32.5q-96 0 -178 -119z" />
    <glyph glyph-name="Ugrave" unicode="&#xd9;" horiz-adv-x="1511" 
d="M215 1352l2 14h688l-2 -14q-72 -20 -110 -43q-37 -27 -62 -150l-127 -657q-26 -127 -26 -213q0 -97 51.5 -137.5t165.5 -40.5q125 0 213 79q86 77 120 244l134 680q14 80 14 119q0 51 -24.5 75t-96.5 44l4 14h426l-4 -14q-5 0 -23.5 -4.5t-23.5 -4.5q-55 -18 -78 -47
q-25 -32 -39 -110l-131 -697q-46 -236 -123 -325q-87 -103 -207 -147t-305 -44q-469 0 -469 346q0 74 29 242l106 553q17 97 17 146q0 40 -23.5 57t-95.5 35zM965 1782l155 -318l-8 -10l-313 199q-109 71 -109 145q0 52 35.5 81.5t85.5 29.5q92 0 154 -127z" />
    <glyph glyph-name="Uacute" unicode="&#xda;" horiz-adv-x="1511" 
d="M215 1352l2 14h688l-2 -14q-72 -20 -110 -43q-37 -27 -62 -150l-127 -657q-26 -127 -26 -213q0 -97 51.5 -137.5t165.5 -40.5q125 0 213 79q86 77 120 244l134 680q14 80 14 119q0 51 -24.5 75t-96.5 44l4 14h426l-4 -14q-5 0 -23.5 -4.5t-23.5 -4.5q-55 -18 -78 -47
q-25 -32 -39 -110l-131 -697q-46 -236 -123 -325q-87 -103 -207 -147t-305 -44q-469 0 -469 346q0 74 29 242l106 553q17 97 17 146q0 40 -23.5 57t-95.5 35zM1180 1571l-359 -117l-8 12l231 277q81 90 152 90q55 0 89 -33t34 -92q0 -46 -38 -81.5t-101 -55.5z" />
    <glyph glyph-name="Ucircumflex" unicode="&#xdb;" horiz-adv-x="1511" 
d="M215 1352l2 14h688l-2 -14q-72 -20 -110 -43q-37 -27 -62 -150l-127 -657q-26 -127 -26 -213q0 -97 51.5 -137.5t165.5 -40.5q125 0 213 79q86 77 120 244l134 680q14 80 14 119q0 51 -24.5 75t-96.5 44l4 14h426l-4 -14q-5 0 -23.5 -4.5t-23.5 -4.5q-55 -18 -78 -47
q-25 -32 -39 -110l-131 -697q-46 -236 -123 -325q-87 -103 -207 -147t-305 -44q-469 0 -469 346q0 74 29 242l106 553q17 97 17 146q0 40 -23.5 57t-95.5 35zM1110 1724l162 -256l-10 -10l-289 127l-346 -127l-9 12l279 265q48 45 104 45q65 0 109 -56z" />
    <glyph glyph-name="Udieresis" unicode="&#xdc;" horiz-adv-x="1511" 
d="M215 1352l2 14h688l-2 -14q-72 -20 -110 -43q-37 -27 -62 -150l-127 -657q-26 -127 -26 -213q0 -97 51.5 -137.5t165.5 -40.5q125 0 213 79q86 77 120 244l134 680q14 80 14 119q0 51 -24.5 75t-96.5 44l4 14h426l-4 -14q-5 0 -23.5 -4.5t-23.5 -4.5q-55 -18 -78 -47
q-25 -32 -39 -110l-131 -697q-46 -236 -123 -325q-87 -103 -207 -147t-305 -44q-469 0 -469 346q0 74 29 242l106 553q17 97 17 146q0 40 -23.5 57t-95.5 35zM895 1647q0 -77 -46 -130t-122 -53q-58 0 -97.5 39.5t-39.5 100.5q0 75 50 127.5t122 52.5q62 0 97.5 -38
t35.5 -99zM1319 1647q0 -77 -47 -130t-123 -53q-58 0 -96.5 39.5t-38.5 100.5q0 75 49 127.5t121 52.5q61 0 98 -39t37 -98z" />
    <glyph glyph-name="Yacute" unicode="&#xdd;" horiz-adv-x="1316" 
d="M924 14l-4 -14h-703l4 14q99 26 127 68q21 27 55 213l62 334l-236 602q-31 78 -65 102q-14 10 -43 19l4 14h623l-3 -14q-35 -6 -69 -21q-23 -13 -23 -35q0 -13 23 -77q149 -406 158 -449l47 68q199 276 274 385q29 47 29 69q0 15 -17 29q-23 20 -73 31l2 14h383l-2 -14
q-19 -3 -43 -13q-44 -23 -115 -114l-428 -533l-76 -409q-20 -97 -20 -160q0 -35 27 -59.5t102 -49.5zM1151 1571l-358 -117l-9 12l232 277q81 90 151 90q55 0 89 -33t34 -92q0 -46 -38 -81.5t-101 -55.5z" />
    <glyph glyph-name="Thorn" unicode="&#xde;" horiz-adv-x="1386" 
d="M692 14l-2 -14h-698l2 14q77 20 119 62q28 28 63 190l162 809q22 119 22 170q0 42 -24 66q-20 23 -96 41l2 14h686l-6 -14q-91 -25 -117 -58q-35 -35 -62 -190l-4 -23q18 6 121 6q498 0 498 -315q0 -459 -660 -459q-28 0 -110 4l-17 -86q-14 -80 -14 -108q0 -36 27 -57
q43 -33 108 -52zM700 887l-92 -451q17 -1 34.5 -2t27 -1.5t12.5 -0.5q252 0 252 369q0 97 -47 135q-42 33 -115 33q-34 0 -47.5 -16.5t-24.5 -65.5z" />
    <glyph glyph-name="germandbls" unicode="&#xdf;" horiz-adv-x="1306" 
d="M-297 -168h14q65 -207 152 -207q74 0 104 76q40 94 68 254l129 737q60 339 109 457q52 124 186 211q134 84 379 84q189 0 292 -62.5t103 -185.5q0 -83 -45.5 -149t-163.5 -162l-100 -84q-29 -29 -29 -53q0 -25 78 -91l45 -36q100 -82 143 -156q39 -62 39 -146
q0 -136 -127 -251q-126 -111 -364 -111q-113 0 -185 35q-34 15 -34 76q0 66 24 174h15q30 -98 87 -149.5t130 -51.5q143 0 143 123q0 87 -115 190l-104 92q-52 45 -72 76t-20 72q0 53 32 96q37 50 148 158l90 88q109 103 109 281q0 64 -34 102.5t-93 38.5q-105 0 -152 -92
q-24 -46 -66 -248l-143 -737q-46 -240 -115 -381q-170 -357 -505 -357q-102 0 -154 25q-33 14 -33 63q0 111 35 201z" />
    <glyph glyph-name="agrave" unicode="&#xe0;" horiz-adv-x="1251" 
d="M1163 100l2 -10q-75 -46 -182.5 -78t-202.5 -32q-131 0 -131 120q0 79 31 234q-182 -361 -447 -361q-70 0 -127 33q-69 43 -69 207q0 175 88 379q88 205 213 309q78 64 171.5 93.5t240.5 29.5q96 0 260 -23q154 -22 192 -47q-36 -42 -82 -225q-34 -133 -78 -367
q-20 -111 -20 -198q0 -66 65 -66q60 0 76 2zM782 881q0 28 -24 37q-15 6 -35 6q-54 0 -98 -56q-61 -76 -129 -288q-66 -216 -66 -322q0 -63 41 -63q43 0 92 55q47 50 84 119q28 57 66 182q42 136 59 240q10 72 10 90zM717 1442l151 -314l-14 -10l-303 166q-96 53 -96 131
q0 56 37.5 92.5t89.5 36.5q82 0 135 -102z" />
    <glyph glyph-name="aacute" unicode="&#xe1;" horiz-adv-x="1251" 
d="M1163 100l2 -10q-75 -46 -182.5 -78t-202.5 -32q-131 0 -131 120q0 79 31 234q-182 -361 -447 -361q-70 0 -127 33q-69 43 -69 207q0 175 88 379q88 205 213 309q78 64 171.5 93.5t240.5 29.5q96 0 260 -23q154 -22 192 -47q-36 -42 -82 -225q-34 -133 -78 -367
q-20 -111 -20 -198q0 -66 65 -66q60 0 76 2zM782 881q0 28 -24 37q-15 6 -35 6q-54 0 -98 -56q-61 -76 -129 -288q-66 -216 -66 -322q0 -63 41 -63q43 0 92 55q47 50 84 119q28 57 66 182q42 136 59 240q10 72 10 90zM1001 1266l-339 -148l-13 10l195 299q34 53 66.5 77
t78.5 24q61 0 96 -33t35 -90q0 -81 -119 -139z" />
    <glyph glyph-name="acircumflex" unicode="&#xe2;" horiz-adv-x="1251" 
d="M1163 100l2 -10q-75 -46 -182.5 -78t-202.5 -32q-131 0 -131 120q0 79 31 234q-182 -361 -447 -361q-70 0 -127 33q-69 43 -69 207q0 175 88 379q88 205 213 309q78 64 171.5 93.5t240.5 29.5q96 0 260 -23q154 -22 192 -47q-36 -42 -82 -225q-34 -133 -78 -367
q-20 -111 -20 -198q0 -66 65 -66q60 0 76 2zM782 881q0 28 -24 37q-15 6 -35 6q-54 0 -98 -56q-61 -76 -129 -288q-66 -216 -66 -322q0 -63 41 -63q43 0 92 55q47 50 84 119q28 57 66 182q42 136 59 240q10 72 10 90zM911 1413l140 -287l-13 -10l-266 152l-313 -152l-10 10
l235 297q56 68 121 68t106 -78z" />
    <glyph glyph-name="atilde" unicode="&#xe3;" horiz-adv-x="1251" 
d="M1163 100l2 -10q-75 -46 -182.5 -78t-202.5 -32q-131 0 -131 120q0 79 31 234q-182 -361 -447 -361q-70 0 -127 33q-69 43 -69 207q0 175 88 379q88 205 213 309q78 64 171.5 93.5t240.5 29.5q96 0 260 -23q154 -22 192 -47q-36 -42 -82 -225q-34 -133 -78 -367
q-20 -111 -20 -198q0 -66 65 -66q60 0 76 2zM782 881q0 28 -24 37q-15 6 -35 6q-54 0 -98 -56q-61 -76 -129 -288q-66 -216 -66 -322q0 -63 41 -63q43 0 92 55q47 50 84 119q28 57 66 182q42 136 59 240q10 72 10 90zM1090 1450l16 -8q-89 -271 -221 -271q-39 0 -135 41
q-84 37 -123 37q-76 0 -138 -92l-16 8q34 92 78 174q61 107 145 107q51 0 127 -43q73 -43 125 -43q44 0 71.5 17.5t70.5 72.5z" />
    <glyph glyph-name="adieresis" unicode="&#xe4;" horiz-adv-x="1251" 
d="M1163 100l2 -10q-75 -46 -182.5 -78t-202.5 -32q-131 0 -131 120q0 79 31 234q-182 -361 -447 -361q-70 0 -127 33q-69 43 -69 207q0 175 88 379q88 205 213 309q78 64 171.5 93.5t240.5 29.5q96 0 260 -23q154 -22 192 -47q-36 -42 -82 -225q-34 -133 -78 -367
q-20 -111 -20 -198q0 -66 65 -66q60 0 76 2zM782 881q0 28 -24 37q-15 6 -35 6q-54 0 -98 -56q-61 -76 -129 -288q-66 -216 -66 -322q0 -63 41 -63q43 0 92 55q47 50 84 119q28 57 66 182q42 136 59 240q10 72 10 90zM717 1309q0 -75 -47.5 -128t-120.5 -53
q-60 0 -98.5 38.5t-38.5 101.5q0 75 50.5 127.5t119.5 52.5q62 0 98.5 -39t36.5 -100zM1120 1309q0 -76 -47 -128.5t-123 -52.5q-60 0 -98.5 38.5t-38.5 101.5q0 75 50 127.5t122 52.5q62 0 98.5 -39t36.5 -100z" />
    <glyph glyph-name="aring" unicode="&#xe5;" horiz-adv-x="1251" 
d="M1163 100l2 -10q-75 -46 -182.5 -78t-202.5 -32q-131 0 -131 120q0 79 31 234q-182 -361 -447 -361q-70 0 -127 33q-69 43 -69 207q0 175 88 379q88 205 213 309q78 64 171.5 93.5t240.5 29.5q96 0 260 -23q154 -22 192 -47q-36 -42 -82 -225q-34 -133 -78 -367
q-20 -111 -20 -198q0 -66 65 -66q60 0 76 2zM782 881q0 28 -24 37q-15 6 -35 6q-54 0 -98 -56q-61 -76 -129 -288q-66 -216 -66 -322q0 -63 41 -63q43 0 92 55q47 50 84 119q28 57 66 182q42 136 59 240q10 72 10 90zM954 1337q0 -82 -55 -137t-141 -55q-78 0 -126 47
t-48 121q0 82 57 135t143 53q79 0 124.5 -44.5t45.5 -119.5zM776 1440q-54 0 -85.5 -34t-31.5 -91q0 -48 28.5 -77.5t78.5 -29.5q49 0 83 34.5t34 84.5q0 49 -31 81t-76 32z" />
    <glyph glyph-name="ae" unicode="&#xe6;" horiz-adv-x="1488" 
d="M569 137q-114 -164 -313 -164q-120 0 -188 76t-68 187q0 107 66.5 176t189.5 94q155 29 326 29l12 77q6 34 6 90q0 107 -168 107q-160 0 -270 -70l-8 4q0 1 1 7.5t2.5 16t2.5 15.5q16 70 104 146q51 44 148 70t221 26q159 0 248 -59q103 59 235 59q186 0 266 -48t80 -167
q0 -38 -9 -70t-38 -77q-42 -75 -156 -125t-307 -58q-18 -91 -18 -180q0 -75 34 -102t115 -27q61 0 133 28t115 66l8 -4q0 -20 -6 -47q-8 -35 -30 -63q-50 -61 -179 -121q-127 -56 -274 -56q-121 0 -186.5 37t-94.5 127zM551 209q-4 50 -4 63q0 70 22 199q-104 -6 -149 -45
t-45 -127q0 -123 94 -123q43 0 82 33zM961 528q116 21 174 131q61 113 61 197q0 43 -12 61.5t-39 18.5q-105 0 -184 -408z" />
    <glyph glyph-name="ccedilla" unicode="&#xe7;" horiz-adv-x="929" 
d="M123 -420v8l8 9q27 -27 96 -27q41 0 70 26t29 76q0 41 -22 64.5t-56 23.5q-17 0 -37 -4l-8 11l96 208q-266 15 -266 271q0 180 57 342q58 166 141 268q134 168 426 168q120 0 199 -31q53 -21 53 -63q0 -85 -67 -240h-17q-36 138 -73.5 190t-85.5 52q-59 0 -103 -68
q-48 -75 -90 -246q-37 -161 -37 -323q0 -61 31.5 -92t87.5 -31q133 0 242 92l6 -4q0 -29 -10 -59q-6 -26 -43 -68q-151 -151 -390 -160l-38 -94q115 0 173 -45.5t58 -126.5q0 -106 -77.5 -165.5t-199.5 -59.5q-113 0 -137 35q-16 22 -16 63z" />
    <glyph glyph-name="egrave" unicode="&#xe8;" horiz-adv-x="985" 
d="M831 266l7 -4q0 -23 -4 -47q-2 -15 -33 -61q-49 -64 -176 -123q-125 -58 -269 -58q-114 0 -182 25q-139 50 -139 254q0 141 65 330q64 185 158 290q143 152 385 152q315 0 315 -209q0 -77 -51 -158q-46 -78 -160 -129t-301 -55q-14 -80 -14 -184q0 -32 9.5 -55.5
t22.5 -35.5t34 -18.5t37.5 -8t39.5 -1.5q60 0 136 29t120 67zM453 516q118 42 178.5 140.5t60.5 220.5q0 61 -49 61q-39 0 -74 -59q-75 -135 -116 -363zM549 1442l151 -314l-14 -10l-303 166q-96 53 -96 131q0 56 37.5 92.5t89.5 36.5q82 0 135 -102z" />
    <glyph glyph-name="eacute" unicode="&#xe9;" horiz-adv-x="985" 
d="M831 266l7 -4q0 -23 -4 -47q-2 -15 -33 -61q-49 -64 -176 -123q-125 -58 -269 -58q-114 0 -182 25q-139 50 -139 254q0 141 65 330q64 185 158 290q143 152 385 152q315 0 315 -209q0 -77 -51 -158q-46 -78 -160 -129t-301 -55q-14 -80 -14 -184q0 -32 9.5 -55.5
t22.5 -35.5t34 -18.5t37.5 -8t39.5 -1.5q60 0 136 29t120 67zM453 516q118 42 178.5 140.5t60.5 220.5q0 61 -49 61q-39 0 -74 -59q-75 -135 -116 -363zM870 1266l-340 -148l-12 10l195 299q34 53 66.5 77t78.5 24q61 0 96 -33t35 -90q0 -81 -119 -139z" />
    <glyph glyph-name="ecircumflex" unicode="&#xea;" horiz-adv-x="985" 
d="M831 266l7 -4q0 -23 -4 -47q-2 -15 -33 -61q-49 -64 -176 -123q-125 -58 -269 -58q-114 0 -182 25q-139 50 -139 254q0 141 65 330q64 185 158 290q143 152 385 152q315 0 315 -209q0 -77 -51 -158q-46 -78 -160 -129t-301 -55q-14 -80 -14 -184q0 -32 9.5 -55.5
t22.5 -35.5t34 -18.5t37.5 -8t39.5 -1.5q60 0 136 29t120 67zM453 516q118 42 178.5 140.5t60.5 220.5q0 61 -49 61q-39 0 -74 -59q-75 -135 -116 -363zM807 1413l139 -287l-12 -10l-266 152l-314 -152l-10 10l236 297q56 68 120 68q66 0 107 -78z" />
    <glyph glyph-name="edieresis" unicode="&#xeb;" horiz-adv-x="985" 
d="M831 266l7 -4q0 -23 -4 -47q-2 -15 -33 -61q-49 -64 -176 -123q-125 -58 -269 -58q-114 0 -182 25q-139 50 -139 254q0 141 65 330q64 185 158 290q143 152 385 152q315 0 315 -209q0 -77 -51 -158q-46 -78 -160 -129t-301 -55q-14 -80 -14 -184q0 -32 9.5 -55.5
t22.5 -35.5t34 -18.5t37.5 -8t39.5 -1.5q60 0 136 29t120 67zM453 516q118 42 178.5 140.5t60.5 220.5q0 61 -49 61q-39 0 -74 -59q-75 -135 -116 -363zM614 1309q0 -75 -47.5 -128t-120.5 -53q-60 0 -98.5 38.5t-38.5 101.5q0 75 50.5 127.5t119.5 52.5q62 0 98.5 -39
t36.5 -100zM1018 1309q0 -76 -47 -128.5t-123 -52.5q-60 0 -98.5 38.5t-38.5 101.5q0 75 50 127.5t122 52.5q62 0 98.5 -39t36.5 -100z" />
    <glyph glyph-name="igrave" unicode="&#xec;" horiz-adv-x="690" 
d="M324 1442l151 -314l-14 -10l-303 166q-97 54 -97 131q0 56 37.5 92.5t89.5 36.5q84 0 136 -102zM569 104v-12q-69 -41 -186 -78q-118 -34 -213 -34q-133 0 -133 114q0 41 37 195l80 350q26 113 26 197q0 54 -28 77.5t-86 28.5l2 12q189 64 403 64q59 0 82 -23
q22 -22 22 -61q0 -52 -32 -197l-74 -368q-33 -152 -33 -213q0 -56 64 -56q23 0 69 4z" />
    <glyph glyph-name="iacute" unicode="&#xed;" horiz-adv-x="690" 
d="M569 104v-12q-69 -41 -186 -78q-118 -34 -213 -34q-133 0 -133 114q0 41 37 195l80 350q26 113 26 197q0 54 -28 77.5t-86 28.5l2 12q189 64 403 64q59 0 82 -23q22 -22 22 -61q0 -52 -32 -197l-74 -368q-33 -152 -33 -213q0 -56 64 -56q23 0 69 4zM635 1266l-340 -148
l-12 10l194 299q33 53 66.5 77t79.5 24q61 0 96 -33t35 -90q0 -81 -119 -139z" />
    <glyph glyph-name="icircumflex" unicode="&#xee;" horiz-adv-x="690" 
d="M569 104v-12q-69 -41 -186 -78q-118 -34 -213 -34q-133 0 -133 114q0 41 37 195l80 350q26 113 26 197q0 54 -28 77.5t-86 28.5l2 12q189 64 403 64q59 0 82 -23q22 -22 22 -61q0 -52 -32 -197l-74 -368q-33 -152 -33 -213q0 -56 64 -56q23 0 69 4zM561 1413l139 -287
l-12 -10l-266 152l-313 -152l-11 10l236 297q56 68 121 68t106 -78z" />
    <glyph glyph-name="idieresis" unicode="&#xef;" horiz-adv-x="690" 
d="M379 1309q0 -75 -47.5 -128t-120.5 -53q-60 0 -98.5 38.5t-38.5 101.5q0 75 50.5 127.5t119.5 52.5q62 0 98.5 -39t36.5 -100zM782 1309q0 -76 -47 -128.5t-123 -52.5q-60 0 -98.5 38.5t-38.5 101.5q0 75 50 127.5t122 52.5q62 0 98.5 -39t36.5 -100zM569 104v-12
q-69 -41 -186 -78q-118 -34 -213 -34q-133 0 -133 114q0 41 37 195l80 350q26 113 26 197q0 54 -28 77.5t-86 28.5l2 12q189 64 403 64q59 0 82 -23q22 -22 22 -61q0 -52 -32 -197l-74 -368q-33 -152 -33 -213q0 -56 64 -56q23 0 69 4z" />
    <glyph glyph-name="eth" unicode="&#xf0;" horiz-adv-x="1097" 
d="M991 1442l64 -107l-162 -88q147 -205 147 -461q0 -443 -198 -659q-63 -69 -170.5 -111.5t-229.5 -42.5q-197 0 -305 109.5t-108 290.5q0 271 164 471q127 151 339 151q111 0 154 -49q0 90 -14 178l-154 -84l-59 105l180 100q-47 133 -135 209l35 51q152 -47 272 -164z
M666 827q0 72 -64 72q-36 0 -58.5 -25t-41.5 -81q-39 -109 -80 -328q-39 -207 -39 -322q0 -45 14 -64.5t49 -19.5q64 0 99 111q37 119 82 358q39 212 39 299z" />
    <glyph glyph-name="ntilde" unicode="&#xf1;" horiz-adv-x="1226" 
d="M494 483l-99 -483h-364l116 569q39 181 39 285q0 39 -18 57q-29 26 -90 29v14q177 64 389 64q55 0 78.5 -17t23.5 -55q0 -68 -47 -264q40 119 164 231q123 111 287 111q145 0 145 -131q0 -79 -92 -518q-37 -179 -37 -213q0 -60 70 -60q47 0 61 2l2 -12q-68 -41 -184 -78
q-115 -34 -205 -34q-125 0 -125 100q0 47 33 196q96 462 96 484q0 37 -30 37q-67 0 -132 -95q-50 -70 -81 -219zM1018 1450l16 -8q-89 -271 -221 -271q-39 0 -135 41q-84 37 -123 37q-75 0 -137 -92l-17 8q34 92 78 174q61 107 146 107q48 0 127 -43q73 -43 125 -43
q44 0 71 17.5t70 72.5z" />
    <glyph glyph-name="ograve" unicode="&#xf2;" horiz-adv-x="1157" 
d="M1075 666q0 -142 -47 -291q-45 -144 -137 -246q-144 -156 -440 -156q-190 0 -299 106.5t-109 287.5q0 300 182 503q139 154 432 154q193 0 305.5 -94.5t112.5 -263.5zM715 852q0 82 -72 82q-71 0 -115 -115q-46 -119 -90 -332q-41 -211 -41 -335q0 -91 76 -91
q78 0 119 134q46 152 84 350q39 189 39 307zM625 1442l151 -314l-14 -10l-303 166q-97 54 -97 131q0 56 37.5 92.5t89.5 36.5q83 0 136 -102z" />
    <glyph glyph-name="oacute" unicode="&#xf3;" horiz-adv-x="1157" 
d="M1075 666q0 -142 -47 -291q-45 -144 -137 -246q-144 -156 -440 -156q-190 0 -299 106.5t-109 287.5q0 300 182 503q139 154 432 154q193 0 305.5 -94.5t112.5 -263.5zM715 852q0 82 -72 82q-71 0 -115 -115q-46 -119 -90 -332q-41 -211 -41 -335q0 -91 76 -91
q78 0 119 134q46 152 84 350q39 189 39 307zM889 1266l-340 -148l-12 10l194 299q33 53 66.5 77t79.5 24q61 0 96 -33t35 -90q0 -81 -119 -139z" />
    <glyph glyph-name="ocircumflex" unicode="&#xf4;" horiz-adv-x="1157" 
d="M1075 666q0 -142 -47 -291q-45 -144 -137 -246q-144 -156 -440 -156q-190 0 -299 106.5t-109 287.5q0 300 182 503q139 154 432 154q193 0 305.5 -94.5t112.5 -263.5zM715 852q0 82 -72 82q-71 0 -115 -115q-46 -119 -90 -332q-41 -211 -41 -335q0 -91 76 -91
q78 0 119 134q46 152 84 350q39 189 39 307zM805 1413l139 -287l-12 -10l-266 152l-314 -152l-10 10l236 297q56 68 120 68q66 0 107 -78z" />
    <glyph glyph-name="otilde" unicode="&#xf5;" horiz-adv-x="1157" 
d="M1075 666q0 -142 -47 -291q-45 -144 -137 -246q-144 -156 -440 -156q-190 0 -299 106.5t-109 287.5q0 300 182 503q139 154 432 154q193 0 305.5 -94.5t112.5 -263.5zM715 852q0 82 -72 82q-71 0 -115 -115q-46 -119 -90 -332q-41 -211 -41 -335q0 -91 76 -91
q78 0 119 134q46 152 84 350q39 189 39 307zM991 1450l17 -8q-89 -271 -222 -271q-39 0 -135 41q-84 37 -123 37q-75 0 -137 -92l-16 8q34 92 78 174q61 107 145 107q51 0 127 -43q73 -43 125 -43q44 0 71 17.5t70 72.5z" />
    <glyph glyph-name="odieresis" unicode="&#xf6;" horiz-adv-x="1157" 
d="M1075 666q0 -142 -47 -291q-45 -144 -137 -246q-144 -156 -440 -156q-190 0 -299 106.5t-109 287.5q0 300 182 503q139 154 432 154q193 0 305.5 -94.5t112.5 -263.5zM715 852q0 82 -72 82q-71 0 -115 -115q-46 -119 -90 -332q-41 -211 -41 -335q0 -91 76 -91
q78 0 119 134q46 152 84 350q39 189 39 307zM645 1309q0 -75 -47.5 -128t-120.5 -53q-60 0 -98.5 38.5t-38.5 101.5q0 75 50.5 127.5t119.5 52.5q62 0 98.5 -39t36.5 -100zM1049 1309q0 -76 -47 -128.5t-123 -52.5q-61 0 -99.5 39t-38.5 101q0 75 50 127.5t122 52.5
q62 0 99 -39t37 -100z" />
    <glyph glyph-name="divide" unicode="&#xf7;" horiz-adv-x="1220" 
d="M803 891q0 -68 -44 -114t-114 -46q-55 0 -90 34.5t-35 90.5q0 68 46 115t112 47q59 0 92 -35t33 -92zM141 659h967l-35 -208h-971zM686 256q0 -67 -45 -112.5t-113 -45.5q-56 0 -90.5 34t-34.5 91q0 68 45 114t111 46q60 0 93.5 -35t33.5 -92z" />
    <glyph glyph-name="oslash" unicode="&#xf8;" horiz-adv-x="1157" 
d="M240 14l-78 -106l-64 45l74 104q-129 105 -129 310q0 300 182 503q139 154 422 154q107 0 195 -33l92 129l72 -47l-88 -123q137 -94 137 -284q0 -142 -47 -291q-45 -142 -138 -246q-144 -156 -428 -156q-115 0 -202 41zM582 188q49 180 92 426l-283 -391q-4 -36 -4 -76
q0 -86 76 -86q84 0 119 127zM702 858q0 76 -67 76q-73 0 -113 -107q-58 -162 -108 -432l284 398q1 13 2 28.5t1.5 24t0.5 12.5z" />
    <glyph glyph-name="ugrave" unicode="&#xf9;" horiz-adv-x="1228" 
d="M1139 100l4 -10q-73 -47 -175 -78.5t-196 -31.5q-131 0 -131 139q0 55 29 203q-71 -130 -189 -242q-113 -107 -248 -107q-80 0 -122.5 36t-42.5 124q0 47 14 135l12 74l23 107l26 116q56 266 56 301q0 44 -49 62q-12 4 -64 14v12q71 29 190 43q130 19 213 19
q55 0 78 -16.5t23 -53.5q0 -30 -41 -211q-98 -410 -98 -479q0 -37 34 -37q41 0 97 62q79 88 120 299l86 417h367l-115 -557q-41 -214 -41 -254q0 -90 84 -90q36 0 56 4zM608 1446l152 -313l-15 -11l-303 166q-96 53 -96 131q0 56 37.5 92.5t89.5 36.5q83 0 135 -102z" />
    <glyph glyph-name="uacute" unicode="&#xfa;" horiz-adv-x="1228" 
d="M1139 100l4 -10q-73 -47 -175 -78.5t-196 -31.5q-131 0 -131 139q0 55 29 203q-71 -130 -189 -242q-113 -107 -248 -107q-80 0 -122.5 36t-42.5 124q0 47 14 135l12 74l23 107l26 116q56 266 56 301q0 44 -49 62q-12 4 -64 14v12q71 29 190 43q130 19 213 19
q55 0 78 -16.5t23 -53.5q0 -30 -41 -211q-98 -410 -98 -479q0 -37 34 -37q41 0 97 62q79 88 120 299l86 417h367l-115 -557q-41 -214 -41 -254q0 -90 84 -90q36 0 56 4zM907 1266l-340 -148l-12 10l195 299q34 53 66.5 77t78.5 24q61 0 96 -33t35 -90q0 -81 -119 -139z" />
    <glyph glyph-name="ucircumflex" unicode="&#xfb;" horiz-adv-x="1228" 
d="M1139 100l4 -10q-73 -47 -175 -78.5t-196 -31.5q-131 0 -131 139q0 55 29 203q-71 -130 -189 -242q-113 -107 -248 -107q-80 0 -122.5 36t-42.5 124q0 47 14 135l12 74l23 107l26 116q56 266 56 301q0 44 -49 62q-12 4 -64 14v12q71 29 190 43q130 19 213 19
q55 0 78 -16.5t23 -53.5q0 -30 -41 -211q-98 -410 -98 -479q0 -37 34 -37q41 0 97 62q79 88 120 299l86 417h367l-115 -557q-41 -214 -41 -254q0 -90 84 -90q36 0 56 4zM842 1413l139 -287l-12 -10l-267 152l-313 -152l-10 10l235 297q56 68 121 68q66 0 107 -78z" />
    <glyph glyph-name="udieresis" unicode="&#xfc;" horiz-adv-x="1228" 
d="M1139 100l4 -10q-73 -47 -175 -78.5t-196 -31.5q-131 0 -131 139q0 55 29 203q-71 -130 -189 -242q-113 -107 -248 -107q-80 0 -122.5 36t-42.5 124q0 47 14 135l12 74l23 107l26 116q56 266 56 301q0 44 -49 62q-12 4 -64 14v12q71 29 190 43q130 19 213 19
q55 0 78 -16.5t23 -53.5q0 -30 -41 -211q-98 -410 -98 -479q0 -37 34 -37q41 0 97 62q79 88 120 299l86 417h367l-115 -557q-41 -214 -41 -254q0 -90 84 -90q36 0 56 4zM662 1309q0 -75 -47.5 -128t-120.5 -53q-60 0 -99 39t-39 101q0 75 50.5 127.5t119.5 52.5q62 0 99 -39
t37 -100zM1065 1309q0 -76 -47 -128.5t-123 -52.5q-60 0 -98.5 38.5t-38.5 101.5q0 75 50 127.5t122 52.5q62 0 98.5 -39t36.5 -100z" />
    <glyph glyph-name="yacute" unicode="&#xfd;" horiz-adv-x="1048" 
d="M-199 -213h23q34 -117 102 -117q58 0 109 45q174 145 299 303h-178l-37 752q-6 103 -31 125q-30 23 -82 29v14q56 29 201 55q155 31 225 31q40 0 49 -45q6 -35 6 -137q2 -211 2 -637q119 177 203 332q113 201 113 317q0 43 -43 64q-44 18 -68 20v14q57 28 148 47
q103 25 137 25q37 0 50 -9.5t13 -35.5q0 -38 -26 -94q-24 -59 -51 -105q-33 -60 -82 -139q-121 -201 -449 -649q-227 -310 -381 -434q-84 -66 -180 -66q-111 0 -111 80q0 94 39 215zM889 1266l-340 -148l-12 10l194 299q33 53 66.5 77t79.5 24q61 0 96 -33t35 -90
q0 -81 -119 -139z" />
    <glyph glyph-name="thorn" unicode="&#xfe;" horiz-adv-x="1204" 
d="M477 -440l-2 -11h-653l2 11q76 27 104 69q20 31 35 99l244 1183q72 362 72 445q0 33 -11 59q-21 40 -104 43v12q204 58 438 58q43 0 59.5 -15.5t16.5 -56.5q0 -35 -29 -180q-115 -511 -135 -590q62 147 182 242q125 96 242 96q108 0 149 -57t41 -205t-63 -334
q-66 -192 -168 -297q-155 -162 -420 -162q-61 0 -102 8l-41 -208q-10 -65 -10 -93q0 -16 3 -25.5t16.5 -24.5t46.5 -31t87 -35zM414 123q0 -25 16 -41q12 -12 43 -12q38 0 63.5 21.5t55.5 76.5q29 64 78 272q47 202 47 271q0 84 -47 84q-18 0 -39 -15q-26 -13 -63 -76.5
t-64 -154.5l-23 -82q-4 -17 -8 -33.5t-5.5 -25.5t-2.5 -11l-25 -110q-26 -127 -26 -164z" />
    <glyph glyph-name="ydieresis" unicode="&#xff;" horiz-adv-x="1048" 
d="M-193 -213h23q34 -117 102 -117q58 0 109 45q174 145 299 303h-178l-37 752q-6 103 -31 125q-30 23 -82 29v14q56 29 201 55q155 31 225 31q40 0 49 -45q7 -40 7 -137q2 -211 2 -637q114 170 202 332q113 201 113 317q0 43 -43 64q-44 18 -68 20v14q57 28 148 47
q103 25 137 25q37 0 50.5 -9.5t13.5 -35.5q0 -35 -27 -94q-24 -59 -51 -105q-33 -60 -82 -139q-121 -201 -449 -649q-227 -310 -381 -434q-84 -66 -180 -66q-110 0 -110 80q0 97 38 215zM590 1309q0 -75 -47.5 -128t-120.5 -53q-60 0 -98.5 38.5t-38.5 101.5
q0 75 50.5 127.5t119.5 52.5q62 0 98.5 -39t36.5 -100zM993 1309q0 -76 -47 -128.5t-123 -52.5q-60 0 -98.5 38.5t-38.5 101.5q0 75 50 127.5t122 52.5q62 0 98.5 -39t36.5 -100z" />
    <glyph glyph-name="Amacron" unicode="&#x100;" horiz-adv-x="1460" 
d="M311 14l-4 -14h-405l4 14q15 2 55 15q40 14 82 77l543 932l188 328h268l43 -326l115 -821q15 -128 57 -164q24 -20 84 -41l-2 -14h-673l2 14q66 15 94 35q39 26 39 72q0 34 -10 112l-23 209h-387l-152 -272q-31 -63 -32.5 -88.5t18.5 -34.5q37 -20 96 -33zM446 565h308
q-33 324 -43 484q-50 -97 -265 -484zM1237 1653l-31 -176h-604l33 176h602z" />
    <glyph glyph-name="amacron" unicode="&#x101;" horiz-adv-x="1251" 
d="M1163 100l2 -10q-75 -46 -182.5 -78t-202.5 -32q-131 0 -131 120q0 79 31 234q-182 -361 -447 -361q-70 0 -127 33q-69 43 -69 207q0 175 88 379q88 205 213 309q78 64 171.5 93.5t240.5 29.5q96 0 260 -23q154 -22 192 -47q-36 -42 -82 -225q-34 -133 -78 -367
q-20 -111 -20 -198q0 -66 65 -66q60 0 76 2zM782 881q0 28 -24 37q-15 6 -35 6q-54 0 -98 -56q-61 -76 -129 -288q-66 -216 -66 -322q0 -63 41 -63q43 0 92 55q47 50 84 119q28 57 66 182q42 136 59 240q10 72 10 90zM1092 1403l-41 -180h-549l39 180h551z" />
    <glyph glyph-name="Abreve" unicode="&#x102;" horiz-adv-x="1460" 
d="M311 14l-4 -14h-405l4 14q15 2 55 15q40 14 82 77l543 932l188 328h268l43 -326l115 -821q15 -128 57 -164q24 -20 84 -41l-2 -14h-673l2 14q66 15 94 35q39 26 39 72q0 34 -10 112l-23 209h-387l-152 -272q-31 -63 -32.5 -88.5t18.5 -34.5q37 -20 96 -33zM446 565h308
q-33 324 -43 484q-50 -97 -265 -484zM1194 1780l16 -2q-18 -132 -94 -230q-75 -96 -231 -96q-236 0 -236 274q0 44 2 54h17q13 -75 71 -107.5t174 -32.5q112 0 177.5 32.5t103.5 107.5z" />
    <glyph glyph-name="abreve" unicode="&#x103;" horiz-adv-x="1251" 
d="M1163 100l2 -10q-75 -46 -182.5 -78t-202.5 -32q-131 0 -131 120q0 79 31 234q-182 -361 -447 -361q-70 0 -127 33q-69 43 -69 207q0 175 88 379q88 205 213 309q78 64 171.5 93.5t240.5 29.5q96 0 260 -23q154 -22 192 -47q-36 -42 -82 -225q-34 -133 -78 -367
q-20 -111 -20 -198q0 -66 65 -66q60 0 76 2zM782 881q0 28 -24 37q-15 6 -35 6q-54 0 -98 -56q-61 -76 -129 -288q-66 -216 -66 -322q0 -63 41 -63q43 0 92 55q47 50 84 119q28 57 66 182q42 136 59 240q10 72 10 90zM1051 1516l18 -7q-59 -344 -328 -344q-243 0 -243 281
q0 21 4 67l18 3q25 -88 76.5 -122t165.5 -34q109 0 173 36.5t116 119.5z" />
    <glyph glyph-name="Aogonek" unicode="&#x104;" horiz-adv-x="1460" 
d="M993 -375l6 -8l-2 -10q-7 -29 -20 -47q-35 -54 -158 -54q-109 0 -167 50.5t-58 134.5q0 111 81 181t247 128h-256l2 14q66 15 94 35q39 26 39 72q0 34 -10 112l-23 209h-387l-152 -272q-31 -63 -32.5 -88.5t18.5 -34.5q37 -20 96 -33l-4 -14h-405l4 14q15 2 55 15
q40 14 82 77l543 932l188 328h268l43 -326l115 -821q15 -128 57 -164q24 -20 84 -41l-2 -14h-381q-6 -6 -75 -84q-27 -35 -49.5 -88t-22.5 -104q0 -113 100 -113q57 0 82 14zM446 565h308q-33 324 -43 484q-50 -97 -265 -484z" />
    <glyph glyph-name="aogonek" unicode="&#x105;" horiz-adv-x="1251" 
d="M895 -362l6 -9l-2 -10q-5 -25 -22 -51q-35 -53 -152 -53q-106 0 -162.5 48t-56.5 130q0 182 262 287q-119 6 -119 120q0 79 31 234q-182 -361 -447 -361q-70 0 -127 33q-69 43 -69 207q0 175 88 379q88 205 213 309q78 64 171.5 93.5t240.5 29.5q96 0 260 -23
q154 -22 192 -47q-36 -42 -82 -225q-34 -133 -78 -367q-20 -111 -20 -198q0 -66 65 -66q60 0 76 2l2 -10q-137 -88 -321 -106q-127 -139 -127 -252q0 -50 26 -79.5t70 -29.5q55 0 82 15zM782 881q0 28 -24 37q-15 6 -35 6q-54 0 -98 -56q-61 -76 -129 -288
q-66 -216 -66 -322q0 -63 41 -63q43 0 92 55q47 50 84 119q28 57 66 182q42 136 59 240q10 72 10 90z" />
    <glyph glyph-name="Cacute" unicode="&#x106;" horiz-adv-x="1310" 
d="M1186 319l16 -2q-30 -142 -65 -229q-18 -49 -80 -70q-145 -45 -371 -45q-298 0 -452 147t-154 415q0 280 115 485t331 303q159 72 424 72q188 0 301 -43q56 -24 56 -66q0 -65 -64 -272h-16q-34 161 -99 217q-52 43 -180 43q-154 0 -248 -105q-84 -93 -131 -272
q-45 -170 -45 -336q0 -216 72.5 -339.5t220.5 -123.5q131 0 219 64q67 49 150 157zM1128 1571l-358 -117l-8 12l231 277q81 90 152 90q55 0 89 -33t34 -92q0 -46 -38.5 -81.5t-101.5 -55.5z" />
    <glyph glyph-name="cacute" unicode="&#x107;" horiz-adv-x="929" 
d="M797 264l6 -4q0 -29 -10 -59q-6 -26 -43 -68q-76 -76 -188 -118t-230 -42q-146 0 -222.5 69.5t-76.5 203.5q0 180 57 342q58 166 141 268q134 168 426 168q120 0 199 -31q53 -21 53 -63q0 -85 -67 -240h-17q-36 138 -73.5 190t-85.5 52q-59 0 -103 -68q-48 -75 -90 -246
q-37 -161 -37 -323q0 -61 31.5 -92t87.5 -31q133 0 242 92zM860 1266l-340 -148l-12 10l194 299q33 53 66.5 77t79.5 24q61 0 96 -33t35 -90q0 -81 -119 -139z" />
    <glyph glyph-name="Ccircumflex" unicode="&#x108;" horiz-adv-x="1310" 
d="M1186 319l16 -2q-30 -142 -65 -229q-18 -49 -80 -70q-145 -45 -371 -45q-298 0 -452 147t-154 415q0 280 115 485t331 303q159 72 424 72q188 0 301 -43q56 -24 56 -66q0 -65 -64 -272h-16q-34 161 -99 217q-52 43 -180 43q-154 0 -248 -105q-84 -93 -131 -272
q-45 -170 -45 -336q0 -216 72.5 -339.5t220.5 -123.5q131 0 219 64q67 49 150 157zM1067 1724l162 -256l-10 -10l-289 127l-346 -127l-9 12l279 265q48 45 104 45q65 0 109 -56z" />
    <glyph glyph-name="ccircumflex" unicode="&#x109;" horiz-adv-x="929" 
d="M797 264l6 -4q0 -29 -10 -59q-6 -26 -43 -68q-76 -76 -188 -118t-230 -42q-146 0 -222.5 69.5t-76.5 203.5q0 180 57 342q58 166 141 268q134 168 426 168q120 0 199 -31q53 -21 53 -63q0 -85 -67 -240h-17q-36 138 -73.5 190t-85.5 52q-59 0 -103 -68q-48 -75 -90 -246
q-37 -161 -37 -323q0 -61 31.5 -92t87.5 -31q133 0 242 92zM799 1413l139 -287l-12 -10l-267 152l-313 -152l-10 10l235 297q56 68 121 68q66 0 107 -78z" />
    <glyph glyph-name="Cdotaccent" unicode="&#x10a;" horiz-adv-x="1310" 
d="M1186 319l16 -2q-30 -142 -65 -229q-18 -49 -80 -70q-145 -45 -371 -45q-298 0 -452 147t-154 415q0 280 115 485t331 303q159 72 424 72q188 0 301 -43q56 -24 56 -66q0 -65 -64 -272h-16q-34 161 -99 217q-52 43 -180 43q-154 0 -248 -105q-84 -93 -131 -272
q-45 -170 -45 -336q0 -216 72.5 -339.5t220.5 -123.5q131 0 219 64q67 49 150 157zM1077 1626q0 -77 -47 -129.5t-123 -52.5q-58 0 -96.5 39t-38.5 100q0 75 50.5 127.5t119.5 52.5q61 0 98 -39t37 -98z" />
    <glyph glyph-name="cdotaccent" unicode="&#x10b;" horiz-adv-x="929" 
d="M797 264l6 -4q0 -29 -10 -59q-6 -26 -43 -68q-76 -76 -188 -118t-230 -42q-146 0 -222.5 69.5t-76.5 203.5q0 180 57 342q58 166 141 268q134 168 426 168q120 0 199 -31q53 -21 53 -63q0 -85 -67 -240h-17q-36 138 -73.5 190t-85.5 52q-59 0 -103 -68q-48 -75 -90 -246
q-37 -161 -37 -323q0 -61 31.5 -92t87.5 -31q133 0 242 92zM807 1309q0 -76 -48 -128.5t-124 -52.5q-61 0 -100 39t-39 101q0 75 51 127.5t123 52.5q61 0 99 -40t38 -99z" />
    <glyph glyph-name="Ccaron" unicode="&#x10c;" horiz-adv-x="1310" 
d="M1186 319l16 -2q-30 -142 -65 -229q-18 -49 -80 -70q-145 -45 -371 -45q-298 0 -452 147t-154 415q0 280 115 485t331 303q159 72 424 72q188 0 301 -43q56 -24 56 -66q0 -65 -64 -272h-16q-34 161 -99 217q-52 43 -180 43q-154 0 -248 -105q-84 -93 -131 -272
q-45 -170 -45 -336q0 -216 72.5 -339.5t220.5 -123.5q131 0 219 64q67 49 150 157zM723 1487l-160 256l10 10l289 -127l344 127l8 -12l-278 -264q-48 -45 -105 -45q-74 0 -108 55z" />
    <glyph glyph-name="ccaron" unicode="&#x10d;" horiz-adv-x="929" 
d="M797 264l6 -4q0 -29 -10 -59q-6 -26 -43 -68q-76 -76 -188 -118t-230 -42q-146 0 -222.5 69.5t-76.5 203.5q0 180 57 342q58 166 141 268q134 168 426 168q120 0 199 -31q53 -21 53 -63q0 -85 -67 -240h-17q-36 138 -73.5 190t-85.5 52q-59 0 -103 -68q-48 -75 -90 -246
q-37 -161 -37 -323q0 -61 31.5 -92t87.5 -31q133 0 242 92zM524 1186l-141 291l12 10l269 -152l311 154l10 -12l-237 -301q-46 -64 -119 -64q-70 0 -105 74z" />
    <glyph glyph-name="Dcaron" unicode="&#x10e;" horiz-adv-x="1574" 
d="M756 0h-764l2 14q92 20 127 68q26 39 67 240l142 722q26 133 26 197q0 42 -24 67.5t-92 43.5l2 14h651q365 0 508 -125q158 -137 158 -379q0 -137 -28 -261t-90.5 -235t-154.5 -191.5t-228 -127.5t-302 -47zM727 1030l-145 -745q-17 -93 -17 -107q0 -23 23 -43t147 -20
q113 0 197.5 72t126.5 196q76 224 76 491q0 139 -33 218q-61 155 -215 155h-13q-67 0 -94 -30q-18 -18 -53 -187zM727 1487l-160 256l11 10l288 -127l344 127l9 -12l-279 -264q-48 -45 -104 -45q-75 0 -109 55z" />
    <glyph glyph-name="dcaron" unicode="&#x10f;" horiz-adv-x="1269" 
d="M1182 100l2 -10q-174 -110 -383 -110q-133 0 -133 135q0 78 26 202q-83 -162 -201.5 -253t-234.5 -91q-76 0 -137 35q-72 47 -72 207q0 174 86 375q85 201 207 305q78 68 164 98.5t219 30.5q68 0 102 -12l7 24q36 147 36 240q0 53 -20 70q-23 20 -100 32l2 15
q210 53 436 53q42 0 58 -15t16 -51q0 -39 -37 -227l-129 -637q-52 -259 -52 -350q0 -31 19.5 -49.5t50.5 -18.5q58 0 68 2zM676 381q47 98 110 420q11 64 11 80q0 19 -16 31t-40 12q-61 0 -108 -62q-61 -83 -125 -287q-66 -210 -66 -321q0 -59 43 -59q45 0 97 50t94 136z
M1223 928l-6 16q192 107 192 199q0 51 -45 90q-35 35 -35 86q0 59 38 93t101 34q71 0 116.5 -43t45.5 -115q0 -139 -121 -231q-122 -90 -286 -129z" />
    <glyph glyph-name="Dcroat" unicode="&#x110;" horiz-adv-x="1574" 
d="M756 0h-764l2 14q92 20 127 68q26 39 67 240l62 321h-184l30 152h185l49 249q26 133 26 197q0 42 -24 67.5t-92 43.5l2 14h651q365 0 508 -125q158 -137 158 -379q0 -137 -28 -261t-90.5 -235t-154.5 -191.5t-228 -127.5t-302 -47zM651 643l-69 -358q-17 -93 -17 -107
q0 -23 23 -43t147 -20q113 0 197.5 72t126.5 196q76 224 76 491q0 139 -33 218q-61 155 -215 155h-13q-67 0 -94 -30q-18 -18 -53 -187l-47 -235h270l-30 -152h-269z" />
    <glyph glyph-name="dslash" unicode="&#x111;" horiz-adv-x="1269" 
d="M1165 100l2 -10q-174 -110 -383 -110q-133 0 -133 135q0 73 27 202q-83 -162 -201.5 -253t-234.5 -91q-77 0 -138 35q-71 47 -71 207q0 174 86 375q85 201 207 305q78 68 164 98.5t219 30.5q67 0 102 -12l6 24l19 94h-244l22 115h238q0 4 1 16t1 15q0 53 -20 70
q-22 20 -101 32l2 15q210 53 436 53q42 0 58 -15t16 -51q0 -26 -20 -135h82l-23 -115h-80l-125 -614q-51 -254 -51 -350q0 -31 19.5 -49.5t50.5 -18.5q57 0 67 2zM659 381q49 101 111 420q10 58 10 80q0 19 -16 31t-39 12q-62 0 -109 -62q-59 -80 -124 -287
q-66 -210 -66 -321q0 -59 43 -59q45 0 96.5 49.5t93.5 136.5z" />
    <glyph glyph-name="Emacron" unicode="&#x112;" horiz-adv-x="1249" 
d="M1143 1653l-31 -176h-604l33 176h602zM1034 0h-1042l2 14q61 17 106 47q47 35 62 127l182 928q14 71 14 133q0 46 -28 68q-20 14 -90 35l2 14h983q49 0 49 -33q0 -61 -70 -284h-14q-23 129 -55 157q-37 29 -127 29h-177q-39 0 -55 -20t-24 -70l-76 -367h110q146 0 203 13
q37 10 61 37t60 96h16l-86 -424h-16q-8 67 -29.5 97t-70.5 40q-46 12 -160 12h-109l-73 -373q-15 -71 -15 -106q0 -43 97 -43h176q120 0 182 45q54 39 135 168h14q-41 -225 -63 -297q-8 -25 -23 -34t-51 -9z" />
    <glyph glyph-name="emacron" unicode="&#x113;" horiz-adv-x="985" 
d="M831 266l7 -4q0 -23 -4 -47q-2 -15 -33 -61q-49 -64 -176 -123q-125 -58 -269 -58q-114 0 -182 25q-139 50 -139 254q0 141 65 330q64 185 158 290q143 152 385 152q315 0 315 -209q0 -77 -51 -158q-46 -78 -160 -129t-301 -55q-14 -80 -14 -184q0 -32 9.5 -55.5
t22.5 -35.5t34 -18.5t37.5 -8t39.5 -1.5q60 0 136 29t120 67zM453 516q118 42 178.5 140.5t60.5 220.5q0 61 -49 61q-39 0 -74 -59q-75 -135 -116 -363zM963 1403l-41 -180h-549l39 180h551z" />
    <glyph glyph-name="Ebreve" unicode="&#x114;" horiz-adv-x="1249" 
d="M1034 0h-1042l2 14q61 17 106 47q47 35 62 127l182 928q14 71 14 133q0 46 -28 68q-20 14 -90 35l2 14h983q49 0 49 -33q0 -61 -70 -284h-14q-23 129 -55 157q-37 29 -127 29h-177q-39 0 -55 -20t-24 -70l-76 -367h110q146 0 203 13q37 10 61 37t60 96h16l-86 -424h-16
q-8 67 -29.5 97t-70.5 40q-46 12 -160 12h-109l-73 -373q-15 -71 -15 -106q0 -43 97 -43h176q120 0 182 45q54 39 135 168h14q-41 -225 -63 -297q-8 -25 -23 -34t-51 -9zM1104 1780l16 -2q-18 -132 -94 -230q-75 -96 -231 -96q-236 0 -236 274q0 44 2 54h17
q13 -75 71 -107.5t174 -32.5q112 0 177.5 32.5t103.5 107.5z" />
    <glyph glyph-name="ebreve" unicode="&#x115;" horiz-adv-x="985" 
d="M831 266l7 -4q0 -23 -4 -47q-2 -15 -33 -61q-49 -64 -176 -123q-125 -58 -269 -58q-114 0 -182 25q-139 50 -139 254q0 141 65 330q64 185 158 290q143 152 385 152q315 0 315 -209q0 -77 -51 -158q-46 -78 -160 -129t-301 -55q-14 -80 -14 -184q0 -32 9.5 -55.5
t22.5 -35.5t34 -18.5t37.5 -8t39.5 -1.5q60 0 136 29t120 67zM453 516q118 42 178.5 140.5t60.5 220.5q0 61 -49 61q-39 0 -74 -59q-75 -135 -116 -363zM954 1516l19 -7q-59 -344 -328 -344q-244 0 -244 281q0 10 5 67l18 3q25 -88 76.5 -122t165.5 -34q109 0 172.5 36.5
t115.5 119.5z" />
    <glyph glyph-name="Edotaccent" unicode="&#x116;" horiz-adv-x="1249" 
d="M1034 0h-1042l2 14q61 17 106 47q47 35 62 127l182 928q14 71 14 133q0 46 -28 68q-20 14 -90 35l2 14h983q49 0 49 -33q0 -61 -70 -284h-14q-23 129 -55 157q-37 29 -127 29h-177q-39 0 -55 -20t-24 -70l-76 -367h110q146 0 203 13q37 10 61 37t60 96h16l-86 -424h-16
q-8 67 -29.5 97t-70.5 40q-46 12 -160 12h-109l-73 -373q-15 -71 -15 -106q0 -43 97 -43h176q120 0 182 45q54 39 135 168h14q-41 -225 -63 -297q-8 -25 -23 -34t-51 -9zM975 1626q0 -77 -47 -129.5t-123 -52.5q-58 0 -96.5 39t-38.5 100q0 75 50.5 127.5t119.5 52.5
q61 0 98 -39t37 -98z" />
    <glyph glyph-name="edotaccent" unicode="&#x117;" horiz-adv-x="985" 
d="M831 266l7 -4q0 -23 -4 -47q-2 -15 -33 -61q-49 -64 -176 -123q-125 -58 -269 -58q-114 0 -182 25q-139 50 -139 254q0 141 65 330q64 185 158 290q143 152 385 152q315 0 315 -209q0 -77 -51 -158q-46 -78 -160 -129t-301 -55q-14 -80 -14 -184q0 -32 9.5 -55.5
t22.5 -35.5t34 -18.5t37.5 -8t39.5 -1.5q60 0 136 29t120 67zM453 516q118 42 178.5 140.5t60.5 220.5q0 61 -49 61q-39 0 -74 -59q-75 -135 -116 -363zM805 1309q0 -76 -48 -128.5t-124 -52.5q-61 0 -100 39t-39 101q0 75 51 127.5t123 52.5q61 0 99 -40t38 -99z" />
    <glyph glyph-name="Eogonek" unicode="&#x118;" horiz-adv-x="1249" 
d="M993 0h-1001l2 14q61 17 106 47q47 35 62 127l182 928q14 71 14 133q0 46 -28 68q-20 14 -90 35l2 14h983q49 0 49 -33q0 -61 -70 -284h-14q-23 129 -55 157q-37 29 -127 29h-177q-39 0 -55 -20t-24 -70l-76 -367h110q146 0 203 13q37 10 61 37t60 96h16l-86 -424h-16
q-8 67 -29.5 97t-70.5 40q-46 12 -160 12h-109l-73 -373q-15 -71 -15 -106q0 -43 97 -43h176q120 0 182 45q54 39 135 168h14q-41 -225 -63 -297q-8 -25 -23 -34t-51 -9h-4q-37 -39 -67 -78q-28 -35 -52 -89.5t-24 -100.5q0 -50 26 -79.5t70 -29.5q55 0 82 15l6 -9l-2 -10
q-5 -25 -22 -51q-35 -53 -152 -53q-106 0 -162.5 48t-56.5 130q0 110 79.5 181t237.5 126z" />
    <glyph glyph-name="eogonek" unicode="&#x119;" horiz-adv-x="985" 
d="M475 -362l6 -9l-2 -10q-5 -25 -22 -51q-35 -53 -152 -53q-106 0 -162.5 48t-56.5 130q0 178 248 280q-140 3 -219 58q-80 56 -80 221q0 141 65 330q64 185 158 290q143 152 385 152q315 0 315 -209q0 -77 -51 -158q-46 -78 -160 -129t-301 -55q-14 -80 -14 -184
q0 -32 9.5 -55.5t22.5 -35.5t34 -18.5t37.5 -8t39.5 -1.5q60 0 136 29t120 67l7 -4q0 -23 -4 -47q-2 -15 -33 -61q-43 -55 -152 -111q-113 -55 -231 -66q-121 -139 -121 -245q0 -50 26 -79.5t70 -29.5q55 0 82 15zM453 516q118 42 178.5 140.5t60.5 220.5q0 61 -49 61
q-39 0 -74 -59q-75 -135 -116 -363z" />
    <glyph glyph-name="Ecaron" unicode="&#x11a;" horiz-adv-x="1249" 
d="M1034 0h-1042l2 14q61 17 106 47q47 35 62 127l182 928q14 71 14 133q0 46 -28 68q-20 14 -90 35l2 14h983q49 0 49 -33q0 -61 -70 -284h-14q-23 129 -55 157q-37 29 -127 29h-177q-39 0 -55 -20t-24 -70l-76 -367h110q146 0 203 13q37 10 61 37t60 96h16l-86 -424h-16
q-8 67 -29.5 97t-70.5 40q-46 12 -160 12h-109l-73 -373q-15 -71 -15 -106q0 -43 97 -43h176q120 0 182 45q54 39 135 168h14q-41 -225 -63 -297q-8 -25 -23 -34t-51 -9zM688 1487l-160 256l11 10l288 -127l344 127l9 -12l-279 -264q-48 -45 -104 -45q-75 0 -109 55z" />
    <glyph glyph-name="ecaron" unicode="&#x11b;" horiz-adv-x="985" 
d="M831 266l7 -4q0 -23 -4 -47q-2 -15 -33 -61q-49 -64 -176 -123q-125 -58 -269 -58q-114 0 -182 25q-139 50 -139 254q0 141 65 330q64 185 158 290q143 152 385 152q315 0 315 -209q0 -77 -51 -158q-46 -78 -160 -129t-301 -55q-14 -80 -14 -184q0 -32 9.5 -55.5
t22.5 -35.5t34 -18.5t37.5 -8t39.5 -1.5q60 0 136 29t120 67zM453 516q118 42 178.5 140.5t60.5 220.5q0 61 -49 61q-39 0 -74 -59q-75 -135 -116 -363zM512 1186l-141 291l12 10l268 -152l312 154l10 -12l-238 -301q-46 -64 -119 -64q-69 0 -104 74z" />
    <glyph glyph-name="Gcircumflex" unicode="&#x11c;" horiz-adv-x="1486" 
d="M1241 18q-87 -6 -313 -30q-231 -15 -258 -15q-302 0 -447 154q-143 152 -143 395q0 318 153 543q154 227 408 291q150 39 371 39q186 0 305 -35q80 -27 80 -78q0 -75 -64 -270h-14q-14 107 -76 182q-65 80 -235 80q-125 0 -217 -53q-265 -154 -265 -707q0 -193 62 -306.5
t176 -113.5q33 0 57 12q33 15 49 103l27 141q16 91 16 137q0 43 -20.5 67.5t-81.5 43.5l2 12h623l-2 -12q-54 -25 -76 -47q-34 -34 -64 -191l-32 -161q-21 -86 -21 -181zM1098 1724l162 -256l-11 -10l-288 127l-347 -127l-8 12l279 265q48 45 104 45q65 0 109 -56z" />
    <glyph glyph-name="gcircumflex" unicode="&#x11d;" horiz-adv-x="1243" 
d="M57 -100h19q23 -134 91 -202.5t152 -68.5q90 0 148 64q63 72 129 305q56 183 98 356q-88 -178 -215 -270t-231 -92q-45 0 -72.5 6t-62.5 25q-76 42 -76 200q0 172 88 373q86 200 213 305q84 68 172 94q101 29 272 29q98 0 246 -23q131 -20 176 -47q-60 -73 -145 -532
q-60 -323 -101 -457q-44 -143 -129 -231q-91 -98 -245 -146q-142 -45 -277 -45q-180 0 -254 39q-49 24 -49 68q0 70 53 250zM782 879q0 45 -51 45q-59 0 -100 -50q-60 -72 -129 -274q-70 -204 -70 -324q0 -63 47 -63q43 0 103 66q55 61 92 149q41 108 98 363q10 58 10 88z
M918 1413l139 -287l-13 -10l-266 152l-313 -152l-10 10l235 297q56 68 121 68q66 0 107 -78z" />
    <glyph glyph-name="Gbreve" unicode="&#x11e;" horiz-adv-x="1486" 
d="M1241 18q-87 -6 -313 -30q-231 -15 -258 -15q-302 0 -447 154q-143 152 -143 395q0 318 153 543q154 227 408 291q150 39 371 39q186 0 305 -35q80 -27 80 -78q0 -75 -64 -270h-14q-14 107 -76 182q-65 80 -235 80q-125 0 -217 -53q-265 -154 -265 -707q0 -193 62 -306.5
t176 -113.5q33 0 57 12q33 15 49 103l27 141q16 91 16 137q0 43 -20.5 67.5t-81.5 43.5l2 12h623l-2 -12q-54 -25 -76 -47q-34 -34 -64 -191l-32 -161q-21 -86 -21 -181zM1239 1780l16 -2q-18 -132 -94 -230q-75 -96 -231 -96q-236 0 -236 274q0 44 2 54h17
q13 -75 71 -107.5t174 -32.5q112 0 177.5 32.5t103.5 107.5z" />
    <glyph glyph-name="gbreve" unicode="&#x11f;" horiz-adv-x="1243" 
d="M57 -100h19q23 -134 91 -202.5t152 -68.5q90 0 148 64q63 72 129 305q56 183 98 356q-88 -178 -215 -270t-231 -92q-45 0 -72.5 6t-62.5 25q-76 42 -76 200q0 172 88 373q86 200 213 305q84 68 172 94q101 29 272 29q98 0 246 -23q131 -20 176 -47q-60 -73 -145 -532
q-60 -323 -101 -457q-44 -143 -129 -231q-91 -98 -245 -146q-142 -45 -277 -45q-180 0 -254 39q-49 24 -49 68q0 70 53 250zM782 879q0 45 -51 45q-59 0 -100 -50q-60 -72 -129 -274q-70 -204 -70 -324q0 -63 47 -63q43 0 103 66q55 61 92 149q41 108 98 363q10 58 10 88z
M1042 1516l19 -7q-59 -344 -328 -344q-244 0 -244 281q0 10 5 67l18 3q25 -88 76.5 -122t165.5 -34q109 0 172.5 36.5t115.5 119.5z" />
    <glyph glyph-name="Gdotaccent" unicode="&#x120;" horiz-adv-x="1486" 
d="M1241 18q-87 -6 -313 -30q-231 -15 -258 -15q-302 0 -447 154q-143 152 -143 395q0 318 153 543q154 227 408 291q150 39 371 39q186 0 305 -35q80 -27 80 -78q0 -75 -64 -270h-14q-14 107 -76 182q-65 80 -235 80q-125 0 -217 -53q-265 -154 -265 -707q0 -193 62 -306.5
t176 -113.5q33 0 57 12q33 15 49 103l27 141q16 91 16 137q0 43 -20.5 67.5t-81.5 43.5l2 12h623l-2 -12q-54 -25 -76 -47q-34 -34 -64 -191l-32 -161q-21 -86 -21 -181zM1051 1626q0 -77 -47 -129.5t-123 -52.5q-58 0 -97 39t-39 100q0 75 50.5 127.5t119.5 52.5
q62 0 99 -39t37 -98z" />
    <glyph glyph-name="gdotaccent" unicode="&#x121;" horiz-adv-x="1243" 
d="M57 -100h19q23 -134 91 -202.5t152 -68.5q90 0 148 64q63 72 129 305q56 183 98 356q-88 -178 -215 -270t-231 -92q-45 0 -72.5 6t-62.5 25q-76 42 -76 200q0 172 88 373q86 200 213 305q84 68 172 94q101 29 272 29q98 0 246 -23q131 -20 176 -47q-60 -73 -145 -532
q-60 -323 -101 -457q-44 -143 -129 -231q-91 -98 -245 -146q-142 -45 -277 -45q-180 0 -254 39q-49 24 -49 68q0 70 53 250zM782 879q0 45 -51 45q-59 0 -100 -50q-60 -72 -129 -274q-70 -204 -70 -324q0 -63 47 -63q43 0 103 66q55 61 92 149q41 108 98 363q10 58 10 88z
M930 1309q0 -76 -48 -128.5t-124 -52.5q-61 0 -100.5 39t-39.5 101q0 75 51.5 127.5t123.5 52.5q61 0 99 -40t38 -99z" />
    <glyph glyph-name="Gcommaaccent" unicode="&#x122;" horiz-adv-x="1486" 
d="M1241 18q-87 -6 -313 -30q-231 -15 -258 -15q-302 0 -447 154q-143 152 -143 395q0 318 153 543q154 227 408 291q150 39 371 39q186 0 305 -35q80 -27 80 -78q0 -75 -64 -270h-14q-14 107 -76 182q-65 80 -235 80q-125 0 -217 -53q-265 -154 -265 -707q0 -193 62 -306.5
t176 -113.5q33 0 57 12q33 15 49 103l27 141q16 91 16 137q0 43 -20.5 67.5t-81.5 43.5l2 12h623l-2 -12q-54 -25 -76 -47q-34 -34 -64 -191l-32 -161q-21 -86 -21 -181zM414 -598l-6 16q192 104 192 197q0 51 -45 90q-35 35 -35 86q0 59 39 93t100 34q73 0 117.5 -42
t44.5 -116q0 -138 -121 -227q-120 -91 -286 -131z" />
    <glyph glyph-name="gcommaaccent" unicode="&#x123;" horiz-adv-x="1243" 
d="M1026 1681l10 -20q-194 -108 -194 -197q0 -50 45 -92q33 -29 33 -84q0 -61 -37.5 -95t-100.5 -34q-70 0 -115.5 43t-45.5 115q0 143 118 233q119 94 287 131zM57 -100h19q23 -134 91 -202.5t152 -68.5q90 0 148 64q63 72 129 305q56 183 98 356q-88 -178 -215 -270
t-231 -92q-45 0 -72.5 6t-62.5 25q-76 42 -76 200q0 172 88 373q86 200 213 305q84 68 172 94q101 29 272 29q98 0 246 -23q131 -20 176 -47q-60 -73 -145 -532q-60 -323 -101 -457q-44 -143 -129 -231q-91 -98 -245 -146q-142 -45 -277 -45q-180 0 -254 39q-49 24 -49 68
q0 70 53 250zM782 879q0 45 -51 45q-59 0 -100 -50q-60 -72 -129 -274q-70 -204 -70 -324q0 -63 47 -63q43 0 103 66q55 61 92 149q41 108 98 363q10 58 10 88z" />
    <glyph glyph-name="Hcircumflex" unicode="&#x124;" horiz-adv-x="1617" 
d="M1425 14l-2 -14h-686l2 14q78 18 123 66q26 33 60 188l75 381h-344l-73 -383q-23 -131 -23 -157q0 -57 123 -95l-2 -14h-686l4 14q71 14 119 66q31 39 61 188l162 815q20 100 20 166q0 43 -22.5 64t-97.5 39l2 14h682l-4 -14q-93 -36 -111 -54q-22 -20 -34 -57t-32 -141
l-63 -322h346l61 305q21 105 21 166q0 43 -23 64t-100 39l2 14h682l-4 -14q-90 -35 -109 -54q-37 -34 -67 -198l-160 -834q-22 -126 -22 -157q0 -57 120 -95zM1159 1724l162 -256l-10 -10l-289 127l-346 -127l-8 12l278 265q48 45 105 45q64 0 108 -56z" />
    <glyph glyph-name="hcircumflex" unicode="&#x125;" horiz-adv-x="1224" 
d="M492 479l-97 -479h-364l164 811q79 396 79 467q0 51 -20 68q-33 26 -98 32l2 15q239 53 438 53q41 0 55.5 -13.5t14.5 -50.5q0 -50 -27 -176q-67 -331 -115 -510q46 115 168 222q118 106 269 106q81 0 119 -29t38 -102q0 -85 -92 -518q-37 -179 -37 -215q0 -58 66 -58
q49 0 63 2l2 -12q-69 -43 -186 -78q-112 -34 -211 -34q-65 0 -89 27t-24 83q0 36 29 178q98 471 98 488q0 41 -39 41q-58 0 -129 -105q-48 -73 -77 -213zM668 1751l161 -256l-10 -10l-289 127l-346 -127l-8 12l279 264q48 45 104 45q66 0 109 -55z" />
    <glyph glyph-name="Hbar" unicode="&#x126;" horiz-adv-x="1617" 
d="M680 14l-2 -14h-686l4 14q71 14 119 66q31 39 61 188l131 662h-176l33 157h174q20 97 20 162q0 43 -22.5 64t-97.5 39l2 14h682l-4 -14q-93 -36 -111 -54q-22 -20 -34 -57t-32 -141l-2 -13h346q21 102 21 162q0 43 -23 64t-100 39l2 14h682l-4 -14q-90 -35 -109 -54
q-37 -34 -67 -198l-2 -13h180l-33 -157h-178l-127 -664q-22 -126 -22 -157q0 -57 120 -95l-2 -14h-686l2 14q78 18 123 66q26 33 60 188l75 381h-344l-73 -383q-23 -131 -23 -157q0 -57 123 -95zM1055 930h-346l-31 -152h346z" />
    <glyph glyph-name="hbar" unicode="&#x127;" horiz-adv-x="1224" 
d="M492 479l-97 -479h-364l164 811l61 319h-147l24 115h139q2 8 2 33q0 51 -20 68q-33 26 -98 32l2 15q239 53 438 53q41 0 55.5 -13.5t14.5 -50.5q0 -29 -19 -137h178l-24 -115h-178q-47 -231 -99 -434q46 115 168 222q118 106 269 106q81 0 119 -29t38 -102
q0 -85 -92 -518q-37 -179 -37 -215q0 -58 66 -58q49 0 63 2l2 -12q-69 -43 -186 -78q-112 -34 -211 -34q-65 0 -89 27t-24 83q0 36 29 178q98 471 98 488q0 41 -39 41q-58 0 -129 -105q-48 -73 -77 -213z" />
    <glyph glyph-name="Itilde" unicode="&#x128;" horiz-adv-x="876" 
d="M682 14l-4 -14h-686l4 14q71 14 119 66q31 39 61 188l162 817q20 100 20 164q0 43 -22.5 64t-97.5 39l2 14h686l-4 -14q-91 -33 -115 -54q-22 -20 -34 -56.5t-32 -139.5l-161 -836q-23 -131 -23 -157q0 -31 28.5 -53t96.5 -42zM952 1751l17 -6q-79 -266 -226 -266
q-62 0 -147 39q-101 43 -147 43q-81 0 -140 -93l-18 7q114 272 250 272q48 0 153 -51q65 -33 113 -33q47 0 78.5 19t66.5 69z" />
    <glyph glyph-name="itilde" unicode="&#x129;" horiz-adv-x="690" 
d="M729 1450l16 -8q-89 -271 -221 -271q-39 0 -135 41q-84 37 -123 37q-75 0 -137 -92l-16 8q36 98 77 174q61 107 146 107q51 0 127 -43q73 -43 125 -43q44 0 71 17.5t70 72.5zM569 104v-12q-69 -41 -186 -78q-118 -34 -213 -34q-133 0 -133 114q0 41 37 195l80 350
q26 113 26 197q0 54 -28 77.5t-86 28.5l2 12q189 64 403 64q59 0 82 -23q22 -22 22 -61q0 -52 -32 -197l-74 -368q-33 -152 -33 -213q0 -56 64 -56q23 0 69 4z" />
    <glyph glyph-name="Imacron" unicode="&#x12a;" horiz-adv-x="876" 
d="M682 14l-4 -14h-686l4 14q71 14 119 66q31 39 61 188l162 817q20 100 20 164q0 43 -22.5 64t-97.5 39l2 14h686l-4 -14q-91 -33 -115 -54q-22 -20 -34 -56.5t-32 -139.5l-161 -836q-23 -131 -23 -157q0 -31 28.5 -53t96.5 -42zM940 1653l-31 -176h-604l33 176h602z" />
    <glyph glyph-name="imacron" unicode="&#x12b;" horiz-adv-x="690" 
d="M537 104v-12q-68 -41 -187 -78q-118 -34 -213 -34q-133 0 -133 114q0 41 37 195l80 350q26 113 26 197q0 54 -28 77.5t-86 28.5l2 12q189 64 403 64q59 0 82 -23t23 -61q0 -48 -33 -197l-74 -368q-33 -152 -33 -213q0 -56 64 -56q24 0 70 4zM709 1403l-41 -180h-549
l39 180h551z" />
    <glyph glyph-name="Ibreve" unicode="&#x12c;" horiz-adv-x="876" 
d="M682 14l-4 -14h-686l4 14q71 14 119 66q31 39 61 188l162 817q20 100 20 164q0 43 -22.5 64t-97.5 39l2 14h686l-4 -14q-91 -33 -115 -54q-22 -20 -34 -56.5t-32 -139.5l-161 -836q-23 -131 -23 -157q0 -31 28.5 -53t96.5 -42zM918 1780l16 -2q-18 -132 -94 -230
q-75 -96 -232 -96q-235 0 -235 274q0 44 2 54h16q13 -75 71.5 -107.5t174.5 -32.5q112 0 177.5 32.5t103.5 107.5z" />
    <glyph glyph-name="ibreve" unicode="&#x12d;" horiz-adv-x="690" 
d="M725 1516l18 -7q-59 -344 -327 -344q-244 0 -244 281q0 21 4 67l19 3q25 -88 76 -122t165 -34q109 0 173 36.5t116 119.5zM569 104v-12q-69 -41 -186 -78q-118 -34 -213 -34q-133 0 -133 114q0 41 37 195l80 350q26 113 26 197q0 54 -28 77.5t-86 28.5l2 12
q189 64 403 64q59 0 82 -23q22 -22 22 -61q0 -52 -32 -197l-74 -368q-33 -152 -33 -213q0 -56 64 -56q23 0 69 4z" />
    <glyph glyph-name="Iogonek" unicode="&#x12e;" horiz-adv-x="876" 
d="M348 -375l6 -8l-2 -10q-7 -29 -20 -47q-35 -54 -158 -54q-109 0 -167 50.5t-58 134.5q0 111 80.5 181t246.5 128h-268l4 14q71 14 119 66q33 41 62 188l161 817q21 105 21 164q0 43 -23 64t-98 39l2 14h686l-4 -14q-91 -33 -115 -54q-22 -19 -33.5 -55.5t-31.5 -140.5
l-162 -836q-23 -131 -23 -157q0 -31 28.5 -53t96.5 -42l-4 -14h-381q-6 -6 -75 -84q-27 -35 -49.5 -88t-22.5 -104q0 -113 100 -113q57 0 82 14z" />
    <glyph glyph-name="iogonek" unicode="&#x12f;" horiz-adv-x="690" 
d="M295 -362l6 -9l-2 -10q-5 -22 -23 -51q-35 -53 -151 -53q-106 0 -162.5 48t-56.5 130q0 101 68.5 170t203.5 121q-119 6 -119 116q0 45 31 197l72 344q31 149 31 209q0 49 -29 68q-32 19 -82 22v14q189 64 405 64q58 0 77.5 -17.5t19.5 -60.5q0 -41 -33 -203l-76 -366
q-33 -152 -33 -215q0 -56 64 -56q23 0 69 4v-12q-148 -86 -327 -104q-131 -143 -131 -256q0 -50 26 -79.5t70 -29.5q55 0 82 15zM610 1309q0 -99 -52.5 -156t-145.5 -57q-73 0 -116.5 42t-43.5 113q0 85 54 143t145 58q74 0 116.5 -39.5t42.5 -103.5z" />
    <glyph glyph-name="Idot" unicode="&#x130;" horiz-adv-x="876" 
d="M682 14l-4 -14h-686l4 14q71 14 119 66q31 39 61 188l162 817q20 100 20 164q0 43 -22.5 64t-97.5 39l2 14h686l-4 -14q-91 -33 -115 -54q-22 -20 -34 -56.5t-32 -139.5l-161 -836q-23 -131 -23 -157q0 -31 28.5 -53t96.5 -42zM778 1626q0 -77 -47 -129.5t-123 -52.5
q-58 0 -96.5 39t-38.5 100q0 75 50.5 127.5t119.5 52.5q61 0 98 -39t37 -98z" />
    <glyph glyph-name="dotlessi" unicode="&#x131;" horiz-adv-x="690" 
d="M569 104v-12q-69 -41 -186 -78q-118 -34 -213 -34q-133 0 -133 114q0 41 37 195l80 350q26 113 26 197q0 54 -28 77.5t-86 28.5l2 12q189 64 403 64q59 0 82 -23q22 -22 22 -61q0 -52 -32 -197l-74 -368q-33 -152 -33 -213q0 -56 64 -56q23 0 69 4z" />
    <glyph glyph-name="IJ" unicode="&#x132;" horiz-adv-x="1742" 
d="M682 14l-4 -14h-686l4 14q71 14 119 66q31 39 61 188l162 817q20 100 20 164q0 43 -22.5 64t-97.5 39l2 14h686l-4 -14q-91 -33 -115 -54q-22 -20 -34 -56.5t-32 -139.5l-161 -836q-23 -131 -23 -157q0 -31 28.5 -53t96.5 -42zM729 -2h12q22 -96 61.5 -146.5t84.5 -50.5
q59 0 80 35q14 23 28 90l15 66l18 92l21 109l172 901q16 88 16 137q0 43 -29 69.5t-112 51.5l2 14h698l-2 -14q-73 -25 -106 -58q-26 -34 -33 -59q-12 -41 -31 -129l-160 -854q-29 -153 -59 -223q-37 -86 -96 -150q-172 -196 -426 -196q-101 0 -148 18q-49 21 -49 63
q0 72 43 234z" />
    <glyph glyph-name="ij" unicode="&#x133;" horiz-adv-x="1368" 
d="M575 104v-12q-76 -44 -180 -76q-100 -32 -202 -32q-134 0 -134 116q0 45 31 197l72 344q31 149 31 209q0 49 -29 68q-32 19 -82 22v14q189 64 405 64q58 0 77.5 -17.5t19.5 -60.5q0 -41 -33 -203l-76 -366q-33 -152 -33 -215q0 -56 64 -56q23 0 69 4zM610 1309
q0 -99 -52.5 -156t-145.5 -57q-73 0 -116.5 42t-43.5 113q0 85 54 143t145 58q74 0 116.5 -39.5t42.5 -103.5zM463 -188h16q18 -87 56 -138t73 -51q48 0 66 53q44 121 131 627l57 328q31 181 31 227q0 41 -29 60q-17 12 -82 22v14q189 64 418 64q82 0 82 -68q0 -83 -76 -499
q-78 -435 -106 -533q-36 -127 -84 -188q-67 -82 -177 -136.5t-249 -54.5q-93 0 -137 33q-33 26 -33 59q0 30 14 90q14 57 29 91zM1305 1309q0 -99 -53 -156t-146 -57q-73 0 -116.5 42t-43.5 113q0 85 54 143t145 58q74 0 117 -39.5t43 -103.5z" />
    <glyph glyph-name="Jcircumflex" unicode="&#x134;" horiz-adv-x="866" 
d="M-147 -2h12q22 -96 61 -146.5t84 -50.5q59 0 80 35q16 25 29 90l14 66l19 92l20 109l172 901q16 88 16 137q0 43 -29 69.5t-112 51.5l2 14h699l-2 -14q-74 -25 -107 -58q-26 -34 -33 -59q-9 -30 -30 -129l-160 -854q-28 -149 -60 -223q-37 -86 -96 -150
q-172 -196 -426 -196q-100 0 -147 18q-49 21 -49 63q0 72 43 234zM754 1724l161 -256l-10 -10l-289 127l-346 -127l-8 12l279 265q48 45 104 45q65 0 109 -56z" />
    <glyph glyph-name="jcircumflex" unicode="&#x135;" horiz-adv-x="667" 
d="M-236 -188h17q18 -86 56.5 -137.5t72.5 -51.5q46 0 61 53q32 80 125 621l60 356q20 120 20 195q0 46 -26 63q-28 25 -91 31v12q213 66 433 66q81 0 81 -70q0 -82 -32 -250q-65 -355 -115 -598q-38 -188 -61 -252q-18 -62 -60 -120q-150 -191 -414 -191q-93 0 -137 33
q-33 26 -33 59q0 17 17 90q18 72 26 91zM520 1393l142 -291l-15 -10l-266 151l-311 -151l-11 10l240 301q42 63 117 63q70 0 104 -73z" />
    <glyph glyph-name="Kcommaaccent" unicode="&#x136;" horiz-adv-x="1570" 
d="M682 14l-2 -14h-688l4 14q85 21 117 64q37 49 63 190l162 817q20 100 20 164q0 44 -21.5 64.5t-96.5 38.5l2 14h686l-6 -14q-91 -33 -115 -54q-22 -20 -34 -56.5t-32 -139.5l-79 -400q226 194 389 355q127 127 127 194t-123 101l2 14h583l-2 -14q-98 -37 -155 -78
q-64 -45 -160 -137l-293 -273q150 -456 332 -735q40 -63 158 -98l-7 -17q-135 -24 -452 -24q-64 0 -92 20t-43 66q-50 119 -207 547q-72 -54 -86 -64l-53 -293q-21 -108 -21 -155q0 -59 123 -97zM492 -598l-7 16q193 105 193 197q0 51 -45 90q-35 35 -35 86q0 59 39 93
t100 34q73 0 117.5 -42t44.5 -116q0 -138 -121 -227q-120 -91 -286 -131z" />
    <glyph glyph-name="kcommaaccent" unicode="&#x137;" horiz-adv-x="1234" 
d="M487 426l-86 -426h-364l168 829q76 381 76 449q0 50 -21 68q-33 23 -98 32l2 15q233 53 434 53q44 0 59 -13t15 -53q0 -38 -25 -163q-77 -370 -115 -517q49 119 170 222q120 102 269 102q90 0 135 -38.5t45 -129.5q0 -212 -285 -326q82 -212 121 -288q44 -84 49 -90
q38 -56 94 -56q29 0 37 2l4 -12q-41 -35 -147 -76q-104 -37 -213 -37q-125 0 -160 86q-39 110 -41 115l-43 141l-30 115q-9 -1 -21 -2t-18.5 -1.5t-10.5 -0.5zM512 543l-14 -68q80 8 141.5 32t96 53.5t56 67t28.5 68t7 60.5q0 75 -71 75q-78 0 -150 -90q-70 -88 -94 -198z
M231 -598l-6 16q193 105 193 197q0 51 -45 90q-35 35 -35 86q0 59 39 93t100 34q73 0 117.5 -42t44.5 -116q0 -138 -121 -227q-119 -91 -287 -131z" />
    <glyph glyph-name="kgreenlandic" unicode="&#x138;" horiz-adv-x="1193" 
d="M412 225l-50 -225h-364l88 399q76 338 76 447q0 46 -21 67q-25 25 -98 31v14q256 58 444 58q42 0 56 -16.5t14 -61.5q0 -31 -31 -164l-80 -301q85 168 256 354q188 197 318 197q156 0 31 -301h-17q-30 70 -56.5 99.5t-62.5 29.5q-81 0 -167 -74q156 -425 192 -497
q53 -106 90 -146q33 -39 82 -39q10 0 18 2h13l4 -10q-43 -36 -160 -76q-116 -39 -221 -39q-78 0 -111 43q-4 6 -7.5 10.5t-7 10t-5.5 8.5t-5 9.5t-4.5 9.5t-5 11.5t-5 12t-6.5 15t-7 16.5q-1 6 -21.5 70t-45.5 144.5t-35 117.5q-19 -19 -44.5 -82t-43.5 -144z" />
    <glyph glyph-name="Lacute" unicode="&#x139;" horiz-adv-x="1228" 
d="M1026 0h-1034l2 14q67 16 106 49q42 31 60 125l170 869q28 156 28 184q0 47 -22 69.5t-98 41.5l2 14h686l-2 -14q-91 -28 -115 -58q-37 -37 -72 -215l-155 -796q-15 -77 -15 -111q0 -45 86 -45h176q121 0 179 37q66 45 147 174h14q-25 -173 -63 -297q-9 -41 -80 -41z
M825 1571l-358 -117l-8 12l231 277q81 90 152 90q55 0 89 -33t34 -92q0 -46 -38.5 -81.5t-101.5 -55.5z" />
    <glyph glyph-name="lacute" unicode="&#x13a;" horiz-adv-x="688" 
d="M569 104l2 -12q-74 -42 -182 -76q-100 -32 -203 -32q-73 0 -102 29t-29 85q0 44 29 189l170 839q18 94 18 144q0 56 -22 78q-27 27 -96 30v15q207 53 432 53q48 0 63 -14.5t15 -57.5q0 -35 -35 -213l-158 -788q-33 -152 -33 -215q0 -58 70 -58q15 0 61 4zM727 1683
l-358 -116l-9 12l232 276q82 91 151 91q55 0 89 -33t34 -92q0 -46 -38.5 -82.5t-100.5 -55.5z" />
    <glyph glyph-name="Lcommaaccent" unicode="&#x13b;" horiz-adv-x="1228" 
d="M1026 0h-1034l2 14q67 16 106 49q42 31 60 125l170 869q28 156 28 184q0 47 -22 69.5t-98 41.5l2 14h686l-2 -14q-91 -28 -115 -58q-37 -37 -72 -215l-155 -796q-15 -77 -15 -111q0 -45 86 -45h176q121 0 179 37q66 45 147 174h14q-25 -173 -63 -297q-9 -41 -80 -41z
M272 -598l-6 16q193 105 193 197q0 51 -45 90q-35 35 -35 86q0 59 39 93t100 34q73 0 117.5 -42t44.5 -116q0 -138 -121 -227q-119 -91 -287 -131z" />
    <glyph glyph-name="lcommaaccent" unicode="&#x13c;" horiz-adv-x="688" 
d="M569 104l2 -12q-74 -42 -182 -76q-100 -32 -203 -32q-73 0 -102 29t-29 85q0 44 29 189l170 839q18 94 18 144q0 56 -22 78q-27 27 -96 30v15q207 53 432 53q48 0 63 -14.5t15 -57.5q0 -35 -35 -213l-158 -788q-33 -152 -33 -215q0 -58 70 -58q15 0 61 4zM-33 -598l-6 16
q193 105 193 197q0 51 -45 90q-35 35 -35 86q0 59 39 93t100 34q73 0 117.5 -42t44.5 -116q0 -138 -121 -227q-119 -91 -287 -131z" />
    <glyph glyph-name="Lcaron" unicode="&#x13d;" horiz-adv-x="1228" 
d="M1026 0h-1034l2 14q67 16 106 49q42 31 60 125l170 869q28 156 28 184q0 47 -22 69.5t-98 41.5l2 14h686l-2 -14q-91 -28 -115 -58q-37 -37 -72 -215l-155 -796q-15 -77 -15 -111q0 -45 86 -45h176q121 0 179 37q66 45 147 174h14q-25 -173 -63 -297q-9 -41 -80 -41z
M938 885l-6 16q192 107 192 199q0 51 -45 90q-35 35 -35 86q0 59 38.5 93t101.5 34q71 0 116.5 -43t45.5 -115q0 -139 -121 -231q-121 -89 -287 -129z" />
    <glyph glyph-name="lcaron" unicode="&#x13e;" horiz-adv-x="688" 
d="M569 104l2 -12q-74 -42 -182 -76q-100 -32 -203 -32q-73 0 -102 29t-29 85q0 44 29 189l170 839q18 94 18 144q0 56 -22 78q-27 27 -96 30v15q207 53 432 53q48 0 63 -14.5t15 -57.5q0 -35 -35 -213l-158 -788q-33 -152 -33 -215q0 -58 70 -58q15 0 61 4zM662 930l-7 16
q193 108 193 199q0 51 -45 90q-35 35 -35 86q0 59 38 93t101 34q71 0 116.5 -43t45.5 -115q0 -139 -121 -231q-122 -90 -286 -129z" />
    <glyph glyph-name="Ldot" unicode="&#x13f;" horiz-adv-x="1228" 
d="M1276 670q0 -87 -56.5 -145t-148.5 -58q-82 0 -134 52t-52 136q0 95 57 156t150 61q89 0 136.5 -54t47.5 -148zM1026 0h-1034l2 14q67 16 106 49q42 31 60 125l170 869q28 156 28 184q0 47 -22 69.5t-98 41.5l2 14h686l-2 -14q-91 -28 -115 -58q-37 -37 -72 -215
l-155 -796q-15 -77 -15 -111q0 -45 86 -45h176q121 0 179 37q66 45 147 174h14q-25 -173 -63 -297q-9 -41 -80 -41z" />
    <glyph glyph-name="ldot" unicode="&#x140;" horiz-adv-x="927" 
d="M995 668q0 -89 -52.5 -145t-143.5 -56q-70 0 -127 51q-58 52 -58 131q0 99 52 159t147 60q89 0 135.5 -53t46.5 -147zM569 104l2 -12q-74 -42 -182 -76q-100 -32 -203 -32q-73 0 -102 29t-29 85q0 44 29 189l170 839q18 94 18 144q0 56 -22 78q-27 27 -96 30v15
q207 53 432 53q48 0 63 -14.5t15 -57.5q0 -35 -35 -213l-158 -788q-33 -152 -33 -215q0 -58 70 -58q15 0 61 4z" />
    <glyph glyph-name="Lslash" unicode="&#x141;" horiz-adv-x="1228" 
d="M221 504l-100 -53l-74 129l211 112l72 365q28 156 28 184q0 47 -22 69.5t-98 41.5l2 14h686l-2 -14q-91 -28 -115 -58q-37 -37 -72 -215l-28 -149l178 96l65 -127l-280 -151l-90 -465q-15 -77 -15 -111q0 -45 86 -45h176q121 0 179 37q66 45 147 174h14
q-25 -173 -63 -297q-9 -41 -80 -41h-1034l2 14q67 16 106 49q42 31 60 125z" />
    <glyph glyph-name="lslash" unicode="&#x142;" horiz-adv-x="688" 
d="M139 526l-73 -37l-56 113l160 82l90 442q19 100 19 144q0 55 -23 78q-27 27 -96 30v15q207 53 432 53q48 0 63 -14.5t15 -57.5q0 -35 -35 -213l-53 -264l67 35l56 -115l-156 -80l-72 -364q-33 -152 -33 -215q0 -58 70 -58q15 0 61 4l3 -12q-73 -42 -183 -76
q-100 -32 -202 -32q-73 0 -102.5 29t-29.5 85q0 44 29 189z" />
    <glyph glyph-name="Nacute" unicode="&#x143;" horiz-adv-x="1564" 
d="M446 14l-6 -14h-448l4 14q83 18 117 58q37 44 63 176q69 335 150 788q26 144 26 193q0 60 -26 80q-37 29 -97 43l2 14h523q43 0 61 -37l365 -799q92 506 98 592q8 88 8 105q0 54 -27.5 80t-101.5 45l2 14h447l-2 -14q-32 -8 -103 -49q-59 -44 -86 -185l-213 -1132h-225
l-502 1179l-61 -352q-16 -95 -41 -236.5t-29 -162.5q-27 -156 -27 -166q-12 -86 -12 -121q0 -39 24 -57.5t117 -55.5zM1198 1593l-358 -116l-9 12l232 276q81 90 151 90q55 0 89 -32.5t34 -91.5q0 -46 -38.5 -82.5t-100.5 -55.5z" />
    <glyph glyph-name="nacute" unicode="&#x144;" horiz-adv-x="1226" 
d="M494 483l-99 -483h-364l116 569q39 181 39 285q0 39 -18 57q-29 26 -90 29v14q177 64 389 64q55 0 78.5 -17t23.5 -55q0 -68 -47 -264q40 119 164 231q123 111 287 111q145 0 145 -131q0 -79 -92 -518q-37 -179 -37 -213q0 -60 70 -60q47 0 61 2l2 -12q-68 -41 -184 -78
q-115 -34 -205 -34q-125 0 -125 100q0 47 33 196q96 462 96 484q0 37 -30 37q-67 0 -132 -95q-50 -70 -81 -219zM903 1266l-340 -148l-12 10l194 299q33 53 66.5 77t79.5 24q61 0 96 -33t35 -90q0 -81 -119 -139z" />
    <glyph glyph-name="Ncommaaccent" unicode="&#x145;" horiz-adv-x="1564" 
d="M446 14l-6 -14h-448l4 14q83 18 117 58q37 44 63 176q69 335 150 788q26 144 26 193q0 60 -26 80q-37 29 -97 43l2 14h523q43 0 61 -37l365 -799q92 506 98 592q8 88 8 105q0 54 -27.5 80t-101.5 45l2 14h447l-2 -14q-32 -8 -103 -49q-59 -44 -86 -185l-213 -1132h-225
l-502 1179l-61 -352q-16 -95 -41 -236.5t-29 -162.5q-27 -156 -27 -166q-12 -86 -12 -121q0 -39 24 -57.5t117 -55.5zM408 -598l-7 16q193 105 193 197q0 51 -45 90q-35 35 -35 86q0 59 39 93t100 34q73 0 117.5 -42t44.5 -116q0 -138 -121 -227q-120 -91 -286 -131z" />
    <glyph glyph-name="ncommaaccent" unicode="&#x146;" horiz-adv-x="1226" 
d="M494 483l-99 -483h-364l116 569q39 181 39 285q0 39 -18 57q-29 26 -90 29v14q177 64 389 64q55 0 78.5 -17t23.5 -55q0 -68 -47 -264q40 119 164 231q123 111 287 111q145 0 145 -131q0 -79 -92 -518q-37 -179 -37 -213q0 -60 70 -60q47 0 61 2l2 -12q-68 -41 -184 -78
q-115 -34 -205 -34q-125 0 -125 100q0 47 33 196q96 462 96 484q0 37 -30 37q-67 0 -132 -95q-50 -70 -81 -219zM215 -598l-6 16q192 104 192 197q0 51 -45 90q-34 34 -34 86q0 59 39 93t100 34q73 0 117.5 -42t44.5 -116q0 -138 -121 -227q-119 -91 -287 -131z" />
    <glyph glyph-name="Ncaron" unicode="&#x147;" horiz-adv-x="1564" 
d="M446 14l-6 -14h-448l4 14q83 18 117 58q37 44 63 176q69 335 150 788q26 144 26 193q0 60 -26 80q-37 29 -97 43l2 14h523q43 0 61 -37l365 -799q92 506 98 592q8 88 8 105q0 54 -27.5 80t-101.5 45l2 14h447l-2 -14q-32 -8 -103 -49q-59 -44 -86 -185l-213 -1132h-225
l-502 1179l-61 -352q-16 -95 -41 -236.5t-29 -162.5q-27 -156 -27 -166q-12 -86 -12 -121q0 -39 24 -57.5t117 -55.5zM844 1487l-160 256l10 10l289 -127l344 127l8 -12l-278 -264q-48 -45 -105 -45q-74 0 -108 55z" />
    <glyph glyph-name="ncaron" unicode="&#x148;" horiz-adv-x="1226" 
d="M500 483l-99 -483h-364l117 569q39 181 39 285q0 38 -19 57q-29 26 -90 29v14q177 64 389 64q55 0 78.5 -17t23.5 -55q0 -68 -47 -264q40 119 164 231q123 111 287 111q145 0 145 -131q0 -79 -92 -518q-37 -179 -37 -213q0 -60 70 -60q47 0 61 2l2 -12q-68 -41 -184 -78
q-115 -34 -205 -34q-125 0 -125 100q0 47 33 196q96 462 96 484q0 37 -30 37q-66 0 -131 -95q-51 -72 -82 -219zM516 1186l-141 291l12 10l268 -152l312 154l10 -12l-238 -301q-46 -64 -118 -64q-70 0 -105 74z" />
    <glyph glyph-name="napostrophe" unicode="&#x149;" horiz-adv-x="1226" 
d="M494 483l-99 -483h-364l116 569q39 181 39 285q0 39 -18 57q-29 26 -90 29v14q177 64 389 64q55 0 78.5 -17t23.5 -55q0 -68 -47 -264q40 119 164 231q123 111 287 111q145 0 145 -131q0 -79 -92 -518q-37 -179 -37 -213q0 -60 70 -60q47 0 61 2l2 -12q-68 -41 -184 -78
q-115 -34 -205 -34q-125 0 -125 100q0 47 33 196q96 462 96 484q0 37 -30 37q-67 0 -132 -95q-50 -70 -81 -219zM96 1044l-6 17q193 105 193 196q0 52 -45 91q-35 35 -35 86q0 59 39 93t100 34q73 0 117.5 -42t44.5 -116q0 -137 -121 -229q-123 -91 -287 -130z" />
    <glyph glyph-name="Eng" unicode="&#x14a;" horiz-adv-x="1564" 
d="M444 14l-4 -14h-448l4 14q83 18 117 58q37 44 63 176q32 154 80 424l68 364q28 156 28 193q0 60 -26 80q-37 29 -97 43l2 14h517q52 0 67 -35l367 -790q86 499 96 596q4 62 4 90q0 54 -26.5 80t-100.5 45l2 14h449l-2 -14q-32 -8 -103 -49q-59 -44 -86 -183l-198 -1054
q-28 -150 -56 -248q-25 -90 -69 -148q-107 -143 -304 -143q-51 0 -94 16q-37 18 -37 62q0 83 41 223h17q40 -184 133 -184q51 0 86 41q57 63 78 227l2 14q-134 319 -289 670q-117 273 -188 430q-60 131 -62 141q-150 -847 -156 -907q0 -6 -6 -59q-6 -52 -6 -74q0 -30 27 -57
q30 -18 110 -56z" />
    <glyph glyph-name="eng" unicode="&#x14b;" horiz-adv-x="1212" 
d="M492 467l-97 -467h-364l114 551q41 205 41 307q0 26 -12 47q-11 14 -40.5 25.5t-55.5 11.5v12q177 64 381 64q102 0 102 -74q0 -70 -39 -256q51 122 162 230q109 106 254 106q76 0 110.5 -30t34.5 -103q0 -78 -39 -295q-41 -245 -86 -438q-80 -352 -194 -484
q-156 -184 -438 -184q-55 0 -95 16q-38 14 -38 60q0 57 47 184h20q6 -79 31.5 -127.5t60.5 -48.5q41 0 76 41q55 78 125 399q152 701 152 748q0 35 -19 35q-65 0 -121 -109q-43 -78 -73 -221z" />
    <glyph glyph-name="Omacron" unicode="&#x14c;" horiz-adv-x="1470" 
d="M1452 928q0 -204 -82 -428q-84 -228 -237 -361q-91 -79 -226.5 -122.5t-271.5 -43.5q-266 0 -410.5 138.5t-144.5 386.5q0 195 76 399q76 203 231 334q93 81 236 121q142 43 284 43q545 0 545 -467zM1016 1044q0 133 -30 182.5t-101 49.5q-96 0 -176 -121
q-70 -107 -134 -364q-61 -256 -61 -429q0 -151 30 -209.5t103 -58.5q117 0 178 111q87 159 138 416q53 270 53 423zM1237 1653l-31 -176h-604l33 176h602z" />
    <glyph glyph-name="omacron" unicode="&#x14d;" horiz-adv-x="1157" 
d="M1075 666q0 -142 -47 -291q-45 -144 -137 -246q-144 -156 -440 -156q-190 0 -299 106.5t-109 287.5q0 300 182 503q139 154 432 154q193 0 305.5 -94.5t112.5 -263.5zM715 852q0 82 -72 82q-71 0 -115 -115q-46 -119 -90 -332q-41 -211 -41 -335q0 -91 76 -91
q78 0 119 134q46 152 84 350q39 189 39 307zM981 1403l-41 -180h-549l39 180h551z" />
    <glyph glyph-name="Obreve" unicode="&#x14e;" horiz-adv-x="1470" 
d="M1452 928q0 -204 -82 -428q-84 -228 -237 -361q-91 -79 -226.5 -122.5t-271.5 -43.5q-266 0 -410.5 138.5t-144.5 386.5q0 195 76 399q76 203 231 334q93 81 236 121q142 43 284 43q545 0 545 -467zM1016 1044q0 133 -30 182.5t-101 49.5q-96 0 -176 -121
q-70 -107 -134 -364q-61 -256 -61 -429q0 -151 30 -209.5t103 -58.5q117 0 178 111q87 159 138 416q53 270 53 423zM1223 1780l16 -2q-18 -132 -94 -230q-75 -96 -232 -96q-235 0 -235 274q0 44 2 54h16q13 -75 71.5 -107.5t174.5 -32.5q112 0 177.5 32.5t103.5 107.5z" />
    <glyph glyph-name="obreve" unicode="&#x14f;" horiz-adv-x="1157" 
d="M1075 666q0 -142 -47 -291q-45 -144 -137 -246q-144 -156 -440 -156q-190 0 -299 106.5t-109 287.5q0 300 182 503q139 154 432 154q193 0 305.5 -94.5t112.5 -263.5zM715 852q0 82 -72 82q-71 0 -115 -115q-46 -119 -90 -332q-41 -211 -41 -335q0 -91 76 -91
q78 0 119 134q46 152 84 350q39 189 39 307zM973 1516l18 -7q-59 -344 -327 -344q-244 0 -244 281q0 21 4 67l18 3q25 -88 76.5 -122t165.5 -34q109 0 173 36.5t116 119.5z" />
    <glyph glyph-name="Ohungarumlaut" unicode="&#x150;" horiz-adv-x="1470" 
d="M1452 928q0 -204 -82 -428q-84 -228 -237 -361q-91 -79 -226.5 -122.5t-271.5 -43.5q-266 0 -410.5 138.5t-144.5 386.5q0 195 76 399q76 203 231 334q93 81 236 121q142 43 284 43q545 0 545 -467zM1016 1044q0 133 -30 182.5t-101 49.5q-96 0 -176 -121
q-70 -107 -134 -364q-61 -256 -61 -429q0 -151 30 -209.5t103 -58.5q117 0 178 111q87 159 138 416q53 270 53 423zM938 1597l-356 -143l-9 12l230 275q84 96 153 96q49 0 82 -27t33 -75q0 -85 -133 -138zM1348 1597l-357 -143l-8 12l229 275q84 96 154 96q49 0 83 -28
t34 -74q0 -83 -135 -138z" />
    <glyph glyph-name="ohungarumlaut" unicode="&#x151;" horiz-adv-x="1157" 
d="M1075 666q0 -142 -47 -291q-45 -144 -137 -246q-144 -156 -440 -156q-190 0 -299 106.5t-109 287.5q0 300 182 503q139 154 432 154q193 0 305.5 -94.5t112.5 -263.5zM715 852q0 82 -72 82q-71 0 -115 -115q-46 -119 -90 -332q-41 -211 -41 -335q0 -91 76 -91
q78 0 119 134q46 152 84 350q39 189 39 307zM688 1288l-317 -172l-11 12l199 306q36 56 64.5 77t72.5 21q51 0 82 -26t31 -76q0 -77 -121 -142zM1063 1288l-318 -172l-10 12l199 306q36 56 64.5 77t72.5 21q51 0 82 -26t31 -76q0 -77 -121 -142z" />
    <glyph glyph-name="OE" unicode="&#x152;" horiz-adv-x="1972" 
d="M1880 350h16q-56 -279 -67 -315q-6 -24 -19.5 -29.5t-52.5 -5.5h-743q-21 0 -205 -4q-135 -6 -207 -6q-256 0 -389 123.5t-133 367.5q0 215 80 416q80 200 237 324q195 155 496 155q54 0 180 -6q172 -4 205 -4h672q47 0 47 -35q0 -46 -66 -282h-16q-21 169 -90 178
q-31 8 -123 8h-156q-35 0 -47.5 -17.5t-23.5 -72.5l-76 -367h117q139 0 196 13q39 10 62 37t61 100h14l-82 -418h-14q-10 60 -33 88t-67 39q-62 12 -158 12h-119l-69 -373q-15 -82 -15 -106q0 -25 17.5 -34t64.5 -9h182q98 0 175 41q79 51 149 182zM897 250l172 876
q6 30 6 60q0 71 -121 71q-170 0 -272 -172q-79 -134 -119 -335q-41 -208 -41 -388q0 -251 199 -251q91 0 131 30q31 31 45 109z" />
    <glyph glyph-name="oe" unicode="&#x153;" horiz-adv-x="1597" 
d="M750 45q-101 -72 -310 -72q-181 0 -289 107.5t-108 292.5q0 287 178 495q138 156 445 156q85 0 165 -26t115 -74q52 47 134.5 73.5t160.5 26.5q165 0 247.5 -48.5t82.5 -154.5q0 -41 -8.5 -74t-38.5 -83q-43 -80 -156.5 -132.5t-308.5 -58.5q-12 -59 -12 -166
q0 -73 31.5 -105t99.5 -32q64 0 141 27q79 27 123 65h8q0 -38 -5 -55.5t-28 -50.5q-54 -76 -171 -129.5t-253 -53.5q-171 0 -243 72zM715 856q0 39 -18.5 58.5t-45.5 19.5q-69 0 -104 -74q-55 -126 -103 -344q-47 -227 -47 -375q0 -36 22 -58t48 -22q82 0 117 109
q49 149 90 362q41 217 41 324zM1065 512q71 24 124 72.5t77 107.5q41 101 41 178q0 68 -52 68q-99 0 -190 -426z" />
    <glyph glyph-name="Racute" unicode="&#x154;" horiz-adv-x="1515" 
d="M682 14l-4 -14h-686l2 14q95 24 123 66q29 29 63 196l158 820q20 97 20 151q0 42 -25.5 65t-96.5 40l4 14h553q169 0 292 -8q151 -11 238.5 -93.5t87.5 -217.5q0 -149 -99 -248.5t-280 -134.5q85 -27 133 -125q52 -106 125 -349q20 -68 55 -101t111 -60l-4 -15
q-151 -22 -311 -22q-158 0 -217 39q-61 45 -95 196q-63 282 -71 303q-18 58 -88 58h-29l-61 -316q-23 -128 -23 -147q0 -28 16 -57q15 -26 109 -54zM752 1159l-82 -442h26q151 0 205 57q82 85 82 318q0 103 -72 141q-25 14 -86 14h-8q-34 0 -47 -21.5t-18 -66.5zM1065 1593
l-358 -116l-9 12l232 276q81 90 151 90q55 0 89 -32.5t34 -91.5q0 -46 -38.5 -82.5t-100.5 -55.5z" />
    <glyph glyph-name="racute" unicode="&#x155;" horiz-adv-x="956" 
d="M494 485l-99 -485h-364l116 565q39 178 39 289q0 37 -18 55q-25 28 -90 31v14q189 64 391 64q57 0 78.5 -17.5t21.5 -62.5q0 -56 -47 -258q37 121 129 233q95 111 215 111q99 0 99 -68q0 -74 -82 -278h-17q-30 119 -121 119q-108 0 -176 -103q-49 -77 -75 -209zM827 1266
l-340 -148l-12 10l195 299q34 53 66.5 77t78.5 24q61 0 96 -33t35 -90q0 -81 -119 -139z" />
    <glyph glyph-name="Rcommaaccent" unicode="&#x156;" horiz-adv-x="1515" 
d="M682 14l-4 -14h-686l2 14q95 24 123 66q29 29 63 196l158 820q20 97 20 151q0 42 -25.5 65t-96.5 40l4 14h553q169 0 292 -8q151 -11 238.5 -93.5t87.5 -217.5q0 -149 -99 -248.5t-280 -134.5q85 -27 133 -125q52 -106 125 -349q20 -68 55 -101t111 -60l-4 -15
q-151 -22 -311 -22q-158 0 -217 39q-61 45 -95 196q-63 282 -71 303q-18 58 -88 58h-29l-61 -316q-23 -128 -23 -147q0 -28 16 -57q15 -26 109 -54zM752 1159l-82 -442h26q151 0 205 57q82 85 82 318q0 103 -72 141q-25 14 -86 14h-8q-34 0 -47 -21.5t-18 -66.5zM471 -598
l-6 16q192 104 192 197q0 51 -45 90q-34 34 -34 86q0 59 39 93t100 34q73 0 117.5 -42t44.5 -116q0 -138 -121 -227q-119 -91 -287 -131z" />
    <glyph glyph-name="rcommaaccent" unicode="&#x157;" horiz-adv-x="956" 
d="M494 485l-99 -485h-364l116 565q39 178 39 289q0 37 -18 55q-25 28 -90 31v14q189 64 391 64q57 0 78.5 -17.5t21.5 -62.5q0 -56 -47 -258q37 121 129 233q95 111 215 111q99 0 99 -68q0 -74 -82 -278h-17q-30 119 -121 119q-108 0 -176 -103q-49 -77 -75 -209zM-92 -598
l-6 16q192 104 192 197q0 51 -45 90q-35 35 -35 86q0 59 39.5 93t100.5 34q73 0 117 -42t44 -116q0 -138 -120 -227q-119 -91 -287 -131z" />
    <glyph glyph-name="Rcaron" unicode="&#x158;" horiz-adv-x="1515" 
d="M682 14l-4 -14h-686l2 14q95 24 123 66q29 29 63 196l158 820q20 97 20 151q0 42 -25.5 65t-96.5 40l4 14h553q169 0 292 -8q151 -11 238.5 -93.5t87.5 -217.5q0 -149 -99 -248.5t-280 -134.5q85 -27 133 -125q52 -106 125 -349q20 -68 55 -101t111 -60l-4 -15
q-151 -22 -311 -22q-158 0 -217 39q-61 45 -95 196q-63 282 -71 303q-18 58 -88 58h-29l-61 -316q-23 -128 -23 -147q0 -28 16 -57q15 -26 109 -54zM752 1159l-82 -442h26q151 0 205 57q82 85 82 318q0 103 -72 141q-25 14 -86 14h-8q-34 0 -47 -21.5t-18 -66.5zM700 1487
l-159 256l10 10l289 -127l344 127l8 -12l-279 -264q-48 -45 -104 -45q-75 0 -109 55z" />
    <glyph glyph-name="rcaron" unicode="&#x159;" horiz-adv-x="956" 
d="M494 485l-99 -485h-364l116 565q39 178 39 289q0 37 -18 55q-25 28 -90 31v14q189 64 391 64q57 0 78.5 -17.5t21.5 -62.5q0 -56 -47 -258q37 121 129 233q95 111 215 111q99 0 99 -68q0 -74 -82 -278h-17q-30 119 -121 119q-108 0 -176 -103q-49 -77 -75 -209zM426 1186
l-141 291l12 10l268 -152l312 154l10 -12l-238 -301q-46 -64 -119 -64q-69 0 -104 74z" />
    <glyph glyph-name="Sacute" unicode="&#x15a;" horiz-adv-x="1056" 
d="M66 401h16q91 -307 369 -307q114 0 165.5 36t51.5 120q0 63 -41 104q-43 46 -156 123l-96 68q-124 85 -182 172.5t-58 214.5q0 101 31.5 180t86.5 131.5t134 87t168.5 49.5t194.5 15q138 0 245 -39q58 -21 58 -64q0 -70 -58 -256h-16q-50 244 -279 244q-115 0 -173 -40.5
t-58 -109.5q0 -81 149 -194l103 -76q89 -66 131 -100q31 -23 84 -86q45 -52 61.5 -108.5t16.5 -145.5q0 -211 -168 -330q-170 -117 -430 -117q-240 0 -353 76q-34 24 -34 88q0 55 37 264zM911 1571l-358 -117l-8 12l231 277q81 90 152 90q55 0 89 -33t34 -92
q0 -46 -38.5 -81.5t-101.5 -55.5z" />
    <glyph glyph-name="sacute" unicode="&#x15b;" horiz-adv-x="884" 
d="M57 340h17q21 -125 102 -203q82 -76 174 -76q65 0 96 31t31 78q0 40 -31.5 77.5t-121.5 98.5l-58 39q-89 60 -130.5 121.5t-41.5 152.5q0 176 127 270.5t361 94.5q113 0 198 -33q45 -17 45 -63q0 -27 -20 -103q-19 -81 -45 -137h-17q-47 246 -215 246q-137 0 -137 -103
q0 -72 107 -139l63 -45q77 -55 117 -90q43 -37 75.5 -95.5t32.5 -121.5q0 -170 -125 -268.5t-339 -98.5q-185 0 -267 58q-39 26 -39 69q0 94 41 240zM756 1266l-340 -148l-13 10l195 299q34 53 66.5 77t78.5 24q61 0 96 -33t35 -90q0 -81 -118 -139z" />
    <glyph glyph-name="Scircumflex" unicode="&#x15c;" horiz-adv-x="1056" 
d="M66 401h16q91 -307 369 -307q114 0 165.5 36t51.5 120q0 63 -41 104q-43 46 -156 123l-96 68q-124 85 -182 172.5t-58 214.5q0 101 31.5 180t86.5 131.5t134 87t168.5 49.5t194.5 15q138 0 245 -39q58 -21 58 -64q0 -70 -58 -256h-16q-50 244 -279 244q-115 0 -173 -40.5
t-58 -109.5q0 -81 149 -194l103 -76q89 -66 131 -100q31 -23 84 -86q45 -52 61.5 -108.5t16.5 -145.5q0 -211 -168 -330q-170 -117 -430 -117q-240 0 -353 76q-34 24 -34 88q0 55 37 264zM872 1724l162 -256l-10 -10l-289 127l-346 -127l-8 12l278 265q48 45 105 45
q64 0 108 -56z" />
    <glyph glyph-name="scircumflex" unicode="&#x15d;" horiz-adv-x="884" 
d="M57 340h17q21 -125 102 -203q82 -76 174 -76q65 0 96 31t31 78q0 40 -31.5 77.5t-121.5 98.5l-58 39q-89 60 -130.5 121.5t-41.5 152.5q0 176 127 270.5t361 94.5q113 0 198 -33q45 -17 45 -63q0 -27 -20 -103q-19 -81 -45 -137h-17q-47 246 -215 246q-137 0 -137 -103
q0 -72 107 -139l63 -45q77 -55 117 -90q43 -37 75.5 -95.5t32.5 -121.5q0 -170 -125 -268.5t-339 -98.5q-185 0 -267 58q-39 26 -39 69q0 94 41 240zM707 1413l139 -287l-12 -10l-267 152l-313 -152l-10 10l235 297q56 68 121 68q66 0 107 -78z" />
    <glyph glyph-name="Scedilla" unicode="&#x15e;" horiz-adv-x="1056" 
d="M197 -426v8l8 6q30 -24 98 -24q42 0 72.5 26t30.5 76q0 41 -24 66.5t-58 25.5q-25 0 -41 -4l-7 8l101 211q-216 9 -314 76q-34 24 -34 88q0 55 37 264h16q91 -307 369 -307q114 0 165.5 36t51.5 120q0 63 -41 104q-43 46 -156 123l-96 68q-124 85 -182 172.5t-58 214.5
q0 101 31.5 180t86.5 131.5t134 87t168.5 49.5t194.5 15q138 0 245 -39q58 -21 58 -64q0 -70 -58 -256h-16q-50 244 -279 244q-115 0 -173 -40.5t-58 -109.5q0 -81 149 -194l103 -76q89 -66 131 -100q31 -23 84 -86q45 -52 61.5 -108.5t16.5 -145.5q0 -205 -162 -324
q-159 -117 -410 -123l-41 -96q238 0 238 -176q0 -109 -86 -168q-85 -61 -205 -61q-105 0 -135 34q-16 22 -16 68z" />
    <glyph glyph-name="scedilla" unicode="&#x15f;" horiz-adv-x="884" 
d="M111 -420v8l8 9q27 -27 96 -27q41 0 69.5 26t28.5 76q0 41 -21.5 64.5t-55.5 23.5q-17 0 -37 -4l-9 11l97 206q-164 9 -232 58q-39 26 -39 69q0 94 41 240h17q21 -125 102 -203q82 -76 174 -76q65 0 96 31t31 78q0 40 -31.5 77.5t-121.5 98.5l-58 39q-89 60 -130.5 121.5
t-41.5 152.5q0 176 127 270.5t361 94.5q113 0 198 -33q45 -17 45 -63q0 -27 -20 -103q-19 -81 -45 -137h-17q-47 246 -215 246q-137 0 -137 -103q0 -72 107 -139l63 -45q77 -55 117 -90q43 -37 75.5 -95.5t32.5 -121.5q0 -165 -118 -263t-320 -104l-39 -94q115 0 173.5 -46
t58.5 -126q0 -106 -77.5 -165.5t-199.5 -59.5q-113 0 -137 35q-16 22 -16 63z" />
    <glyph glyph-name="Scaron" unicode="&#x160;" horiz-adv-x="1056" 
d="M66 401h16q91 -307 369 -307q114 0 165.5 36t51.5 120q0 63 -41 104q-43 46 -156 123l-96 68q-124 85 -182 172.5t-58 214.5q0 101 31.5 180t86.5 131.5t134 87t168.5 49.5t194.5 15q138 0 245 -39q58 -21 58 -64q0 -70 -58 -256h-16q-50 244 -279 244q-115 0 -173 -40.5
t-58 -109.5q0 -81 149 -194l103 -76q89 -66 131 -100q31 -23 84 -86q45 -52 61.5 -108.5t16.5 -145.5q0 -211 -168 -330q-170 -117 -430 -117q-240 0 -353 76q-34 24 -34 88q0 55 37 264zM614 1487l-159 256l10 10l289 -127l344 127l8 -12l-279 -264q-48 -45 -104 -45
q-75 0 -109 55z" />
    <glyph glyph-name="scaron" unicode="&#x161;" horiz-adv-x="884" 
d="M57 340h17q21 -125 102 -203q82 -76 174 -76q65 0 96 31t31 78q0 40 -31.5 77.5t-121.5 98.5l-58 39q-89 60 -130.5 121.5t-41.5 152.5q0 176 127 270.5t361 94.5q113 0 198 -33q45 -17 45 -63q0 -27 -20 -103q-19 -81 -45 -137h-17q-47 246 -215 246q-137 0 -137 -103
q0 -72 107 -139l63 -45q77 -55 117 -90q43 -37 75.5 -95.5t32.5 -121.5q0 -170 -125 -268.5t-339 -98.5q-185 0 -267 58q-39 26 -39 69q0 94 41 240zM406 1186l-142 291l12 10l269 -152l311 154l10 -12l-237 -301q-46 -64 -119 -64q-69 0 -104 74z" />
    <glyph glyph-name="uni0162" unicode="&#x162;" horiz-adv-x="1275" 
d="M309 -426v8l8 6q30 -24 99 -24q42 0 72 26t30 76q0 41 -24 66.5t-58 25.5q-25 0 -41 -4l-6 8l113 238h-307l4 14q86 28 114 66q28 28 66 211l164 817q8 41 8 82q0 45 -51 45h-21q-66 0 -133 -31q-105 -52 -201 -211h-16q27 240 49 328q9 45 58 45h1081q51 0 51 -35
q0 -59 -72 -338h-14q-27 177 -117 221q-41 21 -123 21h-26q-30 0 -43.5 -12t-20.5 -47l-174 -922q-22 -119 -22 -150q0 -56 123 -90l-2 -14h-312l-51 -123q238 0 238 -176q0 -109 -86 -168q-85 -61 -205 -61q-105 0 -135 34q-17 24 -17 68z" />
    <glyph glyph-name="uni0163" unicode="&#x163;" horiz-adv-x="741" 
d="M70 -420v8l8 9q27 -27 96 -27q41 0 69.5 26t28.5 76q0 41 -21.5 64.5t-55.5 23.5q-17 0 -37 -4l-8 11l100 219q-172 27 -172 204q0 47 31 205l96 467h-115l16 72q110 35 140 53q63 32 112 103q48 75 93 151h186l-43 -244h174l-25 -135h-170l-108 -530q-23 -115 -23 -166
q0 -74 80 -74q60 0 117 31l6 -6q0 -33 -22 -58q-20 -20 -48 -36q-88 -46 -221 -46q-30 0 -45 3l-41 -101q115 0 173.5 -46t58.5 -126q0 -106 -77.5 -165.5t-199.5 -59.5q-113 0 -137 35q-16 22 -16 63z" />
    <glyph glyph-name="Tcaron" unicode="&#x164;" horiz-adv-x="1275" 
d="M866 14l-2 -14h-682l4 14q87 29 115 66q28 28 66 211l163 817q9 46 9 82q0 45 -52 45h-20q-66 0 -133 -31q-105 -52 -201 -211h-16q27 240 49 328q9 45 57 45h1082q51 0 51 -35q0 -59 -72 -338h-14q-27 177 -117 221q-41 21 -123 21h-26q-30 0 -43.5 -12t-20.5 -47
l-174 -922q-23 -125 -23 -150q0 -56 123 -90zM662 1487l-160 256l10 10l289 -127l344 127l8 -12l-279 -264q-48 -45 -104 -45q-74 0 -108 55z" />
    <glyph glyph-name="tcaron" unicode="&#x165;" horiz-adv-x="741" 
d="M639 123l6 -6q0 -33 -22 -58q-20 -20 -48 -36q-88 -46 -221 -46q-103 0 -180 33q-96 44 -96 180q0 47 31 205l96 467h-115l16 72q110 35 140 53q63 32 112 103q48 75 93 151h186l-43 -244h174l-25 -135h-170l-108 -530q-23 -115 -23 -166q0 -74 80 -74q60 0 117 31z
M690 1061l-6 16q193 108 193 199q0 50 -46 90q-34 34 -34 86q0 59 38 93t101 34q71 0 116.5 -43t45.5 -115q0 -139 -121 -231q-121 -89 -287 -129z" />
    <glyph glyph-name="Tbar" unicode="&#x166;" horiz-adv-x="1275" 
d="M879 14l-2 -14h-682l4 14q86 28 114 66q28 28 66 211l74 368h-228l37 160h221l60 289q8 41 8 82q0 45 -51 45h-21q-66 0 -133 -31q-105 -52 -201 -211h-16q27 240 49 328q9 45 58 45h1081q51 0 51 -35q0 -59 -72 -338h-14q-27 177 -117 221q-41 21 -123 21h-26
q-30 0 -43.5 -12t-20.5 -47l-67 -357h243l-36 -160h-238l-76 -405q-22 -119 -22 -150q0 -56 123 -90z" />
    <glyph glyph-name="tbar" unicode="&#x167;" horiz-adv-x="741" 
d="M639 123l6 -6q0 -33 -22 -58q-20 -20 -48 -36q-88 -46 -221 -46q-103 0 -180 33q-96 44 -96 180q0 47 31 205l32 164h-104l29 131h102l37 172h-115l16 72q110 35 140 53q63 32 112 103q48 75 93 151h186l-43 -244h174l-25 -135h-170l-36 -172h161l-28 -131h-160l-45 -227
q-23 -115 -23 -166q0 -74 80 -74q60 0 117 31z" />
    <glyph glyph-name="Utilde" unicode="&#x168;" horiz-adv-x="1511" 
d="M215 1352l2 14h688l-2 -14q-72 -20 -110 -43q-37 -27 -62 -150l-127 -657q-26 -127 -26 -213q0 -97 51.5 -137.5t165.5 -40.5q125 0 213 79q86 77 120 244l134 680q14 80 14 119q0 51 -24.5 75t-96.5 44l4 14h426l-4 -14q-5 0 -23.5 -4.5t-23.5 -4.5q-55 -18 -78 -47
q-25 -32 -39 -110l-131 -697q-46 -236 -123 -325q-87 -103 -207 -147t-305 -44q-469 0 -469 346q0 74 29 242l106 553q17 97 17 146q0 40 -23.5 57t-95.5 35zM1309 1751l16 -6q-79 -266 -225 -266q-63 0 -148 39q-101 43 -147 43q-80 0 -139 -93l-19 7q114 272 250 272
q49 0 154 -51q65 -33 112 -33t79 19t67 69z" />
    <glyph glyph-name="utilde" unicode="&#x169;" horiz-adv-x="1228" 
d="M1139 100l4 -10q-73 -47 -175 -78.5t-196 -31.5q-131 0 -131 139q0 55 29 203q-71 -130 -189 -242q-113 -107 -248 -107q-80 0 -122.5 36t-42.5 124q0 47 14 135l12 74l23 107l26 116q56 266 56 301q0 44 -49 62q-12 4 -64 14v12q71 29 190 43q130 19 213 19
q55 0 78 -16.5t23 -53.5q0 -30 -41 -211q-98 -410 -98 -479q0 -37 34 -37q41 0 97 62q79 88 120 299l86 417h367l-115 -557q-41 -214 -41 -254q0 -90 84 -90q36 0 56 4zM1010 1450l16 -8q-89 -271 -221 -271q-39 0 -135 41q-84 37 -123 37q-75 0 -137 -92l-17 8
q34 92 78 174q61 107 145 107q48 0 127 -43q73 -43 125 -43q44 0 71.5 17.5t70.5 72.5z" />
    <glyph glyph-name="Umacron" unicode="&#x16a;" horiz-adv-x="1511" 
d="M215 1352l2 14h688l-2 -14q-72 -20 -110 -43q-37 -27 -62 -150l-127 -657q-26 -127 -26 -213q0 -97 51.5 -137.5t165.5 -40.5q125 0 213 79q86 77 120 244l134 680q14 80 14 119q0 51 -24.5 75t-96.5 44l4 14h426l-4 -14q-5 0 -23.5 -4.5t-23.5 -4.5q-55 -18 -78 -47
q-25 -32 -39 -110l-131 -697q-46 -236 -123 -325q-87 -103 -207 -147t-305 -44q-469 0 -469 346q0 74 29 242l106 553q17 97 17 146q0 40 -23.5 57t-95.5 35zM1282 1653l-31 -176h-604l33 176h602z" />
    <glyph glyph-name="umacron" unicode="&#x16b;" horiz-adv-x="1228" 
d="M1139 100l4 -10q-73 -47 -175 -78.5t-196 -31.5q-131 0 -131 139q0 55 29 203q-71 -130 -189 -242q-113 -107 -248 -107q-80 0 -122.5 36t-42.5 124q0 47 14 135l12 74l23 107l26 116q56 266 56 301q0 44 -49 62q-12 4 -64 14v12q71 29 190 43q130 19 213 19
q55 0 78 -16.5t23 -53.5q0 -30 -41 -211q-98 -410 -98 -479q0 -37 34 -37q41 0 97 62q79 88 120 299l86 417h367l-115 -557q-41 -214 -41 -254q0 -90 84 -90q36 0 56 4zM989 1403l-41 -180h-549l39 180h551z" />
    <glyph glyph-name="Ubreve" unicode="&#x16c;" horiz-adv-x="1511" 
d="M215 1352l2 14h688l-2 -14q-72 -20 -110 -43q-37 -27 -62 -150l-127 -657q-26 -127 -26 -213q0 -97 51.5 -137.5t165.5 -40.5q125 0 213 79q86 77 120 244l134 680q14 80 14 119q0 51 -24.5 75t-96.5 44l4 14h426l-4 -14q-5 0 -23.5 -4.5t-23.5 -4.5q-55 -18 -78 -47
q-25 -32 -39 -110l-131 -697q-46 -236 -123 -325q-87 -103 -207 -147t-305 -44q-469 0 -469 346q0 74 29 242l106 553q17 97 17 146q0 40 -23.5 57t-95.5 35zM1268 1780l16 -2q-18 -132 -94 -230q-75 -96 -232 -96q-235 0 -235 274q0 44 2 54h16q13 -75 71.5 -107.5
t174.5 -32.5q112 0 177.5 32.5t103.5 107.5z" />
    <glyph glyph-name="ubreve" unicode="&#x16d;" horiz-adv-x="1228" 
d="M1139 100l4 -10q-73 -47 -175 -78.5t-196 -31.5q-131 0 -131 139q0 55 29 203q-71 -130 -189 -242q-113 -107 -248 -107q-80 0 -122.5 36t-42.5 124q0 47 14 135l12 74l23 107l26 116q56 266 56 301q0 44 -49 62q-12 4 -64 14v12q71 29 190 43q130 19 213 19
q55 0 78 -16.5t23 -53.5q0 -30 -41 -211q-98 -410 -98 -479q0 -37 34 -37q41 0 97 62q79 88 120 299l86 417h367l-115 -557q-41 -214 -41 -254q0 -90 84 -90q36 0 56 4zM1006 1516l18 -7q-59 -344 -328 -344q-243 0 -243 281q0 21 4 67l18 3q25 -88 76.5 -122t165.5 -34
q109 0 173 36.5t116 119.5z" />
    <glyph glyph-name="Uring" unicode="&#x16e;" horiz-adv-x="1511" 
d="M215 1352l2 14h688l-2 -14q-72 -20 -110 -43q-37 -27 -62 -150l-127 -657q-26 -127 -26 -213q0 -97 51.5 -137.5t165.5 -40.5q125 0 213 79q86 77 120 244l134 680q14 80 14 119q0 51 -24.5 75t-96.5 44l4 14h426l-4 -14q-5 0 -23.5 -4.5t-23.5 -4.5q-55 -18 -78 -47
q-25 -32 -39 -110l-131 -697q-46 -236 -123 -325q-87 -103 -207 -147t-305 -44q-469 0 -469 346q0 74 29 242l106 553q17 97 17 146q0 40 -23.5 57t-95.5 35zM1194 1632q0 -75 -52 -128.5t-132 -53.5q-67 0 -111.5 45t-44.5 113q0 79 53.5 129.5t132.5 50.5q71 0 112.5 -43
t41.5 -113zM1124 1628q0 43 -25.5 70.5t-66.5 27.5q-50 0 -79 -32.5t-29 -87.5q0 -39 28 -66t70 -27q44 0 73 32.5t29 82.5z" />
    <glyph glyph-name="uring" unicode="&#x16f;" horiz-adv-x="1228" 
d="M1139 100l4 -10q-73 -47 -175 -78.5t-196 -31.5q-131 0 -131 139q0 55 29 203q-71 -130 -189 -242q-113 -107 -248 -107q-80 0 -122.5 36t-42.5 124q0 47 14 135l12 74l23 107l26 116q56 266 56 301q0 44 -49 62q-12 4 -64 14v12q71 29 190 43q130 19 213 19
q55 0 78 -16.5t23 -53.5q0 -30 -41 -211q-98 -410 -98 -479q0 -37 34 -37q41 0 97 62q79 88 120 299l86 417h367l-115 -557q-41 -214 -41 -254q0 -90 84 -90q36 0 56 4zM864 1337q0 -82 -55 -137t-141 -55q-78 0 -126 47t-48 121q0 82 57 135t143 53q79 0 124.5 -44.5
t45.5 -119.5zM686 1440q-54 0 -85.5 -34t-31.5 -91q0 -48 28.5 -77.5t78.5 -29.5q49 0 83 34.5t34 84.5q0 49 -31 81t-76 32z" />
    <glyph glyph-name="Uhungarumlaut" unicode="&#x170;" horiz-adv-x="1511" 
d="M215 1352l2 14h688l-2 -14q-72 -20 -110 -43q-37 -27 -62 -150l-127 -657q-26 -127 -26 -213q0 -97 51.5 -137.5t165.5 -40.5q125 0 213 79q86 77 120 244l134 680q14 80 14 119q0 51 -24.5 75t-96.5 44l4 14h426l-4 -14q-5 0 -23.5 -4.5t-23.5 -4.5q-55 -18 -78 -47
q-25 -32 -39 -110l-131 -697q-46 -236 -123 -325q-87 -103 -207 -147t-305 -44q-469 0 -469 346q0 74 29 242l106 553q17 97 17 146q0 40 -23.5 57t-95.5 35zM1034 1597l-356 -143l-8 12l229 275q84 96 154 96q49 0 81.5 -27t32.5 -75q0 -85 -133 -138zM1444 1597l-357 -143
l-8 12l230 275q84 96 153 96q49 0 83 -28t34 -74q0 -83 -135 -138z" />
    <glyph glyph-name="uhungarumlaut" unicode="&#x171;" horiz-adv-x="1228" 
d="M1139 100l4 -10q-73 -47 -175 -78.5t-196 -31.5q-131 0 -131 139q0 55 29 203q-71 -130 -189 -242q-113 -107 -248 -107q-80 0 -122.5 36t-42.5 124q0 47 14 135l12 74l23 107l26 116q56 266 56 301q0 44 -49 62q-12 4 -64 14v12q71 29 190 43q130 19 213 19
q55 0 78 -16.5t23 -53.5q0 -30 -41 -211q-98 -410 -98 -479q0 -37 34 -37q41 0 97 62q79 88 120 299l86 417h367l-115 -557q-41 -214 -41 -254q0 -90 84 -90q36 0 56 4zM694 1288l-317 -172l-10 12l198 306q36 56 64.5 77t72.5 21q51 0 82 -26t31 -76q0 -77 -121 -142z
M1069 1288l-317 -172l-11 12l199 306q36 56 64.5 77t72.5 21q51 0 82 -26t31 -76q0 -77 -121 -142z" />
    <glyph glyph-name="Uogonek" unicode="&#x172;" horiz-adv-x="1511" 
d="M827 -375l7 -8l-3 -10q-7 -29 -20 -47q-35 -54 -158 -54q-109 0 -167 50.5t-58 134.5q0 98 63.5 164t192.5 118h-33q-469 0 -469 346q0 74 29 242l106 553q17 97 17 146q0 40 -23.5 57t-95.5 35l2 14h688l-2 -14q-72 -20 -110 -43q-37 -27 -62 -150l-127 -657
q-26 -127 -26 -213q0 -97 51.5 -137.5t165.5 -40.5q125 0 213 79q86 77 120 244l134 680q14 80 14 119q0 51 -24.5 75t-96.5 44l4 14h426l-4 -14q-5 0 -23.5 -4.5t-23.5 -4.5q-55 -18 -78 -47q-25 -32 -39 -110l-131 -697q-46 -236 -123 -325q-138 -163 -391 -184
q-67 -73 -97 -130t-30 -126q0 -113 100 -113q57 0 82 14z" />
    <glyph glyph-name="uogonek" unicode="&#x173;" horiz-adv-x="1228" 
d="M834 -362l6 -9l-2 -10q-5 -22 -23 -51q-35 -53 -151 -53q-106 0 -163 48t-57 130q0 104 70 172t209 121q-82 21 -82 133q0 55 29 203q-71 -130 -189 -242q-113 -107 -248 -107q-80 0 -122.5 36t-42.5 124q0 47 14 135l12 74l23 107l26 116q56 266 56 301q0 44 -49 62
q-12 4 -64 14v12q71 29 190 43q130 19 213 19q55 0 78 -16.5t23 -53.5q0 -30 -41 -211q-98 -410 -98 -479q0 -37 34 -37q41 0 97 62q79 88 120 299l86 417h367l-115 -557q-41 -214 -41 -254q0 -90 84 -90q36 0 56 4l4 -10q-72 -45 -171.5 -77t-191.5 -33
q-125 -131 -125 -248q0 -50 26.5 -79.5t70.5 -29.5q55 0 82 15z" />
    <glyph glyph-name="Wcircumflex" unicode="&#x174;" horiz-adv-x="1955" 
d="M651 0h-278q-3 103 -21 317l-67 885q-6 82 -37 113q-22 22 -62 37l4 14h609l-2 -14q-3 -2 -22.5 -9t-37.5 -15.5t-24 -14.5q-17 -24 -17 -74q0 -60 2 -115l13 -274q3 -74 8.5 -226t7.5 -198q52 146 369 905h260q109 -776 121 -923q88 249 280 739q29 82 29 119t-45 63
q-15 10 -53 23l4 14h370l-4 -14q-33 -10 -49 -23q-36 -22 -76 -123l-401 -927l-119 -279h-272q-25 224 -52 462.5t-38 336.5t-13 119q-28 -77 -387 -918zM1382 1724l162 -256l-10 -10l-289 127l-346 -127l-8 12l278 265q48 45 105 45q64 0 108 -56z" />
    <glyph glyph-name="wcircumflex" unicode="&#x175;" horiz-adv-x="1529" 
d="M408 0h-236l-37 750q-3 118 -37 145q-15 12 -78 29v14q49 25 197 53q155 29 221 29q59 0 62 -49q1 -23 2 -50.5t1.5 -42t0.5 -20.5q0 -233 -8 -553l258 606h268q43 -356 68 -641l47 92l73 152q109 239 109 350q0 49 -43 64q-28 11 -70 16v10q46 24 135 45t119 21
q64 0 64 -39q0 -75 -82 -238q-88 -174 -445 -743h-235l-55 580q-85 -172 -299 -580zM1049 1413l139 -287l-12 -10l-267 152l-313 -152l-10 10l235 297q56 68 121 68q66 0 107 -78z" />
    <glyph glyph-name="Ycircumflex" unicode="&#x176;" horiz-adv-x="1316" 
d="M924 14l-4 -14h-703l4 14q99 26 127 68q21 27 55 213l62 334l-236 602q-31 78 -65 102q-14 10 -43 19l4 14h623l-3 -14q-35 -6 -69 -21q-23 -13 -23 -35q0 -13 23 -77q149 -406 158 -449l47 68q199 276 274 385q29 47 29 69q0 15 -17 29q-23 20 -73 31l2 14h383l-2 -14
q-19 -3 -43 -13q-44 -23 -115 -114l-428 -533l-76 -409q-20 -97 -20 -160q0 -35 27 -59.5t102 -49.5zM1028 1724l162 -256l-10 -10l-289 127l-346 -127l-8 12l278 265q48 45 105 45q64 0 108 -56z" />
    <glyph glyph-name="ycircumflex" unicode="&#x177;" horiz-adv-x="1048" 
d="M-199 -213h23q34 -117 102 -117q58 0 109 45q174 145 299 303h-178l-37 752q-6 103 -31 125q-30 23 -82 29v14q56 29 201 55q155 31 225 31q40 0 49 -45q6 -35 6 -137q2 -211 2 -637q119 177 203 332q113 201 113 317q0 43 -43 64q-44 18 -68 20v14q57 28 148 47
q103 25 137 25q37 0 50 -9.5t13 -35.5q0 -38 -26 -94q-24 -59 -51 -105q-33 -60 -82 -139q-121 -201 -449 -649q-227 -310 -381 -434q-84 -66 -180 -66q-111 0 -111 80q0 94 39 215zM795 1413l139 -287l-12 -10l-267 152l-313 -152l-10 10l235 297q56 68 121 68
q66 0 107 -78z" />
    <glyph glyph-name="Ydieresis" unicode="&#x178;" horiz-adv-x="1316" 
d="M924 14l-4 -14h-703l4 14q99 26 127 68q21 27 55 213l62 334l-236 602q-31 78 -65 102q-14 10 -43 19l4 14h623l-3 -14q-35 -6 -69 -21q-23 -13 -23 -35q0 -13 23 -77q149 -406 158 -449l47 68q199 276 274 385q29 47 29 69q0 15 -17 29q-23 20 -73 31l2 14h383l-2 -14
q-19 -3 -43 -13q-44 -23 -115 -114l-428 -533l-76 -409q-20 -97 -20 -160q0 -35 27 -59.5t102 -49.5zM838 1647q0 -77 -46 -130t-122 -53q-58 0 -98 39.5t-40 100.5q0 75 50.5 127.5t122.5 52.5q62 0 97.5 -38t35.5 -99zM1262 1647q0 -77 -47 -130t-123 -53q-58 0 -97 39.5
t-39 100.5q0 75 49 127.5t121 52.5q62 0 99 -39t37 -98z" />
    <glyph glyph-name="Zacute" unicode="&#x179;" horiz-adv-x="1282" 
d="M1090 0h-1221l2 14l967 1223q-187 0 -375 -8q-121 -6 -168 -62q-29 -34 -86 -127h-14q8 121 34 271q5 28 17 41.5t45 13.5h1136l-2 -14l-983 -1223q203 0 449 6q129 3 178 55q63 68 119 160h16q-4 -50 -20 -149q-16 -102 -31 -156q-15 -45 -63 -45zM954 1571l-358 -117
l-8 12l231 277q81 90 152 90q55 0 89 -33t34 -92q0 -46 -38.5 -81.5t-101.5 -55.5z" />
    <glyph glyph-name="zacute" unicode="&#x17a;" horiz-adv-x="944" 
d="M23 51l-62 -65l-65 51q259 278 692 663q-262 0 -318 -6q-96 -3 -123 -49q-25 -36 -28 -55l-19 2q8 185 35 328q8 44 24.5 60.5t57.5 16.5h760l4 -22q-297 -293 -715 -662q377 -20 414 -20q67 0 110 24.5t72 88.5l19 -3q-2 -45 -25 -190q-21 -131 -39 -172
q-27 -61 -135 -61q-50 0 -301 34q-252 37 -358 37zM776 1266l-340 -148l-12 10l194 299q33 53 66.5 77t79.5 24q61 0 96 -33t35 -90q0 -81 -119 -139z" />
    <glyph glyph-name="Zdotaccent" unicode="&#x17b;" horiz-adv-x="1282" 
d="M1090 0h-1221l2 14l967 1223q-187 0 -375 -8q-121 -6 -168 -62q-29 -34 -86 -127h-14q8 121 34 271q5 28 17 41.5t45 13.5h1136l-2 -14l-983 -1223q203 0 449 6q129 3 178 55q63 68 119 160h16q-4 -50 -20 -149q-16 -102 -31 -156q-15 -45 -63 -45zM991 1626
q0 -77 -47 -129.5t-123 -52.5q-58 0 -96.5 39t-38.5 100q0 75 50.5 127.5t119.5 52.5q61 0 98 -39t37 -98z" />
    <glyph glyph-name="zdotaccent" unicode="&#x17c;" horiz-adv-x="944" 
d="M23 51l-62 -65l-65 51q259 278 692 663q-262 0 -318 -6q-96 -3 -123 -49q-25 -36 -28 -55l-19 2q8 185 35 328q8 44 24.5 60.5t57.5 16.5h760l4 -22q-297 -293 -715 -662q377 -20 414 -20q67 0 110 24.5t72 88.5l19 -3q-2 -45 -25 -190q-21 -131 -39 -172
q-27 -61 -135 -61q-50 0 -301 34q-252 37 -358 37zM723 1309q0 -76 -48 -128.5t-124 -52.5q-61 0 -100 39t-39 101q0 75 51 127.5t123 52.5q61 0 99 -40t38 -99z" />
    <glyph glyph-name="Zcaron" unicode="&#x17d;" horiz-adv-x="1282" 
d="M1090 0h-1221l2 14l967 1223q-187 0 -375 -8q-121 -6 -168 -62q-29 -34 -86 -127h-14q8 121 34 271q5 28 17 41.5t45 13.5h1136l-2 -14l-983 -1223q203 0 449 6q129 3 178 55q63 68 119 160h16q-4 -50 -20 -149q-16 -102 -31 -156q-15 -45 -63 -45zM690 1487l-160 256
l11 10l288 -127l345 127l8 -12l-279 -264q-48 -45 -104 -45q-75 0 -109 55z" />
    <glyph glyph-name="zcaron" unicode="&#x17e;" horiz-adv-x="944" 
d="M23 51l-62 -65l-65 51q259 278 692 663q-262 0 -318 -6q-96 -3 -123 -49q-25 -36 -28 -55l-19 2q8 185 35 328q8 44 24.5 60.5t57.5 16.5h760l4 -22q-297 -293 -715 -662q377 -20 414 -20q67 0 110 24.5t72 88.5l19 -3q-2 -45 -25 -190q-21 -131 -39 -172
q-27 -61 -135 -61q-50 0 -301 34q-252 37 -358 37zM424 1186l-141 291l12 10l268 -152l311 154l11 -12l-238 -301q-46 -64 -119 -64q-69 0 -104 74z" />
    <glyph glyph-name="longs" unicode="&#x17f;" horiz-adv-x="686" 
d="M-309 -168h14q71 -207 168 -207q52 0 82 53q42 73 80 293l151 889q28 167 60 256q54 154 157 227q139 103 392 103q93 0 157 -23q54 -22 54 -59q0 -78 -58 -236h-16q-38 128 -75 179t-97 51q-68 0 -98 -64q-26 -65 -58 -239l-135 -770q-25 -166 -107 -359
q-75 -179 -221 -282q-143 -101 -293 -101q-107 0 -155 25q-37 21 -37 67q0 87 35 197z" />
    <glyph glyph-name="uni018F" unicode="&#x18f;" horiz-adv-x="1406" 
d="M893 530h-383q-33 -138 -33 -284q0 -49 12 -82t33.5 -47t41 -18.5t44.5 -4.5q197 0 285 436zM219 659h709q20 97 20 199q0 197 -129 252q-57 25 -103 33t-116 8q-101 0 -209 -41t-184 -102l-10 4l2 18q4 29 26 78q65 126 217.5 207.5t374.5 81.5q156 0 270 -43t179 -120
t95 -172t30 -212q0 -391 -215 -635q-211 -242 -590 -242q-246 0 -381 115.5t-135 310.5q0 140 47 226q15 34 102 34z" />
    <glyph glyph-name="florin" unicode="&#x192;" horiz-adv-x="1191" 
d="M1028 840l-22 -156h-211l-109 -506q-34 -152 -104 -261t-156 -161q-126 -75 -328 -75q-115 0 -186 36q-37 18 -37 62q0 74 53 213h15q19 -93 55.5 -143t85.5 -50q59 0 90 31q41 41 109 365l96 467l4 22h-176l22 156h191q77 291 201 397q160 133 415 133q148 0 224 -43
q32 -17 32 -67q0 -29 -26 -111q-27 -83 -54 -135h-14q-46 241 -151 241q-69 0 -105 -45q-45 -58 -72 -182l-41 -188h199z" />
    <glyph glyph-name="Aringacute" unicode="&#x1fa;" horiz-adv-x="1460" 
d="M1087 1499q0 -81 -55 -133h10l43 -326l115 -821q15 -128 57 -164q24 -20 84 -41l-2 -14h-673l2 14q66 15 94 35q39 26 39 72q0 34 -10 112l-23 209h-387l-152 -272q-31 -63 -32.5 -88.5t18.5 -34.5q37 -20 96 -33l-4 -14h-405l4 14q15 2 55 15q40 14 82 77l543 932
l188 328h14q-38 41 -38 109q0 77 54 127.5t134 50.5q67 0 108 -43t41 -111zM446 565h308q-33 324 -43 484q-50 -97 -265 -484zM1155 1784l-287 -107l-14 17l188 241q66 84 132 84q45 0 73.5 -29t28.5 -81q0 -78 -121 -125zM1018 1495q0 41 -26 69.5t-64 28.5
q-48 0 -78.5 -32.5t-30.5 -87.5q0 -39 27 -67t69 -28q44 0 73.5 33t29.5 84z" />
    <glyph glyph-name="aringacute" unicode="&#x1fb;" horiz-adv-x="1251" 
d="M1145 100l2 -10q-75 -46 -182.5 -78t-202.5 -32q-131 0 -131 120q0 79 31 234q-94 -187 -199 -274t-238 -87q-70 0 -127 33q-69 43 -69 207q0 175 88 379q88 205 213 309q78 64 171 93.5t240 29.5q93 0 254 -23q151 -22 189 -47q-36 -42 -82 -225q-34 -133 -78 -367
q-20 -111 -20 -198q0 -66 65 -66q60 0 76 2zM764 881q0 27 -19 37q-9 6 -30 6q-55 0 -99 -56q-62 -76 -129 -288q-65 -213 -65 -320q0 -65 37 -65q39 0 87.5 51.5t82.5 122.5q25 51 65 182q44 143 60 240q10 72 10 90zM958 1327q0 -75 -51 -128.5t-129 -53.5q-67 0 -111 45
t-44 113q0 77 52.5 127.5t131.5 50.5q71 0 111 -42t40 -112zM889 1323q0 43 -24.5 69.5t-65.5 26.5q-48 0 -77.5 -31.5t-29.5 -84.5q0 -39 27 -67t69 -28q44 0 72.5 32.5t28.5 82.5zM1061 1683l-340 -147l-12 10l194 297q37 56 68.5 79.5t77.5 23.5q60 0 95.5 -33t35.5 -90
q0 -85 -119 -140z" />
    <glyph glyph-name="AEacute" unicode="&#x1fc;" horiz-adv-x="2091" 
d="M393 14l-2 -14h-467l2 14q66 21 115 60q85 63 141 131l801 942q64 76 64 123q0 28 -32 45.5t-104 36.5l4 14h1153q48 0 48 -33q0 -51 -66 -284h-16q-24 147 -80 174q-24 12 -123 12h-162q-40 -4 -53 -22.5t-21 -67.5l-73 -367h110q143 0 197 13q42 11 68.5 38.5
t56.5 94.5h18l-86 -424h-16q-8 64 -30 95.5t-71 41.5q-77 12 -161 12h-107l-74 -368q-16 -88 -16 -109q0 -45 88 -45h162q142 0 199 45q69 44 141 168h14q0 -2 -12 -70q-30 -164 -51 -229q-7 -26 -23.5 -33.5t-60.5 -7.5h-1041l2 14q75 23 119 52q39 26 60 122l51 254h-520
l-166 -213q-86 -109 -86 -141q0 -23 24 -41q6 -4 82 -33zM647 565h434l136 701q-119 -160 -570 -701zM1767 1571l-358 -117l-8 12l231 277q81 90 152 90q55 0 89 -33t34 -92q0 -46 -38.5 -81.5t-101.5 -55.5z" />
    <glyph glyph-name="aeacute" unicode="&#x1fd;" horiz-adv-x="1488" 
d="M569 137q-114 -164 -313 -164q-120 0 -188 76t-68 187q0 107 66.5 176t189.5 94q155 29 326 29l12 77q6 34 6 90q0 107 -168 107q-160 0 -270 -70l-8 4q0 1 1 7.5t2.5 16t2.5 15.5q16 70 104 146q51 44 148 70t221 26q159 0 248 -59q103 59 235 59q186 0 266 -48t80 -167
q0 -38 -9 -70t-38 -77q-42 -75 -156 -125t-307 -58q-18 -91 -18 -180q0 -75 34 -102t115 -27q61 0 133 28t115 66l8 -4q0 -20 -6 -47q-8 -35 -30 -63q-50 -61 -179 -121q-127 -56 -274 -56q-121 0 -186.5 37t-94.5 127zM551 209q-4 50 -4 63q0 70 22 199q-104 -6 -149 -45
t-45 -127q0 -123 94 -123q43 0 82 33zM961 528q116 21 174 131q61 113 61 197q0 43 -12 61.5t-39 18.5q-105 0 -184 -408zM1085 1266l-340 -148l-12 10l195 299q34 53 66.5 77t78.5 24q61 0 96 -33t35 -90q0 -81 -119 -139z" />
    <glyph glyph-name="Oslashacute" unicode="&#x1fe;" horiz-adv-x="1470" 
d="M295 55l-88 -112l-80 59l90 115q-137 140 -137 381q0 195 76 399q76 203 231 334q93 81 236 121q142 43 284 43q173 0 283 -45l123 155l80 -59l-113 -141q172 -117 172 -377q0 -204 -82 -428q-84 -228 -237 -361q-91 -79 -226.5 -122.5t-271.5 -43.5q-206 0 -340 82z
M823 205q80 142 131 362q56 246 64 404l-512 -647q6 -125 40.5 -177.5t102.5 -52.5q113 0 174 111zM709 1157q-62 -90 -119 -283q-61 -203 -78 -385l504 639q-10 83 -40 115.5t-89 32.5q-96 0 -178 -119zM1104 1571l-359 -117l-8 12l232 277q81 90 151 90q55 0 89 -33
t34 -92q0 -46 -38 -81.5t-101 -55.5z" />
    <glyph glyph-name="oslashacute" unicode="&#x1ff;" horiz-adv-x="1157" 
d="M240 14l-78 -106l-64 45l74 104q-129 105 -129 310q0 300 182 503q139 154 422 154q107 0 195 -33l92 129l72 -47l-88 -123q137 -94 137 -284q0 -142 -47 -291q-45 -142 -138 -246q-144 -156 -428 -156q-115 0 -202 41zM877 1266l-340 -148l-13 10l195 299q34 53 66.5 77
t78.5 24q61 0 96 -33t35 -90q0 -81 -118 -139zM582 188q49 180 92 426l-283 -391q-4 -36 -4 -76q0 -86 76 -86q84 0 119 127zM702 858q0 76 -67 76q-73 0 -113 -107q-58 -162 -108 -432l284 398q1 13 2 28.5t1.5 24t0.5 12.5z" />
    <glyph glyph-name="uni0218" unicode="&#x218;" horiz-adv-x="1056" 
d="M66 401h16q91 -307 369 -307q114 0 165.5 36t51.5 120q0 63 -41 104q-43 46 -156 123l-96 68q-124 85 -182 172.5t-58 214.5q0 101 31.5 180t86.5 131.5t134 87t168.5 49.5t194.5 15q138 0 245 -39q58 -21 58 -64q0 -70 -58 -256h-16q-50 244 -279 244q-115 0 -173 -40.5
t-58 -109.5q0 -81 149 -194l103 -76q89 -66 131 -100q31 -23 84 -86q45 -52 61.5 -108.5t16.5 -145.5q0 -211 -168 -330q-170 -117 -430 -117q-240 0 -353 76q-34 24 -34 88q0 55 37 264zM164 -598l-6 16q192 104 192 197q0 51 -45 90q-35 35 -35 86q0 59 39.5 93t100.5 34
q73 0 117 -42t44 -116q0 -138 -120 -227q-119 -91 -287 -131z" />
    <glyph glyph-name="uni0219" unicode="&#x219;" horiz-adv-x="884" 
d="M57 340h17q21 -125 102 -203q82 -76 174 -76q65 0 96 31t31 78q0 40 -31.5 77.5t-121.5 98.5l-58 39q-89 60 -130.5 121.5t-41.5 152.5q0 176 127 270.5t361 94.5q113 0 198 -33q45 -17 45 -63q0 -27 -20 -103q-19 -81 -45 -137h-17q-47 246 -215 246q-137 0 -137 -103
q0 -72 107 -139l63 -45q77 -55 117 -90q43 -37 75.5 -95.5t32.5 -121.5q0 -170 -125 -268.5t-339 -98.5q-185 0 -267 58q-39 26 -39 69q0 94 41 240zM82 -598l-6 16q192 104 192 197q0 51 -45 90q-35 35 -35 86q0 59 39.5 93t100.5 34q73 0 117 -42t44 -116
q0 -138 -120 -227q-119 -91 -287 -131z" />
    <glyph glyph-name="uni021A" unicode="&#x21a;" horiz-adv-x="1275" 
d="M866 14l-2 -14h-682l4 14q87 29 115 66q28 28 66 211l163 817q9 46 9 82q0 45 -52 45h-20q-66 0 -133 -31q-105 -52 -201 -211h-16q27 240 49 328q9 45 57 45h1082q51 0 51 -35q0 -59 -72 -338h-14q-27 177 -117 221q-41 21 -123 21h-26q-30 0 -43.5 -12t-20.5 -47
l-174 -922q-23 -125 -23 -150q0 -56 123 -90zM246 -598l-6 16q192 104 192 197q0 51 -45 90q-35 35 -35 86q0 59 39.5 93t100.5 34q73 0 117 -42t44 -116q0 -138 -121 -227q-120 -91 -286 -131z" />
    <glyph glyph-name="uni021B" unicode="&#x21b;" horiz-adv-x="741" 
d="M639 123l6 -6q0 -33 -22 -58q-20 -20 -48 -36q-88 -46 -221 -46q-103 0 -180 33q-96 44 -96 180q0 47 31 205l96 467h-115l16 72q110 35 140 53q63 32 112 103q48 75 93 151h186l-43 -244h174l-25 -135h-170l-108 -530q-23 -115 -23 -166q0 -74 80 -74q60 0 117 31z
M12 -598l-6 16q193 105 193 197q0 51 -45 90q-35 35 -35 86q0 59 39 93t100 34q73 0 117.5 -42t44.5 -116q0 -138 -121 -227q-119 -91 -287 -131z" />
    <glyph glyph-name="uni0259" unicode="&#x259;" horiz-adv-x="919" 
d="M117 729l-6 4q0 23 4 47q6 33 28 62q54 76 166.5 129t241.5 53q138 0 225 -57q107 -65 107 -250q0 -153 -52 -324q-53 -170 -143 -268q-149 -152 -399 -152q-157 0 -232 53t-75 169q0 106 92 206q53 56 158 88.5t249 32.5q17 119 17 187q-4 73 -35.5 96.5t-91.5 21.5
q-147 0 -254 -98zM475 492q-115 -42 -174 -138t-59 -225q0 -72 45 -72q18 0 41 23q29 29 70.5 138.5t76.5 273.5z" />
    <glyph glyph-name="circumflex" unicode="&#x2c6;" 
d="M356 1413l140 -287l-13 -10l-266 152l-313 -152l-10 10l235 297q56 68 121 68t106 -78z" />
    <glyph glyph-name="caron" unicode="&#x2c7;" 
d="M39 1186l-141 291l12 10l268 -152l311 154l11 -12l-238 -301q-46 -64 -119 -64q-69 0 -104 74z" />
    <glyph glyph-name="breve" unicode="&#x2d8;" 
d="M473 1516l19 -7q-59 -344 -328 -344q-244 0 -244 281q0 21 4 67l19 3q25 -88 76 -122t165 -34q109 0 173 36.5t116 119.5z" />
    <glyph glyph-name="dotaccent" unicode="&#x2d9;" 
d="M360 1309q0 -76 -48 -128.5t-124 -52.5q-61 0 -100 39t-39 101q0 75 51 127.5t123 52.5q61 0 99 -40t38 -99z" />
    <glyph glyph-name="ring" unicode="&#x2da;" 
d="M387 1337q0 -82 -55.5 -137t-141.5 -55q-78 0 -126 47t-48 121q0 81 57 134.5t144 53.5q79 0 124.5 -44.5t45.5 -119.5zM209 1440q-54 0 -85.5 -34t-31.5 -91q0 -48 28.5 -77.5t78.5 -29.5q49 0 82.5 34.5t33.5 84.5q0 49 -30.5 81t-75.5 32z" />
    <glyph glyph-name="ogonek" unicode="&#x2db;" 
d="M397 -362l6 -9l-2 -10q-5 -25 -22 -51q-35 -53 -152 -53q-106 0 -162.5 48t-56.5 130q0 115 86.5 186.5t261.5 130.5l6 -10q-37 -39 -67 -78q-28 -35 -52 -89.5t-24 -100.5q0 -50 26 -79.5t70 -29.5q55 0 82 15z" />
    <glyph glyph-name="tilde" unicode="&#x2dc;" 
d="M506 1450l16 -8q-89 -271 -221 -271q-39 0 -135 41q-84 37 -123 37q-75 0 -137 -92l-17 8q34 93 80 174q58 107 144 107q48 0 127 -43q73 -43 125 -43q44 0 71 17.5t70 72.5z" />
    <glyph glyph-name="hungarumlaut" unicode="&#x2dd;" 
d="M111 1288l-318 -172l-10 12l199 306q36 56 64.5 77t72.5 21q51 0 81.5 -26t30.5 -76q0 -78 -120 -142zM485 1288l-317 -172l-10 12l198 306q36 56 65 77t73 21q51 0 81.5 -26t30.5 -76q0 -77 -121 -142z" />
    <glyph glyph-name="uni0394" unicode="&#x394;" horiz-adv-x="1579" 
d="M1083 1366l324 -1366h-1468l831 1366h313zM748 1092q-138 -250 -449 -777h608q-105 487 -159 777z" />
    <glyph glyph-name="uni03A9" unicode="&#x3a9;" horiz-adv-x="1607" 
d="M709 252l-37 -252h-514q-44 0 -63 11.5t-19 41.5q0 44 16 178q15 108 29 166h14q29 -78 103 -100q62 -16 350 -16q-181 55 -281 185t-100 302q0 280 201 463q182 164 505 164q560 0 560 -488q0 -268 -144 -424q-122 -131 -379 -202q349 6 416 24q67 22 115 90h16
q-42 -248 -74 -348q-15 -47 -104 -47h-518l35 252q67 48 96 123q52 122 76 325q26 195 26 340q0 125 -32.5 180.5t-110.5 55.5q-132 0 -184 -184q-74 -269 -74 -588q0 -188 76 -252z" />
    <glyph glyph-name="uni03BC" unicode="&#x3bc;" horiz-adv-x="1366" 
d="M442 29l-16 -97q-36 -265 -37 -268q-8 -49 -33 -67q-50 -33 -366 -33l-6 6l225 1001q53 245 53 283q0 34 -11 48.5t-42 25.5q-35 12 -64 14v12q70 28 189 43q127 19 211 19q67 0 90.5 -16.5t23.5 -61.5q0 -37 -41 -203q-104 -410 -104 -495q0 -27 27 -27q50 0 86 51
q75 99 116 279l99 454h360l-115 -573q-34 -173 -34 -246q0 -80 86 -80q49 0 55 2l2 -10q-61 -42 -170 -76t-203 -34q-82 0 -106 49q-17 40 -17 90q0 33 19 182q-47 -149 -106 -219t-119 -70q-42 0 -52 17z" />
    <glyph glyph-name="pi" unicode="&#x3c0;" horiz-adv-x="1470" 
d="M129 8v8q185 212 287 674h-43q-34 0 -70 -4q-30 -2 -76.5 -29t-81.5 -73l-12 6q46 210 146 325q73 82 223 82h913l-63 -307h-144l-80 -430q-10 -52 -10 -86q0 -88 70 -88q50 0 78 4l4 -10q-42 -33 -127 -64q-90 -34 -203 -34q-66 0 -109.5 16t-62.5 45t-25 54.5t-6 60.5
q0 51 21 153l73 379h-124q-70 -357 -105 -479q-34 -120 -70 -164q-20 -29 -65 -47q-53 -18 -141 -18q-164 0 -197 26z" />
    <glyph glyph-name="Wgrave" unicode="&#x1e80;" horiz-adv-x="1955" 
d="M651 0h-278q-3 103 -21 317l-67 885q-6 82 -37 113q-22 22 -62 37l4 14h609l-2 -14q-3 -2 -22.5 -9t-37.5 -15.5t-24 -14.5q-17 -24 -17 -74q0 -60 2 -115l13 -274q3 -74 8.5 -226t7.5 -198q52 146 369 905h260q109 -776 121 -923q88 249 280 739q29 82 29 119t-45 63
q-15 10 -53 23l4 14h370l-4 -14q-33 -10 -49 -23q-36 -22 -76 -123l-401 -927l-119 -279h-272q-25 224 -52 462.5t-38 336.5t-13 119q-28 -77 -387 -918zM1141 1782l155 -318l-8 -10l-313 199q-109 71 -109 145q0 52 35.5 81.5t85.5 29.5q92 0 154 -127z" />
    <glyph glyph-name="wgrave" unicode="&#x1e81;" horiz-adv-x="1529" 
d="M408 0h-236l-37 750q-3 118 -37 145q-15 12 -78 29v14q49 25 197 53q155 29 221 29q59 0 62 -49q1 -23 2 -50.5t1.5 -42t0.5 -20.5q0 -233 -8 -553l258 606h268q43 -356 68 -641l47 92l73 152q109 239 109 350q0 49 -43 64q-28 11 -70 16v10q46 24 135 45t119 21
q64 0 64 -39q0 -75 -82 -238q-88 -174 -445 -743h-235l-55 580q-85 -172 -299 -580zM821 1442l152 -314l-15 -10l-303 166q-96 53 -96 131q0 56 37.5 92.5t89.5 36.5q82 0 135 -102z" />
    <glyph glyph-name="Wacute" unicode="&#x1e82;" horiz-adv-x="1955" 
d="M651 0h-278q-3 103 -21 317l-67 885q-6 82 -37 113q-22 22 -62 37l4 14h609l-2 -14q-3 -2 -22.5 -9t-37.5 -15.5t-24 -14.5q-17 -24 -17 -74q0 -60 2 -115l13 -274q3 -74 8.5 -226t7.5 -198q52 146 369 905h260q109 -776 121 -923q88 249 280 739q29 82 29 119t-45 63
q-15 10 -53 23l4 14h370l-4 -14q-33 -10 -49 -23q-36 -22 -76 -123l-401 -927l-119 -279h-272q-25 224 -52 462.5t-38 336.5t-13 119q-28 -77 -387 -918zM1450 1571l-358 -117l-9 12l232 277q81 90 151 90q55 0 89 -33t34 -92q0 -46 -38 -81.5t-101 -55.5z" />
    <glyph glyph-name="wacute" unicode="&#x1e83;" horiz-adv-x="1529" 
d="M408 0h-236l-37 750q-3 118 -37 145q-15 12 -78 29v14q49 25 197 53q155 29 221 29q59 0 62 -49q1 -23 2 -50.5t1.5 -42t0.5 -20.5q0 -233 -8 -553l258 606h268q43 -356 68 -641l47 92l73 152q109 239 109 350q0 49 -43 64q-28 11 -70 16v10q46 24 135 45t119 21
q64 0 64 -39q0 -75 -82 -238q-88 -174 -445 -743h-235l-55 580q-85 -172 -299 -580zM1104 1266l-340 -148l-12 10l194 299q33 53 66.5 77t79.5 24q61 0 96 -33t35 -90q0 -81 -119 -139z" />
    <glyph glyph-name="Wdieresis" unicode="&#x1e84;" horiz-adv-x="1955" 
d="M651 0h-278q-3 103 -21 317l-67 885q-6 82 -37 113q-22 22 -62 37l4 14h609l-2 -14q-3 -2 -22.5 -9t-37.5 -15.5t-24 -14.5q-17 -24 -17 -74q0 -60 2 -115l13 -274q3 -74 8.5 -226t7.5 -198q52 146 369 905h260q109 -776 121 -923q88 249 280 739q29 82 29 119t-45 63
q-15 10 -53 23l4 14h370l-4 -14q-33 -10 -49 -23q-36 -22 -76 -123l-401 -927l-119 -279h-272q-25 224 -52 462.5t-38 336.5t-13 119q-28 -77 -387 -918zM1186 1647q0 -77 -46 -130t-122 -53q-58 0 -97.5 39.5t-39.5 100.5q0 75 50 127.5t122 52.5q62 0 97.5 -38t35.5 -99z
M1610 1647q0 -77 -47 -130t-123 -53q-58 0 -96.5 39.5t-38.5 100.5q0 75 49 127.5t121 52.5q61 0 98 -39t37 -98z" />
    <glyph glyph-name="wdieresis" unicode="&#x1e85;" horiz-adv-x="1529" 
d="M408 0h-236l-37 750q-3 118 -37 145q-15 12 -78 29v14q49 25 197 53q155 29 221 29q59 0 62 -49q1 -23 2 -50.5t1.5 -42t0.5 -20.5q0 -233 -8 -553l258 606h268q43 -356 68 -641l47 92l73 152q109 239 109 350q0 49 -43 64q-28 11 -70 16v10q46 24 135 45t119 21
q64 0 64 -39q0 -75 -82 -238q-88 -174 -445 -743h-235l-55 580q-85 -172 -299 -580zM862 1309q0 -75 -47.5 -128t-120.5 -53q-60 0 -98.5 38.5t-38.5 101.5q0 75 50.5 127.5t119.5 52.5q62 0 98.5 -39t36.5 -100zM1266 1309q0 -76 -47 -128.5t-123 -52.5q-60 0 -99 39
t-39 101q0 75 50 127.5t122 52.5q62 0 99 -39t37 -100z" />
    <glyph glyph-name="Ygrave" unicode="&#x1ef2;" horiz-adv-x="1316" 
d="M924 14l-4 -14h-703l4 14q99 26 127 68q21 27 55 213l62 334l-236 602q-31 78 -65 102q-14 10 -43 19l4 14h623l-3 -14q-35 -6 -69 -21q-23 -13 -23 -35q0 -13 23 -77q149 -406 158 -449l47 68q199 276 274 385q29 47 29 69q0 15 -17 29q-23 20 -73 31l2 14h383l-2 -14
q-19 -3 -43 -13q-44 -23 -115 -114l-428 -533l-76 -409q-20 -97 -20 -160q0 -35 27 -59.5t102 -49.5zM817 1782l156 -318l-8 -10l-314 199q-108 71 -108 145q0 52 35.5 81.5t85.5 29.5q91 0 153 -127z" />
    <glyph glyph-name="ygrave" unicode="&#x1ef3;" horiz-adv-x="1048" 
d="M-199 -213h23q34 -117 102 -117q58 0 109 45q174 145 299 303h-178l-37 752q-6 103 -31 125q-30 23 -82 29v14q56 29 201 55q155 31 225 31q40 0 49 -45q6 -35 6 -137q2 -211 2 -637q119 177 203 332q113 201 113 317q0 43 -43 64q-44 18 -68 20v14q57 28 148 47
q103 25 137 25q37 0 50 -9.5t13 -35.5q0 -38 -26 -94q-24 -59 -51 -105q-33 -60 -82 -139q-121 -201 -449 -649q-227 -310 -381 -434q-84 -66 -180 -66q-111 0 -111 80q0 94 39 215zM537 1442l151 -314l-14 -10l-303 166q-97 54 -97 131q0 56 37.5 92.5t89.5 36.5
q83 0 136 -102z" />
    <glyph glyph-name="endash" unicode="&#x2013;" horiz-adv-x="1169" 
d="M1122 682l-57 -276h-1018l57 276h1018z" />
    <glyph glyph-name="emdash" unicode="&#x2014;" horiz-adv-x="2023" 
d="M1952 682l-60 -276h-1847l59 276h1848z" />
    <glyph glyph-name="quoteleft" unicode="&#x2018;" horiz-adv-x="475" 
d="M672 1550l8 -18q-246 -150 -246 -293q0 -66 58 -115q33 -26 40 -72.5t-9 -89.5t-58 -73.5t-98 -26.5q-92 0 -140.5 52.5t-48.5 146.5q4 87 34.5 152.5t90.5 119.5q45 42 80 66.5t96 56.5q64 36 94 49q7 3 40.5 19t58.5 26z" />
    <glyph glyph-name="quoteright" unicode="&#x2019;" horiz-adv-x="473" 
d="M197 928l-140 -66l-8 19q246 150 246 290q0 58 -59 117q-43 43 -43 107q0 68 45.5 111.5t123.5 43.5q92 0 140.5 -52t48.5 -146q0 -73 -30.5 -141t-76.5 -117q-39 -44 -120 -95q-80 -50 -127 -71z" />
    <glyph glyph-name="quotesinglbase" unicode="&#x201a;" horiz-adv-x="475" 
d="M-98 -285l-99 -45l-8 19q246 150 246 291q0 53 -57 116q-43 46 -43 107q0 69 45 112t125 43q91 0 139.5 -53t48.5 -145q-6 -90 -35 -154.5t-92 -120.5q-55 -48 -80 -63q-29 -23 -94 -58z" />
    <glyph glyph-name="quotedblleft" unicode="&#x201c;" horiz-adv-x="966" 
d="M1159 1550l8 -18q-245 -149 -245 -293q0 -61 59 -117q41 -41 41 -106q0 -67 -46 -110.5t-124 -43.5q-91 0 -139.5 53.5t-48.5 145.5q-7 86 41.5 166t119.5 139q44 37 109 72q62 36 110 57q46 24 115 55zM672 1550l8 -18q-246 -150 -246 -293q0 -66 58 -115
q33 -26 40 -72.5t-9 -89.5t-58 -73.5t-98 -26.5q-92 0 -140.5 52.5t-48.5 146.5q4 87 34.5 152.5t90.5 119.5q45 42 80 66.5t96 56.5q64 36 94 49q7 3 40.5 19t58.5 26z" />
    <glyph glyph-name="quotedblright" unicode="&#x201d;" horiz-adv-x="966" 
d="M197 928l-140 -66l-8 19q246 150 246 290q0 58 -59 117q-43 43 -43 107q0 68 45.5 111.5t123.5 43.5q92 0 140.5 -52t48.5 -146q0 -73 -30.5 -141t-76.5 -117q-39 -44 -120 -95q-80 -50 -127 -71zM682 926l-137 -64l-10 19q245 149 245 290q0 55 -59 117q-41 44 -41 107
q0 69 46 112t124 43q91 0 139.5 -53t48.5 -145q0 -73 -31.5 -142t-76.5 -116q-41 -44 -121 -95q-85 -54 -127 -73z" />
    <glyph glyph-name="quotedblbase" unicode="&#x201e;" horiz-adv-x="966" 
d="M-98 -285l-99 -45l-8 19q246 150 246 291q0 57 -59 116q-41 41 -41 107q0 69 45 112t125 43q91 0 139.5 -53t48.5 -145q-6 -90 -35 -154.5t-92 -120.5q-55 -48 -80 -63q-29 -23 -94 -58zM430 -264l-139 -66l-8 19q245 149 245 291q0 51 -59 116q-43 46 -43 107
q0 68 46 111.5t124 43.5q92 0 140 -52t48 -146q0 -73 -30.5 -141t-75.5 -117q-37 -43 -121 -95q-80 -50 -127 -71z" />
    <glyph glyph-name="dagger" unicode="&#x2020;" horiz-adv-x="1177" 
d="M684 901q-29 -304 -55 -790q-5 -62 -40.5 -101t-90.5 -39q-119 0 -119 97q0 37 22 114q0 1 58 172q105 301 174 547q-28 -12 -88 -43q-52 -30 -92 -41.5t-93 -11.5q-48 0 -80 30.5t-32 79.5q0 152 143 152q45 0 86 -18q28 -14 88 -52.5t78 -48.5q-3 56 -25 164
q-18 102 -18 145q0 160 135 160q133 0 133 -108q0 -52 -32 -117q-5 -11 -70 -121q-62 -104 -70 -123q14 6 78 47q63 40 108.5 57t98.5 17q115 0 115 -115q0 -64 -36.5 -106.5t-101.5 -42.5q-48 0 -86 14q-24 8 -91.5 40t-96.5 42z" />
    <glyph glyph-name="daggerdbl" unicode="&#x2021;" horiz-adv-x="1177" 
d="M551 457q-38 -19 -88 -51q-59 -39 -105 -57.5t-94 -18.5q-45 0 -75.5 35t-30.5 96q0 63 34.5 103t94.5 40q57 0 98 -14q25 -7 60.5 -23t70.5 -33.5t45 -21.5l74 381l-90 -43q-114 -62 -183 -62q-55 0 -86.5 34t-31.5 96q0 60 34.5 101.5t92.5 41.5q50 0 96 -19
q46 -18 98 -55l76 -47q-1 8 -4.5 27t-10 55t-12.5 68q-20 117 -20 149q0 89 32.5 133.5t118.5 44.5q56 0 88.5 -26.5t32.5 -75.5q0 -45 -35 -129q-10 -24 -43 -80q-27 -52 -57 -98l-41 -68l58 35l73 43q89 43 154 43q123 0 123 -121q0 -65 -39.5 -108.5t-108.5 -43.5
q-35 0 -88 17q-33 13 -101 48.5t-77 39.5l-74 -381q51 19 95 39q61 29 99.5 41t80.5 12q58 0 88.5 -32t30.5 -85q0 -157 -144 -157q-64 0 -147 45l-64 45l-49 37q16 -68 31 -148q18 -94 18 -119q0 -188 -153 -188q-117 0 -117 111q0 46 29 112q50 103 143 232z" />
    <glyph glyph-name="bullet" unicode="&#x2022;" horiz-adv-x="1017" 
d="M897 653q0 -171 -109 -286t-286 -115q-149 0 -244 92q-94 94 -94 246q0 171 108 282q107 113 287 113q157 0 247.5 -90.5t90.5 -241.5z" />
    <glyph glyph-name="ellipsis" unicode="&#x2026;" horiz-adv-x="2324" 
d="M532 182q0 -88 -56.5 -146.5t-151.5 -58.5q-79 0 -132 52.5t-53 136.5q0 93 58 155t151 62q87 0 135.5 -54.5t48.5 -146.5zM1262 182q0 -88 -56.5 -146.5t-148.5 -58.5q-81 0 -134 52.5t-53 136.5q0 95 57 156t152 61q89 0 136 -54t47 -147zM2003 182q0 -88 -58.5 -146.5
t-150.5 -58.5q-80 0 -132 52.5t-52 136.5q0 95 57 156t152 61q87 0 135.5 -54.5t48.5 -146.5z" />
    <glyph glyph-name="perthousand" unicode="&#x2030;" horiz-adv-x="2564" 
d="M825 1098q0 -144 -45 -278t-133 -216q-94 -88 -260 -88q-272 0 -272 256q0 284 147 453q105 123 291 123q272 0 272 -250zM575 1204q0 70 -43 70q-25 0 -40.5 -17.5t-34.5 -66.5q-36 -88 -62 -260q-28 -179 -28 -264q0 -70 45 -70q27 0 42.5 20.5t34.5 79.5q31 97 56 256
q30 172 30 252zM393 -10l950 1425l101 -65l-950 -1420zM1710 565q0 -144 -45 -277.5t-133 -215.5q-94 -88 -260 -88q-273 0 -273 256q0 281 148 452q105 123 291 123q272 0 272 -250zM1460 672q0 69 -43 69q-25 0 -41 -17.5t-35 -66.5q-34 -84 -61 -260q-29 -185 -29 -264
q0 -70 45 -70q27 0 43 21t35 80q31 97 56 256q30 172 30 252zM2488 565q0 -144 -45 -277.5t-133 -215.5q-94 -88 -260 -88q-272 0 -272 256q0 282 147 452q105 123 291 123q272 0 272 -250zM2238 672q0 69 -43 69q-25 0 -40.5 -17.5t-34.5 -66.5q-36 -88 -62 -260
q-28 -179 -28 -264q0 -70 45 -70q26 0 42 20.5t35 80.5q31 97 56 256q30 172 30 252z" />
    <glyph glyph-name="guilsinglleft" unicode="&#x2039;" horiz-adv-x="522" 
d="M88 575l434 332l10 -8l-231 -389l74 -416l-13 -6l-301 361q-18 18 -18 51q0 42 45 75z" />
    <glyph glyph-name="guilsinglright" unicode="&#x203a;" horiz-adv-x="522" 
d="M428 420l-434 -332l-10 6l231 391l-74 416l13 6l297 -358q20 -23 20 -53q0 -42 -43 -76z" />
    <glyph glyph-name="fraction" unicode="&#x2044;" horiz-adv-x="182" 
d="M-422 -10l950 1423l90 -59l-952 -1424z" />
    <glyph glyph-name="zero.superior" unicode="&#x2070;" horiz-adv-x="751" 
d="M846 1448q0 -136 -43 -272q-43 -137 -133 -224q-94 -88 -248 -88q-264 0 -264 256q0 285 151 459q105 117 275 117q262 0 262 -248zM623 1526q0 57 -12.5 79.5t-41.5 22.5q-57 0 -92 -92q-35 -91 -65 -252q-31 -164 -31 -250q0 -96 59 -96q58 0 92 98q35 88 62 252
q29 179 29 238z" />
    <glyph glyph-name="four.superior" unicode="&#x2074;" horiz-adv-x="751" 
d="M762 895l-4 -14h-434l4 14q54 14 78 31q37 24 55 110l8 45h-350l22 107l484 508h190q-22 -93 -53 -254l-47 -232h125l-27 -129h-121l-6 -39q-10 -58 -10 -86q0 -27 20 -36q17 -10 66 -25zM248 1210h246q40 212 71 342q-79 -95 -317 -342z" />
    <glyph glyph-name="five.superior" unicode="&#x2075;" horiz-adv-x="751" 
d="M164 1100h10q12 -68 55.5 -115t116.5 -47q80 0 123 55t43 148q0 149 -104 149q-94 0 -164 -49l-8 6l114 434h465l-35 -168h-219q-163 3 -199 3l-40 -160q58 49 196 49q109 0 177.5 -58.5t68.5 -160.5q0 -150 -109.5 -236t-289.5 -86q-145 0 -207 39q-25 16 -25 43
q0 42 31 154z" />
    <glyph glyph-name="six.superior" unicode="&#x2076;" horiz-adv-x="751" 
d="M410 1282q30 50 84.5 78.5t115.5 28.5q91 0 142 -52t51 -141q0 -151 -91 -241.5t-255 -90.5q-128 0 -197.5 69t-69.5 193q0 142 56 274t155 216q95 80 250 80q71 0 131 -17q64 -18 64 -55q0 -56 -33 -141h-12q-10 75 -42.5 109t-92.5 34q-98 0 -162 -94q-49 -69 -94 -250
zM387 1141q-8 -36 -8 -105q0 -98 84 -98q53 0 86 45q30 43 39.5 89.5t9.5 109.5q0 49 -21 75.5t-53 26.5q-76 0 -110 -63q-15 -24 -27 -80z" />
    <glyph glyph-name="seven.superior" unicode="&#x2077;" horiz-adv-x="751" 
d="M852 1591l-422 -749l-135 35q192 331 424 639q-218 0 -350 -3q-57 0 -84 -30q-21 -24 -37 -66h-12q0 104 22 217q6 28 22 37.5t54 9.5h530z" />
    <glyph glyph-name="eight.superior" unicode="&#x2078;" horiz-adv-x="751" 
d="M645 1348q148 -65 148 -218q0 -121 -101 -193.5t-262 -72.5q-134 0 -204 55.5t-70 141.5q0 144 211 196q-107 67 -107 185q0 117 88 185.5t230 68.5q121 0 185 -43t64 -115q0 -66 -44 -109.5t-138 -80.5zM397 1235q-82 -70 -82 -168q0 -60 38 -95.5t91 -35.5
q68 0 106 35.5t38 97.5q0 92 -191 166zM606 1368q72 60 72 158q0 104 -109 104q-56 0 -87 -30.5t-31 -81.5q0 -42 35.5 -77.5t119.5 -72.5z" />
    <glyph glyph-name="nine.superior" unicode="&#x2079;" horiz-adv-x="751" 
d="M592 1272q-64 -98 -191 -98q-92 0 -146 52.5t-54 139.5q0 146 92 238t254 92q134 0 206 -62t72 -180q0 -160 -48 -297t-142 -213q-103 -80 -268 -80q-93 0 -152 27q-57 23 -57 53q0 65 32 150h13q7 -70 53.5 -113t108.5 -43q97 0 147 78q40 63 80 256zM610 1430
q8 36 8 102q0 96 -69 96q-37 0 -63.5 -26.5t-39.5 -69t-18.5 -82.5t-5.5 -78q0 -94 67 -94q71 0 97 63q18 41 24 89z" />
    <glyph glyph-name="parenleft.superior" unicode="&#x207d;" horiz-adv-x="415" 
d="M453 737l-11 -14q-256 108 -256 418q0 229 116.5 394.5t334.5 236.5l8 -17q-303 -149 -303 -651q0 -115 30.5 -218t80.5 -149z" />
    <glyph glyph-name="parenright.superior" unicode="&#x207e;" horiz-adv-x="415" 
d="M215 1757l10 15q256 -108 256 -418q0 -230 -116.5 -395t-335.5 -236l-9 16q163 79 234 256q72 179 72 396q0 115 -30.5 217.5t-80.5 148.5z" />
    <glyph glyph-name="n.superior" unicode="&#x207f;" horiz-adv-x="784" 
d="M410 815l-68 -283h-246l82 324q29 126 29 178q0 28 -19 41q-25 15 -59 17l2 12q155 35 264 35q64 0 64 -39q0 -40 -29 -150q34 69 113 133q80 62 174 62q51 0 73.5 -17t22.5 -63q0 -29 -72 -311q-24 -91 -20.5 -125.5t49.5 -34.5q27 0 37 2l2 -12q-44 -23 -129 -43
q-93 -19 -141 -19q-78 0 -78 58q0 27 22 120q66 267 66 283q0 25 -14 25q-24 0 -72 -60q-32 -42 -53 -133z" />
    <glyph glyph-name="zero.inferior" unicode="&#x2080;" horiz-adv-x="751" 
d="M625 252q0 -134 -43 -270q-44 -140 -133 -226q-94 -88 -248 -88q-264 0 -264 256q0 285 151 459q105 117 274 117q263 0 263 -248zM401 330q0 57 -12 79.5t-41 22.5q-57 0 -92 -92q-37 -96 -66 -252q-30 -159 -30 -250q0 -96 59 -96q58 0 92 98q35 88 62 252
q28 173 28 238z" />
    <glyph glyph-name="one.inferior" unicode="&#x2081;" horiz-adv-x="751" 
d="M420 -301l-4 -14h-434l4 14q37 8 67 25q42 22 62 120l82 439q12 61 12 75q0 41 -49 41q-40 0 -54 -2l-2 25l359 82l10 -10l-33 -156l-26 -139l-68 -351q-8 -41 -8 -77q0 -33 18 -45q30 -21 64 -27z" />
    <glyph glyph-name="two.inferior" unicode="&#x2082;" horiz-adv-x="751" 
d="M412 -315h-541l14 75q93 61 153 109.5t124 116.5q143 143 143 325q0 51 -28 86t-74 35q-56 0 -94 -30t-86 -109h-13q0 67 6 123q6 38 58 53q95 31 213 31q128 0 195 -54.5t67 -140.5q0 -130 -160 -258q-128 -98 -287 -186l-36 -21q126 4 309 4q55 0 80 19q29 23 59 78h12
q-4 -36 -18 -115q-13 -76 -23 -105q-6 -21 -21 -28.5t-52 -7.5z" />
    <glyph glyph-name="three.inferior" unicode="&#x2083;" horiz-adv-x="751" 
d="M-70 -109h11q8 -63 58 -106t128 -43q162 0 162 211q0 108 -115 108h-29l15 68h39q85 0 120 59q29 56 29 134q0 110 -96 110q-112 0 -197 -143h-10q2 52 14 121q6 35 43 53q70 37 215 37q129 0 197 -47.5t68 -120.5q0 -194 -258 -228q215 -18 215 -163q0 -135 -121 -203
q-119 -70 -289 -70q-138 0 -209 41q-20 14 -20 41q0 58 30 141z" />
    <glyph glyph-name="four.inferior" unicode="&#x2084;" horiz-adv-x="751" 
d="M541 -301l-4 -14h-435l4 14q54 14 78 31q38 24 56 110l8 45h-350l22 107l483 508h191q-22 -93 -53 -254l-47 -232h124l-26 -129h-121l-6 -39q-10 -58 -10 -86q0 -27 20 -36q17 -10 66 -25zM27 14h245q36 193 72 342q-79 -95 -317 -342z" />
    <glyph glyph-name="five.inferior" unicode="&#x2085;" horiz-adv-x="751" 
d="M-57 -96h10q12 -68 55.5 -115t116.5 -47q80 0 123 55t43 148q0 149 -105 149q-93 0 -163 -49l-9 6l115 434h465l-35 -168h-219q-109 2 -199 2l-41 -159q58 49 197 49q109 0 177.5 -58.5t68.5 -160.5q0 -150 -110 -236t-290 -86q-144 0 -206 39q-25 16 -25 43q0 42 31 154
z" />
    <glyph glyph-name="six.inferior" unicode="&#x2086;" horiz-adv-x="751" 
d="M188 86q30 50 85 78.5t116 28.5q91 0 142 -52t51 -141q0 -151 -91 -241.5t-255 -90.5q-128 0 -197.5 69t-69.5 193q0 142 56 274t155 216q95 80 250 80q72 0 131 -17q64 -18 64 -55q0 -56 -33 -141h-12q-10 75 -43 109t-93 34q-97 0 -161 -94q-51 -71 -95 -250zM166 -55
q-8 -36 -8 -105q0 -98 84 -98q51 0 86 47q49 67 49 197q0 49 -21 75.5t-53 26.5q-76 0 -110 -63q-15 -24 -27 -80z" />
    <glyph glyph-name="seven.inferior" unicode="&#x2087;" horiz-adv-x="751" 
d="M631 395l-422 -749l-135 35q190 327 424 638q-263 0 -351 -2q-57 0 -84 -30q-19 -22 -36 -66h-13q0 99 23 217q6 28 22 37.5t54 9.5h530z" />
    <glyph glyph-name="eight.inferior" unicode="&#x2088;" horiz-adv-x="751" 
d="M424 152q147 -64 147 -218q0 -121 -101 -193.5t-261 -72.5q-134 0 -204.5 55.5t-70.5 141.5q0 144 211 196q-106 66 -106 185q0 117 87.5 185.5t229.5 68.5q121 0 185.5 -43.5t64.5 -114.5q0 -66 -44 -109.5t-138 -80.5zM176 39q-82 -70 -82 -168q0 -60 38 -95.5
t91 -35.5q68 0 106 35.5t38 97.5q0 92 -191 166zM385 172q72 60 72 158q0 104 -109 104q-56 0 -87.5 -30.5t-31.5 -81.5q0 -42 35.5 -77t120.5 -73z" />
    <glyph glyph-name="nine.inferior" unicode="&#x2089;" horiz-adv-x="751" 
d="M371 76q-65 -99 -191 -99q-92 0 -146 53t-54 140q0 146 92 238t254 92q134 0 206 -62t72 -180q0 -160 -48 -297t-142 -213q-103 -80 -269 -80q-93 0 -151 27q-57 23 -57 53q0 65 32 150h13q7 -70 53 -113t108 -43q98 0 148 78q40 63 80 256zM389 233q8 36 8 103
q0 96 -69 96q-37 0 -63.5 -26.5t-39.5 -69t-18.5 -82.5t-5.5 -78q0 -94 67 -94q71 0 97 63q18 41 24 88z" />
    <glyph glyph-name="parenleft.inferior" unicode="&#x208d;" horiz-adv-x="415" 
d="M231 -459l-10 -14q-256 108 -256 418q0 229 116.5 394t334.5 236l8 -16q-303 -149 -303 -651q0 -115 30 -218t80 -149z" />
    <glyph glyph-name="parenright.inferior" unicode="&#x208e;" horiz-adv-x="415" 
d="M-6 561l10 14q256 -108 256 -417q0 -229 -117 -394.5t-336 -236.5l-8 16q163 79 234 256t71 396q0 115 -30 217.5t-80 148.5z" />
    <glyph glyph-name="Euro" unicode="&#x20ac;" horiz-adv-x="1376" 
d="M1051 598l-23 -111h-293v-75q0 -164 43.5 -242t141.5 -78q134 0 227 96q36 36 102 136h17q-14 -121 -43 -232q-9 -33 -60 -61q-113 -58 -336 -58q-250 0 -388.5 130t-139.5 384h-160l25 111h139q8 89 29 168h-144l25 111h156q102 249 315 376q174 107 424 107
q180 0 276 -47q48 -22 48 -72q0 -65 -70 -266h-14q-21 116 -45 166q-51 100 -185 100q-139 0 -227 -137q-61 -89 -100 -227h309l-23 -111h-313q-14 -80 -23 -168h310z" />
    <glyph glyph-name="afii61289" unicode="&#x2113;" horiz-adv-x="1026" 
d="M551 709q77 44 151 110q76 65 127 142q66 107 66 227q0 37 -21 60.5t-53 23.5q-57 0 -96 -45q-73 -85 -174 -518zM827 197l13 -4q-8 -39 -23 -74q-15 -45 -61 -72q-115 -74 -285 -74q-342 0 -342 269q0 115 8 172l-153 -56l-31 82q135 53 199 84q74 317 139 463
q65 148 155 244q152 158 388 158q122 0 192 -59.5t70 -158.5q0 -94 -39 -167.5t-127 -155.5q-155 -146 -408 -262q-14 -50 -28 -164q-15 -120 -15 -176q0 -121 94 -121q131 0 254 72z" />
    <glyph glyph-name="trademark" unicode="&#x2122;" horiz-adv-x="1820" 
d="M635 715l-2 -10h-375l2 10q55 9 70 37q17 26 28 88l72 368q12 62 12 70q0 25 -26 25h-17q-56 0 -82 -11q-31 -11 -84 -106h-8q7 76 17 135q6 45 45 45h565q35 0 35 -33q0 -21 -27 -147h-8q-12 106 -59 112q-57 5 -68 5h-29q-5 0 -8.5 -0.5t-6.5 -1.5t-5 -2t-4 -3.5
t-2.5 -3.5t-1.5 -5t-1.5 -5.5t-1.5 -6.5t-1 -7l-86 -430q-9 -46 -9 -62q0 -32 23 -45q17 -10 43 -16zM1012 715l-2 -10h-238l2 10q56 12 70 26q21 18 33 72l90 389q18 82 18 101q0 18 -10 28q-32 25 -53 27l2 8h284q15 0 25 -29q80 -328 80 -329q18 35 196 329q16 29 37 29
h264l-2 -8q-54 -14 -69 -33q-13 -18 -21 -55l-76 -418q-6 -55 -6 -64q0 -35 15 -47q8 -14 61 -26l-2 -10h-393l2 10q44 9 63 28q22 22 31 60l74 399l-283 -473h-67l-111 502q-53 -278 -84 -414q-6 -43 -6 -47q0 -28 29 -41q29 -10 47 -14z" />
    <glyph glyph-name="Omega" unicode="&#x2126;" horiz-adv-x="1591" 
d="M709 252l-37 -252h-514q-44 0 -63 11.5t-19 41.5q0 44 16 178q15 108 29 166h14q29 -78 103 -100q62 -16 350 -16q-181 55 -281 185t-100 302q0 280 201 463q182 164 505 164q560 0 560 -488q0 -268 -144 -424q-122 -131 -379 -202q349 6 416 24q67 22 115 90h16
q-42 -248 -74 -348q-15 -47 -104 -47h-518l35 252q67 48 96 123q52 122 76 325q26 195 26 340q0 125 -32.5 180.5t-110.5 55.5q-132 0 -184 -184q-74 -269 -74 -588q0 -188 76 -252z" />
    <glyph glyph-name="estimated" unicode="&#x212e;" horiz-adv-x="1728" 
d="M1679 686v-18h-1282q-10 0 -10 -11v-387q0 -15 19 -43q200 -209 485 -209q148 0 280.5 62t225.5 172h119q-109 -128 -275.5 -201.5t-351.5 -73.5q-326 0 -559 207q-232 209 -232 502q0 294 232 500q232 209 559 209t559 -209q231 -206 231 -500zM1393 719v387
q0 24 -23 47q-207 201 -479 201q-280 0 -483 -209q-21 -21 -21 -49v-377q0 -12 10 -12h983q13 0 13 12z" />
    <glyph glyph-name="onethird" unicode="&#x2153;" horiz-adv-x="1757" 
d="M342 -10l950 1423l90 -59l-952 -1424zM580 549l-5 -17h-477l6 17q47 12 72 26q39 17 60 132l79 419q13 54 13 76q0 37 -52 37q-37 0 -53 -2l-2 27l397 88l11 -11l-60 -294l-65 -340q-10 -62 -10 -82q0 -29 18 -47q22 -20 68 -29zM950 217h11q13 -68 58 -111t120 -43
q151 0 151 209q0 99 -96 99h-33l15 73h45q89 0 116 70q19 46 19 127q0 100 -86 100q-104 0 -195 -147h-10q4 64 14 125q9 39 43 57q68 39 224 39q136 0 205 -47t69 -123q0 -192 -268 -227q72 -6 120 -22.5t69 -41.5t28.5 -47.5t7.5 -50.5q0 -137 -127 -205
q-125 -67 -299 -67q-146 0 -217 41q-19 9 -19 41q0 61 35 151z" />
    <glyph glyph-name="twothirds" unicode="&#x2154;" horiz-adv-x="1757" 
d="M408 -10l950 1423l90 -59l-952 -1424zM594 532h-545l19 82q155 102 264 222q131 143 131 327q0 111 -86 111q-57 0 -95 -28.5t-87 -110.5h-11q0 98 6 125q8 38 64 57q98 31 219 31q132 0 200 -54t68 -143q0 -52 -33 -109.5t-81 -103.5q-38 -38 -123 -92q-96 -61 -121 -74
q-8 -4 -119 -63q114 4 303 4q54 0 80 20q27 20 60 76h10q-1 -13 -23 -127q-15 -93 -22 -111q-8 -24 -22.5 -31.5t-55.5 -7.5zM1008 217h10q13 -68 58 -111t120 -43q152 0 152 209q0 99 -97 99h-32l14 73h45q90 0 117 70q18 43 18 127q0 100 -86 100q-103 0 -194 -147h-11
q3 56 15 125q9 39 43 57q68 39 223 39q136 0 205 -47t69 -123q0 -192 -268 -227q72 -6 120 -22.5t69 -41.5t28.5 -47.5t7.5 -50.5q0 -137 -127 -205q-125 -67 -299 -67q-146 0 -217 41q-18 9 -18 41q0 61 35 151z" />
    <glyph glyph-name="oneeighth" unicode="&#x215b;" horiz-adv-x="1757" 
d="M381 -10l950 1423l90 -59l-952 -1424zM637 549l-4 -17h-477l6 17q45 12 71 26q39 17 60 132l80 419q12 50 12 76q0 37 -51 37q-37 0 -53 -2l-2 27l397 88l10 -11l-59 -294l-66 -340q-10 -62 -10 -82q0 -29 18 -47q22 -20 68 -29zM1473 481q147 -73 147 -227
q0 -125 -109 -199q-109 -71 -270 -71q-138 0 -208 52t-70 140q0 146 200 193q-104 70 -104 192q0 119 91.5 186.5t240.5 67.5q124 0 191 -43.5t67 -114.5q0 -123 -176 -176zM1196 344q-59 -71 -59 -160q0 -61 36 -92t84 -31q61 0 94 31t33 86q0 54 -42 90.5t-146 75.5z
M1436 502q45 45 45 137q0 49 -27 76.5t-72 27.5q-50 0 -78 -28.5t-28 -73.5q0 -40 35 -70t125 -69z" />
    <glyph glyph-name="threeeighths" unicode="&#x215c;" horiz-adv-x="1757" 
d="M367 -10l950 1423l90 -59l-952 -1424zM90 750h10q13 -68 58.5 -111t120.5 -43q151 0 151 209q0 98 -96 98h-33l14 74h45q90 0 117 70q19 46 19 127q0 100 -86 100q-103 0 -195 -148h-10q4 64 14 125q9 40 43 58q68 39 223 39q136 0 205.5 -47t69.5 -123q0 -193 -268 -228
q72 -6 120 -22.5t69 -41.5t28.5 -47.5t7.5 -50.5q0 -136 -127 -204t-299 -68q-146 0 -217 41q-19 9 -19 41q0 62 35 152zM1483 481q147 -73 147 -227q0 -126 -108 -199q-109 -71 -271 -71q-138 0 -208 52t-70 140q0 146 201 193q-105 70 -105 192q0 119 91.5 186.5
t240.5 67.5q124 0 191 -43.5t67 -114.5q0 -123 -176 -176zM1206 344q-59 -71 -59 -160q0 -61 36 -92t85 -31q61 0 94 31t33 86q0 53 -42.5 90t-146.5 76zM1446 502q45 45 45 137q0 49 -26.5 76.5t-71.5 27.5q-50 0 -78.5 -28.5t-28.5 -73.5q0 -40 35 -70t125 -69z" />
    <glyph glyph-name="fiveeighths" unicode="&#x215d;" horiz-adv-x="1757" 
d="M379 -10l950 1423l90 -59l-952 -1424zM131 766h12q12 -71 54 -120.5t110 -49.5q73 0 111.5 53.5t38.5 143.5q0 139 -103 139q-79 0 -141 -47l-10 4l114 444h482l-41 -188h-213q-115 2 -215 2l-35 -139q63 51 203 51q111 0 180.5 -58.5t69.5 -160.5q0 -158 -117 -240
q-119 -84 -297 -84q-145 0 -209 37q-25 16 -25 45q0 56 31 168zM1491 481q147 -73 147 -227q0 -126 -108 -199q-109 -71 -270 -71q-138 0 -208.5 52t-70.5 140q0 146 201 193q-105 70 -105 192q0 119 91.5 186.5t240.5 67.5q124 0 191 -43.5t67 -114.5q0 -123 -176 -176z
M1214 344q-59 -71 -59 -160q0 -61 36 -92t85 -31q61 0 94 31t33 86q0 53 -42.5 90t-146.5 76zM1454 502q45 45 45 137q0 49 -26.5 76.5t-71.5 27.5q-50 0 -78.5 -28.5t-28.5 -73.5q0 -40 35 -70t125 -69z" />
    </font>
</defs>
</svg>
