<?xml version="1.0" standalone="no"?>
<!DOCTYPE svg PUBLIC "-//W3C//DTD SVG 1.1//EN" "http://www.w3.org/Graphics/SVG/1.1/DTD/svg11.dtd" >
<svg xmlns="http://www.w3.org/2000/svg" xmlns:xlink="http://www.w3.org/1999/xlink" version="1.1">
<metadata>
Created by FontForge 20201107 at Mon Jun 16 13:58:40 2025
 By 
Copyright (c) 2018 by Dieter Hofrichter. Alle Rechte vorbehalten. |DCNT
</metadata>
<defs>
<font id="Candide-LightItalic" horiz-adv-x="714" >
  <font-face 
    font-family="Candide Light"
    font-weight="300"
    font-style="italic"
    font-stretch="normal"
    units-per-em="2048"
    panose-1="2 0 5 3 8 0 0 9 0 4"
    ascent="1538"
    descent="-510"
    x-height="971"
    cap-height="1366"
    bbox="-389 -508 2331 1968"
    underline-thickness="102"
    underline-position="-204"
    slope="-11"
    unicode-range="U+000D-FB06"
  />
<missing-glyph horiz-adv-x="999" 
d="M993 0h-987v1382h987v-1382zM164 1284l336 -504l336 504h-672zM895 1194l-338 -502l338 -504v1006zM500 602l-336 -504h672zM440 692l-336 502v-1006z" />
    <glyph glyph-name="f_f" unicode="ff" horiz-adv-x="1200" 
d="M-272 -254h10q27 -139 151 -139q85 0 140 88q73 118 149 588l105 618h-146l6 37q91 12 127 43q26 26 52 111q48 129 98 194q92 121 266 121q82 0 125 -16q37 -15 37 -45q0 -44 -39 -142h-10q-27 146 -135 146q-114 0 -160 -111q-44 -103 -58 -205l-12 -67h340q70 0 90 20
q19 16 47 109q46 160 115 239q102 111 274 111q96 0 142 -21q37 -15 37 -45q0 -41 -39 -145h-10q-35 154 -158 154q-100 0 -152 -76q-59 -83 -86 -283l-10 -63h225l-14 -66h-223l-86 -487q-82 -458 -160 -617q-111 -221 -324 -221q-76 0 -120 27q-27 15 -27 47q0 49 22 123
h11q30 -133 157 -133q81 0 136 88q69 112 149 587l100 586h-446l-90 -520q-76 -447 -160 -617q-111 -221 -326 -221q-76 0 -118 25q-29 16 -29 47q0 67 27 131z" />
    <glyph glyph-name="fi" unicode="fi" horiz-adv-x="1120" 
d="M-272 -254h12q27 -139 149 -139q85 0 140 88q73 118 149 588l105 618h-146l6 37q97 21 123 43q24 24 60 119q54 160 129 235q117 111 344 111q88 0 159 -23q37 -9 37 -45q0 -72 -37 -184h-24q-27 195 -182 195q-132 0 -207 -84q-72 -81 -99 -279l-10 -59h389
q88 26 136 26q26 0 35.5 -10t9.5 -35q0 -28 -45 -227l-84 -408q-31 -143 -31 -200q0 -54 59 -54q26 0 80 13l2 -11q-115 -75 -227 -75q-64 0 -64 71q0 37 35 209l70 322q47 233 47 270q0 23 -12 35q-8 8 -56 8h-356l-90 -510q-85 -478 -160 -627q-111 -221 -326 -221
q-76 0 -118 25q-29 16 -29 47q0 67 27 131z" />
    <glyph glyph-name="fl" unicode="fl" horiz-adv-x="1140" 
d="M-272 -254h12q27 -139 143 -139q91 0 146 88q69 111 149 588l105 618h-146l6 37q99 20 125 43q23 20 58 121q52 164 145 239q126 105 336 105q72 0 143 -23q90 23 121 23q23 0 30 -8t7 -33q0 -27 -41 -217l-186 -887q-27 -120 -27 -188q0 -54 57 -54q28 0 82 13l2 -11
q-118 -75 -223 -75q-67 0 -67 69q0 70 32 215l154 725q47 227 47 285q0 109 -170 109q-129 0 -205 -76q-84 -84 -114 -271l-13 -75h248l-14 -66h-246l-90 -518q-48 -264 -80 -399q-29 -123 -80 -220q-50 -104 -135.5 -162.5t-190.5 -58.5q-76 0 -118 25q-29 16 -29 47
q0 67 27 131z" />
    <glyph glyph-name="f_f_i" unicode="ffi" horiz-adv-x="1708" 
d="M-272 -254h10q27 -139 151 -139q85 0 140 88q73 118 149 588l105 618h-146l6 37q98 17 127 43q26 26 56 111q45 134 94 194q92 121 266 121q82 0 125 -16q37 -15 37 -45q0 -44 -39 -142h-12q-27 146 -133 146q-55 0 -98.5 -29t-61.5 -82q-33 -85 -53 -203l-15 -69h338
q70 0 90 20q24 24 47 103q59 174 133 245q117 111 342 111q91 0 162 -23q35 -9 35 -45q0 -83 -37 -184h-22q-30 195 -185 195q-132 0 -204 -84q-74 -80 -101 -279l-10 -59h389q90 22 135 22q26 0 35.5 -9.5t9.5 -33.5q0 -36 -43 -227l-86 -406q-30 -156 -30 -200
q0 -54 61 -54q23 0 80 13l2 -11q-118 -75 -229 -75q-64 0 -64 71q0 37 35 209l70 322q47 227 47 270q0 25 -13 35q-8 8 -55 8h-356l-86 -487q-82 -458 -160 -617q-111 -221 -324 -221q-76 0 -120 27q-27 15 -27 47q0 49 22 123h11q30 -133 157 -133q81 0 136 88
q69 112 149 587l100 586h-446l-90 -520q-76 -447 -160 -617q-111 -221 -326 -221q-76 0 -118 25q-29 16 -29 47q0 67 27 131z" />
    <glyph glyph-name="f_f_l" unicode="ffl" horiz-adv-x="1728" 
d="M-272 -254h8q27 -139 153 -139q85 0 138 84q72 123 151 592l105 618h-146l6 37q98 17 127 43q26 26 52 111q49 132 94 194q89 121 270 121q80 0 123 -16q39 -14 39 -43q0 -46 -39 -144h-12q-27 146 -133 146q-114 0 -164 -111q-40 -100 -54 -205l-10 -67h338q70 0 90 20
q18 18 47 109q52 169 146 247q124 103 334 103q75 0 149 -23q77 23 119 23q23 0 30 -8t7 -33q0 -42 -39 -217l-189 -887q-26 -116 -26 -188q0 -54 57 -54q28 0 82 13l2 -11q-118 -75 -223 -75q-33 0 -49.5 15.5t-17.5 55t6.5 85t25.5 128.5l156 725q45 210 45 283
q0 111 -170 111q-129 0 -205 -76q-85 -82 -115 -271l-12 -75h250l-12 -66h-250l-86 -487q-83 -472 -160 -623q-108 -215 -322 -215q-78 0 -122 27q-27 15 -27 47q0 49 22 123h11q30 -133 157 -133q84 0 133 81q70 107 152 594l100 586h-446l-90 -520q-49 -274 -80 -391
q-37 -142 -82 -232q-108 -215 -324 -215q-76 0 -118 25q-29 16 -29 47q0 67 27 131z" />
    <glyph glyph-name="f_b" unicode="fb" horiz-adv-x="1675" 
d="M-272 -254h10q27 -139 145 -139q91 0 146 88q73 121 149 588l105 618h-146l6 37q97 15 125 43q23 20 58 121q52 164 145 239q126 105 336 105q72 0 143 -23q77 23 121 23q23 0 29 -7t6 -32q0 -33 -39 -211l-31 -137l-53 -244l-33 -139q75 141 197 231q125 90 229 90
q106 0 151.5 -57.5t45.5 -198.5q0 -144 -62 -327q-58 -180 -161 -289q-142 -148 -338 -148q-173 0 -340 72q25 48 37 90q6 23 67 314l115 542q47 214 47 291q0 103 -170 103q-124 0 -203 -76q-86 -83 -116 -269l-13 -75h248l-14 -66h-246l-88 -520q-49 -275 -80 -391
q-36 -134 -80 -228q-52 -104 -137.5 -162.5t-190.5 -58.5q-76 0 -118 25q-29 16 -29 47q0 67 27 131zM842 109q0 -30 37 -48q47 -24 149 -24q141 0 232 125q64 85 114 268q51 179 51 297q0 98 -32 138t-93 40q-80 0 -186 -86q-104 -84 -162 -209q-23 -44 -49 -172l-45 -211
q-16 -82 -16 -118z" />
    <glyph glyph-name="f_f_b" unicode="ffb" horiz-adv-x="2254" 
d="M-272 -254h10q27 -139 151 -139q85 0 140 88q73 118 149 588l105 618h-146l6 37q99 15 127 43q26 26 52 111q48 129 98 194q92 121 266 121q82 0 125 -16q37 -15 37 -45q0 -44 -39 -142h-12q-27 146 -133 146q-114 0 -160 -111q-44 -103 -58 -205l-10 -67h338q70 0 90 20
q18 18 47 109q52 167 148 245q126 105 336 105q72 0 143 -23q90 23 121 23q23 0 30 -7.5t7 -31.5q0 -43 -39 -203l-58 -256q-53 -247 -61 -272q75 141 197 231q125 90 229 90q106 0 151.5 -57.5t45.5 -198.5q0 -144 -62 -327q-57 -178 -162 -289q-142 -148 -335 -148
q-173 0 -340 72q24 57 34 90q11 42 68 314l117 542q45 202 45 287q0 107 -170 107q-127 0 -203 -76q-87 -84 -117 -271l-12 -75h250l-12 -66h-250l-86 -487q-82 -458 -160 -617q-111 -221 -324 -221q-76 0 -120 27q-27 15 -27 47q0 49 22 123h11q30 -133 157 -133
q81 0 136 88q69 112 149 587l100 586h-446l-90 -520q-76 -447 -160 -617q-111 -221 -326 -221q-76 0 -118 25q-29 16 -29 47q0 67 27 131zM1432 109q0 -33 34 -48q46 -24 152 -24q137 0 231 125q66 87 115 268q49 183 49 297q0 98 -31 138t-92 40q-80 0 -186 -86
q-105 -83 -164 -209q-23 -44 -49 -172l-45 -211q-14 -63 -14 -118z" />
    <glyph glyph-name="f_f_h" unicode="ffh" horiz-adv-x="2263" 
d="M-272 -254h10q27 -139 151 -139q85 0 140 88q73 118 149 588l105 618h-146l6 37q98 17 127 43q26 26 52 111q48 129 98 194q92 121 266 121q82 0 125 -16q37 -15 37 -45q0 -44 -39 -142h-12q-27 146 -133 146q-114 0 -160 -111q-44 -103 -58 -205l-10 -67h338q70 0 90 20
q18 18 47 109q52 167 148 245q126 105 336 105q72 0 143 -23q90 23 119 23q23 0 31 -8t8 -31q0 -20 -37 -193q0 -6 -55 -256q-57 -259 -64 -280q69 135 193 225q125 94 239 94q80 0 116 -32.5t36 -112.5q0 -66 -107 -553q-26 -124 -26 -190q0 -50 63 -50q32 0 76 13l2 -11
q-118 -75 -223 -75q-66 0 -66 67q0 48 37 215q105 457 105 541q0 53 -19 74.5t-72 21.5q-77 0 -178 -78q-99 -77 -145 -155q-44 -74 -68 -189l-104 -483h-131l213 997q45 205 45 285q0 107 -170 107q-127 0 -203 -76q-87 -84 -117 -271l-12 -75h248l-12 -66h-248l-86 -487
q-48 -278 -80 -396q-29 -121 -78 -221q-111 -221 -326 -221q-76 0 -120 27q-27 15 -27 47q0 49 22 123h11q30 -133 157 -133q81 0 136 88q69 112 149 587l100 586h-446l-90 -520q-76 -447 -160 -617q-111 -221 -326 -221q-76 0 -118 25q-29 16 -29 47q0 67 27 131z" />
    <glyph glyph-name="f_f_j" unicode="ffj" horiz-adv-x="1693" 
d="M-272 -254h10q27 -139 151 -139q85 0 140 88q73 118 149 588l105 618h-146l6 37q102 21 127 43q26 26 52 111q48 129 98 194q92 121 266 121q82 0 125 -16q37 -15 37 -45q0 -44 -39 -142h-12q-27 146 -133 146q-114 0 -160 -111q-44 -103 -58 -205l-10 -67h338
q70 0 90 20q19 16 47 109q49 161 133 239q117 111 342 111q91 0 162 -23q35 -9 35 -45q0 -83 -37 -184h-22q-30 195 -185 195q-132 0 -204 -84q-74 -80 -101 -279l-10 -59h387q90 22 135 22q26 0 35.5 -9.5t9.5 -33.5q0 -13 -22 -139q-6 -35 -15 -79t-22 -106t-21 -104
l-47 -246q-76 -422 -176 -534q-107 -125 -272 -125q-54 0 -86 14q-33 17 -33 49q3 50 27 127h10q18 -125 125 -125q82 0 123 62q63 87 145 514l64 330q43 209 43 272q0 28 -15 37q-8 8 -55 8h-352l-88 -491q-52 -294 -78 -392q-36 -137 -80 -227q-112 -219 -324 -219
q-80 0 -123 27q-26 17 -26 47q0 46 24 123h11q35 -134 155 -134q79 0 138 89q69 112 149 587l100 590h-446l-90 -518q-79 -454 -160 -621q-51 -104 -136 -161.5t-190 -57.5q-76 0 -118 25q-29 16 -29 47q0 67 27 131z" />
    <glyph glyph-name="f_f_k" unicode="ffk" horiz-adv-x="2183" 
d="M-272 -254h10q27 -139 151 -139q85 0 140 88q73 118 149 588l105 618h-146l6 37q98 17 127 43q26 26 52 111q48 129 98 194q92 121 266 121q82 0 125 -16q37 -15 37 -45q0 -44 -39 -142h-12q-27 146 -133 146q-114 0 -160 -111q-44 -103 -58 -205l-10 -67h338q70 0 90 20
q18 18 47 109q52 167 148 245q126 105 336 105q72 0 143 -23q90 23 119 23q24 0 31.5 -8t7.5 -33q0 -54 -41 -215l-125 -524q44 112 162 223q114 108 250 108q78 0 126 -43.5t48 -122.5q0 -115 -94 -206t-279 -144q86 -171 182 -329q37 -56 70 -80q23 -23 61 -23q34 0 68 12
l6 -6q-38 -33 -94 -57.5t-99 -24.5q-65 0 -118 86q-87 150 -197 392l-131 -19l-94 -432h-131l215 997q45 199 45 291q0 49 -47.5 75t-122.5 26q-127 0 -203 -76q-87 -84 -117 -271l-12 -75h248l-12 -66h-248l-86 -487q-82 -458 -160 -617q-111 -221 -324 -221q-76 0 -120 27
q-27 15 -27 47q0 49 22 123h11q30 -133 157 -133q81 0 136 88q69 112 149 587l100 586h-446l-90 -520q-50 -274 -80 -389q-38 -144 -80 -230q-51 -104 -136 -161.5t-190 -57.5q-76 0 -118 25q-29 16 -29 47q0 67 27 131zM1511 535l-14 -68q233 28 359 121t126 217
q0 52 -29 79t-75 27q-112 0 -227 -127q-113 -125 -140 -249z" />
    <glyph glyph-name="f_h" unicode="fh" horiz-adv-x="1675" 
d="M-272 -254h10q27 -139 145 -139q91 0 146 88q69 111 149 588l105 618h-146l6 37q99 20 125 43q24 21 58 121q52 164 145 239q126 105 336 105q70 0 141 -23q94 23 123 23q24 0 29 -8q6 -6 6 -31q0 -31 -39 -209q-1 -3 -7.5 -32t-20.5 -90.5t-29 -131.5l-58 -266
q69 135 193 225q125 94 241 94q80 0 115 -32.5t35 -112.5q0 -75 -104 -553q-27 -129 -27 -190q0 -50 63 -50q32 0 76 13l2 -11q-121 -75 -223 -75q-66 0 -66 67q0 49 35 215q107 471 107 541q0 50 -20.5 73t-69.5 23q-80 0 -181 -78q-92 -71 -143 -155q-43 -69 -70 -191
l-104 -481h-131l213 1001q45 199 45 283q0 105 -170 105q-124 0 -203 -76q-86 -83 -116 -271l-13 -75h248l-14 -66h-246l-90 -516q-49 -273 -80 -393q-36 -140 -80 -228q-111 -221 -326 -221q-76 0 -118 25q-29 16 -29 47q0 67 27 131z" />
    <glyph glyph-name="f_j" unicode="fj" horiz-adv-x="1105" 
d="M-272 -254h10q27 -139 151 -139q85 0 140 88q73 118 149 588l105 618h-146l6 37q97 21 123 43q34 34 60 119q46 152 129 235q117 111 344 111q88 0 159 -23q37 -9 37 -45q0 -72 -37 -184h-24q-27 195 -182 195q-132 0 -207 -84q-72 -81 -99 -279l-10 -59h387
q90 22 138 22q25 0 34 -9.5t9 -33.5q0 -18 -138 -721q-79 -420 -174 -528q-107 -125 -260 -125q-117 0 -117 63q3 41 25 129h12q7 -67 36.5 -96.5t82.5 -29.5q71 0 117 61q63 87 143 512l74 377q43 218 43 266q0 31 -14 39q-8 8 -58 8h-352l-90 -510q-82 -469 -160 -627
q-111 -221 -326 -221q-76 0 -118 25q-29 16 -29 47q0 67 27 131z" />
    <glyph glyph-name="f_k" unicode="fk" horiz-adv-x="1597" 
d="M-272 -254h10q27 -139 145 -139q91 0 146 88q69 111 149 588l105 618h-146l6 37q97 15 125 43q23 20 58 121q52 164 145 239q126 105 336 105q72 0 143 -23q90 23 119 23q24 0 29 -8q8 -8 8 -33q0 -21 -41 -217q-49 -231 -123 -529q47 118 160 228q116 110 252 110
q81 0 127.5 -42t46.5 -124q0 -115 -94 -206t-279 -144q86 -171 182 -329q26 -42 70 -80q30 -23 61 -23q32 0 70 12l4 -6q-94 -82 -192 -82q-66 0 -119 86q-81 138 -197 392q-86 -15 -131 -19l-94 -432h-131l215 999q45 193 45 287q0 103 -170 103q-124 0 -203 -76
q-86 -83 -116 -271l-13 -75h250l-14 -66h-248l-90 -518q-48 -277 -80 -393q-30 -128 -78 -226q-52 -104 -137.5 -162.5t-190.5 -58.5q-76 0 -118 25q-29 16 -29 47q0 67 27 131zM924 535l-15 -68q236 28 362 121t126 217q0 49 -30.5 77.5t-76.5 28.5q-112 0 -227 -127
q-111 -123 -139 -249z" />
    <glyph glyph-name=".notdef" horiz-adv-x="999" 
d="M993 0h-987v1382h987v-1382zM164 1284l336 -504l336 504h-672zM895 1194l-338 -502l338 -504v1006zM500 602l-336 -504h672zM440 692l-336 502v-1006z" />
    <glyph glyph-name=".null" horiz-adv-x="0" 
 />
    <glyph glyph-name="nonmarkingreturn" horiz-adv-x="682" 
 />
    <glyph glyph-name="NULL" horiz-adv-x="0" 
 />
    <glyph glyph-name="NULL" horiz-adv-x="0" 
 />
    <glyph glyph-name="CR" unicode="&#xd;" horiz-adv-x="413" 
 />
    <glyph glyph-name="space" unicode=" " horiz-adv-x="475" 
 />
    <glyph glyph-name="exclam" unicode="!" horiz-adv-x="569" 
d="M559 1257l-237 -827h-27q63 449 94 842q5 68 26.5 101.5t80.5 33.5q77 0 77 -72q0 -35 -14 -78zM367 98q0 -52 -30 -85t-83 -33q-44 0 -72 27t-28 71q0 52 31.5 86.5t84.5 34.5q42 0 69.5 -29t27.5 -72z" />
    <glyph glyph-name="quotedbl" unicode="&#x22;" horiz-adv-x="694" 
d="M393 1325l-147 -418h-27q6 51 13 156t12 190t6 93q6 57 25 82.5t61 25.5q74 0 74 -61q0 -15 -17 -68zM713 1325l-148 -418h-26q9 86 18 260q3 51 5.5 96t3.5 64l1 19q9 108 88 108q74 0 74 -61q0 -18 -16 -68z" />
    <glyph glyph-name="numbersign" unicode="#" horiz-adv-x="1273" 
d="M424 426l-145 -461h-60l146 461h-244l18 119h264l89 282h-250l20 119h268l136 426h59l-135 -426h303l135 426h59l-135 -426h236l-21 -119h-252l-90 -282h240l-21 -119h-256l-145 -461h-61l145 461h-303zM854 827h-303l-88 -282h303z" />
    <glyph glyph-name="dollar" unicode="$" horiz-adv-x="1062" 
d="M477 -14l-35 -179h-63l35 177q-165 3 -256 57q-64 34 -64 76q0 80 23 192h16q19 -117 96 -188t195 -78l111 569l-91 56q-190 111 -190 299q0 159 109.5 260.5t314.5 118.5l39 200h63l-39 -196h13q148 0 223 -37q51 -20 51 -60q0 -67 -43 -186h-16q-17 110 -74 162.5
t-166 58.5l-104 -543l45 -26q250 -151 250 -344q0 -172 -117 -275.5t-326 -113.5zM772 324q0 75 -39.5 131t-140.5 123l-105 -535q68 5 120 26t82.5 50t50 67t26 71t6.5 67zM387 1020q0 -75 38.5 -127t141.5 -115l99 510q-128 -11 -203.5 -82t-75.5 -186z" />
    <glyph glyph-name="percent" unicode="%" horiz-adv-x="1673" 
d="M756 1104q0 -133 -43 -275q-44 -145 -129 -227q-92 -86 -209 -86q-234 0 -234 256q0 142 40.5 270.5t121.5 210.5q89 95 221 95q123 0 177.5 -62t54.5 -182zM641 1130q0 91 -25.5 130.5t-95.5 39.5q-82 0 -141 -83q-55 -82 -90 -222t-35 -243q0 -94 29.5 -139.5
t97.5 -45.5q73 0 135 86q49 66 88 228q37 154 37 249zM348 -31l967 1428l53 -35l-962 -1425zM1593 571q0 -132 -43 -274q-44 -146 -131 -227q-92 -86 -207 -86q-233 0 -233 256q0 142 40.5 270.5t121.5 210.5q88 94 221 94q123 0 177 -61.5t54 -182.5zM1479 598
q0 89 -26.5 129.5t-96.5 40.5q-79 0 -139 -84q-57 -85 -91 -221q-34 -133 -34 -244q0 -94 29.5 -139t97.5 -45q71 0 133 86q50 70 88 229q39 150 39 248z" />
    <glyph glyph-name="ampersand" unicode="&#x26;" horiz-adv-x="1441" 
d="M1354 115l8 -11q-128 -131 -225 -131q-56 0 -110.5 34.5t-133.5 117.5q-187 -152 -414 -152q-213 0 -321 111q-107 113 -107 264q0 293 375 422q-80 154 -80 268q0 168 109 261.5t295 93.5q134 0 219 -33q53 -21 53 -62q0 -66 -41 -194h-12q-21 119 -71.5 171t-154.5 52
q-118 0 -188 -68t-70 -190q0 -109 82 -252q53 -99 185 -285q137 -191 206 -260q55 55 111 158q57 102 57 158q0 41 -36 61q-44 23 -86 31l2 10h376l-2 -10q-53 -16 -71 -29q-34 -21 -84 -104q-132 -231 -221 -320q130 -151 233 -151q61 0 117 39zM848 172q-91 101 -217 277
q-123 172 -180 276q-242 -102 -242 -332q0 -144 93 -235.5t245 -91.5q180 0 301 106z" />
    <glyph glyph-name="quotesingle" unicode="'" horiz-adv-x="374" 
d="M393 1325l-147 -418h-27q11 105 19 260q3 51 5.5 96t3.5 64l1 19q6 58 24.5 83t63.5 25q74 0 74 -61q0 -15 -17 -68z" />
    <glyph glyph-name="parenleft" unicode="(" horiz-adv-x="593" 
d="M416 -238l-8 -12q-173 80 -258 254q-87 179 -87 389q0 367 166 662q168 294 498 420l8 -17q-270 -138 -409 -438q-138 -298 -138 -637q0 -190 60 -367q58 -170 168 -254z" />
    <glyph glyph-name="parenright" unicode=")" horiz-adv-x="593" 
d="M195 1464l8 11q173 -77 258 -252q86 -177 86 -389q0 -369 -168 -662q-167 -296 -496 -422l-8 17q272 139 410 438q139 301 139 639q0 190 -62 364q-57 172 -167 256z" />
    <glyph glyph-name="asterisk" unicode="*" horiz-adv-x="790" 
d="M479 786q-61 0 -61 56q0 19 10 49l84 192q-47 -25 -102 -65q-45 -31 -61.5 -41.5t-35.5 -19.5t-32 -9q-29 0 -45.5 16.5t-16.5 41.5q0 53 74 65q1 0 82 10q58 7 133 23q-44 26 -109 55l-75 39q-60 31 -60 68q0 26 18 44.5t46 18.5q32 0 71 -51q2 -3 46.5 -63.5
t72.5 -94.5q0 13 -4 111q-4 66 -4 96q0 88 61 88q64 0 64 -53q0 -21 -12 -51q-7 -20 -39 -92t-45 -105l108 70q46 31 61.5 41.5t33.5 18t34 7.5q58 0 58 -57q0 -35 -19 -49.5t-70 -22.5q-91 -11 -198 -26q53 -30 168 -86q73 -37 73 -76q0 -27 -18.5 -46.5t-44.5 -19.5
q-37 0 -74 52q-66 93 -119 159l7 -116q6 -65 6 -93q0 -84 -66 -84z" />
    <glyph glyph-name="plus" unicode="+" horiz-adv-x="1302" 
d="M721 504l-86 -436h-103l84 436h-421l20 104h422l86 434h102l-84 -434h422l-20 -104h-422z" />
    <glyph glyph-name="comma" unicode="," horiz-adv-x="452" 
d="M-51 -281l-8 17q206 126 206 229q0 42 -36 68q-45 36 -45 86q0 41 28.5 66.5t75.5 25.5q113 0 113 -129q0 -213 -334 -363z" />
    <glyph glyph-name="hyphen" unicode="-" horiz-adv-x="686" 
d="M588 592l-23 -115h-475l21 115h477z" />
    <glyph glyph-name="period" unicode="." horiz-adv-x="471" 
d="M260 96q0 -53 -30.5 -86t-84.5 -33q-44 0 -71 27.5t-27 71.5q0 52 32 86.5t85 34.5q44 0 70 -28t26 -73z" />
    <glyph glyph-name="slash" unicode="/" horiz-adv-x="745" 
d="M866 1479l-895 -1631l-63 31l897 1628z" />
    <glyph glyph-name="zero" unicode="0" horiz-adv-x="1089" 
d="M1057 954q0 -210 -72 -458q-71 -241 -209 -379q-144 -144 -330 -144q-192 0 -277 107t-85 319q0 215 66 441q69 225 204 366q145 154 346 154q193 0 275 -102t82 -304zM905 991q0 161 -46 234t-169 73q-131 0 -237 -139q-98 -130 -156 -364q-57 -228 -57 -428
q0 -171 49.5 -250.5t167.5 -79.5q134 0 233 141q92 130 152 387q63 255 63 426z" />
    <glyph glyph-name="one" unicode="1" horiz-adv-x="1089" 
d="M672 12l-2 -12h-463l2 12q51 3 102 29q68 36 88 147l164 846q23 125 23 168q0 51 -70 51q-76 0 -90 -2v21l346 94l8 -8q-43 -178 -102 -496l-129 -659q-10 -62 -10 -88q0 -47 45 -76q29 -14 88 -27z" />
    <glyph glyph-name="two" unicode="2" horiz-adv-x="1089" 
d="M817 0h-829l14 76q292 203 406 295q420 353 423 661q0 126 -66.5 195t-197.5 69q-113 0 -186.5 -55.5t-126.5 -169.5h-12q-1 25 -2 56t-1.5 48t-0.5 27q0 68 84 103q131 55 294 55q181 0 277 -85.5t96 -230.5q0 -108 -63 -249q-32 -70 -168 -222q-37 -43 -113 -104
l-115 -94q-91 -68 -124 -90l-117 -78l-117 -76l551 6q80 0 117 29q28 22 98 121h12q-17 -138 -49 -238q-8 -27 -26 -38t-58 -11z" />
    <glyph glyph-name="three" unicode="3" horiz-adv-x="1089" 
d="M80 279h14q8 -108 84.5 -175t208.5 -67q162 0 262 106q105 108 105 273q0 120 -73 190t-210 70h-68l13 61h73q140 0 226 68q119 88 119 264q0 99 -62 163t-168 64q-122 0 -195 -48.5t-124 -164.5h-13q-2 39 -2 134q0 59 84 90q142 53 291 53q163 0 253.5 -76t90.5 -201
q0 -150 -89 -244t-253 -130q131 -18 199.5 -93t68.5 -190q0 -214 -153 -334q-152 -119 -389 -119q-194 0 -295 64q-39 26 -39 69q0 52 41 173z" />
    <glyph glyph-name="four" unicode="4" horiz-adv-x="1089" 
d="M883 12l-2 -12h-441l2 12q65 11 109 37q57 35 74 139l32 185h-626l16 76l848 911h106l-88 -426l-86 -451h213l-22 -110h-215l-31 -180q-12 -62 -12 -84q0 -45 37 -66q30 -17 86 -31zM166 483h516q99 519 139 717q-82 -95 -655 -717z" />
    <glyph glyph-name="five" unicode="5" horiz-adv-x="1089" 
d="M90 283h14q5 -111 85.5 -178.5t218.5 -67.5q175 0 270 121q96 125 96 313q0 131 -70 204t-194 73q-156 0 -283 -74l-10 8l182 651h633l-26 -135h-379q-129 2 -203 2l-115 -401q85 55 252 55q169 0 274 -97t105 -261q0 -234 -149 -377q-152 -146 -398 -146q-200 0 -307 72
q-37 24 -37 59q0 45 41 179z" />
    <glyph glyph-name="six" unicode="6" horiz-adv-x="1089" 
d="M295 621q49 96 149.5 153t219.5 57q155 0 242 -86t87 -239q0 -224 -131 -379q-133 -154 -358 -154q-188 0 -282.5 113.5t-94.5 316.5q0 191 68 404q72 218 194 358q168 195 432 195q130 0 205 -35q55 -24 55 -68q0 -38 -47 -165h-12q-6 105 -54 154.5t-159 49.5
q-210 0 -338 -192q-109 -158 -176 -483zM279 485q-11 -101 -11 -129q0 -319 244 -319q159 0 242 133q84 137 84 324q0 116 -64 185t-168 69q-171 0 -274 -136q-41 -59 -53 -127z" />
    <glyph glyph-name="seven" unicode="7" horiz-adv-x="1089" 
d="M1094 1268l-738 -1305l-114 25q324 593 739 1214q-96 0 -229 -2h-353q-75 0 -118 -37q-31 -28 -82 -114h-13q3 10 9 63q15 112 28 170q6 29 23.5 40t56.5 11h799z" />
    <glyph glyph-name="eight" unicode="8" horiz-adv-x="1089" 
d="M696 715q120 -65 190 -155.5t70 -190.5q0 -189 -137 -293q-136 -103 -340 -103q-196 0 -301 97q-98 98 -98 231q0 284 373 389q-77 47 -122.5 129.5t-45.5 173.5q0 163 116 264q121 103 310 103q171 0 257.5 -75.5t86.5 -199.5q0 -130 -84 -219t-275 -151zM489 664
q-147 -60 -213.5 -143.5t-66.5 -211.5q0 -125 80 -198.5t207 -73.5q141 0 224 78t83 213q0 189 -314 336zM655 741q283 126 283 338q0 100 -61 159.5t-170 59.5q-133 0 -207 -72.5t-74 -191.5q0 -177 229 -293z" />
    <glyph glyph-name="nine" unicode="9" horiz-adv-x="1089" 
d="M852 707q-54 -97 -151 -151t-214 -54q-151 0 -241 93.5t-90 244.5q0 220 129 370q132 150 354 150q186 0 283.5 -112t97.5 -312q0 -202 -64 -418q-62 -218 -184 -358q-156 -187 -436 -187q-120 0 -213 43q-31 14 -43 29t-12 41q0 59 43 166h10q27 -213 237 -213t330 188
q94 145 164 480zM872 850q9 70 9 119q0 139 -58 233q-59 96 -186 96q-157 0 -242 -135q-86 -133 -86 -307q0 -122 64 -193t168 -71q174 0 272 131q53 71 59 127z" />
    <glyph glyph-name="colon" unicode=":" horiz-adv-x="514" 
d="M299 96q0 -52 -30 -85.5t-83 -33.5q-44 0 -72 27.5t-28 71.5q0 52 32 86.5t85 34.5q44 0 70 -28t26 -73zM449 860q0 -52 -30 -85.5t-83 -33.5q-44 0 -72 28t-28 71q0 52 31.5 86.5t84.5 34.5q44 0 70.5 -28t26.5 -73z" />
    <glyph glyph-name="semicolon" unicode=";" horiz-adv-x="514" 
d="M449 860q0 -52 -30 -85.5t-83 -33.5q-44 0 -72 28t-28 71q0 52 31.5 86.5t84.5 34.5q44 0 70.5 -28t26.5 -73zM-10 -281l-8 17q206 126 206 229q0 42 -36 68q-46 37 -46 86q0 41 29 66.5t76 25.5q113 0 113 -129q0 -213 -334 -363z" />
    <glyph glyph-name="less" unicode="&#x3c;" horiz-adv-x="1300" 
d="M1001 213l-22 -111l-758 404l19 96l917 412l-24 -125l-787 -340z" />
    <glyph glyph-name="equal" unicode="=" horiz-adv-x="1302" 
d="M1104 418l-21 -105h-942l21 105h942zM1180 793l-21 -105h-944l23 105h942z" />
    <glyph glyph-name="greater" unicode="&#x3e;" horiz-adv-x="1300" 
d="M303 897l23 113l757 -404l-18 -98l-920 -410l27 125l784 340z" />
    <glyph glyph-name="question" unicode="?" horiz-adv-x="835" 
d="M344 428h-29q4 21 7 72q3 53 6 69q8 77 45 133q40 57 153 136q176 129 176 307q0 194 -198 194q-97 0 -151 -45t-87 -145h-12q0 121 2 141q3 57 66 80q101 37 225 37q317 0 317 -258q0 -126 -69 -207q-73 -82 -213 -174q-120 -79 -150 -106q-38 -32 -57 -91
q-19 -56 -31 -143zM420 96q0 -51 -31 -85t-84 -34q-44 0 -71 27.5t-27 71.5q0 52 32 86.5t85 34.5q44 0 70 -28t26 -73z" />
    <glyph glyph-name="at" unicode="@" horiz-adv-x="1560" 
d="M1272 -33l18 -41q-238 -143 -522 -143q-293 0 -465 166q-170 167 -170 440q0 321 219 557q218 234 559 234q257 0 399 -136.5t142 -381.5q0 -123 -55 -248q-50 -121 -144 -205q-112 -100 -229 -100q-111 0 -111 120q0 71 29 160q-72 -129 -165.5 -203.5t-168.5 -74.5
q-145 0 -145 170q0 125 67 274q72 153 177 236q97 81 233 81q142 0 238 -45q-43 -58 -142 -442q-20 -76 -20 -149q0 -68 53 -68q78 0 154 88q68 75 112.5 188.5t44.5 212.5q0 217 -124.5 344t-352.5 127q-284 0 -485 -213q-199 -211 -199 -522q0 -263 156 -407
q158 -146 416 -146q145 0 253 31q102 28 228 96zM1044 772q0 30 -34 39q-41 12 -90 12q-79 0 -150 -59q-74 -65 -135 -205q-60 -142 -60 -254q0 -59 17.5 -85.5t56.5 -26.5q75 0 163 87.5t149 223.5q29 66 73 217q10 30 10 51z" />
    <glyph glyph-name="A" unicode="A" horiz-adv-x="1298" 
d="M270 12l-2 -12h-366l2 12q58 12 96 47q39 34 90 121l504 885l172 301h96l23 -147l22 -140l137 -876q18 -114 48 -148q22 -28 94 -43l-2 -12h-424l2 12q55 11 94 35q41 21 41 74q0 39 -6 82l-43 291h-496l-162 -295q-45 -80 -45 -113q0 -37 37 -49q40 -13 88 -25zM387 555
h451l-99 647q-71 -146 -352 -647z" />
    <glyph glyph-name="B" unicode="B" horiz-adv-x="1204" 
d="M481 0h-450l4 12q87 15 117 56q31 34 57 174l176 901q14 77 14 117q0 41 -23 58.5t-93 35.5l2 12h420q183 0 276 -43q62 -26 100.5 -87t38.5 -134q0 -306 -344 -383q144 -12 222.5 -90.5t78.5 -200.5q0 -296 -270 -387q-125 -41 -326 -41zM553 1227l-94 -484h112
q99 0 185 25q97 29 152 113t55 198q0 63 -27 115.5t-70 75.5q-72 35 -170 35h-67q-36 0 -52 -16.5t-24 -61.5zM551 682h-109l-98 -512q-6 -55 -6 -59q0 -40 43 -43q77 -5 154 -5q161 0 270 95q108 94 108 266q0 86 -45 150.5t-125 87.5q-70 20 -192 20z" />
    <glyph glyph-name="C" unicode="C" horiz-adv-x="1263" 
d="M1106 250l12 -2q-15 -100 -37 -162q-18 -41 -94 -68q-125 -45 -321 -45q-270 0 -408.5 142t-138.5 399q0 241 90.5 440t265.5 314q192 125 469 125q166 0 281 -47q53 -24 53 -60q0 -65 -51 -205h-13q-15 113 -55 162q-71 86 -237 86q-228 0 -390 -143
q-122 -104 -188 -285q-61 -174 -61 -369q0 -230 114 -362.5t322 -132.5q151 0 252 67q77 51 135 146z" />
    <glyph glyph-name="D" unicode="D" horiz-adv-x="1443" 
d="M535 0h-504l2 12q65 18 92.5 34t40.5 46q17 32 51 201l152 770q28 146 28 194q0 40 -24 59.5t-92 37.5l2 12h485q304 0 442 -106q164 -126 164 -386q0 -155 -29.5 -285.5t-94 -240.5t-161.5 -186.5t-237.5 -119t-316.5 -42.5zM537 1145l-175 -879q-19 -93 -16.5 -136.5
t37.5 -53.5q53 -17 164 -17q314 0 489 224q176 226 176 579q0 187 -84 297q-115 148 -372 148h-51q-94 0 -125 -25q-22 -19 -43 -137z" />
    <glyph glyph-name="E" unicode="E" horiz-adv-x="1099" 
d="M860 0h-829l2 12q85 20 114 49q35 35 62 183l174 899q14 71 14 114q0 34 -18 52q-24 24 -98 45l2 12h768q24 0 33.5 -8t9.5 -27q0 -51 -54 -215h-12q-15 147 -78 172q-35 15 -139 15h-188q-34 0 -50 -17t-22 -55l-94 -490h161q105 0 162 11q53 10 80.5 38t59.5 97h14
l-70 -350h-14q-2 64 -24 95.5t-76 41.5q-41 6 -142 6h-164l-94 -494q-10 -42 -10 -75q0 -43 82 -43h225q136 0 195 41q73 51 135 161h12q-13 -83 -43 -215q-10 -36 -26 -45.5t-60 -9.5z" />
    <glyph glyph-name="F" unicode="F" horiz-adv-x="1026" 
d="M498 12l-2 -12h-465l2 12q95 21 125 62q23 23 57 196l166 865q16 94 16 120q0 31 -14 48q-27 30 -102 51l2 12h764q45 0 45 -35q0 -47 -54 -215h-12q-15 155 -80 176q-42 11 -141 11h-182q-36 0 -50 -15t-22 -57l-96 -506h161q90 0 158 10q53 10 82 37.5t62 95.5h12
l-70 -352h-12q-2 62 -25.5 92.5t-79.5 40.5q-41 6 -139 6h-166l-71 -381q-21 -108 -21 -157q0 -37 32 -58.5t120 -46.5z" />
    <glyph glyph-name="G" unicode="G" horiz-adv-x="1402" 
d="M1124 25q-27 -3 -186 -27q-144 -25 -250 -25q-273 0 -421 145t-148 406q0 206 84 400q84 186 243 309q213 160 519 160q192 0 301 -50q31 -12 42 -24.5t11 -36.5q0 -44 -53 -201h-11q-9 72 -34 125q-67 123 -275 123q-262 0 -436 -168q-108 -102 -166.5 -266t-58.5 -348
q0 -234 115.5 -371t332.5 -137q160 0 219 47q26 20 35 82l35 170q18 102 18 151q0 44 -28 67t-101 44l2 10h416l-2 -10q-70 -24 -96 -57q-33 -41 -62 -201l-24 -137q-21 -99 -21 -180z" />
    <glyph glyph-name="H" unicode="H" horiz-adv-x="1521" 
d="M1294 12l-2 -12h-428l2 12q88 21 123 62q24 27 58 192l81 414h-684l-82 -416q-20 -103 -20 -162q0 -34 27 -53t92 -37l-2 -12h-426l2 12q85 20 121 62q22 25 57 192l164 836q20 100 20 160q0 40 -24.5 59t-89.5 33l2 12h426l-2 -12q-83 -18 -119 -54q-33 -33 -62 -192
l-71 -367h684l71 361q21 105 21 160q0 40 -25 59t-92 33l2 12h426l-2 -12q-83 -18 -119 -54q-32 -32 -61 -192l-166 -844q-18 -99 -18 -162q0 -34 26.5 -53t89.5 -37z" />
    <glyph glyph-name="I" unicode="I" horiz-adv-x="694" 
d="M461 12l-2 -12h-428l4 12q85 20 121 62q22 25 57 192l164 838q20 100 20 158q0 40 -24.5 59t-89.5 33l2 12h426l-2 -12q-83 -18 -119 -54q-33 -33 -62 -192l-166 -844q-20 -103 -20 -162q0 -34 27 -53t92 -37z" />
    <glyph glyph-name="J" unicode="J" horiz-adv-x="681" 
d="M-164 -102h12q12 -152 127 -152q79 0 123 72q42 74 109 413l170 875q20 97 20 154q0 39 -26 57t-95 37l3 12h430l-2 -12q-92 -22 -117 -54q-22 -29 -62 -192q-4 -16 -90 -467q-82 -431 -82 -436q-39 -186 -59 -244q-24 -80 -74 -145q-103 -142 -282 -142q-72 0 -101 13
q-33 11 -33 45q0 64 29 166z" />
    <glyph glyph-name="K" unicode="K" horiz-adv-x="1316" 
d="M455 12l-2 -12h-422l4 12q89 18 123 64q25 31 55 190l164 838q20 97 20 158q0 36 -25.5 54.5t-90.5 37.5l2 12h428l-4 -12q-94 -21 -119 -54q-32 -37 -62 -192l-88 -444q163 140 492 450q123 120 123 172q0 41 -109 68l2 12h397l-2 -12q-57 -15 -106 -51
q-60 -44 -139 -121l-432 -404q178 -328 276 -495q89 -146 152 -209q36 -36 112 -60l-2 -12q-86 -6 -164 -6q-68 0 -104 21.5t-74 86.5q-24 40 -100 175l-121 231l-92 180q-70 -63 -121 -102l-64 -324q-20 -97 -20 -160q0 -62 113 -92z" />
    <glyph glyph-name="L" unicode="L" horiz-adv-x="1085" 
d="M872 0h-841l2 12q89 21 114 49q32 32 62 183l166 846q22 123 22 170q0 39 -27.5 60t-86.5 34l2 12h426l-2 -12q-94 -21 -119 -54q-30 -41 -64 -204l-176 -903q-10 -68 -10 -80q0 -25 17.5 -35t64.5 -10h233q131 0 193 45q64 52 133 166h16q-17 -116 -43 -220
q-10 -36 -26.5 -47.5t-55.5 -11.5z" />
    <glyph glyph-name="M" unicode="M" horiz-adv-x="1742" 
d="M393 12l-2 -12h-371v12q71 16 115 54q30 27 64 170l209 913q16 88 16 108q0 41 -29 64q-24 21 -90 33l2 12h254q29 0 39 -7.5t14 -33.5q190 -958 209 -1067q80 152 617 1069q13 26 24 32.5t37 6.5h252l-2 -12q-89 -21 -111 -49q-31 -39 -43 -127l-145 -949
q-14 -104 -14 -120q0 -46 39 -66q23 -13 84 -31v-12h-437v12q71 13 109 45q41 30 59 146q50 295 158 1009l-672 -1159h-73q-174 900 -218 1157q-31 -153 -112 -524q-98 -449 -101 -467q-14 -66 -14 -108q0 -69 133 -99z" />
    <glyph glyph-name="N" unicode="N" horiz-adv-x="1470" 
d="M401 12l-2 -12h-368l4 12q88 24 123 68q23 23 59 199l154 784q28 149 28 194q0 40 -26 60q-29 22 -86 37l2 12h233q42 0 51 -25q422 -897 514 -1112l162 863q21 111 21 163q0 42 -29 64.5t-94 34.5l2 12h354l-2 -12q-94 -21 -121 -68q-24 -47 -53 -199l-219 -1101h-76
l-563 1239q-86 -503 -172 -942q-23 -122 -23 -174q0 -35 28.5 -56.5t98.5 -40.5z" />
    <glyph glyph-name="O" unicode="O" horiz-adv-x="1374" 
d="M1309 905q0 -212 -70 -422q-67 -210 -209 -346q-176 -164 -436 -164q-226 0 -350.5 140.5t-124.5 386.5q0 196 67 397q71 203 209 332q176 164 436 164q234 0 356 -125t122 -363zM1143 934q0 397 -320 397q-193 0 -329 -157q-102 -120 -158 -318q-53 -195 -53 -389
q0 -430 327 -430q193 0 324 162q97 123 153 338q56 213 56 397z" />
    <glyph glyph-name="P" unicode="P" horiz-adv-x="1175" 
d="M469 12l-2 -12h-434l2 12q93 21 121 60q19 25 55 186l166 848q20 94 20 151q0 36 -22 58q-30 27 -94 39l2 12h385q180 0 270 -23q221 -59 221 -290q0 -225 -150 -346t-409 -121q-101 0 -174 6l-66 -330q-18 -99 -18 -151q0 -36 27 -60q18 -18 100 -39zM553 1223
l-113 -568q50 -6 152 -6q185 0 295 106.5t110 288.5q0 172 -118 230q-67 31 -197 31h-53q-35 0 -51.5 -18.5t-24.5 -63.5z" />
    <glyph glyph-name="Q" unicode="Q" horiz-adv-x="1374" 
d="M1309 905q0 -212 -70 -422q-67 -210 -209 -346q-101 -95 -237 -137l59 -45l63 -49l62 -43q50 -34 65 -43q99 -54 140 -64q70 -24 147 -24q43 0 88 10l6 -12q-113 -84 -231 -84q-128 0 -238 67q-95 57 -344 260h-16q-226 0 -350.5 140.5t-124.5 386.5q0 196 67 397
q71 203 209 332q176 164 436 164q234 0 356 -125t122 -363zM1143 934q0 397 -320 397q-193 0 -329 -157q-102 -120 -158 -318q-53 -195 -53 -389q0 -430 327 -430q193 0 324 162q97 123 153 338q56 213 56 397z" />
    <glyph glyph-name="R" unicode="R" horiz-adv-x="1298" 
d="M463 12l-4 -12h-428l2 12q90 21 123 60q25 32 55 186l168 856q18 92 18 150q0 37 -28 57t-88 33l4 12h430q169 0 270 -49q154 -77 154 -264q0 -153 -92.5 -259.5t-262.5 -156.5q41 -35 74 -105q36 -69 39 -77q6 -13 23.5 -52.5t27.5 -62.5q13 -29 35 -74.5t29 -60.5
q42 -89 90.5 -134t118.5 -57l-2 -12q-85 -10 -136 -10q-105 0 -147 39q-45 39 -107 194q-89 217 -137 324q-19 37 -41.5 49t-77.5 12h-143l-68 -346q-20 -100 -20 -155q0 -22 12 -43q17 -32 109 -54zM551 1225l-109 -555h121q145 0 197 30q100 37 158 138q57 99 57 223
q0 120 -70 178q-34 27 -47 33q-59 33 -158 33h-69q-38 0 -53.5 -16t-26.5 -64z" />
    <glyph glyph-name="S" unicode="S" horiz-adv-x="1028" 
d="M96 311h17q25 -129 109 -201.5t216 -72.5q95 0 165.5 29t103.5 77q61 94 61 193q0 78 -55 141.5t-197 151.5l-86 53q-192 116 -192 315q0 181 130.5 288.5t372.5 107.5q143 0 228 -39q51 -20 51 -64q0 -59 -41 -184h-12q-17 118 -80 171.5t-189 53.5q-146 0 -235.5 -77.5
t-89.5 -202.5q0 -79 42 -134.5t152 -123.5l90 -56q133 -82 193.5 -165.5t60.5 -186.5q0 -191 -131 -301.5t-364 -110.5q-167 0 -277 58q-61 34 -61 86q0 68 18 194z" />
    <glyph glyph-name="T" unicode="T" horiz-adv-x="1181" 
d="M709 12l-2 -12h-441l2 12q100 21 127 62q26 33 60 196l184 942q6 38 6 54q0 37 -49 37h-113q-74 0 -137 -13q-44 -7 -83 -50.5t-93 -143.5h-12q13 139 32 223q6 27 16 37t34 10h989q47 0 47 -29q0 -71 -51 -239h-13q-12 96 -38 140t-70 52q-60 13 -131 13h-117
q-32 0 -44.5 -12.5t-18.5 -49.5l-189 -981q-18 -92 -18 -158q0 -63 123 -90z" />
    <glyph glyph-name="U" unicode="U" horiz-adv-x="1482" 
d="M266 1354l2 12h430l-2 -12q-102 -20 -131 -64q-22 -32 -43 -147l-114 -576q-29 -158 -29 -260q0 -128 81 -197t228 -69q236 0 350 147q42 54 66.5 132.5t56.5 238.5l105 526q20 97 20 166q0 48 -26.5 68.5t-98.5 34.5l2 12h375l-2 -12q-78 -15 -115 -49q-34 -34 -69 -205
l-101 -520q-37 -200 -67 -281q-36 -98 -94 -162q-150 -164 -445 -164q-67 0 -125.5 10.5t-113 35t-93.5 62t-62.5 95.5t-23.5 131q0 114 33 273l109 553q14 77 14 124q0 37 -26.5 58t-90.5 39z" />
    <glyph glyph-name="V" unicode="V" horiz-adv-x="1271" 
d="M582 0h-97l-26 168l-21 133l-137 862q-21 125 -51 152q-24 24 -90 39l4 12h428l-4 -12q-54 -13 -101 -33q-41 -18 -41 -74q0 -33 7 -84q111 -703 151 -991q30 65 518 983q41 80 41 117q0 39 -37 57q-38 16 -82 25l5 12h366l-2 -12q-50 -12 -94 -45q-49 -36 -102 -140
l-469 -860l-80 -145q-70 -129 -86 -164z" />
    <glyph glyph-name="W" unicode="W" horiz-adv-x="1916" 
d="M1067 1141l-573 -1141h-101q0 2 -20 317l-58 844q-9 130 -43 156q-25 25 -94 37l4 12h424l-2 -12q-58 -15 -100 -41q-35 -21 -35 -96q0 -16 10 -218l25 -438l22 -360l561 1132h93l86 -553q46 -277 59 -372l29 -207l411 964q27 65 27 103q0 36 -31 51q-30 20 -100 35l2 12
h379l-2 -12q-32 -6 -78 -31q-52 -27 -109 -156l-376 -850l-60 -129q-73 -163 -82 -188h-100q-72 495 -88 596l-53 362q-4 31 -14 93t-13 90z" />
    <glyph glyph-name="X" unicode="X" horiz-adv-x="1310" 
d="M322 12l-3 -12h-393l2 12q57 13 97 41q44 31 98 88l483 539l-250 524q-44 90 -69 115q-32 25 -72 35l2 12h422l-2 -12q-66 -16 -96 -29q-37 -15 -37 -43q0 -37 26 -90l195 -412l297 353q98 113 98 151q0 23 -18 35q-26 20 -90 35l2 12h364l-2 -12q-46 -14 -80 -41
q-15 -13 -92 -90l-448 -500l282 -582q30 -65 68 -92q39 -27 78 -37l-2 -12h-447l2 12q41 7 101 35q39 17 39 49q0 27 -25 82l-213 447q-26 -34 -344 -398q-90 -107 -90 -145q0 -24 20 -35q31 -19 97 -35z" />
    <glyph glyph-name="Y" unicode="Y" horiz-adv-x="1220" 
d="M723 12l-4 -12h-434l4 12q85 18 123 62q34 37 61 192l57 316l-237 598q-45 110 -74 139q-27 24 -76 35l2 12h418l-2 -12q-58 -11 -94 -27q-37 -15 -37 -49q0 -24 29 -100q163 -425 200 -531q45 71 379 520q58 79 58 117q0 32 -37 47q-27 14 -76 23l2 12h375l-2 -12
q-52 -10 -113 -60q-35 -26 -100 -110l-457 -590l-63 -332q-21 -102 -21 -156q0 -35 26 -55t93 -39z" />
    <glyph glyph-name="Z" unicode="Z" horiz-adv-x="1179" 
d="M969 0h-1037l2 12l1078 1291q-320 0 -570 -5q-108 -3 -145 -55q-30 -35 -80 -137h-14q20 158 28 205q6 31 17 43t37 12h958v-12l-1077 -1288q491 0 600 2q117 0 168 45q60 45 129 168h14q-13 -105 -47 -244q-6 -23 -18 -30t-43 -7z" />
    <glyph glyph-name="bracketleft" unicode="[" horiz-adv-x="591" 
d="M352 -219l-2 -12h-319l325 1677h320l-2 -12q-148 -27 -187 -66q-26 -26 -41 -108l-249 -1293q-13 -70 -13 -86q0 -45 41 -63q15 -8 127 -37z" />
    <glyph glyph-name="backslash" unicode="\" horiz-adv-x="825" 
d="M233 1505l496 -1632l-67 -20l-494 1632z" />
    <glyph glyph-name="bracketright" unicode="]" horiz-adv-x="591" 
d="M244 1434l2 12h321l-327 -1677h-320l2 12q152 27 187 65q26 26 41 109l249 1294q13 67 13 84q0 46 -41 64q-31 17 -127 37z" />
    <glyph glyph-name="asciicircum" unicode="^" horiz-adv-x="1300" 
d="M850 1282l207 -721h-109l-170 606l-405 -606h-117l489 721h105z" />
    <glyph glyph-name="underscore" unicode="_" horiz-adv-x="1021" 
d="M-104 -252l18 105h1020l-19 -105h-1019z" />
    <glyph glyph-name="grave" unicode="`" horiz-adv-x="411" 
d="M190 1444l175 -299l-9 -8l-262 217q-51 39 -51 80q0 28 22 46.5t52 18.5q39 0 73 -55z" />
    <glyph glyph-name="a" unicode="a" horiz-adv-x="1069" 
d="M954 72l4 -11q-115 -75 -219 -75q-71 0 -71 94q0 115 34 260q-79 -172 -198 -269.5t-230 -97.5q-97 0 -145.5 59t-48.5 201q0 169 80 367q79 199 207 295q138 102 317 102q183 0 291 -51q-57 -75 -148 -596q-20 -111 -20 -209q0 -82 61 -82q42 0 86 13zM782 920
q-36 20 -131 20q-113 0 -202 -80q-91 -82 -158 -270q-68 -192 -68 -332q0 -184 117 -184q83 0 178 84t160 219q42 86 113 422q11 50 10 80t-19 41z" />
    <glyph glyph-name="b" unicode="b" horiz-adv-x="1079" 
d="M78 49q28 65 35 90l67 312l119 555q49 235 49 299q0 43 -14 57q-19 22 -82 31v10q128 43 225 43q37 0 37 -35q0 -23 -41 -213l-55 -250q-52 -239 -62 -270q75 141 197 231q119 88 227 88q106 0 151.5 -57.5t45.5 -198.5q0 -146 -59 -329q-56 -175 -162 -287
q-142 -148 -338 -148q-173 0 -340 72zM250 109q0 -33 35 -48q47 -24 151 -24q139 0 230 125q64 85 114 268q51 179 51 297q0 98 -31.5 138t-92.5 40q-81 0 -187 -86t-164 -211q-19 -43 -47 -172l-43 -207q-16 -94 -16 -120z" />
    <glyph glyph-name="c" unicode="c" horiz-adv-x="835" 
d="M709 172l6 -4q-4 -22 -17 -47q-19 -31 -49 -58q-110 -90 -274 -90q-141 0 -217 82.5t-76 237.5q0 170 59 338q62 171 168 258q126 108 303 108q108 0 164 -26q37 -15 37 -43q0 -56 -43 -160h-10q-20 92 -59.5 132t-110.5 40q-119 0 -195 -88q-76 -82 -123 -231t-47 -295
q0 -135 58.5 -199t158.5 -64q152 0 267 109z" />
    <glyph glyph-name="d" unicode="d" horiz-adv-x="1091" 
d="M956 72l2 -11q-115 -75 -210 -75q-43 0 -61.5 21.5t-18.5 74.5q0 101 32 246q-84 -170 -202 -262.5t-226 -92.5q-99 0 -145.5 55.5t-46.5 196.5q0 170 78 373q81 203 204 295q137 104 314 104q94 0 149 -22l17 67q41 193 41 254q0 51 -13 64q-14 17 -82 33v10
q128 43 224 43q39 0 39 -37q0 -16 -43 -213l-117 -534q-82 -376 -82 -515q0 -88 57 -88q36 0 90 13zM682 375q33 79 106 420q14 56 13 83t-23 37q-45 25 -133 25q-114 0 -196 -82q-93 -93 -158 -274q-68 -189 -68 -330q0 -180 115 -180q80 0 180 80q99 80 164 221z" />
    <glyph glyph-name="e" unicode="e" horiz-adv-x="880" 
d="M711 170l6 -4q0 -15 -6 -27q-17 -35 -37 -55q-102 -111 -293 -111q-293 0 -293 334q0 146 55 301q54 156 152 258q131 131 311 131q223 0 223 -180q0 -120 -120 -223q-64 -55 -186.5 -88.5t-280.5 -34.5q-13 -63 -13 -141q0 -267 222 -267q147 0 260 107zM250 512
q221 12 340 96t119 213q0 123 -125 123q-114 0 -201.5 -115.5t-132.5 -316.5z" />
    <glyph glyph-name="f" unicode="f" horiz-adv-x="612" 
d="M-272 -252h10q13 -67 55 -104t98 -37q86 0 138 88q69 111 149 588l105 618h-146l6 37q99 20 125 43q37 32 58 115q45 164 112 237q101 113 277 113q93 0 139 -21q37 -15 37 -45q0 -35 -39 -145h-12q-35 154 -158 154q-99 0 -152 -80q-46 -69 -81 -273l-13 -69h223
l-12 -66h-223l-90 -518q-50 -274 -80 -389q-36 -140 -80 -234q-105 -217 -326 -217q-76 0 -118 25q-29 16 -29 47q0 59 27 133z" />
    <glyph glyph-name="g" unicode="g" horiz-adv-x="1077" 
d="M18 -205h13q10 -95 70.5 -145.5t158.5 -50.5q127 0 203 79q92 95 162 373q43 173 77 293q-88 -173 -206 -265.5t-226 -92.5q-96 0 -144 58.5t-48 199.5q0 166 80 358q80 196 202 289q135 106 326 106q193 0 285 -51q-24 -35 -58 -176l-28 -127l-31 -149l-27 -132
q-78 -380 -125 -501q-47 -127 -131 -205q-119 -113 -340 -113q-151 0 -213 45q-32 19 -32 54q0 53 32 153zM803 879q0 27 -25 39q-39 22 -129 22q-115 0 -203 -82q-85 -80 -157 -270q-68 -189 -68 -324q0 -182 117 -182q82 0 180 82q100 81 162 223q31 70 111 414
q12 50 12 78z" />
    <glyph glyph-name="h" unicode="h" horiz-adv-x="1095" 
d="M330 481l-105 -481h-131l213 1001q51 236 51 297q0 37 -8 56q-17 30 -88 39v10q125 43 225 43q23 0 31 -8t8 -31q0 -24 -39 -199l-30 -139q-10 -49 -31 -135.5t-27 -114.5q-29 -130 -34 -141q68 134 194 225q125 94 244 94q80 0 115.5 -32.5t35.5 -112.5q0 -75 -104 -553
q-27 -129 -27 -190q0 -50 62 -50q34 0 78 13l2 -11q-121 -75 -224 -75q-65 0 -65 67q0 47 35 213q106 467 106 543q0 53 -20 74.5t-74 21.5q-76 0 -180 -78q-94 -73 -144 -155q-41 -66 -69 -191z" />
    <glyph glyph-name="i" unicode="i" horiz-adv-x="548" 
d="M414 72l2 -11q-115 -75 -228 -75q-65 0 -65 71q0 50 37 211l69 320q45 210 45 274q0 35 -10 45q-16 22 -90 25v10q118 47 211 47q28 0 37.5 -9.5t9.5 -33.5q0 -30 -43 -227l-86 -406q-29 -142 -29 -200q0 -54 58 -54q28 0 82 13zM508 1346q0 -55 -28 -88t-77 -33
q-41 0 -64.5 23.5t-23.5 64.5q0 50 30 82t79 32q38 0 61 -22t23 -59z" />
    <glyph glyph-name="j" unicode="j" horiz-adv-x="530" 
d="M-236 -254h15q21 -135 121 -135q69 0 114 63q50 73 121 435l90 469q47 255 47 276q0 41 -12 53q-16 22 -90 25v10q125 49 217 49q25 0 34 -11t9 -38q0 -15 -162 -825q-44 -215 -69 -295q-30 -95 -78 -152q-101 -125 -264 -125q-43 0 -86 17q-33 17 -33 51q3 52 26 133z
M496 1346q0 -55 -28 -88t-77 -33q-41 0 -64.5 23.5t-23.5 64.5q0 50 30 82t79 32q38 0 61 -22t23 -59z" />
    <glyph glyph-name="k" unicode="k" horiz-adv-x="1011" 
d="M319 432l-94 -432h-131l215 999q51 236 51 301q0 48 -14 62q-19 19 -82 31v10q125 43 228 43q34 0 34 -41q0 -29 -41 -213q-43 -194 -127 -533q50 122 162 228q113 110 250 110q78 0 126 -43.5t48 -122.5q0 -115 -94 -206t-277 -144q112 -217 181 -329q38 -58 69 -80
q23 -23 62 -23q33 0 67 12l6 -6q-38 -33 -93.5 -57.5t-98.5 -24.5q-64 0 -117 86q-85 146 -198 392q-84 -14 -132 -19zM340 526l-12 -59q233 28 358 121t125 217q0 52 -29 79t-75 27q-113 0 -226 -131q-114 -129 -141 -254z" />
    <glyph glyph-name="l" unicode="l" horiz-adv-x="557" 
d="M406 72l2 -11q-121 -75 -224 -75q-65 0 -65 69q0 49 35 215l153 725q51 233 51 308q0 44 -12 59q-16 22 -82 31v10q125 43 219 43q25 0 33 -8t8 -31q0 -16 -43 -219l-188 -881q-29 -155 -29 -194q0 -54 60 -54q25 0 82 13z" />
    <glyph glyph-name="m" unicode="m" horiz-adv-x="1628" 
d="M334 487l-105 -487h-131l111 518q49 229 49 324q0 48 -12 63q-15 24 -94 27v10q103 47 210 47q31 0 40.5 -12t9.5 -53q0 -68 -56 -275q59 140 181 244q125 104 247 104q76 0 109 -32t33 -115q0 -66 -31 -199q59 142 182 244q126 102 248 102q78 0 114 -33.5t36 -115.5
q0 -53 -103 -541q-29 -148 -29 -194q0 -54 60 -54q30 0 80 13l2 -11q-118 -75 -225 -75q-64 0 -64 71q0 55 35 213q106 455 106 531q0 56 -18.5 80t-67.5 24q-86 0 -174 -76q-87 -73 -135 -157q-45 -75 -68 -178l-108 -494h-131l115 510q47 211 47 297q0 52 -19.5 75
t-68.5 23q-77 0 -172 -80q-92 -80 -142 -163q-33 -55 -61 -175z" />
    <glyph glyph-name="n" unicode="n" horiz-adv-x="1112" 
d="M334 483l-105 -483h-131l113 524q47 230 47 324q0 42 -12 57q-21 24 -94 27v10q103 47 210 47q30 0 41 -11.5t11 -43.5q0 -82 -54 -281q60 140 191 242q132 102 256 102q80 0 115.5 -32.5t35.5 -112.5q0 -75 -104 -553q-27 -120 -27 -182q0 -58 60 -58q13 0 80 13l2 -11
q-118 -75 -226 -75q-63 0 -63 69q0 53 35 211q106 455 106 543q0 52 -21 74t-71 22q-76 0 -180 -78q-95 -71 -146 -155q-44 -69 -69 -189z" />
    <glyph glyph-name="o" unicode="o" horiz-adv-x="999" 
d="M895 664q0 -143 -41 -295q-39 -145 -127 -250q-122 -146 -324 -146q-153 0 -235 95t-82 268q0 156 50.5 303.5t146.5 243.5q120 114 301 114q311 0 311 -333zM758 698q0 129 -41 188.5t-146 59.5q-112 0 -194 -104q-71 -93 -115 -252q-41 -158 -41 -295q0 -270 191 -270
q149 0 225 143q50 95 86 256q35 158 35 274z" />
    <glyph glyph-name="p" unicode="p" horiz-adv-x="1085" 
d="M313 -440l-2 -11h-422l2 11q79 25 103 59q33 45 59 176l144 670q57 266 57 387q0 39 -14 53q-21 24 -93 27v10q109 47 211 47q31 0 41.5 -11.5t10.5 -43.5q0 -72 -52 -279q70 155 195 248q122 94 233 94q106 0 153.5 -57.5t47.5 -196.5q0 -146 -61 -329
q-57 -178 -162 -289q-142 -148 -350 -148q-112 0 -185 31l-43 -207q-18 -82 -18 -137q0 -42 28 -61t117 -43zM258 111q0 -29 29 -45q56 -29 155 -29q144 0 236 127q63 83 113 268q51 179 51 297q0 176 -127 176q-82 0 -185 -86q-98 -79 -159 -211q-23 -51 -49 -166l-46 -211
q-18 -79 -18 -120z" />
    <glyph glyph-name="q" unicode="q" horiz-adv-x="1071" 
d="M797 -440l-2 -11h-430l2 11q108 27 141 63q37 43 67 187l111 495q-87 -166 -199 -249t-215 -83q-97 0 -144.5 58.5t-47.5 201.5q0 167 80 365q80 201 205 295q134 104 313 104q171 0 293 -51q-34 -64 -72 -241l-190 -885q-23 -118 -23 -164q0 -35 24 -55t87 -41zM801 879
q0 29 -23 39q-39 20 -127 20q-112 0 -202 -78q-88 -79 -158 -272q-68 -192 -68 -324q0 -100 26.5 -145t90.5 -45q85 0 186 88q98 85 164 233q29 68 101 402q10 52 10 82z" />
    <glyph glyph-name="r" unicode="r" horiz-adv-x="792" 
d="M319 420l-90 -420h-131l113 524q45 210 45 324q0 42 -12 57q-15 24 -97 27v10q109 47 211 47q31 0 42.5 -11t11.5 -48q0 -91 -52 -283q57 137 152 246q91 104 199 104q34 0 57 -10q20 -9 20 -37q0 -47 -45 -149h-12q-12 82 -86 82q-126 0 -246 -221q-43 -82 -80 -242z
" />
    <glyph glyph-name="s" unicode="s" horiz-adv-x="757" 
d="M57 231l11 -2q17 -89 87.5 -143.5t153.5 -54.5q106 0 164.5 46.5t58.5 135.5q0 57 -35.5 103t-129.5 106l-64 43q-82 56 -117.5 111.5t-35.5 128.5q0 135 103.5 213.5t276.5 78.5q94 0 158 -24q39 -12 39 -49q0 -49 -39 -150h-12q-12 86 -59.5 127t-133.5 41
q-102 0 -161.5 -51.5t-59.5 -136.5q0 -90 133 -179l64 -40q109 -74 151.5 -129.5t42.5 -131.5q0 -140 -100.5 -220.5t-267.5 -80.5q-145 0 -222 56q-28 22 -28 55q0 57 22 147z" />
    <glyph glyph-name="t" unicode="t" horiz-adv-x="624" 
d="M506 96l6 -2q0 -17 -14 -37q-8 -17 -39 -37q-61 -43 -150 -43q-170 0 -170 164q0 52 25 168l121 592h-142l11 37q67 11 125 35q36 19 65 76q36 83 66 161h71l-47 -243h221l-12 -66h-225l-121 -592q-23 -115 -23 -180q0 -38 24.5 -60t63.5 -22q74 0 144 49z" />
    <glyph glyph-name="u" unicode="u" horiz-adv-x="1116" 
d="M983 72l2 -11q-106 -75 -207 -75q-44 0 -62 22t-18 74q0 91 33 237q-67 -137 -194 -243q-127 -103 -252 -103q-80 0 -118 35t-38 119q0 60 104 528q31 152 31 201q0 35 -18 53q-20 20 -90 23v8q38 20 104 35q60 14 105 14q31 0 43 -10.5t12 -40.5q0 -46 -45 -233
q-107 -465 -107 -539q0 -51 19.5 -71.5t72.5 -20.5q84 0 172 73q92 73 144 156q63 97 84 199l98 469h129l-108 -518q-43 -203 -43 -306q0 -84 63 -84q43 0 84 9z" />
    <glyph glyph-name="v" unicode="v" horiz-adv-x="956" 
d="M301 -8h-82l-2 807q0 92 -24 110q-27 21 -91 27l-2 8q109 53 211 53q34 0 37 -43q2 -20 2 -116q-3 -664 -6 -729q221 267 330 432q74 110 117 206t43 142q0 32 -41 41q-24 8 -60 8l-2 6q100 53 180 53q41 0 41 -34q0 -108 -159 -357q-139 -213 -492 -614z" />
    <glyph glyph-name="w" unicode="w" horiz-adv-x="1400" 
d="M309 -8h-84l-6 803q0 96 -24 114q-27 21 -91 27v8q109 53 209 53q36 0 39 -45q2 -20 2 -114q0 -24 -6 -355q-1 -95 -2 -181t-1.5 -127t-0.5 -46q307 559 406 770h86q41 -336 86 -786q149 255 223 397q63 118 103 227t40 150q0 34 -43 43q-31 8 -65 8l-2 6q100 53 180 53
q39 0 39 -36q0 -112 -178 -437q-90 -168 -326 -532h-84l-80 729q-137 -273 -420 -729z" />
    <glyph glyph-name="x" unicode="x" horiz-adv-x="978" 
d="M-23 154h11q15 -66 59 -66q48 0 113 68q115 125 268 331l-94 263q-50 133 -76 153q-21 12 -53 12q-28 0 -55 -6l-5 9q122 79 201 79q34 0 49 -34q30 -61 62 -162l82 -236q146 208 239 316q94 116 176 116q62 0 62 -47q0 -22 -29 -123h-10q-21 62 -64 62q-45 0 -112 -76
q-136 -156 -244 -297l94 -254q53 -140 86 -184q23 -29 62 -29q13 0 65 10l4 -10q-107 -76 -196 -76q-47 0 -74 56q-27 52 -57 141l-95 266q-136 -206 -270 -364q-88 -99 -160 -99q-61 0 -61 50q0 48 22 131z" />
    <glyph glyph-name="y" unicode="y" horiz-adv-x="952" 
d="M-172 -309h12q21 -90 76 -90q62 0 137 69q100 85 260 312h-59l-39 815q-3 93 -33 116q-27 17 -90 23l-2 8q103 53 209 53q34 0 43 -45q8 -58 8 -118q27 -665 29 -781q216 337 305 496q137 238 137 330q0 40 -43 49q-36 8 -59 8l-2 8q39 23 98.5 38t93.5 15q43 0 43 -34
q0 -88 -151 -342q-110 -188 -408 -629q-179 -257 -274 -357q-128 -143 -236 -143q-78 0 -78 62q0 43 23 137z" />
    <glyph glyph-name="z" unicode="z" horiz-adv-x="903" 
d="M41 49l-43 -45l-39 33q306 333 803 823q-356 0 -436 -6q-95 -3 -125 -55q-21 -38 -35 -76l-12 2q5 88 16 186q6 38 19 49t55 11h669l7 -15l-789 -804q103 -3 303 -27q52 -6 109.5 -12t80.5 -8.5t27 -2.5q52 0 87 27t65 94l10 -2q-12 -143 -39 -201q-18 -43 -104 -43
q-42 0 -289 35q-240 37 -340 37z" />
    <glyph glyph-name="braceleft" unicode="{" horiz-adv-x="624" 
d="M397 -223l-4 -13q-163 0 -234 44t-71 147q0 62 14 125l52 250q16 94 16 131q0 146 -135 155l4 15q106 9 154 76q44 61 75 229l39 211q30 164 111 233q83 68 299 68v-12q-131 -12 -191 -66q-56 -53 -86 -217l-49 -254q-23 -128 -78.5 -192t-165.5 -89q78 -17 113 -56.5
t35 -112.5q0 -49 -12 -111l-50 -248q-16 -88 -16 -135q0 -166 180 -178z" />
    <glyph glyph-name="bar" unicode="|" horiz-adv-x="530" 
d="M494 1485l-330 -1706h-109l332 1706h107z" />
    <glyph glyph-name="braceright" unicode="}" horiz-adv-x="624" 
d="M231 1436l5 12q163 0 234 -44t71 -147q0 -57 -15 -127l-51 -247q-16 -94 -16 -131q0 -149 135 -158l-4 -12q-106 -12 -154 -78q-46 -64 -76 -228l-38 -213q-30 -163 -113 -231q-80 -68 -297 -68v13q132 12 188 65q58 52 88 217l50 254q23 126 79 191t164 88
q-78 19 -112.5 59t-34.5 113q0 48 12 110l49 248q17 87 17 133q0 166 -181 181z" />
    <glyph glyph-name="asciitilde" unicode="~" horiz-adv-x="1290" 
d="M217 389l-70 66q156 194 308 194q73 0 221 -92q109 -68 182 -68q57 0 106.5 37t112.5 125l76 -61q-147 -205 -303 -205q-89 0 -211 76q-131 82 -195 82q-112 0 -227 -154z" />
    <glyph glyph-name="exclamdown" unicode="&#xa1;" horiz-adv-x="569" 
d="M-2 -270l238 827h26q-76 -532 -96 -844q-6 -73 -28 -104t-79 -31q-77 0 -77 74q0 22 16 78zM188 887q0 53 30.5 87t84.5 34q44 0 71 -27.5t27 -71.5q0 -52 -31.5 -86.5t-84.5 -34.5q-43 0 -70 28t-27 71z" />
    <glyph glyph-name="cent" unicode="&#xa2;" horiz-adv-x="1062" 
d="M547 -4l-37 -189h-61l36 189q-147 6 -227 96t-80 246q0 173 72 340q71 165 196 256q108 83 242 104l39 199h61l-36 -193q15 3 55 3q95 0 151 -29q35 -18 35 -45q0 -37 -41 -158h-10q-17 93 -59.5 132.5t-128.5 39.5h-15l-174 -899h19q159 0 278 107l6 -5q-3 -28 -16 -47
q-21 -35 -57 -59q-104 -82 -248 -88zM336 369q0 -221 170 -271l170 879q-79 -18 -144 -80q-86 -83 -141 -231q-55 -149 -55 -297z" />
    <glyph glyph-name="sterling" unicode="&#xa3;" horiz-adv-x="1208" 
d="M885 647l-19 -78h-319l-4 -43q-21 -156 -88 -245q-65 -86 -201 -148q109 0 246 2l327 6q88 0 134 37q37 27 90 113h10q-18 -159 -49 -238q-10 -30 -34 -41.5t-75 -11.5h-885l17 86q52 8 106 31q107 48 165 137.5t83 247.5l6 67h-207l19 78h192q3 227 15 307
q65 406 510 406q131 0 219 -31q41 -18 41 -61q0 -60 -47 -187h-11q-18 115 -63.5 165t-151.5 50q-151 0 -230 -85t-103 -255q0 -2 -4 -31.5t-5 -50.5q-1 -36 -7 -121t-7 -106h330z" />
    <glyph glyph-name="currency" unicode="&#xa4;" horiz-adv-x="1110" 
d="M997 315l-84 -82l-114 117q-89 -71 -217 -71q-126 0 -215 71l-117 -117l-82 82l119 119q-72 97 -72 221q0 119 70 217l-119 119l86 84l117 -114q87 69 215 69q132 0 219 -69l115 112l77 -78l-116 -116q71 -89 71 -224q0 -127 -71 -219zM848 655q0 122 -76 201
q-76 82 -188 82q-116 0 -192.5 -80t-76.5 -199q0 -125 76.5 -206.5t194.5 -81.5q117 0 189.5 80t72.5 204z" />
    <glyph glyph-name="yen" unicode="&#xa5;" horiz-adv-x="1271" 
d="M1055 477l-15 -59h-372l-33 -168q-17 -90 -17 -146q0 -38 26.5 -58t92.5 -34l-2 -12h-426l2 12q92 15 121 58q31 39 57 180l33 168h-338l13 59h335l21 98l-49 121h-266l14 60h227l-157 383q-47 118 -74 145q-25 25 -82 37l2 12h430l-2 -12q-33 -7 -92 -31
q-41 -15 -41 -49q0 -32 31 -111q143 -352 188 -479l360 473q44 61 58.5 97t6.5 51.5t-36 25.5q-10 6 -70 23l3 12h368l-2 -12q-51 -9 -115 -64q-43 -43 -102 -114l-315 -387h272l-14 -60h-305l-89 -108l-22 -111h375z" />
    <glyph glyph-name="brokenbar" unicode="&#xa6;" horiz-adv-x="495" 
d="M483 1380l-125 -641h-122l124 641h123zM307 477l-125 -639h-123l125 639h123z" />
    <glyph glyph-name="section" unicode="&#xa7;" horiz-adv-x="1015" 
d="M63 -74h13q4 -99 70.5 -160t166.5 -61q122 0 200.5 69.5t78.5 188.5q0 108 -115 211l-203 176q-131 113 -131 240q0 118 82 191.5t213 78.5q-108 92 -108 244q0 158 123 246q125 90 301 90q117 0 186 -29q55 -27 55 -59q0 -49 -47 -170h-12q-20 101 -67.5 147.5
t-143.5 46.5q-111 0 -185.5 -61.5t-74.5 -169.5q0 -112 125 -219l158 -142q159 -141 159 -260q0 -117 -86 -194q-86 -74 -213 -74q125 -113 125 -252q0 -165 -123 -264q-122 -98 -305 -98q-162 0 -239 53q-39 26 -39 59q0 68 36 172zM373 465l133 -115q47 -47 98 -47
q42 0 80 21q94 52 94 155q0 84 -106 174l-133 121q-58 49 -93 49q-54 0 -112 -49q-66 -57 -66 -137q0 -81 105 -172z" />
    <glyph glyph-name="dieresis" unicode="&#xa8;" horiz-adv-x="407" 
d="M135 1296q0 -42 -26.5 -70t-67.5 -28q-36 0 -58 22t-22 58q0 47 26.5 74.5t71.5 27.5q35 0 55.5 -23t20.5 -61zM444 1296q0 -42 -26.5 -70t-67.5 -28q-36 0 -58 22t-22 58q0 44 28 73t71 29q35 0 55 -22.5t20 -61.5z" />
    <glyph glyph-name="copyright" unicode="&#xa9;" horiz-adv-x="1705" 
d="M874 -29q-305 0 -507 205q-203 206 -203 512q0 308 203 514q204 207 505 207q306 0 510 -207q205 -205 205 -514q0 -306 -203 -512q-202 -205 -510 -205zM872 1350q-276 0 -458 -191q-183 -189 -183 -471q0 -280 183 -469q182 -188 460 -188q281 0 461 186
q183 189 183 471t-183 471q-182 191 -463 191zM1094 453h10q-14 -88 -25 -121q-9 -27 -53 -39q-85 -31 -199 -31q-170 0 -261 89t-91 249q0 264 172 408q124 106 332 106q107 0 172 -27q35 -15 35 -43q0 -34 -33 -143h-12q-9 61 -31 98q-42 60 -152 60q-155 0 -243 -101
q-115 -130 -115 -346q0 -299 256 -299q88 0 156 45q46 28 82 95z" />
    <glyph glyph-name="ordfeminine" unicode="&#xaa;" horiz-adv-x="690" 
d="M702 578l3 -7q-71 -47 -138 -47q-30 0 -43.5 14t-13.5 48q0 70 20 149q-121 -219 -270 -219q-63 0 -94 34.5t-31 121.5q0 99 49 215q53 120 127 180q84 66 203 66q131 0 201 -33q-38 -44 -90 -352q-15 -77 -15 -130q0 -45 39 -45q13 0 53 5zM590 1057q0 17 -19 26
q-32 13 -73 13q-65 0 -115 -47q-55 -47 -100 -164q-41 -115 -41 -201q0 -102 67 -102q48 0 106.5 49t98.5 127q17 33 70 252q6 27 6 47z" />
    <glyph glyph-name="guillemotleft" unicode="&#xab;" horiz-adv-x="905" 
d="M106 557l426 352l11 -12l-328 -393l172 -408l-12 -6l-285 361q-18 27 -18 45q0 31 34 61zM479 557l424 352l10 -12l-327 -393l172 -408l-13 -6l-284 361q-19 28 -19 45q0 31 37 61z" />
    <glyph glyph-name="logicalnot" unicode="&#xac;" horiz-adv-x="1302" 
d="M1147 578l-109 -537h-104l90 432h-850l19 105h954z" />
    <glyph glyph-name="uni00AD" unicode="&#xad;" horiz-adv-x="686" 
d="M588 592l-23 -115h-475l21 115h477z" />
    <glyph glyph-name="registered" unicode="&#xae;" horiz-adv-x="1705" 
d="M874 -29q-305 0 -507 205q-203 206 -203 512q0 308 203 514q204 207 505 207q306 0 510 -207q205 -205 205 -514q0 -306 -203 -512q-202 -205 -510 -205zM872 1350q-276 0 -458 -191q-183 -189 -183 -471q0 -280 183 -469q182 -188 460 -188q281 0 461 186
q183 189 183 471t-183 471q-182 191 -463 191zM776 299v-8h-295v8q59 15 80 39q19 23 37 119l94 499q10 58 10 88q0 21 -6 27q-10 20 -67 35l4 8h278q109 0 170 -22q121 -47 121 -174q0 -191 -227 -240q32 -11 63 -66l25 -49q2 -4 7.5 -16.5t12.5 -28t13 -31.5l37 -81
q23 -48 51.5 -70t79.5 -33l-2 -10q-85 -10 -103 -10q-72 0 -98 26q-36 28 -74 133q-52 145 -69 176q-18 35 -82 35h-86l-39 -198q-12 -67 -12.5 -90t10.5 -33q15 -21 67 -33zM817 1014l-57 -314h76q77 0 120 19q125 58 125 201q0 78 -49 112q-48 31 -125 31h-41
q-24 0 -34 -11t-15 -38z" />
    <glyph glyph-name="overscore" unicode="&#xaf;" horiz-adv-x="407" 
d="M459 1311l-25 -105h-487l26 105h486z" />
    <glyph glyph-name="degree" unicode="&#xb0;" horiz-adv-x="659" 
d="M180 1122q0 123 82 205q83 86 207 86q109 0 177.5 -71t68.5 -183q0 -125 -82 -207q-84 -84 -203 -84q-108 0 -179 72.5t-71 181.5zM463 1348q-88 0 -149.5 -63.5t-61.5 -160.5q0 -83 51.5 -137.5t132.5 -54.5q91 0 151 64t60 159q0 85 -51 139t-133 54z" />
    <glyph glyph-name="plusminus" unicode="&#xb1;" horiz-adv-x="1300" 
d="M735 686l-80 -416h-106l82 416h-420l20 100h418l82 416h105l-82 -416h420l-21 -100h-418zM1053 102l-21 -102h-940l17 102h944z" />
    <glyph glyph-name="twosuperior" unicode="&#xb2;" 
d="M643 881h-522l10 49q105 68 160 110q59 42 153 127q185 167 185 334q0 70 -38.5 110t-115.5 40q-75 0 -116 -30t-78 -105h-9q-2 23 -2 88q3 44 49 59q73 33 191 33q116 0 178 -52t62 -139q0 -119 -115 -252q-49 -52 -125 -108q-67 -51 -129 -92q-38 -25 -133 -82
q164 4 342 4q54 0 78 18q21 15 57 76h10q-6 -79 -37 -158q-9 -30 -55 -30z" />
    <glyph glyph-name="threesuperior" unicode="&#xb3;" 
d="M178 1053h8q5 -63 54 -101.5t135 -38.5q99 0 160 61.5t61 160.5q0 65 -45.5 105t-128.5 40h-41l8 45h43q86 0 139 41q68 53 68 156q0 58 -35.5 93.5t-99.5 35.5q-147 0 -203 -127h-8q0 74 2 88q0 30 49 51q73 33 184 33q108 0 168 -45t60 -119q0 -181 -219 -225
q88 -12 133 -57t45 -113q0 -128 -95.5 -199.5t-252.5 -73.5q-133 0 -189 39q-26 14 -26 43q0 39 26 107z" />
    <glyph glyph-name="acute" unicode="&#xb4;" horiz-adv-x="407" 
d="M340 1352l-311 -215l-9 8l226 295q42 57 86 57q29 0 47 -17t18 -46q0 -45 -57 -82z" />
    <glyph glyph-name="mu" unicode="&#xb5;" horiz-adv-x="1236" 
d="M285 49l-29 -162q-28 -145 -43 -264q-3 -32 -25 -45q-25 -14 -135 -14l-6 6q57 197 240 1092q30 147 30 194q0 35 -18 53q-17 17 -88 23v8q36 19 106 35q63 14 105 14q32 0 43.5 -12t11.5 -45q0 -32 -45 -225q-104 -459 -104 -545q0 -92 100 -92q79 0 168 71
q89 74 139 154q48 72 74 192l104 484h131l-110 -520q-41 -196 -41 -304q0 -86 63 -86q16 0 84 11l2 -11q-42 -30 -103.5 -52.5t-104.5 -22.5q-42 0 -60 22.5t-18 73.5q0 107 28 231q-68 -150 -173.5 -239.5t-215.5 -89.5q-95 0 -110 65z" />
    <glyph glyph-name="paragraph" unicode="&#xb6;" horiz-adv-x="1107" 
d="M387 -223l-4 14q105 39 166 119q61 76 108 338l45 244q-208 5 -329 97.5t-121 260.5q0 174 89.5 303t252.5 178q128 35 324 35h194l-4 -14q-97 -25 -123 -58q-34 -40 -55 -151l-170 -885l-35 -166q-28 -117 -86 -186q-73 -88 -252 -129z" />
    <glyph glyph-name="middot" unicode="&#xb7;" horiz-adv-x="454" 
d="M324 543q0 -52 -30 -85.5t-83 -33.5q-44 0 -72 27t-28 71q0 52 31.5 86.5t84.5 34.5q42 0 69.5 -28.5t27.5 -71.5z" />
    <glyph glyph-name="cedilla" unicode="&#xb8;" horiz-adv-x="407" 
d="M33 -381v8l8 2q22 -22 88 -22q60 0 98.5 28.5t38.5 83.5q0 44 -27.5 70.5t-70.5 26.5q-2 0 -7.5 -0.5t-17 -1.5t-22.5 -2l-6 2l102 204h43l-65 -137q85 -1 129.5 -40.5t44.5 -104.5q0 -84 -64.5 -134.5t-161.5 -50.5q-83 0 -104 35q-6 12 -6 33z" />
    <glyph glyph-name="onesuperior" unicode="&#xb9;" 
d="M559 891l-2 -10h-301l2 10q37 3 61 14q42 15 54 94l94 498q14 60 14 94q0 35 -45 35q-41 0 -51 -2v16l231 60l7 -8q-11 -35 -31 -152q-19 -107 -29 -143l-76 -387q-6 -34 -6 -58q0 -26 25 -45q27 -11 53 -16z" />
    <glyph glyph-name="ordmasculine" unicode="&#xba;" horiz-adv-x="647" 
d="M662 932q0 -208 -105 -328q-76 -88 -207 -88q-99 0 -155 59t-56 162q0 207 121 322q77 74 195 74q204 0 207 -201zM559 961q0 135 -108 135q-63 0 -117 -60q-42 -55 -68 -149q-24 -99 -24 -185q0 -149 110 -149q85 0 131 82q32 54 54 158t22 168z" />
    <glyph glyph-name="guillemotright" unicode="&#xbb;" horiz-adv-x="905" 
d="M772 442l-424 -352l-10 10l328 396l-172 405l12 8l285 -360q18 -21 18 -47t-37 -60zM399 442l-424 -352l-10 10l328 396l-170 405l12 8l283 -360q18 -21 18 -47t-37 -60z" />
    <glyph glyph-name="onequarter" unicode="&#xbc;" horiz-adv-x="1626" 
d="M315 -31l965 1426l53 -31l-964 -1427zM508 543l-2 -11h-301l2 11q30 2 61 14q41 15 56 94l94 498q12 71 12 94q0 35 -45 35q-41 0 -51 -2v16l231 60l6 -9q-3 -13 -59 -294l-76 -387q-6 -34 -6 -58q0 -32 25 -45q24 -13 53 -16zM1352 12l-2 -12h-301l2 12q39 3 69 23
q36 19 51 86l19 100h-391l10 51l524 543h82l-51 -254l-49 -266h133l-16 -74h-134l-18 -98q-4 -46 -4 -49q0 -29 20 -43q17 -10 56 -19zM891 295h313q53 284 84 418q-58 -67 -397 -418z" />
    <glyph glyph-name="onehalf" unicode="&#xbd;" horiz-adv-x="1626" 
d="M287 -31l964 1426l54 -31l-965 -1427zM492 543l-3 -11h-301l2 11q31 3 62 14q39 15 55 94l94 498q13 76 13 94q0 35 -45 35q-42 0 -52 -2v16l232 60l6 -9q-3 -13 -59 -294l-76 -387q-6 -34 -6 -58q0 -33 24 -45q23 -13 54 -16zM1386 0h-522l10 49q95 62 160 111
q64 46 154 127q184 166 184 334q0 70 -38 109.5t-115 39.5q-76 0 -117 -30t-78 -105h-8q-2 23 -2 88q3 44 49 59q73 33 190 33q116 0 178 -51.5t62 -138.5q0 -119 -115 -252q-52 -55 -125 -109q-67 -51 -129 -92q-39 -25 -133 -82q164 4 342 4q53 0 78 19q22 16 57 75h11
q-6 -78 -37 -157q-9 -31 -56 -31z" />
    <glyph glyph-name="threequarters" unicode="&#xbe;" horiz-adv-x="1626" 
d="M403 -31l965 1426l53 -31l-964 -1427zM195 705h8q5 -63 54 -101.5t134 -38.5q99 0 160 61t61 160q0 65 -46 105.5t-128 40.5h-41l9 45h43q86 0 139 41q67 52 67 156q0 58 -35.5 93.5t-99.5 35.5q-147 0 -203 -127h-8q0 74 2 88q0 30 49 51q73 33 185 33q108 0 167.5 -45
t59.5 -119q0 -182 -219 -226q88 -12 133 -57t45 -113q0 -128 -95 -199t-253 -73q-132 0 -188 39q-27 15 -27 43q0 36 27 107zM1419 12l-2 -12h-301l2 12q40 3 70 23q36 19 51 86l18 100h-391l11 51l524 543h82l-51 -254l-50 -266h134l-17 -74h-133l-18 -98q-1 -10 -3 -27
t-2 -22q0 -28 21 -43q18 -11 55 -19zM958 295h314q53 284 84 418q-49 -57 -398 -418z" />
    <glyph glyph-name="questiondown" unicode="&#xbf;" horiz-adv-x="835" 
d="M514 555h29q-5 -67 -13 -141q-9 -79 -47 -133q-36 -55 -151 -136q-178 -129 -178 -307q0 -93 50 -143.5t148 -50.5q100 0 150.5 44t87.5 148h12q2 -31 2 -137q0 -58 -69 -84q-101 -39 -224 -39q-317 0 -317 258q0 126 69 207q72 85 213 174q111 72 148 104q41 38 59 93
q17 58 31 143zM438 887q0 51 31 85t84 34q44 0 71 -27.5t27 -71.5q0 -52 -31.5 -86.5t-84.5 -34.5q-43 0 -70 28.5t-27 72.5z" />
    <glyph glyph-name="Agrave" unicode="&#xc0;" horiz-adv-x="1298" 
d="M270 12l-2 -12h-366l2 12q58 12 96 47q39 34 90 121l504 885l172 301h96l23 -147l22 -140l137 -876q18 -114 48 -148q22 -28 94 -43l-2 -12h-424l2 12q55 11 94 35q41 21 41 74q0 39 -6 82l-43 291h-496l-162 -295q-45 -80 -45 -113q0 -37 37 -49q40 -13 88 -25zM387 555
h451l-99 647q-71 -146 -352 -647zM651 1749l273 -262l-9 -12l-342 165q-67 34 -67 78q0 31 19 52.5t48 21.5q35 0 78 -43z" />
    <glyph glyph-name="Aacute" unicode="&#xc1;" horiz-adv-x="1298" 
d="M270 12l-2 -12h-366l2 12q58 12 96 47q39 34 90 121l504 885l172 301h96l23 -147l22 -140l137 -876q18 -114 48 -148q22 -28 94 -43l-2 -12h-424l2 12q55 11 94 35q41 21 41 74q0 39 -6 82l-43 291h-496l-162 -295q-45 -80 -45 -113q0 -37 37 -49q40 -13 88 -25zM387 555
h451l-99 647q-71 -146 -352 -647zM1065 1626l-350 -151l-8 12l286 254q41 35 78 35q30 0 49 -21.5t19 -54.5q0 -47 -74 -74z" />
    <glyph glyph-name="Acircumflex" unicode="&#xc2;" horiz-adv-x="1298" 
d="M270 12l-2 -12h-366l2 12q58 12 96 47q39 34 90 121l504 885l172 301h96l23 -147l22 -140l137 -876q18 -114 48 -148q22 -28 94 -43l-2 -12h-424l2 12q55 11 94 35q41 21 41 74q0 39 -6 82l-43 291h-496l-162 -295q-45 -80 -45 -113q0 -37 37 -49q40 -13 88 -25zM387 555
h451l-99 647q-71 -146 -352 -647zM942 1712l176 -256l-12 -10l-248 172l-319 -170l-11 14l279 254q40 37 76 37q32 0 59 -41z" />
    <glyph glyph-name="Atilde" unicode="&#xc3;" horiz-adv-x="1298" 
d="M270 12l-2 -12h-366l2 12q58 12 96 47q39 34 90 121l504 885l172 301h96l23 -147l22 -140l137 -876q18 -114 48 -148q22 -28 94 -43l-2 -12h-424l2 12q55 11 94 35q41 21 41 74q0 39 -6 82l-43 291h-496l-162 -295q-45 -80 -45 -113q0 -37 37 -49q40 -13 88 -25zM387 555
h451l-99 647q-71 -146 -352 -647zM1108 1706l14 -6q-38 -100 -78 -145.5t-104 -45.5q-43 0 -127 41q-82 39 -117 39q-74 0 -131 -100l-14 6q67 205 180 205q41 0 127 -45q73 -37 119 -37q79 0 131 88z" />
    <glyph glyph-name="Adieresis" unicode="&#xc4;" horiz-adv-x="1298" 
d="M270 12l-2 -12h-366l2 12q58 12 96 47q39 34 90 121l504 885l172 301h96l23 -147l22 -140l137 -876q18 -114 48 -148q22 -28 94 -43l-2 -12h-424l2 12q55 11 94 35q41 21 41 74q0 39 -6 82l-43 291h-496l-162 -295q-45 -80 -45 -113q0 -37 37 -49q40 -13 88 -25zM387 555
h451l-99 647q-71 -146 -352 -647zM758 1591q0 -42 -27 -70t-69 -28q-37 0 -59.5 21.5t-22.5 58.5q0 47 27.5 75.5t72.5 28.5q35 0 56.5 -24t21.5 -62zM1100 1591q0 -42 -27 -70t-69 -28q-37 0 -59.5 21.5t-22.5 58.5q0 47 27.5 75.5t72.5 28.5q35 0 56.5 -24t21.5 -62z" />
    <glyph glyph-name="Aring" unicode="&#xc5;" horiz-adv-x="1298" 
d="M270 12l-2 -12h-366l2 12q58 12 96 47q39 34 90 121l504 885l172 301h96l23 -147l22 -140l137 -876q18 -114 48 -148q22 -28 94 -43l-2 -12h-424l2 12q55 11 94 35q41 21 41 74q0 39 -6 82l-43 291h-496l-162 -295q-45 -80 -45 -113q0 -37 37 -49q40 -13 88 -25zM387 555
h451l-99 647q-71 -146 -352 -647zM1006 1620q0 -76 -47 -127t-125 -51q-67 0 -108.5 42.5t-41.5 110.5q0 75 48.5 124.5t123.5 49.5q69 0 109.5 -40.5t40.5 -108.5zM954 1616q0 50 -27.5 79t-76.5 29t-82 -34.5t-33 -85.5q0 -117 107 -117q49 0 80.5 36.5t31.5 92.5z" />
    <glyph glyph-name="AE" unicode="&#xc6;" horiz-adv-x="1871" 
d="M293 12l-2 -12h-375l2 12q73 15 115 54q37 30 127 133l827 958q82 98 82 135q0 24 -22 36.5t-89 25.5l3 12h854q32 0 41.5 -6t9.5 -25q0 -45 -54 -219h-12q-10 91 -27 127.5t-53 48.5q-42 11 -137 11h-190q-34 0 -49 -16.5t-21 -55.5l-96 -490h164q104 0 161 11
q51 10 80 38.5t62 96.5h12l-70 -350h-14q-2 64 -25 96.5t-79 42.5q-38 6 -134 6h-167l-93 -477q-12 -74 -12 -92q0 -25 17.5 -35t64.5 -10h227q130 0 195 41q64 40 135 161h12q-10 -53 -45 -221q-7 -30 -21.5 -39.5t-51.5 -9.5h-844l2 12q84 18 117 51q31 31 61 181l49 250
h-524l-227 -281q-91 -114 -91 -143q0 -26 31 -35q42 -18 74 -23zM561 555h479l144 739q-128 -163 -623 -739z" />
    <glyph glyph-name="Ccedilla" unicode="&#xc7;" horiz-adv-x="1263" 
d="M412 -395v8l6 4q28 -25 92 -25q61 0 100 30t39 89q0 44 -28 71.5t-72 27.5q-26 0 -47 -7l-6 4l84 170q-228 23 -344.5 162.5t-116.5 374.5q0 241 90.5 440t265.5 314q192 125 469 125q166 0 281 -47q53 -24 53 -60q0 -65 -51 -205h-13q-15 113 -55 162q-71 86 -237 86
q-228 0 -390 -143q-122 -104 -188 -285q-61 -174 -61 -369q0 -230 114 -362.5t322 -132.5q151 0 252 67q77 51 135 146l12 -2q-15 -100 -37 -162q-18 -41 -94 -68q-125 -45 -321 -45q-33 0 -43 2l-48 -100q88 -1 134.5 -41.5t46.5 -105.5q0 -86 -66.5 -139.5t-165.5 -53.5
q-85 0 -106 35q-6 9 -6 35z" />
    <glyph glyph-name="Egrave" unicode="&#xc8;" horiz-adv-x="1099" 
d="M860 0h-829l2 12q85 20 114 49q35 35 62 183l174 899q14 71 14 114q0 34 -18 52q-24 24 -98 45l2 12h768q24 0 33.5 -8t9.5 -27q0 -51 -54 -215h-12q-15 147 -78 172q-35 15 -139 15h-188q-34 0 -50 -17t-22 -55l-94 -490h161q105 0 162 11q53 10 80.5 38t59.5 97h14
l-70 -350h-14q-2 64 -24 95.5t-76 41.5q-41 6 -142 6h-164l-94 -494q-10 -42 -10 -75q0 -43 82 -43h225q136 0 195 41q73 51 135 161h12q-13 -83 -43 -215q-10 -36 -26 -45.5t-60 -9.5zM588 1749l272 -262l-8 -12l-342 165q-68 35 -68 78q0 31 19.5 52.5t48.5 21.5
q35 0 78 -43z" />
    <glyph glyph-name="Eacute" unicode="&#xc9;" horiz-adv-x="1099" 
d="M860 0h-829l2 12q85 20 114 49q35 35 62 183l174 899q14 71 14 114q0 34 -18 52q-24 24 -98 45l2 12h768q24 0 33.5 -8t9.5 -27q0 -51 -54 -215h-12q-15 147 -78 172q-35 15 -139 15h-188q-34 0 -50 -17t-22 -55l-94 -490h161q105 0 162 11q53 10 80.5 38t59.5 97h14
l-70 -350h-14q-2 64 -24 95.5t-76 41.5q-41 6 -142 6h-164l-94 -494q-10 -42 -10 -75q0 -43 82 -43h225q136 0 195 41q73 51 135 161h12q-13 -83 -43 -215q-10 -36 -26 -45.5t-60 -9.5zM985 1626l-350 -151l-8 12l286 254q41 35 78 35q30 0 49 -21.5t19 -54.5q0 -47 -74 -74
z" />
    <glyph glyph-name="Ecircumflex" unicode="&#xca;" horiz-adv-x="1099" 
d="M860 0h-829l2 12q85 20 114 49q35 35 62 183l174 899q14 71 14 114q0 34 -18 52q-24 24 -98 45l2 12h768q24 0 33.5 -8t9.5 -27q0 -51 -54 -215h-12q-15 147 -78 172q-35 15 -139 15h-188q-34 0 -50 -17t-22 -55l-94 -490h161q105 0 162 11q53 10 80.5 38t59.5 97h14
l-70 -350h-14q-2 64 -24 95.5t-76 41.5q-41 6 -142 6h-164l-94 -494q-10 -42 -10 -75q0 -43 82 -43h225q136 0 195 41q73 51 135 161h12q-13 -83 -43 -215q-10 -36 -26 -45.5t-60 -9.5zM850 1712l176 -256l-12 -10l-248 172l-320 -170l-10 14l279 254q40 37 76 37
q32 0 59 -41z" />
    <glyph glyph-name="Edieresis" unicode="&#xcb;" horiz-adv-x="1099" 
d="M860 0h-829l2 12q85 20 114 49q35 35 62 183l174 899q14 71 14 114q0 34 -18 52q-24 24 -98 45l2 12h768q24 0 33.5 -8t9.5 -27q0 -51 -54 -215h-12q-15 147 -78 172q-35 15 -139 15h-188q-34 0 -50 -17t-22 -55l-94 -490h161q105 0 162 11q53 10 80.5 38t59.5 97h14
l-70 -350h-14q-2 64 -24 95.5t-76 41.5q-41 6 -142 6h-164l-94 -494q-10 -42 -10 -75q0 -43 82 -43h225q136 0 195 41q73 51 135 161h12q-13 -83 -43 -215q-10 -36 -26 -45.5t-60 -9.5zM672 1591q0 -42 -27.5 -70t-69.5 -28q-37 0 -59 21.5t-22 58.5q0 47 27.5 75.5
t72.5 28.5q35 0 56.5 -24t21.5 -62zM1014 1591q0 -42 -27 -70t-69 -28q-37 0 -59.5 21.5t-22.5 58.5q0 47 27.5 75.5t72.5 28.5q35 0 56.5 -24t21.5 -62z" />
    <glyph glyph-name="Igrave" unicode="&#xcc;" horiz-adv-x="694" 
d="M461 12l-2 -12h-428l4 12q85 20 121 62q22 25 57 192l164 838q20 100 20 158q0 40 -24.5 59t-89.5 33l2 12h426l-2 -12q-83 -18 -119 -54q-33 -33 -62 -192l-166 -844q-20 -103 -20 -162q0 -34 27 -53t92 -37zM369 1749l272 -262l-8 -12l-342 165q-68 35 -68 78
q0 31 19.5 52.5t48.5 21.5q35 0 78 -43z" />
    <glyph glyph-name="Iacute" unicode="&#xcd;" horiz-adv-x="694" 
d="M461 12l-2 -12h-428l4 12q85 20 121 62q22 25 57 192l164 838q20 100 20 158q0 40 -24.5 59t-89.5 33l2 12h426l-2 -12q-83 -18 -119 -54q-33 -33 -62 -192l-166 -844q-20 -103 -20 -162q0 -34 27 -53t92 -37zM737 1626l-350 -151l-8 12l287 254q41 35 77 35
q30 0 49 -21.5t19 -54.5q0 -47 -74 -74z" />
    <glyph glyph-name="Icircumflex" unicode="&#xce;" horiz-adv-x="694" 
d="M461 12l-2 -12h-428l4 12q85 20 121 62q22 25 57 192l164 838q20 100 20 158q0 40 -24.5 59t-89.5 33l2 12h426l-2 -12q-83 -18 -119 -54q-33 -33 -62 -192l-166 -844q-20 -103 -20 -162q0 -34 27 -53t92 -37zM629 1712l176 -256l-12 -10l-248 172l-320 -170l-10 14
l279 254q40 37 75 37q33 0 60 -41z" />
    <glyph glyph-name="Idieresis" unicode="&#xcf;" horiz-adv-x="694" 
d="M461 12l-2 -12h-428l4 12q85 20 121 62q22 25 57 192l164 838q20 100 20 158q0 40 -24.5 59t-89.5 33l2 12h426l-2 -12q-83 -18 -119 -54q-33 -33 -62 -192l-166 -844q-20 -103 -20 -162q0 -34 27 -53t92 -37zM451 1591q0 -42 -27.5 -70t-69.5 -28q-37 0 -59.5 21.5
t-22.5 58.5q0 47 28 75.5t73 28.5q35 0 56.5 -24t21.5 -62zM793 1591q0 -42 -27.5 -70t-69.5 -28q-37 0 -59.5 21.5t-22.5 58.5q0 47 28 75.5t73 28.5q35 0 56.5 -24t21.5 -62z" />
    <glyph glyph-name="Eth" unicode="&#xd0;" horiz-adv-x="1443" 
d="M535 0h-504l2 12q65 18 92.5 34t40.5 46q17 32 51 201l76 389h-191l15 74h190l62 307q28 146 28 194q0 40 -24 59.5t-92 37.5l2 12h485q304 0 442 -106q164 -126 164 -386q0 -155 -29.5 -285.5t-94 -240.5t-161.5 -186.5t-237.5 -119t-316.5 -42.5zM444 682l-82 -416
q-19 -93 -16.5 -136.5t37.5 -53.5q53 -17 164 -17q314 0 489 224q176 226 176 579q0 187 -84 297q-115 148 -372 148h-51q-94 0 -125 -25q-22 -19 -43 -137l-78 -389h366l-16 -74h-365z" />
    <glyph glyph-name="Ntilde" unicode="&#xd1;" horiz-adv-x="1470" 
d="M401 12l-2 -12h-368l4 12q88 24 123 68q23 23 59 199l154 784q28 149 28 194q0 40 -26 60q-29 22 -86 37l2 12h233q42 0 51 -25q422 -897 514 -1112l162 863q21 111 21 163q0 42 -29 64.5t-94 34.5l2 12h354l-2 -12q-94 -21 -121 -68q-24 -47 -53 -199l-219 -1101h-76
l-563 1239q-86 -503 -172 -942q-23 -122 -23 -174q0 -35 28.5 -56.5t98.5 -40.5zM1221 1706l14 -6q-38 -100 -78 -145.5t-104 -45.5q-43 0 -127 41q-82 39 -117 39q-74 0 -131 -100l-14 6q67 205 180 205q41 0 127 -45q73 -37 119 -37q79 0 131 88z" />
    <glyph glyph-name="Ograve" unicode="&#xd2;" horiz-adv-x="1374" 
d="M1309 905q0 -212 -70 -422q-67 -210 -209 -346q-176 -164 -436 -164q-226 0 -350.5 140.5t-124.5 386.5q0 196 67 397q71 203 209 332q176 164 436 164q234 0 356 -125t122 -363zM1143 934q0 397 -320 397q-193 0 -329 -157q-102 -120 -158 -318q-53 -195 -53 -389
q0 -430 327 -430q193 0 324 162q97 123 153 338q56 213 56 397zM717 1749l272 -262l-8 -12l-342 165q-68 35 -68 78q0 31 19.5 52.5t48.5 21.5q35 0 78 -43z" />
    <glyph glyph-name="Oacute" unicode="&#xd3;" horiz-adv-x="1374" 
d="M1309 905q0 -212 -70 -422q-67 -210 -209 -346q-176 -164 -436 -164q-226 0 -350.5 140.5t-124.5 386.5q0 196 67 397q71 203 209 332q176 164 436 164q234 0 356 -125t122 -363zM1143 934q0 397 -320 397q-193 0 -329 -157q-102 -120 -158 -318q-53 -195 -53 -389
q0 -430 327 -430q193 0 324 162q97 123 153 338q56 213 56 397zM1108 1626l-350 -151l-8 12l286 254q41 35 78 35q30 0 49 -21.5t19 -54.5q0 -47 -74 -74z" />
    <glyph glyph-name="Ocircumflex" unicode="&#xd4;" horiz-adv-x="1374" 
d="M1309 905q0 -212 -70 -422q-67 -210 -209 -346q-176 -164 -436 -164q-226 0 -350.5 140.5t-124.5 386.5q0 196 67 397q71 203 209 332q176 164 436 164q234 0 356 -125t122 -363zM1143 934q0 397 -320 397q-193 0 -329 -157q-102 -120 -158 -318q-53 -195 -53 -389
q0 -430 327 -430q193 0 324 162q97 123 153 338q56 213 56 397zM979 1712l176 -256l-12 -10l-248 172l-320 -170l-10 14l279 254q40 37 76 37q32 0 59 -41z" />
    <glyph glyph-name="Otilde" unicode="&#xd5;" horiz-adv-x="1374" 
d="M1309 905q0 -212 -70 -422q-67 -210 -209 -346q-176 -164 -436 -164q-226 0 -350.5 140.5t-124.5 386.5q0 196 67 397q71 203 209 332q176 164 436 164q234 0 356 -125t122 -363zM1143 934q0 397 -320 397q-193 0 -329 -157q-102 -120 -158 -318q-53 -195 -53 -389
q0 -430 327 -430q193 0 324 162q97 123 153 338q56 213 56 397zM1163 1706l15 -6q-38 -100 -78.5 -145.5t-104.5 -45.5q-43 0 -127 41q-82 39 -116 39q-74 0 -131 -100l-15 6q67 205 180 205q41 0 127 -45q73 -37 119 -37q79 0 131 88z" />
    <glyph glyph-name="Odieresis" unicode="&#xd6;" horiz-adv-x="1374" 
d="M1309 905q0 -212 -70 -422q-67 -210 -209 -346q-176 -164 -436 -164q-226 0 -350.5 140.5t-124.5 386.5q0 196 67 397q71 203 209 332q176 164 436 164q234 0 356 -125t122 -363zM1143 934q0 397 -320 397q-193 0 -329 -157q-102 -120 -158 -318q-53 -195 -53 -389
q0 -430 327 -430q193 0 324 162q97 123 153 338q56 213 56 397zM809 1591q0 -42 -27 -70t-69 -28q-37 0 -59.5 21.5t-22.5 58.5q0 47 27.5 75.5t72.5 28.5q35 0 56.5 -24t21.5 -62zM1151 1591q0 -42 -27 -70t-69 -28q-37 0 -59.5 21.5t-22.5 58.5q0 47 27.5 75.5t72.5 28.5
q35 0 56.5 -24t21.5 -62z" />
    <glyph glyph-name="multiply" unicode="&#xd7;" horiz-adv-x="1302" 
d="M659 492l-354 -322l-65 72l354 323l-281 322l78 69l279 -319l352 319l65 -73l-352 -322l281 -319l-74 -72z" />
    <glyph glyph-name="Oslash" unicode="&#xd8;" horiz-adv-x="1374" 
d="M266 90l-104 -135l-51 35l112 145q-104 134 -104 365q0 196 67 397q71 203 209 332q176 164 436 164q190 0 306 -82l112 143l51 -37l-114 -147q123 -123 123 -365q0 -212 -70 -422q-67 -210 -209 -346q-176 -164 -436 -164q-208 0 -328 117zM1143 934q0 133 -41 229
l-762 -979q82 -147 270 -147q193 0 324 162q97 123 153 338q56 213 56 397zM283 467q0 -128 28 -217l758 973q-83 108 -246 108q-193 0 -329 -157q-102 -120 -158 -318q-53 -195 -53 -389z" />
    <glyph glyph-name="Ugrave" unicode="&#xd9;" horiz-adv-x="1482" 
d="M266 1354l2 12h430l-2 -12q-102 -20 -131 -64q-22 -32 -43 -147l-114 -576q-29 -158 -29 -260q0 -128 81 -197t228 -69q236 0 350 147q42 54 66.5 132.5t56.5 238.5l105 526q20 97 20 166q0 48 -26.5 68.5t-98.5 34.5l2 12h375l-2 -12q-78 -15 -115 -49q-34 -34 -69 -205
l-101 -520q-37 -200 -67 -281q-36 -98 -94 -162q-150 -164 -445 -164q-67 0 -125.5 10.5t-113 35t-93.5 62t-62.5 95.5t-23.5 131q0 114 33 273l109 553q14 77 14 124q0 37 -26.5 58t-90.5 39zM756 1749l272 -262l-8 -12l-342 165q-68 35 -68 78q0 31 19.5 52.5t48.5 21.5
q35 0 78 -43z" />
    <glyph glyph-name="Uacute" unicode="&#xda;" horiz-adv-x="1482" 
d="M266 1354l2 12h430l-2 -12q-102 -20 -131 -64q-22 -32 -43 -147l-114 -576q-29 -158 -29 -260q0 -128 81 -197t228 -69q236 0 350 147q42 54 66.5 132.5t56.5 238.5l105 526q20 97 20 166q0 48 -26.5 68.5t-98.5 34.5l2 12h375l-2 -12q-78 -15 -115 -49q-34 -34 -69 -205
l-101 -520q-37 -200 -67 -281q-36 -98 -94 -162q-150 -164 -445 -164q-67 0 -125.5 10.5t-113 35t-93.5 62t-62.5 95.5t-23.5 131q0 114 33 273l109 553q14 77 14 124q0 37 -26.5 58t-90.5 39zM1167 1626l-350 -151l-8 12l287 254q41 35 78 35q30 0 48.5 -21.5t18.5 -54.5
q0 -47 -74 -74z" />
    <glyph glyph-name="Ucircumflex" unicode="&#xdb;" horiz-adv-x="1482" 
d="M266 1354l2 12h430l-2 -12q-102 -20 -131 -64q-22 -32 -43 -147l-114 -576q-29 -158 -29 -260q0 -128 81 -197t228 -69q236 0 350 147q42 54 66.5 132.5t56.5 238.5l105 526q20 97 20 166q0 48 -26.5 68.5t-98.5 34.5l2 12h375l-2 -12q-78 -15 -115 -49q-34 -34 -69 -205
l-101 -520q-37 -200 -67 -281q-36 -98 -94 -162q-150 -164 -445 -164q-67 0 -125.5 10.5t-113 35t-93.5 62t-62.5 95.5t-23.5 131q0 114 33 273l109 553q14 77 14 124q0 37 -26.5 58t-90.5 39zM1040 1712l177 -256l-13 -10l-248 172l-319 -170l-10 14l278 254q40 37 76 37
q32 0 59 -41z" />
    <glyph glyph-name="Udieresis" unicode="&#xdc;" horiz-adv-x="1482" 
d="M266 1354l2 12h430l-2 -12q-102 -20 -131 -64q-22 -32 -43 -147l-114 -576q-29 -158 -29 -260q0 -128 81 -197t228 -69q236 0 350 147q42 54 66.5 132.5t56.5 238.5l105 526q20 97 20 166q0 48 -26.5 68.5t-98.5 34.5l2 12h375l-2 -12q-78 -15 -115 -49q-34 -34 -69 -205
l-101 -520q-37 -200 -67 -281q-36 -98 -94 -162q-150 -164 -445 -164q-67 0 -125.5 10.5t-113 35t-93.5 62t-62.5 95.5t-23.5 131q0 114 33 273l109 553q14 77 14 124q0 37 -26.5 58t-90.5 39zM864 1591q0 -42 -27 -70t-69 -28q-37 0 -59.5 21.5t-22.5 58.5q0 47 27.5 75.5
t72.5 28.5q35 0 56.5 -24t21.5 -62zM1206 1591q0 -42 -27 -70t-69 -28q-37 0 -59.5 21.5t-22.5 58.5q0 47 27.5 75.5t72.5 28.5q35 0 56.5 -24t21.5 -62z" />
    <glyph glyph-name="Yacute" unicode="&#xdd;" horiz-adv-x="1220" 
d="M723 12l-4 -12h-434l4 12q85 18 123 62q34 37 61 192l57 316l-237 598q-45 110 -74 139q-27 24 -76 35l2 12h418l-2 -12q-58 -11 -94 -27q-37 -15 -37 -49q0 -24 29 -100q163 -425 200 -531q45 71 379 520q58 79 58 117q0 32 -37 47q-27 14 -76 23l2 12h375l-2 -12
q-52 -10 -113 -60q-35 -26 -100 -110l-457 -590l-63 -332q-21 -102 -21 -156q0 -35 26 -55t93 -39zM1022 1626l-350 -151l-8 12l286 254q41 35 78 35q30 0 49 -21.5t19 -54.5q0 -47 -74 -74z" />
    <glyph glyph-name="Thorn" unicode="&#xde;" horiz-adv-x="1175" 
d="M463 12l-2 -12h-430l2 12q90 21 125 62q23 27 57 198l160 822q22 123 22 168q0 42 -32 61q-29 16 -84 31l2 12h428l-4 -12q-93 -18 -121 -54q-34 -46 -60 -196l-4 -31q68 6 135 6q197 0 312 -59q135 -66 135 -250q0 -223 -150 -343t-409 -120q-48 0 -174 4l-9 -51
q-20 -129 -20 -154q0 -34 31 -59q25 -18 90 -35zM494 934l-109 -561q50 -6 152 -6q185 0 295 106.5t110 288.5q0 172 -125 227q-76 29 -217 29q-53 0 -75.5 -19t-30.5 -65z" />
    <glyph glyph-name="germandbls" unicode="&#xdf;" horiz-adv-x="1069" 
d="M-297 -254h14q35 -141 152 -141q90 0 147 106q28 55 66 207q38 155 74 361l114 661q27 153 62.5 239.5t101.5 151.5q121 115 307 115q142 0 221.5 -62.5t79.5 -173.5q0 -92 -43 -147q-44 -56 -151 -135l-119 -90q-92 -71 -92 -121q0 -25 17.5 -49t68.5 -66l111 -90
q77 -62 107 -116t30 -128q0 -129 -105 -212t-270 -83q-128 0 -190 39q-33 17 -33 56q0 61 26 149h13q13 -91 66.5 -141.5t133.5 -50.5q101 0 166.5 55.5t65.5 150.5q0 94 -107 179l-104 84q-70 58 -96.5 96t-26.5 84q0 48 35 91.5t117 106.5l114 89q150 114 150 251
q0 86 -53 134.5t-146 48.5q-126 0 -201 -97q-61 -76 -102 -305l-121 -655q-37 -209 -72 -354q-29 -121 -77 -222t-135.5 -160t-196.5 -59q-72 0 -117 25q-27 18 -27 45q0 41 25 133z" />
    <glyph glyph-name="agrave" unicode="&#xe0;" horiz-adv-x="1069" 
d="M954 72l4 -11q-115 -75 -219 -75q-71 0 -71 94q0 115 34 260q-79 -172 -198 -269.5t-230 -97.5q-97 0 -145.5 59t-48.5 201q0 169 80 367q79 199 207 295q138 102 317 102q183 0 291 -51q-57 -75 -148 -596q-20 -111 -20 -209q0 -82 61 -82q42 0 86 13zM782 920
q-36 20 -131 20q-113 0 -202 -80q-91 -82 -158 -270q-68 -192 -68 -332q0 -184 117 -184q83 0 178 84t160 219q42 86 113 422q11 50 10 80t-19 41zM590 1444l174 -299l-8 -8l-262 217q-52 40 -52 80q0 28 22 46.5t52 18.5q40 0 74 -55z" />
    <glyph glyph-name="aacute" unicode="&#xe1;" horiz-adv-x="1069" 
d="M954 72l4 -11q-115 -75 -219 -75q-71 0 -71 94q0 115 34 260q-79 -172 -198 -269.5t-230 -97.5q-97 0 -145.5 59t-48.5 201q0 169 80 367q79 199 207 295q138 102 317 102q183 0 291 -51q-57 -75 -148 -596q-20 -111 -20 -209q0 -82 61 -82q42 0 86 13zM782 920
q-36 20 -131 20q-113 0 -202 -80q-91 -82 -158 -270q-68 -192 -68 -332q0 -184 117 -184q83 0 178 84t160 219q42 86 113 422q11 50 10 80t-19 41zM946 1352l-311 -215l-8 8l225 295q42 57 86 57q30 0 48 -17t18 -46q0 -45 -58 -82z" />
    <glyph glyph-name="acircumflex" unicode="&#xe2;" horiz-adv-x="1069" 
d="M954 72l4 -11q-115 -75 -219 -75q-71 0 -71 94q0 115 34 260q-79 -172 -198 -269.5t-230 -97.5q-97 0 -145.5 59t-48.5 201q0 169 80 367q79 199 207 295q138 102 317 102q183 0 291 -51q-57 -75 -148 -596q-20 -111 -20 -209q0 -82 61 -82q42 0 86 13zM782 920
q-36 20 -131 20q-113 0 -202 -80q-91 -82 -158 -270q-68 -192 -68 -332q0 -184 117 -184q83 0 178 84t160 219q42 86 113 422q11 50 10 80t-19 41zM844 1434l135 -291l-12 -8l-207 206l-309 -206l-9 10l269 291q43 43 80 43q33 0 53 -45z" />
    <glyph glyph-name="atilde" unicode="&#xe3;" horiz-adv-x="1069" 
d="M954 72l4 -11q-115 -75 -219 -75q-71 0 -71 94q0 115 34 260q-79 -172 -198 -269.5t-230 -97.5q-97 0 -145.5 59t-48.5 201q0 169 80 367q79 199 207 295q138 102 317 102q183 0 291 -51q-57 -75 -148 -596q-20 -111 -20 -209q0 -82 61 -82q42 0 86 13zM782 920
q-36 20 -131 20q-113 0 -202 -80q-91 -82 -158 -270q-68 -192 -68 -332q0 -184 117 -184q83 0 178 84t160 219q42 86 113 422q11 50 10 80t-19 41zM997 1360l11 -6q-59 -185 -166 -185q-49 0 -140 45q-72 35 -106 35q-79 0 -137 -94l-13 4q73 199 183 199q32 0 119 -41
q86 -45 120 -45q40 0 68 19.5t61 68.5z" />
    <glyph glyph-name="adieresis" unicode="&#xe4;" horiz-adv-x="1069" 
d="M954 72l4 -11q-115 -75 -219 -75q-71 0 -71 94q0 115 34 260q-79 -172 -198 -269.5t-230 -97.5q-97 0 -145.5 59t-48.5 201q0 169 80 367q79 199 207 295q138 102 317 102q183 0 291 -51q-57 -75 -148 -596q-20 -111 -20 -209q0 -82 61 -82q42 0 86 13zM782 920
q-36 20 -131 20q-113 0 -202 -80q-91 -82 -158 -270q-68 -192 -68 -332q0 -184 117 -184q83 0 178 84t160 219q42 86 113 422q11 50 10 80t-19 41zM653 1296q0 -42 -26.5 -70t-67.5 -28q-36 0 -58 22t-22 58q0 47 27 74.5t72 27.5q35 0 55 -22.5t20 -61.5zM963 1296
q0 -42 -27 -70t-68 -28q-36 0 -58 22t-22 58q0 44 28 73t71 29q35 0 55.5 -23t20.5 -61z" />
    <glyph glyph-name="aring" unicode="&#xe5;" horiz-adv-x="1069" 
d="M954 72l4 -11q-115 -75 -219 -75q-71 0 -71 94q0 115 34 260q-79 -172 -198 -269.5t-230 -97.5q-97 0 -145.5 59t-48.5 201q0 169 80 367q79 199 207 295q138 102 317 102q183 0 291 -51q-57 -75 -148 -596q-20 -111 -20 -209q0 -82 61 -82q42 0 86 13zM782 920
q-36 20 -131 20q-113 0 -202 -80q-91 -82 -158 -270q-68 -192 -68 -332q0 -184 117 -184q83 0 178 84t160 219q42 86 113 422q11 50 10 80t-19 41zM893 1311q0 -81 -50.5 -134t-133.5 -53q-71 0 -114.5 45t-43.5 115q0 81 52 132.5t132 51.5q71 0 114.5 -43.5t43.5 -113.5z
M840 1309q0 51 -30 81.5t-81 30.5q-56 0 -90.5 -37.5t-34.5 -97.5q0 -51 29.5 -84t83.5 -33t88.5 38.5t34.5 101.5z" />
    <glyph glyph-name="ae" unicode="&#xe6;" horiz-adv-x="1431" 
d="M662 176q-126 -203 -357 -203q-114 0 -181 68.5t-67 175.5q0 96 57 161t162 95q140 39 396 51l10 60q18 88 18 139q0 86 -53.5 130t-146.5 44q-198 0 -295 -106l-8 2q0 20 2 26q21 77 116 127q96 51 226 51q251 0 272 -194q56 88 143.5 141t192.5 53q231 0 231 -184
q0 -63 -26 -114t-86 -99q-129 -104 -467 -119q-15 -67 -15 -164q0 -122 57.5 -188t157.5 -66q144 0 263 107l6 -4q0 -10 -8 -29q-14 -31 -37 -57q-107 -107 -291 -107q-222 0 -272 203zM649 229q-4 78 -4 82q0 23 17 162q-199 -17 -308 -47q-155 -46 -155 -188
q0 -77 44.5 -121.5t118.5 -44.5q92 0 157 38.5t130 118.5zM813 528q223 18 335 94.5t112 196.5q0 119 -121 119q-117 0 -204 -109t-122 -301z" />
    <glyph glyph-name="ccedilla" unicode="&#xe7;" horiz-adv-x="835" 
d="M174 -381v8l8 2q22 -22 88 -22q60 0 99 28.5t39 83.5q0 44 -28 70.5t-71 26.5q-2 0 -7.5 -0.5t-17 -1.5t-22.5 -2l-6 2l80 161q-123 10 -188.5 92.5t-65.5 225.5q0 170 59 338q62 171 168 258q126 108 303 108q108 0 164 -26q37 -15 37 -43q0 -56 -43 -160h-10
q-20 92 -59.5 132t-110.5 40q-119 0 -195 -88q-76 -82 -123 -231t-47 -295q0 -135 58.5 -199t158.5 -64q152 0 267 109l6 -4q-4 -22 -17 -47q-19 -31 -49 -58q-110 -87 -270 -90l-43 -92q85 -1 129.5 -40.5t44.5 -104.5q0 -84 -64.5 -134.5t-160.5 -50.5q-84 0 -105 35
q-6 12 -6 33z" />
    <glyph glyph-name="egrave" unicode="&#xe8;" horiz-adv-x="880" 
d="M711 170l6 -4q0 -15 -6 -27q-17 -35 -37 -55q-102 -111 -293 -111q-293 0 -293 334q0 146 55 301q54 156 152 258q131 131 311 131q223 0 223 -180q0 -120 -120 -223q-64 -55 -186.5 -88.5t-280.5 -34.5q-13 -63 -13 -141q0 -267 222 -267q147 0 260 107zM250 512
q221 12 340 96t119 213q0 123 -125 123q-114 0 -201.5 -115.5t-132.5 -316.5zM481 1444l174 -299l-8 -8l-262 217q-51 39 -51 80q0 28 22 46.5t52 18.5q39 0 73 -55z" />
    <glyph glyph-name="eacute" unicode="&#xe9;" horiz-adv-x="880" 
d="M711 170l6 -4q0 -15 -6 -27q-17 -35 -37 -55q-102 -111 -293 -111q-293 0 -293 334q0 146 55 301q54 156 152 258q131 131 311 131q223 0 223 -180q0 -120 -120 -223q-64 -55 -186.5 -88.5t-280.5 -34.5q-13 -63 -13 -141q0 -267 222 -267q147 0 260 107zM250 512
q221 12 340 96t119 213q0 123 -125 123q-114 0 -201.5 -115.5t-132.5 -316.5zM831 1352l-311 -215l-8 8l225 295q42 57 86 57q30 0 48 -17t18 -46q0 -45 -58 -82z" />
    <glyph glyph-name="ecircumflex" unicode="&#xea;" horiz-adv-x="880" 
d="M711 170l6 -4q0 -15 -6 -27q-17 -35 -37 -55q-102 -111 -293 -111q-293 0 -293 334q0 146 55 301q54 156 152 258q131 131 311 131q223 0 223 -180q0 -120 -120 -223q-64 -55 -186.5 -88.5t-280.5 -34.5q-13 -63 -13 -141q0 -267 222 -267q147 0 260 107zM250 512
q221 12 340 96t119 213q0 123 -125 123q-114 0 -201.5 -115.5t-132.5 -316.5zM766 1434l135 -291l-12 -8l-207 206l-309 -206l-8 10l268 291q43 43 80 43q33 0 53 -45z" />
    <glyph glyph-name="edieresis" unicode="&#xeb;" horiz-adv-x="880" 
d="M711 170l6 -4q0 -15 -6 -27q-17 -35 -37 -55q-102 -111 -293 -111q-293 0 -293 334q0 146 55 301q54 156 152 258q131 131 311 131q223 0 223 -180q0 -120 -120 -223q-64 -55 -186.5 -88.5t-280.5 -34.5q-13 -63 -13 -141q0 -267 222 -267q147 0 260 107zM250 512
q221 12 340 96t119 213q0 123 -125 123q-114 0 -201.5 -115.5t-132.5 -316.5zM569 1296q0 -42 -26.5 -70t-67.5 -28q-36 0 -58 22t-22 58q0 47 27 74.5t72 27.5q35 0 55 -22.5t20 -61.5zM879 1296q0 -42 -27 -70t-68 -28q-36 0 -57.5 22t-21.5 58q0 44 27.5 73t70.5 29
q35 0 55.5 -23t20.5 -61z" />
    <glyph glyph-name="igrave" unicode="&#xec;" horiz-adv-x="548" 
d="M244 1444l174 -299l-8 -8l-263 217q-51 39 -51 80q0 28 22 46.5t52 18.5q40 0 74 -55zM414 72l2 -11q-115 -75 -228 -75q-65 0 -65 71q0 48 37 209l69 322q45 210 45 274q0 35 -10 45q-16 22 -90 25v10q118 47 211 47q28 0 37.5 -9.5t9.5 -33.5q0 -36 -43 -227l-86 -406
q-29 -142 -29 -200q0 -54 58 -54q28 0 82 13z" />
    <glyph glyph-name="iacute" unicode="&#xed;" horiz-adv-x="548" 
d="M553 1352l-311 -215l-9 8l226 295q42 57 86 57q29 0 47 -17t18 -46q0 -45 -57 -82zM393 72l2 -11q-115 -75 -227 -75q-66 0 -66 71q0 48 37 209l70 322q45 210 45 274q0 35 -10 45q-16 22 -90 25v10q118 47 211 47q28 0 37.5 -9.5t9.5 -33.5q0 -36 -43 -227l-86 -406
q-29 -142 -29 -200q0 -54 57 -54q28 0 82 13z" />
    <glyph glyph-name="icircumflex" unicode="&#xee;" horiz-adv-x="548" 
d="M414 72l2 -11q-115 -75 -228 -75q-65 0 -65 71q0 48 37 209l69 322q45 210 45 274q0 35 -10 45q-16 22 -90 25v10q118 47 211 47q28 0 37.5 -9.5t9.5 -33.5q0 -36 -43 -227l-86 -406q-29 -142 -29 -200q0 -54 58 -54q28 0 82 13zM485 1434l136 -291l-13 -8l-207 206
l-309 -206l-8 10l268 291q43 43 80 43q33 0 53 -45z" />
    <glyph glyph-name="idieresis" unicode="&#xef;" horiz-adv-x="548" 
d="M297 1296q0 -42 -26.5 -70t-67.5 -28q-36 0 -58 22t-22 58q0 47 26.5 74.5t71.5 27.5q35 0 55.5 -23t20.5 -61zM606 1296q0 -42 -26.5 -70t-67.5 -28q-36 0 -58 22t-22 58q0 44 27.5 73t70.5 29q35 0 55.5 -23t20.5 -61zM414 72l2 -11q-115 -75 -228 -75q-65 0 -65 71
q0 48 37 209l69 322q45 210 45 274q0 35 -10 45q-16 22 -90 25v10q118 47 211 47q28 0 37.5 -9.5t9.5 -33.5q0 -36 -43 -227l-86 -406q-29 -142 -29 -200q0 -54 58 -54q28 0 82 13z" />
    <glyph glyph-name="eth" unicode="&#xf0;" horiz-adv-x="1001" 
d="M913 1386l31 -57l-162 -92q125 -204 125 -469q0 -434 -176 -649q-122 -146 -317 -146q-154 0 -237 95.5t-83 267.5q0 349 193 536q120 117 284 117q147 0 199 -94q-9 150 -78 291l-190 -107l-33 58l193 108q-93 157 -232 211l23 47q178 -52 295 -211zM764 690
q0 238 -191 238q-114 0 -190 -94q-72 -91 -113 -248q-41 -158 -41 -291q0 -262 191 -262q146 0 223 139q50 95 86 250q35 155 35 268z" />
    <glyph glyph-name="ntilde" unicode="&#xf1;" horiz-adv-x="1112" 
d="M334 483l-105 -483h-131l113 524q47 230 47 324q0 42 -12 57q-21 24 -94 27v10q103 47 210 47q30 0 41 -11.5t11 -43.5q0 -82 -54 -281q60 140 191 242q132 102 256 102q80 0 115.5 -32.5t35.5 -112.5q0 -75 -104 -553q-27 -120 -27 -182q0 -58 60 -58q13 0 80 13l2 -11
q-118 -75 -226 -75q-63 0 -63 69q0 53 35 211q106 455 106 543q0 52 -21 74t-71 22q-76 0 -180 -78q-95 -71 -146 -155q-44 -69 -69 -189zM930 1360l10 -6q-59 -185 -166 -185q-48 0 -139 45q-72 35 -107 35q-79 0 -137 -94l-12 4q73 199 182 199q32 0 119 -41
q86 -45 121 -45q40 0 68 19.5t61 68.5z" />
    <glyph glyph-name="ograve" unicode="&#xf2;" horiz-adv-x="999" 
d="M895 664q0 -143 -41 -295q-39 -145 -127 -250q-122 -146 -324 -146q-153 0 -235 95t-82 268q0 156 50.5 303.5t146.5 243.5q120 114 301 114q311 0 311 -333zM758 698q0 129 -41 188.5t-146 59.5q-112 0 -194 -104q-71 -93 -115 -252q-41 -158 -41 -295q0 -270 191 -270
q149 0 225 143q50 95 86 256q35 158 35 274zM512 1444l174 -299l-8 -8l-262 217q-51 39 -51 80q0 29 21.5 47t51.5 18q40 0 74 -55z" />
    <glyph glyph-name="oacute" unicode="&#xf3;" horiz-adv-x="999" 
d="M895 664q0 -143 -41 -295q-39 -145 -127 -250q-122 -146 -324 -146q-153 0 -235 95t-82 268q0 156 50.5 303.5t146.5 243.5q120 114 301 114q311 0 311 -333zM758 698q0 129 -41 188.5t-146 59.5q-112 0 -194 -104q-71 -93 -115 -252q-41 -158 -41 -295q0 -270 191 -270
q149 0 225 143q50 95 86 256q35 158 35 274zM827 1352l-311 -215l-8 8l225 295q42 57 86 57q30 0 48 -17t18 -46q0 -45 -58 -82z" />
    <glyph glyph-name="ocircumflex" unicode="&#xf4;" horiz-adv-x="999" 
d="M895 664q0 -143 -41 -295q-39 -145 -127 -250q-122 -146 -324 -146q-153 0 -235 95t-82 268q0 156 50.5 303.5t146.5 243.5q120 114 301 114q311 0 311 -333zM758 698q0 129 -41 188.5t-146 59.5q-112 0 -194 -104q-71 -93 -115 -252q-41 -158 -41 -295q0 -270 191 -270
q149 0 225 143q50 95 86 256q35 158 35 274zM745 1434l136 -291l-13 -8l-206 206l-310 -206l-8 10l268 291q43 43 80 43q33 0 53 -45z" />
    <glyph glyph-name="otilde" unicode="&#xf5;" horiz-adv-x="999" 
d="M895 664q0 -143 -41 -295q-39 -145 -127 -250q-122 -146 -324 -146q-153 0 -235 95t-82 268q0 156 50.5 303.5t146.5 243.5q120 114 301 114q311 0 311 -333zM758 698q0 129 -41 188.5t-146 59.5q-112 0 -194 -104q-71 -93 -115 -252q-41 -158 -41 -295q0 -270 191 -270
q149 0 225 143q50 95 86 256q35 158 35 274zM901 1360l10 -6q-59 -185 -166 -185q-48 0 -139 45q-72 35 -106 35q-80 0 -138 -94l-12 4q73 199 182 199q32 0 119 -41q86 -45 121 -45q40 0 68 19.5t61 68.5z" />
    <glyph glyph-name="odieresis" unicode="&#xf6;" horiz-adv-x="999" 
d="M895 664q0 -143 -41 -295q-39 -145 -127 -250q-122 -146 -324 -146q-153 0 -235 95t-82 268q0 156 50.5 303.5t146.5 243.5q120 114 301 114q311 0 311 -333zM758 698q0 129 -41 188.5t-146 59.5q-112 0 -194 -104q-71 -93 -115 -252q-41 -158 -41 -295q0 -270 191 -270
q149 0 225 143q50 95 86 256q35 158 35 274zM567 1296q0 -42 -26.5 -70t-67.5 -28q-36 0 -58 22t-22 58q0 47 27 74.5t72 27.5q35 0 55 -22.5t20 -61.5zM877 1296q0 -42 -27 -70t-68 -28q-36 0 -58 22t-22 58q0 44 28 73t71 29q35 0 55.5 -23t20.5 -61z" />
    <glyph glyph-name="divide" unicode="&#xf7;" horiz-adv-x="1302" 
d="M801 872q0 -41 -26 -68.5t-64 -27.5q-35 0 -55.5 21.5t-20.5 56.5q0 43 25.5 70.5t66.5 27.5q35 0 54.5 -21.5t19.5 -58.5zM197 608h950l-23 -104h-948zM678 246q0 -39 -26 -66.5t-64 -27.5q-36 0 -57 20t-21 55q0 43 26.5 72t67.5 29q32 0 53 -22.5t21 -59.5z" />
    <glyph glyph-name="oslash" unicode="&#xf8;" horiz-adv-x="999" 
d="M201 39l-82 -115l-43 31l86 121q-76 94 -76 260q0 162 49 306.5t148 238.5q122 116 303 116q120 0 196 -55l88 123l45 -31l-92 -129q74 -83 74 -241q0 -145 -43 -293q-39 -146 -125 -252q-122 -146 -319 -146q-122 0 -209 66zM762 698q0 64 -10 109l-496 -692
q50 -90 158 -90q149 0 225 143q50 95 86 256q37 157 37 274zM221 295q0 -67 12 -119l496 692q-44 78 -156 78q-111 0 -196 -104q-71 -89 -115 -250q-41 -161 -41 -297z" />
    <glyph glyph-name="ugrave" unicode="&#xf9;" horiz-adv-x="1116" 
d="M983 72l2 -11q-106 -75 -207 -75q-44 0 -62 22t-18 74q0 91 33 237q-67 -137 -194 -243q-127 -103 -252 -103q-80 0 -118 35t-38 119q0 60 104 528q31 152 31 201q0 35 -18 53q-20 20 -90 23v8q38 20 104 35q60 14 105 14q31 0 43 -10.5t12 -40.5q0 -46 -45 -233
q-107 -465 -107 -539q0 -51 19.5 -71.5t72.5 -20.5q84 0 172 73q92 73 144 156q63 97 84 199l98 469h129l-108 -518q-43 -203 -43 -306q0 -84 63 -84q43 0 84 9zM532 1448l175 -299l-9 -8l-262 217q-51 39 -51 80q0 28 22 46.5t52 18.5q39 0 73 -55z" />
    <glyph glyph-name="uacute" unicode="&#xfa;" horiz-adv-x="1116" 
d="M983 72l2 -11q-106 -75 -207 -75q-44 0 -62 22t-18 74q0 91 33 237q-67 -137 -194 -243q-127 -103 -252 -103q-80 0 -118 35t-38 119q0 60 104 528q31 152 31 201q0 35 -18 53q-20 20 -90 23v8q38 20 104 35q60 14 105 14q31 0 43 -10.5t12 -40.5q0 -46 -45 -233
q-107 -465 -107 -539q0 -51 19.5 -71.5t72.5 -20.5q84 0 172 73q92 73 144 156q63 97 84 199l98 469h129l-108 -518q-43 -203 -43 -306q0 -84 63 -84q43 0 84 9zM877 1352l-312 -215l-8 8l225 295q42 57 86 57q30 0 48 -17t18 -46q0 -45 -57 -82z" />
    <glyph glyph-name="ucircumflex" unicode="&#xfb;" horiz-adv-x="1116" 
d="M983 72l2 -11q-106 -75 -207 -75q-44 0 -62 22t-18 74q0 91 33 237q-67 -137 -194 -243q-127 -103 -252 -103q-80 0 -118 35t-38 119q0 60 104 528q31 152 31 201q0 35 -18 53q-20 20 -90 23v8q38 20 104 35q60 14 105 14q31 0 43 -10.5t12 -40.5q0 -46 -45 -233
q-107 -465 -107 -539q0 -51 19.5 -71.5t72.5 -20.5q84 0 172 73q92 73 144 156q63 97 84 199l98 469h129l-108 -518q-43 -203 -43 -306q0 -84 63 -84q43 0 84 9zM795 1434l135 -291l-12 -8l-207 206l-310 -206l-8 10l269 291q43 43 79 43q34 0 54 -45z" />
    <glyph glyph-name="udieresis" unicode="&#xfc;" horiz-adv-x="1116" 
d="M983 72l2 -11q-106 -75 -207 -75q-44 0 -62 22t-18 74q0 91 33 237q-67 -137 -194 -243q-127 -103 -252 -103q-80 0 -118 35t-38 119q0 60 104 528q31 152 31 201q0 35 -18 53q-20 20 -90 23v8q38 20 104 35q60 14 105 14q31 0 43 -10.5t12 -40.5q0 -46 -45 -233
q-107 -465 -107 -539q0 -51 19.5 -71.5t72.5 -20.5q84 0 172 73q92 73 144 156q63 97 84 199l98 469h129l-108 -518q-43 -203 -43 -306q0 -84 63 -84q43 0 84 9zM606 1296q0 -42 -26.5 -70t-67.5 -28q-36 0 -58 22t-22 58q0 47 26.5 74.5t71.5 27.5q35 0 55.5 -23t20.5 -61z
M915 1296q0 -42 -26.5 -70t-67.5 -28q-36 0 -58 22t-22 58q0 44 28 73t71 29q35 0 55 -22.5t20 -61.5z" />
    <glyph glyph-name="yacute" unicode="&#xfd;" horiz-adv-x="952" 
d="M-172 -309h12q21 -90 76 -90q62 0 137 69q100 85 260 312h-59l-39 815q-3 93 -33 116q-27 17 -90 23l-2 8q103 53 209 53q34 0 43 -45q8 -58 8 -118q27 -665 29 -781q216 337 305 496q137 238 137 330q0 40 -43 49q-36 8 -59 8l-2 8q39 23 98.5 38t93.5 15q43 0 43 -34
q0 -88 -151 -342q-110 -188 -408 -629q-179 -257 -274 -357q-128 -143 -236 -143q-78 0 -78 62q0 43 23 137zM825 1352l-311 -215l-8 8l225 295q42 57 86 57q30 0 48 -17t18 -46q0 -45 -58 -82z" />
    <glyph glyph-name="thorn" unicode="&#xfe;" horiz-adv-x="1085" 
d="M311 -440l-2 -11h-422l2 11q77 22 105 57q30 42 59 178l258 1223q47 214 47 301q0 39 -12 57q-17 21 -82 35v8q128 43 221 43q23 0 31 -8t8 -31q0 -44 -39 -213q-83 -392 -127 -553q79 163 199 250q125 90 227 90q106 0 154.5 -58t48.5 -196q0 -145 -61 -331
q-61 -184 -164 -293q-139 -142 -342 -142q-118 0 -191 31l-43 -207q-18 -99 -18 -137q0 -42 27.5 -61t115.5 -43zM289 63q51 -26 151 -26q138 0 232 119q63 84 116 272q54 193 54 301q0 176 -127 176q-86 0 -187 -88q-98 -82 -159 -213q-25 -55 -47 -158l-43 -206
q-21 -96 -20.5 -130t30.5 -47z" />
    <glyph glyph-name="ydieresis" unicode="&#xff;" horiz-adv-x="952" 
d="M-178 -309h12q21 -90 76 -90q62 0 137 69q100 85 260 312h-59l-39 815q-3 93 -33 116q-27 17 -90 23l-2 8q103 53 209 53q34 0 43 -45q8 -58 8 -118q27 -665 29 -781q216 337 305 496q137 238 137 330q0 40 -43 49q-36 8 -59 8l-2 8q39 23 98.5 38t93.5 15q43 0 43 -34
q0 -88 -151 -342q-110 -188 -408 -629q-179 -257 -274 -357q-128 -143 -236 -143q-78 0 -78 62q0 43 23 137zM549 1296q0 -42 -26.5 -70t-67.5 -28q-36 0 -58 22t-22 58q0 47 26.5 74.5t71.5 27.5q35 0 55.5 -23t20.5 -61zM858 1296q0 -42 -26.5 -70t-67.5 -28q-36 0 -58 22
t-22 58q0 44 27.5 73t70.5 29q35 0 55.5 -23t20.5 -61z" />
    <glyph glyph-name="Amacron" unicode="&#x100;" horiz-adv-x="1298" 
d="M270 12l-2 -12h-366l2 12q58 12 96 47q39 34 90 121l504 885l172 301h96l23 -147l22 -140l137 -876q18 -114 48 -148q22 -28 94 -43l-2 -12h-424l2 12q55 11 94 35q41 21 41 74q0 39 -6 82l-43 291h-496l-162 -295q-45 -80 -45 -113q0 -37 37 -49q40 -13 88 -25zM387 555
h451l-99 647q-71 -146 -352 -647zM1104 1636l-19 -100h-526l21 100h524z" />
    <glyph glyph-name="amacron" unicode="&#x101;" horiz-adv-x="1069" 
d="M954 72l4 -11q-115 -75 -219 -75q-71 0 -71 94q0 115 34 260q-79 -172 -198 -269.5t-230 -97.5q-97 0 -145.5 59t-48.5 201q0 169 80 367q79 199 207 295q138 102 317 102q183 0 291 -51q-57 -75 -148 -596q-20 -111 -20 -209q0 -82 61 -82q42 0 86 13zM782 920
q-36 20 -131 20q-113 0 -202 -80q-91 -82 -158 -270q-68 -192 -68 -332q0 -184 117 -184q83 0 178 84t160 219q42 86 113 422q11 50 10 80t-19 41zM979 1311l-25 -105h-487l27 105h485z" />
    <glyph glyph-name="Abreve" unicode="&#x102;" horiz-adv-x="1298" 
d="M270 12l-2 -12h-366l2 12q58 12 96 47q39 34 90 121l504 885l172 301h96l23 -147l22 -140l137 -876q18 -114 48 -148q22 -28 94 -43l-2 -12h-424l2 12q55 11 94 35q41 21 41 74q0 39 -6 82l-43 291h-496l-162 -295q-45 -80 -45 -113q0 -37 37 -49q40 -13 88 -25zM387 555
h451l-99 647q-71 -146 -352 -647zM1094 1747l12 -2q-15 -121 -83 -193.5t-196 -72.5q-217 0 -217 200q0 22 11 68h10q5 -74 57.5 -117t147.5 -43q193 0 258 160z" />
    <glyph glyph-name="abreve" unicode="&#x103;" horiz-adv-x="1069" 
d="M954 72l4 -11q-115 -75 -219 -75q-71 0 -71 94q0 115 34 260q-79 -172 -198 -269.5t-230 -97.5q-97 0 -145.5 59t-48.5 201q0 169 80 367q79 199 207 295q138 102 317 102q183 0 291 -51q-57 -75 -148 -596q-20 -111 -20 -209q0 -82 61 -82q42 0 86 13zM782 920
q-36 20 -131 20q-113 0 -202 -80q-91 -82 -158 -270q-68 -192 -68 -332q0 -184 117 -184q83 0 178 84t160 219q42 86 113 422q11 50 10 80t-19 41zM956 1419l15 -2q-11 -61 -25.5 -101.5t-42.5 -82.5q-62 -90 -203 -90q-198 0 -198 207q0 36 10 69h10q9 -168 187 -168
q99 0 154.5 40t92.5 128z" />
    <glyph glyph-name="Aogonek" unicode="&#x104;" horiz-adv-x="1298" 
d="M1012 -344l6 -2l-2 -8q0 -17 -17 -31q-42 -39 -118 -39q-89 0 -136 42t-47 112q0 168 234 270h-172l2 12q55 11 94 35q41 21 41 74q0 39 -6 82l-43 291h-496l-162 -295q-45 -80 -45 -113q0 -37 37 -49q40 -13 88 -25l-2 -12h-366l2 12q58 12 96 47q39 34 90 121l504 885
l172 301h96l23 -147l22 -140l137 -876q18 -114 48 -148q22 -28 94 -43l-2 -12h-205q-170 -102 -170 -248q0 -112 113 -112q61 0 90 16zM387 555h451l-99 647q-71 -146 -352 -647z" />
    <glyph glyph-name="aogonek" unicode="&#x105;" horiz-adv-x="1069" 
d="M846 -330l6 -2l-2 -10q-3 -18 -16 -31q-46 -37 -115 -37q-88 0 -132 40.5t-44 109.5q0 155 192 246q-67 3 -67 94q0 115 34 260q-79 -172 -198 -269.5t-230 -97.5q-97 0 -145.5 59t-48.5 201q0 169 80 367q79 199 207 295q138 102 317 102q183 0 291 -51
q-57 -75 -148 -596q-20 -111 -20 -209q0 -82 61 -82q42 0 86 13l4 -11q-78 -50 -153 -65q-156 -99 -156 -236q0 -108 109 -108q61 0 88 18zM782 920q-36 20 -131 20q-113 0 -202 -80q-91 -82 -158 -270q-68 -192 -68 -332q0 -184 117 -184q83 0 178 84t160 219
q42 86 113 422q11 50 10 80t-19 41z" />
    <glyph glyph-name="Cacute" unicode="&#x106;" horiz-adv-x="1263" 
d="M1106 250l12 -2q-15 -100 -37 -162q-18 -41 -94 -68q-125 -45 -321 -45q-270 0 -408.5 142t-138.5 399q0 241 90.5 440t265.5 314q192 125 469 125q166 0 281 -47q53 -24 53 -60q0 -65 -51 -205h-13q-15 113 -55 162q-71 86 -237 86q-228 0 -390 -143
q-122 -104 -188 -285q-61 -174 -61 -369q0 -230 114 -362.5t322 -132.5q151 0 252 67q77 51 135 146zM1126 1626l-350 -151l-8 12l287 254q41 35 78 35q30 0 48.5 -21.5t18.5 -54.5q0 -47 -74 -74z" />
    <glyph glyph-name="cacute" unicode="&#x107;" horiz-adv-x="835" 
d="M709 172l6 -4q-4 -22 -17 -47q-19 -31 -49 -58q-110 -90 -274 -90q-141 0 -217 82.5t-76 237.5q0 170 59 338q62 171 168 258q126 108 303 108q108 0 164 -26q37 -15 37 -43q0 -56 -43 -160h-10q-20 92 -59.5 132t-110.5 40q-119 0 -195 -88q-76 -82 -123 -231t-47 -295
q0 -135 58.5 -199t158.5 -64q152 0 267 109zM870 1352l-311 -215l-8 8l225 295q42 57 86 57q30 0 48 -17t18 -46q0 -45 -58 -82z" />
    <glyph glyph-name="Ccircumflex" unicode="&#x108;" horiz-adv-x="1263" 
d="M1106 250l12 -2q-15 -100 -37 -162q-18 -41 -94 -68q-125 -45 -321 -45q-270 0 -408.5 142t-138.5 399q0 241 90.5 440t265.5 314q192 125 469 125q166 0 281 -47q53 -24 53 -60q0 -65 -51 -205h-13q-15 113 -55 162q-71 86 -237 86q-228 0 -390 -143
q-122 -104 -188 -285q-61 -174 -61 -369q0 -230 114 -362.5t322 -132.5q151 0 252 67q77 51 135 146zM1026 1712l176 -256l-12 -10l-248 172l-319 -170l-11 14l279 254q40 37 76 37q32 0 59 -41z" />
    <glyph glyph-name="ccircumflex" unicode="&#x109;" horiz-adv-x="835" 
d="M709 172l6 -4q-4 -22 -17 -47q-19 -31 -49 -58q-110 -90 -274 -90q-141 0 -217 82.5t-76 237.5q0 170 59 338q62 171 168 258q126 108 303 108q108 0 164 -26q37 -15 37 -43q0 -56 -43 -160h-10q-20 92 -59.5 132t-110.5 40q-119 0 -195 -88q-76 -82 -123 -231t-47 -295
q0 -135 58.5 -199t158.5 -64q152 0 267 109zM770 1434l135 -291l-12 -8l-207 206l-309 -206l-8 10l268 291q43 43 80 43q33 0 53 -45z" />
    <glyph glyph-name="Cdotaccent" unicode="&#x10a;" horiz-adv-x="1263" 
d="M1106 250l12 -2q-15 -100 -37 -162q-18 -41 -94 -68q-125 -45 -321 -45q-270 0 -408.5 142t-138.5 399q0 241 90.5 440t265.5 314q192 125 469 125q166 0 281 -47q53 -24 53 -60q0 -65 -51 -205h-13q-15 113 -55 162q-71 86 -237 86q-228 0 -390 -143
q-122 -104 -188 -285q-61 -174 -61 -369q0 -230 114 -362.5t322 -132.5q151 0 252 67q77 51 135 146zM1001 1571q0 -42 -27 -70t-69 -28q-37 0 -59.5 21.5t-22.5 57.5q0 47 28 76t73 29q35 0 56 -23.5t21 -62.5z" />
    <glyph glyph-name="cdotaccent" unicode="&#x10b;" horiz-adv-x="835" 
d="M709 172l6 -4q-4 -22 -17 -47q-19 -31 -49 -58q-110 -90 -274 -90q-141 0 -217 82.5t-76 237.5q0 170 59 338q62 171 168 258q126 108 303 108q108 0 164 -26q37 -15 37 -43q0 -56 -43 -160h-10q-20 92 -59.5 132t-110.5 40q-119 0 -195 -88q-76 -82 -123 -231t-47 -295
q0 -135 58.5 -199t158.5 -64q152 0 267 109zM737 1296q0 -42 -26.5 -70t-67.5 -28q-36 0 -58 22t-22 58q0 47 27 74.5t72 27.5q35 0 55 -22.5t20 -61.5z" />
    <glyph glyph-name="Ccaron" unicode="&#x10c;" horiz-adv-x="1263" 
d="M1106 250l12 -2q-15 -100 -37 -162q-18 -41 -94 -68q-125 -45 -321 -45q-270 0 -408.5 142t-138.5 399q0 241 90.5 440t265.5 314q192 125 469 125q166 0 281 -47q53 -24 53 -60q0 -65 -51 -205h-13q-15 113 -55 162q-71 86 -237 86q-228 0 -390 -143
q-122 -104 -188 -285q-61 -174 -61 -369q0 -230 114 -362.5t322 -132.5q151 0 252 67q77 51 135 146zM834 1507l-177 258l11 11l247 -172l324 168l8 -13l-278 -254q-40 -37 -76 -37q-33 0 -59 39z" />
    <glyph glyph-name="ccaron" unicode="&#x10d;" horiz-adv-x="835" 
d="M709 172l6 -4q-4 -22 -17 -47q-19 -31 -49 -58q-110 -90 -274 -90q-141 0 -217 82.5t-76 237.5q0 170 59 338q62 171 168 258q126 108 303 108q108 0 164 -26q37 -15 37 -43q0 -56 -43 -160h-10q-20 92 -59.5 132t-110.5 40q-119 0 -195 -88q-76 -82 -123 -231t-47 -295
q0 -135 58.5 -199t158.5 -64q152 0 267 109zM551 1180l-133 290l10 9l207 -207l309 205l8 -11l-270 -288q-45 -45 -76 -45q-34 0 -55 47z" />
    <glyph glyph-name="Dcaron" unicode="&#x10e;" horiz-adv-x="1443" 
d="M535 0h-504l2 12q65 18 92.5 34t40.5 46q17 32 51 201l152 770q28 146 28 194q0 40 -24 59.5t-92 37.5l2 12h485q304 0 442 -106q164 -126 164 -386q0 -155 -29.5 -285.5t-94 -240.5t-161.5 -186.5t-237.5 -119t-316.5 -42.5zM537 1145l-175 -879q-19 -93 -16.5 -136.5
t37.5 -53.5q53 -17 164 -17q314 0 489 224q176 226 176 579q0 187 -84 297q-115 148 -372 148h-51q-94 0 -125 -25q-22 -19 -43 -137zM756 1507l-176 258l10 11l248 -172l323 168l8 -13l-278 -254q-40 -37 -76 -37q-33 0 -59 39z" />
    <glyph glyph-name="dcaron" unicode="&#x10f;" horiz-adv-x="1091" 
d="M958 72l3 -11q-115 -75 -211 -75q-43 0 -61.5 21.5t-18.5 74.5q0 101 32 246q-84 -170 -202 -262.5t-226 -92.5q-99 0 -145.5 55.5t-46.5 196.5q0 170 78 373q80 201 205 295q137 104 313 104q94 0 149 -22l17 67q41 193 41 254q0 51 -13 64q-15 18 -81 33v10
q128 43 223 43q39 0 39 -37q0 -16 -43 -213l-117 -534q-82 -376 -82 -515q0 -88 57 -88q36 0 90 13zM684 375q35 84 107 420q13 56 12 83t-23 37q-45 25 -133 25q-114 0 -196 -82q-93 -93 -158 -274q-68 -189 -68 -330q0 -180 115 -180q80 0 180 80q99 80 164 221z
M1090 1047l-7 16q183 89 183 174q0 33 -29 59q-35 30 -35 70q0 35 23 56.5t61 21.5q44 0 71 -30t27 -81q0 -96 -82 -171t-212 -115z" />
    <glyph glyph-name="Dcroat" unicode="&#x110;" horiz-adv-x="1443" 
d="M535 0h-504l2 12q65 18 92.5 34t40.5 46q17 32 51 201l76 389h-191l15 74h190l62 307q28 146 28 194q0 40 -24 59.5t-92 37.5l2 12h485q304 0 442 -106q164 -126 164 -386q0 -155 -29.5 -285.5t-94 -240.5t-161.5 -186.5t-237.5 -119t-316.5 -42.5zM444 682l-82 -416
q-19 -93 -16.5 -136.5t37.5 -53.5q53 -17 164 -17q314 0 489 224q176 226 176 579q0 187 -84 297q-115 148 -372 148h-51q-94 0 -125 -25q-22 -19 -43 -137l-78 -389h366l-16 -74h-365z" />
    <glyph glyph-name="dslash" unicode="&#x111;" horiz-adv-x="1091" 
d="M956 72l2 -11q-115 -75 -210 -75q-43 0 -61.5 21.5t-18.5 74.5q0 101 32 246q-84 -170 -202 -262.5t-226 -92.5q-99 0 -145.5 55.5t-46.5 196.5q0 170 78 373q81 203 204 295q137 104 314 104q94 0 149 -22l17 67l20 111h-252l17 66h245q2 17 5 36t4.5 28t1.5 13
q0 51 -13 64q-14 17 -82 33v10q128 43 224 43q39 0 39 -37q0 -33 -39 -190h168l-13 -66h-170l-106 -491q-82 -376 -82 -515q0 -88 57 -88q36 0 90 13zM682 375q33 79 106 420q14 56 13 83t-23 37q-45 25 -133 25q-114 0 -196 -82q-93 -93 -158 -274q-68 -189 -68 -330
q0 -180 115 -180q80 0 180 80q99 80 164 221z" />
    <glyph glyph-name="Emacron" unicode="&#x112;" horiz-adv-x="1099" 
d="M860 0h-829l2 12q85 20 114 49q35 35 62 183l174 899q14 71 14 114q0 34 -18 52q-24 24 -98 45l2 12h768q24 0 33.5 -8t9.5 -27q0 -51 -54 -215h-12q-15 147 -78 172q-35 15 -139 15h-188q-34 0 -50 -17t-22 -55l-94 -490h161q105 0 162 11q53 10 80.5 38t59.5 97h14
l-70 -350h-14q-2 64 -24 95.5t-76 41.5q-41 6 -142 6h-164l-94 -494q-10 -42 -10 -75q0 -43 82 -43h225q136 0 195 41q73 51 135 161h12q-13 -83 -43 -215q-10 -36 -26 -45.5t-60 -9.5zM1028 1636l-18 -100h-527l21 100h524z" />
    <glyph glyph-name="emacron" unicode="&#x113;" horiz-adv-x="880" 
d="M711 170l6 -4q0 -15 -6 -27q-17 -35 -37 -55q-102 -111 -293 -111q-293 0 -293 334q0 146 55 301q54 156 152 258q131 131 311 131q223 0 223 -180q0 -120 -120 -223q-64 -55 -186.5 -88.5t-280.5 -34.5q-13 -63 -13 -141q0 -267 222 -267q147 0 260 107zM250 512
q221 12 340 96t119 213q0 123 -125 123q-114 0 -201.5 -115.5t-132.5 -316.5zM903 1311l-24 -105h-488l27 105h485z" />
    <glyph glyph-name="Ebreve" unicode="&#x114;" horiz-adv-x="1099" 
d="M860 0h-829l2 12q85 20 114 49q35 35 62 183l174 899q14 71 14 114q0 34 -18 52q-24 24 -98 45l2 12h768q24 0 33.5 -8t9.5 -27q0 -51 -54 -215h-12q-15 147 -78 172q-35 15 -139 15h-188q-34 0 -50 -17t-22 -55l-94 -490h161q105 0 162 11q53 10 80.5 38t59.5 97h14
l-70 -350h-14q-2 64 -24 95.5t-76 41.5q-41 6 -142 6h-164l-94 -494q-10 -42 -10 -75q0 -43 82 -43h225q136 0 195 41q73 51 135 161h12q-13 -83 -43 -215q-10 -36 -26 -45.5t-60 -9.5zM1010 1747l12 -2q-15 -121 -83 -193.5t-196 -72.5q-217 0 -217 200q0 22 11 68h10
q5 -74 57.5 -117t147.5 -43q193 0 258 160z" />
    <glyph glyph-name="ebreve" unicode="&#x115;" horiz-adv-x="880" 
d="M711 170l6 -4q0 -15 -6 -27q-17 -35 -37 -55q-102 -111 -293 -111q-293 0 -293 334q0 146 55 301q54 156 152 258q131 131 311 131q223 0 223 -180q0 -120 -120 -223q-64 -55 -186.5 -88.5t-280.5 -34.5q-13 -63 -13 -141q0 -267 222 -267q147 0 260 107zM250 512
q221 12 340 96t119 213q0 123 -125 123q-114 0 -201.5 -115.5t-132.5 -316.5zM874 1419l15 -2q-11 -61 -25.5 -101.5t-42.5 -82.5q-62 -90 -203 -90q-198 0 -198 207q0 36 10 69h10q9 -168 187 -168q99 0 154.5 40t92.5 128z" />
    <glyph glyph-name="Edotaccent" unicode="&#x116;" horiz-adv-x="1099" 
d="M860 0h-829l2 12q85 20 114 49q35 35 62 183l174 899q14 71 14 114q0 34 -18 52q-24 24 -98 45l2 12h768q24 0 33.5 -8t9.5 -27q0 -51 -54 -215h-12q-15 147 -78 172q-35 15 -139 15h-188q-34 0 -50 -17t-22 -55l-94 -490h161q105 0 162 11q53 10 80.5 38t59.5 97h14
l-70 -350h-14q-2 64 -24 95.5t-76 41.5q-41 6 -142 6h-164l-94 -494q-10 -42 -10 -75q0 -43 82 -43h225q136 0 195 41q73 51 135 161h12q-13 -83 -43 -215q-10 -36 -26 -45.5t-60 -9.5zM842 1571q0 -42 -27.5 -70t-69.5 -28q-37 0 -59 21t-22 58q0 47 28 76t72 29
q35 0 56.5 -24t21.5 -62z" />
    <glyph glyph-name="edotaccent" unicode="&#x117;" horiz-adv-x="880" 
d="M711 170l6 -4q0 -15 -6 -27q-17 -35 -37 -55q-102 -111 -293 -111q-293 0 -293 334q0 146 55 301q54 156 152 258q131 131 311 131q223 0 223 -180q0 -120 -120 -223q-64 -55 -186.5 -88.5t-280.5 -34.5q-13 -63 -13 -141q0 -267 222 -267q147 0 260 107zM250 512
q221 12 340 96t119 213q0 123 -125 123q-114 0 -201.5 -115.5t-132.5 -316.5zM739 1296q0 -42 -26.5 -70t-67.5 -28q-36 0 -58 22t-22 58q0 47 27 74.5t72 27.5q35 0 55 -22.5t20 -61.5z" />
    <glyph glyph-name="Eogonek" unicode="&#x118;" horiz-adv-x="1099" 
d="M813 0h-782l2 12q85 20 114 49q35 35 62 183l174 899q14 71 14 114q0 34 -18 52q-24 24 -98 45l2 12h768q24 0 33.5 -8t9.5 -27q0 -51 -54 -215h-12q-15 147 -78 172q-35 15 -139 15h-188q-34 0 -50 -17t-22 -55l-94 -490h161q105 0 162 11q53 10 80.5 38t59.5 97h14
l-70 -350h-14q-2 64 -24 95.5t-76 41.5q-41 6 -142 6h-164l-94 -494q-10 -42 -10 -75q0 -43 82 -43h225q136 0 195 41q73 51 135 161h12q-13 -83 -43 -215q-10 -36 -25.5 -45.5t-58.5 -9.5q-166 -94 -166 -240q0 -108 109 -108q61 0 88 18l6 -2l-2 -10q-3 -18 -16 -31
q-46 -37 -115 -37q-88 0 -132 40.5t-44 109.5q0 166 223 260z" />
    <glyph glyph-name="eogonek" unicode="&#x119;" horiz-adv-x="880" 
d="M532 -330l7 -2l-2 -10q-3 -17 -17 -31q-46 -37 -114 -37q-88 0 -132.5 40.5t-44.5 109.5q0 145 168 233h-16q-293 0 -293 334q0 146 55 301q54 156 152 258q131 131 311 131q223 0 223 -180q0 -120 -120 -223q-64 -55 -186.5 -88.5t-280.5 -34.5q-13 -63 -13 -141
q0 -267 222 -267q147 0 260 107l6 -4q0 -15 -6 -27q-17 -35 -37 -55q-78 -78 -203 -102q-135 -92 -135 -222q0 -108 108 -108q61 0 88 18zM250 512q221 12 340 96t119 213q0 123 -125 123q-114 0 -201.5 -115.5t-132.5 -316.5z" />
    <glyph glyph-name="Ecaron" unicode="&#x11a;" horiz-adv-x="1099" 
d="M860 0h-829l2 12q85 20 114 49q35 35 62 183l174 899q14 71 14 114q0 34 -18 52q-24 24 -98 45l2 12h768q24 0 33.5 -8t9.5 -27q0 -51 -54 -215h-12q-15 147 -78 172q-35 15 -139 15h-188q-34 0 -50 -17t-22 -55l-94 -490h161q105 0 162 11q53 10 80.5 38t59.5 97h14
l-70 -350h-14q-2 64 -24 95.5t-76 41.5q-41 6 -142 6h-164l-94 -494q-10 -42 -10 -75q0 -43 82 -43h225q136 0 195 41q73 51 135 161h12q-13 -83 -43 -215q-10 -36 -26 -45.5t-60 -9.5zM666 1507l-177 258l11 11l248 -172l323 168l8 -13l-278 -254q-40 -37 -76 -37
q-33 0 -59 39z" />
    <glyph glyph-name="ecaron" unicode="&#x11b;" horiz-adv-x="880" 
d="M711 170l6 -4q0 -15 -6 -27q-17 -35 -37 -55q-102 -111 -293 -111q-293 0 -293 334q0 146 55 301q54 156 152 258q131 131 311 131q223 0 223 -180q0 -120 -120 -223q-64 -55 -186.5 -88.5t-280.5 -34.5q-13 -63 -13 -141q0 -267 222 -267q147 0 260 107zM250 512
q221 12 340 96t119 213q0 123 -125 123q-114 0 -201.5 -115.5t-132.5 -316.5zM553 1180l-133 290l10 9l207 -207l309 205l8 -11l-270 -288q-45 -45 -76 -45q-34 0 -55 47z" />
    <glyph glyph-name="Gcircumflex" unicode="&#x11c;" horiz-adv-x="1402" 
d="M1124 25q-27 -3 -186 -27q-144 -25 -250 -25q-273 0 -421 145t-148 406q0 206 84 400q84 186 243 309q213 160 519 160q192 0 301 -50q31 -12 42 -24.5t11 -36.5q0 -44 -53 -201h-11q-9 72 -34 125q-67 123 -275 123q-262 0 -436 -168q-108 -102 -166.5 -266t-58.5 -348
q0 -234 115.5 -371t332.5 -137q160 0 219 47q26 20 35 82l35 170q18 102 18 151q0 44 -28 67t-101 44l2 10h416l-2 -10q-70 -24 -96 -57q-33 -41 -62 -201l-24 -137q-21 -99 -21 -180zM1034 1712l176 -256l-12 -10l-248 172l-319 -170l-10 14l278 254q40 37 76 37
q32 0 59 -41z" />
    <glyph glyph-name="gcircumflex" unicode="&#x11d;" horiz-adv-x="1077" 
d="M190 -205h13q10 -95 70.5 -145.5t158.5 -50.5q127 0 203 79q92 95 162 373q43 173 77 293q-88 -173 -206 -265.5t-226 -92.5q-96 0 -144 58.5t-48 199.5q0 166 80 358q80 196 202 289q135 106 326 106q193 0 285 -51q-24 -35 -58 -176l-28 -127l-31 -149l-27 -132
q-78 -380 -125 -501q-47 -127 -131 -205q-119 -113 -340 -113q-151 0 -213 45q-32 19 -32 54q0 53 32 153zM975 879q0 27 -25 39q-39 22 -129 22q-115 0 -203 -82q-85 -80 -157 -270q-68 -189 -68 -324q0 -182 117 -182q82 0 180 82q100 81 162 223q31 70 111 414
q12 50 12 78zM993 1434l135 -291l-12 -8l-207 206l-309 -206l-8 10l268 291q43 43 80 43q33 0 53 -45z" />
    <glyph glyph-name="Gbreve" unicode="&#x11e;" horiz-adv-x="1402" 
d="M1124 25q-27 -3 -186 -27q-144 -25 -250 -25q-273 0 -421 145t-148 406q0 206 84 400q84 186 243 309q213 160 519 160q192 0 301 -50q31 -12 42 -24.5t11 -36.5q0 -44 -53 -201h-11q-9 72 -34 125q-67 123 -275 123q-262 0 -436 -168q-108 -102 -166.5 -266t-58.5 -348
q0 -234 115.5 -371t332.5 -137q160 0 219 47q26 20 35 82l35 170q18 102 18 151q0 44 -28 67t-101 44l2 10h416l-2 -10q-70 -24 -96 -57q-33 -41 -62 -201l-24 -137q-21 -99 -21 -180zM1188 1747l12 -2q-15 -121 -82.5 -193.5t-195.5 -72.5q-217 0 -217 200q0 26 10 68h10
q5 -74 57.5 -117t147.5 -43q193 0 258 160z" />
    <glyph glyph-name="gbreve" unicode="&#x11f;" horiz-adv-x="1077" 
d="M190 -205h13q10 -95 70.5 -145.5t158.5 -50.5q127 0 203 79q92 95 162 373q43 173 77 293q-88 -173 -206 -265.5t-226 -92.5q-96 0 -144 58.5t-48 199.5q0 166 80 358q80 196 202 289q135 106 326 106q193 0 285 -51q-24 -35 -58 -176l-28 -127l-31 -149l-27 -132
q-78 -380 -125 -501q-47 -127 -131 -205q-119 -113 -340 -113q-151 0 -213 45q-32 19 -32 54q0 53 32 153zM975 879q0 27 -25 39q-39 22 -129 22q-115 0 -203 -82q-85 -80 -157 -270q-68 -189 -68 -324q0 -182 117 -182q82 0 180 82q100 81 162 223q31 70 111 414
q12 50 12 78zM1106 1419l14 -2q-21 -115 -67 -184q-62 -90 -203 -90q-199 0 -199 207q0 32 11 69h10q9 -168 186 -168q100 0 155.5 40t92.5 128z" />
    <glyph glyph-name="Gdotaccent" unicode="&#x120;" horiz-adv-x="1402" 
d="M1124 25q-27 -3 -186 -27q-144 -25 -250 -25q-273 0 -421 145t-148 406q0 206 84 400q84 186 243 309q213 160 519 160q192 0 301 -50q31 -12 42 -24.5t11 -36.5q0 -44 -53 -201h-11q-9 72 -34 125q-67 123 -275 123q-262 0 -436 -168q-108 -102 -166.5 -266t-58.5 -348
q0 -234 115.5 -371t332.5 -137q160 0 219 47q26 20 35 82l35 170q18 102 18 151q0 44 -28 67t-101 44l2 10h416l-2 -10q-70 -24 -96 -57q-33 -41 -62 -201l-24 -137q-21 -99 -21 -180zM1018 1571q0 -42 -27 -70t-69 -28q-37 0 -59.5 21.5t-22.5 57.5q0 47 28 76t72 29
q35 0 56.5 -24t21.5 -62z" />
    <glyph glyph-name="gdotaccent" unicode="&#x121;" horiz-adv-x="1077" 
d="M190 -205h13q10 -95 70.5 -145.5t158.5 -50.5q127 0 203 79q92 95 162 373q43 173 77 293q-88 -173 -206 -265.5t-226 -92.5q-96 0 -144 58.5t-48 199.5q0 166 80 358q80 196 202 289q135 106 326 106q193 0 285 -51q-24 -35 -58 -176l-28 -127l-31 -149l-27 -132
q-78 -380 -125 -501q-47 -127 -131 -205q-119 -113 -340 -113q-151 0 -213 45q-32 19 -32 54q0 53 32 153zM975 879q0 27 -25 39q-39 22 -129 22q-115 0 -203 -82q-85 -80 -157 -270q-68 -189 -68 -324q0 -182 117 -182q82 0 180 82q100 81 162 223q31 70 111 414
q12 50 12 78zM979 1296q0 -42 -26.5 -70t-67.5 -28q-36 0 -58 22t-22 58q0 47 26.5 74.5t71.5 27.5q35 0 55.5 -23t20.5 -61z" />
    <glyph glyph-name="Gcommaaccent" unicode="&#x122;" horiz-adv-x="1402" 
d="M1124 25q-27 -3 -186 -27q-144 -25 -250 -25q-273 0 -421 145t-148 406q0 206 84 400q84 186 243 309q213 160 519 160q192 0 301 -50q31 -12 42 -24.5t11 -36.5q0 -44 -53 -201h-11q-9 72 -34 125q-67 123 -275 123q-262 0 -436 -168q-108 -102 -166.5 -266t-58.5 -348
q0 -234 115.5 -371t332.5 -137q160 0 219 47q26 20 35 82l35 170q18 102 18 151q0 44 -28 67t-101 44l2 10h416l-2 -10q-70 -24 -96 -57q-33 -41 -62 -201l-24 -137q-21 -99 -21 -180zM424 -489l-6 16q182 83 182 174q0 33 -29 59q-34 30 -34 70q0 33 24 54.5t62 21.5
q96 0 96 -109q0 -98 -81.5 -171.5t-213.5 -114.5z" />
    <glyph glyph-name="gcommaaccent" unicode="&#x123;" horiz-adv-x="1077" 
d="M897 1526l8 -15q-75 -36 -126.5 -84t-51.5 -94q0 -30 29 -59q35 -35 35 -72q0 -33 -23 -54.5t-63 -21.5q-44 0 -70.5 30t-26.5 81q0 98 80 173t209 116zM18 -205h13q10 -95 70.5 -145.5t158.5 -50.5q127 0 203 79q92 95 162 373q43 173 77 293q-88 -173 -206 -265.5
t-226 -92.5q-96 0 -144 58.5t-48 199.5q0 166 80 358q80 196 202 289q135 106 326 106q193 0 285 -51q-24 -35 -58 -176l-28 -127l-31 -149l-27 -132q-78 -380 -125 -501q-47 -127 -131 -205q-119 -113 -340 -113q-151 0 -213 45q-32 19 -32 54q0 53 32 153zM803 879
q0 27 -25 39q-39 22 -129 22q-115 0 -203 -82q-85 -80 -157 -270q-68 -189 -68 -324q0 -182 117 -182q82 0 180 82q100 81 162 223q31 70 111 414q12 50 12 78z" />
    <glyph glyph-name="Hcircumflex" unicode="&#x124;" horiz-adv-x="1521" 
d="M1294 12l-2 -12h-428l2 12q88 21 123 62q24 27 58 192l81 414h-684l-82 -416q-20 -103 -20 -162q0 -34 27 -53t92 -37l-2 -12h-426l2 12q85 20 121 62q22 25 57 192l164 836q20 100 20 160q0 40 -24.5 59t-89.5 33l2 12h426l-2 -12q-83 -18 -119 -54q-33 -33 -62 -192
l-71 -367h684l71 361q21 105 21 160q0 40 -25 59t-92 33l2 12h426l-2 -12q-83 -18 -119 -54q-32 -32 -61 -192l-166 -844q-18 -99 -18 -162q0 -34 26.5 -53t89.5 -37zM1049 1712l176 -256l-13 -10l-247 172l-320 -170l-10 14l278 254q40 37 76 37q33 0 60 -41z" />
    <glyph glyph-name="hcircumflex" unicode="&#x125;" horiz-adv-x="1095" 
d="M330 481l-105 -481h-131l213 1001q51 236 51 297q0 37 -8 56q-17 30 -88 39v10q125 43 225 43q23 0 31 -8t8 -31q0 -24 -39 -199l-30 -139q-10 -49 -31 -135.5t-27 -114.5q-29 -130 -34 -141q68 134 194 225q125 94 244 94q80 0 115.5 -32.5t35.5 -112.5q0 -75 -104 -553
q-27 -129 -27 -190q0 -50 62 -50q34 0 78 13l2 -11q-121 -75 -224 -75q-65 0 -65 67q0 47 35 213q106 467 106 543q0 53 -20 74.5t-74 21.5q-76 0 -180 -78q-94 -73 -144 -155q-41 -66 -69 -191zM598 1702l176 -256l-12 -10l-248 172l-319 -170l-11 14l279 254q40 37 76 37
q32 0 59 -41z" />
    <glyph glyph-name="Hbar" unicode="&#x126;" horiz-adv-x="1521" 
d="M461 12l-2 -12h-426l2 12q85 20 121 62q22 25 57 192l139 709h-166l17 76h164l10 51q20 100 20 160q0 40 -24.5 59t-89.5 33l2 12h426l-2 -12q-83 -18 -119 -54q-33 -33 -62 -192l-12 -57h686l10 51q21 105 21 160q0 40 -25 59t-92 33l2 12h426l-2 -12q-83 -18 -119 -54
q-32 -32 -61 -192l-12 -57h161l-16 -76h-160l-139 -711q-18 -99 -18 -162q0 -34 26.5 -53t89.5 -37l-2 -12h-428l2 12q88 21 123 62q24 27 58 192l81 414h-684l-82 -416q-20 -103 -20 -162q0 -34 27 -53t92 -37zM1186 975h-684l-45 -234h684z" />
    <glyph glyph-name="hbar" unicode="&#x127;" horiz-adv-x="1095" 
d="M330 481l-105 -481h-131l213 1001l15 74q14 62 16 78h-160l15 66h155q10 68 10 79q0 37 -8 56q-17 30 -88 39v10q125 43 225 43q23 0 31 -8t8 -31q0 -6 -37 -188h259l-17 -66h-258q-80 -365 -108 -475q68 134 194 225q125 94 244 94q80 0 115.5 -32.5t35.5 -112.5
q0 -75 -104 -553q-27 -129 -27 -190q0 -50 62 -50q34 0 78 13l2 -11q-121 -75 -224 -75q-65 0 -65 67q0 47 35 213q106 467 106 543q0 53 -20 74.5t-74 21.5q-76 0 -180 -78q-94 -73 -144 -155q-41 -66 -69 -191z" />
    <glyph glyph-name="Itilde" unicode="&#x128;" horiz-adv-x="694" 
d="M461 12l-2 -12h-428l4 12q85 20 121 62q22 25 57 192l164 838q20 100 20 158q0 40 -24.5 59t-89.5 33l2 12h426l-2 -12q-83 -18 -119 -54q-33 -33 -62 -192l-166 -844q-20 -103 -20 -162q0 -34 27 -53t92 -37zM801 1706l14 -6q-38 -100 -78 -145.5t-104 -45.5
q-43 0 -127 41q-82 39 -117 39q-74 0 -131 -100l-14 6q67 205 180 205q41 0 127 -45q73 -37 119 -37q79 0 131 88z" />
    <glyph glyph-name="itilde" unicode="&#x129;" horiz-adv-x="548" 
d="M649 1360l10 -6q-59 -185 -165 -185q-49 0 -140 45q-72 35 -106 35q-79 0 -137 -94l-13 4q73 199 183 199q31 0 118 -41q86 -45 121 -45q40 0 68 19.5t61 68.5zM414 72l2 -11q-115 -75 -228 -75q-65 0 -65 71q0 48 37 209l69 322q45 210 45 274q0 35 -10 45
q-16 22 -90 25v10q118 47 211 47q28 0 37.5 -9.5t9.5 -33.5q0 -36 -43 -227l-86 -406q-29 -142 -29 -200q0 -54 58 -54q28 0 82 13z" />
    <glyph glyph-name="Imacron" unicode="&#x12a;" horiz-adv-x="694" 
d="M461 12l-2 -12h-428l4 12q85 20 121 62q22 25 57 192l164 838q20 100 20 158q0 40 -24.5 59t-89.5 33l2 12h426l-2 -12q-83 -18 -119 -54q-33 -33 -62 -192l-166 -844q-20 -103 -20 -162q0 -34 27 -53t92 -37zM807 1636l-19 -100h-526l21 100h524z" />
    <glyph glyph-name="imacron" unicode="&#x12b;" horiz-adv-x="548" 
d="M633 1311l-25 -105h-487l26 105h486zM414 72l2 -11q-115 -75 -228 -75q-65 0 -65 71q0 48 37 209l69 322q45 210 45 274q0 35 -10 45q-16 22 -90 25v10q118 47 211 47q28 0 37.5 -9.5t9.5 -33.5q0 -36 -43 -227l-86 -406q-29 -142 -29 -200q0 -54 58 -54q28 0 82 13z" />
    <glyph glyph-name="Ibreve" unicode="&#x12c;" horiz-adv-x="694" 
d="M461 12l-2 -12h-428l4 12q85 20 121 62q22 25 57 192l164 838q20 100 20 158q0 40 -24.5 59t-89.5 33l2 12h426l-2 -12q-83 -18 -119 -54q-33 -33 -62 -192l-166 -844q-20 -103 -20 -162q0 -34 27 -53t92 -37zM793 1747l12 -2q-15 -121 -83 -193.5t-196 -72.5
q-217 0 -217 200q0 26 10 68h11q5 -74 57.5 -117t147.5 -43q193 0 258 160z" />
    <glyph glyph-name="ibreve" unicode="&#x12d;" horiz-adv-x="548" 
d="M616 1419l15 -2q-11 -61 -25.5 -101.5t-42.5 -82.5q-62 -90 -203 -90q-198 0 -198 207q0 36 10 69h10q9 -168 187 -168q99 0 154.5 40t92.5 128zM414 72l2 -11q-115 -75 -228 -75q-65 0 -65 71q0 48 37 209l69 322q45 210 45 274q0 35 -10 45q-16 22 -90 25v10
q118 47 211 47q28 0 37.5 -9.5t9.5 -33.5q0 -36 -43 -227l-86 -406q-29 -142 -29 -200q0 -54 58 -54q28 0 82 13z" />
    <glyph glyph-name="Iogonek" unicode="&#x12e;" horiz-adv-x="694" 
d="M287 -344l6 -2l-2 -8q0 -17 -17 -31q-42 -39 -118 -39q-89 0 -136 42t-47 112q0 168 234 270h-174l4 12q85 20 121 62q22 25 57 192l164 838q20 100 20 158q0 40 -24.5 59t-89.5 33l2 12h426l-2 -12q-83 -18 -119 -54q-33 -33 -62 -192l-165 -844q-21 -108 -21 -162
q0 -34 27 -53t92 -37l-2 -12h-207q-170 -102 -170 -248q0 -112 113 -112q61 0 90 16z" />
    <glyph glyph-name="iogonek" unicode="&#x12f;" horiz-adv-x="548" 
d="M285 -330l6 -2l-2 -10q-3 -17 -17 -31q-46 -37 -114 -37q-88 0 -132 40.5t-44 109.5q0 155 192 246q-51 6 -51 71q0 50 37 211l69 320q45 210 45 274q0 35 -10 45q-16 22 -90 25v10q118 47 211 47q28 0 37.5 -9.5t9.5 -33.5q0 -30 -43 -227l-86 -406q-29 -142 -29 -200
q0 -54 58 -54q28 0 82 13l2 -11q-85 -53 -178 -69q-150 -95 -150 -232q0 -108 109 -108q61 0 88 18zM508 1346q0 -55 -28 -88t-77 -33q-41 0 -64.5 23.5t-23.5 64.5q0 50 30 82t79 32q38 0 61 -22t23 -59z" />
    <glyph glyph-name="Idot" unicode="&#x130;" horiz-adv-x="694" 
d="M461 12l-2 -12h-428l4 12q85 20 121 62q22 25 57 192l164 838q20 100 20 158q0 40 -24.5 59t-89.5 33l2 12h426l-2 -12q-83 -18 -119 -54q-33 -33 -62 -192l-166 -844q-20 -103 -20 -162q0 -34 27 -53t92 -37zM612 1571q0 -42 -27 -70t-69 -28q-37 0 -59.5 21.5
t-22.5 57.5q0 47 28 76t73 29q35 0 56 -23.5t21 -62.5z" />
    <glyph glyph-name="dotlessi" unicode="&#x131;" horiz-adv-x="548" 
d="M414 72l2 -11q-115 -75 -228 -75q-65 0 -65 71q0 48 37 209l69 322q45 210 45 274q0 35 -10 45q-16 22 -90 25v10q118 47 211 47q28 0 37.5 -9.5t9.5 -33.5q0 -36 -43 -227l-86 -406q-29 -142 -29 -200q0 -54 58 -54q28 0 82 13z" />
    <glyph glyph-name="IJ" unicode="&#x132;" horiz-adv-x="1384" 
d="M461 12l-2 -12h-428l4 12q85 20 121 62q22 25 57 192l164 838q20 100 20 158q0 40 -24.5 59t-89.5 33l2 12h426l-2 -12q-83 -18 -119 -54q-33 -33 -62 -192l-166 -844q-20 -103 -20 -162q0 -34 27 -53t92 -37zM530 -102h13q12 -152 127 -152q79 0 123 72q41 71 108 413
l170 875q21 102 21 154q0 39 -26 57t-95 37l2 12h430l-2 -12q-92 -22 -117 -54q-21 -27 -61 -192q-4 -16 -90 -467q-82 -431 -82 -436q-38 -178 -60 -244q-25 -82 -73 -145q-103 -142 -283 -142q-71 0 -100 13q-33 11 -33 45q0 68 28 166z" />
    <glyph glyph-name="ij" unicode="&#x133;" horiz-adv-x="1064" 
d="M414 72l2 -11q-115 -75 -228 -75q-65 0 -65 71q0 50 37 211l69 320q45 210 45 274q0 35 -10 45q-16 22 -90 25v10q118 47 211 47q28 0 37.5 -9.5t9.5 -33.5q0 -30 -43 -227l-86 -406q-29 -142 -29 -200q0 -54 58 -54q28 0 82 13zM508 1346q0 -55 -28 -88t-77 -33
q-41 0 -64.5 23.5t-23.5 64.5q0 50 30 82t79 32q38 0 61 -22t23 -59zM293 -254h14q21 -135 121 -135q70 0 115 63q50 73 121 435l90 469q47 255 47 276q0 40 -13 53q-16 22 -90 25v10q125 49 217 49q25 0 34 -11t9 -38q0 -20 -161 -825q-42 -207 -70 -295q-30 -95 -78 -152
q-101 -125 -264 -125q-43 0 -86 17q-33 17 -33 51q3 48 27 133zM1024 1346q0 -55 -27.5 -88t-76.5 -33q-41 0 -65 23.5t-24 64.5q0 50 30 82t79 32q38 0 61 -22t23 -59z" />
    <glyph glyph-name="Jcircumflex" unicode="&#x134;" horiz-adv-x="681" 
d="M-164 -102h12q12 -152 127 -152q79 0 123 72q42 74 109 413l170 875q20 97 20 154q0 39 -26 57t-95 37l3 12h430l-2 -12q-92 -22 -117 -54q-22 -29 -62 -192q-4 -16 -90 -467q-82 -431 -82 -436q-39 -186 -59 -244q-24 -80 -74 -145q-103 -142 -282 -142q-72 0 -101 13
q-33 11 -33 45q0 64 29 166zM625 1712l176 -256l-13 -10l-247 172l-320 -170l-10 14l278 254q40 37 76 37q33 0 60 -41z" />
    <glyph glyph-name="jcircumflex" unicode="&#x135;" horiz-adv-x="530" 
d="M-236 -254h15q12 -135 121 -135q69 0 114 63q55 80 119 437l90 467q49 241 49 276q0 43 -12 55q-17 20 -90 23v10q125 49 217 49q25 0 34 -11t9 -38q0 -32 -45 -242q-14 -62 -41 -202l-47 -236l-41 -215q-55 -291 -133 -375q-112 -127 -266 -127q-43 0 -86 17
q-33 17 -33 51q3 52 26 133zM479 1430l133 -291l-10 -9l-207 205l-309 -205l-8 11l268 291q43 43 78 43q38 0 55 -45z" />
    <glyph glyph-name="Kcommaaccent" unicode="&#x136;" horiz-adv-x="1316" 
d="M455 12l-2 -12h-422l4 12q89 18 123 64q25 31 55 190l164 838q20 97 20 158q0 36 -25.5 54.5t-90.5 37.5l2 12h428l-4 -12q-94 -21 -119 -54q-32 -37 -62 -192l-88 -444q163 140 492 450q123 120 123 172q0 41 -109 68l2 12h397l-2 -12q-57 -15 -106 -51
q-60 -44 -139 -121l-432 -404q178 -328 276 -495q89 -146 152 -209q36 -36 112 -60l-2 -12q-86 -6 -164 -6q-68 0 -104 21.5t-74 86.5q-24 40 -100 175l-121 231l-92 180q-70 -63 -121 -102l-64 -324q-20 -97 -20 -160q0 -62 113 -92zM418 -489l-6 16q182 83 182 174
q0 33 -29 59q-35 30 -35 70q0 33 24 54.5t62 21.5q97 0 97 -109q0 -98 -81.5 -171.5t-213.5 -114.5z" />
    <glyph glyph-name="kcommaaccent" unicode="&#x137;" horiz-adv-x="1011" 
d="M313 432l-94 -432h-131l215 999q51 236 51 301q0 48 -14 62q-19 19 -82 31v10q125 43 227 43q35 0 35 -41q0 -29 -41 -213q-43 -194 -127 -533q50 122 162 228q113 110 250 110q78 0 126 -43.5t48 -122.5q0 -115 -94 -206t-277 -144q112 -217 181 -329q38 -58 69 -80
q23 -23 62 -23q33 0 67 12l6 -6q-38 -33 -93.5 -57.5t-98.5 -24.5q-64 0 -117 86q-90 153 -199 392q-86 -15 -131 -19zM334 526l-12 -59q233 28 358 121t125 217q0 52 -29 79t-76 27q-112 0 -225 -131q-114 -129 -141 -254zM229 -489l-6 16q183 83 183 174q0 33 -29 59
q-35 30 -35 70q0 33 24 54.5t62 21.5q96 0 96 -109q0 -98 -81.5 -171.5t-213.5 -114.5z" />
    <glyph glyph-name="kgreenlandic" unicode="&#x138;" horiz-adv-x="983" 
d="M274 227l-49 -227h-131l117 541q49 229 49 305q0 43 -14 57q-14 17 -82 33v10q134 41 227 41q33 0 33 -41q0 -54 -39 -211l-66 -274q86 182 295 385q157 151 273 151q59 0 59 -45t-41 -145h-12q-21 84 -74 84q-58 0 -144.5 -69.5t-180.5 -186.5q95 -220 194 -404
q64 -118 119 -161q22 -19 57 -19q32 0 76 15l4 -9q-35 -31 -98 -57q-62 -27 -107 -27q-65 0 -118 99q-75 134 -218 442q-94 -123 -129 -287z" />
    <glyph glyph-name="Lacute" unicode="&#x139;" horiz-adv-x="1085" 
d="M872 0h-841l2 12q89 21 114 49q32 32 62 183l166 846q22 123 22 170q0 39 -27.5 60t-86.5 34l2 12h426l-2 -12q-94 -21 -119 -54q-30 -41 -64 -204l-176 -903q-10 -68 -10 -80q0 -25 17.5 -35t64.5 -10h233q131 0 193 45q64 52 133 166h16q-17 -116 -43 -220
q-10 -36 -26.5 -47.5t-55.5 -11.5zM748 1626l-351 -151l-8 12l287 254q41 35 78 35q30 0 48.5 -21.5t18.5 -54.5q0 -47 -73 -74z" />
    <glyph glyph-name="lacute" unicode="&#x13a;" horiz-adv-x="557" 
d="M406 72l2 -11q-121 -75 -224 -75q-65 0 -65 69q0 49 35 215l153 725q51 233 51 308q0 44 -12 59q-16 22 -82 31v10q125 43 219 43q25 0 33 -8t8 -31q0 -16 -43 -219l-188 -881q-29 -155 -29 -194q0 -54 60 -54q25 0 82 13zM688 1681l-350 -151l-8 12l286 254q41 35 78 35
q30 0 49 -21.5t19 -54.5q0 -47 -74 -74z" />
    <glyph glyph-name="Lcommaaccent" unicode="&#x13b;" horiz-adv-x="1085" 
d="M872 0h-841l2 12q89 21 114 49q32 32 62 183l166 846q22 123 22 170q0 39 -27.5 60t-86.5 34l2 12h426l-2 -12q-94 -21 -119 -54q-30 -41 -64 -204l-176 -903q-10 -68 -10 -80q0 -25 17.5 -35t64.5 -10h233q131 0 193 45q64 52 133 166h16q-17 -116 -43 -220
q-10 -36 -26.5 -47.5t-55.5 -11.5zM293 -489l-6 16q182 83 182 174q0 33 -29 59q-34 30 -34 70q0 33 24 54.5t62 21.5q96 0 96 -109q0 -98 -81.5 -171.5t-213.5 -114.5z" />
    <glyph glyph-name="lcommaaccent" unicode="&#x13c;" horiz-adv-x="557" 
d="M406 72l2 -11q-121 -75 -224 -75q-65 0 -65 69q0 49 35 215l153 725q51 233 51 308q0 44 -12 59q-16 22 -82 31v10q125 43 219 43q25 0 33 -8t8 -31q0 -16 -43 -219l-188 -881q-29 -155 -29 -194q0 -54 60 -54q25 0 82 13zM8 -489l-6 16q182 83 182 174q0 34 -28 59
q-35 30 -35 70q0 33 24 54.5t62 21.5q96 0 96 -109q0 -98 -81.5 -171.5t-213.5 -114.5z" />
    <glyph glyph-name="Lcaron" unicode="&#x13d;" horiz-adv-x="1085" 
d="M872 0h-841l2 12q89 21 114 49q32 32 62 183l166 846q22 123 22 170q0 39 -27.5 60t-86.5 34l2 12h426l-2 -12q-94 -21 -119 -54q-30 -41 -64 -204l-176 -903q-10 -68 -10 -80q0 -25 17.5 -35t64.5 -10h233q131 0 193 45q64 52 133 166h16q-17 -116 -43 -220
q-10 -36 -26.5 -47.5t-55.5 -11.5zM709 993l-7 17q183 89 183 174q0 33 -29 59q-35 30 -35 70q0 35 23 56.5t61 21.5q45 0 72 -30t27 -81q0 -96 -82.5 -171.5t-212.5 -115.5z" />
    <glyph glyph-name="lcaron" unicode="&#x13e;" horiz-adv-x="557" 
d="M406 72l2 -11q-121 -75 -224 -75q-65 0 -65 69q0 49 35 215l153 725q51 233 51 308q0 44 -12 59q-16 22 -82 31v10q125 43 219 43q25 0 33 -8t8 -31q0 -16 -43 -219l-188 -881q-29 -155 -29 -194q0 -54 60 -54q25 0 82 13zM565 1047l-6 16q182 89 182 174q0 34 -28 59
q-35 30 -35 70q0 35 23 56.5t61 21.5q44 0 71 -30t27 -81q0 -95 -82.5 -170.5t-212.5 -115.5z" />
    <glyph glyph-name="Ldot" unicode="&#x13f;" horiz-adv-x="1085" 
d="M1016 676q0 -51 -31 -85t-84 -34q-44 0 -72 27t-28 71q0 52 32 86.5t85 34.5q43 0 70.5 -28.5t27.5 -71.5zM872 0h-841l2 12q89 21 114 49q32 32 62 183l166 846q22 123 22 170q0 39 -27.5 60t-86.5 34l2 12h426l-2 -12q-94 -21 -119 -54q-30 -41 -64 -204l-176 -903
q-10 -68 -10 -80q0 -25 17.5 -35t64.5 -10h233q131 0 193 45q64 52 133 166h16q-17 -116 -43 -220q-10 -36 -26.5 -47.5t-55.5 -11.5z" />
    <glyph glyph-name="ldot" unicode="&#x140;" horiz-adv-x="776" 
d="M795 686q0 -51 -29.5 -84t-81.5 -33q-41 0 -69.5 28t-28.5 69q0 52 30.5 85t83.5 33q42 0 68.5 -27.5t26.5 -70.5zM406 72l2 -11q-121 -75 -224 -75q-65 0 -65 69q0 49 35 215l153 725q51 233 51 308q0 44 -12 59q-16 22 -82 31v10q125 43 219 43q25 0 33 -8t8 -31
q0 -16 -43 -219l-188 -881q-29 -155 -29 -194q0 -54 60 -54q25 0 82 13z" />
    <glyph glyph-name="Lslash" unicode="&#x141;" horiz-adv-x="1085" 
d="M270 561l-202 -108l-33 61l254 135l86 441q22 123 22 170q0 39 -27.5 60t-86.5 34l2 12h426l-2 -12q-94 -21 -119 -54q-30 -41 -64 -204l-69 -357l305 164l35 -61l-359 -191l-88 -458q-10 -68 -10 -80q0 -25 17.5 -35t64.5 -10h233q131 0 193 45q64 52 133 166h16
q-17 -116 -43 -220q-10 -36 -26.5 -47.5t-55.5 -11.5h-841l2 12q89 21 114 49q32 32 62 183z" />
    <glyph glyph-name="lslash" unicode="&#x142;" horiz-adv-x="557" 
d="M223 629l-155 -82l-29 57l201 107l61 284q51 233 51 308q0 44 -12 59q-16 22 -82 31v10q125 43 219 43q26 0 33.5 -7.5t7.5 -31.5q0 -16 -43 -219l-86 -397l164 86l29 -58l-209 -110l-86 -402q-29 -155 -29 -194q0 -54 59 -54q25 0 82 13l2 -11q-121 -75 -223 -75
q-65 0 -65 69q0 54 34 215z" />
    <glyph glyph-name="Nacute" unicode="&#x143;" horiz-adv-x="1470" 
d="M401 12l-2 -12h-368l4 12q88 24 123 68q23 23 59 199l154 784q28 149 28 194q0 40 -26 60q-29 22 -86 37l2 12h233q42 0 51 -25q422 -897 514 -1112l162 863q21 111 21 163q0 42 -29 64.5t-94 34.5l2 12h354l-2 -12q-94 -21 -121 -68q-24 -47 -53 -199l-219 -1101h-76
l-563 1239q-86 -503 -172 -942q-23 -122 -23 -174q0 -35 28.5 -56.5t98.5 -40.5zM1157 1649l-350 -152l-8 12l286 254q41 35 78 35q30 0 49 -21.5t19 -54.5q0 -46 -74 -73z" />
    <glyph glyph-name="nacute" unicode="&#x144;" horiz-adv-x="1112" 
d="M334 483l-105 -483h-131l113 524q47 230 47 324q0 42 -12 57q-21 24 -94 27v10q103 47 210 47q30 0 41 -11.5t11 -43.5q0 -82 -54 -281q60 140 191 242q132 102 256 102q80 0 115.5 -32.5t35.5 -112.5q0 -75 -104 -553q-27 -120 -27 -182q0 -58 60 -58q13 0 80 13l2 -11
q-118 -75 -226 -75q-63 0 -63 69q0 53 35 211q106 455 106 543q0 52 -21 74t-71 22q-76 0 -180 -78q-95 -71 -146 -155q-44 -69 -69 -189zM868 1352l-311 -215l-8 8l225 295q42 57 86 57q30 0 48 -17t18 -46q0 -45 -58 -82z" />
    <glyph glyph-name="Ncommaaccent" unicode="&#x145;" horiz-adv-x="1470" 
d="M401 12l-2 -12h-368l4 12q88 24 123 68q23 23 59 199l154 784q28 149 28 194q0 40 -26 60q-29 22 -86 37l2 12h233q42 0 51 -25q422 -897 514 -1112l162 863q21 111 21 163q0 42 -29 64.5t-94 34.5l2 12h354l-2 -12q-94 -21 -121 -68q-24 -47 -53 -199l-219 -1101h-76
l-563 1239q-86 -503 -172 -942q-23 -122 -23 -174q0 -35 28.5 -56.5t98.5 -40.5zM438 -489l-6 16q182 83 182 174q0 34 -28 59q-35 30 -35 70q0 33 24 54.5t62 21.5q96 0 96 -109q0 -98 -81.5 -171.5t-213.5 -114.5z" />
    <glyph glyph-name="ncommaaccent" unicode="&#x146;" horiz-adv-x="1112" 
d="M334 483l-105 -483h-131l113 524q47 230 47 324q0 42 -12 57q-21 24 -94 27v10q103 47 210 47q30 0 41 -11.5t11 -43.5q0 -82 -54 -281q60 140 191 242q132 102 256 102q80 0 115.5 -32.5t35.5 -112.5q0 -75 -104 -553q-27 -120 -27 -182q0 -58 60 -58q13 0 80 13l2 -11
q-118 -75 -226 -75q-63 0 -63 69q0 53 35 211q106 455 106 543q0 52 -21 74t-71 22q-76 0 -180 -78q-95 -71 -146 -155q-44 -69 -69 -189zM246 -489l-6 16q182 83 182 174q0 33 -29 59q-35 30 -35 70q0 33 24 54.5t62 21.5q97 0 97 -109q0 -98 -81.5 -171.5t-213.5 -114.5z
" />
    <glyph glyph-name="Ncaron" unicode="&#x147;" horiz-adv-x="1470" 
d="M401 12l-2 -12h-368l4 12q88 24 123 68q23 23 59 199l154 784q28 149 28 194q0 40 -26 60q-29 22 -86 37l2 12h233q42 0 51 -25q422 -897 514 -1112l162 863q21 111 21 163q0 42 -29 64.5t-94 34.5l2 12h354l-2 -12q-94 -21 -121 -68q-24 -47 -53 -199l-219 -1101h-76
l-563 1239q-86 -503 -172 -942q-23 -122 -23 -174q0 -35 28.5 -56.5t98.5 -40.5zM838 1507l-176 258l10 11l248 -172l323 168l8 -13l-278 -254q-40 -37 -76 -37q-33 0 -59 39z" />
    <glyph glyph-name="ncaron" unicode="&#x148;" horiz-adv-x="1112" 
d="M328 483l-105 -483h-131l113 524q47 230 47 324q0 42 -12 57q-21 24 -95 27v10q103 47 211 47q30 0 41 -11.5t11 -43.5q0 -82 -54 -281q60 140 191 242q132 102 256 102q80 0 115.5 -32.5t35.5 -112.5q0 -75 -104 -553q-27 -120 -27 -182q0 -58 60 -58q13 0 80 13l2 -11
q-118 -75 -226 -75q-63 0 -63 69q0 53 35 211q106 455 106 543q0 52 -21 74t-71 22q-76 0 -180 -78q-95 -71 -146 -155q-44 -69 -69 -189zM543 1180l-133 290l10 9l207 -207l309 205l8 -11l-270 -288q-45 -45 -76 -45q-34 0 -55 47z" />
    <glyph glyph-name="napostrophe" unicode="&#x149;" horiz-adv-x="1112" 
d="M334 483l-105 -483h-131l113 524q47 230 47 324q0 42 -12 57q-21 24 -94 27v10q103 47 210 47q30 0 41 -11.5t11 -43.5q0 -82 -54 -281q60 140 191 242q132 102 256 102q80 0 115.5 -32.5t35.5 -112.5q0 -75 -104 -553q-27 -120 -27 -182q0 -58 60 -58q13 0 80 13l2 -11
q-118 -75 -226 -75q-63 0 -63 69q0 53 35 211q106 455 106 543q0 52 -21 74t-71 22q-76 0 -180 -78q-95 -71 -146 -155q-44 -69 -69 -189zM201 1124l-6 17q182 83 182 174q0 33 -29 59q-35 30 -35 70q0 33 24 54.5t62 21.5q97 0 97 -109q0 -98 -82 -172t-213 -115z" />
    <glyph glyph-name="Eng" unicode="&#x14a;" horiz-adv-x="1470" 
d="M406 12l-3 -12h-372l4 12q82 24 123 68q22 28 57 199l154 776q28 149 28 202q0 43 -26 60q-29 22 -86 37l2 12h235q23 0 32 -6.5t17 -26.5l519 -1095q14 95 157 845q23 135 23 172q0 40 -29.5 62.5t-93.5 36.5l2 12h354l-2 -12q-94 -21 -121 -68q-20 -39 -55 -207
l-207 -1034l-14 -68l-12 -63q-4 -46 -23 -104q-25 -75 -29 -82q-13 -36 -36 -70q-92 -129 -261 -129q-71 0 -98 12q-33 14 -33 47q0 57 31 162h12q18 -147 125 -147q85 0 142 63q54 63 88 248l16 90l-559 1208q-60 -347 -170 -929q-27 -129 -27 -174q0 -39 31.5 -62
t104.5 -35z" />
    <glyph glyph-name="eng" unicode="&#x14b;" horiz-adv-x="1112" 
d="M334 487l-105 -487h-131l111 520q49 229 49 328q0 35 -10 55q-14 26 -96 29v10q103 47 202 47q30 0 41 -11.5t11 -45.5q0 -28 -17 -135q-14 -89 -31 -148q64 138 195 244q128 104 252 104q77 0 113 -32.5t36 -112.5q0 -58 -51 -309q-59 -308 -112 -527q-29 -126 -64 -233
q-27 -83 -74 -154q-41 -63 -117.5 -100t-166.5 -37q-61 0 -95 12q-30 12 -30 41q3 54 30 148h13q12 -137 123 -137q76 0 122 69q51 72 125 389q160 714 160 793q0 53 -19 75.5t-69 22.5q-80 0 -184 -78q-95 -74 -144 -157q-43 -76 -67 -183z" />
    <glyph glyph-name="Omacron" unicode="&#x14c;" horiz-adv-x="1374" 
d="M1309 905q0 -212 -70 -422q-67 -210 -209 -346q-176 -164 -436 -164q-226 0 -350.5 140.5t-124.5 386.5q0 196 67 397q71 203 209 332q176 164 436 164q234 0 356 -125t122 -363zM1143 934q0 397 -320 397q-193 0 -329 -157q-102 -120 -158 -318q-53 -195 -53 -389
q0 -430 327 -430q193 0 324 162q97 123 153 338q56 213 56 397zM1163 1636l-18 -100h-527l21 100h524z" />
    <glyph glyph-name="omacron" unicode="&#x14d;" horiz-adv-x="999" 
d="M895 664q0 -143 -41 -295q-39 -145 -127 -250q-122 -146 -324 -146q-153 0 -235 95t-82 268q0 156 50.5 303.5t146.5 243.5q120 114 301 114q311 0 311 -333zM758 698q0 129 -41 188.5t-146 59.5q-112 0 -194 -104q-71 -93 -115 -252q-41 -158 -41 -295q0 -270 191 -270
q149 0 225 143q50 95 86 256q35 158 35 274zM903 1311l-24 -105h-488l27 105h485z" />
    <glyph glyph-name="Obreve" unicode="&#x14e;" horiz-adv-x="1374" 
d="M1309 905q0 -212 -70 -422q-67 -210 -209 -346q-176 -164 -436 -164q-226 0 -350.5 140.5t-124.5 386.5q0 196 67 397q71 203 209 332q176 164 436 164q234 0 356 -125t122 -363zM1143 934q0 397 -320 397q-193 0 -329 -157q-102 -120 -158 -318q-53 -195 -53 -389
q0 -430 327 -430q193 0 324 162q97 123 153 338q56 213 56 397zM1120 1747l13 -2q-15 -121 -83 -193.5t-196 -72.5q-217 0 -217 200q0 26 10 68h10q5 -74 57.5 -117t147.5 -43q193 0 258 160z" />
    <glyph glyph-name="obreve" unicode="&#x14f;" horiz-adv-x="999" 
d="M895 664q0 -143 -41 -295q-39 -145 -127 -250q-122 -146 -324 -146q-153 0 -235 95t-82 268q0 156 50.5 303.5t146.5 243.5q120 114 301 114q311 0 311 -333zM758 698q0 129 -41 188.5t-146 59.5q-112 0 -194 -104q-71 -93 -115 -252q-41 -158 -41 -295q0 -270 191 -270
q149 0 225 143q50 95 86 256q35 158 35 274zM879 1419l14 -2q-11 -61 -25.5 -101.5t-42.5 -82.5q-62 -90 -202 -90q-199 0 -199 207q0 36 10 69h10q9 -168 187 -168q100 0 155.5 40t92.5 128z" />
    <glyph glyph-name="Ohungarumlaut" unicode="&#x150;" horiz-adv-x="1374" 
d="M1309 905q0 -212 -70 -422q-67 -210 -209 -346q-176 -164 -436 -164q-226 0 -350.5 140.5t-124.5 386.5q0 196 67 397q71 203 209 332q176 164 436 164q234 0 356 -125t122 -363zM1143 934q0 397 -320 397q-193 0 -329 -157q-102 -120 -158 -318q-53 -195 -53 -389
q0 -430 327 -430q193 0 324 162q97 123 153 338q56 213 56 397zM971 1636l-344 -161l-11 12l287 254q40 37 76 37q29 0 47 -18.5t18 -47.5q0 -42 -73 -76zM1300 1636l-346 -161l-8 12l287 254q40 37 76 37q29 0 46 -18t17 -48q0 -41 -72 -76z" />
    <glyph glyph-name="ohungarumlaut" unicode="&#x151;" horiz-adv-x="999" 
d="M895 664q0 -143 -41 -295q-39 -145 -127 -250q-122 -146 -324 -146q-153 0 -235 95t-82 268q0 156 50.5 303.5t146.5 243.5q120 114 301 114q311 0 311 -333zM758 698q0 129 -41 188.5t-146 59.5q-112 0 -194 -104q-71 -93 -115 -252q-41 -158 -41 -295q0 -270 191 -270
q149 0 225 143q50 95 86 256q35 158 35 274zM731 1348l-291 -213l-8 10l211 280q45 60 86 60q27 0 44.5 -14.5t17.5 -38.5q0 -39 -60 -84zM1018 1346l-287 -211l-8 10l209 280q48 60 86 60q27 0 45 -14.5t18 -38.5q0 -41 -63 -86z" />
    <glyph glyph-name="OE" unicode="&#x152;" horiz-adv-x="1839" 
d="M1718 272h13q-18 -114 -45 -219q-8 -33 -22 -43t-56 -10h-561q-88 0 -216 -8t-210 -8q-244 0 -373 131.5t-129 367.5q0 237 86 447q85 211 270 334q179 120 451 120q56 0 196 -10q112 -8 203 -8h465q26 0 34.5 -7t8.5 -28q0 -42 -51 -215h-15q-10 89 -29.5 127t-56.5 49
q-42 11 -133 11h-186q-34 0 -49 -16t-23 -56l-94 -490h166q100 0 160 11q48 7 74.5 35t64.5 102h12l-69 -350h-13q-2 64 -24 95.5t-78 41.5q-37 6 -137 6h-168l-94 -494q-11 -68 -11 -77q0 -25 17.5 -34t64.5 -9h230q129 0 190 38q54 34 137 166zM942 221l184 938q9 35 9 70
q0 39 -33 59q-50 33 -187 33q-217 0 -366 -131q-131 -116 -199 -318q-67 -198 -67 -403q0 -196 96 -309t276 -113q171 0 228 45q44 35 59 129z" />
    <glyph glyph-name="oe" unicode="&#x153;" horiz-adv-x="1511" 
d="M750 176q-56 -95 -146.5 -149t-197.5 -54q-153 0 -236.5 96t-83.5 267q0 160 49 304.5t148 240.5q122 116 303 116q241 0 278 -233q56 101 157.5 167t213.5 66q225 0 225 -186q0 -123 -119 -219q-63 -52 -185 -84t-282 -33q-14 -60 -14 -143q0 -269 215 -269
q147 0 266 107l7 -4q0 -8 -9 -29q-9 -26 -36 -53q-111 -111 -289 -111q-217 0 -264 203zM573 946q-113 0 -194 -100q-73 -88 -117 -248q-41 -161 -41 -305q0 -127 47.5 -197.5t141.5 -70.5q146 0 225 143q51 94 88 260q35 161 35 272q0 120 -42 183t-143 63zM885 512
q217 12 335.5 99t118.5 210q0 63 -27 93t-91 30q-116 0 -204 -113.5t-132 -318.5z" />
    <glyph glyph-name="Racute" unicode="&#x154;" horiz-adv-x="1298" 
d="M463 12l-4 -12h-428l2 12q90 21 123 60q25 32 55 186l168 856q18 92 18 150q0 37 -28 57t-88 33l4 12h430q169 0 270 -49q154 -77 154 -264q0 -153 -92.5 -259.5t-262.5 -156.5q41 -35 74 -105q36 -69 39 -77q6 -13 23.5 -52.5t27.5 -62.5q13 -29 35 -74.5t29 -60.5
q42 -89 90.5 -134t118.5 -57l-2 -12q-85 -10 -136 -10q-105 0 -147 39q-45 39 -107 194q-89 217 -137 324q-19 37 -41.5 49t-77.5 12h-143l-68 -346q-20 -100 -20 -155q0 -22 12 -43q17 -32 109 -54zM551 1225l-109 -555h121q145 0 197 30q100 37 158 138q57 99 57 223
q0 120 -70 178q-34 27 -47 33q-59 33 -158 33h-69q-38 0 -53.5 -16t-26.5 -64zM997 1649l-350 -152l-8 12l287 254q41 35 78 35q30 0 48.5 -21.5t18.5 -54.5q0 -46 -74 -73z" />
    <glyph glyph-name="racute" unicode="&#x155;" horiz-adv-x="792" 
d="M319 420l-90 -420h-131l113 524q45 210 45 324q0 42 -12 57q-15 24 -97 27v10q109 47 211 47q31 0 42.5 -11t11.5 -48q0 -91 -52 -283q57 137 152 246q91 104 199 104q34 0 57 -10q20 -9 20 -37q0 -47 -45 -149h-12q-12 82 -86 82q-126 0 -246 -221q-43 -82 -80 -242z
M772 1352l-311 -215l-8 8l225 295q42 57 86 57q29 0 47 -17t18 -46q0 -45 -57 -82z" />
    <glyph glyph-name="Rcommaaccent" unicode="&#x156;" horiz-adv-x="1298" 
d="M463 12l-4 -12h-428l2 12q90 21 123 60q25 32 55 186l168 856q18 92 18 150q0 37 -28 57t-88 33l4 12h430q169 0 270 -49q154 -77 154 -264q0 -153 -92.5 -259.5t-262.5 -156.5q41 -35 74 -105q36 -69 39 -77q6 -13 23.5 -52.5t27.5 -62.5q13 -29 35 -74.5t29 -60.5
q42 -89 90.5 -134t118.5 -57l-2 -12q-85 -10 -136 -10q-105 0 -147 39q-45 39 -107 194q-89 217 -137 324q-19 37 -41.5 49t-77.5 12h-143l-68 -346q-20 -100 -20 -155q0 -22 12 -43q17 -32 109 -54zM551 1225l-109 -555h121q145 0 197 30q100 37 158 138q57 99 57 223
q0 120 -70 178q-34 27 -47 33q-59 33 -158 33h-69q-38 0 -53.5 -16t-26.5 -64zM389 -489l-6 16q182 83 182 174q0 34 -28 59q-35 30 -35 70q0 33 24 54.5t62 21.5q96 0 96 -109q0 -98 -81.5 -171.5t-213.5 -114.5z" />
    <glyph glyph-name="rcommaaccent" unicode="&#x157;" horiz-adv-x="792" 
d="M319 420l-90 -420h-131l113 524q45 210 45 324q0 42 -12 57q-15 24 -97 27v10q109 47 211 47q31 0 42.5 -11t11.5 -48q0 -91 -52 -283q57 137 152 246q91 104 199 104q34 0 57 -10q20 -9 20 -37q0 -47 -45 -149h-12q-12 82 -86 82q-126 0 -246 -221q-43 -82 -80 -242z
M-43 -489l-6 16q182 83 182 174q0 33 -29 59q-34 30 -34 70q0 33 24 54.5t62 21.5q96 0 96 -109q0 -98 -81.5 -171.5t-213.5 -114.5z" />
    <glyph glyph-name="Rcaron" unicode="&#x158;" horiz-adv-x="1298" 
d="M463 12l-4 -12h-428l2 12q90 21 123 60q25 32 55 186l168 856q18 92 18 150q0 37 -28 57t-88 33l4 12h430q169 0 270 -49q154 -77 154 -264q0 -153 -92.5 -259.5t-262.5 -156.5q41 -35 74 -105q36 -69 39 -77q6 -13 23.5 -52.5t27.5 -62.5q13 -29 35 -74.5t29 -60.5
q42 -89 90.5 -134t118.5 -57l-2 -12q-85 -10 -136 -10q-105 0 -147 39q-45 39 -107 194q-89 217 -137 324q-19 37 -41.5 49t-77.5 12h-143l-68 -346q-20 -100 -20 -155q0 -22 12 -43q17 -32 109 -54zM551 1225l-109 -555h121q145 0 197 30q100 37 158 138q57 99 57 223
q0 120 -70 178q-34 27 -47 33q-59 33 -158 33h-69q-38 0 -53.5 -16t-26.5 -64zM657 1507l-176 258l11 11l247 -172l324 168l8 -13l-278 -254q-40 -37 -76 -37q-34 0 -60 39z" />
    <glyph glyph-name="rcaron" unicode="&#x159;" horiz-adv-x="792" 
d="M319 420l-90 -420h-131l113 524q45 210 45 324q0 42 -12 57q-15 24 -97 27v10q109 47 211 47q31 0 42.5 -11t11.5 -48q0 -91 -52 -283q57 137 152 246q91 104 199 104q34 0 57 -10q20 -9 20 -37q0 -47 -45 -149h-12q-12 82 -86 82q-126 0 -246 -221q-43 -82 -80 -242z
M422 1180l-133 290l10 9l207 -207l309 205l8 -11l-270 -288q-45 -45 -76 -45q-34 0 -55 47z" />
    <glyph glyph-name="Sacute" unicode="&#x15a;" horiz-adv-x="1028" 
d="M96 311h17q25 -129 109 -201.5t216 -72.5q95 0 165.5 29t103.5 77q61 94 61 193q0 78 -55 141.5t-197 151.5l-86 53q-192 116 -192 315q0 181 130.5 288.5t372.5 107.5q143 0 228 -39q51 -20 51 -64q0 -59 -41 -184h-12q-17 118 -80 171.5t-189 53.5q-146 0 -235.5 -77.5
t-89.5 -202.5q0 -79 42 -134.5t152 -123.5l90 -56q133 -82 193.5 -165.5t60.5 -186.5q0 -191 -131 -301.5t-364 -110.5q-167 0 -277 58q-61 34 -61 86q0 68 18 194zM948 1626l-350 -151l-8 12l287 254q41 35 77 35q30 0 49 -21.5t19 -54.5q0 -47 -74 -74z" />
    <glyph glyph-name="sacute" unicode="&#x15b;" horiz-adv-x="757" 
d="M57 231l11 -2q17 -89 87.5 -143.5t153.5 -54.5q106 0 164.5 46.5t58.5 135.5q0 57 -35.5 103t-129.5 106l-64 43q-82 56 -117.5 111.5t-35.5 128.5q0 135 103.5 213.5t276.5 78.5q94 0 158 -24q39 -12 39 -49q0 -49 -39 -150h-12q-12 86 -59.5 127t-133.5 41
q-102 0 -161.5 -51.5t-59.5 -136.5q0 -90 133 -179l64 -40q109 -74 151.5 -129.5t42.5 -131.5q0 -140 -100.5 -220.5t-267.5 -80.5q-145 0 -222 56q-28 22 -28 55q0 57 22 147zM743 1352l-311 -215l-8 8l225 295q42 57 86 57q30 0 48 -17t18 -46q0 -45 -58 -82z" />
    <glyph glyph-name="Scircumflex" unicode="&#x15c;" horiz-adv-x="1028" 
d="M96 311h17q25 -129 109 -201.5t216 -72.5q95 0 165.5 29t103.5 77q61 94 61 193q0 78 -55 141.5t-197 151.5l-86 53q-192 116 -192 315q0 181 130.5 288.5t372.5 107.5q143 0 228 -39q51 -20 51 -64q0 -59 -41 -184h-12q-17 118 -80 171.5t-189 53.5q-146 0 -235.5 -77.5
t-89.5 -202.5q0 -79 42 -134.5t152 -123.5l90 -56q133 -82 193.5 -165.5t60.5 -186.5q0 -191 -131 -301.5t-364 -110.5q-167 0 -277 58q-61 34 -61 86q0 68 18 194zM840 1712l176 -256l-12 -10l-248 172l-320 -170l-10 14l279 254q40 37 75 37q33 0 60 -41z" />
    <glyph glyph-name="scircumflex" unicode="&#x15d;" horiz-adv-x="757" 
d="M57 231l11 -2q17 -89 87.5 -143.5t153.5 -54.5q106 0 164.5 46.5t58.5 135.5q0 57 -35.5 103t-129.5 106l-64 43q-82 56 -117.5 111.5t-35.5 128.5q0 135 103.5 213.5t276.5 78.5q94 0 158 -24q39 -12 39 -49q0 -49 -39 -150h-12q-12 86 -59.5 127t-133.5 41
q-102 0 -161.5 -51.5t-59.5 -136.5q0 -90 133 -179l64 -40q109 -74 151.5 -129.5t42.5 -131.5q0 -140 -100.5 -220.5t-267.5 -80.5q-145 0 -222 56q-28 22 -28 55q0 57 22 147zM657 1434l136 -291l-13 -8l-207 206l-309 -206l-8 10l268 291q43 43 80 43q33 0 53 -45z" />
    <glyph glyph-name="Scedilla" unicode="&#x15e;" horiz-adv-x="1028" 
d="M244 -395v8l6 4q28 -25 92 -25q61 0 100 30t39 89q0 44 -28 71.5t-72 27.5q-26 0 -47 -7l-6 4l82 166q-164 3 -271 58q-61 34 -61 86q0 68 18 194h17q25 -129 109 -201.5t216 -72.5q95 0 165.5 29t103.5 77q61 94 61 193q0 78 -55 141.5t-197 151.5l-86 53
q-192 116 -192 315q0 181 130.5 288.5t372.5 107.5q143 0 228 -39q51 -20 51 -64q0 -59 -41 -184h-12q-17 118 -80 171.5t-189 53.5q-146 0 -235.5 -77.5t-89.5 -202.5q0 -79 42 -134.5t152 -123.5l90 -56q133 -82 193.5 -165.5t60.5 -186.5q0 -182 -120.5 -292.5
t-335.5 -117.5l-47 -100q88 -1 134 -41.5t46 -105.5q0 -86 -66.5 -139.5t-165.5 -53.5q-85 0 -106 35q-6 9 -6 35z" />
    <glyph glyph-name="scedilla" unicode="&#x15f;" horiz-adv-x="757" 
d="M92 -381v8l8 2q22 -22 88 -22q60 0 99 28.5t39 83.5q0 44 -28 70.5t-71 26.5q-2 0 -7.5 -0.5t-17 -1.5t-22.5 -2l-6 2l80 161q-124 6 -191 54q-28 22 -28 55q0 57 22 147l11 -2q17 -89 87.5 -143.5t153.5 -54.5q106 0 164.5 46.5t58.5 135.5q0 57 -35.5 103t-129.5 106
l-64 43q-82 56 -117.5 111.5t-35.5 128.5q0 135 103.5 213.5t276.5 78.5q94 0 158 -24q39 -12 39 -49q0 -49 -39 -150h-12q-12 86 -59.5 127t-133.5 41q-102 0 -161.5 -51.5t-59.5 -136.5q0 -90 133 -179l64 -40q109 -74 151.5 -129.5t42.5 -131.5q0 -135 -96.5 -215.5
t-259.5 -85.5l-43 -92q85 -1 129.5 -40.5t44.5 -104.5q0 -84 -64.5 -134.5t-160.5 -50.5q-84 0 -105 35q-6 12 -6 33z" />
    <glyph glyph-name="Scaron" unicode="&#x160;" horiz-adv-x="1028" 
d="M96 311h17q25 -129 109 -201.5t216 -72.5q95 0 165.5 29t103.5 77q61 94 61 193q0 78 -55 141.5t-197 151.5l-86 53q-192 116 -192 315q0 181 130.5 288.5t372.5 107.5q143 0 228 -39q51 -20 51 -64q0 -59 -41 -184h-12q-17 118 -80 171.5t-189 53.5q-146 0 -235.5 -77.5
t-89.5 -202.5q0 -79 42 -134.5t152 -123.5l90 -56q133 -82 193.5 -165.5t60.5 -186.5q0 -191 -131 -301.5t-364 -110.5q-167 0 -277 58q-61 34 -61 86q0 68 18 194zM649 1507l-176 258l10 11l248 -172l324 168l8 -13l-279 -254q-40 -37 -75 -37q-34 0 -60 39z" />
    <glyph glyph-name="scaron" unicode="&#x161;" horiz-adv-x="757" 
d="M57 231l11 -2q17 -89 87.5 -143.5t153.5 -54.5q106 0 164.5 46.5t58.5 135.5q0 57 -35.5 103t-129.5 106l-64 43q-82 56 -117.5 111.5t-35.5 128.5q0 135 103.5 213.5t276.5 78.5q94 0 158 -24q39 -12 39 -49q0 -49 -39 -150h-12q-12 86 -59.5 127t-133.5 41
q-102 0 -161.5 -51.5t-59.5 -136.5q0 -90 133 -179l64 -40q109 -74 151.5 -129.5t42.5 -131.5q0 -140 -100.5 -220.5t-267.5 -80.5q-145 0 -222 56q-28 22 -28 55q0 57 22 147zM440 1180l-133 290l10 9l207 -207l310 205l8 -11l-271 -288q-45 -45 -75 -45q-35 0 -56 47z" />
    <glyph glyph-name="uni0162" unicode="&#x162;" horiz-adv-x="1181" 
d="M289 -395v8l6 4q28 -25 92 -25q61 0 100 30t39 89q0 44 -28 71.5t-72 27.5q-26 0 -47 -7l-6 4l94 193h-201l2 12q100 21 127 62q26 33 60 196l184 942q6 38 6 54q0 37 -49 37h-113q-74 0 -137 -13q-44 -7 -83 -50.5t-93 -143.5h-12q13 139 32 223q6 27 16 37t34 10h989
q47 0 47 -29q0 -71 -51 -239h-13q-12 96 -38 140t-70 52q-60 13 -131 13h-117q-32 0 -44.5 -12.5t-18.5 -49.5l-189 -981q-18 -92 -18 -158q0 -63 123 -90l-2 -12h-195l-59 -125q88 -1 134 -41.5t46 -105.5q0 -86 -66.5 -139.5t-165.5 -53.5q-85 0 -106 35q-6 9 -6 35z" />
    <glyph glyph-name="uni0163" unicode="&#x163;" horiz-adv-x="624" 
d="M70 -381v8l8 2q22 -22 88 -22q60 0 98.5 28.5t38.5 83.5q0 44 -27.5 70.5t-70.5 26.5q-2 0 -7.5 -0.5t-17 -1.5t-22.5 -2l-6 2l86 172q-99 27 -99 155q0 52 25 168l121 592h-142l11 37q67 11 125 35q36 19 65 76q36 83 66 161h71l-47 -243h221l-12 -66h-225l-121 -592
q-23 -115 -23 -180q0 -38 24.5 -60t63.5 -22q74 0 144 49l6 -2q0 -17 -14 -37q-8 -17 -39 -37q-61 -43 -150 -43q-21 0 -30 3l-48 -99q85 -1 130 -40.5t45 -104.5q0 -84 -64.5 -134.5t-161.5 -50.5q-83 0 -104 35q-6 12 -6 33z" />
    <glyph glyph-name="Tcaron" unicode="&#x164;" horiz-adv-x="1181" 
d="M696 12l-2 -12h-440l2 12q100 21 127 62q24 31 59 196l185 942q6 38 6 54q0 37 -49 37h-113q-74 0 -137 -13q-44 -7 -83 -50.5t-93 -143.5h-13q13 131 33 223q6 27 15.5 37t33.5 10h990q47 0 47 -29q0 -68 -52 -239h-12q-12 96 -38 140t-70 52q-60 13 -131 13h-117
q-32 0 -45 -12.5t-19 -49.5l-188 -981q-19 -97 -19 -158q0 -63 123 -90zM672 1507l-176 258l10 11l248 -172l323 168l8 -13l-278 -254q-40 -37 -76 -37q-33 0 -59 39z" />
    <glyph glyph-name="tcaron" unicode="&#x165;" horiz-adv-x="624" 
d="M506 96l6 -2q0 -17 -14 -37q-8 -17 -39 -37q-61 -43 -150 -43q-170 0 -170 164q0 52 25 168l121 592h-142l11 37q67 11 125 35q36 19 65 76q36 83 66 161h71l-47 -243h221l-12 -66h-225l-121 -592q-23 -115 -23 -180q0 -38 24.5 -60t63.5 -22q74 0 144 49zM557 1069
l-6 16q182 89 182 175q0 34 -28 59q-35 30 -35 70q0 35 23 56t61 21q45 0 71.5 -29.5t26.5 -80.5q0 -96 -82.5 -171.5t-212.5 -115.5z" />
    <glyph glyph-name="Tbar" unicode="&#x166;" horiz-adv-x="1181" 
d="M709 12l-2 -12h-441l2 12q100 21 127 62q26 33 60 196l86 441h-308l17 75h305l84 426q6 38 6 54q0 37 -49 37h-113q-74 0 -137 -13q-44 -7 -83 -50.5t-93 -143.5h-12q13 139 32 223q6 27 16 37t34 10h989q47 0 47 -29q0 -71 -51 -239h-13q-12 96 -38 140t-70 52
q-60 13 -131 13h-117q-32 0 -44.5 -12.5t-18.5 -49.5l-88 -455h327l-16 -75h-326l-86 -451q-18 -92 -18 -158q0 -63 123 -90z" />
    <glyph glyph-name="tbar" unicode="&#x167;" horiz-adv-x="624" 
d="M506 96l6 -2q0 -17 -14 -37q-8 -17 -39 -37q-61 -43 -150 -43q-170 0 -170 164q0 52 25 168l57 281h-135l16 72h134l49 239h-142l11 37q67 11 125 35q36 19 65 76q36 83 66 161h71l-47 -243h221l-12 -66h-225l-49 -239h219l-15 -72h-219l-57 -281q-23 -115 -23 -180
q0 -38 24.5 -60t63.5 -22q74 0 144 49z" />
    <glyph glyph-name="Utilde" unicode="&#x168;" horiz-adv-x="1482" 
d="M266 1354l2 12h430l-2 -12q-102 -20 -131 -64q-22 -32 -43 -147l-114 -576q-29 -158 -29 -260q0 -128 81 -197t228 -69q236 0 350 147q42 54 66.5 132.5t56.5 238.5l105 526q20 97 20 166q0 48 -26.5 68.5t-98.5 34.5l2 12h375l-2 -12q-78 -15 -115 -49q-34 -34 -69 -205
l-101 -520q-37 -200 -67 -281q-36 -98 -94 -162q-150 -164 -445 -164q-67 0 -125.5 10.5t-113 35t-93.5 62t-62.5 95.5t-23.5 131q0 114 33 273l109 553q14 77 14 124q0 37 -26.5 58t-90.5 39zM1231 1706l14 -6q-38 -100 -78 -145.5t-104 -45.5q-43 0 -127 41
q-82 39 -117 39q-74 0 -131 -100l-14 6q67 205 180 205q41 0 127 -45q73 -37 119 -37q79 0 131 88z" />
    <glyph glyph-name="utilde" unicode="&#x169;" horiz-adv-x="1116" 
d="M983 72l2 -11q-106 -75 -207 -75q-44 0 -62 22t-18 74q0 91 33 237q-67 -137 -194 -243q-127 -103 -252 -103q-80 0 -118 35t-38 119q0 60 104 528q31 152 31 201q0 35 -18 53q-20 20 -90 23v8q38 20 104 35q60 14 105 14q31 0 43 -10.5t12 -40.5q0 -46 -45 -233
q-107 -465 -107 -539q0 -51 19.5 -71.5t72.5 -20.5q84 0 172 73q92 73 144 156q63 97 84 199l98 469h129l-108 -518q-43 -203 -43 -306q0 -84 63 -84q43 0 84 9zM948 1360l10 -6q-59 -185 -165 -185q-49 0 -140 45q-72 35 -106 35q-79 0 -137 -94l-13 4q73 199 183 199
q31 0 118 -41q86 -45 121 -45q40 0 68 19.5t61 68.5z" />
    <glyph glyph-name="Umacron" unicode="&#x16a;" horiz-adv-x="1482" 
d="M266 1354l2 12h430l-2 -12q-102 -20 -131 -64q-22 -32 -43 -147l-114 -576q-29 -158 -29 -260q0 -128 81 -197t228 -69q236 0 350 147q42 54 66.5 132.5t56.5 238.5l105 526q20 97 20 166q0 48 -26.5 68.5t-98.5 34.5l2 12h375l-2 -12q-78 -15 -115 -49q-34 -34 -69 -205
l-101 -520q-37 -200 -67 -281q-36 -98 -94 -162q-150 -164 -445 -164q-67 0 -125.5 10.5t-113 35t-93.5 62t-62.5 95.5t-23.5 131q0 114 33 273l109 553q14 77 14 124q0 37 -26.5 58t-90.5 39zM1219 1636l-19 -100h-526l20 100h525z" />
    <glyph glyph-name="umacron" unicode="&#x16b;" horiz-adv-x="1116" 
d="M983 72l2 -11q-106 -75 -207 -75q-44 0 -62 22t-18 74q0 91 33 237q-67 -137 -194 -243q-127 -103 -252 -103q-80 0 -118 35t-38 119q0 60 104 528q31 152 31 201q0 35 -18 53q-20 20 -90 23v8q38 20 104 35q60 14 105 14q31 0 43 -10.5t12 -40.5q0 -46 -45 -233
q-107 -465 -107 -539q0 -51 19.5 -71.5t72.5 -20.5q84 0 172 73q92 73 144 156q63 97 84 199l98 469h129l-108 -518q-43 -203 -43 -306q0 -84 63 -84q43 0 84 9zM924 1311l-25 -105h-487l26 105h486z" />
    <glyph glyph-name="Ubreve" unicode="&#x16c;" horiz-adv-x="1482" 
d="M266 1354l2 12h430l-2 -12q-102 -20 -131 -64q-22 -32 -43 -147l-114 -576q-29 -158 -29 -260q0 -128 81 -197t228 -69q236 0 350 147q42 54 66.5 132.5t56.5 238.5l105 526q20 97 20 166q0 48 -26.5 68.5t-98.5 34.5l2 12h375l-2 -12q-78 -15 -115 -49q-34 -34 -69 -205
l-101 -520q-37 -200 -67 -281q-36 -98 -94 -162q-150 -164 -445 -164q-67 0 -125.5 10.5t-113 35t-93.5 62t-62.5 95.5t-23.5 131q0 114 33 273l109 553q14 77 14 124q0 37 -26.5 58t-90.5 39zM1186 1747l12 -2q-15 -121 -82.5 -193.5t-195.5 -72.5q-218 0 -218 200
q0 22 11 68h10q5 -74 57.5 -117t147.5 -43q193 0 258 160z" />
    <glyph glyph-name="ubreve" unicode="&#x16d;" horiz-adv-x="1116" 
d="M983 72l2 -11q-106 -75 -207 -75q-44 0 -62 22t-18 74q0 91 33 237q-67 -137 -194 -243q-127 -103 -252 -103q-80 0 -118 35t-38 119q0 60 104 528q31 152 31 201q0 35 -18 53q-20 20 -90 23v8q38 20 104 35q60 14 105 14q31 0 43 -10.5t12 -40.5q0 -46 -45 -233
q-107 -465 -107 -539q0 -51 19.5 -71.5t72.5 -20.5q84 0 172 73q92 73 144 156q63 97 84 199l98 469h129l-108 -518q-43 -203 -43 -306q0 -84 63 -84q43 0 84 9zM897 1419l14 -2q-21 -115 -67 -184q-62 -90 -203 -90q-199 0 -199 207q0 32 11 69h10q9 -168 186 -168
q100 0 155.5 40t92.5 128z" />
    <glyph glyph-name="Uring" unicode="&#x16e;" horiz-adv-x="1482" 
d="M266 1354l2 12h430l-2 -12q-102 -20 -131 -64q-22 -32 -43 -147l-114 -576q-29 -158 -29 -260q0 -128 81 -197t228 -69q236 0 350 147q42 54 66.5 132.5t56.5 238.5l105 526q20 97 20 166q0 48 -26.5 68.5t-98.5 34.5l2 12h375l-2 -12q-78 -15 -115 -49q-34 -34 -69 -205
l-101 -520q-37 -200 -67 -281q-36 -98 -94 -162q-150 -164 -445 -164q-67 0 -125.5 10.5t-113 35t-93.5 62t-62.5 95.5t-23.5 131q0 114 33 273l109 553q14 77 14 124q0 37 -26.5 58t-90.5 39zM1096 1620q0 -76 -47 -127t-125 -51q-67 0 -108.5 42.5t-41.5 110.5
q0 75 48.5 124.5t123.5 49.5q69 0 109.5 -40.5t40.5 -108.5zM1044 1616q0 50 -27.5 79t-76.5 29t-82 -34.5t-33 -85.5q0 -117 107 -117q49 0 80.5 36.5t31.5 92.5z" />
    <glyph glyph-name="uring" unicode="&#x16f;" horiz-adv-x="1116" 
d="M983 72l2 -11q-106 -75 -207 -75q-44 0 -62 22t-18 74q0 91 33 237q-67 -137 -194 -243q-127 -103 -252 -103q-80 0 -118 35t-38 119q0 60 104 528q31 152 31 201q0 35 -18 53q-20 20 -90 23v8q38 20 104 35q60 14 105 14q31 0 43 -10.5t12 -40.5q0 -46 -45 -233
q-107 -465 -107 -539q0 -51 19.5 -71.5t72.5 -20.5q84 0 172 73q92 73 144 156q63 97 84 199l98 469h129l-108 -518q-43 -203 -43 -306q0 -84 63 -84q43 0 84 9zM829 1311q0 -81 -50.5 -134t-133.5 -53q-71 0 -114.5 45t-43.5 115q0 81 52.5 132.5t132.5 51.5q69 0 113 -44
t44 -113zM776 1309q0 51 -29.5 81.5t-80.5 30.5q-56 0 -90.5 -37.5t-34.5 -97.5q0 -52 29 -84.5t83 -32.5t88.5 38.5t34.5 101.5z" />
    <glyph glyph-name="Uhungarumlaut" unicode="&#x170;" horiz-adv-x="1482" 
d="M266 1354l2 12h430l-2 -12q-102 -20 -131 -64q-22 -32 -43 -147l-114 -576q-29 -158 -29 -260q0 -128 81 -197t228 -69q236 0 350 147q42 54 66.5 132.5t56.5 238.5l105 526q20 97 20 166q0 48 -26.5 68.5t-98.5 34.5l2 12h375l-2 -12q-78 -15 -115 -49q-34 -34 -69 -205
l-101 -520q-37 -200 -67 -281q-36 -98 -94 -162q-150 -164 -445 -164q-67 0 -125.5 10.5t-113 35t-93.5 62t-62.5 95.5t-23.5 131q0 114 33 273l109 553q14 77 14 124q0 37 -26.5 58t-90.5 39zM1016 1636l-344 -161l-10 12l286 254q40 37 76 37q29 0 47.5 -18.5t18.5 -47.5
q0 -41 -74 -76zM1346 1636l-347 -161l-8 12l287 254q40 37 76 37q29 0 46 -18t17 -48q0 -41 -71 -76z" />
    <glyph glyph-name="uhungarumlaut" unicode="&#x171;" horiz-adv-x="1116" 
d="M983 72l2 -11q-106 -75 -207 -75q-44 0 -62 22t-18 74q0 91 33 237q-67 -137 -194 -243q-127 -103 -252 -103q-80 0 -118 35t-38 119q0 60 104 528q31 152 31 201q0 35 -18 53q-20 20 -90 23v8q38 20 104 35q60 14 105 14q31 0 43 -10.5t12 -40.5q0 -46 -45 -233
q-107 -465 -107 -539q0 -51 19.5 -71.5t72.5 -20.5q84 0 172 73q92 73 144 156q63 97 84 199l98 469h129l-108 -518q-43 -203 -43 -306q0 -84 63 -84q43 0 84 9zM727 1348l-291 -213l-8 10l211 280q45 60 86 60q27 0 44 -14.5t17 -38.5q0 -40 -59 -84zM1014 1346l-287 -211
l-8 10l209 280q48 60 86 60q27 0 45 -14.5t18 -38.5q0 -41 -63 -86z" />
    <glyph glyph-name="Uogonek" unicode="&#x172;" horiz-adv-x="1482" 
d="M770 -344l6 -2l-2 -8q0 -18 -16 -31q-42 -39 -119 -39q-89 0 -135.5 42t-46.5 112q0 149 178 243q-177 3 -293 82q-115 80 -115 252q0 114 33 273l109 553q14 77 14 124q0 37 -26.5 58t-90.5 39l2 12h430l-2 -12q-102 -20 -131 -64q-22 -32 -43 -147l-114 -576
q-29 -158 -29 -260q0 -128 81 -197t228 -69q236 0 350 147q42 54 66.5 132.5t56.5 238.5l105 526q20 97 20 166q0 48 -26.5 68.5t-98.5 34.5l2 12h375l-2 -12q-78 -15 -115 -49q-34 -34 -69 -205l-101 -520q-37 -200 -67 -281q-36 -98 -94 -162q-138 -150 -392 -162
q-131 -94 -131 -223q0 -112 113 -112q61 0 90 16z" />
    <glyph glyph-name="uogonek" unicode="&#x173;" horiz-adv-x="1116" 
d="M836 -330l6 -2l-2 -10q-3 -17 -17 -31q-46 -37 -114 -37q-88 0 -132.5 40.5t-44.5 109.5q0 161 205 252q-39 14 -39 90q0 91 33 237q-67 -137 -194 -243q-127 -103 -252 -103q-80 0 -118 35t-38 119q0 60 104 528q31 152 31 201q0 35 -18 53q-20 20 -90 23v8
q38 20 104 35q60 14 105 14q31 0 43 -10.5t12 -40.5q0 -46 -45 -233q-107 -465 -107 -539q0 -51 19.5 -71.5t72.5 -20.5q84 0 172 73q92 73 144 156q63 97 84 199l98 469h129l-108 -518q-43 -203 -43 -306q0 -84 63 -84q43 0 84 9l2 -11q-104 -72 -205 -75
q-141 -89 -141 -226q0 -108 109 -108q61 0 88 18z" />
    <glyph glyph-name="Wcircumflex" unicode="&#x174;" horiz-adv-x="1916" 
d="M1067 1141l-573 -1141h-101q0 2 -20 317l-58 844q-9 130 -43 156q-25 25 -94 37l4 12h424l-2 -12q-58 -15 -100 -41q-35 -21 -35 -96q0 -16 10 -218l25 -438l22 -360l561 1132h93l86 -553q46 -277 59 -372l29 -207l411 964q27 65 27 103q0 36 -31 51q-30 20 -100 35l2 12
h379l-2 -12q-32 -6 -78 -31q-52 -27 -109 -156l-376 -850l-60 -129q-73 -163 -82 -188h-100q-72 495 -88 596l-53 362q-4 31 -14 93t-13 90zM1268 1712l176 -256l-12 -10l-248 172l-320 -170l-10 14l279 254q40 37 75 37q33 0 60 -41z" />
    <glyph glyph-name="wcircumflex" unicode="&#x175;" horiz-adv-x="1400" 
d="M309 -8h-84l-6 803q0 96 -24 114q-27 21 -91 27v8q109 53 209 53q36 0 39 -45q2 -20 2 -114q0 -24 -6 -355q-1 -95 -2 -181t-1.5 -127t-0.5 -46q307 559 406 770h86q41 -336 86 -786q149 255 223 397q63 118 103 227t40 150q0 34 -43 43q-31 8 -65 8l-2 6q100 53 180 53
q39 0 39 -36q0 -112 -178 -437q-90 -168 -326 -532h-84l-80 729q-137 -273 -420 -729zM958 1434l136 -291l-13 -8l-207 206l-309 -206l-8 10l268 291q43 43 80 43q33 0 53 -45z" />
    <glyph glyph-name="Ycircumflex" unicode="&#x176;" horiz-adv-x="1220" 
d="M723 12l-4 -12h-434l4 12q85 18 123 62q34 37 61 192l57 316l-237 598q-45 110 -74 139q-27 24 -76 35l2 12h418l-2 -12q-58 -11 -94 -27q-37 -15 -37 -49q0 -24 29 -100q163 -425 200 -531q45 71 379 520q58 79 58 117q0 32 -37 47q-27 14 -76 23l2 12h375l-2 -12
q-52 -10 -113 -60q-35 -26 -100 -110l-457 -590l-63 -332q-21 -102 -21 -156q0 -35 26 -55t93 -39zM895 1712l176 -256l-12 -10l-248 172l-319 -170l-11 14l279 254q40 37 76 37q32 0 59 -41z" />
    <glyph glyph-name="ycircumflex" unicode="&#x177;" horiz-adv-x="952" 
d="M-172 -309h12q21 -90 76 -90q62 0 137 69q100 85 260 312h-59l-39 815q-3 93 -33 116q-27 17 -90 23l-2 8q103 53 209 53q34 0 43 -45q8 -58 8 -118q27 -665 29 -781q216 337 305 496q137 238 137 330q0 40 -43 49q-36 8 -59 8l-2 8q39 23 98.5 38t93.5 15q43 0 43 -34
q0 -88 -151 -342q-110 -188 -408 -629q-179 -257 -274 -357q-128 -143 -236 -143q-78 0 -78 62q0 43 23 137zM735 1434l135 -291l-12 -8l-207 206l-309 -206l-8 10l268 291q43 43 80 43q33 0 53 -45z" />
    <glyph glyph-name="Ydieresis" unicode="&#x178;" horiz-adv-x="1220" 
d="M723 12l-4 -12h-434l4 12q85 18 123 62q34 37 61 192l57 316l-237 598q-45 110 -74 139q-27 24 -76 35l2 12h418l-2 -12q-58 -11 -94 -27q-37 -15 -37 -49q0 -24 29 -100q163 -425 200 -531q45 71 379 520q58 79 58 117q0 32 -37 47q-27 14 -76 23l2 12h375l-2 -12
q-52 -10 -113 -60q-35 -26 -100 -110l-457 -590l-63 -332q-21 -102 -21 -156q0 -35 26 -55t93 -39zM717 1591q0 -42 -27 -70t-69 -28q-37 0 -59.5 21.5t-22.5 58.5q0 47 27.5 75.5t72.5 28.5q35 0 56.5 -24t21.5 -62zM1059 1591q0 -42 -27 -70t-69 -28q-37 0 -59.5 21.5
t-22.5 58.5q0 47 27.5 75.5t72.5 28.5q35 0 56.5 -24t21.5 -62z" />
    <glyph glyph-name="Zacute" unicode="&#x179;" horiz-adv-x="1179" 
d="M969 0h-1037l2 12l1078 1291q-320 0 -570 -5q-108 -3 -145 -55q-30 -35 -80 -137h-14q20 158 28 205q6 31 17 43t37 12h958v-12l-1077 -1288q491 0 600 2q117 0 168 45q60 45 129 168h14q-13 -105 -47 -244q-6 -23 -18 -30t-43 -7zM952 1626l-350 -151l-8 12l287 254
q41 35 77 35q30 0 49 -21.5t19 -54.5q0 -47 -74 -74z" />
    <glyph glyph-name="zacute" unicode="&#x17a;" horiz-adv-x="903" 
d="M41 49l-43 -45l-39 33q306 333 803 823q-356 0 -436 -6q-95 -3 -125 -55q-21 -38 -35 -76l-12 2q5 88 16 186q6 38 19 49t55 11h669l7 -15l-789 -804q103 -3 303 -27q52 -6 109.5 -12t80.5 -8.5t27 -2.5q52 0 87 27t65 94l10 -2q-12 -143 -39 -201q-18 -43 -104 -43
q-42 0 -289 35q-240 37 -340 37zM799 1352l-312 -215l-8 8l226 295q42 57 86 57q29 0 47 -17t18 -46q0 -45 -57 -82z" />
    <glyph glyph-name="Zdotaccent" unicode="&#x17b;" horiz-adv-x="1179" 
d="M969 0h-1037l2 12l1078 1291q-320 0 -570 -5q-108 -3 -145 -55q-30 -35 -80 -137h-14q20 158 28 205q6 31 17 43t37 12h958v-12l-1077 -1288q491 0 600 2q117 0 168 45q60 45 129 168h14q-13 -105 -47 -244q-6 -23 -18 -30t-43 -7zM825 1571q0 -42 -27 -70t-69 -28
q-37 0 -59.5 21.5t-22.5 57.5q0 47 28 76t73 29q35 0 56 -23.5t21 -62.5z" />
    <glyph glyph-name="zdotaccent" unicode="&#x17c;" horiz-adv-x="903" 
d="M41 49l-43 -45l-39 33q306 333 803 823q-356 0 -436 -6q-95 -3 -125 -55q-21 -38 -35 -76l-12 2q5 88 16 186q6 38 19 49t55 11h669l7 -15l-789 -804q103 -3 303 -27q52 -6 109.5 -12t80.5 -8.5t27 -2.5q52 0 87 27t65 94l10 -2q-12 -143 -39 -201q-18 -43 -104 -43
q-42 0 -289 35q-240 37 -340 37zM655 1296q0 -42 -26.5 -70t-67.5 -28q-36 0 -58 22t-22 58q0 47 27 74.5t72 27.5q35 0 55 -22.5t20 -61.5z" />
    <glyph glyph-name="Zcaron" unicode="&#x17d;" horiz-adv-x="1179" 
d="M969 0h-1037l2 12l1078 1291q-320 0 -570 -5q-108 -3 -145 -55q-30 -35 -80 -137h-14q20 158 28 205q6 31 17 43t37 12h958v-12l-1077 -1288q491 0 600 2q117 0 168 45q60 45 129 168h14q-13 -105 -47 -244q-6 -23 -18 -30t-43 -7zM668 1507l-176 258l10 11l248 -172
l323 168l8 -13l-278 -254q-40 -37 -76 -37q-33 0 -59 39z" />
    <glyph glyph-name="zcaron" unicode="&#x17e;" horiz-adv-x="903" 
d="M41 49l-43 -45l-39 33q306 333 803 823q-356 0 -436 -6q-95 -3 -125 -55q-21 -38 -35 -76l-12 2q5 88 16 186q6 38 19 49t55 11h669l7 -15l-789 -804q103 -3 303 -27q52 -6 109.5 -12t80.5 -8.5t27 -2.5q52 0 87 27t65 94l10 -2q-12 -143 -39 -201q-18 -43 -104 -43
q-42 0 -289 35q-240 37 -340 37zM471 1180l-133 290l10 9l207 -207l309 205l8 -11l-270 -288q-45 -45 -76 -45q-34 0 -55 47z" />
    <glyph glyph-name="longs" unicode="&#x17f;" horiz-adv-x="544" 
d="M-287 -254h11q24 -145 145 -145q96 0 143 86q76 149 146 596l110 675q19 121 54 213q50 121 135 191q104 84 262 84q76 0 125 -19q35 -15 35 -45q0 -41 -39 -145h-13q-18 79 -51.5 115.5t-97.5 36.5q-101 0 -156 -76q-71 -99 -108 -332l-107 -668q-64 -393 -149 -557
q-115 -213 -318 -213q-83 0 -125 25q-26 14 -26 47q0 51 24 131z" />
    <glyph glyph-name="uni018F" unicode="&#x18f;" horiz-adv-x="1509" 
d="M1165 549h-809q-34 -75 -34 -215q0 -139 89.5 -218t243.5 -79q193 0 324 136t186 376zM295 610h881q26 88 26 236q0 217 -123 319q-121 103 -301 103q-217 0 -448 -158l-8 4v10q0 27 24 54q67 85 199.5 141.5t306.5 56.5q259 0 387 -143q129 -144 129 -373
q0 -131 -22 -252t-75.5 -238.5t-134 -204t-207.5 -139.5t-286 -53q-226 0 -354.5 106.5t-128.5 287.5q0 127 43 206q21 37 92 37z" />
    <glyph glyph-name="florin" unicode="&#x192;" horiz-adv-x="1048" 
d="M881 811l-17 -76h-246l-118 -555q-50 -228 -129 -336q-117 -163 -285 -163q-76 0 -119 18q-51 20 -51 61q0 52 35 148h10q21 -168 135 -168q111 0 176 145q33 69 80 299l115 551h-203l17 76h200l25 113q46 220 135 325q109 121 293 121q87 0 151 -22q54 -22 54 -62
q0 -39 -45 -170h-17q-12 191 -164 191q-95 0 -155 -78q-42 -54 -80 -219l-43 -199h246z" />
    <glyph glyph-name="Aringacute" unicode="&#x1fa;" horiz-adv-x="1298" 
d="M993 1511q0 -63 -34 -111t-93 -61l41 -260l137 -876q18 -114 48 -148q22 -28 94 -43l-2 -12h-424l2 12q55 11 94 35q41 21 41 74q0 39 -6 82l-43 291h-496l-162 -295q-45 -80 -45 -113q0 -37 37 -49q40 -13 88 -25l-2 -12h-366l2 12q58 12 96 47q39 34 90 121l504 885
l162 283q-84 35 -84 139q0 77 49 125.5t125 48.5q67 0 107 -41t40 -109zM387 555h451l-99 647q-71 -146 -352 -647zM942 1507q0 50 -27.5 79.5t-76.5 29.5q-47 0 -81 -36t-34 -87q0 -113 106 -113q49 0 81 35.5t32 91.5zM1100 1829l-318 -135l-8 12l262 227q41 35 72 35
q61 0 61 -65q0 -45 -69 -74z" />
    <glyph glyph-name="aringacute" unicode="&#x1fb;" horiz-adv-x="1069" 
d="M954 72l4 -11q-115 -75 -219 -75q-71 0 -71 96q0 113 34 258q-83 -174 -201.5 -270.5t-228.5 -96.5q-97 0 -144.5 59t-47.5 201q0 169 80 367q79 199 207 295q138 102 317 102q183 0 291 -51q-57 -75 -148 -596q-20 -111 -20 -209q0 -82 61 -82q42 0 86 13zM799 881
q0 29 -17 39q-36 20 -131 20q-116 0 -202 -80q-91 -82 -158 -270q-68 -192 -68 -332q0 -184 117 -184q82 0 176 82q99 87 162 221q50 113 113 422q8 36 8 82zM895 1309q0 -81 -49.5 -133t-130.5 -52q-68 0 -111 45t-43 115q0 80 50.5 130t129.5 50q69 0 111.5 -43t42.5 -112
zM844 1307q0 50 -30 80t-79 30q-54 0 -88.5 -38t-34.5 -95q0 -51 29 -83t82 -32q52 0 86.5 38.5t34.5 99.5zM997 1737l-313 -215l-8 10l227 295q45 57 86 57q30 0 48 -17.5t18 -47.5q0 -45 -58 -82z" />
    <glyph glyph-name="AEacute" unicode="&#x1fc;" horiz-adv-x="1871" 
d="M293 12l-2 -12h-375l2 12q73 15 115 54q37 30 127 133l827 958q82 98 82 135q0 24 -22 36.5t-89 25.5l3 12h854q32 0 41.5 -6t9.5 -25q0 -45 -54 -219h-12q-10 91 -27 127.5t-53 48.5q-42 11 -137 11h-190q-34 0 -49 -16.5t-21 -55.5l-96 -490h164q104 0 161 11
q51 10 80 38.5t62 96.5h12l-70 -350h-14q-2 64 -25 96.5t-79 42.5q-38 6 -134 6h-167l-93 -477q-12 -74 -12 -92q0 -25 17.5 -35t64.5 -10h227q130 0 195 41q64 40 135 161h12q-10 -53 -45 -221q-7 -30 -21.5 -39.5t-51.5 -9.5h-844l2 12q84 18 117 51q31 31 61 181l49 250
h-524l-227 -281q-91 -114 -91 -143q0 -26 31 -35q42 -18 74 -23zM561 555h479l144 739q-128 -163 -623 -739zM1700 1626l-350 -151l-9 12l287 254q41 35 78 35q30 0 49 -21.5t19 -54.5q0 -47 -74 -74z" />
    <glyph glyph-name="aeacute" unicode="&#x1fd;" horiz-adv-x="1431" 
d="M662 176q-126 -203 -357 -203q-114 0 -181 68.5t-67 175.5q0 96 57 161t162 95q140 39 396 51l10 60q18 88 18 139q0 86 -53.5 130t-146.5 44q-198 0 -295 -106l-8 2q0 20 2 26q21 77 116 127q96 51 226 51q251 0 272 -194q56 88 143.5 141t192.5 53q231 0 231 -184
q0 -63 -26 -114t-86 -99q-129 -104 -467 -119q-15 -67 -15 -164q0 -122 57.5 -188t157.5 -66q144 0 263 107l6 -4q0 -10 -8 -29q-14 -31 -37 -57q-107 -107 -291 -107q-222 0 -272 203zM649 229q-4 78 -4 82q0 23 17 162q-199 -17 -308 -47q-155 -46 -155 -188
q0 -77 44.5 -121.5t118.5 -44.5q92 0 157 38.5t130 118.5zM813 528q223 18 335 94.5t112 196.5q0 119 -121 119q-117 0 -204 -109t-122 -301zM1087 1352l-311 -215l-8 8l225 295q42 57 86 57q30 0 48 -17t18 -46q0 -45 -58 -82z" />
    <glyph glyph-name="Oslashacute" unicode="&#x1fe;" horiz-adv-x="1374" 
d="M266 90l-104 -135l-51 35l112 145q-104 134 -104 365q0 196 67 397q71 203 209 332q176 164 436 164q190 0 306 -82l112 143l51 -37l-114 -147q123 -123 123 -365q0 -212 -70 -422q-67 -210 -209 -346q-176 -164 -436 -164q-208 0 -328 117zM1143 934q0 133 -41 229
l-762 -979q82 -147 270 -147q193 0 324 162q97 123 153 338q56 213 56 397zM283 467q0 -128 28 -217l758 973q-83 108 -246 108q-193 0 -329 -157q-102 -120 -158 -318q-53 -195 -53 -389zM1110 1626l-350 -151l-8 12l286 254q41 35 78 35q30 0 49 -21.5t19 -54.5
q0 -47 -74 -74z" />
    <glyph glyph-name="oslashacute" unicode="&#x1ff;" horiz-adv-x="999" 
d="M201 39l-82 -115l-43 31l86 121q-76 94 -76 260q0 162 49 306.5t148 238.5q122 116 303 116q120 0 196 -55l88 123l45 -31l-92 -129q74 -83 74 -241q0 -145 -43 -293q-39 -146 -125 -252q-122 -146 -319 -146q-122 0 -209 66zM762 698q0 64 -10 109l-496 -692
q50 -90 158 -90q149 0 225 143q50 95 86 256q37 157 37 274zM221 295q0 -67 12 -119l496 692q-44 78 -156 78q-111 0 -196 -104q-71 -89 -115 -250q-41 -161 -41 -297zM856 1352l-311 -215l-8 8l225 295q42 57 86 57q29 0 47 -17t18 -46q0 -45 -57 -82z" />
    <glyph glyph-name="uni0218" unicode="&#x218;" horiz-adv-x="1028" 
d="M96 311h17q25 -129 109 -201.5t216 -72.5q95 0 165.5 29t103.5 77q61 94 61 193q0 78 -55 141.5t-197 151.5l-86 53q-192 116 -192 315q0 181 130.5 288.5t372.5 107.5q143 0 228 -39q51 -20 51 -64q0 -59 -41 -184h-12q-17 118 -80 171.5t-189 53.5q-146 0 -235.5 -77.5
t-89.5 -202.5q0 -79 42 -134.5t152 -123.5l90 -56q133 -82 193.5 -165.5t60.5 -186.5q0 -191 -131 -301.5t-364 -110.5q-167 0 -277 58q-61 34 -61 86q0 68 18 194zM197 -489l-7 16q183 83 183 174q0 33 -29 59q-35 30 -35 70q0 33 24 54.5t62 21.5q97 0 97 -109
q0 -98 -81.5 -171.5t-213.5 -114.5z" />
    <glyph glyph-name="uni0219" unicode="&#x219;" horiz-adv-x="757" 
d="M57 231l11 -2q17 -89 87.5 -143.5t153.5 -54.5q106 0 164.5 46.5t58.5 135.5q0 57 -35.5 103t-129.5 106l-64 43q-82 56 -117.5 111.5t-35.5 128.5q0 135 103.5 213.5t276.5 78.5q94 0 158 -24q39 -12 39 -49q0 -49 -39 -150h-12q-12 86 -59.5 127t-133.5 41
q-102 0 -161.5 -51.5t-59.5 -136.5q0 -90 133 -179l64 -40q109 -74 151.5 -129.5t42.5 -131.5q0 -140 -100.5 -220.5t-267.5 -80.5q-145 0 -222 56q-28 22 -28 55q0 57 22 147zM82 -489l-6 16q182 83 182 174q0 33 -29 59q-34 30 -34 70q0 33 24 54.5t62 21.5q96 0 96 -109
q0 -98 -81.5 -171.5t-213.5 -114.5z" />
    <glyph glyph-name="uni021A" unicode="&#x21a;" horiz-adv-x="1181" 
d="M696 12l-2 -12h-440l2 12q100 21 127 62q24 31 59 196l185 942q6 38 6 54q0 37 -49 37h-113q-74 0 -137 -13q-44 -7 -83 -50.5t-93 -143.5h-13q13 131 33 223q6 27 15.5 37t33.5 10h990q47 0 47 -29q0 -68 -52 -239h-12q-12 96 -38 140t-70 52q-60 13 -131 13h-117
q-32 0 -45 -12.5t-19 -49.5l-188 -981q-19 -97 -19 -158q0 -63 123 -90zM248 -489l-6 16q182 83 182 174q0 33 -29 59q-35 30 -35 70q0 33 24 54.5t62 21.5q97 0 97 -109q0 -98 -81.5 -171.5t-213.5 -114.5z" />
    <glyph glyph-name="uni021B" unicode="&#x21b;" horiz-adv-x="624" 
d="M506 96l6 -2q0 -17 -14 -37q-8 -17 -39 -37q-61 -43 -150 -43q-170 0 -170 164q0 52 25 168l121 592h-142l11 37q67 11 125 35q36 19 65 76q36 83 66 161h71l-47 -243h221l-12 -66h-225l-121 -592q-23 -115 -23 -180q0 -38 24.5 -60t63.5 -22q74 0 144 49zM45 -489l-6 16
q182 83 182 174q0 34 -28 59q-35 30 -35 70q0 33 24 54.5t62 21.5q96 0 96 -109q0 -98 -81.5 -171.5t-213.5 -114.5z" />
    <glyph glyph-name="uni0259" unicode="&#x259;" horiz-adv-x="880" 
d="M156 805l-6 4q0 14 6 29q14 32 37 55q101 104 286 104q144 0 220.5 -85.5t76.5 -254.5q0 -152 -51 -301q-51 -158 -143 -250q-130 -133 -316 -133q-229 0 -229 193q0 140 137 231q137 94 449 97q12 62 12 147q0 266 -219 266q-152 0 -260 -102zM612 461
q-221 -10 -338.5 -91.5t-117.5 -209.5q0 -63 34.5 -98t96.5 -35q114 0 198.5 115t126.5 319z" />
    <glyph glyph-name="circumflex" unicode="&#x2c6;" horiz-adv-x="407" 
d="M342 1434l135 -291l-12 -8l-207 206l-309 -206l-8 10l268 291q43 43 80 43q33 0 53 -45z" />
    <glyph glyph-name="caron" unicode="&#x2c7;" horiz-adv-x="407" 
d="M76 1180l-133 290l10 9l207 -207l309 205l8 -11l-270 -288q-45 -45 -76 -45q-34 0 -55 47z" />
    <glyph glyph-name="breve" unicode="&#x2d8;" horiz-adv-x="407" 
d="M422 1419l14 -2q-21 -115 -67 -184q-62 -90 -203 -90q-199 0 -199 207q0 36 10 69h11q9 -168 186 -168q100 0 155.5 40t92.5 128z" />
    <glyph glyph-name="dotaccent" unicode="&#x2d9;" horiz-adv-x="407" 
d="M293 1296q0 -42 -26.5 -70t-67.5 -28q-36 0 -58 22t-22 58q0 47 26.5 74.5t71.5 27.5q35 0 55.5 -23t20.5 -61z" />
    <glyph glyph-name="ring" unicode="&#x2da;" horiz-adv-x="407" 
d="M375 1311q0 -81 -51 -134t-134 -53q-71 0 -114 45t-43 115q0 81 52 132.5t132 51.5q69 0 113.5 -44t44.5 -113zM322 1309q0 51 -30 81.5t-81 30.5q-56 0 -90.5 -37.5t-34.5 -97.5q0 -51 29.5 -84t83.5 -33t88.5 38.5t34.5 101.5z" />
    <glyph glyph-name="ogonek" unicode="&#x2db;" horiz-adv-x="407" 
d="M348 -330l6 -2l-2 -10q-3 -18 -16 -31q-46 -37 -115 -37q-88 0 -132 40.5t-44 109.5q0 190 301 289l4 -11q-198 -104 -198 -258q0 -108 108 -108q61 0 88 18z" />
    <glyph glyph-name="tilde" unicode="&#x2dc;" horiz-adv-x="407" 
d="M473 1360l10 -6q-59 -185 -166 -185q-48 0 -139 45q-72 35 -106 35q-80 0 -138 -94l-12 4q73 199 182 199q32 0 119 -41q86 -45 121 -45q40 0 68 19.5t61 68.5z" />
    <glyph glyph-name="hungarumlaut" unicode="&#x2dd;" horiz-adv-x="407" 
d="M178 1348l-291 -213l-8 10l211 280q45 60 86 60q27 0 44.5 -14.5t17.5 -38.5q0 -39 -60 -84zM465 1346l-287 -211l-8 10l209 280q48 60 86 60q27 0 45 -14.5t18 -38.5q0 -41 -63 -86z" />
    <glyph glyph-name="uni0394" unicode="&#x394;" horiz-adv-x="1392" 
d="M940 1368l295 -1368h-1270l850 1368h125zM817 1257q-96 -170 -686 -1126h920q-171 795 -234 1126z" />
    <glyph glyph-name="uni03A9" unicode="&#x3a9;" horiz-adv-x="1497" 
d="M592 109l-17 -109h-440q-36 0 -47.5 9.5t-11.5 35.5q0 80 16 195h12q27 -89 74 -101q69 -16 297 -16q-128 60 -200 182.5t-72 282.5q0 174 60 337t173 279q189 189 461 189q220 0 337.5 -114t117.5 -343q0 -319 -160 -545q-129 -183 -340 -268q250 6 309 16
q59 12 115 101h12q-9 -65 -43 -193q-7 -26 -25.5 -36.5t-56.5 -10.5h-450l14 109q194 56 326 292q133 239 133 562q0 192 -74 280t-223 88q-214 0 -352 -188q-83 -115 -129 -277t-46 -327q0 -169 62.5 -285t167.5 -145z" />
    <glyph glyph-name="uni03BC" unicode="&#x3bc;" horiz-adv-x="1282" 
d="M285 49l-29 -162q-28 -145 -43 -264q-3 -32 -25 -45q-25 -14 -135 -14l-6 6q57 197 240 1092q30 147 30 194q0 35 -18 53q-17 17 -88 23v8q36 19 106 35q63 14 105 14q32 0 43.5 -12t11.5 -45q0 -32 -45 -225q-104 -459 -104 -545q0 -92 100 -92q79 0 168 71
q89 74 139 154q48 72 74 192l104 484h131l-110 -520q-41 -196 -41 -304q0 -86 63 -86q16 0 84 11l2 -11q-42 -30 -103.5 -52.5t-104.5 -22.5q-42 0 -60 22.5t-18 73.5q0 107 28 231q-68 -150 -173.5 -239.5t-215.5 -89.5q-95 0 -110 65z" />
    <glyph glyph-name="pi" unicode="&#x3c0;" horiz-adv-x="1310" 
d="M164 2v8q149 186 278 842h-16q-82 0 -135 -27.5t-113 -101.5l-10 4q49 132 108 191q53 53 193 53h803l-23 -119h-170l-121 -621q-8 -44 -8 -96q0 -76 76 -76q45 0 72 9l2 -9q-33 -30 -92 -52.5t-109 -22.5q-94 0 -94 96q0 57 22 176l117 596h-389q-132 -690 -211 -813
q-20 -33 -39 -41q-20 -14 -59 -14q-48 0 -82 18z" />
    <glyph glyph-name="Wgrave" unicode="&#x1e80;" horiz-adv-x="1916" 
d="M1067 1141l-573 -1141h-101q0 2 -20 317l-58 844q-9 130 -43 156q-25 25 -94 37l4 12h424l-2 -12q-58 -15 -100 -41q-35 -21 -35 -96q0 -16 10 -218l25 -438l22 -360l561 1132h93l86 -553q46 -277 59 -372l29 -207l411 964q27 65 27 103q0 36 -31 51q-30 20 -100 35l2 12
h379l-2 -12q-32 -6 -78 -31q-52 -27 -109 -156l-376 -850l-60 -129q-73 -163 -82 -188h-100q-72 495 -88 596l-53 362q-4 31 -14 93t-13 90zM971 1749l272 -262l-8 -12l-342 165q-68 35 -68 78q0 31 19.5 52.5t48.5 21.5q35 0 78 -43z" />
    <glyph glyph-name="wgrave" unicode="&#x1e81;" horiz-adv-x="1400" 
d="M309 -8h-84l-6 803q0 96 -24 114q-27 21 -91 27v8q109 53 209 53q36 0 39 -45q2 -20 2 -114q0 -24 -6 -355q-1 -95 -2 -181t-1.5 -127t-0.5 -46q307 559 406 770h86q41 -336 86 -786q149 255 223 397q63 118 103 227t40 150q0 34 -43 43q-31 8 -65 8l-2 6q100 53 180 53
q39 0 39 -36q0 -112 -178 -437q-90 -168 -326 -532h-84l-80 729q-137 -273 -420 -729zM725 1444l174 -299l-8 -8l-262 217q-51 39 -51 80q0 29 21.5 47t51.5 18q40 0 74 -55z" />
    <glyph glyph-name="Wacute" unicode="&#x1e82;" horiz-adv-x="1916" 
d="M1067 1141l-573 -1141h-101q0 2 -20 317l-58 844q-9 130 -43 156q-25 25 -94 37l4 12h424l-2 -12q-58 -15 -100 -41q-35 -21 -35 -96q0 -16 10 -218l25 -438l22 -360l561 1132h93l86 -553q46 -277 59 -372l29 -207l411 964q27 65 27 103q0 36 -31 51q-30 20 -100 35l2 12
h379l-2 -12q-32 -6 -78 -31q-52 -27 -109 -156l-376 -850l-60 -129q-73 -163 -82 -188h-100q-72 495 -88 596l-53 362q-4 31 -14 93t-13 90zM1391 1626l-351 -151l-8 12l287 254q41 35 78 35q30 0 48.5 -21.5t18.5 -54.5q0 -47 -73 -74z" />
    <glyph glyph-name="wacute" unicode="&#x1e83;" horiz-adv-x="1400" 
d="M309 -8h-84l-6 803q0 96 -24 114q-27 21 -91 27v8q109 53 209 53q36 0 39 -45q2 -20 2 -114q0 -24 -6 -355q-1 -95 -2 -181t-1.5 -127t-0.5 -46q307 559 406 770h86q41 -336 86 -786q149 255 223 397q63 118 103 227t40 150q0 34 -43 43q-31 8 -65 8l-2 6q100 53 180 53
q39 0 39 -36q0 -112 -178 -437q-90 -168 -326 -532h-84l-80 729q-137 -273 -420 -729zM1049 1352l-312 -215l-8 8l225 295q42 57 86 57q30 0 48 -17t18 -46q0 -45 -57 -82z" />
    <glyph glyph-name="Wdieresis" unicode="&#x1e84;" horiz-adv-x="1916" 
d="M1067 1141l-573 -1141h-101q0 2 -20 317l-58 844q-9 130 -43 156q-25 25 -94 37l4 12h424l-2 -12q-58 -15 -100 -41q-35 -21 -35 -96q0 -16 10 -218l25 -438l22 -360l561 1132h93l86 -553q46 -277 59 -372l29 -207l411 964q27 65 27 103q0 36 -31 51q-30 20 -100 35l2 12
h379l-2 -12q-32 -6 -78 -31q-52 -27 -109 -156l-376 -850l-60 -129q-73 -163 -82 -188h-100q-72 495 -88 596l-53 362q-4 31 -14 93t-13 90zM1075 1591q0 -42 -27 -70t-69 -28q-37 0 -59.5 21.5t-22.5 58.5q0 47 27.5 75.5t72.5 28.5q35 0 56.5 -24t21.5 -62zM1417 1591
q0 -42 -27 -70t-69 -28q-37 0 -59.5 21.5t-22.5 58.5q0 47 27.5 75.5t72.5 28.5q35 0 56.5 -24t21.5 -62z" />
    <glyph glyph-name="wdieresis" unicode="&#x1e85;" horiz-adv-x="1400" 
d="M309 -8h-84l-6 803q0 96 -24 114q-27 21 -91 27v8q109 53 209 53q36 0 39 -45q2 -20 2 -114q0 -24 -6 -355q-1 -95 -2 -181t-1.5 -127t-0.5 -46q307 559 406 770h86q41 -336 86 -786q149 255 223 397q63 118 103 227t40 150q0 34 -43 43q-31 8 -65 8l-2 6q100 53 180 53
q39 0 39 -36q0 -112 -178 -437q-90 -168 -326 -532h-84l-80 729q-137 -273 -420 -729zM782 1296q0 -42 -26.5 -70t-67.5 -28q-36 0 -58 22t-22 58q0 47 27 74.5t72 27.5q35 0 55 -22.5t20 -61.5zM1092 1296q0 -42 -27 -70t-68 -28q-35 0 -57 22t-22 58q0 44 27.5 73t70.5 29
q35 0 55.5 -23t20.5 -61z" />
    <glyph glyph-name="Ygrave" unicode="&#x1ef2;" horiz-adv-x="1220" 
d="M723 12l-4 -12h-434l4 12q85 18 123 62q34 37 61 192l57 316l-237 598q-45 110 -74 139q-27 24 -76 35l2 12h418l-2 -12q-58 -11 -94 -27q-37 -15 -37 -49q0 -24 29 -100q163 -425 200 -531q45 71 379 520q58 79 58 117q0 32 -37 47q-27 14 -76 23l2 12h375l-2 -12
q-52 -10 -113 -60q-35 -26 -100 -110l-457 -590l-63 -332q-21 -102 -21 -156q0 -35 26 -55t93 -39zM602 1749l272 -262l-8 -12l-342 165q-67 34 -67 78q0 31 19 52.5t48 21.5q35 0 78 -43z" />
    <glyph glyph-name="ygrave" unicode="&#x1ef3;" horiz-adv-x="952" 
d="M-172 -309h12q21 -90 76 -90q62 0 137 69q100 85 260 312h-59l-39 815q-3 93 -33 116q-27 17 -90 23l-2 8q103 53 209 53q34 0 43 -45q8 -58 8 -118q27 -665 29 -781q216 337 305 496q137 238 137 330q0 40 -43 49q-36 8 -59 8l-2 8q39 23 98.5 38t93.5 15q43 0 43 -34
q0 -88 -151 -342q-110 -188 -408 -629q-179 -257 -274 -357q-128 -143 -236 -143q-78 0 -78 62q0 43 23 137zM451 1444l174 -299l-9 -8l-262 217q-51 39 -51 80q0 28 22 46.5t52 18.5q40 0 74 -55z" />
    <glyph glyph-name="endash" unicode="&#x2013;" horiz-adv-x="1167" 
d="M1067 588l-23 -109h-942l23 109h942z" />
    <glyph glyph-name="emdash" unicode="&#x2014;" horiz-adv-x="1935" 
d="M1855 588l-22 -109h-1731l23 109h1730z" />
    <glyph glyph-name="quoteleft" unicode="&#x2018;" horiz-adv-x="417" 
d="M539 1495l6 -10q-88 -46 -147.5 -112t-59.5 -126q0 -32 39 -65q47 -38 47 -82q0 -39 -26 -66.5t-68 -27.5q-55 0 -87 36.5t-32 94.5q0 117 89.5 208t238.5 150z" />
    <glyph glyph-name="quoteright" unicode="&#x2019;" horiz-adv-x="417" 
d="M143 1006l-6 12q88 46 147.5 111.5t59.5 125.5q0 31 -41 66q-47 38 -47 82q0 39 26.5 65.5t67.5 26.5q57 0 89 -35.5t32 -95.5q0 -220 -328 -358z" />
    <glyph glyph-name="quotesinglbase" unicode="&#x201a;" horiz-adv-x="417" 
d="M-104 -283l-7 13q90 50 148.5 113.5t58.5 123.5q0 33 -39 66q-47 35 -47 82q0 39 26 66.5t68 27.5q55 0 87 -36.5t32 -96.5q0 -225 -327 -359z" />
    <glyph glyph-name="quotedblleft" unicode="&#x201c;" horiz-adv-x="747" 
d="M864 1495l6 -12q-90 -50 -148 -113.5t-58 -122.5q0 -30 41 -65q47 -35 47 -82q0 -39 -26.5 -66.5t-68.5 -27.5q-55 0 -87.5 36.5t-32.5 94.5q0 117 88.5 207t238.5 151zM539 1495l6 -12q-90 -50 -148.5 -113.5t-58.5 -122.5q0 -32 39 -65q47 -38 47 -82q0 -39 -26 -66.5
t-68 -27.5q-55 0 -87 36.5t-32 94.5q0 117 89.5 208t238.5 150z" />
    <glyph glyph-name="quotedblright" unicode="&#x201d;" horiz-adv-x="747" 
d="M143 1006l-6 12q88 46 147.5 111.5t59.5 125.5q0 33 -39 66q-49 40 -49 82q0 39 26.5 65.5t67.5 26.5q57 0 89 -35.5t32 -95.5q0 -220 -328 -358zM471 1006l-6 12q86 47 145.5 112.5t59.5 124.5q0 33 -39 66q-47 35 -47 82q0 39 26.5 65.5t67.5 26.5q56 0 87.5 -35
t31.5 -96q0 -220 -326 -358z" />
    <glyph glyph-name="quotedblbase" unicode="&#x201e;" horiz-adv-x="747" 
d="M-104 -283l-7 13q90 50 148.5 113.5t58.5 123.5q0 33 -39 66q-47 35 -47 82q0 39 26 66.5t68 27.5q55 0 87 -36.5t32 -96.5q0 -225 -327 -359zM223 -283l-6 13q90 50 148.5 113.5t58.5 123.5q0 31 -41 66q-47 38 -47 82q0 39 26.5 66.5t67.5 27.5q56 0 88.5 -36t32.5 -97
q0 -221 -328 -359z" />
    <glyph glyph-name="dagger" unicode="&#x2020;" horiz-adv-x="1067" 
d="M627 909q-25 -157 -70 -506q-26 -217 -45 -356q-9 -76 -78 -76q-63 0 -63 58q0 3 12 71q24 105 88 351q68 261 117 458q-66 -9 -140 -22t-112.5 -19.5t-50.5 -5.5q-74 0 -74 66q0 82 94 82q11 0 49 -10t106 -26t136 -28q14 203 14 385q0 86 86 86q70 0 70 -63
q0 -26 -18 -78q-50 -122 -113 -330q68 12 141 28.5t115 27t53 10.5q76 0 76 -66q0 -40 -25 -62t-65 -22q-11 0 -53 7.5t-113.5 19.5t-136.5 20z" />
    <glyph glyph-name="daggerdbl" unicode="&#x2021;" horiz-adv-x="1067" 
d="M379 102l117 355q-77 -10 -147 -22t-105 -18.5t-47 -6.5q-72 0 -72 63q0 84 84 84q12 0 48 -7.5t105 -20.5t142 -23l80 409q-75 -10 -147.5 -20.5t-106 -15.5t-43.5 -5q-72 0 -72 62q0 84 80 84q13 0 49.5 -8t106.5 -23t141 -26q12 133 14 229q6 126 6 133q9 92 88 92
q66 0 66 -63q0 -32 -21 -88q-83 -240 -102 -303q72 11 144 26t110 23t49 8q72 0 72 -64q0 -82 -88 -82q-10 0 -47.5 6t-107 16.5t-140.5 18.5l-80 -409q75 11 147 24.5t106.5 20t43.5 6.5q76 0 76 -68q0 -35 -24 -57t-62 -22q-13 0 -50.5 6.5t-108.5 18.5t-138 22
q-7 -65 -13.5 -165t-10.5 -170t-5 -77q-9 -100 -88 -100q-70 0 -70 63q0 30 21 94z" />
    <glyph glyph-name="bullet" unicode="&#x2022;" horiz-adv-x="770" 
d="M637 578q0 -122 -75 -199.5t-193 -77.5q-101 0 -166.5 63.5t-65.5 165.5q0 121 79 198t198 77q104 0 163.5 -61t59.5 -166z" />
    <glyph glyph-name="ellipsis" unicode="&#x2026;" horiz-adv-x="2129" 
d="M389 96q0 -51 -31 -85t-84 -34q-44 0 -71 27.5t-27 71.5q0 52 32 86.5t85 34.5q44 0 70 -28t26 -73zM1075 96q0 -53 -29.5 -86t-82.5 -33q-44 0 -72.5 27.5t-28.5 71.5q0 52 32 86.5t85 34.5q44 0 70 -28t26 -73zM1763 96q0 -53 -29.5 -86t-82.5 -33q-44 0 -72.5 27.5
t-28.5 71.5q0 52 33 86.5t86 34.5q42 0 68 -28t26 -73z" />
    <glyph glyph-name="perthousand" unicode="&#x2030;" horiz-adv-x="2412" 
d="M756 1104q0 -133 -43 -275q-44 -145 -129 -227q-92 -86 -209 -86q-234 0 -234 256q0 142 40.5 270.5t121.5 210.5q89 95 221 95q123 0 177.5 -62t54.5 -182zM641 1130q0 90 -26.5 130t-98.5 40q-78 0 -137 -83q-55 -82 -90 -222t-35 -243q0 -94 29.5 -139.5t97.5 -45.5
q73 0 135 86q49 66 88 228q37 154 37 249zM348 -31l967 1428l53 -35l-962 -1425zM1593 571q0 -132 -43 -274q-44 -146 -131 -227q-92 -86 -207 -86q-233 0 -233 256q0 142 40.5 270.5t121.5 210.5q88 94 221 94q123 0 177 -61.5t54 -182.5zM1479 598q0 90 -26.5 130
t-98.5 40q-77 0 -137 -84q-57 -85 -91 -221q-34 -133 -34 -244q0 -94 29.5 -139t97.5 -45q71 0 133 86q50 70 88 229q39 150 39 248zM2331 571q0 -132 -43 -274q-44 -145 -129 -227q-92 -86 -209 -86q-234 0 -234 256q0 142 40.5 270.5t121.5 210.5q88 94 221 94
q123 0 177.5 -62t54.5 -182zM2216 598q0 90 -26.5 130t-98.5 40q-77 0 -137 -84q-55 -82 -90 -221q-35 -140 -35 -244q0 -94 29.5 -139t97.5 -45q71 0 133 86q50 70 88 229q39 150 39 248z" />
    <glyph glyph-name="guilsinglleft" unicode="&#x2039;" horiz-adv-x="534" 
d="M106 557l426 352l11 -12l-328 -393l172 -408l-12 -6l-285 361q-18 27 -18 45q0 31 34 61z" />
    <glyph glyph-name="guilsinglright" unicode="&#x203a;" horiz-adv-x="534" 
d="M399 442l-424 -352l-10 10l328 396l-170 405l12 8l283 -360q18 -21 18 -47t-37 -60z" />
    <glyph glyph-name="fraction" unicode="&#x2044;" horiz-adv-x="182" 
d="M-389 -31l964 1426l54 -31l-965 -1427z" />
    <glyph glyph-name="zero.superior" unicode="&#x2070;" 
d="M795 1452q0 -134 -43 -276q-41 -143 -127 -226q-95 -86 -211 -86q-232 0 -232 256q0 320 162 482q88 94 219 94q125 0 178.5 -61t53.5 -183zM682 1479q0 92 -25 132t-96 40q-88 0 -141 -84q-53 -78 -92 -226q-35 -140 -35 -245q0 -183 127 -183q78 0 137 86q50 72 88 232
q37 154 37 248z" />
    <glyph glyph-name="four.superior" unicode="&#x2074;" 
d="M696 893l-2 -12h-301l2 12q42 3 70 22q36 19 51 86l19 101h-392l11 51l524 543h82l-51 -254l-50 -266h134l-17 -74h-133l-18 -98q-4 -46 -4 -50q0 -29 20 -43q15 -9 55 -18zM236 1176h313q52 280 84 417q-50 -57 -397 -417z" />
    <glyph glyph-name="five.superior" unicode="&#x2075;" 
d="M182 1059h8q5 -64 55 -105t134 -41q103 0 164 69.5t61 176.5q0 74 -45 120t-119 46q-93 0 -176 -47l-8 6l113 397h407l-16 -98h-238q-84 2 -135 2l-68 -231q53 41 166 41q107 0 173.5 -58t66.5 -157q0 -142 -95 -229t-253 -87q-127 0 -197 43q-22 16 -22 37q0 42 24 115z
" />
    <glyph glyph-name="six.superior" unicode="&#x2076;" 
d="M322 1257q29 60 90.5 94.5t136.5 34.5q96 0 152.5 -55.5t56.5 -146.5q0 -141 -81.5 -230.5t-225.5 -89.5q-119 0 -181.5 69.5t-62.5 190.5q0 123 43.5 248.5t120.5 210.5q101 113 268 113q79 0 131 -19q35 -15 35 -43q0 -27 -25 -110h-10q-6 64 -38.5 94.5t-100.5 30.5
q-119 0 -201 -113q-68 -94 -108 -279zM311 1163q-6 -24 -6 -73q3 -177 148 -177q95 0 146.5 72t51.5 186q0 68 -40 109t-101 41q-104 0 -164 -78q-21 -24 -35 -80z" />
    <glyph glyph-name="seven.superior" unicode="&#x2077;" 
d="M367 856l-80 21q211 367 450 708q-61 0 -145 -2h-219q-55 0 -80 -22q-20 -17 -45 -66l-10 2q6 79 22 150q9 34 53 34h510l-8 -49q-190 -310 -448 -776z" />
    <glyph glyph-name="eight.superior" unicode="&#x2078;" 
d="M578 1315q75 -36 119 -91t44 -116q0 -115 -83.5 -179.5t-221.5 -64.5q-124 0 -191 56.5t-67 142.5q0 166 232 225q-49 29 -79 80t-30 105q0 100 74.5 161.5t195.5 61.5q108 0 166 -45.5t58 -116.5q0 -146 -217 -219zM434 1272q-164 -71 -164 -203q0 -69 47.5 -112.5
t122.5 -43.5q88 0 139.5 44.5t51.5 119.5q0 112 -197 195zM551 1327q162 76 162 201q0 55 -38.5 90t-105.5 35q-78 0 -120.5 -41t-42.5 -109q0 -105 145 -176z" />
    <glyph glyph-name="nine.superior" unicode="&#x2079;" 
d="M655 1298q-72 -118 -225 -118q-96 0 -153.5 56.5t-57.5 145.5q0 137 82 225.5t225 88.5q120 0 184 -66.5t64 -185.5q0 -137 -38.5 -265t-112.5 -206q-100 -109 -277 -109q-80 0 -139 27q-37 21 -37 43q0 39 25 106h8q6 -58 46.5 -92.5t106.5 -34.5q130 0 201 105
q52 81 98 280zM664 1399q6 35 6 76q-3 176 -144 176q-95 0 -145 -78q-47 -77 -47 -180q0 -71 37 -111.5t98 -40.5q112 0 162 78q24 35 33 80z" />
    <glyph glyph-name="parenleft.superior" unicode="&#x207d;" horiz-adv-x="401" 
d="M408 739l-9 -10q-108 46 -166.5 150.5t-58.5 238.5q0 234 105 405t309 244l6 -14q-167 -81 -250 -258q-80 -177 -80 -387q0 -114 39.5 -217t104.5 -152z" />
    <glyph glyph-name="parenright.superior" unicode="&#x207e;" horiz-adv-x="401" 
d="M233 1755l9 12q110 -48 168.5 -152.5t58.5 -238.5q0 -232 -106 -403t-310 -244l-8 12q170 83 250 260q82 174 82 388q0 114 -39.5 215.5t-104.5 150.5z" />
    <glyph glyph-name="n.superior" unicode="&#x207f;" horiz-adv-x="710" 
d="M307 823l-63 -291h-101l66 312q31 143 31 192q0 26 -11 37q-14 14 -59 17v8q73 28 147 28q35 0 35 -32q0 -61 -33 -164q43 82 123 141q83 62 160 62q96 0 96 -86q0 -72 -63 -330q-14 -60 -14 -107q0 -35 38 -35q35 0 50 3l2 -7q-83 -47 -160 -47q-45 0 -45 43
q0 37 20 121q66 289 66 326q0 29 -12 41t-41 12q-48 0 -105 -41t-84 -90q-28 -48 -43 -113z" />
    <glyph glyph-name="zero.inferior" unicode="&#x2080;" 
d="M584 256q0 -135 -43 -274q-41 -145 -127 -228q-95 -86 -211 -86q-232 0 -232 256q0 320 162 482q88 94 219 94q125 0 178.5 -61t53.5 -183zM471 283q0 92 -25 132t-96 40q-88 0 -141 -84q-53 -78 -92 -226q-35 -140 -35 -245q0 -183 127 -183q78 0 137 86q50 72 88 232
q37 154 37 248z" />
    <glyph glyph-name="one.inferior" unicode="&#x2081;" 
d="M348 -305l-2 -10h-301l2 10q38 3 62 14q41 15 53 94l94 498q14 60 14 94q0 35 -45 35q-41 0 -51 -2v16l232 60l6 -8q-11 -35 -31 -152q-19 -107 -29 -143l-76 -387q-6 -34 -6 -58q0 -26 25 -45q27 -11 53 -16z" />
    <glyph glyph-name="two.inferior" unicode="&#x2082;" 
d="M432 -315h-522l10 49q86 56 160 112q74 53 153 127q185 162 185 332q0 70 -38.5 110t-115.5 40q-75 0 -116 -30.5t-78 -105.5h-9q-2 23 -2 89q3 44 50 59q73 33 190 33q116 0 178 -52t62 -139q0 -119 -115 -252q-49 -52 -125 -108q-67 -51 -129 -92q-38 -25 -133 -82
q164 4 342 4q54 0 78 18q21 15 57 76h10q-6 -79 -37 -158q-9 -30 -55 -30z" />
    <glyph glyph-name="three.inferior" unicode="&#x2083;" 
d="M-33 -143h8q5 -63 54 -101.5t135 -38.5q99 0 160 61.5t61 160.5q0 65 -45.5 105t-128.5 40h-41l8 45h43q86 0 139 41q68 53 68 156q0 58 -35 93.5t-100 35.5q-147 0 -203 -127h-8q0 74 2 88q0 30 49 51q73 33 184 33q108 0 168 -45t60 -119q0 -181 -219 -225
q88 -12 133 -57t45 -113q0 -128 -95.5 -199.5t-252.5 -73.5q-133 0 -189 39q-26 14 -26 43q0 39 26 107z" />
    <glyph glyph-name="four.inferior" unicode="&#x2084;" 
d="M485 -303l-2 -12h-301l2 12q42 3 70 22q36 19 51 86l19 101h-392l11 51l524 543h82l-51 -254l-49 -266h133l-17 -74h-133l-18 -99q-4 -46 -4 -49q0 -29 20 -43q15 -9 55 -18zM25 -20h313q52 280 84 417q-50 -57 -397 -417z" />
    <glyph glyph-name="five.inferior" unicode="&#x2085;" 
d="M-29 -137h9q5 -64 54.5 -105t133.5 -41q103 0 164 69.5t61 176.5q0 74 -45 120t-119 46q-93 0 -176 -47l-8 6l113 397h407l-16 -98h-238q-84 2 -135 2l-67 -231q53 41 165 41q107 0 173.5 -58t66.5 -157q0 -142 -95 -229t-253 -87q-127 0 -197 43q-22 16 -22 37
q0 41 24 115z" />
    <glyph glyph-name="six.inferior" unicode="&#x2086;" 
d="M111 61q29 60 90.5 94.5t136.5 34.5q96 0 152.5 -55.5t56.5 -146.5q0 -141 -81.5 -230.5t-225.5 -89.5q-119 0 -181.5 69.5t-62.5 190.5q0 123 43.5 248.5t120.5 210.5q101 113 268 113q79 0 131 -19q35 -15 35 -43q0 -27 -25 -110h-10q-6 64 -38.5 94.5t-100.5 30.5
q-119 0 -201 -113q-67 -94 -108 -279zM100 -33q-6 -24 -6 -73q3 -177 148 -177q95 0 146.5 72t51.5 186q0 68 -40 109t-101 41q-104 0 -164 -78q-21 -24 -35 -80z" />
    <glyph glyph-name="seven.inferior" unicode="&#x2087;" 
d="M156 -340l-80 21q211 367 450 708q-61 0 -145 -2h-219q-55 0 -80 -22q-20 -17 -45 -66l-10 2q6 79 22 150q9 34 53 34h510l-8 -49q-190 -310 -448 -776z" />
    <glyph glyph-name="eight.inferior" unicode="&#x2088;" 
d="M367 119q75 -36 119 -91t44 -116q0 -115 -83.5 -179.5t-221.5 -64.5q-124 0 -191 56.5t-67 142.5q0 166 232 225q-49 29 -79 79.5t-30 104.5q0 100 74.5 162t195.5 62q108 0 166 -45.5t58 -116.5q0 -146 -217 -219zM223 76q-164 -71 -164 -203q0 -69 47.5 -112.5
t122.5 -43.5q88 0 139.5 44.5t51.5 119.5q0 112 -197 195zM340 131q162 76 162 201q0 55 -38.5 90t-105.5 35q-78 0 -120.5 -41t-42.5 -109q0 -105 145 -176z" />
    <glyph glyph-name="nine.inferior" unicode="&#x2089;" 
d="M444 102q-72 -118 -225 -118q-96 0 -153.5 56.5t-57.5 145.5q0 137 82 225.5t225 88.5q120 0 184 -66.5t64 -185.5q0 -137 -38.5 -265t-112.5 -206q-100 -109 -277 -109q-81 0 -139 27q-37 21 -37 43q0 39 25 106h8q6 -58 46.5 -92.5t106.5 -34.5q131 0 201 105
q52 81 98 280zM453 203q6 34 6 76q-3 176 -144 176q-95 0 -145 -78q-47 -77 -47 -180q0 -71 37 -111.5t98 -40.5q112 0 162 78q24 35 33 80z" />
    <glyph glyph-name="parenleft.inferior" unicode="&#x208d;" horiz-adv-x="401" 
d="M197 -457l-9 -10q-108 46 -166.5 150.5t-58.5 238.5q0 234 105 405t309 244l6 -14q-167 -81 -250 -258q-80 -177 -80 -387q0 -114 39.5 -217t104.5 -152z" />
    <glyph glyph-name="parenright.inferior" unicode="&#x208e;" horiz-adv-x="401" 
d="M23 559l8 12q110 -48 168.5 -152.5t58.5 -238.5q0 -232 -106 -403t-310 -244l-8 12q170 83 250 260q82 174 82 388q0 114 -39 215.5t-104 150.5z" />
    <glyph glyph-name="Euro" unicode="&#x20ac;" horiz-adv-x="1359" 
d="M1014 580l-15 -62h-471v-37q0 -216 84 -330t250 -114q135 0 221 65q77 57 129 140l9 -2q-3 -68 -29 -148q-15 -40 -88 -74q-99 -45 -281 -45q-222 0 -339 134t-117 372v39h-189l15 62h176q8 102 37 217h-179l15 61h182q76 235 248 369q177 133 418 133q143 0 227 -35
q51 -17 51 -63q0 -56 -55 -199h-13q-12 107 -43 158q-51 75 -194 75q-188 0 -324 -145q-108 -117 -161 -293h485l-14 -61h-488q-25 -115 -31 -217h484z" />
    <glyph glyph-name="afii61289" unicode="&#x2113;" horiz-adv-x="921" 
d="M387 555q171 101 307 252q185 200 185 389q0 113 -103 113q-92 0 -174 -119q-106 -160 -215 -635zM748 139l6 -2q0 -6 -11 -39q-16 -35 -43 -59q-87 -66 -231 -66q-121 0 -187.5 79.5t-66.5 215.5q0 64 12 158q-80 -41 -143 -70l-16 43q48 19 168 84q66 320 133 500
q68 174 161 274q109 115 258 115q82 0 132.5 -45t50.5 -125q0 -216 -221 -434q-150 -150 -375 -279q-23 -118 -23 -223q0 -211 162 -211q133 0 234 84z" />
    <glyph glyph-name="trademark" unicode="&#x2122;" horiz-adv-x="1734" 
d="M596 713l-2 -8h-262l2 8q45 9 65 32q13 13 29 93l88 444q2 6 2 25q0 18 -26 18h-52q-46 0 -73 -6q-41 -9 -93 -100h-8q3 32 17 114q3 33 32 33h539q27 0 27 -20q0 -28 -27 -127h-8q-18 96 -58 102q-28 4 -71 4h-53q-19 0 -25.5 -6t-11.5 -25l-88 -458q-11 -64 -11 -68
q0 -25 17 -35q2 -1 9 -4t18 -7.5t24 -8.5zM1014 713l-2 -8h-207l2 8q46 9 65 28q21 21 33 74l90 393q21 83 21 101t-10 28q-16 12 -56 23l2 6h162q26 0 29 -27q87 -388 106 -481q53 93 295 485q13 23 33 23h156l-2 -6q-39 -12 -56 -25q-16 -22 -24 -53l-76 -475
q-2 -8 -2 -39q0 -21 12 -33q17 -14 57 -22l-2 -8h-264l2 8q32 6 60 22q18 15 30 68l17 104q20 124 31 205l26 162q-67 -120 -328 -545h-40l-70 297l-41 178l-16 72q-40 -224 -99 -467q-4 -36 -4 -43q0 -19 10 -29q11 -11 60 -24z" />
    <glyph glyph-name="Omega" unicode="&#x2126;" horiz-adv-x="1482" 
d="M592 109l-17 -109h-440q-36 0 -47.5 9.5t-11.5 35.5q0 80 16 195h12q27 -89 74 -101q69 -16 297 -16q-128 60 -200 182.5t-72 282.5q0 174 60 337t173 279q189 189 461 189q220 0 337.5 -114t117.5 -343q0 -319 -160 -545q-129 -183 -340 -268q250 6 309 16
q59 12 115 101h12q-9 -65 -43 -193q-7 -26 -25.5 -36.5t-56.5 -10.5h-450l14 109q194 56 326 292q133 239 133 562q0 192 -74 280t-223 88q-214 0 -352 -188q-83 -115 -129 -277t-46 -327q0 -169 62.5 -285t167.5 -145z" />
    <glyph glyph-name="estimated" unicode="&#x212e;" horiz-adv-x="1761" 
d="M1698 684v-18h-1264q-8 0 -8 -11v-387q0 -22 18 -43q194 -209 476 -209q147 0 278.5 62t224.5 172h115q-111 -129 -274 -202t-346 -73q-318 0 -551 207q-230 208 -230 502q0 295 230 500q232 209 551 209q321 0 550 -209q230 -205 230 -500zM1415 717v387q0 25 -22 47
q-201 201 -473 201q-274 0 -474 -209q-20 -17 -20 -49v-377q0 -12 8 -12h969q12 0 12 12z" />
    <glyph glyph-name="onethird" unicode="&#x2153;" horiz-adv-x="1626" 
d="M289 -31l964 1426l54 -31l-965 -1427zM496 543l-2 -11h-301l2 11q30 2 61 14q39 15 55 94l95 498q12 71 12 94q0 35 -45 35q-41 0 -51 -2v16l231 60l6 -9q-3 -13 -59 -294l-76 -387q-6 -34 -6 -58q0 -33 24 -45q23 -13 54 -16zM915 172h9q5 -63 53.5 -101t134.5 -38
q99 0 160 61t61 160q0 65 -45.5 105t-128.5 40h-41l8 45h43q87 0 140 41q67 52 67 156q0 59 -35 94t-100 35q-147 0 -203 -127h-8q0 74 2 88q0 30 49 51q73 33 185 33q108 0 167.5 -45t59.5 -119q0 -181 -219 -225q88 -12 133 -57t45 -113q0 -128 -95 -199t-253 -73
q-133 0 -189 39q-26 14 -26 43q0 38 26 106z" />
    <glyph glyph-name="twothirds" unicode="&#x2154;" horiz-adv-x="1626" 
d="M401 -31l965 1426l53 -31l-964 -1427zM631 532h-522l10 50q106 67 160 110q53 40 153 127q186 165 186 334q0 150 -155 150q-75 0 -116.5 -30.5t-78.5 -105.5h-8q-2 23 -2 88q3 40 51 60q73 33 189 33t178.5 -52t62.5 -139q0 -61 -33 -127.5t-81 -122.5
q-37 -40 -127 -110q-91 -71 -127 -92l-133 -82q160 4 340 4q53 0 77 18q23 16 58 76h10q-3 -63 -35 -158q-12 -31 -57 -31zM1004 172h8q5 -63 53.5 -101t134.5 -38q99 0 160 61t61 160q0 65 -45.5 105t-128.5 40h-41l8 45h43q87 0 140 41q67 52 67 156q0 59 -35 94t-100 35
q-147 0 -203 -127h-8q0 74 2 88q0 30 49 51q73 33 185 33q108 0 167.5 -45t59.5 -119q0 -181 -219 -225q88 -12 133 -57t45 -113q0 -128 -95 -199t-253 -73q-132 0 -188 39q-27 15 -27 43q0 36 27 106z" />
    <glyph glyph-name="oneeighth" unicode="&#x215b;" horiz-adv-x="1626" 
d="M289 -31l964 1426l54 -31l-965 -1427zM494 543l-2 -11h-302l3 11q30 2 61 14q39 15 55 94l94 498q13 76 13 94q0 35 -45 35q-42 0 -52 -2v16l232 60l6 -9q-3 -13 -59 -294l-76 -387q-6 -34 -6 -58q0 -33 24 -45q23 -13 54 -16zM1292 434q75 -36 119.5 -91t44.5 -116
q0 -115 -83.5 -179t-221.5 -64q-124 0 -191 56t-67 142q0 168 231 226q-49 29 -78.5 79.5t-29.5 104.5q0 100 74.5 161.5t195.5 61.5q108 0 165.5 -45.5t57.5 -116.5q0 -146 -217 -219zM1149 391q-164 -71 -164 -203q0 -69 47.5 -112t122.5 -43q88 0 139.5 44.5t51.5 119.5
q0 111 -197 194zM1266 446q161 75 161 201q0 56 -38 90.5t-105 34.5q-78 0 -121 -40.5t-43 -108.5q0 -106 146 -177z" />
    <glyph glyph-name="threeeighths" unicode="&#x215c;" horiz-adv-x="1626" 
d="M350 -31l965 1426l53 -31l-965 -1427zM154 705h8q5 -63 54 -101.5t134 -38.5q99 0 160 61t61 160q0 65 -46 105.5t-128 40.5h-41l9 45h43q86 0 139 41q67 52 67 156q0 58 -35 93.5t-100 35.5q-147 0 -203 -127h-8q0 74 2 88q0 30 49 51q73 33 185 33q108 0 167.5 -45
t59.5 -119q0 -182 -219 -226q88 -12 133 -57t45 -113q0 -128 -95 -199t-253 -73q-132 0 -188 39q-27 15 -27 43q0 36 27 107zM1327 434q75 -36 119.5 -91t44.5 -116q0 -115 -83.5 -179t-221.5 -64q-124 0 -191 56t-67 142q0 168 231 226q-49 29 -78.5 79.5t-29.5 104.5
q0 100 74.5 161.5t195.5 61.5q108 0 165.5 -45.5t57.5 -116.5q0 -146 -217 -219zM1184 391q-164 -71 -164 -203q0 -69 47.5 -112t122.5 -43q88 0 139 44.5t51 119.5q0 112 -196 194zM1300 446q162 76 162 201q0 56 -38 90.5t-105 34.5q-78 0 -121 -40.5t-43 -108.5
q0 -106 145 -177z" />
    <glyph glyph-name="fiveeighths" unicode="&#x215d;" horiz-adv-x="1626" 
d="M350 -31l965 1426l53 -31l-965 -1427zM158 711h8q8 -65 57 -105.5t131 -40.5q103 0 164.5 69.5t61.5 176.5q0 74 -45 120t-119 46q-93 0 -176 -47l-9 6l113 397h410l-19 -98h-237q-84 2 -136 2l-67 -231q53 41 166 41q107 0 174 -58.5t67 -157.5q0 -141 -96 -228
t-254 -87q-126 0 -196 43q-23 16 -23 37q0 38 25 115zM1331 434q75 -36 119.5 -91t44.5 -116q0 -115 -83.5 -179t-221.5 -64q-124 0 -191 56t-67 142q0 168 231 226q-49 29 -78.5 79.5t-29.5 104.5q0 100 74.5 161.5t195.5 61.5q108 0 165.5 -45.5t57.5 -116.5
q0 -146 -217 -219zM1188 391q-164 -71 -164 -203q0 -69 47.5 -112t122.5 -43q88 0 139 44.5t51 119.5q0 112 -196 194zM1305 446q161 75 161 201q0 56 -38 90.5t-105 34.5q-78 0 -121 -40.5t-43 -108.5q0 -106 146 -177z" />
    <glyph glyph-name="seveneighths" unicode="&#x215e;" horiz-adv-x="1626" 
d="M258 -31l965 1426l53 -31l-965 -1427zM793 1284l-447 -776l-82 20q210 365 451 709q-62 0 -146 -2h-219q-54 0 -80 -23q-16 -14 -45 -63h-10q2 5 11 71.5t12 77.5q9 35 55 35h508zM1253 434q75 -36 119.5 -91t44.5 -116q0 -115 -83.5 -179t-221.5 -64q-124 0 -191 56
t-67 142q0 168 231 226q-49 29 -78.5 79.5t-29.5 104.5q0 100 74.5 161.5t195.5 61.5q108 0 165.5 -45.5t57.5 -116.5q0 -146 -217 -219zM1110 391q-164 -71 -164 -203q0 -69 47.5 -112t122.5 -43q88 0 139.5 44.5t51.5 119.5q0 111 -197 194zM1227 446q162 76 162 201
q0 55 -38.5 90t-105.5 35q-78 0 -121 -40.5t-43 -108.5q0 -106 146 -177z" />
    <glyph glyph-name="arrowleft" unicode="&#x2190;" horiz-adv-x="1501" 
d="M1468 717v-109q-1101 0 -1214 2q81 -70 555 -544l-74 -72l-676 670l672 669l76 -71l-553 -549q462 4 1214 4z" />
    <glyph glyph-name="arrowup" unicode="&#x2191;" horiz-adv-x="1501" 
d="M829 0h-110q0 978 4 1212l-547 -553l-74 74l672 676l670 -674l-74 -76q-435 435 -545 553q4 -446 4 -1212z" />
    <glyph glyph-name="arrowright" unicode="&#x2192;" horiz-adv-x="1501" 
d="M74 608v109q752 0 1214 -4l-555 549l76 71l674 -669l-678 -670l-74 72q451 450 555 544q-113 -2 -1212 -2z" />
    <glyph glyph-name="arrowdown" unicode="&#x2193;" horiz-adv-x="1501" 
d="M719 1380h110q0 -758 -4 -1212q130 141 545 553l74 -74l-670 -674l-672 674l74 76l547 -553q-4 234 -4 1210z" />
    <glyph glyph-name="uni2196" unicode="&#x2196;" horiz-adv-x="1501" 
d="M477 1036l864 -860l-75 -76l-856 861q2 -39 2 -777h-105v951h950v-103h-409q-107 1 -195 2t-127.5 1.5t-48.5 0.5z" />
    <glyph glyph-name="uni2197" unicode="&#x2197;" horiz-adv-x="1501" 
d="M1143 961l-858 -861l-76 76q728 734 866 860q-51 0 -106 -2q-144 0 -267 -2h-409v103h950v-951h-104q0 699 4 777z" />
    <glyph glyph-name="uni2198" unicode="&#x2198;" horiz-adv-x="1501" 
d="M1075 276l-866 861l78 77l856 -860q-2 39 -2 776h104v-952h-952v103q288 0 407 -2q106 0 195 -0.5t135 -1.5z" />
    <glyph glyph-name="uni2199" unicode="&#x2199;" horiz-adv-x="1501" 
d="M408 354l856 860l75 -77l-864 -861h103q303 5 677 5v-103h-950v952h105q0 -737 -2 -776z" />
    <glyph glyph-name="partialdiff" unicode="&#x2202;" horiz-adv-x="1200" 
d="M891 752q29 139 29 305q0 289 -244 289q-106 0 -167.5 -41t-105.5 -127h-16q0 82 4 110q9 46 76 74q99 45 240 45q358 0 358 -373q0 -195 -61 -454q-59 -262 -160 -408q-72 -104 -160 -151.5t-211 -47.5q-149 0 -236 89t-87 239q0 281 184 444q116 101 303 101
q166 0 254 -94zM870 676q-18 52 -83 83.5t-140 31.5q-128 0 -209 -93q-65 -78 -104 -195.5t-39 -228.5q0 -122 52.5 -185.5t135.5 -63.5q150 0 238 159q103 189 149 492z" />
    <glyph glyph-name="increment" unicode="&#x2206;" horiz-adv-x="1378" 
d="M940 1368l295 -1368h-1270l850 1368h125zM817 1257q-96 -170 -686 -1126h920q-171 795 -234 1126z" />
    <glyph glyph-name="product" unicode="&#x220f;" horiz-adv-x="1458" 
d="M416 -195l-2 -12h-424l2 12q84 21 119 62q30 42 59 192l203 1037q23 117 23 161.5t-25 61.5q-32 22 -90 35l2 12h1214l-2 -10q-97 -25 -123 -58q-33 -52 -59 -194l-203 -1047q-20 -103 -20 -155q0 -43 28 -62q23 -20 88 -35l-2 -12h-424l2 12q92 22 119 62q31 46 60 192
l223 1149q8 33 8 52q0 24 -15 32t-53 8h-506q-36 0 -48 -13.5t-23 -63.5l-228 -1166q-20 -103 -20 -151q0 -41 29 -64q28 -22 88 -37z" />
    <glyph glyph-name="summation" unicode="&#x2211;" horiz-adv-x="1226" 
d="M942 -207h-1012l4 21l711 768l-391 770l4 14h846q47 0 60.5 -8t13.5 -33q0 -50 -31 -162h-12q-21 103 -62 121q-43 16 -98 16q-455 5 -535 5l348 -684l-641 -689h662q87 0 131 13q55 17 109 96h12q-12 -121 -37 -201q-11 -29 -26 -38t-56 -9z" />
    <glyph glyph-name="minus" unicode="&#x2212;" horiz-adv-x="1302" 
d="M1147 608l-21 -104h-950l21 104h950z" />
    <glyph glyph-name="uni2215" unicode="&#x2215;" horiz-adv-x="182" 
d="M-389 -31l964 1426l54 -31l-965 -1427z" />
    <glyph glyph-name="uni2219" unicode="&#x2219;" horiz-adv-x="454" 
d="M324 543q0 -52 -30 -85.5t-83 -33.5q-44 0 -72 27t-28 71q0 52 31.5 86.5t84.5 34.5q42 0 69.5 -28.5t27.5 -71.5z" />
    <glyph glyph-name="radical" unicode="&#x221a;" horiz-adv-x="1298" 
d="M1386 1419l-782 -1720h-104l-240 674l-119 -49l-24 61l260 107l219 -633l698 1583z" />
    <glyph glyph-name="infinity" unicode="&#x221e;" horiz-adv-x="1374" 
d="M711 623q178 202 340 202q108 0 173.5 -71.5t65.5 -184.5q0 -125 -84 -215q-82 -88 -211 -88q-83 0 -147.5 45.5t-145.5 157.5q-107 -110 -183 -156.5t-161 -46.5q-109 0 -176 69t-67 179q0 131 84 221t221 90q86 0 147.5 -44t143.5 -158zM645 547q-71 107 -120 147.5
t-115 40.5q-85 0 -142 -58.5t-57 -148.5q0 -79 42 -124.5t116 -45.5q69 0 131 44t145 145zM764 545q65 -102 120.5 -144.5t119.5 -42.5q79 0 134.5 58t55.5 143q0 77 -40 126.5t-110 49.5q-124 0 -280 -190z" />
    <glyph glyph-name="integral" unicode="&#x222b;" horiz-adv-x="772" 
d="M-59 -205h10q15 -121 115 -121q121 0 161 217l17 109l16 98l123 836q6 47 29 160q64 313 321 313q71 0 111 -12q37 -9 37 -37q0 -36 -33 -131h-8q-21 121 -111 121q-67 0 -107 -43.5t-63 -145.5l-27 -160l-126 -874q-9 -59 -17 -111.5t-11 -73.5t-3 -22
q-26 -139 -116 -221t-212 -82q-61 0 -96 12q-35 15 -35 47t25 121z" />
    <glyph glyph-name="approxequal" unicode="&#x2248;" horiz-adv-x="1302" 
d="M252 604l-72 64q156 196 309 196q71 0 220 -94q106 -65 180 -65q57 0 107.5 36.5t113.5 122.5l76 -61q-147 -205 -305 -205q-84 0 -209 76q-140 82 -195 82q-109 0 -225 -152zM199 240l-70 63q157 195 307 195q70 0 221 -92q115 -68 181 -68q55 0 106.5 37.5t114.5 124.5
l76 -60q-143 -204 -301 -204q-91 0 -213 73q-131 82 -195 82q-109 0 -227 -151z" />
    </font>
</defs>
</svg>
