<?xml version="1.0" standalone="no"?>
<!DOCTYPE svg PUBLIC "-//W3C//DTD SVG 1.1//EN" "http://www.w3.org/Graphics/SVG/1.1/DTD/svg11.dtd" >
<svg xmlns="http://www.w3.org/2000/svg" xmlns:xlink="http://www.w3.org/1999/xlink" version="1.1">
<metadata>
Created by FontForge 20201107 at Mon Jun 16 13:58:38 2025
 By 
Copyright (c) 2018 by Dieter Hofrichter. Alle Rechte vorbehalten. |DCNT
</metadata>
<defs>
<font id="Candide-Italic" horiz-adv-x="720" >
  <font-face 
    font-family="Candide"
    font-weight="400"
    font-style="italic"
    font-stretch="normal"
    units-per-em="2048"
    panose-1="2 0 5 3 6 0 0 9 0 4"
    ascent="1538"
    descent="-510"
    x-height="975"
    cap-height="1366"
    bbox="-393 -508 2353 1976"
    underline-thickness="102"
    underline-position="-204"
    slope="-11"
    unicode-range="U+000D-FB06"
  />
<missing-glyph horiz-adv-x="999" 
d="M993 0h-987v1382h987v-1382zM164 1284l336 -504l336 504h-672zM895 1194l-338 -502l338 -504v1006zM500 602l-336 -504h672zM440 692l-336 502v-1006z" />
    <glyph glyph-name="f_f" unicode="ff" horiz-adv-x="1220" 
d="M-272 -242h14q17 -72 57 -110.5t92 -38.5q77 0 127 84q71 126 140 545l112 657h-143l8 43q101 21 125 45q25 29 51 111q43 125 105 196q94 117 276 117q82 0 125 -16q39 -14 39 -45q0 -49 -41 -152h-12q-30 152 -131 152q-107 0 -150 -107q-39 -102 -53 -199l-12 -69h311
q66 0 88 22q19 16 47 105q53 164 123 237q105 111 279 111q91 0 137 -21q39 -17 39 -47q0 -34 -41 -159h-13q-19 86 -54.5 125.5t-96.5 39.5q-94 0 -143 -73q-42 -61 -72 -275l-10 -65h217l-15 -76h-217l-88 -494q-72 -408 -151 -579q-117 -244 -346 -244q-85 0 -127 25
q-29 16 -29 49q0 52 24 129h15q34 -137 151 -137q76 0 129 84q71 120 140 544l106 623h-416l-92 -526q-44 -256 -73 -363q-37 -136 -78 -219q-54 -115 -147 -179.5t-206 -64.5q-67 0 -118 23q-29 16 -29 49q0 55 27 143z" />
    <glyph glyph-name="fi" unicode="fi" horiz-adv-x="1146" 
d="M-279 -244h13q34 -147 149 -147q82 0 135 84q71 120 140 545l112 657h-143l8 43q98 22 121 45q22 22 59 123q56 158 138 231q121 109 348 109q103 0 176 -25q39 -9 39 -45q0 -73 -41 -194h-25q-34 202 -190 202q-127 0 -197 -79q-69 -78 -96 -279l-8 -55h372
q106 28 148 28q30 0 40.5 -11.5t10.5 -39.5q0 -26 -43 -223l-84 -403q-31 -161 -31 -203q0 -53 62 -53q10 0 78 10l2 -10q-127 -80 -252 -80q-74 0 -74 77q0 33 35 205l72 328q43 194 43 256q0 25 -13 35q-8 8 -57 8h-324l-92 -520q-47 -264 -76 -369q-32 -134 -75 -219
q-54 -115 -147 -179.5t-206 -64.5q-82 0 -124 25q-29 16 -29 49q0 74 26 139z" />
    <glyph glyph-name="fl" unicode="fl" horiz-adv-x="1171" 
d="M-279 -244h13q34 -147 145 -147q86 0 139 84q67 112 140 545l112 657h-143l8 43q99 21 123 45t55 121q51 158 148 237q126 105 342 105q82 0 149 -25q98 25 138 25q26 0 34.5 -9t8.5 -38q0 -40 -39 -215l-185 -873q-26 -133 -26 -192q0 -53 57 -53q15 0 80 10l2 -10
q-127 -80 -248 -80q-76 0 -76 75q0 64 31 213l150 695q49 223 49 305q0 59 -39.5 84.5t-122.5 25.5q-121 0 -191 -73q-85 -98 -106 -264l-10 -76h235l-14 -76h-236l-92 -524q-47 -265 -76 -369q-32 -127 -75 -215q-54 -115 -147 -179.5t-206 -64.5q-82 0 -124 25
q-29 16 -29 49q0 74 26 139z" />
    <glyph glyph-name="f_f_i" unicode="ffi" horiz-adv-x="1736" 
d="M-272 -242h14q17 -72 57 -110.5t92 -38.5q77 0 127 84q71 126 140 545l112 657h-143l8 43q101 21 125 45q25 25 53 111q48 132 103 196q94 117 276 117q82 0 125 -16q39 -14 39 -45q0 -49 -41 -152h-12q-30 152 -131 152q-110 0 -150 -107q-30 -88 -51 -197l-12 -71h309
q66 0 88 22q24 24 47 101q51 159 141 243q121 109 349 109q103 0 176 -25q39 -9 39 -45q0 -73 -41 -194h-25q-34 202 -190 202q-127 0 -197 -79q-66 -76 -96 -279l-8 -55h372q93 22 146 22q31 0 41 -10.5t10 -38.5q0 -36 -41 -223l-84 -399q-31 -158 -31 -203q0 -53 62 -53
q10 0 78 10l2 -10q-127 -80 -252 -80q-74 0 -74 77q0 33 35 205l69 326q46 203 46 258q0 28 -15 37q-12 6 -55 6h-324l-88 -494q-72 -408 -151 -579q-117 -244 -348 -244q-83 0 -125 25q-29 16 -29 51q0 50 24 127h15q34 -137 151 -137q76 0 129 84q71 120 140 544l106 623
h-416l-92 -528q-74 -422 -151 -580q-54 -115 -147 -179.5t-206 -64.5q-67 0 -118 23q-29 16 -29 49q0 55 27 143z" />
    <glyph glyph-name="f_f_l" unicode="ffl" horiz-adv-x="1763" 
d="M-272 -242h14q17 -72 57 -110.5t92 -38.5q78 0 125 80q72 122 142 549l112 657h-143l8 43q101 21 125 45q25 29 51 111q40 120 103 196q92 117 278 117q80 0 123 -16q41 -15 41 -45q0 -49 -41 -152h-12q-17 79 -48.5 115.5t-82.5 36.5q-112 0 -152 -107q-36 -93 -51 -199
l-10 -69h309q66 0 88 22q17 17 47 105q52 164 148 245q124 103 338 103q88 0 155 -25q89 25 137 25q26 0 34.5 -9t8.5 -38q0 -37 -38 -207l-185 -881q-26 -116 -26 -192q0 -53 57 -53q18 0 80 10l2 -10q-127 -80 -248 -80q-76 0 -76 75q0 62 31 211l149 697q50 230 50 305
q0 110 -162 110q-124 0 -191 -73q-78 -81 -106 -267l-10 -73h237l-14 -76h-238l-88 -494q-73 -420 -151 -583q-114 -240 -346 -240q-85 0 -127 25q-29 16 -29 51q0 50 24 127h15q34 -137 151 -137q80 0 127 77q69 113 142 551l106 623h-416l-92 -528q-73 -420 -153 -584
q-56 -113 -148.5 -176.5t-202.5 -63.5q-67 0 -118 23q-29 16 -29 49q0 55 27 143z" />
    <glyph glyph-name="f_b" unicode="fb" horiz-adv-x="1695" 
d="M-272 -242h12q17 -72 56 -110.5t91 -38.5q81 0 131 84q71 126 140 545l110 657h-141l8 43q99 21 123 45q24 27 55 121q52 155 148 239q127 103 340 103q82 0 149 -25q86 25 137 25q26 0 34.5 -9t8.5 -36q0 -49 -38 -205q-74 -342 -117 -516q74 144 194 233q122 88 232 88
q104 0 149 -57.5t45 -198.5q0 -146 -61 -329q-57 -180 -162 -291q-144 -150 -350 -150q-190 0 -358 76q26 50 34 92q47 199 70 310l109 516q51 224 51 311q0 104 -162 104q-121 0 -191 -73q-76 -85 -106 -262l-12 -76h237l-14 -76h-236l-92 -526q-70 -417 -151 -584
q-54 -115 -147 -179.5t-206 -64.5q-67 0 -118 23q-29 16 -29 49q0 55 27 143zM868 111q0 -28 33 -45q48 -23 135 -23q129 0 215 121q61 82 111 268q49 186 49 293q0 92 -28 128t-85 36q-77 0 -172 -80t-151 -207q-22 -50 -47 -166l-43 -198q-17 -94 -17 -127z" />
    <glyph glyph-name="f_f_b" unicode="ffb" horiz-adv-x="2281" 
d="M1460 111q0 -28 33 -45q48 -23 135 -23q129 0 215 121q61 82 111 268q49 186 49 293q0 92 -28 128t-85 36q-77 0 -172 -80t-151 -207q-22 -50 -47 -166l-43 -198q-17 -94 -17 -127zM-272 -242h12q17 -72 57.5 -110.5t93.5 -38.5q77 0 127 84q71 126 140 545l112 657h-143
l8 43q101 21 125 45q25 29 51 111q43 125 105 196q94 117 276 117q82 0 125 -16q39 -14 39 -45q0 -49 -41 -152h-12q-35 152 -131 152q-107 0 -150 -107q-39 -102 -53 -199l-10 -69h309q66 0 88 22q17 17 47 105q51 163 150 243q126 105 342 105q86 0 147 -25q103 25 137 25
q26 0 34.5 -9t8.5 -36q0 -47 -36 -197q-78 -365 -119 -524q74 145 196 233t230 88q105 0 149.5 -57.5t44.5 -198.5q0 -146 -61 -329q-57 -180 -162 -291q-144 -150 -350 -150q-188 0 -359 76q24 46 37 92q23 84 68 310l110 516q50 227 50 307q0 108 -162 108
q-122 0 -189 -73q-80 -86 -106 -262l-12 -78h237l-14 -76h-238l-88 -494q-72 -408 -151 -579q-117 -244 -348 -244q-83 0 -125 25q-29 16 -29 51q0 50 24 127h13q34 -137 153 -137q76 0 129 84q71 120 140 544l106 623h-416l-92 -528q-74 -422 -151 -580
q-54 -115 -147 -179.5t-206 -64.5q-67 0 -118 23q-29 16 -29 49q0 55 27 143z" />
    <glyph glyph-name="f_f_h" unicode="ffh" horiz-adv-x="2285" 
d="M-272 -242h12q17 -72 57.5 -110.5t93.5 -38.5q77 0 127 84q71 126 140 545l112 657h-143l8 43q101 21 125 45q25 29 51 111q43 125 105 196q94 117 276 117q82 0 125 -16q39 -14 39 -45q0 -49 -41 -152h-12q-17 82 -47 117t-84 35q-107 0 -150 -107q-39 -102 -53 -199
l-10 -69h309q66 0 88 22q17 17 47 105q51 163 150 243q126 105 342 105q86 0 147 -25q103 25 135 25q27 0 36 -8.5t9 -34.5q0 -31 -34 -195l-58 -252l-63 -276q63 129 188 225t244 96q80 0 114.5 -31.5t34.5 -111.5q0 -75 -104 -549q-29 -148 -29 -192q0 -51 66 -51
q15 0 73 10l3 -10q-130 -80 -250 -80q-72 0 -72 73q0 43 35 209q104 453 104 535q0 47 -18 66.5t-62 19.5q-71 0 -159 -70q-92 -73 -133 -143q-43 -70 -70 -193l-105 -483h-163l206 971q50 233 50 305q0 108 -162 108q-122 0 -189 -73q-87 -90 -108 -264l-10 -76h235
l-14 -76h-236l-88 -494q-72 -408 -151 -579q-117 -244 -348 -244q-83 0 -125 25q-29 16 -29 51q0 50 24 127h13q34 -137 153 -137q76 0 129 84q71 120 140 544l106 623h-416l-92 -528q-74 -422 -151 -580q-54 -115 -147 -179.5t-206 -64.5q-67 0 -118 23q-29 16 -29 49
q0 55 27 143z" />
    <glyph glyph-name="f_f_j" unicode="ffj" horiz-adv-x="1714" 
d="M-272 -242h12q17 -72 57.5 -110.5t93.5 -38.5q77 0 127 84q71 126 140 545l112 657h-143l8 43q101 21 125 45q25 29 51 111q43 125 105 196q94 117 276 117q82 0 125 -16q39 -14 39 -45q0 -49 -41 -152h-12q-30 152 -131 152q-107 0 -150 -107q-39 -102 -53 -199l-10 -69
h309q66 0 88 22q19 16 47 105q52 161 141 241q119 107 349 107q103 0 176 -25q39 -9 39 -45q0 -73 -41 -194h-25q-34 202 -190 202q-127 0 -197 -79q-66 -76 -96 -279l-8 -55h368q99 22 148 22q31 0 42 -11t11 -38q0 -20 -21 -131q-38 -201 -53 -270l-45 -236
q-83 -444 -182 -557q-113 -137 -291 -137q-50 0 -90 16q-33 17 -33 52q3 51 27 131h12q21 -129 121 -129q76 0 117 59q62 94 143 526l61 320q41 217 41 260q0 29 -16 39q-8 8 -57 8h-318l-90 -500q-74 -427 -149 -579q-117 -244 -351 -244q-82 0 -124 25q-29 16 -29 51
q0 48 26 127h13q34 -137 151 -137q76 0 129 83q64 98 140 545l108 629h-416l-92 -528q-74 -422 -151 -580q-54 -115 -147 -179.5t-206 -64.5q-67 0 -118 23q-29 16 -29 49q0 55 27 143z" />
    <glyph glyph-name="f_f_k" unicode="ffk" horiz-adv-x="2220" 
d="M-272 -242h14q17 -72 57 -110.5t92 -38.5q77 0 127 84q71 126 140 545l112 657h-143l8 43q101 21 125 45q25 29 51 111q43 125 105 196q94 117 276 117q82 0 125 -16q39 -14 39 -45q0 -49 -41 -152h-12q-30 152 -131 152q-107 0 -150 -107q-39 -102 -53 -199l-10 -69h309
q66 0 88 22q17 17 47 105q51 163 150 243q126 105 342 105q86 0 147 -25q103 25 135 25q29 0 37 -8.5t8 -38.5q0 -56 -39 -213l-122 -514q46 116 159 223q112 106 250 106q82 0 131 -43t49 -127q0 -111 -91.5 -200t-268.5 -144q96 -193 174 -323q38 -58 66 -80
q29 -29 67 -29q27 0 64 13l4 -9q-41 -34 -102.5 -60t-112.5 -26q-78 0 -125 86q-50 87 -187 390q-76 -15 -118 -17l-95 -432h-163l208 971q50 242 50 311q0 102 -162 102q-122 0 -189 -73q-87 -90 -108 -264l-10 -76h235l-14 -76h-236l-88 -494q-72 -408 -151 -579
q-117 -244 -348 -244q-83 0 -125 25q-29 16 -29 51q0 50 24 127h15q34 -137 151 -137q76 0 129 84q71 120 140 544l106 623h-416l-92 -528q-74 -422 -151 -580q-54 -115 -147 -179.5t-206 -64.5q-67 0 -118 23q-29 16 -29 49q0 55 27 143zM1540 537l-14 -68q225 25 345 116
t120 212q0 48 -28.5 75t-72.5 27q-108 0 -217 -121q-105 -117 -133 -241z" />
    <glyph glyph-name="f_h" unicode="fh" horiz-adv-x="1693" 
d="M-270 -242h12q17 -73 55 -111t90 -38q81 0 131 84q67 119 140 545l112 657h-143l8 43q99 21 123 45t55 121q55 162 148 237q126 105 342 105q80 0 147 -25q103 25 137 25q28 0 35.5 -8t7.5 -35q0 -39 -36 -207l-58 -252l-59 -264q63 129 188 225t242 96q80 0 114.5 -31.5
t34.5 -111.5t-102 -549q-29 -148 -29 -192q0 -51 64 -51q18 0 76 10l2 -10q-133 -80 -250 -80q-72 0 -72 73q0 43 35 209q104 453 104 535q0 45 -18 65.5t-61 20.5q-72 0 -160 -70q-86 -66 -133 -143q-49 -80 -72 -193l-102 -483h-166l207 973q49 223 49 305q0 106 -162 106
q-121 0 -188 -73q-88 -91 -109 -264l-10 -76h235l-14 -76h-236l-92 -524q-47 -265 -76 -369q-32 -127 -75 -215q-56 -113 -149.5 -178.5t-203.5 -65.5q-72 0 -116 23q-29 16 -29 49q0 67 27 143z" />
    <glyph glyph-name="f_j" unicode="fj" horiz-adv-x="1124" 
d="M-279 -244h13q34 -147 149 -147q82 0 135 84q71 120 140 545l112 657h-143l8 43q98 22 121 45q22 22 59 123q56 158 138 231q121 109 348 109q103 0 176 -25q39 -9 39 -45q0 -73 -41 -194h-25q-34 202 -190 202q-127 0 -197 -79q-69 -78 -96 -279l-8 -55h368
q99 22 150 22q31 0 42 -11t11 -38q0 -25 -20 -131q-31 -165 -54 -270l-45 -236q-83 -444 -182 -557q-113 -137 -291 -137q-50 0 -90 16q-33 17 -33 52q3 51 27 131h12q21 -129 121 -129q76 0 117 59q62 94 143 526l62 322q41 217 41 258q0 29 -17 39q-8 8 -57 8h-320
l-92 -520q-47 -264 -76 -369q-32 -134 -75 -219q-54 -115 -147 -179.5t-206 -64.5q-82 0 -124 25q-29 16 -29 49q0 74 26 139z" />
    <glyph glyph-name="f_k" unicode="fk" horiz-adv-x="1628" 
d="M-272 -242h14q17 -73 55 -111t90 -38q81 0 131 84q67 119 140 545l112 657h-143l8 43q99 21 123 45t55 121q55 162 148 237q126 105 342 105q82 0 149 -25q98 25 135 25q26 0 34.5 -9t8.5 -38q0 -45 -40 -221l-121 -512q47 119 159 225q113 110 250 110q83 0 132 -43
t49 -127q0 -111 -92 -200t-269 -144q96 -193 174 -323q38 -58 66 -80q29 -29 67 -29q27 0 64 13l4 -9q-41 -34 -102.5 -60t-112.5 -26q-78 0 -125 86q-45 78 -186 390q-76 -15 -119 -17l-94 -432h-164l209 973q49 229 49 307q0 104 -162 104q-121 0 -188 -73
q-88 -91 -109 -264l-10 -76h237l-14 -76h-238l-92 -524q-47 -265 -76 -369q-32 -127 -75 -215q-54 -115 -147 -179.5t-206 -64.5q-67 0 -118 23q-29 16 -29 49q0 55 27 143zM948 535l-14 -66q225 25 345 116t120 212q0 48 -28.5 75t-72.5 27q-108 0 -217 -121
q-105 -117 -133 -243z" />
    <glyph glyph-name=".notdef" horiz-adv-x="999" 
d="M993 0h-987v1382h987v-1382zM164 1284l336 -504l336 504h-672zM895 1194l-338 -502l338 -504v1006zM500 602l-336 -504h672zM440 692l-336 502v-1006z" />
    <glyph glyph-name=".null" horiz-adv-x="0" 
 />
    <glyph glyph-name="nonmarkingreturn" horiz-adv-x="682" 
 />
    <glyph glyph-name="NULL" horiz-adv-x="0" 
 />
    <glyph glyph-name="NULL" horiz-adv-x="0" 
 />
    <glyph glyph-name="CR" unicode="&#xd;" horiz-adv-x="413" 
 />
    <glyph glyph-name="space" unicode=" " horiz-adv-x="471" 
 />
    <glyph glyph-name="exclam" unicode="!" horiz-adv-x="567" 
d="M567 1221l-243 -783h-27q45 381 70 799q5 86 32 126t95 40q94 0 94 -86q0 -31 -21 -96zM383 111q0 -57 -34 -94t-93 -37q-50 0 -80.5 29.5t-30.5 80.5q0 58 36.5 96.5t92.5 38.5q49 0 79 -31.5t30 -82.5z" />
    <glyph glyph-name="quotedbl" unicode="&#x22;" horiz-adv-x="702" 
d="M397 1311l-153 -412h-27q8 70 14 256q9 175 9 178q5 67 25 97t71 30q82 0 82 -71q0 -26 -21 -78zM725 1311l-154 -412h-26q6 80 12 248q6 177 8 186q4 41 10.5 65.5t28.5 43t60 18.5q81 0 81 -71q0 -28 -20 -78z" />
    <glyph glyph-name="numbersign" unicode="#" horiz-adv-x="1269" 
d="M420 416l-144 -451h-67l143 451h-241l22 139h262l84 262h-248l23 139h268l133 416h68l-133 -416h305l131 416h68l-131 -416h231l-23 -139h-253l-82 -262h235l-22 -139h-258l-142 -451h-67l141 451h-303zM850 817h-303l-84 -262h305z" />
    <glyph glyph-name="dollar" unicode="$" horiz-adv-x="1073" 
d="M475 -14l-35 -179h-67l33 177q-172 3 -267 59q-57 34 -57 78q0 104 24 203h17q23 -121 101.5 -193t195.5 -80l104 541l-92 57q-196 120 -196 309q0 163 114 266t322 122l39 200h67l-39 -196h15q144 0 225 -37q53 -24 53 -60q0 -77 -47 -198h-16q-19 110 -76 164.5
t-166 60.5l-100 -514l49 -31q134 -82 195 -165.5t61 -186.5q0 -173 -121.5 -279t-335.5 -118zM756 313q0 73 -36 124.5t-134 117.5l-99 -504q62 5 110.5 24.5t77.5 45.5t48 60t26 66t7 66zM397 1032q0 -71 36.5 -119.5t131.5 -109.5l94 477q-122 -11 -192 -77t-70 -171z" />
    <glyph glyph-name="percent" unicode="%" horiz-adv-x="1689" 
d="M766 1104q0 -135 -43 -277q-45 -144 -131 -225q-92 -86 -215 -86q-240 0 -240 256q0 309 160 477q91 99 231 99q238 0 238 -244zM629 1139q0 84 -22 119.5t-85 35.5q-78 0 -131 -84q-51 -80 -86 -223q-33 -132 -33 -246q0 -88 26 -128t87 -40q66 0 125 89q48 76 82 229
q37 154 37 248zM354 -29l965 1428l59 -39l-960 -1423zM1610 571q0 -134 -43 -276q-45 -144 -131 -225q-92 -86 -215 -86q-240 0 -240 256q0 309 160 477q91 98 231 98q238 0 238 -244zM1475 606q0 82 -24 119t-87 37q-76 0 -129 -84q-50 -78 -86 -223q-33 -132 -33 -246
q0 -88 26 -128t87 -40q67 0 125 88q46 73 84 231q37 154 37 246z" />
    <glyph glyph-name="ampersand" unicode="&#x26;" horiz-adv-x="1443" 
d="M1364 127l8 -10q-141 -144 -248 -144q-101 0 -239 144q-176 -144 -404 -144q-219 0 -327 111q-109 112 -109 262q0 293 371 416q-80 154 -80 270q0 170 112.5 265.5t305.5 95.5q139 0 229 -35q55 -21 55 -64q0 -72 -43 -202h-12q-24 121 -75.5 174t-155.5 53
q-111 0 -177.5 -63.5t-66.5 -178.5q0 -106 84 -250q49 -90 178 -274q124 -174 203 -256q47 47 100 145q49 91 49 144q0 45 -39 65q-39 22 -88 33l2 10h402l-2 -10q-39 -9 -76 -31q-37 -27 -86 -108q-128 -210 -211 -297q129 -156 231 -156q56 0 109 35zM834 170
q-82 88 -213 270q-112 156 -177 273q-204 -94 -204 -303q0 -148 90 -239t237 -91q154 0 267 90z" />
    <glyph glyph-name="quotesingle" unicode="'" horiz-adv-x="374" 
d="M397 1311l-153 -412h-27q6 80 12 248q6 171 9 186q5 63 24.5 95t73.5 32q82 0 82 -71q0 -26 -21 -78z" />
    <glyph glyph-name="parenleft" unicode="(" horiz-adv-x="600" 
d="M422 -240l-8 -12q-175 79 -264 256q-89 180 -89 397q0 369 170 662q168 291 504 414l10 -17q-183 -95 -307 -274q-229 -332 -229 -805q0 -193 55 -367t158 -254z" />
    <glyph glyph-name="parenright" unicode=")" horiz-adv-x="600" 
d="M195 1466l8 11q172 -77 262 -251.5t90 -402.5q0 -366 -170 -659q-167 -288 -506 -416l-8 16q182 92 305 273q232 335 232 807q0 189 -56 366t-157 256z" />
    <glyph glyph-name="asterisk" unicode="*" horiz-adv-x="790" 
d="M477 780q-67 0 -67 60q0 20 10 47q2 5 39 86l49 106q-45 -26 -98 -67q-46 -33 -61.5 -43.5t-35 -19.5t-34.5 -9q-31 0 -49.5 18.5t-18.5 45.5q0 57 76 69l88 10q57 7 127 19q-84 40 -109 51l-78 35q-61 30 -61 72q0 19 11.5 37t30 28t46.5 -0.5t55 -46.5l47 -66
q52 -73 70 -94q0 39 -8 94q0 6 -3 53t-3 64q0 88 65 88q70 0 70 -59q0 -21 -12 -51q-8 -19 -41 -91t-47 -104q72 47 104 72q59 44 83 57.5t48 13.5q30 0 47 -18t17 -45q0 -35 -20.5 -51.5t-70.5 -24.5l-81 -10l-117 -12q71 -34 170 -80q76 -37 76 -78q0 -31 -19.5 -51.5
t-48.5 -20.5q-41 0 -80 54q-90 128 -115 157q2 -31 13 -117q8 -60 8 -94q0 -40 -19.5 -62t-52.5 -22z" />
    <glyph glyph-name="plus" unicode="+" horiz-adv-x="1302" 
d="M717 496l-84 -428h-119l84 428h-416l23 118h416l84 426h118l-82 -426h416l-24 -118h-416z" />
    <glyph glyph-name="comma" unicode="," horiz-adv-x="475" 
d="M-59 -297l-9 16q222 133 222 244q0 41 -41 76q-45 36 -45 90q0 49 32 78t86 29q60 0 92.5 -38t32.5 -106q0 -226 -370 -389z" />
    <glyph glyph-name="hyphen" unicode="-" horiz-adv-x="688" 
d="M598 606l-29 -139h-483l27 139h485z" />
    <glyph glyph-name="period" unicode="." horiz-adv-x="483" 
d="M281 109q0 -57 -35 -94.5t-94 -37.5q-50 0 -80.5 30.5t-30.5 80.5q0 58 35 96.5t94 38.5q51 0 81 -31.5t30 -82.5z" />
    <glyph glyph-name="slash" unicode="/" horiz-adv-x="735" 
d="M870 1475l-895 -1629l-71 35l895 1626z" />
    <glyph glyph-name="zero" unicode="0" horiz-adv-x="1103" 
d="M1073 952q0 -213 -72 -458q-70 -235 -210 -375q-146 -146 -342 -146t-282.5 107t-86.5 319q0 227 63 439q63 213 201 360q149 162 365 162q197 0 280.5 -102t83.5 -306zM885 1014q0 146 -41.5 211t-149.5 65q-122 0 -221 -141q-89 -132 -147 -375q-56 -245 -56 -432
q0 -153 44.5 -225t148.5 -72q131 0 219 143q85 133 143 394q60 274 60 432z" />
    <glyph glyph-name="one" unicode="1" horiz-adv-x="1103" 
d="M696 12l-2 -12h-501l2 12q54 8 104 31q63 34 90 158l160 827q20 106 20 162q0 53 -69 53q-72 0 -90 -2v23l385 102l10 -10q-51 -198 -103 -496l-127 -647q-12 -59 -12 -96q0 -47 41 -74q26 -16 92 -31z" />
    <glyph glyph-name="two" unicode="2" horiz-adv-x="1103" 
d="M811 0h-834l17 88q304 211 422 311q383 328 383 633q0 121 -62 188.5t-184 67.5q-109 0 -180 -55t-129 -172h-13q-2 39 -2 149q0 62 84 97q136 53 301 53q186 0 283.5 -87t97.5 -233q0 -80 -30 -159q-31 -85 -72 -149.5t-115 -135.5q-76 -76 -131 -125q-67 -56 -158 -119
l-149 -102l-147 -94q174 4 536 8q77 0 117 29q29 25 98 120h12q-27 -178 -53 -262q-11 -30 -28.5 -40.5t-63.5 -10.5z" />
    <glyph glyph-name="three" unicode="3" horiz-adv-x="1103" 
d="M70 291h14q11 -108 86.5 -177t204.5 -69q158 0 252 107q98 107 98 272q0 112 -67.5 178t-194.5 66h-66l15 69h75q134 0 218 72q104 88 104 260q0 94 -58 156.5t-159 62.5q-117 0 -189 -49.5t-127 -167.5h-14q0 9 -1 47t-1 45q0 66 14.5 93t69.5 49q125 55 303 55
q169 0 261.5 -77t92.5 -202q0 -152 -91.5 -246.5t-260.5 -127.5q138 -20 208.5 -93t70.5 -186q0 -217 -162 -336q-158 -119 -401 -119q-211 0 -302 64q-36 23 -36 69q0 57 43 185z" />
    <glyph glyph-name="four" unicode="4" horiz-adv-x="1103" 
d="M903 12l-2 -12h-483l2 12q66 12 110 39q55 34 76 144l31 170h-614l20 96l836 899h141l-88 -426l-84 -438h209l-27 -131h-211l-28 -160q-13 -70 -13 -86q0 -47 37 -74q6 -4 88 -33zM168 496h498q91 490 135 692q-63 -75 -633 -692z" />
    <glyph glyph-name="five" unicode="5" horiz-adv-x="1103" 
d="M88 293h14q5 -107 85 -177.5t212 -70.5q166 0 257.5 115t91.5 305q0 127 -64.5 196.5t-183.5 69.5q-156 0 -277 -74l-10 9l184 667h647l-32 -164h-371q-137 2 -223 2l-105 -372q83 59 260 59q169 0 274 -97.5t105 -262.5q0 -237 -153 -381t-408 -144q-198 0 -311 72
q-37 21 -37 59q0 67 45 189z" />
    <glyph glyph-name="six" unicode="6" horiz-adv-x="1103" 
d="M328 629q47 92 145 148.5t211 56.5q154 0 240 -84t86 -236q0 -228 -136 -385q-132 -156 -366 -156q-191 0 -288 112.5t-97 317.5q0 195 74 414t204 361q170 182 426 182q134 0 207 -33q62 -27 62 -72q0 -57 -47 -178h-13q-18 110 -66.5 160.5t-148.5 50.5
q-201 0 -323 -186q-103 -151 -170 -473zM307 483q-12 -74 -12 -145q0 -293 223 -293q149 0 225 137q78 141 78 322q0 106 -57 169.5t-154 63.5q-160 0 -254 -131q-37 -57 -49 -123z" />
    <glyph glyph-name="seven" unicode="7" horiz-adv-x="1103" 
d="M1106 1249l-725 -1288l-137 29q296 543 733 1184q-41 0 -238 -3h-340q-82 0 -123 -38q-19 -14 -77 -113h-15q18 176 39 258q7 32 26 43.5t62 11.5h807z" />
    <glyph glyph-name="eight" unicode="8" horiz-adv-x="1103" 
d="M721 725q118 -61 186 -152t68 -194q0 -191 -141 -299q-140 -107 -357 -107q-198 0 -303 97q-100 97 -100 231q0 278 364 379q-77 49 -121.5 131.5t-44.5 171.5q0 170 123 272q123 105 320 105q173 0 261.5 -75t88.5 -198q0 -127 -81 -214t-263 -148zM479 651
q-132 -58 -193 -139.5t-61 -204.5q0 -121 77 -191.5t196 -70.5q134 0 212 74.5t78 204.5q0 92 -71 171.5t-238 155.5zM676 754q254 126 254 325q0 96 -58.5 153.5t-162.5 57.5q-126 0 -195.5 -68.5t-69.5 -181.5q0 -165 232 -286z" />
    <glyph glyph-name="nine" unicode="9" horiz-adv-x="1103" 
d="M831 700q-54 -94 -146.5 -146t-207.5 -52q-151 0 -238 90t-87 239q0 228 131 377q134 152 364 152q190 0 289.5 -110.5t99.5 -309.5q0 -208 -65 -430q-64 -217 -195 -360q-160 -177 -432 -177q-123 0 -219 41q-62 27 -62 76q0 65 43 178h15q27 -223 241 -223
q196 0 310 184q91 143 159 471zM866 991q0 137 -54.5 218t-166.5 81q-148 0 -227 -137q-80 -139 -80 -305q0 -111 58 -176.5t153 -65.5q164 0 252 125q65 95 65 260z" />
    <glyph glyph-name="colon" unicode=":" horiz-adv-x="526" 
d="M319 109q0 -57 -34 -94.5t-92 -37.5q-51 0 -82 30.5t-31 80.5q0 58 36 96.5t95 38.5q49 0 78.5 -31.5t29.5 -82.5zM465 852q0 -57 -34 -94t-93 -37q-50 0 -80.5 30.5t-30.5 79.5q0 59 35 97.5t94 38.5q49 0 79 -32t30 -83z" />
    <glyph glyph-name="semicolon" unicode=";" horiz-adv-x="526" 
d="M465 852q0 -57 -34 -94t-93 -37q-50 0 -80.5 30.5t-30.5 79.5q0 59 35 97.5t94 38.5q49 0 79 -32t30 -83zM-18 -297l-9 16q222 133 222 244q0 41 -41 76q-45 36 -45 90q0 49 32 78t86 29q60 0 92.5 -38t32.5 -106q0 -226 -370 -389z" />
    <glyph glyph-name="less" unicode="&#x3c;" horiz-adv-x="1302" 
d="M999 193l-24 -130l-754 402l23 115l911 407l-29 -141l-761 -330z" />
    <glyph glyph-name="equal" unicode="=" horiz-adv-x="1302" 
d="M1087 401l-22 -118h-942l24 118h940zM1161 772l-22 -119h-942l24 119h940z" />
    <glyph glyph-name="greater" unicode="&#x3e;" horiz-adv-x="1302" 
d="M309 858l27 129l751 -399l-22 -119l-911 -406l28 144l762 328z" />
    <glyph glyph-name="question" unicode="?" horiz-adv-x="823" 
d="M338 436h-29q2 32 4.5 67t3.5 50.5t2 19.5q9 85 43 136q32 48 150 137q162 119 162 293q0 192 -191 192q-96 0 -147 -44.5t-88 -147.5h-15q0 121 3 151q6 60 69 80q101 37 232 37q335 0 335 -262q0 -124 -71 -207t-219 -172q-113 -69 -154 -104q-42 -39 -59 -89
q-23 -63 -31 -137zM426 109q0 -57 -34.5 -94.5t-92.5 -37.5q-49 0 -80 30.5t-31 80.5q0 58 35 96.5t94 38.5q49 0 79 -31.5t30 -82.5z" />
    <glyph glyph-name="at" unicode="@" horiz-adv-x="1521" 
d="M1257 -31l23 -43q-238 -143 -524 -143q-294 0 -465 168q-170 167 -170 440q0 327 217 557q218 232 559 232q258 0 401.5 -136t143.5 -382q0 -121 -58 -246q-56 -127 -145 -207q-118 -103 -233 -103t-115 121q0 71 29 160q-71 -127 -163 -201.5t-167 -74.5
q-148 0 -148 170q0 123 68 274q72 154 176 236q100 81 240 81q143 0 245 -45q-41 -58 -141 -446q-20 -76 -20 -145q0 -64 51 -64q69 0 149 86q68 74 112 185.5t44 213.5q0 218 -124 343.5t-353 125.5q-282 0 -481 -211q-197 -209 -197 -520q0 -260 154 -405
q158 -146 415 -146q145 0 254 31q103 29 223 94zM1024 770q0 30 -35 39q-52 10 -86 10q-75 0 -143 -59q-73 -67 -131 -203q-58 -137 -58 -250q0 -102 70 -102q73 0 155 83t142 218q34 72 76 213q10 30 10 51z" />
    <glyph glyph-name="A" unicode="A" horiz-adv-x="1320" 
d="M276 12l-2 -12h-372l2 12q52 13 90 43q45 39 90 115l508 891l176 305h121l22 -156q23 -131 23 -137l133 -868q18 -119 49 -150q25 -28 92 -43l-2 -12h-458l2 12q47 11 94 35q39 20 39 74q0 43 -6 86l-41 278h-480l-159 -290q-43 -76 -43 -111q0 -33 32 -47zM395 557h430
l-90 623q-58 -116 -340 -623z" />
    <glyph glyph-name="B" unicode="B" horiz-adv-x="1228" 
d="M508 0h-483l4 12q81 15 116 56q32 36 58 174l176 897q14 77 14 121q0 40 -23.5 58t-93.5 36l3 12h446q182 0 287 -45q64 -30 101.5 -88t37.5 -131q0 -305 -352 -381q150 -13 229.5 -91t79.5 -202q0 -293 -272 -387q-121 -41 -328 -41zM582 1219l-93 -469h103q94 0 174 24
q89 29 139.5 111t50.5 192q0 138 -86 185q-64 34 -157 34h-58q-34 0 -48 -15.5t-25 -61.5zM569 680h-96l-94 -494q-8 -41 -8 -69q0 -38 39 -41q58 -4 141 -4q159 0 255.5 96.5t96.5 261.5q0 83 -40.5 144.5t-114.5 84.5q-68 21 -179 21z" />
    <glyph glyph-name="C" unicode="C" horiz-adv-x="1269" 
d="M1118 260l12 -2q-14 -109 -38 -168q-14 -35 -95 -70q-115 -47 -329 -47q-272 0 -413.5 143t-141.5 400q0 243 94.5 443.5t275.5 316.5q188 117 461 117q173 0 285 -47q53 -21 53 -60q0 -61 -53 -215h-12q-17 116 -62 170q-71 80 -229 80q-216 0 -371 -137
q-120 -108 -178 -283q-60 -180 -60 -364q0 -229 108 -360.5t306 -131.5q147 0 250 68q75 51 137 147z" />
    <glyph glyph-name="D" unicode="D" horiz-adv-x="1462" 
d="M565 0h-540l2 12q110 27 133 78q20 38 53 207l149 764q29 161 29 194q0 40 -24.5 60t-92.5 39l2 12h510q312 0 451 -109q164 -126 164 -385q0 -152 -29.5 -281.5t-94 -239.5t-161 -187t-237 -120.5t-314.5 -43.5zM563 1128l-170 -860q-19 -92 -16.5 -133t31.5 -51
q53 -16 167 -16q299 0 461 223q164 226 164 573q0 180 -76 287q-108 147 -350 147h-45q-95 0 -121 -26q-17 -14 -45 -144z" />
    <glyph glyph-name="E" unicode="E" horiz-adv-x="1120" 
d="M885 0h-860l2 12q83 18 114 49q35 35 62 175l174 903q14 71 14 116q0 37 -22 57t-95 42l2 12h799q45 0 45 -35q0 -48 -55 -225h-14q-15 145 -74 172q-28 14 -137 14h-189q-35 0 -49 -15.5t-22 -57.5l-93 -471h156q114 0 166 10q50 10 78 38t59 97h15l-72 -363h-15
q-5 66 -25.5 97t-74.5 41q-36 8 -143 8h-156l-92 -477q-10 -72 -10 -80q0 -43 84 -43h217q130 0 194 43q68 49 136 162h12q-16 -110 -47 -228q-7 -34 -24 -43.5t-60 -9.5z" />
    <glyph glyph-name="F" unicode="F" horiz-adv-x="1044" 
d="M526 12l-2 -12h-499l2 12q91 21 125 64q22 22 57 194l166 856q16 94 16 127q0 32 -12 47q-24 30 -105 54l2 12h795q45 0 45 -35q0 -45 -55 -225h-14q-15 155 -76 176q-33 10 -142 10h-178q-36 0 -49.5 -15t-21.5 -58l-95 -488h156q92 0 160 10q51 10 81 38.5t62 94.5h12
l-69 -362h-15q-2 63 -25 94t-79 41q-40 6 -141 6h-158l-72 -381q-20 -103 -20 -153q0 -37 31.5 -59.5t117.5 -47.5z" />
    <glyph glyph-name="G" unicode="G" horiz-adv-x="1415" 
d="M1141 25q-16 -1 -121 -17q-80 -12 -84 -12q-151 -23 -250 -23q-276 0 -424.5 145.5t-148.5 405.5q0 227 92 422q96 197 268 303q199 144 498 144q188 0 303 -47q55 -21 55 -64q0 -50 -53 -211h-12q-8 73 -39 133q-67 117 -271 117q-239 0 -405 -152q-113 -98 -171.5 -262
t-58.5 -364q0 -228 108.5 -362t311.5 -134q139 0 195 41q28 22 37 86l33 166q18 99 18 149q0 44 -27.5 68t-97.5 43l2 10h447l-3 -10q-65 -26 -94 -55q-27 -35 -61 -201l-27 -139q-20 -94 -20 -180z" />
    <glyph glyph-name="H" unicode="H" horiz-adv-x="1536" 
d="M1313 12l-2 -12h-465l2 12q88 21 123 62q22 28 57 192l82 410h-637l-80 -412q-20 -100 -20 -162q0 -34 27 -53t92 -37l-3 -12h-464l4 12q86 21 121 62q22 28 57 192l164 834q20 100 20 160q0 40 -23.5 58t-91.5 36l5 12h460l-4 -12q-79 -17 -116 -54q-32 -32 -62 -194
l-72 -358h637l70 352q20 100 20 160q0 40 -23.5 58t-92.5 36l4 12h461l-4 -12q-81 -18 -117 -54q-33 -38 -62 -194l-166 -842q-18 -94 -18 -162q0 -34 26 -53t91 -37z" />
    <glyph glyph-name="I" unicode="I" horiz-adv-x="718" 
d="M492 12l-3 -12h-464l4 12q86 21 121 62q22 28 57 192l164 836q20 100 20 158q0 40 -23.5 58t-91.5 36l3 12h462l-2 -12q-82 -18 -118 -54q-33 -33 -62 -192l-166 -844q-20 -100 -20 -162q0 -34 27 -53t92 -37z" />
    <glyph glyph-name="J" unicode="J" horiz-adv-x="708" 
d="M-162 -88h12q15 -158 132 -158q74 0 114 64q38 62 105 407l172 879q18 92 18 151q0 40 -27 60.5t-96 38.5l2 12h469l-2 -12q-89 -20 -116 -54q-33 -45 -62 -192q-1 -7 -8 -44t-17 -90t-22 -112l-78 -411l-45 -240q-24 -134 -57 -236q-27 -83 -80 -151
q-112 -148 -301 -148q-80 0 -109 13q-35 12 -35 47q0 52 31 176z" />
    <glyph glyph-name="K" unicode="K" horiz-adv-x="1353" 
d="M489 12l-4 -12h-460l4 12q80 15 123 64q20 26 55 190l164 836q20 97 20 158q0 37 -25.5 56.5t-91.5 37.5l2 12h465l-4 -12q-83 -18 -119 -54q-32 -40 -61 -192l-88 -438q185 156 477 436q123 120 123 172q0 49 -108 76l2 12h423l-2 -12q-60 -17 -112 -56
q-66 -49 -144 -122l-411 -385q314 -599 413 -709q40 -43 119 -66l-2 -12q-73 -8 -205 -8q-67 0 -102 21t-70 83q-49 84 -96 174l-115 230l-88 176q-97 -82 -116 -96l-62 -320q-20 -97 -20 -160q0 -58 116 -92z" />
    <glyph glyph-name="L" unicode="L" horiz-adv-x="1105" 
d="M895 0h-870l2 12q86 21 114 49q33 33 60 175l168 849q22 123 22 172q0 40 -26.5 61.5t-88.5 35.5l5 12h462l-4 -12q-95 -21 -118 -54q-30 -37 -64 -206l-174 -893q-10 -52 -10 -80q0 -25 17.5 -35t64.5 -10h225q128 0 190 45q63 41 136 164h12q-10 -100 -43 -228
q-10 -36 -25.5 -46.5t-54.5 -10.5z" />
    <glyph glyph-name="M" unicode="M" horiz-adv-x="1748" 
d="M391 12l-2 -12h-379l2 12q76 15 117 56q35 35 64 176l204 891q19 87 19 122q0 39 -31 64q-26 20 -88 33l4 12h291q31 0 41.5 -8.5t15.5 -34.5q175 -913 189 -1010q116 218 573 1012q18 27 29 34t37 7h288l-2 -12q-81 -21 -104 -47q-33 -33 -45 -125l-150 -946
q-14 -88 -14 -125q0 -46 39 -66q37 -20 86 -33l-2 -12h-473l2 12q56 12 102 43q40 27 62 144q41 213 159 1003l-643 -1134h-92q-161 888 -203 1136l-75 -344q-80 -359 -133 -631q-17 -94 -17 -116q0 -67 129 -101z" />
    <glyph glyph-name="N" unicode="N" horiz-adv-x="1482" 
d="M408 12l-2 -12h-381l4 12q90 24 125 68q27 37 57 194l154 785q28 156 28 194q0 42 -26 62q-32 25 -88 39l2 12h274q38 0 53 -27q420 -891 492 -1067l153 826q19 111 19 153t-28.5 65.5t-94.5 37.5l2 12h367l-2 -12q-88 -21 -119 -66q-29 -43 -58 -196l-219 -1106h-96
l-555 1231l-168 -938q-22 -119 -22 -168q0 -35 28.5 -57t100.5 -42z" />
    <glyph glyph-name="O" unicode="O" horiz-adv-x="1388" 
d="M1329 909q0 -205 -72 -424q-72 -216 -213 -348q-176 -164 -444 -164q-231 0 -359 140.5t-128 386.5q0 199 69 397q71 204 211 332q86 78 205.5 121t243.5 43q239 0 363 -123t124 -361zM1124 948q0 375 -293 375q-182 0 -307 -152q-96 -116 -153 -321q-56 -201 -56 -395
q0 -410 301 -410q181 0 302 154q99 132 151 348q55 216 55 401z" />
    <glyph glyph-name="P" unicode="P" horiz-adv-x="1206" 
d="M504 12l-2 -12h-475l2 12q91 22 121 62q21 24 57 186l166 846q18 99 18 151q0 42 -24 60q-28 25 -93 37l2 12h416q172 0 275 -23q229 -58 229 -290q0 -233 -160 -351q-155 -116 -415 -116q-91 0 -164 6l-66 -332q-18 -99 -18 -149q0 -38 28 -60q23 -20 103 -39zM582 1214
l-111 -552q77 -5 143 -5q178 0 279.5 105t101.5 285q0 167 -108 219q-58 30 -182 30h-48q-35 0 -51 -18.5t-24 -63.5z" />
    <glyph glyph-name="Q" unicode="Q" horiz-adv-x="1388" 
d="M1329 909q0 -205 -72 -424q-72 -216 -213 -348q-96 -90 -229 -131q191 -146 285 -196q123 -60 233 -60q43 0 88 10l6 -12q-129 -102 -256 -102q-125 0 -237 65q-104 62 -342 262q-230 1 -354.5 140.5t-124.5 386.5q0 199 69 397q71 204 211 332q86 78 205.5 121t243.5 43
q239 0 363 -123t124 -361zM1124 948q0 375 -293 375q-182 0 -307 -152q-96 -116 -153 -321q-56 -201 -56 -395q0 -410 301 -410q181 0 302 154q99 132 151 348q55 216 55 401z" />
    <glyph glyph-name="R" unicode="R" horiz-adv-x="1329" 
d="M494 12l-5 -12h-464l2 12q93 21 123 62q26 26 57 186l166 852q18 92 18 150q0 37 -27.5 57.5t-89.5 34.5l5 12h432q187 0 288 -43q85 -35 132 -106.5t47 -163.5q0 -154 -93.5 -259t-265.5 -153q45 -33 82 -104l37 -80q3 -6 12 -26t19 -43.5t20 -47.5l62 -137
q74 -160 204 -187l-4 -12q-85 -12 -159 -12q-113 0 -158 39q-46 40 -105 194q-111 288 -127 322q-19 37 -41 48t-73 11h-127l-68 -340q-20 -97 -20 -155q0 -24 12 -45q16 -33 109 -54zM580 1214l-105 -538h107q135 0 202 33q94 43 143.5 136t49.5 214q0 51 -20.5 103
t-51.5 81q-59 53 -192 53h-56q-36 0 -51 -17t-26 -65z" />
    <glyph glyph-name="S" unicode="S" horiz-adv-x="1032" 
d="M92 324h14q29 -134 115 -206.5t219 -72.5q170 0 242 84t72 195q0 75 -53.5 137t-190.5 147l-88 54q-199 126 -199 325q0 189 135.5 297.5t384.5 108.5q145 0 230 -39q51 -20 51 -64q0 -69 -43 -194h-12q-19 120 -82 173.5t-189 53.5q-141 0 -226 -71.5t-85 -188.5
q0 -75 41 -129.5t147 -120.5l91 -57q138 -87 199 -171.5t61 -193.5q0 -193 -136.5 -305.5t-373.5 -112.5q-176 0 -287 60q-59 35 -59 86q0 67 22 205z" />
    <glyph glyph-name="T" unicode="T" horiz-adv-x="1193" 
d="M733 12l-2 -12h-475l4 12q98 22 125 62q25 31 59 198l183 926q6 44 6 57q0 37 -49 37h-99q-87 0 -139 -14q-83 -18 -178 -197h-14q21 178 36 238q6 29 15.5 38t34.5 9h1001q49 0 49 -29q0 -71 -55 -254h-12q-24 175 -109 197q-56 12 -131 12h-102q-32 0 -45 -12t-19 -49
l-186 -971q-21 -102 -21 -158q0 -33 28.5 -52t94.5 -38z" />
    <glyph glyph-name="U" unicode="U" horiz-adv-x="1486" 
d="M260 1354l2 12h467l-2 -12q-100 -21 -127 -62q-26 -33 -47 -147l-117 -588q-26 -139 -26 -252q0 -123 77 -188.5t218 -65.5q221 0 331 137q70 88 123 353l109 549q18 102 18 159q0 48 -27 69.5t-98 35.5l4 12h381l-2 -12q-65 -11 -104 -43q-49 -39 -78 -199l-105 -545
q-38 -195 -65 -268q-38 -101 -90 -158q-152 -168 -455 -168q-183 0 -305 78q-119 79 -119 258q0 100 31 269l108 552q15 76 15 127q0 37 -26 58t-91 39z" />
    <glyph glyph-name="V" unicode="V" horiz-adv-x="1290" 
d="M602 0h-121q-21 145 -47 301l-137 860q-18 121 -51 154q-27 24 -86 39l4 12h457l-3 -12q-61 -16 -100 -33q-41 -24 -41 -76q0 -34 8 -86q118 -763 146 -962q1 2 502 958q41 84 41 119q0 40 -35 55q-28 16 -82 25l2 12h375l-2 -12q-37 -8 -89 -41q-43 -28 -106 -144
l-467 -856l-82 -149q-70 -129 -86 -164z" />
    <glyph glyph-name="W" unicode="W" horiz-adv-x="1923" 
d="M1061 1110l-547 -1110h-125q-1 48 -20 317l-60 850q-9 122 -41 150q-28 25 -90 37l2 12h455l-2 -12q-81 -27 -101 -39q-32 -19 -32 -94q0 -16 10 -224q5 -112 25 -426q15 -236 18 -340l534 1102h117l166 -1104q59 148 393 934q27 61 27 105q0 36 -33 53q-42 21 -94 33
l2 12h379l-2 -12q-19 -3 -74 -31q-30 -13 -51.5 -43.5t-52.5 -103.5l-381 -865l-56 -125q-59 -129 -81 -186h-125l-86 594q-10 74 -20.5 144t-19.5 129.5t-12 78.5z" />
    <glyph glyph-name="X" unicode="X" horiz-adv-x="1327" 
d="M319 12l-2 -12h-397l2 12q42 11 86 37q63 40 111 94l479 531l-250 530q-44 90 -69 115q-32 25 -72 35l2 12h453l-3 -12q-56 -13 -92 -29q-32 -17 -32 -41q0 -39 26 -90l187 -397l296 350q86 100 86 139q0 23 -18 35q-37 21 -88 33l2 12h371l-2 -12q-41 -12 -82 -41
q-44 -33 -94 -94l-439 -486l283 -588q35 -68 72 -100q21 -21 71 -33l-2 -12h-473l4 12q54 14 94 33q63 24 11 131q-140 300 -207 436q-9 -13 -70 -80l-153 -178l-121 -139q-82 -94 -82 -135q0 -21 20 -35q41 -21 92 -33z" />
    <glyph glyph-name="Y" unicode="Y" horiz-adv-x="1234" 
d="M752 12l-4 -12h-472l3 12q89 17 124 62q34 53 60 196l57 318l-235 600q-42 105 -74 133q-27 21 -70 33l2 12h447l-2 -12q-81 -19 -94 -27q-33 -14 -33 -45q0 -25 28 -98q153 -398 195 -518q44 69 371 510q53 77 53 110q0 29 -33 43q-37 19 -76 25l2 12h377l-2 -12
q-51 -12 -104 -51q-29 -21 -103 -113l-452 -582l-66 -344q-20 -97 -20 -155q0 -35 26.5 -56t94.5 -41z" />
    <glyph glyph-name="Z" unicode="Z" horiz-adv-x="1193" 
d="M985 0h-1063l2 12l1063 1280q-345 0 -545 -4q-106 -3 -143 -55q-35 -41 -82 -137h-14q10 104 28 215q6 31 18 43t38 12h985l-2 -12l-1067 -1280q141 0 579 4q118 0 170 43q57 48 127 170h15q-22 -156 -47 -252q-9 -39 -62 -39z" />
    <glyph glyph-name="bracketleft" unicode="[" horiz-adv-x="606" 
d="M369 -219l-2 -12h-344l325 1677h344l-2 -12q-146 -26 -186 -66q-25 -25 -41 -111l-250 -1290q-12 -64 -12 -84q0 -45 41 -63q30 -13 127 -39z" />
    <glyph glyph-name="backslash" unicode="\" horiz-adv-x="837" 
d="M246 1505l495 -1630l-75 -22l-496 1630z" />
    <glyph glyph-name="bracketright" unicode="]" horiz-adv-x="606" 
d="M242 1434l2 12h344l-328 -1677h-342l2 12q152 27 186 67q26 26 41 109l250 1292q11 64 11 82q0 46 -39 66q-31 17 -127 37z" />
    <glyph glyph-name="asciicircum" unicode="^" horiz-adv-x="1302" 
d="M883 1307l198 -709h-133l-157 576l-377 -576h-146l480 709h135z" />
    <glyph glyph-name="underscore" unicode="_" horiz-adv-x="1021" 
d="M-104 -252l18 105h1020l-19 -105h-1019z" />
    <glyph glyph-name="grave" unicode="`" horiz-adv-x="411" 
d="M201 1444l170 -301l-9 -8l-270 208q-55 43 -55 89q0 32 23.5 52.5t56.5 20.5q47 0 84 -61z" />
    <glyph glyph-name="a" unicode="a" horiz-adv-x="1089" 
d="M977 76l4 -10q-118 -80 -242 -80q-82 0 -82 96q0 109 35 258q-84 -175 -200 -271t-230 -96q-97 0 -145.5 58t-48.5 200q0 171 79 369q83 200 209 295q135 106 332 106q198 0 313 -53q-57 -72 -149 -596q-21 -117 -21 -207q0 -79 62 -79q39 0 84 10zM791 881q0 26 -19 39
q-30 18 -115 18q-112 0 -188 -76q-86 -80 -154 -274q-67 -192 -67 -330q0 -168 104 -168q76 0 166 78t150 207q49 110 112 424q11 64 11 82z" />
    <glyph glyph-name="b" unicode="b" horiz-adv-x="1095" 
d="M63 51q30 68 37 92q28 112 68 306l113 532q51 239 51 319q0 43 -15 58q-17 24 -84 33v10q134 45 256 45q43 0 43 -37q0 -32 -40 -211q-115 -513 -115 -514q74 145 192 229q119 88 230 88q106 0 151 -57.5t45 -198.5q0 -145 -59 -331q-57 -178 -162 -289
q-144 -150 -352 -150q-191 0 -359 76zM270 111q0 -28 33 -45q48 -23 137 -23q127 0 213 121q63 84 109 268q49 183 49 293q0 92 -28 128t-85 36q-80 0 -174 -82q-92 -77 -149 -207q-24 -56 -45 -166l-41 -196q-19 -87 -19 -127z" />
    <glyph glyph-name="c" unicode="c" horiz-adv-x="845" 
d="M715 184l8 -2q-2 -12 -14 -49q-9 -26 -50 -61q-120 -99 -294 -99q-141 0 -217 81t-76 233q0 173 61 338q61 164 164 260q125 116 317 116q109 0 168 -26q39 -17 39 -47q0 -65 -45 -170h-12q-23 95 -65.5 137.5t-110.5 42.5q-100 0 -172 -84q-70 -79 -119 -236
q-45 -145 -45 -299q0 -123 54 -181t147 -58q152 0 262 104z" />
    <glyph glyph-name="d" unicode="d" horiz-adv-x="1112" 
d="M979 76l2 -10q-124 -80 -236 -80q-47 0 -66.5 23t-19.5 77q0 97 31 240q-85 -167 -202 -260t-224 -93q-99 0 -147.5 55t-48.5 195q0 175 79 373q80 203 205 297q138 108 324 108q91 0 141 -20l14 61q39 166 39 252q0 50 -14 64q-21 21 -84 33v10q139 45 256 45
q43 0 43 -41q0 -33 -43 -215l-119 -549q-75 -343 -75 -491q0 -84 59 -84q41 0 86 10zM672 375q37 81 108 422q11 64 11 82q0 26 -23 36q-44 23 -117 23q-104 0 -182 -78q-88 -91 -154 -278q-67 -186 -67 -328q0 -164 102 -164q78 0 170.5 78t151.5 207z" />
    <glyph glyph-name="e" unicode="e" horiz-adv-x="886" 
d="M721 184l6 -4q0 -15 -6 -30q-16 -37 -35 -56q-50 -54 -132 -87.5t-181 -33.5q-297 0 -297 326q0 146 57 305q59 164 152 262q132 135 321 135q236 0 236 -184q0 -111 -115 -217q-62 -57 -183 -92.5t-278 -36.5q-12 -59 -12 -147q0 -244 207 -244q147 0 260 104zM274 512
q206 18 316 103.5t110 213.5q0 115 -114 115q-103 0 -185.5 -113t-126.5 -319z" />
    <glyph glyph-name="f" unicode="f" horiz-adv-x="630" 
d="M-272 -242h12q17 -72 57.5 -110.5t93.5 -38.5q77 0 127 84q70 122 140 547l112 655h-143l8 43q99 21 123 45q35 35 55 115q48 161 121 237q105 111 279 111q93 0 139 -19q39 -17 39 -47q0 -34 -41 -159h-12q-40 163 -156 163q-93 0 -139 -75q-37 -59 -72 -262l-12 -76
h217l-14 -76h-218l-92 -526q-76 -429 -151 -586q-54 -115 -147 -177.5t-206 -62.5q-67 0 -118 23q-29 16 -29 49q0 55 27 143z" />
    <glyph glyph-name="g" unicode="g" horiz-adv-x="1095" 
d="M16 -190h15q12 -100 73 -153.5t156 -53.5q117 0 195 78q86 86 157 362q2 7 82 303q-89 -173 -206.5 -266.5t-225.5 -93.5q-96 0 -145 57.5t-49 198.5q0 166 79 358q85 199 205 291q140 110 342 110q209 0 303 -55q-24 -35 -59 -174l-27 -123l-30 -149l-27 -129
q-76 -364 -123 -494q-45 -128 -131 -211q-132 -123 -367 -123q-149 0 -217 45q-34 21 -34 56q0 51 34 166zM793 881q0 21 -23 37q-33 20 -115 20q-104 0 -188 -78q-84 -81 -154 -270q-67 -189 -67 -324q0 -166 106 -166q73 0 168 80q92 77 152 213q33 69 110 408
q11 57 11 80z" />
    <glyph glyph-name="h" unicode="h" horiz-adv-x="1110" 
d="M348 481l-102 -481h-166l207 975q55 259 55 321q0 39 -10 56q-17 30 -90 39v10q142 45 258 45q26 0 34.5 -9t8.5 -34q0 -28 -37 -195l-60 -258l-61 -270q64 130 190 225q128 96 244 96q80 0 116 -31.5t36 -111.5q0 -75 -103 -549q-28 -143 -28 -192q0 -51 63 -51
q18 0 76 10l2 -10q-130 -80 -250 -80q-72 0 -72 73q0 43 35 209q105 458 105 535q0 48 -18.5 67t-67.5 19q-72 0 -160 -70q-92 -73 -133 -143q-44 -69 -72 -195z" />
    <glyph glyph-name="i" unicode="i" horiz-adv-x="569" 
d="M436 76l2 -10q-127 -80 -252 -80q-75 0 -75 77q0 57 36 207l72 326q43 194 43 262q0 37 -14 51q-19 22 -90 25v10q131 49 239 49q32 0 44 -11t12 -38q0 -12 -41 -223l-84 -399q-31 -143 -31 -203q0 -53 59 -53q12 0 80 10zM518 1341q0 -61 -32.5 -99t-88.5 -38
q-45 0 -71.5 27t-26.5 74q0 55 34 92t89 37q44 0 70 -25.5t26 -67.5z" />
    <glyph glyph-name="j" unicode="j" horiz-adv-x="548" 
d="M-238 -244h15q12 -71 45 -107t78 -36q66 0 106 61q50 78 121 461l86 453q43 231 43 266q0 39 -14 53q-21 21 -90 27v10q140 51 247 51q29 0 39.5 -11.5t10.5 -39.5q0 -21 -150 -780q-46 -230 -76 -328q-28 -95 -78 -158q-109 -133 -284 -133q-51 0 -94 19q-33 17 -33 51
q4 56 28 141zM504 1341q0 -61 -32.5 -99t-88.5 -38q-45 0 -71.5 27t-26.5 74q0 55 34 92t89 37q44 0 70 -25.5t26 -67.5z" />
    <glyph glyph-name="k" unicode="k" horiz-adv-x="1036" 
d="M338 432l-92 -432h-166l211 975q53 245 53 321q0 48 -16 64q-19 19 -84 31v10q142 45 260 45q23 0 31 -10t8 -37q0 -41 -39 -207q-60 -267 -125 -526q46 115 162 225t250 110q82 0 130 -43t48 -127q0 -110 -91.5 -199.5t-267.5 -144.5q85 -174 172 -323q20 -34 66 -80
q37 -29 67 -29q27 0 64 13l6 -9q-39 -34 -101.5 -60t-115.5 -26q-76 0 -123 86q-64 112 -188 390q-76 -15 -119 -17zM358 528l-12 -59q225 25 344 115.5t119 212.5q0 48 -28 75t-72 27q-108 0 -215 -125q-109 -125 -136 -246z" />
    <glyph glyph-name="l" unicode="l" horiz-adv-x="575" 
d="M422 76l2 -10q-130 -80 -246 -80q-74 0 -74 77q0 70 33 211l146 695q59 281 59 331q0 46 -14 60q-22 22 -84 31v10q131 45 245 45q29 0 38.5 -9t9.5 -36q0 -26 -43 -217l-185 -869q-26 -121 -26 -196q0 -53 59 -53q12 0 80 10z" />
    <glyph glyph-name="m" unicode="m" horiz-adv-x="1642" 
d="M354 485l-104 -485h-164l113 526q47 214 47 318q0 41 -13 61q-20 26 -94 29v10q110 49 238 49q33 0 44 -13t11 -54q0 -73 -55 -271q61 134 182 240t244 106q77 0 110 -31t33 -114q0 -69 -31 -199q58 137 179 240q122 104 247 104q78 0 115 -33t37 -112q0 -82 -100 -539
q-31 -149 -31 -198q0 -53 61 -53q20 0 78 10l2 -10q-53 -35 -126 -57.5t-120 -22.5q-73 0 -73 73q0 72 33 215q106 452 106 521q0 50 -18 72t-62 22q-75 0 -158 -68q-76 -64 -124 -147q-44 -72 -68 -187l-107 -487h-163l114 518q47 214 47 281q0 50 -17.5 70t-64.5 20
q-66 0 -153 -72q-85 -73 -131 -151q-37 -60 -64 -181z" />
    <glyph glyph-name="n" unicode="n" horiz-adv-x="1126" 
d="M354 483l-102 -483h-166l115 530q45 205 45 320q0 41 -13 57q-21 24 -94 27v10q110 49 236 49q33 0 46 -12.5t13 -44.5q0 -90 -53 -279q58 134 188 240q128 104 256 104q77 0 115 -30q37 -30 37 -113q0 -78 -103 -549q-28 -131 -28 -186q0 -57 61 -57q20 0 78 10l2 -10
q-127 -80 -250 -80q-71 0 -71 73q0 48 34 209q105 463 105 533q0 48 -18 68t-64 20q-73 0 -164 -70q-92 -73 -133 -143q-49 -80 -72 -193z" />
    <glyph glyph-name="o" unicode="o" horiz-adv-x="1011" 
d="M915 664q0 -145 -43 -293q-40 -147 -127 -250q-127 -148 -337 -148q-158 0 -244 97t-86 270q0 157 49 301t145 240q126 120 320 120q156 0 239.5 -84.5t83.5 -252.5zM748 723q0 114 -37.5 167.5t-132.5 53.5q-108 0 -181 -104q-67 -93 -110 -262q-41 -172 -41 -306
q0 -241 172 -241q138 0 209 139q52 101 86 268q35 172 35 285z" />
    <glyph glyph-name="p" unicode="p" horiz-adv-x="1101" 
d="M338 -440l-2 -11h-457l2 11q76 24 103 61q31 42 57 164l143 678q60 292 60 389q0 38 -17 55q-21 24 -90 27v10q110 49 236 49q32 0 44.5 -12.5t12.5 -44.5q0 -68 -49 -277q72 156 192 248q122 94 234 94q107 0 154 -58.5t47 -197.5q0 -143 -62 -329q-60 -181 -164 -291
q-144 -150 -360 -150q-93 0 -172 29l-43 -211q-17 -80 -17 -127q0 -40 29 -60.5t119 -45.5zM281 113q0 -31 26 -45q49 -27 139 -27q132 0 220 123q58 82 108 270q49 186 49 293q0 162 -114 162q-75 0 -170 -80q-91 -79 -150 -209q-22 -53 -47 -164l-41 -196
q-20 -84 -20 -127z" />
    <glyph glyph-name="q" unicode="q" horiz-adv-x="1095" 
d="M821 -440l-2 -11h-463l2 11q106 28 140 65q38 41 67 176l115 508q-89 -169 -200 -252.5t-216 -83.5q-99 0 -147.5 57.5t-48.5 200.5q0 169 79 367q84 203 207 295q138 108 324 108q184 0 315 -55q-30 -59 -67 -237l-195 -893q-20 -97 -20 -158q0 -35 23 -54.5t87 -43.5z
M791 881q0 27 -23 37q-38 18 -111 18q-108 0 -188 -74q-83 -80 -154 -274q-67 -192 -67 -322q0 -94 23 -135t81 -41q79 0 169.5 83.5t156.5 217.5q32 68 102 408q11 57 11 82z" />
    <glyph glyph-name="r" unicode="r" horiz-adv-x="817" 
d="M344 432l-92 -432h-166l115 530q43 197 43 320q0 32 -13 55q-20 26 -96 29v10q113 49 238 49q34 0 46.5 -12t12.5 -49q0 -87 -51 -281q56 140 147 244q93 106 203 106q37 0 60 -10q22 -13 22 -41q0 -46 -51 -168h-12q-18 88 -93 88q-122 0 -235 -204q-48 -86 -78 -234z
" />
    <glyph glyph-name="s" unicode="s" horiz-adv-x="776" 
d="M55 248l13 -2q15 -94 90 -154q72 -57 155 -57q101 0 155 44t54 128q0 55 -35 100t-129 105l-63 41q-156 102 -156 245q0 140 108.5 221.5t289.5 81.5q104 0 163 -26q39 -14 39 -51q0 -55 -43 -162h-12q-27 178 -197 178q-97 0 -152.5 -48.5t-55.5 -127.5q0 -86 129 -172
l63 -41q112 -76 155.5 -132.5t43.5 -133.5q0 -145 -102.5 -228.5t-274.5 -83.5q-161 0 -232 56q-30 21 -30 57q0 60 24 162z" />
    <glyph glyph-name="t" unicode="t" horiz-adv-x="641" 
d="M522 100l6 -2q0 -19 -14 -41q-9 -14 -41 -37q-67 -43 -160 -43q-184 0 -184 175q0 51 25 170l118 573h-139l12 43q72 12 127 37q43 22 72 76q30 51 70 163h88l-47 -243h215l-15 -76h-217l-121 -582q-22 -110 -22 -178q0 -38 24.5 -60t63.5 -22q68 0 139 47z" />
    <glyph glyph-name="u" unicode="u" horiz-adv-x="1128" 
d="M1001 76l3 -10q-115 -80 -232 -80q-48 0 -67 23.5t-19 78.5q0 75 35 236q-66 -136 -195 -246q-126 -105 -252 -105q-78 0 -115.5 35.5t-37.5 120.5q0 73 98 514q33 138 33 213q0 39 -23 55q-26 20 -86 23v10q101 49 236 49q36 0 49.5 -11.5t13.5 -43.5q0 -44 -43 -229
q-106 -455 -106 -531q0 -45 18 -64.5t64 -19.5q71 0 153 64t136 143q57 82 84 213l96 461h162l-109 -524q-43 -203 -43 -297q0 -86 68 -86q43 0 79 8z" />
    <glyph glyph-name="v" unicode="v" horiz-adv-x="968" 
d="M311 -6h-102l-4 801q0 91 -27 112t-88 27l-2 10q57 27 123 41q82 16 117 16t41 -45q2 -20 2 -114q-3 -644 -6 -715q198 249 305 408q74 110 115.5 207.5t41.5 144.5q0 37 -39 43q-3 1 -7.5 1.5t-12.5 1t-14 1.5l-27 4l-2 8q101 55 193 55q45 0 45 -36q0 -107 -162 -357
q-130 -200 -490 -614z" />
    <glyph glyph-name="w" unicode="w" horiz-adv-x="1419" 
d="M322 -6h-107l-10 794q0 101 -27 119q-27 21 -88 27v10q57 27 123 41q82 16 117 16q38 0 41 -47q4 -86 4 -114q0 -32 -6 -342q-1 -88 -2 -170.5t-1.5 -123t-0.5 -50.5q323 610 383 747h112q30 -251 84 -766q143 251 209 375q62 117 99.5 223.5t37.5 151.5q0 36 -43 45
q-44 8 -65 8l-2 8q101 55 190 55q43 0 43 -36q0 -105 -164 -410q-82 -153 -344 -561h-104l-76 706q-150 -299 -403 -706z" />
    <glyph glyph-name="x" unicode="x" horiz-adv-x="999" 
d="M-29 168h13q15 -70 59 -70q49 0 115 66q106 112 258 317l-99 267q-46 129 -75 151q-18 12 -52 12q-26 0 -53 -6l-4 10q54 33 120 59.5t105 26.5q36 0 54 -34q36 -81 63 -162l80 -227q124 181 229 305q93 118 181 118q61 0 61 -51q0 -31 -29 -133h-14q-21 62 -65 62
q-48 0 -113 -74q-121 -137 -230 -279l101 -266q51 -135 82 -174q25 -31 61 -31q22 0 64 11l4 -11q-44 -32 -111 -57t-110 -25q-53 0 -80 56q-18 35 -58 141l-92 256q-153 -232 -258 -352q-85 -101 -166 -101q-65 0 -65 52q0 55 24 143z" />
    <glyph glyph-name="y" unicode="y" horiz-adv-x="966" 
d="M-178 -295h14q21 -94 78 -94q64 0 135 65q108 94 266 312h-77l-39 805q-3 95 -33 118q-24 17 -88 23l-2 10q57 27 123 41q82 16 116 16q36 0 45 -45l7 -69q2 -33 2 -51q9 -147 24 -762q185 288 291 473q133 233 133 330q0 40 -43 49l-61 10l-2 10q47 24 110 39
q69 16 97 16q45 0 45 -36q0 -84 -152 -342q-115 -198 -414 -631q-179 -255 -288 -367q-124 -133 -230 -133q-82 0 -82 64q0 57 25 149z" />
    <glyph glyph-name="z" unicode="z" horiz-adv-x="909" 
d="M37 49l-47 -47l-41 35q319 344 786 801q-327 0 -420 -7q-90 -3 -125 -57q-24 -40 -32 -69l-15 2q6 123 21 206q6 38 19.5 50t54.5 12h684l4 -17l-776 -784q103 -3 294 -24q194 -21 209 -21q55 0 90.5 26.5t65.5 94.5l12 -2q-15 -158 -43 -225q-18 -46 -108 -46
q-44 0 -291 35q-240 37 -342 37z" />
    <glyph glyph-name="braceleft" unicode="{" horiz-adv-x="643" 
d="M418 -223l-4 -13q-173 0 -248.5 44t-75.5 151q0 45 14 125l48 238q18 102 18 137q0 148 -135 157l4 15q107 9 156 76q44 61 75 229l39 215q30 163 119 231t309 68v-14q-127 -12 -186 -68q-58 -55 -88 -215l-49 -256q-23 -125 -84 -190.5t-176 -88.5q85 -19 123 -61
t38 -121q0 -36 -10 -104l-47 -234q-16 -88 -16 -139q0 -167 176 -182z" />
    <glyph glyph-name="bar" unicode="|" horiz-adv-x="546" 
d="M512 1485l-332 -1706h-125l332 1706h125z" />
    <glyph glyph-name="braceright" unicode="}" horiz-adv-x="643" 
d="M233 1436l5 14q170 0 246.5 -45t76.5 -152q0 -45 -14 -125l-47 -237q-19 -108 -19 -137q0 -149 135 -158l-4 -12q-107 -12 -155 -78q-45 -63 -76 -230l-39 -215q-30 -164 -119 -229q-89 -68 -309 -68v13q128 12 186 67t88 217l50 254q23 125 84 190.5t176 88.5
q-86 19 -124 61t-38 121q0 37 10 105l47 233q17 94 17 139q0 168 -177 183z" />
    <glyph glyph-name="asciitilde" unicode="~" horiz-adv-x="1302" 
d="M233 395l-79 76q164 197 313 197q75 0 221 -93q103 -65 178 -65q56 0 105 35t112 121l86 -74q-150 -203 -311 -203q-88 0 -207 72q-131 82 -194 82q-109 0 -224 -148z" />
    <glyph glyph-name="exclamdown" unicode="&#xa1;" horiz-adv-x="567" 
d="M233 551h27q-26 -196 -70 -799q-7 -87 -33 -126.5t-94 -39.5q-94 0 -94 86q0 36 21 97q148 461 243 782zM172 879q0 59 34.5 96t94.5 37q50 0 80.5 -31t30.5 -82q0 -58 -36.5 -96.5t-92.5 -38.5q-51 0 -81 32t-30 83z" />
    <glyph glyph-name="cent" unicode="&#xa2;" horiz-adv-x="1069" 
d="M559 -4l-37 -189h-65l35 187q-152 1 -238 93t-86 249q0 178 70 336.5t192 255.5q113 91 266 112l39 199h66l-37 -190h24q106 0 175 -29q36 -14 36 -43q0 -62 -45 -172h-16q-20 98 -58.5 139t-107.5 41h-20l-172 -881h26q144 0 264 105l7 -4q-2 -24 -15 -49
q-16 -31 -57 -62q-106 -86 -246 -98zM365 367q0 -203 151 -250l166 856q-74 -21 -133 -80q-80 -86 -133 -234q-51 -140 -51 -292z" />
    <glyph glyph-name="sterling" unicode="&#xa3;" horiz-adv-x="1216" 
d="M901 651l-20 -88h-301q-1 -7 -3 -16t-2 -12q-20 -146 -89 -230t-214 -145q89 0 234 2l346 6q90 3 137 41q30 21 84 106h10q-2 -30 -22 -133q-16 -84 -31 -127q-11 -32 -34.5 -43.5t-80.5 -11.5h-905l21 104q57 9 110 33q104 48 161.5 133t80.5 230l6 63h-205l21 88h188
q3 209 15 297q65 412 526 412q131 0 219 -31q45 -17 45 -63q0 -69 -49 -197h-12q-20 121 -64 170t-149 49q-140 0 -214.5 -84t-99.5 -260q-7 -65 -8 -78q-1 -35 -7 -114.5t-7 -100.5h313z" />
    <glyph glyph-name="currency" unicode="&#xa4;" horiz-adv-x="1136" 
d="M1022 307l-94 -92l-115 117q-88 -70 -219 -70q-134 0 -217 68l-119 -117l-94 96l119 119q-70 98 -70 221q0 118 70 219l-119 119l94 94l119 -114q87 69 217 69q129 0 219 -69l115 114l94 -92l-117 -117q70 -88 70 -223q0 -128 -72 -221zM858 649q0 120 -76 199
q-76 82 -188 82q-114 0 -191 -80q-75 -78 -75 -197q0 -125 75.5 -205.5t192.5 -80.5q116 0 189 79.5t73 202.5z" />
    <glyph glyph-name="yen" unicode="&#xa5;" horiz-adv-x="1296" 
d="M1071 481l-14 -67h-355l-30 -164q-17 -104 -17 -146q0 -38 26.5 -58t90.5 -34l-2 -12h-461l2 12q90 15 121 60q28 36 55 180l31 162h-325l14 67h325l21 101l-47 110h-260l16 68h217l-160 389q-40 106 -71 137q-22 19 -78 35l2 12h463l-2 -12q-44 -13 -90 -31
q-35 -15 -35 -47q0 -30 29 -106l182 -465q14 24 350 463q61 85 61 118q0 28 -34 43q-34 17 -70 25l2 12h371l-2 -12q-47 -9 -105 -55q-29 -23 -104 -115l-320 -391h258l-14 -68h-299l-74 -92l-22 -119h354z" />
    <glyph glyph-name="brokenbar" unicode="&#xa6;" horiz-adv-x="522" 
d="M504 1380l-125 -641h-143l124 641h144zM328 477l-125 -639h-144l125 639h144z" />
    <glyph glyph-name="section" unicode="&#xa7;" horiz-adv-x="1026" 
d="M61 -57h13q19 -109 82.5 -169.5t162.5 -60.5q115 0 189 65t74 175q0 107 -113 205l-209 178q-131 113 -131 239q0 121 81.5 195t217.5 80q-113 94 -113 248q0 163 127 252q128 90 314 90q121 0 194 -31q56 -24 56 -63q0 -46 -52 -183h-12q-37 205 -215 205
q-109 0 -178.5 -56t-69.5 -161q0 -104 125 -211l150 -131q93 -81 132.5 -142.5t39.5 -129.5q0 -118 -85.5 -194.5t-215.5 -78.5q127 -115 127 -250q0 -169 -127 -272q-124 -100 -316 -100q-169 0 -248 55q-41 27 -41 61q0 64 41 185zM377 481l139 -119q47 -47 96 -47
q32 0 76 23q82 46 82 139q0 77 -100 164l-135 117q-55 49 -91 49q-52 0 -104 -43q-59 -53 -59 -127q0 -72 96 -156z" />
    <glyph glyph-name="dieresis" unicode="&#xa8;" horiz-adv-x="407" 
d="M139 1298q0 -45 -30 -77.5t-76 -32.5q-38 0 -63 25t-25 63q0 51 30.5 83t77.5 32q38 0 62 -26t24 -67zM461 1298q0 -46 -29.5 -78t-75.5 -32q-38 0 -63 25t-25 63q0 51 30.5 83t78.5 32q38 0 61 -25.5t23 -67.5z" />
    <glyph glyph-name="copyright" unicode="&#xa9;" horiz-adv-x="1697" 
d="M1585 688q0 -306 -203 -512q-202 -205 -512 -205q-305 0 -510 205q-202 205 -202 512q0 309 202 514q204 207 508 207q308 0 512 -207q205 -205 205 -514zM868 1343q-274 0 -456 -188q-181 -187 -181 -467q0 -278 181 -465q180 -186 458 -186t459 184q180 186 180 467
q0 279 -182 467t-459 188zM1102 457h12q-15 -97 -27 -125q-10 -24 -51 -39q-85 -33 -205 -33q-175 0 -268.5 90.5t-93.5 253.5q0 263 170 410q124 106 338 106q114 0 176 -26q37 -15 37 -45q0 -40 -33 -146h-12q-9 67 -33 101q-37 57 -151 57q-155 0 -236 -100
q-109 -130 -109 -343q0 -303 250 -303q88 0 152 43q48 31 84 99z" />
    <glyph glyph-name="ordfeminine" unicode="&#xaa;" horiz-adv-x="700" 
d="M717 580l2 -7q-70 -49 -152 -49q-63 0 -63 64q0 57 20 147q-115 -219 -272 -219q-63 0 -94 35t-31 119q0 100 51 217q51 118 129 180q86 68 215 68q137 0 209 -35q-39 -45 -92 -350q-14 -71 -14 -129q0 -46 45 -46q1 0 7 1t17 2t23 2zM586 1057q0 14 -17 24
q-26 13 -65 13q-62 0 -107 -45q-54 -48 -98 -166q-41 -115 -41 -199q0 -92 59 -92q45 0 99 46.5t92 119.5q19 37 70 254q8 33 8 45z" />
    <glyph glyph-name="guillemotleft" unicode="&#xab;" horiz-adv-x="905" 
d="M104 559l426 350l11 -12l-314 -393l158 -408l-12 -6l-287 361q-18 27 -18 45q0 34 36 63zM477 559l426 350l10 -12l-313 -393l158 -408l-13 -6l-286 361q-19 28 -19 45q0 33 37 63z" />
    <glyph glyph-name="logicalnot" unicode="&#xac;" horiz-adv-x="1302" 
d="M1145 602l-109 -541h-118l86 422h-830l21 119h950z" />
    <glyph glyph-name="uni00AD" unicode="&#xad;" horiz-adv-x="688" 
d="M598 606l-29 -139h-483l27 139h485z" />
    <glyph glyph-name="registered" unicode="&#xae;" horiz-adv-x="1697" 
d="M1585 688q0 -306 -203 -512q-202 -205 -512 -205q-305 0 -510 205q-202 205 -202 512q0 309 202 514q204 207 508 207q308 0 512 -207q205 -205 205 -514zM868 1343q-274 0 -456 -188q-181 -187 -181 -467q0 -278 181 -465q180 -186 458 -186t459 184q180 186 180 467
q0 279 -182 467t-459 188zM782 299l-2 -8h-315l2 8q59 15 80 39q17 24 37 121l96 495q10 58 10 90q0 19 -10 29q-8 14 -64 33l5 8h282q117 0 178 -20q62 -18 95.5 -65.5t33.5 -110.5q0 -192 -229 -238q36 -11 68 -68l26 -53l31 -74l35 -79q20 -48 47 -69.5t78 -33.5l-2 -10
q-72 -10 -113 -10q-76 0 -104 28q-33 36 -64 115l-74 190q-18 35 -78 35h-77l-39 -194q-13 -73 -13 -90q0 -21 13 -37q19 -19 67 -31zM823 1010l-59 -308h70q76 0 127 23q110 58 110 197q0 70 -47 108q-37 29 -115 29h-39q-38 0 -47 -49z" />
    <glyph glyph-name="overscore" unicode="&#xaf;" horiz-adv-x="407" 
d="M465 1323l-29 -115h-495l28 115h496z" />
    <glyph glyph-name="degree" unicode="&#xb0;" horiz-adv-x="655" 
d="M176 1122q0 122 82 207q83 86 209 86q109 0 177.5 -71.5t68.5 -184.5q0 -124 -82 -209q-84 -84 -203 -84q-110 0 -181 72.5t-71 183.5zM461 1346q-86 0 -147.5 -63.5t-61.5 -158.5q0 -82 51.5 -136t130.5 -54q90 0 148.5 63.5t58.5 157.5q0 82 -50.5 136.5t-129.5 54.5z
" />
    <glyph glyph-name="plusminus" unicode="&#xb1;" horiz-adv-x="1302" 
d="M741 682l-77 -406h-123l80 406h-412l24 115h410l78 407h121l-78 -407h410l-23 -115h-410zM1051 119l-23 -119h-940l21 119h942z" />
    <glyph glyph-name="twosuperior" unicode="&#xb2;" 
d="M639 881h-526l12 53q102 69 158 110q48 34 149 125q176 162 176 334q0 66 -36 105t-107 39q-72 0 -113.5 -30.5t-81.5 -105.5h-8q-2 25 -2 86q0 45 53 66q85 33 195 33q118 0 181 -53t63 -138q0 -53 -21 -106q-12 -33 -43.5 -74.5t-49 -59.5t-58.5 -59q-34 -34 -111 -86
l-107 -69l-108 -68q152 4 336 4q53 0 78 19q22 16 57 75h10q-6 -76 -37 -168q-6 -19 -17.5 -25.5t-41.5 -6.5z" />
    <glyph glyph-name="threesuperior" unicode="&#xb3;" 
d="M172 1059h8q5 -62 55 -101.5t134 -39.5q97 0 153 60.5t56 158.5q0 63 -42.5 102t-119.5 39h-37l10 47h39q90 0 135 45q62 53 62 152q0 58 -33.5 91.5t-95.5 33.5q-140 0 -201 -131h-8q0 76 2 94q3 32 49 53q67 33 190 33q112 0 173 -45t61 -119q0 -184 -225 -227
q184 -21 184 -168q0 -127 -100 -199t-259 -74q-133 0 -192 39q-27 15 -27 41q0 42 29 115z" />
    <glyph glyph-name="acute" unicode="&#xb4;" horiz-adv-x="407" 
d="M336 1339l-316 -204l-8 8l221 295q45 63 95 63q33 0 54 -19.5t21 -51.5q0 -45 -67 -91z" />
    <glyph glyph-name="mu" unicode="&#xb5;" horiz-adv-x="1249" 
d="M307 47l-26 -153l-25 -154l-16 -111q-6 -37 -27 -49q-29 -16 -168 -16l-6 6q27 96 237 1079q33 138 33 205q0 36 -22 55q-26 20 -86 23v10q44 20 118 35q82 16 121 16q37 0 50.5 -13t13.5 -48q0 -42 -45 -221q-105 -445 -105 -539q0 -82 90 -82q69 0 146 62
q78 66 129 137q54 78 80 207l102 479h164l-111 -529q-41 -202 -41 -294q0 -84 68 -84q44 0 80 8l2 -10q-44 -31 -113 -55.5t-119 -24.5q-48 0 -67 23.5t-19 78.5q0 101 29 223q-66 -152 -162.5 -237.5t-201.5 -85.5q-88 0 -103 59z" />
    <glyph glyph-name="paragraph" unicode="&#xb6;" horiz-adv-x="1112" 
d="M379 -223l-4 14q101 37 166 117q57 72 110 346l43 231q-212 5 -331 98t-119 263q0 174 90 303t254 178q122 35 332 35h196l-4 -14q-98 -24 -125 -58q-33 -41 -53 -151l-170 -879q-6 -35 -13 -68.5t-12.5 -59.5t-7.5 -36q-28 -119 -88 -190q-83 -94 -264 -129z" />
    <glyph glyph-name="middot" unicode="&#xb7;" horiz-adv-x="471" 
d="M344 545q0 -57 -34 -94t-93 -37q-51 0 -82 29.5t-31 80.5q0 58 36.5 96.5t95.5 38.5q49 0 78.5 -31.5t29.5 -82.5z" />
    <glyph glyph-name="cedilla" unicode="&#xb8;" horiz-adv-x="407" 
d="M27 -387v8l8 4q24 -24 90 -24q57 0 94 28.5t37 83.5q0 44 -26.5 69t-69.5 25q-3 0 -8.5 -0.5t-16 -1.5t-20.5 -2l-6 4l104 211h45l-63 -137q182 0 182 -149q0 -86 -67 -138.5t-167 -52.5q-87 0 -108 35q-8 13 -8 37z" />
    <glyph glyph-name="onesuperior" unicode="&#xb9;" 
d="M571 891l-2 -10h-325l2 10q53 12 63 16q40 15 56 101l92 485q12 67 12 92q0 35 -45 35q-41 0 -51 -2v18l254 64l8 -8q-5 -15 -60 -295l-75 -381q-6 -38 -6 -62q0 -27 24 -45q22 -11 53 -18z" />
    <glyph glyph-name="ordmasculine" unicode="&#xba;" horiz-adv-x="657" 
d="M676 932q0 -207 -109 -328q-76 -88 -213 -88q-103 0 -161 59.5t-58 163.5q0 208 121 320q79 76 205 76q101 0 157.5 -52t57.5 -151zM553 973q0 121 -96 121q-63 0 -109 -58q-38 -49 -65 -155q-25 -109 -25 -189q0 -137 98 -137q78 0 119 80q34 63 55 166q23 112 23 172z
" />
    <glyph glyph-name="guillemotright" unicode="&#xbb;" horiz-adv-x="905" 
d="M778 438l-426 -348l-10 10l313 394l-157 407l12 8l287 -360q18 -21 18 -47q0 -34 -37 -64zM403 438l-426 -348l-10 10l316 394l-158 407l12 8l287 -360q16 -19 16 -47q0 -34 -37 -64z" />
    <glyph glyph-name="onequarter" unicode="&#xbc;" horiz-adv-x="1644" 
d="M317 -29l963 1426l57 -35l-962 -1425zM516 543l-2 -11h-326l2 11q55 12 64 16q39 15 55 100l92 486q13 73 13 92q0 35 -45 35q-42 0 -52 -2l-2 18l256 64l7 -9l-60 -301l-74 -374q-6 -38 -6 -62q0 -29 25 -45q22 -13 53 -18zM1372 12l-2 -12h-326l3 12q45 9 71 25
q36 20 51 90l17 90h-383l12 62l516 536h103l-52 -254l-49 -260h131l-18 -84h-129l-17 -86q-6 -27 -6 -57q0 -26 21 -41q22 -13 57 -21zM901 301h301q58 304 82 404q-56 -65 -383 -404z" />
    <glyph glyph-name="onehalf" unicode="&#xbd;" horiz-adv-x="1644" 
d="M293 -29l962 1426l58 -35l-963 -1425zM502 543l-2 -11h-326l2 11q55 12 64 16q39 15 55 100l92 486q12 67 12 92q0 35 -45 35q-41 0 -51 -2l-2 18l256 64l6 -9l-59 -301l-74 -374q-6 -38 -6 -62q0 -29 25 -45q18 -12 53 -18zM1397 0h-527l13 53q57 39 157 111
q53 38 150 125q176 162 176 334q0 66 -36 104.5t-107 38.5q-73 0 -114 -30t-81 -105h-8q-2 25 -2 86q0 44 53 65q85 33 195 33q118 0 180.5 -52.5t62.5 -137.5q0 -57 -20 -107q-5 -13 -13 -27.5t-15 -25.5t-19.5 -27t-19.5 -24.5t-23 -25t-21 -21.5l-22 -22l-19 -19
q-36 -36 -110 -86l-107 -70l-108 -68q152 4 336 4q52 0 77 19q23 16 58 76h10q-6 -76 -37 -168q-6 -19 -17.5 -26t-41.5 -7z" />
    <glyph glyph-name="threequarters" unicode="&#xbe;" horiz-adv-x="1644" 
d="M403 -29l963 1426l57 -35l-962 -1425zM184 711h9q5 -62 54.5 -102t133.5 -40q97 0 153 60.5t56 158.5q0 64 -42.5 103t-119.5 39h-37l10 47h39q90 0 135 45q62 53 62 152q0 58 -33.5 91t-95.5 33q-140 0 -201 -131h-8q0 77 2 95q3 32 49 53q67 33 191 33q112 0 172.5 -45
t60.5 -119q0 -184 -225 -228q184 -21 184 -168q0 -127 -99.5 -198.5t-258.5 -73.5q-134 0 -193 39q-26 14 -26 41q0 45 28 115zM1436 12l-2 -12h-326l2 12q46 9 72 25q36 20 51 90l16 90h-383l13 62l516 536h102l-51 -254l-49 -260h131l-19 -84h-129l-16 -86q-6 -27 -6 -57
q0 -27 20 -41q21 -13 58 -21zM965 301h301q58 304 82 404q-56 -65 -383 -404z" />
    <glyph glyph-name="questiondown" unicode="&#xbf;" horiz-adv-x="823" 
d="M516 551h29q-2 -32 -4.5 -67t-3.5 -50.5t-2 -19.5q-9 -83 -43 -135q-33 -50 -150 -138q-164 -120 -164 -293q0 -92 49 -142t142 -50q96 0 148 44.5t89 147.5h15q0 -48 -5 -151q-6 -60 -69 -80q-101 -37 -230 -37q-335 0 -335 262q0 124 71 207t219 172q112 69 154 105
q41 35 59 88q23 63 31 137zM428 879q0 57 34 94t93 37q50 0 80.5 -31t30.5 -82q0 -58 -35 -95.5t-94 -37.5q-49 0 -79 32t-30 83z" />
    <glyph glyph-name="Agrave" unicode="&#xc0;" horiz-adv-x="1320" 
d="M276 12l-2 -12h-372l2 12q52 13 90 43q45 39 90 115l508 891l176 305h121l22 -156q23 -131 23 -137l133 -868q18 -119 49 -150q25 -28 92 -43l-2 -12h-458l2 12q47 11 94 35q39 20 39 74q0 43 -6 86l-41 278h-480l-159 -290q-43 -76 -43 -111q0 -33 32 -47zM395 557h430
l-90 623q-58 -116 -340 -623zM715 1755l256 -272l-8 -10l-338 169q-74 38 -74 89q0 32 22.5 54.5t53.5 22.5q35 0 88 -53z" />
    <glyph glyph-name="Aacute" unicode="&#xc1;" horiz-adv-x="1320" 
d="M276 12l-2 -12h-372l2 12q52 13 90 43q45 39 90 115l508 891l176 305h121l22 -156q23 -131 23 -137l133 -868q18 -119 49 -150q25 -28 92 -43l-2 -12h-458l2 12q47 11 94 35q39 20 39 74q0 43 -6 86l-41 278h-480l-159 -290q-43 -76 -43 -111q0 -33 32 -47zM395 557h430
l-90 623q-58 -116 -340 -623zM1069 1618l-352 -145l-8 12l280 256q46 43 88 43q32 0 54 -23.5t22 -58.5q0 -49 -84 -84z" />
    <glyph glyph-name="Acircumflex" unicode="&#xc2;" horiz-adv-x="1320" 
d="M276 12l-2 -12h-372l2 12q52 13 90 43q45 39 90 115l508 891l176 305h121l22 -156q23 -131 23 -137l133 -868q18 -119 49 -150q25 -28 92 -43l-2 -12h-458l2 12q47 11 94 35q39 20 39 74q0 43 -6 86l-41 278h-480l-159 -290q-43 -76 -43 -111q0 -33 32 -47zM395 557h430
l-90 623q-58 -116 -340 -623zM958 1714l175 -256l-13 -10l-254 166l-323 -164l-11 14l279 254q39 39 80 39q37 0 67 -43z" />
    <glyph glyph-name="Atilde" unicode="&#xc3;" horiz-adv-x="1320" 
d="M276 12l-2 -12h-372l2 12q52 13 90 43q45 39 90 115l508 891l176 305h121l22 -156q23 -131 23 -137l133 -868q18 -119 49 -150q25 -28 92 -43l-2 -12h-458l2 12q47 11 94 35q39 20 39 74q0 43 -6 86l-41 278h-480l-159 -290q-43 -76 -43 -111q0 -33 32 -47zM395 557h430
l-90 623q-58 -116 -340 -623zM1128 1712l15 -6q-39 -104 -80.5 -152.5t-108.5 -48.5q-47 0 -131 41q-82 39 -121 39q-73 0 -131 -98l-16 6q77 213 190 213q46 0 132 -45q75 -37 118 -37t72.5 20t60.5 68z" />
    <glyph glyph-name="Adieresis" unicode="&#xc4;" horiz-adv-x="1320" 
d="M276 12l-2 -12h-372l2 12q52 13 90 43q45 39 90 115l508 891l176 305h121l22 -156q23 -131 23 -137l133 -868q18 -119 49 -150q25 -28 92 -43l-2 -12h-458l2 12q47 11 94 35q39 20 39 74q0 43 -6 86l-41 278h-480l-159 -290q-43 -76 -43 -111q0 -33 32 -47zM395 557h430
l-90 623q-58 -116 -340 -623zM768 1599q0 -45 -31.5 -77.5t-77.5 -32.5q-39 0 -63.5 23.5t-24.5 64.5q0 51 31 84t80 33q38 0 62 -26t24 -69zM1120 1599q0 -48 -29.5 -79t-76.5 -31q-39 0 -64.5 24t-25.5 64q0 51 31.5 84t78.5 33q38 0 62 -26t24 -69z" />
    <glyph glyph-name="Aring" unicode="&#xc5;" horiz-adv-x="1320" 
d="M276 12l-2 -12h-372l2 12q52 13 90 43q45 39 90 115l508 891l176 305h121l22 -156q23 -131 23 -137l133 -868q18 -119 49 -150q25 -28 92 -43l-2 -12h-458l2 12q47 11 94 35q39 20 39 74q0 43 -6 86l-41 278h-480l-159 -290q-43 -76 -43 -111q0 -33 32 -47zM395 557h430
l-90 623q-58 -116 -340 -623zM1018 1622q0 -76 -47 -127t-125 -51q-67 0 -109.5 42.5t-42.5 110.5q0 75 49.5 125t124.5 50q69 0 109.5 -41t40.5 -109zM965 1618q0 48 -28 77t-75 29q-49 0 -81.5 -34.5t-32.5 -85.5q0 -113 106 -113q49 0 80 35.5t31 91.5z" />
    <glyph glyph-name="AE" unicode="&#xc6;" horiz-adv-x="1902" 
d="M307 12l-2 -12h-387l2 12q71 21 115 56q50 40 129 131l823 958q82 98 82 133q0 23 -22 34.5t-93 29.5l2 12h895q31 0 40.5 -6t9.5 -25q0 -52 -54 -229h-14q-10 91 -27 127.5t-53 48.5q-33 10 -135 10h-186q-34 0 -48 -15.5t-22 -57.5l-92 -471h155q114 0 166 10
q48 7 77.5 36.5t62.5 98.5h12l-72 -363h-14q-2 65 -24.5 97.5t-78.5 42.5q-47 8 -139 8h-158l-92 -477q-10 -52 -10 -80q0 -25 17.5 -35t64.5 -10h219q130 0 195 41q58 40 135 164h14q-42 -212 -49 -234q-7 -30 -22 -38.5t-54 -8.5h-870l2 12q83 21 117 51q33 29 61 173
l49 249h-524l-219 -270q-88 -110 -88 -143q0 -23 28 -35q46 -18 76 -25zM573 557h474l141 733q-116 -151 -615 -733z" />
    <glyph glyph-name="Ccedilla" unicode="&#xc7;" horiz-adv-x="1269" 
d="M414 -399v8l6 4q36 -25 94 -25t95.5 29.5t37.5 87.5q0 44 -27.5 70t-70.5 26q-30 0 -45 -6l-6 6l86 176q-232 23 -351.5 163.5t-119.5 375.5q0 243 94.5 443.5t275.5 316.5q188 117 461 117q173 0 285 -47q53 -21 53 -60q0 -61 -53 -215h-12q-17 116 -62 170
q-71 80 -229 80q-216 0 -371 -137q-120 -108 -178 -283q-60 -180 -60 -364q0 -229 108 -360.5t306 -131.5q147 0 250 68q75 51 137 147l12 -2q-14 -109 -38 -168q-14 -35 -95 -70q-115 -47 -329 -47q-31 0 -39 2l-45 -100q91 -1 139.5 -42t48.5 -109q0 -90 -68.5 -143.5
t-171.5 -53.5q-89 0 -110 35q-8 8 -8 39z" />
    <glyph glyph-name="Egrave" unicode="&#xc8;" horiz-adv-x="1120" 
d="M885 0h-860l2 12q83 18 114 49q35 35 62 175l174 903q14 71 14 116q0 37 -22 57t-95 42l2 12h799q45 0 45 -35q0 -48 -55 -225h-14q-15 145 -74 172q-28 14 -137 14h-189q-35 0 -49 -15.5t-22 -57.5l-93 -471h156q114 0 166 10q50 10 78 38t59 97h15l-72 -363h-15
q-5 66 -25.5 97t-74.5 41q-36 8 -143 8h-156l-92 -477q-10 -72 -10 -80q0 -43 84 -43h217q130 0 194 43q68 49 136 162h12q-16 -110 -47 -228q-7 -34 -24 -43.5t-60 -9.5zM612 1755l256 -272l-8 -10l-338 169q-73 37 -73 89q0 32 22 54.5t53 22.5q35 0 88 -53z" />
    <glyph glyph-name="Eacute" unicode="&#xc9;" horiz-adv-x="1120" 
d="M885 0h-860l2 12q83 18 114 49q35 35 62 175l174 903q14 71 14 116q0 37 -22 57t-95 42l2 12h799q45 0 45 -35q0 -48 -55 -225h-14q-15 145 -74 172q-28 14 -137 14h-189q-35 0 -49 -15.5t-22 -57.5l-93 -471h156q114 0 166 10q50 10 78 38t59 97h15l-72 -363h-15
q-5 66 -25.5 97t-74.5 41q-36 8 -143 8h-156l-92 -477q-10 -72 -10 -80q0 -43 84 -43h217q130 0 194 43q68 49 136 162h12q-16 -110 -47 -228q-7 -34 -24 -43.5t-60 -9.5zM1008 1618l-353 -145l-8 12l281 256q46 43 88 43q32 0 54 -23.5t22 -58.5q0 -49 -84 -84z" />
    <glyph glyph-name="Ecircumflex" unicode="&#xca;" horiz-adv-x="1120" 
d="M885 0h-860l2 12q83 18 114 49q35 35 62 175l174 903q14 71 14 116q0 37 -22 57t-95 42l2 12h799q45 0 45 -35q0 -48 -55 -225h-14q-15 145 -74 172q-28 14 -137 14h-189q-35 0 -49 -15.5t-22 -57.5l-93 -471h156q114 0 166 10q50 10 78 38t59 97h15l-72 -363h-15
q-5 66 -25.5 97t-74.5 41q-36 8 -143 8h-156l-92 -477q-10 -72 -10 -80q0 -43 84 -43h217q130 0 194 43q68 49 136 162h12q-16 -110 -47 -228q-7 -34 -24 -43.5t-60 -9.5zM868 1714l174 -256l-12 -10l-254 166l-323 -164l-11 14l279 254q39 39 80 39q37 0 67 -43z" />
    <glyph glyph-name="Edieresis" unicode="&#xcb;" horiz-adv-x="1120" 
d="M885 0h-860l2 12q83 18 114 49q35 35 62 175l174 903q14 71 14 116q0 37 -22 57t-95 42l2 12h799q45 0 45 -35q0 -48 -55 -225h-14q-15 145 -74 172q-28 14 -137 14h-189q-35 0 -49 -15.5t-22 -57.5l-93 -471h156q114 0 166 10q50 10 78 38t59 97h15l-72 -363h-15
q-5 66 -25.5 97t-74.5 41q-36 8 -143 8h-156l-92 -477q-10 -72 -10 -80q0 -43 84 -43h217q130 0 194 43q68 49 136 162h12q-16 -110 -47 -228q-7 -34 -24 -43.5t-60 -9.5zM688 1599q0 -45 -31 -77.5t-77 -32.5q-39 0 -63.5 23.5t-24.5 64.5q0 51 30.5 84t79.5 33
q38 0 62 -26t24 -69zM1040 1599q0 -48 -29.5 -79t-76.5 -31q-39 0 -64.5 24t-25.5 64q0 51 31.5 84t78.5 33q38 0 62 -26t24 -69z" />
    <glyph glyph-name="Igrave" unicode="&#xcc;" horiz-adv-x="718" 
d="M492 12l-3 -12h-464l4 12q86 21 121 62q22 28 57 192l164 836q20 100 20 158q0 40 -23.5 58t-91.5 36l3 12h462l-2 -12q-82 -18 -118 -54q-33 -33 -62 -192l-166 -844q-20 -100 -20 -162q0 -34 27 -53t92 -37zM399 1755l256 -272l-8 -10l-338 169q-73 37 -73 89
q0 32 22 54.5t53 22.5q35 0 88 -53z" />
    <glyph glyph-name="Iacute" unicode="&#xcd;" horiz-adv-x="718" 
d="M492 12l-3 -12h-464l4 12q86 21 121 62q22 28 57 192l164 836q20 100 20 158q0 40 -23.5 58t-91.5 36l3 12h462l-2 -12q-82 -18 -118 -54q-33 -33 -62 -192l-166 -844q-20 -100 -20 -162q0 -34 27 -53t92 -37zM750 1618l-353 -145l-8 12l281 256q46 43 88 43
q32 0 54 -23.5t22 -58.5q0 -49 -84 -84z" />
    <glyph glyph-name="Icircumflex" unicode="&#xce;" horiz-adv-x="718" 
d="M492 12l-3 -12h-464l4 12q86 21 121 62q22 28 57 192l164 836q20 100 20 158q0 40 -23.5 58t-91.5 36l3 12h462l-2 -12q-82 -18 -118 -54q-33 -33 -62 -192l-166 -844q-20 -100 -20 -162q0 -34 27 -53t92 -37zM649 1714l174 -256l-12 -10l-254 166l-324 -164l-10 14
l279 254q39 39 80 39q37 0 67 -43z" />
    <glyph glyph-name="Idieresis" unicode="&#xcf;" horiz-adv-x="718" 
d="M492 12l-3 -12h-464l4 12q86 21 121 62q22 28 57 192l164 836q20 100 20 158q0 40 -23.5 58t-91.5 36l3 12h462l-2 -12q-82 -18 -118 -54q-33 -33 -62 -192l-166 -844q-20 -100 -20 -162q0 -34 27 -53t92 -37zM469 1599q0 -45 -31.5 -77.5t-77.5 -32.5q-39 0 -63.5 23.5
t-24.5 64.5q0 51 31 84t80 33q38 0 62 -26t24 -69zM821 1599q0 -48 -29.5 -79t-76.5 -31q-39 0 -64.5 24t-25.5 64q0 51 31.5 84t78.5 33q38 0 62 -26t24 -69z" />
    <glyph glyph-name="Eth" unicode="&#xd0;" horiz-adv-x="1462" 
d="M565 0h-540l2 12q110 27 133 78q20 38 53 207l74 379h-191l19 86h188l59 299q29 161 29 194q0 40 -24.5 60t-92.5 39l2 12h510q312 0 451 -109q164 -126 164 -385q0 -152 -29.5 -281.5t-94 -239.5t-161 -187t-237 -120.5t-314.5 -43.5zM473 676l-80 -408
q-19 -92 -16.5 -133t31.5 -51q53 -16 167 -16q299 0 461 223q164 226 164 573q0 180 -76 287q-108 147 -350 147h-45q-95 0 -121 -26q-17 -14 -45 -144l-71 -366h352l-19 -86h-352z" />
    <glyph glyph-name="Ntilde" unicode="&#xd1;" horiz-adv-x="1482" 
d="M408 12l-2 -12h-381l4 12q90 24 125 68q27 37 57 194l154 785q28 156 28 194q0 42 -26 62q-32 25 -88 39l2 12h274q38 0 53 -27q420 -891 492 -1067l153 826q19 111 19 153t-28.5 65.5t-94.5 37.5l2 12h367l-2 -12q-88 -21 -119 -66q-29 -43 -58 -196l-219 -1106h-96
l-555 1231l-168 -938q-22 -119 -22 -168q0 -35 28.5 -57t100.5 -42zM1235 1712l14 -6q-39 -104 -80 -152.5t-108 -48.5q-47 0 -131 41q-82 39 -121 39q-73 0 -131 -98l-16 6q77 213 190 213q45 0 131 -45q75 -37 119 -37q43 0 72.5 20t60.5 68z" />
    <glyph glyph-name="Ograve" unicode="&#xd2;" horiz-adv-x="1388" 
d="M1329 909q0 -205 -72 -424q-72 -216 -213 -348q-176 -164 -444 -164q-231 0 -359 140.5t-128 386.5q0 199 69 397q71 204 211 332q86 78 205.5 121t243.5 43q239 0 363 -123t124 -361zM1124 948q0 375 -293 375q-182 0 -307 -152q-96 -116 -153 -321q-56 -201 -56 -395
q0 -410 301 -410q181 0 302 154q99 132 151 348q55 216 55 401zM737 1755l256 -272l-8 -10l-338 169q-74 38 -74 89q0 32 22.5 54.5t53.5 22.5q35 0 88 -53z" />
    <glyph glyph-name="Oacute" unicode="&#xd3;" horiz-adv-x="1388" 
d="M1329 909q0 -205 -72 -424q-72 -216 -213 -348q-176 -164 -444 -164q-231 0 -359 140.5t-128 386.5q0 199 69 397q71 204 211 332q86 78 205.5 121t243.5 43q239 0 363 -123t124 -361zM1124 948q0 375 -293 375q-182 0 -307 -152q-96 -116 -153 -321q-56 -201 -56 -395
q0 -410 301 -410q181 0 302 154q99 132 151 348q55 216 55 401zM1114 1618l-352 -145l-8 12l280 256q46 43 88 43q32 0 54 -23.5t22 -58.5q0 -49 -84 -84z" />
    <glyph glyph-name="Ocircumflex" unicode="&#xd4;" horiz-adv-x="1388" 
d="M1329 909q0 -205 -72 -424q-72 -216 -213 -348q-176 -164 -444 -164q-231 0 -359 140.5t-128 386.5q0 199 69 397q71 204 211 332q86 78 205.5 121t243.5 43q239 0 363 -123t124 -361zM1124 948q0 375 -293 375q-182 0 -307 -152q-96 -116 -153 -321q-56 -201 -56 -395
q0 -410 301 -410q181 0 302 154q99 132 151 348q55 216 55 401zM993 1714l174 -256l-12 -10l-254 166l-323 -164l-11 14l279 254q39 39 80 39q37 0 67 -43z" />
    <glyph glyph-name="Otilde" unicode="&#xd5;" horiz-adv-x="1388" 
d="M1329 909q0 -205 -72 -424q-72 -216 -213 -348q-176 -164 -444 -164q-231 0 -359 140.5t-128 386.5q0 199 69 397q71 204 211 332q86 78 205.5 121t243.5 43q239 0 363 -123t124 -361zM1124 948q0 375 -293 375q-182 0 -307 -152q-96 -116 -153 -321q-56 -201 -56 -395
q0 -410 301 -410q181 0 302 154q99 132 151 348q55 216 55 401zM1176 1712l14 -6q-39 -104 -80.5 -152.5t-108.5 -48.5q-47 0 -131 41q-82 39 -120 39q-74 0 -132 -98l-16 6q77 213 191 213q45 0 131 -45q75 -37 118 -37t73 20t61 68z" />
    <glyph glyph-name="Odieresis" unicode="&#xd6;" horiz-adv-x="1388" 
d="M1329 909q0 -205 -72 -424q-72 -216 -213 -348q-176 -164 -444 -164q-231 0 -359 140.5t-128 386.5q0 199 69 397q71 204 211 332q86 78 205.5 121t243.5 43q239 0 363 -123t124 -361zM1124 948q0 375 -293 375q-182 0 -307 -152q-96 -116 -153 -321q-56 -201 -56 -395
q0 -410 301 -410q181 0 302 154q99 132 151 348q55 216 55 401zM827 1599q0 -45 -31 -77.5t-77 -32.5q-39 0 -63.5 23.5t-24.5 64.5q0 51 30.5 84t79.5 33q38 0 62 -26t24 -69zM1180 1599q0 -48 -30 -79t-77 -31q-39 0 -64.5 24t-25.5 64q0 51 31.5 84t79.5 33q38 0 62 -26
t24 -69z" />
    <glyph glyph-name="multiply" unicode="&#xd7;" horiz-adv-x="1302" 
d="M666 479l-342 -309l-74 82l340 313l-271 309l89 80l270 -307l340 307l74 -84l-338 -309l270 -307l-86 -84z" />
    <glyph glyph-name="Oslash" unicode="&#xd8;" horiz-adv-x="1388" 
d="M270 84l-102 -131l-55 39l110 141q-110 134 -110 367q0 199 69 397q71 204 211 332q86 78 205.5 121t243.5 43q183 0 305 -78l115 147l55 -39l-117 -149q129 -123 129 -365q0 -205 -72 -424q-72 -216 -213 -348q-176 -164 -444 -164q-207 0 -330 111zM1124 948
q0 121 -26 195l-738 -944q71 -154 256 -154q181 0 302 154q99 132 151 348q55 216 55 401zM315 455q0 -110 19 -181l731 936q-70 113 -234 113q-182 0 -307 -152q-96 -116 -153 -321q-56 -201 -56 -395z" />
    <glyph glyph-name="Ugrave" unicode="&#xd9;" horiz-adv-x="1486" 
d="M260 1354l2 12h467l-2 -12q-100 -21 -127 -62q-26 -33 -47 -147l-117 -588q-26 -139 -26 -252q0 -123 77 -188.5t218 -65.5q221 0 331 137q70 88 123 353l109 549q18 102 18 159q0 48 -27 69.5t-98 35.5l4 12h381l-2 -12q-65 -11 -104 -43q-49 -39 -78 -199l-105 -545
q-38 -195 -65 -268q-38 -101 -90 -158q-152 -168 -455 -168q-183 0 -305 78q-119 79 -119 258q0 100 31 269l108 552q15 76 15 127q0 37 -26 58t-91 39zM786 1755l256 -272l-8 -10l-338 169q-73 37 -73 89q0 32 22 54.5t53 22.5q35 0 88 -53z" />
    <glyph glyph-name="Uacute" unicode="&#xda;" horiz-adv-x="1486" 
d="M260 1354l2 12h467l-2 -12q-100 -21 -127 -62q-26 -33 -47 -147l-117 -588q-26 -139 -26 -252q0 -123 77 -188.5t218 -65.5q221 0 331 137q70 88 123 353l109 549q18 102 18 159q0 48 -27 69.5t-98 35.5l4 12h381l-2 -12q-65 -11 -104 -43q-49 -39 -78 -199l-105 -545
q-38 -195 -65 -268q-38 -101 -90 -158q-152 -168 -455 -168q-183 0 -305 78q-119 79 -119 258q0 100 31 269l108 552q15 76 15 127q0 37 -26 58t-91 39zM1169 1618l-352 -145l-8 12l281 256q46 43 88 43q32 0 53.5 -23.5t21.5 -58.5q0 -49 -84 -84z" />
    <glyph glyph-name="Ucircumflex" unicode="&#xdb;" horiz-adv-x="1486" 
d="M260 1354l2 12h467l-2 -12q-100 -21 -127 -62q-26 -33 -47 -147l-117 -588q-26 -139 -26 -252q0 -123 77 -188.5t218 -65.5q221 0 331 137q70 88 123 353l109 549q18 102 18 159q0 48 -27 69.5t-98 35.5l4 12h381l-2 -12q-65 -11 -104 -43q-49 -39 -78 -199l-105 -545
q-38 -195 -65 -268q-38 -101 -90 -158q-152 -168 -455 -168q-183 0 -305 78q-119 79 -119 258q0 100 31 269l108 552q15 76 15 127q0 37 -26 58t-91 39zM1051 1714l174 -256l-13 -10l-254 166l-323 -164l-10 14l278 254q39 39 80 39q38 0 68 -43z" />
    <glyph glyph-name="Udieresis" unicode="&#xdc;" horiz-adv-x="1486" 
d="M260 1354l2 12h467l-2 -12q-100 -21 -127 -62q-26 -33 -47 -147l-117 -588q-26 -139 -26 -252q0 -123 77 -188.5t218 -65.5q221 0 331 137q70 88 123 353l109 549q18 102 18 159q0 48 -27 69.5t-98 35.5l4 12h381l-2 -12q-65 -11 -104 -43q-49 -39 -78 -199l-105 -545
q-38 -195 -65 -268q-38 -101 -90 -158q-152 -168 -455 -168q-183 0 -305 78q-119 79 -119 258q0 100 31 269l108 552q15 76 15 127q0 37 -26 58t-91 39zM870 1599q0 -45 -31 -77.5t-77 -32.5q-39 0 -63.5 23.5t-24.5 64.5q0 51 30.5 84t79.5 33q38 0 62 -26t24 -69z
M1223 1599q0 -48 -30 -79t-77 -31q-39 0 -64.5 24t-25.5 64q0 51 31.5 84t79.5 33q38 0 62 -26t24 -69z" />
    <glyph glyph-name="Yacute" unicode="&#xdd;" horiz-adv-x="1234" 
d="M752 12l-4 -12h-472l3 12q89 17 124 62q34 53 60 196l57 318l-235 600q-42 105 -74 133q-27 21 -70 33l2 12h447l-2 -12q-81 -19 -94 -27q-33 -14 -33 -45q0 -25 28 -98q153 -398 195 -518q44 69 371 510q53 77 53 110q0 29 -33 43q-37 19 -76 25l2 12h377l-2 -12
q-51 -12 -104 -51q-29 -21 -103 -113l-452 -582l-66 -344q-20 -97 -20 -155q0 -35 26.5 -56t94.5 -41zM1040 1618l-352 -145l-8 12l281 256q46 43 88 43q32 0 53.5 -23.5t21.5 -58.5q0 -49 -84 -84z" />
    <glyph glyph-name="Thorn" unicode="&#xde;" horiz-adv-x="1206" 
d="M496 12l-2 -12h-469l2 12q95 21 125 62q23 29 57 198l160 820q22 123 22 168q0 39 -31 61q-35 21 -86 33l2 12h465l-4 -12q-93 -18 -121 -54q-33 -41 -59 -196l-4 -29q62 6 133 6q224 0 339.5 -72t115.5 -239q0 -230 -158 -348q-157 -115 -416 -115q-48 0 -166 4l-10 -57
q-18 -92 -18 -145q0 -36 30 -60q28 -22 93 -37zM522 928l-106 -547q62 -4 141 -4q179 0 281 105t102 286q0 161 -113 213q-69 29 -202 29q-50 0 -72.5 -18.5t-30.5 -63.5z" />
    <glyph glyph-name="germandbls" unicode="&#xdf;" horiz-adv-x="1120" 
d="M-293 -244h14q34 -149 152 -149q85 0 141 102q58 113 129 527l115 665q29 170 68 268q42 98 116 166q123 111 318 111q152 0 233.5 -60t81.5 -172q0 -92 -45 -149q-49 -61 -153 -141l-117 -90q-82 -61 -82 -113q0 -44 82 -111l102 -84q87 -73 118.5 -123.5t31.5 -123.5
q0 -131 -109 -220q-109 -86 -285 -86q-128 0 -190 39q-33 17 -33 58q0 58 27 157h12q17 -94 70 -145t133 -51q99 0 159 52t60 144q0 85 -117 176l-92 74q-71 55 -99 96t-28 89q0 49 35 95t121 113l112 88q144 114 144 254q0 82 -50.5 129.5t-138.5 47.5q-125 0 -190 -95
q-62 -88 -100 -297l-125 -675q-71 -385 -140 -537q-50 -111 -146 -176.5t-212 -65.5q-75 0 -123 25q-26 17 -26 49q0 60 26 139z" />
    <glyph glyph-name="agrave" unicode="&#xe0;" horiz-adv-x="1089" 
d="M977 76l4 -10q-118 -80 -242 -80q-82 0 -82 96q0 109 35 258q-84 -175 -200 -271t-230 -96q-97 0 -145.5 58t-48.5 200q0 171 79 369q83 200 209 295q135 106 332 106q198 0 313 -53q-57 -72 -149 -596q-21 -117 -21 -207q0 -79 62 -79q39 0 84 10zM791 881q0 26 -19 39
q-30 18 -115 18q-112 0 -188 -76q-86 -80 -154 -274q-67 -192 -67 -330q0 -168 104 -168q76 0 166 78t150 207q49 110 112 424q11 64 11 82zM606 1444l170 -301l-8 -8l-270 208q-56 44 -56 89q0 32 23.5 52.5t56.5 20.5q47 0 84 -61z" />
    <glyph glyph-name="aacute" unicode="&#xe1;" horiz-adv-x="1089" 
d="M977 76l4 -10q-118 -80 -242 -80q-82 0 -82 96q0 109 35 258q-84 -175 -200 -271t-230 -96q-97 0 -145.5 58t-48.5 200q0 171 79 369q83 200 209 295q135 106 332 106q198 0 313 -53q-57 -72 -149 -596q-21 -117 -21 -207q0 -79 62 -79q39 0 84 10zM791 881q0 26 -19 39
q-30 18 -115 18q-112 0 -188 -76q-86 -80 -154 -274q-67 -192 -67 -330q0 -168 104 -168q76 0 166 78t150 207q49 110 112 424q11 64 11 82zM950 1339l-315 -204l-8 8l221 295q45 63 94 63q33 0 54.5 -19.5t21.5 -51.5q0 -44 -68 -91z" />
    <glyph glyph-name="acircumflex" unicode="&#xe2;" horiz-adv-x="1089" 
d="M977 76l4 -10q-118 -80 -242 -80q-82 0 -82 96q0 109 35 258q-84 -175 -200 -271t-230 -96q-97 0 -145.5 58t-48.5 200q0 171 79 369q83 200 209 295q135 106 332 106q198 0 313 -53q-57 -72 -149 -596q-21 -117 -21 -207q0 -79 62 -79q39 0 84 10zM791 881q0 26 -19 39
q-30 18 -115 18q-112 0 -188 -76q-86 -80 -154 -274q-67 -192 -67 -330q0 -168 104 -168q76 0 166 78t150 207q49 110 112 424q11 64 11 82zM852 1432l135 -291l-12 -8l-215 198l-309 -198l-9 10l265 291q43 48 84 47.5t61 -49.5z" />
    <glyph glyph-name="atilde" unicode="&#xe3;" horiz-adv-x="1089" 
d="M977 76l4 -10q-118 -80 -242 -80q-82 0 -82 96q0 109 35 258q-84 -175 -200 -271t-230 -96q-97 0 -145.5 58t-48.5 200q0 171 79 369q83 200 209 295q135 106 332 106q198 0 313 -53q-57 -72 -149 -596q-21 -117 -21 -207q0 -79 62 -79q39 0 84 10zM791 881q0 26 -19 39
q-30 18 -115 18q-112 0 -188 -76q-86 -80 -154 -274q-67 -192 -67 -330q0 -168 104 -168q76 0 166 78t150 207q49 110 112 424q11 64 11 82zM1008 1372l10 -6q-65 -197 -174 -197q-48 0 -139 45q-75 35 -109 35q-79 0 -137 -94l-13 4q76 211 189 211q32 0 119 -41
q86 -45 120 -45q41 0 69 19.5t65 68.5z" />
    <glyph glyph-name="adieresis" unicode="&#xe4;" horiz-adv-x="1089" 
d="M977 76l4 -10q-118 -80 -242 -80q-82 0 -82 96q0 109 35 258q-84 -175 -200 -271t-230 -96q-97 0 -145.5 58t-48.5 200q0 171 79 369q83 200 209 295q135 106 332 106q198 0 313 -53q-57 -72 -149 -596q-21 -117 -21 -207q0 -79 62 -79q39 0 84 10zM791 881q0 26 -19 39
q-30 18 -115 18q-112 0 -188 -76q-86 -80 -154 -274q-67 -192 -67 -330q0 -168 104 -168q76 0 166 78t150 207q49 110 112 424q11 64 11 82zM664 1298q0 -45 -30.5 -77.5t-76.5 -32.5q-38 0 -63 25t-25 63q0 51 30.5 83t78.5 32q38 0 62 -26t24 -67zM985 1298q0 -46 -29 -78
t-75 -32q-38 0 -63 25t-25 63q0 51 30.5 83t77.5 32q38 0 61 -25.5t23 -67.5z" />
    <glyph glyph-name="aring" unicode="&#xe5;" horiz-adv-x="1089" 
d="M977 76l4 -10q-118 -80 -242 -80q-82 0 -82 96q0 109 35 258q-84 -175 -200 -271t-230 -96q-97 0 -145.5 58t-48.5 200q0 171 79 369q83 200 209 295q135 106 332 106q198 0 313 -53q-57 -72 -149 -596q-21 -117 -21 -207q0 -79 62 -79q39 0 84 10zM791 881q0 26 -19 39
q-30 18 -115 18q-112 0 -188 -76q-86 -80 -154 -274q-67 -192 -67 -330q0 -168 104 -168q76 0 166 78t150 207q49 110 112 424q11 64 11 82zM901 1315q0 -81 -51.5 -135t-134.5 -54q-71 0 -115.5 46t-44.5 116q0 82 52 133.5t134 51.5q72 0 116 -43t44 -115zM846 1311
q0 51 -30.5 81.5t-80.5 30.5q-57 0 -91 -36.5t-34 -96.5q0 -51 30 -82.5t83 -31.5q54 0 88.5 37t34.5 98z" />
    <glyph glyph-name="ae" unicode="&#xe6;" horiz-adv-x="1429" 
d="M647 170q-126 -197 -350 -197q-115 0 -181.5 69t-66.5 177q0 200 223 258q147 37 385 47l13 64q14 80 14 133q0 82 -52.5 123t-142.5 41q-189 0 -292 -103l-9 2q0 3 2 13t3 16q19 81 120 134.5t240 53.5q238 0 268 -174q57 78 141.5 126t180.5 48q243 0 243 -190
q0 -116 -104 -209q-58 -51 -177.5 -83t-283.5 -38q-14 -63 -14 -166q0 -116 53.5 -175.5t149.5 -59.5q144 0 258 102l8 -4q0 -10 -8 -31q-14 -31 -37 -57q-117 -117 -309 -117q-222 0 -275 197zM635 227q-4 70 -4 78q0 56 16 168q-192 -16 -285 -47q-139 -47 -139 -178
q0 -74 42 -118t112 -44q141 0 258 141zM834 528q206 18 307.5 98t101.5 201q0 111 -108 111q-106 0 -185.5 -105.5t-115.5 -304.5z" />
    <glyph glyph-name="ccedilla" unicode="&#xe7;" horiz-adv-x="845" 
d="M162 -387v8l8 4q24 -24 90 -24q57 0 94 28.5t37 83.5q0 44 -26.5 69t-69.5 25q-3 0 -8.5 -0.5t-16 -1.5t-20.5 -2l-6 4l82 168q-123 11 -188.5 91t-65.5 221q0 173 61 338q61 164 164 260q125 116 317 116q109 0 168 -26q39 -17 39 -47q0 -65 -45 -170h-12
q-23 95 -65.5 137.5t-110.5 42.5q-100 0 -172 -84q-70 -79 -119 -236q-45 -145 -45 -299q0 -123 54 -181t147 -58q152 0 262 104l8 -2q-2 -12 -14 -49q-9 -26 -50 -61q-116 -96 -286 -99l-43 -92q182 0 182 -149q0 -86 -66.5 -138.5t-166.5 -52.5q-88 0 -109 35q-8 13 -8 37
z" />
    <glyph glyph-name="egrave" unicode="&#xe8;" horiz-adv-x="886" 
d="M721 184l6 -4q0 -15 -6 -30q-16 -37 -35 -56q-50 -54 -132 -87.5t-181 -33.5q-297 0 -297 326q0 146 57 305q59 164 152 262q132 135 321 135q236 0 236 -184q0 -111 -115 -217q-62 -57 -183 -92.5t-278 -36.5q-12 -59 -12 -147q0 -244 207 -244q147 0 260 104zM274 512
q206 18 316 103.5t110 213.5q0 115 -114 115q-103 0 -185.5 -113t-126.5 -319zM492 1444l170 -301l-9 -8l-270 208q-55 43 -55 89q0 32 23.5 52.5t56.5 20.5q47 0 84 -61z" />
    <glyph glyph-name="eacute" unicode="&#xe9;" horiz-adv-x="886" 
d="M721 184l6 -4q0 -15 -6 -30q-16 -37 -35 -56q-50 -54 -132 -87.5t-181 -33.5q-297 0 -297 326q0 146 57 305q59 164 152 262q132 135 321 135q236 0 236 -184q0 -111 -115 -217q-62 -57 -183 -92.5t-278 -36.5q-12 -59 -12 -147q0 -244 207 -244q147 0 260 104zM274 512
q206 18 316 103.5t110 213.5q0 115 -114 115q-103 0 -185.5 -113t-126.5 -319zM836 1339l-316 -204l-8 8l221 295q45 63 94 63q33 0 54.5 -19.5t21.5 -51.5q0 -45 -67 -91z" />
    <glyph glyph-name="ecircumflex" unicode="&#xea;" horiz-adv-x="886" 
d="M721 184l6 -4q0 -15 -6 -30q-16 -37 -35 -56q-50 -54 -132 -87.5t-181 -33.5q-297 0 -297 326q0 146 57 305q59 164 152 262q132 135 321 135q236 0 236 -184q0 -111 -115 -217q-62 -57 -183 -92.5t-278 -36.5q-12 -59 -12 -147q0 -244 207 -244q147 0 260 104zM274 512
q206 18 316 103.5t110 213.5q0 115 -114 115q-103 0 -185.5 -113t-126.5 -319zM770 1432l135 -291l-12 -8l-215 198l-309 -198l-9 10l265 291q43 48 84 47.5t61 -49.5z" />
    <glyph glyph-name="edieresis" unicode="&#xeb;" horiz-adv-x="886" 
d="M721 184l6 -4q0 -15 -6 -30q-16 -37 -35 -56q-50 -54 -132 -87.5t-181 -33.5q-297 0 -297 326q0 146 57 305q59 164 152 262q132 135 321 135q236 0 236 -184q0 -111 -115 -217q-62 -57 -183 -92.5t-278 -36.5q-12 -59 -12 -147q0 -244 207 -244q147 0 260 104zM274 512
q206 18 316 103.5t110 213.5q0 115 -114 115q-103 0 -185.5 -113t-126.5 -319zM578 1298q0 -45 -30.5 -77.5t-76.5 -32.5q-38 0 -63 25t-25 63q0 51 30.5 83t78.5 32q38 0 62 -26t24 -67zM899 1298q0 -46 -29 -78t-75 -32q-38 0 -63 25t-25 63q0 51 30.5 83t77.5 32
q38 0 61 -25.5t23 -67.5z" />
    <glyph glyph-name="igrave" unicode="&#xec;" horiz-adv-x="569" 
d="M258 1444l170 -301l-8 -8l-270 208q-56 44 -56 89q0 32 23.5 52.5t56.5 20.5q47 0 84 -61zM436 76l2 -10q-127 -80 -252 -80q-75 0 -75 77q0 48 36 205l72 328q45 199 45 262q0 37 -14 51q-19 22 -90 25v10q131 49 239 49q32 0 44 -11t12 -38q0 -26 -43 -223l-84 -399
q-31 -143 -31 -203q0 -53 59 -53q12 0 80 10z" />
    <glyph glyph-name="iacute" unicode="&#xed;" horiz-adv-x="569" 
d="M547 1339l-316 -204l-8 8l221 295q45 63 95 63q33 0 54 -19.5t21 -51.5q0 -45 -67 -91zM403 76l3 -10q-127 -80 -252 -80q-76 0 -76 77q0 44 37 205l71 328q45 199 45 262q0 37 -14 51q-19 22 -90 25v10q131 49 240 49q32 0 43.5 -11t11.5 -38q0 -26 -43 -223l-84 -399
q-31 -143 -31 -203q0 -53 60 -53q11 0 79 10z" />
    <glyph glyph-name="icircumflex" unicode="&#xee;" horiz-adv-x="569" 
d="M436 76l2 -10q-127 -80 -252 -80q-75 0 -75 77q0 48 36 205l72 328q45 199 45 262q0 37 -14 51q-19 22 -90 25v10q131 49 239 49q32 0 44 -11t12 -38q0 -26 -43 -223l-84 -399q-31 -143 -31 -203q0 -53 59 -53q12 0 80 10zM494 1432l135 -291l-13 -8l-215 198l-309 -198
l-8 10l264 291q44 47 84 47q41 0 62 -49z" />
    <glyph glyph-name="idieresis" unicode="&#xef;" horiz-adv-x="569" 
d="M309 1298q0 -45 -30 -77.5t-76 -32.5q-38 0 -63 25t-25 63q0 51 30.5 83t77.5 32q38 0 62 -26t24 -67zM631 1298q0 -46 -29.5 -78t-75.5 -32q-38 0 -63 25t-25 63q0 51 30.5 83t78.5 32q38 0 61 -25.5t23 -67.5zM436 76l2 -10q-127 -80 -252 -80q-75 0 -75 77
q0 48 36 205l72 328q45 199 45 262q0 37 -14 51q-19 22 -90 25v10q131 49 239 49q32 0 44 -11t12 -38q0 -26 -43 -223l-84 -399q-31 -143 -31 -203q0 -53 59 -53q12 0 80 10z" />
    <glyph glyph-name="eth" unicode="&#xf0;" horiz-adv-x="1015" 
d="M924 1395l37 -66l-162 -92q127 -210 127 -467q0 -438 -178 -649q-121 -148 -330 -148q-160 0 -247 98t-87 271q0 336 190 526q118 121 291 121q140 0 193 -86q-6 139 -66 275l-188 -105l-37 66l190 106q-90 158 -217 211l25 47q170 -52 291 -203zM750 711q0 213 -172 213
q-107 0 -179 -97q-66 -90 -106 -256q-41 -166 -41 -299q0 -235 172 -235q138 0 205 135q51 100 86 264q35 166 35 275z" />
    <glyph glyph-name="ntilde" unicode="&#xf1;" horiz-adv-x="1126" 
d="M354 483l-102 -483h-166l115 530q45 205 45 320q0 41 -13 57q-21 24 -94 27v10q110 49 236 49q33 0 46 -12.5t13 -44.5q0 -90 -53 -279q58 134 188 240q128 104 256 104q77 0 115 -30q37 -30 37 -113q0 -78 -103 -549q-28 -131 -28 -186q0 -57 61 -57q20 0 78 10l2 -10
q-127 -80 -250 -80q-71 0 -71 73q0 48 34 209q105 463 105 533q0 48 -18 68t-64 20q-73 0 -164 -70q-92 -73 -133 -143q-49 -80 -72 -193zM942 1372l10 -6q-65 -197 -174 -197q-48 0 -139 45q-75 35 -109 35q-79 0 -137 -94l-12 4q76 211 188 211q32 0 119 -41
q86 -45 121 -45q41 0 68.5 19t64.5 69z" />
    <glyph glyph-name="ograve" unicode="&#xf2;" horiz-adv-x="1011" 
d="M915 664q0 -145 -43 -293q-40 -147 -127 -250q-127 -148 -337 -148q-158 0 -244 97t-86 270q0 157 49 301t145 240q126 120 320 120q156 0 239.5 -84.5t83.5 -252.5zM748 723q0 114 -37.5 167.5t-132.5 53.5q-108 0 -181 -104q-67 -93 -110 -262q-41 -172 -41 -306
q0 -241 172 -241q138 0 209 139q52 101 86 268q35 172 35 285zM541 1444l170 -301l-9 -8l-270 208q-55 43 -55 89q0 32 23.5 52.5t56.5 20.5q47 0 84 -61z" />
    <glyph glyph-name="oacute" unicode="&#xf3;" horiz-adv-x="1011" 
d="M915 664q0 -145 -43 -293q-40 -147 -127 -250q-127 -148 -337 -148q-158 0 -244 97t-86 270q0 157 49 301t145 240q126 120 320 120q156 0 239.5 -84.5t83.5 -252.5zM748 723q0 114 -37.5 167.5t-132.5 53.5q-108 0 -181 -104q-67 -93 -110 -262q-41 -172 -41 -306
q0 -241 172 -241q138 0 209 139q52 101 86 268q35 172 35 285zM815 1339l-315 -204l-8 8l221 295q45 63 94 63q33 0 54.5 -19.5t21.5 -51.5q0 -44 -68 -91z" />
    <glyph glyph-name="ocircumflex" unicode="&#xf4;" horiz-adv-x="1011" 
d="M915 664q0 -145 -43 -293q-40 -147 -127 -250q-127 -148 -337 -148q-158 0 -244 97t-86 270q0 157 49 301t145 240q126 120 320 120q156 0 239.5 -84.5t83.5 -252.5zM748 723q0 114 -37.5 167.5t-132.5 53.5q-108 0 -181 -104q-67 -93 -110 -262q-41 -172 -41 -306
q0 -241 172 -241q138 0 209 139q52 101 86 268q35 172 35 285zM754 1432l135 -291l-12 -8l-215 198l-310 -198l-8 10l264 291q43 48 84.5 47.5t61.5 -49.5z" />
    <glyph glyph-name="otilde" unicode="&#xf5;" horiz-adv-x="1011" 
d="M915 664q0 -145 -43 -293q-40 -147 -127 -250q-127 -148 -337 -148q-158 0 -244 97t-86 270q0 157 49 301t145 240q126 120 320 120q156 0 239.5 -84.5t83.5 -252.5zM748 723q0 114 -37.5 167.5t-132.5 53.5q-108 0 -181 -104q-67 -93 -110 -262q-41 -172 -41 -306
q0 -241 172 -241q138 0 209 139q52 101 86 268q35 172 35 285zM915 1372l11 -6q-65 -197 -174 -197q-49 0 -140 45q-75 35 -108 35q-79 0 -137 -94l-13 4q76 211 189 211q32 0 119 -41q86 -45 120 -45q41 0 68.5 19t64.5 69z" />
    <glyph glyph-name="odieresis" unicode="&#xf6;" horiz-adv-x="1011" 
d="M915 664q0 -145 -43 -293q-40 -147 -127 -250q-127 -148 -337 -148q-158 0 -244 97t-86 270q0 157 49 301t145 240q126 120 320 120q156 0 239.5 -84.5t83.5 -252.5zM748 723q0 114 -37.5 167.5t-132.5 53.5q-108 0 -181 -104q-67 -93 -110 -262q-41 -172 -41 -306
q0 -241 172 -241q138 0 209 139q52 101 86 268q35 172 35 285zM578 1298q0 -45 -30.5 -77.5t-76.5 -32.5q-38 0 -63 25t-25 63q0 51 30.5 83t78.5 32q38 0 62 -26t24 -67zM899 1298q0 -46 -29 -78t-75 -32q-38 0 -63 25t-25 63q0 51 30.5 83t77.5 32q38 0 61 -25.5t23 -67.5
z" />
    <glyph glyph-name="divide" unicode="&#xf7;" horiz-adv-x="1302" 
d="M805 872q0 -45 -27.5 -74.5t-70.5 -29.5q-37 0 -60.5 23t-23.5 61q0 47 29 78t73 31q80 0 80 -89zM197 614h946l-25 -120h-944zM684 248q0 -43 -29 -73t-71 -30q-37 0 -60.5 22.5t-23.5 59.5q0 47 29 78t73 31q38 0 60 -23.5t22 -64.5z" />
    <glyph glyph-name="oslash" unicode="&#xf8;" horiz-adv-x="1011" 
d="M201 39l-84 -117l-47 33l88 125q-80 95 -80 262q0 159 48 301t146 236q125 122 322 122q115 0 192 -47l84 119l50 -33l-89 -120q89 -83 89 -254q0 -145 -43 -293t-127 -252q-127 -148 -334 -148q-128 0 -215 66zM752 723q0 36 -7 76l-477 -666q40 -102 152 -102
q138 0 209 139q52 103 86 272q37 167 37 281zM246 272q0 -37 4 -65l475 663q-41 74 -143 74q-106 0 -185 -104q-67 -93 -110 -262q-41 -172 -41 -306z" />
    <glyph glyph-name="ugrave" unicode="&#xf9;" horiz-adv-x="1128" 
d="M1001 76l3 -10q-115 -80 -232 -80q-48 0 -67 23.5t-19 78.5q0 75 35 236q-66 -136 -195 -246q-126 -105 -252 -105q-78 0 -115.5 35.5t-37.5 120.5q0 73 98 514q33 138 33 213q0 39 -23 55q-26 20 -86 23v10q101 49 236 49q36 0 49.5 -11.5t13.5 -43.5q0 -44 -43 -229
q-106 -455 -106 -531q0 -45 18 -64.5t64 -19.5q71 0 153 64t136 143q57 82 84 213l96 461h162l-109 -524q-43 -203 -43 -297q0 -86 68 -86q43 0 79 8zM545 1448l170 -301l-8 -8l-271 209q-55 43 -55 88q0 32 23.5 52.5t56.5 20.5q47 0 84 -61z" />
    <glyph glyph-name="uacute" unicode="&#xfa;" horiz-adv-x="1128" 
d="M1001 76l3 -10q-115 -80 -232 -80q-48 0 -67 23.5t-19 78.5q0 75 35 236q-66 -136 -195 -246q-126 -105 -252 -105q-78 0 -115.5 35.5t-37.5 120.5q0 73 98 514q33 138 33 213q0 39 -23 55q-26 20 -86 23v10q101 49 236 49q36 0 49.5 -11.5t13.5 -43.5q0 -44 -43 -229
q-106 -455 -106 -531q0 -45 18 -64.5t64 -19.5q71 0 153 64t136 143q57 82 84 213l96 461h162l-109 -524q-43 -203 -43 -297q0 -86 68 -86q43 0 79 8zM881 1339l-316 -204l-8 8l221 295q45 63 94 63q33 0 54.5 -19.5t21.5 -51.5q0 -45 -67 -91z" />
    <glyph glyph-name="ucircumflex" unicode="&#xfb;" horiz-adv-x="1128" 
d="M1001 76l3 -10q-115 -80 -232 -80q-48 0 -67 23.5t-19 78.5q0 75 35 236q-66 -136 -195 -246q-126 -105 -252 -105q-78 0 -115.5 35.5t-37.5 120.5q0 73 98 514q33 138 33 213q0 39 -23 55q-26 20 -86 23v10q101 49 236 49q36 0 49.5 -11.5t13.5 -43.5q0 -44 -43 -229
q-106 -455 -106 -531q0 -45 18 -64.5t64 -19.5q71 0 153 64t136 143q57 82 84 213l96 461h162l-109 -524q-43 -203 -43 -297q0 -86 68 -86q43 0 79 8zM803 1432l135 -291l-12 -8l-215 198l-310 -198l-8 10l264 291q43 48 84.5 47.5t61.5 -49.5z" />
    <glyph glyph-name="udieresis" unicode="&#xfc;" horiz-adv-x="1128" 
d="M1001 76l3 -10q-115 -80 -232 -80q-48 0 -67 23.5t-19 78.5q0 75 35 236q-66 -136 -195 -246q-126 -105 -252 -105q-78 0 -115.5 35.5t-37.5 120.5q0 73 98 514q33 138 33 213q0 39 -23 55q-26 20 -86 23v10q101 49 236 49q36 0 49.5 -11.5t13.5 -43.5q0 -44 -43 -229
q-106 -455 -106 -531q0 -45 18 -64.5t64 -19.5q71 0 153 64t136 143q57 82 84 213l96 461h162l-109 -524q-43 -203 -43 -297q0 -86 68 -86q43 0 79 8zM614 1298q0 -45 -30 -77.5t-76 -32.5q-38 0 -63 25t-25 63q0 51 30.5 83t77.5 32q38 0 62 -26t24 -67zM936 1298
q0 -46 -29.5 -78t-75.5 -32q-38 0 -63 25t-25 63q0 51 30.5 83t78.5 32q38 0 61 -25.5t23 -67.5z" />
    <glyph glyph-name="yacute" unicode="&#xfd;" horiz-adv-x="966" 
d="M-178 -295h14q21 -94 78 -94q64 0 135 65q108 94 266 312h-77l-39 805q-3 95 -33 118q-24 17 -88 23l-2 10q57 27 123 41q82 16 116 16q36 0 45 -45l7 -69q2 -33 2 -51q9 -147 24 -762q185 288 291 473q133 233 133 330q0 40 -43 49l-61 10l-2 10q47 24 110 39
q69 16 97 16q45 0 45 -36q0 -84 -152 -342q-115 -198 -414 -631q-179 -255 -288 -367q-124 -133 -230 -133q-82 0 -82 64q0 57 25 149zM834 1339l-316 -204l-8 8l221 295q45 63 94 63q33 0 54.5 -19.5t21.5 -51.5q0 -45 -67 -91z" />
    <glyph glyph-name="thorn" unicode="&#xfe;" horiz-adv-x="1101" 
d="M336 -440l-2 -11h-457l2 11q80 22 105 59q31 44 57 166l256 1216q49 235 49 324q0 37 -10 57q-17 23 -86 35v10q142 46 252 46q26 0 35.5 -10t9.5 -36q0 -24 -37 -206q-76 -351 -129 -559q75 159 197 247q124 92 229 92q106 0 153.5 -58.5t47.5 -197.5q0 -145 -64 -331
q-61 -184 -164 -293q-146 -146 -352 -146q-96 0 -178 29l-43 -211q-17 -93 -17 -127q0 -41 28.5 -61t117.5 -45zM281 113q0 -31 28 -47q52 -25 135 -25q130 0 215 117q59 79 113 272q51 182 51 297q0 162 -114 162q-78 0 -172 -82q-95 -83 -150 -211q-20 -50 -45 -158
l-41 -192q-20 -84 -20 -133z" />
    <glyph glyph-name="ydieresis" unicode="&#xff;" horiz-adv-x="966" 
d="M-182 -295h14q21 -94 78 -94q64 0 135 65q108 94 266 312h-78l-38 805q-3 95 -33 118q-24 17 -88 23l-2 10q57 27 123 41q82 16 116 16q36 0 45 -45l6 -69q3 -50 3 -51q9 -147 24 -762q185 288 291 473q133 233 133 330q0 40 -43 49l-61 10l-2 10q47 24 110 39
q69 16 96 16q45 0 45 -36q0 -85 -151 -342q-115 -198 -414 -631q-176 -251 -289 -367q-124 -133 -229 -133q-82 0 -82 64q0 57 25 149zM551 1298q0 -45 -30.5 -77.5t-76.5 -32.5q-38 0 -63 25t-25 63q0 51 30.5 83t78.5 32q38 0 62 -26t24 -67zM872 1298q0 -46 -29 -78
t-75 -32q-38 0 -63 25t-25 63q0 51 30.5 83t77.5 32q38 0 61 -25.5t23 -67.5z" />
    <glyph glyph-name="Amacron" unicode="&#x100;" horiz-adv-x="1320" 
d="M276 12l-2 -12h-372l2 12q52 13 90 43q45 39 90 115l508 891l176 305h121l22 -156q23 -131 23 -137l133 -868q18 -119 49 -150q25 -28 92 -43l-2 -12h-458l2 12q47 11 94 35q39 20 39 74q0 43 -6 86l-41 278h-480l-159 -290q-43 -76 -43 -111q0 -33 32 -47zM395 557h430
l-90 623q-58 -116 -340 -623zM1124 1638l-20 -110h-539l23 110h536z" />
    <glyph glyph-name="amacron" unicode="&#x101;" horiz-adv-x="1089" 
d="M977 76l4 -10q-118 -80 -242 -80q-82 0 -82 96q0 109 35 258q-84 -175 -200 -271t-230 -96q-97 0 -145.5 58t-48.5 200q0 171 79 369q83 200 209 295q135 106 332 106q198 0 313 -53q-57 -72 -149 -596q-21 -117 -21 -207q0 -79 62 -79q39 0 84 10zM791 881q0 26 -19 39
q-30 18 -115 18q-112 0 -188 -76q-86 -80 -154 -274q-67 -192 -67 -330q0 -168 104 -168q76 0 166 78t150 207q49 110 112 424q11 64 11 82zM991 1323l-28 -115h-496l29 115h495z" />
    <glyph glyph-name="Abreve" unicode="&#x102;" horiz-adv-x="1320" 
d="M276 12l-2 -12h-372l2 12q52 13 90 43q45 39 90 115l508 891l176 305h121l22 -156q23 -131 23 -137l133 -868q18 -119 49 -150q25 -28 92 -43l-2 -12h-458l2 12q47 11 94 35q39 20 39 74q0 43 -6 86l-41 278h-480l-159 -290q-43 -76 -43 -111q0 -33 32 -47zM395 557h430
l-90 623q-58 -116 -340 -623zM1108 1749l14 -2q-44 -274 -286 -274q-220 0 -220 210q0 29 9 66h12q5 -74 59.5 -116t151.5 -42q195 0 260 158z" />
    <glyph glyph-name="abreve" unicode="&#x103;" horiz-adv-x="1089" 
d="M977 76l4 -10q-118 -80 -242 -80q-82 0 -82 96q0 109 35 258q-84 -175 -200 -271t-230 -96q-97 0 -145.5 58t-48.5 200q0 171 79 369q83 200 209 295q135 106 332 106q198 0 313 -53q-57 -72 -149 -596q-21 -117 -21 -207q0 -79 62 -79q39 0 84 10zM791 881q0 26 -19 39
q-30 18 -115 18q-112 0 -188 -76q-86 -80 -154 -274q-67 -192 -67 -330q0 -168 104 -168q76 0 166 78t150 207q49 110 112 424q11 64 11 82zM971 1432l14 -2q-20 -119 -82 -203q-59 -80 -196 -80q-205 0 -205 217q0 47 8 68h12q15 -164 195 -164q101 0 157.5 38t96.5 126z
" />
    <glyph glyph-name="Aogonek" unicode="&#x104;" horiz-adv-x="1320" 
d="M1008 -348l6 -4l-2 -8q0 -16 -17 -33q-41 -41 -125 -41q-91 0 -139.5 43.5t-48.5 114.5q0 174 248 276h-182l2 12q47 11 94 35q39 20 39 74q0 43 -6 86l-41 278h-480l-159 -290q-43 -76 -43 -111q0 -33 32 -47l90 -25l-2 -12h-372l2 12q52 13 90 43q45 39 90 115l508 891
l176 305h121l22 -156q23 -131 23 -137l133 -868q18 -119 49 -150q25 -28 92 -43l-2 -12h-229q-168 -104 -168 -252q0 -113 111 -113q57 0 88 17zM395 557h430l-90 623q-58 -116 -340 -623z" />
    <glyph glyph-name="aogonek" unicode="&#x105;" horiz-adv-x="1089" 
d="M852 -334l6 -4l-2 -10q0 -17 -16 -33q-42 -39 -121 -39q-90 0 -136 41.5t-46 112.5q0 161 204 252h-2q-82 0 -82 96q0 109 35 258q-84 -175 -200 -271t-230 -96q-97 0 -145.5 58t-48.5 200q0 171 79 369q83 200 209 295q135 106 332 106q198 0 313 -53q-57 -72 -149 -596
q-21 -117 -21 -207q0 -79 62 -79q39 0 84 10l4 -10q-72 -52 -166 -70q-156 -102 -156 -240q0 -108 107 -108q59 0 86 18zM791 881q0 26 -19 39q-30 18 -115 18q-112 0 -188 -76q-86 -80 -154 -274q-67 -192 -67 -330q0 -168 104 -168q76 0 166 78t150 207q49 110 112 424
q11 64 11 82z" />
    <glyph glyph-name="Cacute" unicode="&#x106;" horiz-adv-x="1269" 
d="M1118 260l12 -2q-14 -109 -38 -168q-14 -35 -95 -70q-115 -47 -329 -47q-272 0 -413.5 143t-141.5 400q0 243 94.5 443.5t275.5 316.5q188 117 461 117q173 0 285 -47q53 -21 53 -60q0 -61 -53 -215h-12q-17 116 -62 170q-71 80 -229 80q-216 0 -371 -137
q-120 -108 -178 -283q-60 -180 -60 -364q0 -229 108 -360.5t306 -131.5q147 0 250 68q75 51 137 147zM1126 1618l-352 -145l-8 12l281 256q46 43 88 43q32 0 53.5 -23.5t21.5 -58.5q0 -49 -84 -84z" />
    <glyph glyph-name="cacute" unicode="&#x107;" horiz-adv-x="845" 
d="M715 184l8 -2q-2 -12 -14 -49q-9 -26 -50 -61q-120 -99 -294 -99q-141 0 -217 81t-76 233q0 173 61 338q61 164 164 260q125 116 317 116q109 0 168 -26q39 -17 39 -47q0 -65 -45 -170h-12q-23 95 -65.5 137.5t-110.5 42.5q-100 0 -172 -84q-70 -79 -119 -236
q-45 -145 -45 -299q0 -123 54 -181t147 -58q152 0 262 104zM868 1339l-315 -204l-8 8l221 295q45 63 94 63q33 0 54.5 -19.5t21.5 -51.5q0 -44 -68 -91z" />
    <glyph glyph-name="Ccircumflex" unicode="&#x108;" horiz-adv-x="1269" 
d="M1118 260l12 -2q-14 -109 -38 -168q-14 -35 -95 -70q-115 -47 -329 -47q-272 0 -413.5 143t-141.5 400q0 243 94.5 443.5t275.5 316.5q188 117 461 117q173 0 285 -47q53 -21 53 -60q0 -61 -53 -215h-12q-17 116 -62 170q-71 80 -229 80q-216 0 -371 -137
q-120 -108 -178 -283q-60 -180 -60 -364q0 -229 108 -360.5t306 -131.5q147 0 250 68q75 51 137 147zM1032 1714l174 -256l-12 -10l-254 166l-324 -164l-10 14l279 254q39 39 80 39q37 0 67 -43z" />
    <glyph glyph-name="ccircumflex" unicode="&#x109;" horiz-adv-x="845" 
d="M715 184l8 -2q-2 -12 -14 -49q-9 -26 -50 -61q-120 -99 -294 -99q-141 0 -217 81t-76 233q0 173 61 338q61 164 164 260q125 116 317 116q109 0 168 -26q39 -17 39 -47q0 -65 -45 -170h-12q-23 95 -65.5 137.5t-110.5 42.5q-100 0 -172 -84q-70 -79 -119 -236
q-45 -145 -45 -299q0 -123 54 -181t147 -58q152 0 262 104zM768 1432l135 -291l-12 -8l-215 198l-309 -198l-9 10l265 291q44 47 84 47t61 -49z" />
    <glyph glyph-name="Cdotaccent" unicode="&#x10a;" horiz-adv-x="1269" 
d="M1118 260l12 -2q-14 -109 -38 -168q-14 -35 -95 -70q-115 -47 -329 -47q-272 0 -413.5 143t-141.5 400q0 243 94.5 443.5t275.5 316.5q188 117 461 117q173 0 285 -47q53 -21 53 -60q0 -61 -53 -215h-12q-17 116 -62 170q-71 80 -229 80q-216 0 -371 -137
q-120 -108 -178 -283q-60 -180 -60 -364q0 -229 108 -360.5t306 -131.5q147 0 250 68q75 51 137 147zM1014 1579q0 -45 -30.5 -78t-76.5 -33q-39 0 -64.5 24t-25.5 64q0 51 31 84t80 33q38 0 62 -25.5t24 -68.5z" />
    <glyph glyph-name="cdotaccent" unicode="&#x10b;" horiz-adv-x="845" 
d="M715 184l8 -2q-2 -12 -14 -49q-9 -26 -50 -61q-120 -99 -294 -99q-141 0 -217 81t-76 233q0 173 61 338q61 164 164 260q125 116 317 116q109 0 168 -26q39 -17 39 -47q0 -65 -45 -170h-12q-23 95 -65.5 137.5t-110.5 42.5q-100 0 -172 -84q-70 -79 -119 -236
q-45 -145 -45 -299q0 -123 54 -181t147 -58q152 0 262 104zM748 1298q0 -45 -30.5 -77.5t-76.5 -32.5q-38 0 -63 25t-25 63q0 51 30.5 83t78.5 32q38 0 62 -26t24 -67z" />
    <glyph glyph-name="Ccaron" unicode="&#x10c;" horiz-adv-x="1269" 
d="M1118 260l12 -2q-14 -109 -38 -168q-14 -35 -95 -70q-115 -47 -329 -47q-272 0 -413.5 143t-141.5 400q0 243 94.5 443.5t275.5 316.5q188 117 461 117q173 0 285 -47q53 -21 53 -60q0 -61 -53 -215h-12q-17 116 -62 170q-71 80 -229 80q-216 0 -371 -137
q-120 -108 -178 -283q-60 -180 -60 -364q0 -229 108 -360.5t306 -131.5q147 0 250 68q75 51 137 147zM819 1505l-174 256l10 11l254 -164l326 161l8 -12l-278 -256q-39 -39 -80 -39q-39 0 -66 43z" />
    <glyph glyph-name="ccaron" unicode="&#x10d;" horiz-adv-x="845" 
d="M715 184l8 -2q-2 -12 -14 -49q-9 -26 -50 -61q-120 -99 -294 -99q-141 0 -217 81t-76 233q0 173 61 338q61 164 164 260q125 116 317 116q109 0 168 -26q39 -17 39 -47q0 -65 -45 -170h-12q-23 95 -65.5 137.5t-110.5 42.5q-100 0 -172 -84q-70 -79 -119 -236
q-45 -145 -45 -299q0 -123 54 -181t147 -58q152 0 262 104zM547 1180l-133 290l10 11l215 -201l309 199l10 -11l-266 -290q-41 -48 -81.5 -47.5t-63.5 49.5z" />
    <glyph glyph-name="Dcaron" unicode="&#x10e;" horiz-adv-x="1462" 
d="M565 0h-540l2 12q110 27 133 78q20 38 53 207l149 764q29 161 29 194q0 40 -24.5 60t-92.5 39l2 12h510q312 0 451 -109q164 -126 164 -385q0 -152 -29.5 -281.5t-94 -239.5t-161 -187t-237 -120.5t-314.5 -43.5zM563 1128l-170 -860q-19 -92 -16.5 -133t31.5 -51
q53 -16 167 -16q299 0 461 223q164 226 164 573q0 180 -76 287q-108 147 -350 147h-45q-95 0 -121 -26q-17 -14 -45 -144zM752 1505l-174 256l10 11l254 -164l325 161l9 -12l-279 -256q-41 -39 -80 -38.5t-65 42.5z" />
    <glyph glyph-name="dcaron" unicode="&#x10f;" horiz-adv-x="1112" 
d="M983 76l2 -10q-124 -80 -235 -80q-47 0 -66.5 23t-19.5 77q0 102 30 240q-85 -167 -202 -260t-224 -93q-99 0 -147.5 55t-48.5 195q0 172 80 373q80 204 204 297q138 108 324 108q91 0 141 -20l15 61q38 162 38 252q0 50 -14 64q-21 21 -84 33v10q139 45 256 45
q43 0 43 -41q0 -33 -43 -215l-119 -549q-75 -343 -75 -491q0 -84 59 -84q41 0 86 10zM676 375q37 81 108 422q11 64 11 82q0 26 -23 36q-44 23 -117 23q-104 0 -182 -78q-88 -91 -154 -278q-67 -186 -67 -328q0 -164 102 -164q78 0 170.5 78t151.5 207zM1106 1030l-6 17
q184 88 184 178q0 35 -31 63q-34 30 -34 72q0 37 25.5 60.5t66.5 23.5q50 0 78 -31t28 -86q0 -101 -87 -178.5t-224 -118.5z" />
    <glyph glyph-name="Dcroat" unicode="&#x110;" horiz-adv-x="1462" 
d="M565 0h-540l2 12q110 27 133 78q20 38 53 207l74 379h-191l19 86h188l59 299q29 161 29 194q0 40 -24.5 60t-92.5 39l2 12h510q312 0 451 -109q164 -126 164 -385q0 -152 -29.5 -281.5t-94 -239.5t-161 -187t-237 -120.5t-314.5 -43.5zM473 676l-80 -408
q-19 -92 -16.5 -133t31.5 -51q53 -16 167 -16q299 0 461 223q164 226 164 573q0 180 -76 287q-108 147 -350 147h-45q-95 0 -121 -26q-17 -14 -45 -144l-71 -366h352l-19 -86h-352z" />
    <glyph glyph-name="dslash" unicode="&#x111;" horiz-adv-x="1112" 
d="M979 76l2 -10q-124 -80 -236 -80q-47 0 -66.5 23t-19.5 77q0 97 31 240q-85 -167 -202 -260t-224 -93q-99 0 -147.5 55t-48.5 195q0 175 79 373q80 203 205 297q138 108 324 108q91 0 141 -20l14 61q6 35 13.5 70.5t7.5 36.5h-244l17 74h237q8 39 8 71q0 50 -14 64
q-21 21 -84 33v10q139 45 256 45q43 0 43 -41q0 -30 -35 -182h162l-14 -74h-166l-109 -508q-75 -343 -75 -491q0 -84 59 -84q41 0 86 10zM672 375q37 81 108 422q11 64 11 82q0 26 -23 36q-44 23 -117 23q-104 0 -182 -78q-88 -91 -154 -278q-67 -186 -67 -328
q0 -164 102 -164q78 0 170.5 78t151.5 207z" />
    <glyph glyph-name="Emacron" unicode="&#x112;" horiz-adv-x="1120" 
d="M885 0h-860l2 12q83 18 114 49q35 35 62 175l174 903q14 71 14 116q0 37 -22 57t-95 42l2 12h799q45 0 45 -35q0 -48 -55 -225h-14q-15 145 -74 172q-28 14 -137 14h-189q-35 0 -49 -15.5t-22 -57.5l-93 -471h156q114 0 166 10q50 10 78 38t59 97h15l-72 -363h-15
q-5 66 -25.5 97t-74.5 41q-36 8 -143 8h-156l-92 -477q-10 -72 -10 -80q0 -43 84 -43h217q130 0 194 43q68 49 136 162h12q-16 -110 -47 -228q-7 -34 -24 -43.5t-60 -9.5zM1044 1638l-20 -110h-539l23 110h536z" />
    <glyph glyph-name="emacron" unicode="&#x113;" horiz-adv-x="886" 
d="M721 184l6 -4q0 -15 -6 -30q-16 -37 -35 -56q-50 -54 -132 -87.5t-181 -33.5q-297 0 -297 326q0 146 57 305q59 164 152 262q132 135 321 135q236 0 236 -184q0 -111 -115 -217q-62 -57 -183 -92.5t-278 -36.5q-12 -59 -12 -147q0 -244 207 -244q147 0 260 104zM274 512
q206 18 316 103.5t110 213.5q0 115 -114 115q-103 0 -185.5 -113t-126.5 -319zM913 1323l-28 -115h-496l29 115h495z" />
    <glyph glyph-name="Ebreve" unicode="&#x114;" horiz-adv-x="1120" 
d="M885 0h-860l2 12q83 18 114 49q35 35 62 175l174 903q14 71 14 116q0 37 -22 57t-95 42l2 12h799q45 0 45 -35q0 -48 -55 -225h-14q-15 145 -74 172q-28 14 -137 14h-189q-35 0 -49 -15.5t-22 -57.5l-93 -471h156q114 0 166 10q50 10 78 38t59 97h15l-72 -363h-15
q-5 66 -25.5 97t-74.5 41q-36 8 -143 8h-156l-92 -477q-10 -72 -10 -80q0 -43 84 -43h217q130 0 194 43q68 49 136 162h12q-16 -110 -47 -228q-7 -34 -24 -43.5t-60 -9.5zM1022 1749l14 -2q-44 -274 -286 -274q-220 0 -220 210q0 29 9 66h12q5 -74 59.5 -116t151.5 -42
q195 0 260 158z" />
    <glyph glyph-name="ebreve" unicode="&#x115;" horiz-adv-x="886" 
d="M721 184l6 -4q0 -15 -6 -30q-16 -37 -35 -56q-50 -54 -132 -87.5t-181 -33.5q-297 0 -297 326q0 146 57 305q59 164 152 262q132 135 321 135q236 0 236 -184q0 -111 -115 -217q-62 -57 -183 -92.5t-278 -36.5q-12 -59 -12 -147q0 -244 207 -244q147 0 260 104zM274 512
q206 18 316 103.5t110 213.5q0 115 -114 115q-103 0 -185.5 -113t-126.5 -319zM885 1432l14 -2q-20 -119 -82 -203q-59 -80 -196 -80q-205 0 -205 217q0 47 8 68h12q15 -164 195 -164q101 0 157.5 38t96.5 126z" />
    <glyph glyph-name="Edotaccent" unicode="&#x116;" horiz-adv-x="1120" 
d="M885 0h-860l2 12q83 18 114 49q35 35 62 175l174 903q14 71 14 116q0 37 -22 57t-95 42l2 12h799q45 0 45 -35q0 -48 -55 -225h-14q-15 145 -74 172q-28 14 -137 14h-189q-35 0 -49 -15.5t-22 -57.5l-93 -471h156q114 0 166 10q50 10 78 38t59 97h15l-72 -363h-15
q-5 66 -25.5 97t-74.5 41q-36 8 -143 8h-156l-92 -477q-10 -72 -10 -80q0 -43 84 -43h217q130 0 194 43q68 49 136 162h12q-16 -110 -47 -228q-7 -34 -24 -43.5t-60 -9.5zM862 1579q0 -45 -30 -78t-76 -33q-39 0 -64.5 24t-25.5 64q0 51 30.5 84t79.5 33q38 0 62 -25.5
t24 -68.5z" />
    <glyph glyph-name="edotaccent" unicode="&#x117;" horiz-adv-x="886" 
d="M721 184l6 -4q0 -15 -6 -30q-16 -37 -35 -56q-50 -54 -132 -87.5t-181 -33.5q-297 0 -297 326q0 146 57 305q59 164 152 262q132 135 321 135q236 0 236 -184q0 -111 -115 -217q-62 -57 -183 -92.5t-278 -36.5q-12 -59 -12 -147q0 -244 207 -244q147 0 260 104zM274 512
q206 18 316 103.5t110 213.5q0 115 -114 115q-103 0 -185.5 -113t-126.5 -319zM750 1298q0 -45 -30.5 -77.5t-76.5 -32.5q-38 0 -63 25t-25 63q0 51 30.5 83t78.5 32q38 0 62 -26t24 -67z" />
    <glyph glyph-name="Eogonek" unicode="&#x118;" horiz-adv-x="1120" 
d="M838 0h-813l2 12q83 18 114 49q35 35 62 175l174 903q14 71 14 116q0 37 -22 57t-95 42l2 12h799q45 0 45 -35q0 -48 -55 -225h-14q-15 145 -74 172q-28 14 -137 14h-189q-35 0 -49 -15.5t-22 -57.5l-93 -471h156q114 0 166 10q50 10 78 38t59 97h15l-72 -363h-15
q-5 66 -25.5 97t-74.5 41q-36 8 -143 8h-156l-92 -477q-10 -72 -10 -80q0 -43 84 -43h217q130 0 194 43q68 49 136 162h12q-16 -110 -47 -228q-7 -34 -23.5 -43.5t-56.5 -9.5q-164 -105 -164 -244q0 -108 106 -108q60 0 87 18l6 -4l-2 -10q0 -16 -17 -33q-42 -39 -121 -39
q-90 0 -136 41.5t-46 112.5q0 172 236 266z" />
    <glyph glyph-name="eogonek" unicode="&#x119;" horiz-adv-x="886" 
d="M524 -334l6 -4l-2 -10q0 -17 -16 -33q-42 -39 -121 -39q-90 0 -136 41.5t-46 112.5q0 151 178 239h-14q-297 0 -297 326q0 146 57 305q59 164 152 262q132 135 321 135q236 0 236 -184q0 -111 -115 -217q-62 -57 -183 -92.5t-278 -36.5q-12 -59 -12 -147q0 -244 207 -244
q147 0 260 104l6 -4q0 -15 -6 -30q-16 -37 -35 -56q-80 -89 -217 -110q-137 -101 -137 -228q0 -108 106 -108q59 0 86 18zM274 512q206 18 316 103.5t110 213.5q0 115 -114 115q-103 0 -185.5 -113t-126.5 -319z" />
    <glyph glyph-name="Ecaron" unicode="&#x11a;" horiz-adv-x="1120" 
d="M885 0h-860l2 12q83 18 114 49q35 35 62 175l174 903q14 71 14 116q0 37 -22 57t-95 42l2 12h799q45 0 45 -35q0 -48 -55 -225h-14q-15 145 -74 172q-28 14 -137 14h-189q-35 0 -49 -15.5t-22 -57.5l-93 -471h156q114 0 166 10q50 10 78 38t59 97h15l-72 -363h-15
q-5 66 -25.5 97t-74.5 41q-36 8 -143 8h-156l-92 -477q-10 -72 -10 -80q0 -43 84 -43h217q130 0 194 43q68 49 136 162h12q-16 -110 -47 -228q-7 -34 -24 -43.5t-60 -9.5zM670 1505l-174 256l10 11l254 -164l325 161l9 -12l-279 -256q-39 -39 -80 -39q-38 0 -65 43z" />
    <glyph glyph-name="ecaron" unicode="&#x11b;" horiz-adv-x="886" 
d="M721 184l6 -4q0 -15 -6 -30q-16 -37 -35 -56q-50 -54 -132 -87.5t-181 -33.5q-297 0 -297 326q0 146 57 305q59 164 152 262q132 135 321 135q236 0 236 -184q0 -111 -115 -217q-62 -57 -183 -92.5t-278 -36.5q-12 -59 -12 -147q0 -244 207 -244q147 0 260 104zM274 512
q206 18 316 103.5t110 213.5q0 115 -114 115q-103 0 -185.5 -113t-126.5 -319zM547 1180l-133 290l10 11l215 -201l309 199l10 -11l-266 -290q-41 -48 -81.5 -47.5t-63.5 49.5z" />
    <glyph glyph-name="Gcircumflex" unicode="&#x11c;" horiz-adv-x="1415" 
d="M1141 25q-16 -1 -121 -17q-80 -12 -84 -12q-151 -23 -250 -23q-276 0 -424.5 145.5t-148.5 405.5q0 227 92 422q96 197 268 303q199 144 498 144q188 0 303 -47q55 -21 55 -64q0 -50 -53 -211h-12q-8 73 -39 133q-67 117 -271 117q-239 0 -405 -152q-113 -98 -171.5 -262
t-58.5 -364q0 -228 108.5 -362t311.5 -134q139 0 195 41q28 22 37 86l33 166q18 99 18 149q0 44 -27.5 68t-97.5 43l2 10h447l-3 -10q-65 -26 -94 -55q-27 -35 -61 -201l-27 -139q-20 -94 -20 -180zM1044 1714l175 -256l-13 -10l-254 166l-323 -164l-11 14l279 254
q39 39 80 39q37 0 67 -43z" />
    <glyph glyph-name="gcircumflex" unicode="&#x11d;" horiz-adv-x="1095" 
d="M188 -190h15q12 -100 73 -153.5t156 -53.5q117 0 195 78q86 86 157 362q2 7 82 303q-89 -173 -206.5 -266.5t-225.5 -93.5q-96 0 -145 57.5t-49 198.5q0 166 79 358q85 199 205 291q140 110 342 110q209 0 303 -55q-24 -35 -59 -174l-27 -123l-30 -149l-27 -129
q-76 -364 -123 -494q-45 -128 -131 -211q-132 -123 -366 -123q-150 0 -218 45q-34 21 -34 56q0 51 34 166zM965 881q0 21 -23 37q-33 20 -115 20q-104 0 -188 -78q-84 -81 -154 -270q-67 -189 -67 -324q0 -166 106 -166q73 0 168 80q92 77 152 213q33 69 110 408
q11 57 11 80zM1004 1432l135 -291l-13 -8l-215 198l-309 -198l-8 10l264 291q43 48 84.5 47.5t61.5 -49.5z" />
    <glyph glyph-name="Gbreve" unicode="&#x11e;" horiz-adv-x="1415" 
d="M1141 25q-16 -1 -121 -17q-80 -12 -84 -12q-151 -23 -250 -23q-276 0 -424.5 145.5t-148.5 405.5q0 227 92 422q96 197 268 303q199 144 498 144q188 0 303 -47q55 -21 55 -64q0 -50 -53 -211h-12q-8 73 -39 133q-67 117 -271 117q-239 0 -405 -152q-113 -98 -171.5 -262
t-58.5 -364q0 -228 108.5 -362t311.5 -134q139 0 195 41q28 22 37 86l33 166q18 99 18 149q0 44 -27.5 68t-97.5 43l2 10h447l-3 -10q-65 -26 -94 -55q-27 -35 -61 -201l-27 -139q-20 -94 -20 -180zM1196 1749l14 -2q-44 -274 -286 -274q-219 0 -219 210q0 33 8 66h12
q5 -74 59.5 -116t151.5 -42q195 0 260 158z" />
    <glyph glyph-name="gbreve" unicode="&#x11f;" horiz-adv-x="1095" 
d="M188 -190h15q12 -100 73 -153.5t156 -53.5q117 0 195 78q86 86 157 362q2 7 82 303q-89 -173 -206.5 -266.5t-225.5 -93.5q-96 0 -145 57.5t-49 198.5q0 166 79 358q85 199 205 291q140 110 342 110q209 0 303 -55q-24 -35 -59 -174l-27 -123l-30 -149l-27 -129
q-76 -364 -123 -494q-45 -128 -131 -211q-132 -123 -366 -123q-150 0 -218 45q-34 21 -34 56q0 51 34 166zM965 881q0 21 -23 37q-33 20 -115 20q-104 0 -188 -78q-84 -81 -154 -270q-67 -189 -67 -324q0 -166 106 -166q73 0 168 80q92 77 152 213q33 69 110 408
q11 57 11 80zM1122 1432l15 -2q-20 -119 -82 -203q-59 -80 -197 -80q-205 0 -205 217q0 44 9 68h12q15 -164 194 -164q101 0 157.5 38t96.5 126z" />
    <glyph glyph-name="Gdotaccent" unicode="&#x120;" horiz-adv-x="1415" 
d="M1141 25q-16 -1 -121 -17q-80 -12 -84 -12q-151 -23 -250 -23q-276 0 -424.5 145.5t-148.5 405.5q0 227 92 422q96 197 268 303q199 144 498 144q188 0 303 -47q55 -21 55 -64q0 -50 -53 -211h-12q-8 73 -39 133q-67 117 -271 117q-239 0 -405 -152q-113 -98 -171.5 -262
t-58.5 -364q0 -228 108.5 -362t311.5 -134q139 0 195 41q28 22 37 86l33 166q18 99 18 149q0 44 -27.5 68t-97.5 43l2 10h447l-3 -10q-65 -26 -94 -55q-27 -35 -61 -201l-27 -139q-20 -94 -20 -180zM1024 1579q0 -45 -30 -78t-76 -33q-39 0 -65 24t-26 64q0 51 31 84t80 33
q38 0 62 -25.5t24 -68.5z" />
    <glyph glyph-name="gdotaccent" unicode="&#x121;" horiz-adv-x="1095" 
d="M188 -190h15q12 -100 73 -153.5t156 -53.5q117 0 195 78q86 86 157 362q2 7 82 303q-89 -173 -206.5 -266.5t-225.5 -93.5q-96 0 -145 57.5t-49 198.5q0 166 79 358q85 199 205 291q140 110 342 110q209 0 303 -55q-24 -35 -59 -174l-27 -123l-30 -149l-27 -129
q-76 -364 -123 -494q-45 -128 -131 -211q-132 -123 -366 -123q-150 0 -218 45q-34 21 -34 56q0 51 34 166zM965 881q0 21 -23 37q-33 20 -115 20q-104 0 -188 -78q-84 -81 -154 -270q-67 -189 -67 -324q0 -166 106 -166q73 0 168 80q92 77 152 213q33 69 110 408
q11 57 11 80zM995 1298q0 -45 -30 -77.5t-76 -32.5q-38 0 -63 25t-25 63q0 51 30.5 83t77.5 32q38 0 62 -26t24 -67z" />
    <glyph glyph-name="Gcommaaccent" unicode="&#x122;" horiz-adv-x="1415" 
d="M1141 25q-16 -1 -121 -17q-80 -12 -84 -12q-151 -23 -250 -23q-276 0 -424.5 145.5t-148.5 405.5q0 227 92 422q96 197 268 303q199 144 498 144q188 0 303 -47q55 -21 55 -64q0 -50 -53 -211h-12q-8 73 -39 133q-67 117 -271 117q-239 0 -405 -152q-113 -98 -171.5 -262
t-58.5 -364q0 -228 108.5 -362t311.5 -134q139 0 195 41q28 22 37 86l33 166q18 99 18 149q0 44 -27.5 68t-97.5 43l2 10h447l-3 -10q-65 -26 -94 -55q-27 -35 -61 -201l-27 -139q-20 -94 -20 -180zM422 -506l-6 17q184 88 184 178q0 35 -31 63q-34 30 -34 72
q0 37 25.5 60.5t66.5 23.5q50 0 78 -31t28 -86q0 -101 -87 -178.5t-224 -118.5z" />
    <glyph glyph-name="gcommaaccent" unicode="&#x123;" horiz-adv-x="1095" 
d="M909 1548l9 -16q-79 -38 -130 -85.5t-51 -94.5q0 -33 31 -64q35 -35 35 -74q0 -37 -25 -60.5t-67 -23.5q-50 0 -78.5 32t-28.5 87q0 101 85 180t220 119zM16 -190h15q12 -100 73 -153.5t156 -53.5q117 0 195 78q86 86 157 362q2 7 82 303q-89 -173 -206.5 -266.5
t-225.5 -93.5q-96 0 -145 57.5t-49 198.5q0 166 79 358q85 199 205 291q140 110 342 110q209 0 303 -55q-24 -35 -59 -174l-27 -123l-30 -149l-27 -129q-76 -364 -123 -494q-45 -128 -131 -211q-132 -123 -367 -123q-149 0 -217 45q-34 21 -34 56q0 51 34 166zM793 881
q0 21 -23 37q-33 20 -115 20q-104 0 -188 -78q-84 -81 -154 -270q-67 -189 -67 -324q0 -166 106 -166q73 0 168 80q92 77 152 213q33 69 110 408q11 57 11 80z" />
    <glyph glyph-name="Hcircumflex" unicode="&#x124;" horiz-adv-x="1536" 
d="M1313 12l-2 -12h-465l2 12q88 21 123 62q22 28 57 192l82 410h-637l-80 -412q-20 -100 -20 -162q0 -34 27 -53t92 -37l-3 -12h-464l4 12q86 21 121 62q22 28 57 192l164 834q20 100 20 160q0 40 -23.5 58t-91.5 36l5 12h460l-4 -12q-79 -17 -116 -54q-32 -32 -62 -194
l-72 -358h637l70 352q20 100 20 160q0 40 -23.5 58t-92.5 36l4 12h461l-4 -12q-81 -18 -117 -54q-33 -38 -62 -194l-166 -842q-18 -94 -18 -162q0 -34 26 -53t91 -37zM1065 1714l174 -256l-12 -10l-254 166l-324 -164l-10 14l279 254q39 39 79 39q38 0 68 -43z" />
    <glyph glyph-name="hcircumflex" unicode="&#x125;" horiz-adv-x="1110" 
d="M348 481l-102 -481h-166l207 975q55 259 55 321q0 39 -10 56q-17 30 -90 39v10q142 45 258 45q26 0 34.5 -9t8.5 -34q0 -28 -37 -195l-60 -258l-61 -270q64 130 190 225q128 96 244 96q80 0 116 -31.5t36 -111.5q0 -75 -103 -549q-28 -143 -28 -192q0 -51 63 -51
q18 0 76 10l2 -10q-130 -80 -250 -80q-72 0 -72 73q0 43 35 209q105 458 105 535q0 48 -18.5 67t-67.5 19q-72 0 -160 -70q-92 -73 -133 -143q-44 -69 -72 -195zM608 1712l174 -256l-12 -10l-254 166l-323 -164l-11 14l279 254q39 39 80 39q37 0 67 -43z" />
    <glyph glyph-name="Hbar" unicode="&#x126;" horiz-adv-x="1536" 
d="M492 12l-3 -12h-464l4 12q86 21 121 62q22 28 57 192l137 703h-166l19 88h165l9 43q20 100 20 160q0 40 -23.5 58t-91.5 36l5 12h460l-4 -12q-79 -17 -116 -54q-32 -32 -62 -194l-10 -49h637l8 43q20 100 20 160q0 40 -23.5 58t-92.5 36l4 12h461l-4 -12
q-81 -18 -117 -54q-33 -38 -62 -194l-10 -49h164l-18 -88h-162l-140 -705q-18 -94 -18 -162q0 -34 26 -53t91 -37l-2 -12h-465l2 12q88 21 123 62q22 28 57 192l82 410h-637l-80 -412q-20 -100 -20 -162q0 -34 27 -53t92 -37zM1167 969h-635l-45 -221h637z" />
    <glyph glyph-name="hbar" unicode="&#x127;" horiz-adv-x="1110" 
d="M348 481l-102 -481h-166l207 975l35 174h-154l16 74h150q8 57 8 73q0 39 -10 56q-17 30 -90 39v10q142 45 258 45q26 0 34.5 -9t8.5 -34q0 -31 -35 -180h250l-17 -74h-249l-107 -469q64 130 190 225q128 96 244 96q80 0 116 -31.5t36 -111.5q0 -75 -103 -549
q-28 -143 -28 -192q0 -51 63 -51q18 0 76 10l2 -10q-130 -80 -250 -80q-72 0 -72 73q0 43 35 209q105 458 105 535q0 48 -18.5 67t-67.5 19q-72 0 -160 -70q-92 -73 -133 -143q-44 -69 -72 -195z" />
    <glyph glyph-name="Itilde" unicode="&#x128;" horiz-adv-x="718" 
d="M492 12l-3 -12h-464l4 12q86 21 121 62q22 28 57 192l164 836q20 100 20 158q0 40 -23.5 58t-91.5 36l3 12h462l-2 -12q-82 -18 -118 -54q-33 -33 -62 -192l-166 -844q-20 -100 -20 -162q0 -34 27 -53t92 -37zM823 1712l15 -6q-39 -104 -80.5 -152.5t-108.5 -48.5
q-47 0 -131 41q-82 39 -121 39q-73 0 -131 -98l-16 6q77 213 190 213q45 0 131 -45q75 -37 119 -37q43 0 72.5 20t60.5 68z" />
    <glyph glyph-name="itilde" unicode="&#x129;" horiz-adv-x="569" 
d="M662 1372l10 -6q-65 -197 -174 -197q-49 0 -140 45q-75 35 -108 35q-79 0 -137 -94l-13 4q76 211 189 211q32 0 119 -41q86 -45 120 -45q41 0 69 19.5t65 68.5zM436 76l2 -10q-127 -80 -252 -80q-75 0 -75 77q0 48 36 205l72 328q45 199 45 262q0 37 -14 51
q-19 22 -90 25v10q131 49 239 49q32 0 44 -11t12 -38q0 -26 -43 -223l-84 -399q-31 -143 -31 -203q0 -53 59 -53q12 0 80 10z" />
    <glyph glyph-name="Imacron" unicode="&#x12a;" horiz-adv-x="718" 
d="M492 12l-3 -12h-464l4 12q86 21 121 62q22 28 57 192l164 836q20 100 20 158q0 40 -23.5 58t-91.5 36l3 12h462l-2 -12q-82 -18 -118 -54q-33 -33 -62 -192l-166 -844q-20 -100 -20 -162q0 -34 27 -53t92 -37zM827 1638l-20 -110h-539l23 110h536z" />
    <glyph glyph-name="imacron" unicode="&#x12b;" horiz-adv-x="569" 
d="M645 1323l-29 -115h-495l29 115h495zM436 76l2 -10q-127 -80 -252 -80q-75 0 -75 77q0 48 36 205l72 328q45 199 45 262q0 37 -14 51q-19 22 -90 25v10q131 49 239 49q32 0 44 -11t12 -38q0 -26 -43 -223l-84 -399q-31 -143 -31 -203q0 -53 59 -53q12 0 80 10z" />
    <glyph glyph-name="Ibreve" unicode="&#x12c;" horiz-adv-x="718" 
d="M492 12l-3 -12h-464l4 12q86 21 121 62q22 28 57 192l164 836q20 100 20 158q0 40 -23.5 58t-91.5 36l3 12h462l-2 -12q-82 -18 -118 -54q-33 -33 -62 -192l-166 -844q-20 -100 -20 -162q0 -34 27 -53t92 -37zM811 1749l14 -2q-44 -274 -286 -274q-220 0 -220 210
q0 29 9 66h12q5 -74 59.5 -116t151.5 -42q195 0 260 158z" />
    <glyph glyph-name="ibreve" unicode="&#x12d;" horiz-adv-x="569" 
d="M631 1432l14 -2q-20 -119 -82 -203q-59 -80 -196 -80q-205 0 -205 217q0 47 8 68h12q15 -164 195 -164q101 0 157.5 38t96.5 126zM436 76l2 -10q-127 -80 -252 -80q-75 0 -75 77q0 48 36 205l72 328q45 199 45 262q0 37 -14 51q-19 22 -90 25v10q131 49 239 49
q32 0 44 -11t12 -38q0 -26 -43 -223l-84 -399q-31 -143 -31 -203q0 -53 59 -53q12 0 80 10z" />
    <glyph glyph-name="Iogonek" unicode="&#x12e;" horiz-adv-x="718" 
d="M295 -348l6 -4l-2 -8q0 -17 -16 -33q-41 -41 -125 -41q-91 0 -140 43.5t-49 114.5q0 174 248 276h-188l4 12q86 21 121 62q22 28 57 192l164 836q20 100 20 158q0 40 -23 58t-91 36l2 12h462l-2 -12q-82 -18 -118 -54q-33 -33 -62 -192l-166 -844q-20 -100 -20 -162
q0 -34 27 -53t92 -37l-2 -12h-230q-168 -104 -168 -252q0 -113 111 -113q57 0 88 17z" />
    <glyph glyph-name="iogonek" unicode="&#x12f;" horiz-adv-x="569" 
d="M285 -334l6 -4l-2 -10q0 -16 -17 -33q-42 -39 -120 -39q-90 0 -136.5 41.5t-46.5 112.5q0 161 205 252q-63 6 -63 77q0 57 36 207l72 326q43 194 43 262q0 37 -14 51q-19 22 -90 25v10q131 49 239 49q32 0 44 -11t12 -38q0 -12 -41 -223l-84 -399q-31 -143 -31 -203
q0 -53 59 -53q12 0 80 10l2 -10q-88 -58 -198 -76q-148 -103 -148 -234q0 -108 107 -108q59 0 86 18zM518 1341q0 -61 -32.5 -99t-88.5 -38q-45 0 -71.5 27t-26.5 74q0 55 34 92t89 37q44 0 70 -25.5t26 -67.5z" />
    <glyph glyph-name="Idot" unicode="&#x130;" horiz-adv-x="718" 
d="M492 12l-3 -12h-464l4 12q86 21 121 62q22 28 57 192l164 836q20 100 20 158q0 40 -23.5 58t-91.5 36l3 12h462l-2 -12q-82 -18 -118 -54q-33 -33 -62 -192l-166 -844q-20 -100 -20 -162q0 -34 27 -53t92 -37zM637 1579q0 -45 -30.5 -78t-76.5 -33q-39 0 -64.5 24
t-25.5 64q0 51 31 84t80 33q38 0 62 -25.5t24 -68.5z" />
    <glyph glyph-name="dotlessi" unicode="&#x131;" horiz-adv-x="569" 
d="M436 76l2 -10q-127 -80 -252 -80q-75 0 -75 77q0 48 36 205l72 328q45 199 45 262q0 37 -14 51q-19 22 -90 25v10q131 49 239 49q32 0 44 -11t12 -38q0 -26 -43 -223l-84 -399q-31 -143 -31 -203q0 -53 59 -53q12 0 80 10z" />
    <glyph glyph-name="IJ" unicode="&#x132;" horiz-adv-x="1437" 
d="M492 12l-3 -12h-464l4 12q86 21 121 62q22 28 57 192l164 836q20 100 20 158q0 40 -23.5 58t-91.5 36l3 12h462l-2 -12q-82 -18 -118 -54q-33 -33 -62 -192l-166 -844q-20 -100 -20 -162q0 -34 27 -53t92 -37zM559 -88h12q15 -158 131 -158q75 0 115 64q38 62 105 407
l172 879q18 92 18 151q0 40 -27 60.5t-96 38.5l2 12h469l-2 -12q-90 -21 -117 -54q-32 -43 -61 -192q-1 -7 -8 -44t-17 -90t-22 -112l-78 -411l-45 -240q-24 -134 -57 -236q-27 -83 -80 -151q-112 -148 -301 -148q-80 0 -109 13q-35 12 -35 47q0 52 31 176z" />
    <glyph glyph-name="ij" unicode="&#x133;" horiz-adv-x="1103" 
d="M436 76l2 -10q-127 -80 -252 -80q-75 0 -75 77q0 57 36 207l72 326q43 194 43 262q0 37 -14 51q-19 22 -90 25v10q131 49 239 49q32 0 44 -11t12 -38q0 -12 -41 -223l-84 -399q-31 -143 -31 -203q0 -53 59 -53q12 0 80 10zM518 1341q0 -61 -32.5 -99t-88.5 -38
q-45 0 -71.5 27t-26.5 74q0 55 34 92t89 37q44 0 70 -25.5t26 -67.5zM313 -244h15q12 -71 45 -107t78 -36q66 0 106 61q50 78 121 461l86 453q43 231 43 266q0 39 -14 53q-21 21 -91 27v10q140 51 248 51q29 0 39 -11.5t10 -39.5q0 -26 -149 -780q-46 -230 -76 -328
q-28 -95 -78 -158q-109 -133 -284 -133q-52 0 -95 19q-32 17 -32 51q4 56 28 141zM1055 1341q0 -61 -32.5 -99t-88.5 -38q-45 0 -71.5 27t-26.5 74q0 55 34 92t88 37q44 0 70.5 -25.5t26.5 -67.5z" />
    <glyph glyph-name="Jcircumflex" unicode="&#x134;" horiz-adv-x="708" 
d="M-162 -88h12q15 -158 132 -158q74 0 114 64q38 62 105 407l172 879q18 92 18 151q0 40 -27 60.5t-96 38.5l2 12h469l-2 -12q-89 -20 -116 -54q-33 -45 -62 -192q-1 -7 -8 -44t-17 -90t-22 -112l-78 -411l-45 -240q-24 -134 -57 -236q-27 -83 -80 -151
q-112 -148 -301 -148q-80 0 -109 13q-35 12 -35 47q0 52 31 176zM643 1714l174 -256l-12 -10l-254 166l-324 -164l-10 14l279 254q39 39 79 39q38 0 68 -43z" />
    <glyph glyph-name="jcircumflex" unicode="&#x135;" horiz-adv-x="548" 
d="M-238 -244h15q7 -71 40.5 -107t82.5 -36q66 0 106 61q50 79 119 463l86 451q45 213 45 266q0 44 -14 55q-19 22 -90 25v10q140 51 247 51q29 0 39.5 -11.5t10.5 -39.5q0 -35 -43 -244q-38 -179 -66 -329q-45 -238 -61 -316q-55 -291 -132 -374q-118 -136 -286 -136
q-51 0 -94 19q-33 17 -33 51q4 56 28 141zM483 1423l135 -290l-12 -9l-215 199l-309 -199l-8 11l264 292q46 46 84 46q40 0 61 -50z" />
    <glyph glyph-name="Kcommaaccent" unicode="&#x136;" horiz-adv-x="1353" 
d="M489 12l-4 -12h-460l4 12q80 15 123 64q20 26 55 190l164 836q20 97 20 158q0 37 -25.5 56.5t-91.5 37.5l2 12h465l-4 -12q-83 -18 -119 -54q-32 -40 -61 -192l-88 -438q185 156 477 436q123 120 123 172q0 49 -108 76l2 12h423l-2 -12q-60 -17 -112 -56
q-66 -49 -144 -122l-411 -385q314 -599 413 -709q40 -43 119 -66l-2 -12q-73 -8 -205 -8q-67 0 -102 21t-70 83q-49 84 -96 174l-115 230l-88 176q-97 -82 -116 -96l-62 -320q-20 -97 -20 -160q0 -58 116 -92zM428 -506l-6 17q184 88 184 178q0 35 -31 63q-34 30 -34 72
q0 37 25.5 60.5t66.5 23.5q50 0 78 -31t28 -86q0 -101 -87 -178.5t-224 -118.5z" />
    <glyph glyph-name="kcommaaccent" unicode="&#x137;" horiz-adv-x="1036" 
d="M334 432l-92 -432h-166l211 975q53 245 53 321q0 48 -16 64q-19 19 -84 31v10q142 45 260 45q23 0 31 -10t8 -37q0 -41 -39 -207q-60 -267 -125 -526q46 115 162 225t249 110q82 0 130.5 -43t48.5 -127q0 -110 -91.5 -199.5t-267.5 -144.5q85 -174 172 -323
q20 -34 66 -80q37 -29 67 -29q27 0 64 13l6 -9q-39 -34 -101.5 -60t-115.5 -26q-76 0 -123 86q-64 112 -188 390q-76 -15 -119 -17zM354 528l-12 -59q225 25 344 115.5t119 212.5q0 48 -28 75t-72 27q-109 0 -216 -125q-108 -123 -135 -246zM229 -506l-6 17q185 89 185 178
q0 35 -31 63q-35 30 -35 72q0 37 25.5 60.5t66.5 23.5q50 0 78.5 -31t28.5 -86q0 -101 -87.5 -178.5t-224.5 -118.5z" />
    <glyph glyph-name="kgreenlandic" unicode="&#x138;" horiz-adv-x="1013" 
d="M295 227l-49 -227h-166l113 520q53 245 53 326q0 44 -15 59q-18 18 -84 33v10q148 43 259 43q20 0 28 -10.5t8 -36.5q0 -53 -36 -203q-39 -170 -68 -278q88 183 289 381q165 157 278 157q64 0 64 -51q0 -54 -43 -155h-13q-14 49 -31.5 69.5t-47.5 20.5q-56 0 -136.5 -62
t-167.5 -168q101 -243 193 -417q64 -118 115 -158q30 -23 61 -23q16 0 70 13l4 -9q-43 -35 -107 -59q-76 -29 -123 -29q-41 0 -67.5 23.5t-57.5 81.5q-74 133 -200 428q-88 -113 -123 -279z" />
    <glyph glyph-name="Lacute" unicode="&#x139;" horiz-adv-x="1105" 
d="M895 0h-870l2 12q86 21 114 49q33 33 60 175l168 849q22 123 22 172q0 40 -26.5 61.5t-88.5 35.5l5 12h462l-4 -12q-95 -21 -118 -54q-30 -37 -64 -206l-174 -893q-10 -52 -10 -80q0 -25 17.5 -35t64.5 -10h225q128 0 190 45q63 41 136 164h12q-10 -100 -43 -228
q-10 -36 -25.5 -46.5t-54.5 -10.5zM760 1618l-352 -145l-9 12l281 256q46 43 88 43q32 0 54 -23.5t22 -58.5q0 -49 -84 -84z" />
    <glyph glyph-name="lacute" unicode="&#x13a;" horiz-adv-x="575" 
d="M422 76l2 -10q-130 -80 -246 -80q-74 0 -74 77q0 70 33 211l146 695q59 281 59 331q0 46 -14 60q-22 22 -84 31v10q131 45 245 45q29 0 38.5 -9t9.5 -36q0 -26 -43 -217l-185 -869q-26 -121 -26 -196q0 -53 59 -53q12 0 80 10zM694 1681l-352 -145l-8 12l280 256
q46 43 88 43q32 0 54 -23.5t22 -58.5q0 -49 -84 -84z" />
    <glyph glyph-name="Lcommaaccent" unicode="&#x13b;" horiz-adv-x="1105" 
d="M895 0h-870l2 12q86 21 114 49q33 33 60 175l168 849q22 123 22 172q0 40 -26.5 61.5t-88.5 35.5l5 12h462l-4 -12q-95 -21 -118 -54q-30 -37 -64 -206l-174 -893q-10 -52 -10 -80q0 -25 17.5 -35t64.5 -10h225q128 0 190 45q63 41 136 164h12q-10 -100 -43 -228
q-10 -36 -25.5 -46.5t-54.5 -10.5zM289 -506l-6 17q184 88 184 178q0 35 -31 63q-35 30 -35 72q0 37 26 60.5t67 23.5q50 0 78 -31t28 -86q0 -101 -87 -178.5t-224 -118.5z" />
    <glyph glyph-name="lcommaaccent" unicode="&#x13c;" horiz-adv-x="575" 
d="M422 76l2 -10q-130 -80 -246 -80q-74 0 -74 77q0 70 33 211l146 695q59 281 59 331q0 46 -14 60q-22 22 -84 31v10q131 45 245 45q29 0 38.5 -9t9.5 -36q0 -26 -43 -217l-185 -869q-26 -121 -26 -196q0 -53 59 -53q12 0 80 10zM0 -506l-6 17q184 88 184 178q0 35 -31 63
q-34 30 -34 72q0 37 25.5 60.5t66.5 23.5q50 0 78 -31t28 -86q0 -101 -87 -178.5t-224 -118.5z" />
    <glyph glyph-name="Lcaron" unicode="&#x13d;" horiz-adv-x="1105" 
d="M895 0h-870l2 12q86 21 114 49q33 33 60 175l168 849q22 123 22 172q0 40 -26.5 61.5t-88.5 35.5l5 12h462l-4 -12q-95 -21 -118 -54q-30 -37 -64 -206l-174 -893q-10 -52 -10 -80q0 -25 17.5 -35t64.5 -10h225q128 0 190 45q63 41 136 164h12q-10 -100 -43 -228
q-10 -36 -25.5 -46.5t-54.5 -10.5zM741 979l-6 16q185 89 185 179q0 35 -31 63q-35 30 -35 72q0 37 25.5 60.5t66.5 23.5q50 0 78.5 -31t28.5 -86q0 -101 -87.5 -178.5t-224.5 -118.5z" />
    <glyph glyph-name="lcaron" unicode="&#x13e;" horiz-adv-x="575" 
d="M422 76l2 -10q-130 -80 -246 -80q-74 0 -74 77q0 70 33 211l146 695q59 281 59 331q0 46 -14 60q-22 22 -84 31v10q131 45 245 45q29 0 38.5 -9t9.5 -36q0 -26 -43 -217l-185 -869q-26 -121 -26 -196q0 -53 59 -53q12 0 80 10zM578 1030l-7 17q185 89 185 178
q0 35 -31 63q-35 30 -35 72q0 37 25.5 60.5t66.5 23.5q50 0 78.5 -31t28.5 -86q0 -101 -87 -178.5t-224 -118.5z" />
    <glyph glyph-name="Ldot" unicode="&#x13f;" horiz-adv-x="1105" 
d="M1053 676q0 -57 -34 -94t-93 -37q-51 0 -82 29.5t-31 80.5q0 58 36.5 97t92.5 39q51 0 81 -32t30 -83zM895 0h-870l2 12q86 21 114 49q33 33 60 175l168 849q22 123 22 172q0 40 -26.5 61.5t-88.5 35.5l5 12h462l-4 -12q-95 -21 -118 -54q-30 -37 -64 -206l-174 -893
q-10 -52 -10 -80q0 -25 17.5 -35t64.5 -10h225q128 0 190 45q63 41 136 164h12q-10 -100 -43 -228q-10 -36 -25.5 -46.5t-54.5 -10.5z" />
    <glyph glyph-name="ldot" unicode="&#x140;" horiz-adv-x="796" 
d="M823 684q0 -56 -32.5 -92.5t-90.5 -36.5q-45 0 -77.5 31.5t-32.5 77.5q0 58 35.5 95.5t91.5 37.5q49 0 77.5 -31t28.5 -82zM422 76l2 -10q-130 -80 -246 -80q-74 0 -74 77q0 70 33 211l146 695q59 281 59 331q0 46 -14 60q-22 22 -84 31v10q131 45 245 45q29 0 38.5 -9
t9.5 -36q0 -26 -43 -217l-185 -869q-26 -121 -26 -196q0 -53 59 -53q12 0 80 10z" />
    <glyph glyph-name="Lslash" unicode="&#x141;" horiz-adv-x="1105" 
d="M262 553l-188 -100l-39 71l248 133l86 428q22 123 22 172q0 40 -26.5 61.5t-88.5 35.5l5 12h462l-4 -12q-95 -21 -118 -54q-30 -37 -64 -206l-63 -324l280 150l39 -72l-340 -182l-90 -465q-10 -52 -10 -80q0 -25 17.5 -35t64.5 -10h225q128 0 190 45q63 41 136 164h12
q-10 -100 -43 -228q-10 -36 -25.5 -46.5t-54.5 -10.5h-870l2 12q86 21 114 49q33 33 60 175z" />
    <glyph glyph-name="lslash" unicode="&#x142;" horiz-adv-x="575" 
d="M203 610l-135 -71l-33 65l188 98l56 267q59 281 59 331q0 46 -14 60q-22 22 -84 31v10q131 45 245 45q29 0 38 -9t9 -36q0 -26 -43 -217l-81 -383l159 84l33 -66l-213 -112l-82 -392q-26 -121 -26 -196q0 -53 59 -53q12 0 80 10l2 -10q-130 -80 -246 -80q-74 0 -74 77
q0 70 33 211z" />
    <glyph glyph-name="Nacute" unicode="&#x143;" horiz-adv-x="1482" 
d="M408 12l-2 -12h-381l4 12q90 24 125 68q27 37 57 194l154 785q28 156 28 194q0 42 -26 62q-32 25 -88 39l2 12h274q38 0 53 -27q420 -891 492 -1067l153 826q19 111 19 153t-28.5 65.5t-94.5 37.5l2 12h367l-2 -12q-88 -21 -119 -66q-29 -43 -58 -196l-219 -1106h-96
l-555 1231l-168 -938q-22 -119 -22 -168q0 -35 28.5 -57t100.5 -42zM1163 1640l-352 -145l-8 12l280 256q46 43 88 43q32 0 54 -23.5t22 -58.5q0 -49 -84 -84z" />
    <glyph glyph-name="nacute" unicode="&#x144;" horiz-adv-x="1126" 
d="M354 483l-102 -483h-166l115 530q45 205 45 320q0 41 -13 57q-21 24 -94 27v10q110 49 236 49q33 0 46 -12.5t13 -44.5q0 -90 -53 -279q58 134 188 240q128 104 256 104q77 0 115 -30q37 -30 37 -113q0 -78 -103 -549q-28 -131 -28 -186q0 -57 61 -57q20 0 78 10l2 -10
q-127 -80 -250 -80q-71 0 -71 73q0 48 34 209q105 463 105 533q0 48 -18 68t-64 20q-73 0 -164 -70q-92 -73 -133 -143q-49 -80 -72 -193zM872 1339l-315 -204l-8 8l221 295q45 63 94 63q33 0 54.5 -19.5t21.5 -51.5q0 -44 -68 -91z" />
    <glyph glyph-name="Ncommaaccent" unicode="&#x145;" horiz-adv-x="1482" 
d="M408 12l-2 -12h-381l4 12q90 24 125 68q27 37 57 194l154 785q28 156 28 194q0 42 -26 62q-32 25 -88 39l2 12h274q38 0 53 -27q420 -891 492 -1067l153 826q19 111 19 153t-28.5 65.5t-94.5 37.5l2 12h367l-2 -12q-88 -21 -119 -66q-29 -43 -58 -196l-219 -1106h-96
l-555 1231l-168 -938q-22 -119 -22 -168q0 -35 28.5 -57t100.5 -42zM434 -506l-6 17q184 88 184 178q0 36 -30 63q-35 30 -35 72q0 37 25.5 60.5t66.5 23.5q50 0 78 -31t28 -86q0 -101 -87 -178.5t-224 -118.5z" />
    <glyph glyph-name="ncommaaccent" unicode="&#x146;" horiz-adv-x="1126" 
d="M354 483l-102 -483h-166l115 530q45 205 45 320q0 41 -13 57q-21 24 -94 27v10q110 49 236 49q33 0 46 -12.5t13 -44.5q0 -90 -53 -279q58 134 188 240q128 104 256 104q77 0 115 -30q37 -30 37 -113q0 -78 -103 -549q-28 -131 -28 -186q0 -57 61 -57q20 0 78 10l2 -10
q-127 -80 -250 -80q-71 0 -71 73q0 48 34 209q105 463 105 533q0 48 -18 68t-64 20q-73 0 -164 -70q-92 -73 -133 -143q-49 -80 -72 -193zM242 -506l-6 17q184 88 184 178q0 35 -31 63q-35 30 -35 72q0 37 25.5 60.5t66.5 23.5q50 0 78.5 -31t28.5 -86q0 -101 -87 -178.5
t-224 -118.5z" />
    <glyph glyph-name="Ncaron" unicode="&#x147;" horiz-adv-x="1482" 
d="M408 12l-2 -12h-381l4 12q90 24 125 68q27 37 57 194l154 785q28 156 28 194q0 42 -26 62q-32 25 -88 39l2 12h274q38 0 53 -27q420 -891 492 -1067l153 826q19 111 19 153t-28.5 65.5t-94.5 37.5l2 12h367l-2 -12q-88 -21 -119 -66q-29 -43 -58 -196l-219 -1106h-96
l-555 1231l-168 -938q-22 -119 -22 -168q0 -35 28.5 -57t100.5 -42zM840 1505l-174 256l10 11l254 -164l325 161l9 -12l-279 -256q-39 -39 -80 -39q-38 0 -65 43z" />
    <glyph glyph-name="ncaron" unicode="&#x148;" horiz-adv-x="1126" 
d="M350 483l-102 -483h-166l115 530q45 205 45 320q0 41 -13 57q-21 24 -94 27v10q110 49 236 49q33 0 46 -12.5t13 -44.5q0 -90 -53 -279q58 134 188 240q128 104 256 104q77 0 115 -30q37 -30 37 -113q0 -78 -103 -549q-28 -131 -28 -186q0 -57 61 -57q20 0 78 10l2 -10
q-127 -80 -250 -80q-71 0 -71 73q0 48 34 209q105 463 105 533q0 48 -18 68t-64 20q-73 0 -164 -70q-92 -73 -133 -143q-49 -80 -72 -193zM539 1180l-133 290l10 11l215 -201l309 199l10 -11l-266 -290q-41 -48 -81.5 -47.5t-63.5 49.5z" />
    <glyph glyph-name="napostrophe" unicode="&#x149;" horiz-adv-x="1126" 
d="M354 483l-102 -483h-166l115 530q45 205 45 320q0 41 -13 57q-21 24 -94 27v10q110 49 236 49q33 0 46 -12.5t13 -44.5q0 -90 -53 -279q58 134 188 240q128 104 256 104q77 0 115 -30q37 -30 37 -113q0 -78 -103 -549q-28 -131 -28 -186q0 -57 61 -57q20 0 78 10l2 -10
q-127 -80 -250 -80q-71 0 -71 73q0 48 34 209q105 463 105 533q0 48 -18 68t-64 20q-73 0 -164 -70q-92 -73 -133 -143q-49 -80 -72 -193zM184 1112l-6 16q184 88 184 179q0 36 -30 63q-35 30 -35 72q0 37 25.5 60.5t66.5 23.5q50 0 78.5 -31t28.5 -86q0 -101 -87.5 -178.5
t-224.5 -118.5z" />
    <glyph glyph-name="Eng" unicode="&#x14a;" horiz-adv-x="1482" 
d="M412 12l-2 -12h-385l4 12q92 24 123 66q22 25 57 196q9 33 153 779q29 161 29 200q0 45 -26 62q-31 24 -89 39l3 12h276q37 0 51 -33l496 -1052q6 37 149 811q21 117 21 159t-29.5 65.5t-93.5 37.5l2 12h367l-2 -12q-88 -21 -119 -66q-25 -38 -60 -203l-204 -1038
q-16 -85 -37 -176q-28 -135 -80 -211q-88 -131 -266 -131q-72 0 -99 12q-33 14 -33 49q0 67 33 170h13q12 -151 127 -151q80 0 133 59q56 62 86 246l14 80l-555 1212l-168 -927q-25 -128 -25 -168q0 -39 31 -62.5t105 -36.5z" />
    <glyph glyph-name="eng" unicode="&#x14b;" horiz-adv-x="1126" 
d="M354 485l-102 -485h-166l113 526q47 214 47 324q0 33 -10 53q-19 28 -97 31v10q110 49 228 49q33 0 46 -12.5t13 -46.5q0 -108 -47 -279q64 137 190 242q125 104 252 104q77 0 113.5 -32.5t36.5 -110.5q0 -55 -49 -307q-44 -237 -109 -514q-68 -287 -145 -402
q-44 -66 -126.5 -104.5t-181.5 -38.5q-70 0 -94 12q-30 12 -30 43q0 54 32 154h13q1 -68 33.5 -105.5t84.5 -37.5q70 0 117 65q54 78 125 389q158 694 158 789q0 48 -17 68t-61 20q-74 0 -164 -72q-91 -72 -135 -145q-44 -75 -68 -187z" />
    <glyph glyph-name="Omacron" unicode="&#x14c;" horiz-adv-x="1388" 
d="M1329 909q0 -205 -72 -424q-72 -216 -213 -348q-176 -164 -444 -164q-231 0 -359 140.5t-128 386.5q0 199 69 397q71 204 211 332q86 78 205.5 121t243.5 43q239 0 363 -123t124 -361zM1124 948q0 375 -293 375q-182 0 -307 -152q-96 -116 -153 -321q-56 -201 -56 -395
q0 -410 301 -410q181 0 302 154q99 132 151 348q55 216 55 401zM1176 1638l-21 -110h-539l23 110h537z" />
    <glyph glyph-name="omacron" unicode="&#x14d;" horiz-adv-x="1011" 
d="M915 664q0 -145 -43 -293q-40 -147 -127 -250q-127 -148 -337 -148q-158 0 -244 97t-86 270q0 157 49 301t145 240q126 120 320 120q156 0 239.5 -84.5t83.5 -252.5zM748 723q0 114 -37.5 167.5t-132.5 53.5q-108 0 -181 -104q-67 -93 -110 -262q-41 -172 -41 -306
q0 -241 172 -241q138 0 209 139q52 101 86 268q35 172 35 285zM915 1323l-28 -115h-496l29 115h495z" />
    <glyph glyph-name="Obreve" unicode="&#x14e;" horiz-adv-x="1388" 
d="M1329 909q0 -205 -72 -424q-72 -216 -213 -348q-176 -164 -444 -164q-231 0 -359 140.5t-128 386.5q0 199 69 397q71 204 211 332q86 78 205.5 121t243.5 43q239 0 363 -123t124 -361zM1124 948q0 375 -293 375q-182 0 -307 -152q-96 -116 -153 -321q-56 -201 -56 -395
q0 -410 301 -410q181 0 302 154q99 132 151 348q55 216 55 401zM1135 1749l14 -2q-44 -274 -287 -274q-219 0 -219 210q0 33 8 66h13q5 -74 59 -116t151 -42q196 0 261 158z" />
    <glyph glyph-name="obreve" unicode="&#x14f;" horiz-adv-x="1011" 
d="M915 664q0 -145 -43 -293q-40 -147 -127 -250q-127 -148 -337 -148q-158 0 -244 97t-86 270q0 157 49 301t145 240q126 120 320 120q156 0 239.5 -84.5t83.5 -252.5zM748 723q0 114 -37.5 167.5t-132.5 53.5q-108 0 -181 -104q-67 -93 -110 -262q-41 -172 -41 -306
q0 -241 172 -241q138 0 209 139q52 101 86 268q35 172 35 285zM893 1432l14 -2q-20 -119 -82 -203q-59 -80 -196 -80q-205 0 -205 217q0 47 8 68h12q15 -164 195 -164q101 0 157.5 38t96.5 126z" />
    <glyph glyph-name="Ohungarumlaut" unicode="&#x150;" horiz-adv-x="1388" 
d="M1329 909q0 -205 -72 -424q-72 -216 -213 -348q-176 -164 -444 -164q-231 0 -359 140.5t-128 386.5q0 199 69 397q71 204 211 332q86 78 205.5 121t243.5 43q239 0 363 -123t124 -361zM1124 948q0 375 -293 375q-182 0 -307 -152q-96 -116 -153 -321q-56 -201 -56 -395
q0 -410 301 -410q181 0 302 154q99 132 151 348q55 216 55 401zM967 1630l-346 -157l-11 12l279 256q48 45 88 45q31 0 51.5 -19.5t20.5 -50.5q0 -49 -82 -86zM1309 1630l-348 -157l-9 12l279 256q48 45 86 45q32 0 52 -19t20 -51q0 -51 -80 -86z" />
    <glyph glyph-name="ohungarumlaut" unicode="&#x151;" horiz-adv-x="1011" 
d="M915 664q0 -145 -43 -293q-40 -147 -127 -250q-127 -148 -337 -148q-158 0 -244 97t-86 270q0 157 49 301t145 240q126 120 320 120q156 0 239.5 -84.5t83.5 -252.5zM748 723q0 114 -37.5 167.5t-132.5 53.5q-108 0 -181 -104q-67 -93 -110 -262q-41 -172 -41 -306
q0 -241 172 -241q138 0 209 139q52 101 86 268q35 172 35 285zM725 1339l-293 -206l-10 10l209 284q46 64 94 64q70 0 70 -59q0 -41 -70 -93zM1026 1339l-293 -206l-10 10l209 284q46 64 94 64q70 0 70 -59q0 -47 -70 -93z" />
    <glyph glyph-name="OE" unicode="&#x152;" horiz-adv-x="1857" 
d="M1743 283h12q-15 -108 -49 -232q-8 -32 -22 -41.5t-56 -9.5h-586q-87 0 -215 -8q-125 -8 -209 -8q-247 0 -376 130.5t-129 368.5q-1 117 21 228.5t65 213t111.5 186t156.5 146.5t204.5 95t250.5 30q78 0 190 -8t201 -8h499q26 0 36 -7.5t10 -27.5q0 -30 -56 -225h-14
q-10 89 -29.5 127t-56.5 49q-48 10 -131 10h-182q-36 0 -50 -15t-22 -58l-92 -471h159q109 0 164 10q47 7 73.5 35t64.5 102h12l-70 -360h-12q-5 65 -27 95t-76 40q-47 8 -141 8h-162l-90 -479q-10 -68 -10 -80q0 -25 17.5 -34t64.5 -9h223q125 0 187 39q57 34 141 168z
M936 225l182 930q8 44 8 66q0 35 -28 57q-50 35 -176 35q-212 0 -355 -137q-122 -116 -188 -320q-62 -201 -62 -403q0 -184 90.5 -291t258.5 -107q155 0 213 43q43 36 57 127z" />
    <glyph glyph-name="oe" unicode="&#x153;" horiz-adv-x="1511" 
d="M743 156q-55 -86 -144 -134.5t-189 -48.5q-158 0 -245 98t-87 271q0 343 194 537q125 122 320 122q234 0 280 -210q54 91 152 149q98 61 205 61q239 0 239 -188q0 -114 -112 -215q-62 -56 -182 -90t-279 -35q-14 -57 -14 -147q0 -246 200 -246q151 0 267 104l6 -4
q0 -11 -8 -30q-6 -27 -35 -56q-115 -121 -307 -121q-214 0 -261 183zM745 727q0 217 -165 217q-104 0 -179 -96q-70 -91 -114 -262q-41 -172 -41 -318q0 -237 168 -237q139 0 209 137q53 100 88 272q34 167 34 287zM905 512q206 18 316 111q106 93 106 204q0 117 -108 117
q-215 0 -314 -432z" />
    <glyph glyph-name="Racute" unicode="&#x154;" horiz-adv-x="1329" 
d="M494 12l-5 -12h-464l2 12q93 21 123 62q26 26 57 186l166 852q18 92 18 150q0 37 -27.5 57.5t-89.5 34.5l5 12h432q187 0 288 -43q85 -35 132 -106.5t47 -163.5q0 -154 -93.5 -259t-265.5 -153q45 -33 82 -104l37 -80q3 -6 12 -26t19 -43.5t20 -47.5l62 -137
q74 -160 204 -187l-4 -12q-85 -12 -159 -12q-113 0 -158 39q-46 40 -105 194q-111 288 -127 322q-19 37 -41 48t-73 11h-127l-68 -340q-20 -97 -20 -155q0 -24 12 -45q16 -33 109 -54zM580 1214l-105 -538h107q135 0 202 33q94 43 143.5 136t49.5 214q0 51 -20.5 103
t-51.5 81q-59 53 -192 53h-56q-36 0 -51 -17t-26 -65zM1008 1640l-353 -145l-8 12l281 256q46 43 88 43q32 0 54 -23.5t22 -58.5q0 -49 -84 -84z" />
    <glyph glyph-name="racute" unicode="&#x155;" horiz-adv-x="817" 
d="M344 432l-92 -432h-166l115 530q43 197 43 320q0 32 -13 55q-20 26 -96 29v10q113 49 238 49q34 0 46.5 -12t12.5 -49q0 -87 -51 -281q56 140 147 244q93 106 203 106q37 0 60 -10q22 -13 22 -41q0 -46 -51 -168h-12q-18 88 -93 88q-122 0 -235 -204q-48 -86 -78 -234z
M780 1339l-315 -204l-8 8l221 295q45 63 94 63q33 0 54.5 -19.5t21.5 -51.5q0 -44 -68 -91z" />
    <glyph glyph-name="Rcommaaccent" unicode="&#x156;" horiz-adv-x="1329" 
d="M494 12l-5 -12h-464l2 12q93 21 123 62q26 26 57 186l166 852q18 92 18 150q0 37 -27.5 57.5t-89.5 34.5l5 12h432q187 0 288 -43q85 -35 132 -106.5t47 -163.5q0 -154 -93.5 -259t-265.5 -153q45 -33 82 -104l37 -80q3 -6 12 -26t19 -43.5t20 -47.5l62 -137
q74 -160 204 -187l-4 -12q-85 -12 -159 -12q-113 0 -158 39q-46 40 -105 194q-111 288 -127 322q-19 37 -41 48t-73 11h-127l-68 -340q-20 -97 -20 -155q0 -24 12 -45q16 -33 109 -54zM580 1214l-105 -538h107q135 0 202 33q94 43 143.5 136t49.5 214q0 51 -20.5 103
t-51.5 81q-59 53 -192 53h-56q-36 0 -51 -17t-26 -65zM399 -506l-6 17q185 89 185 178q0 35 -31 63q-35 30 -35 72q0 37 25.5 60.5t66.5 23.5q50 0 78.5 -31t28.5 -86q0 -101 -87.5 -178.5t-224.5 -118.5z" />
    <glyph glyph-name="rcommaaccent" unicode="&#x157;" horiz-adv-x="817" 
d="M344 432l-92 -432h-166l115 530q43 197 43 320q0 32 -13 55q-20 26 -96 29v10q113 49 238 49q34 0 46.5 -12t12.5 -49q0 -87 -51 -281q56 140 147 244q93 106 203 106q37 0 60 -10q22 -13 22 -41q0 -46 -51 -168h-12q-18 88 -93 88q-122 0 -235 -204q-48 -86 -78 -234z
M-51 -506l-6 17q184 88 184 178q0 35 -31 63q-35 30 -35 72q0 37 26 60.5t67 23.5q50 0 78 -31t28 -86q0 -101 -87 -178.5t-224 -118.5z" />
    <glyph glyph-name="Rcaron" unicode="&#x158;" horiz-adv-x="1329" 
d="M494 12l-5 -12h-464l2 12q93 21 123 62q26 26 57 186l166 852q18 92 18 150q0 37 -27.5 57.5t-89.5 34.5l5 12h432q187 0 288 -43q85 -35 132 -106.5t47 -163.5q0 -154 -93.5 -259t-265.5 -153q45 -33 82 -104l37 -80q3 -6 12 -26t19 -43.5t20 -47.5l62 -137
q74 -160 204 -187l-4 -12q-85 -12 -159 -12q-113 0 -158 39q-46 40 -105 194q-111 288 -127 322q-19 37 -41 48t-73 11h-127l-68 -340q-20 -97 -20 -155q0 -24 12 -45q16 -33 109 -54zM580 1214l-105 -538h107q135 0 202 33q94 43 143.5 136t49.5 214q0 51 -20.5 103
t-51.5 81q-59 53 -192 53h-56q-36 0 -51 -17t-26 -65zM664 1505l-175 256l11 11l254 -164l325 161l8 -12l-278 -256q-39 -39 -80 -39q-38 0 -65 43z" />
    <glyph glyph-name="rcaron" unicode="&#x159;" horiz-adv-x="817" 
d="M344 432l-92 -432h-166l115 530q43 197 43 320q0 32 -13 55q-20 26 -96 29v10q113 49 238 49q34 0 46.5 -12t12.5 -49q0 -87 -51 -281q56 140 147 244q93 106 203 106q37 0 60 -10q22 -13 22 -41q0 -46 -51 -168h-12q-18 88 -93 88q-122 0 -235 -204q-48 -86 -78 -234z
M422 1180l-133 290l10 11l215 -201l309 199l11 -11l-267 -290q-42 -48 -82 -48q-42 0 -63 50z" />
    <glyph glyph-name="Sacute" unicode="&#x15a;" horiz-adv-x="1032" 
d="M92 324h14q29 -134 115 -206.5t219 -72.5q170 0 242 84t72 195q0 75 -53.5 137t-190.5 147l-88 54q-199 126 -199 325q0 189 135.5 297.5t384.5 108.5q145 0 230 -39q51 -20 51 -64q0 -69 -43 -194h-12q-19 120 -82 173.5t-189 53.5q-141 0 -226 -71.5t-85 -188.5
q0 -75 41 -129.5t147 -120.5l91 -57q138 -87 199 -171.5t61 -193.5q0 -193 -136.5 -305.5t-373.5 -112.5q-176 0 -287 60q-59 35 -59 86q0 67 22 205zM944 1618l-352 -145l-8 12l280 256q46 43 88 43q32 0 54 -23.5t22 -58.5q0 -49 -84 -84z" />
    <glyph glyph-name="sacute" unicode="&#x15b;" horiz-adv-x="776" 
d="M55 248l13 -2q15 -94 90 -154q72 -57 155 -57q101 0 155 44t54 128q0 55 -35 100t-129 105l-63 41q-156 102 -156 245q0 140 108.5 221.5t289.5 81.5q104 0 163 -26q39 -14 39 -51q0 -55 -43 -162h-12q-27 178 -197 178q-97 0 -152.5 -48.5t-55.5 -127.5q0 -86 129 -172
l63 -41q112 -76 155.5 -132.5t43.5 -133.5q0 -145 -102.5 -228.5t-274.5 -83.5q-161 0 -232 56q-30 21 -30 57q0 60 24 162zM745 1339l-315 -204l-8 8l221 295q45 63 94 63q33 0 54.5 -19.5t21.5 -51.5q0 -44 -68 -91z" />
    <glyph glyph-name="Scircumflex" unicode="&#x15c;" horiz-adv-x="1032" 
d="M92 324h14q29 -134 115 -206.5t219 -72.5q170 0 242 84t72 195q0 75 -53.5 137t-190.5 147l-88 54q-199 126 -199 325q0 189 135.5 297.5t384.5 108.5q145 0 230 -39q51 -20 51 -64q0 -69 -43 -194h-12q-19 120 -82 173.5t-189 53.5q-141 0 -226 -71.5t-85 -188.5
q0 -75 41 -129.5t147 -120.5l91 -57q138 -87 199 -171.5t61 -193.5q0 -193 -136.5 -305.5t-373.5 -112.5q-176 0 -287 60q-59 35 -59 86q0 67 22 205zM846 1714l174 -256l-12 -10l-254 166l-324 -164l-10 14l278 254q39 39 80 39q38 0 68 -43z" />
    <glyph glyph-name="scircumflex" unicode="&#x15d;" horiz-adv-x="776" 
d="M55 248l13 -2q15 -94 90 -154q72 -57 155 -57q101 0 155 44t54 128q0 55 -35 100t-129 105l-63 41q-156 102 -156 245q0 140 108.5 221.5t289.5 81.5q104 0 163 -26q39 -14 39 -51q0 -55 -43 -162h-12q-27 178 -197 178q-97 0 -152.5 -48.5t-55.5 -127.5q0 -86 129 -172
l63 -41q112 -76 155.5 -132.5t43.5 -133.5q0 -145 -102.5 -228.5t-274.5 -83.5q-161 0 -232 56q-30 21 -30 57q0 60 24 162zM666 1432l135 -291l-13 -8l-215 198l-309 -198l-8 10l264 291q44 47 84 47q41 0 62 -49z" />
    <glyph glyph-name="Scedilla" unicode="&#x15e;" horiz-adv-x="1032" 
d="M238 -399v8l6 4q36 -25 94 -25t95.5 29.5t37.5 87.5q0 44 -27.5 70t-70.5 26q-30 0 -45 -6l-6 6l84 172q-175 3 -277 60q-59 35 -59 86q0 67 22 205h14q29 -134 115 -206.5t219 -72.5q170 0 242 84t72 195q0 75 -53.5 137t-190.5 147l-88 54q-199 126 -199 325
q0 189 135.5 297.5t384.5 108.5q145 0 230 -39q51 -20 51 -64q0 -69 -43 -194h-12q-19 120 -82 173.5t-189 53.5q-141 0 -226 -71.5t-85 -188.5q0 -75 41 -129.5t147 -120.5l91 -57q138 -87 199 -171.5t61 -193.5q0 -185 -126 -297t-347 -119l-45 -100q91 -1 139.5 -42
t48.5 -109q0 -90 -68.5 -143.5t-171.5 -53.5q-89 0 -110 35q-8 8 -8 39z" />
    <glyph glyph-name="scedilla" unicode="&#x15f;" horiz-adv-x="776" 
d="M90 -387v8l8 4q24 -24 90 -24q57 0 94 28.5t37 83.5q0 44 -26.5 69t-69.5 25q-3 0 -8.5 -0.5t-16 -1.5t-20.5 -2l-6 4l82 168q-139 6 -193 54q-30 21 -30 57q0 60 24 162l13 -2q15 -94 90 -154q72 -57 155 -57q101 0 155 44t54 128q0 55 -35 100t-129 105l-63 41
q-156 102 -156 245q0 140 108.5 221.5t289.5 81.5q104 0 163 -26q39 -14 39 -51q0 -55 -43 -162h-12q-27 178 -197 178q-97 0 -152.5 -48.5t-55.5 -127.5q0 -86 129 -172l63 -41q112 -76 155.5 -132.5t43.5 -133.5q0 -141 -100.5 -224t-268.5 -88l-43 -92q182 0 182 -149
q0 -86 -67 -138.5t-166 -52.5q-88 0 -109 35q-8 13 -8 37z" />
    <glyph glyph-name="Scaron" unicode="&#x160;" horiz-adv-x="1032" 
d="M92 324h14q29 -134 115 -206.5t219 -72.5q170 0 242 84t72 195q0 75 -53.5 137t-190.5 147l-88 54q-199 126 -199 325q0 189 135.5 297.5t384.5 108.5q145 0 230 -39q51 -20 51 -64q0 -69 -43 -194h-12q-19 120 -82 173.5t-189 53.5q-141 0 -226 -71.5t-85 -188.5
q0 -75 41 -129.5t147 -120.5l91 -57q138 -87 199 -171.5t61 -193.5q0 -193 -136.5 -305.5t-373.5 -112.5q-176 0 -287 60q-59 35 -59 86q0 67 22 205zM645 1505l-174 256l10 11l254 -164l326 161l8 -12l-278 -256q-41 -39 -80.5 -38.5t-65.5 42.5z" />
    <glyph glyph-name="scaron" unicode="&#x161;" horiz-adv-x="776" 
d="M55 248l13 -2q15 -94 90 -154q72 -57 155 -57q101 0 155 44t54 128q0 55 -35 100t-129 105l-63 41q-156 102 -156 245q0 140 108.5 221.5t289.5 81.5q104 0 163 -26q39 -14 39 -51q0 -55 -43 -162h-12q-27 178 -197 178q-97 0 -152.5 -48.5t-55.5 -127.5q0 -86 129 -172
l63 -41q112 -76 155.5 -132.5t43.5 -133.5q0 -145 -102.5 -228.5t-274.5 -83.5q-161 0 -232 56q-30 21 -30 57q0 60 24 162zM434 1180l-133 290l10 11l215 -201l310 199l10 -11l-266 -290q-42 -48 -82 -48q-43 0 -64 50z" />
    <glyph glyph-name="uni0162" unicode="&#x162;" horiz-adv-x="1193" 
d="M291 -399v8l6 4q36 -25 94 -25t95.5 29.5t37.5 87.5q0 44 -27.5 70t-70.5 26q-30 0 -45 -6l-6 6l96 199h-215l4 12q98 22 125 62q25 31 59 198l183 926q6 44 6 57q0 37 -49 37h-99q-87 0 -139 -14q-83 -18 -178 -197h-14q21 178 36 238q6 29 15.5 38t34.5 9h1001
q49 0 49 -29q0 -71 -55 -254h-12q-24 175 -109 197q-56 12 -131 12h-102q-32 0 -45 -12t-19 -49l-186 -971q-21 -102 -21 -158q0 -33 28.5 -52t94.5 -38l-2 -12h-213l-57 -125q91 -1 139.5 -42t48.5 -109q0 -90 -68 -143.5t-171 -53.5q-90 0 -111 35q-8 8 -8 39z" />
    <glyph glyph-name="uni0163" unicode="&#x163;" horiz-adv-x="641" 
d="M70 -387v8l8 4q24 -24 90 -24q57 0 94 28.5t37 83.5q0 44 -26.5 69t-69.5 25q-3 0 -8.5 -0.5t-16 -1.5t-20.5 -2l-6 4l88 179q-111 27 -111 166q0 51 25 170l118 573h-139l12 43q72 12 127 37q43 22 72 76q30 51 70 163h88l-47 -243h215l-15 -76h-217l-121 -582
q-22 -110 -22 -178q0 -38 24.5 -60t63.5 -22q68 0 139 47l6 -2q0 -19 -14 -41q-9 -14 -41 -37q-67 -43 -160 -43q-21 0 -30 3l-45 -99q182 0 182 -149q0 -86 -67.5 -138.5t-166.5 -52.5q-87 0 -108 35q-8 13 -8 37z" />
    <glyph glyph-name="Tcaron" unicode="&#x164;" horiz-adv-x="1193" 
d="M721 12l-2 -12h-475l4 12q98 22 125 62q25 31 59 198l182 926q7 51 7 57q0 37 -50 37h-98q-87 0 -139 -14q-83 -18 -178 -197h-15q20 171 37 238q6 29 15 38t34 9h1002q49 0 49 -29q0 -71 -55 -254h-13q-24 176 -108 197q-56 12 -131 12h-103q-32 0 -44.5 -12t-18.5 -49
l-187 -971q-20 -97 -20 -158q0 -33 28.5 -52t94.5 -38zM672 1505l-174 256l10 11l254 -164l325 161l9 -12l-279 -256q-41 -39 -80 -38.5t-65 42.5z" />
    <glyph glyph-name="tcaron" unicode="&#x165;" horiz-adv-x="641" 
d="M522 100l6 -2q0 -19 -14 -41q-9 -14 -41 -37q-67 -43 -160 -43q-184 0 -184 175q0 51 25 170l118 573h-139l12 43q72 12 127 37q43 22 72 76q30 51 70 163h88l-47 -243h215l-15 -76h-217l-121 -582q-22 -110 -22 -178q0 -38 24.5 -60t63.5 -22q68 0 139 47zM592 1067
l-6 16q184 88 184 179q0 35 -31 63q-34 30 -34 72q0 37 25.5 60.5t66.5 23.5q50 0 78 -31t28 -86q0 -101 -87 -178.5t-224 -118.5z" />
    <glyph glyph-name="Tbar" unicode="&#x166;" horiz-adv-x="1193" 
d="M733 12l-2 -12h-475l4 12q98 22 125 62q25 31 59 198l84 430h-297l21 89h295l80 407q6 44 6 57q0 37 -49 37h-99q-87 0 -139 -14q-83 -18 -178 -197h-14q21 178 36 238q6 29 15.5 38t34.5 9h1001q49 0 49 -29q0 -71 -55 -254h-12q-24 175 -109 197q-56 12 -131 12h-102
q-32 0 -45 -12t-19 -49l-86 -440h316l-21 -89h-311l-84 -442q-21 -102 -21 -158q0 -33 28.5 -52t94.5 -38z" />
    <glyph glyph-name="tbar" unicode="&#x167;" horiz-adv-x="641" 
d="M522 100l6 -2q0 -19 -14 -41q-9 -14 -41 -37q-67 -43 -160 -43q-184 0 -184 175q0 51 25 170l53 264h-129l18 80h127l49 229h-139l12 43q72 12 127 37q43 22 72 76q30 51 70 163h88l-47 -243h215l-15 -76h-217l-49 -229h215l-16 -80h-215l-56 -273q-22 -110 -22 -178
q0 -38 24.5 -60t63.5 -22q68 0 139 47z" />
    <glyph glyph-name="Utilde" unicode="&#x168;" horiz-adv-x="1486" 
d="M260 1354l2 12h467l-2 -12q-100 -21 -127 -62q-26 -33 -47 -147l-117 -588q-26 -139 -26 -252q0 -123 77 -188.5t218 -65.5q221 0 331 137q70 88 123 353l109 549q18 102 18 159q0 48 -27 69.5t-98 35.5l4 12h381l-2 -12q-65 -11 -104 -43q-49 -39 -78 -199l-105 -545
q-38 -195 -65 -268q-38 -101 -90 -158q-152 -168 -455 -168q-183 0 -305 78q-119 79 -119 258q0 100 31 269l108 552q15 76 15 127q0 37 -26 58t-91 39zM1243 1712l14 -6q-39 -104 -80 -152.5t-108 -48.5q-47 0 -131 41q-82 39 -121 39q-73 0 -131 -98l-16 6q77 213 190 213
q45 0 131 -45q75 -37 119 -37q43 0 72.5 20t60.5 68z" />
    <glyph glyph-name="utilde" unicode="&#x169;" horiz-adv-x="1128" 
d="M1001 76l3 -10q-115 -80 -232 -80q-48 0 -67 23.5t-19 78.5q0 75 35 236q-66 -136 -195 -246q-126 -105 -252 -105q-78 0 -115.5 35.5t-37.5 120.5q0 73 98 514q33 138 33 213q0 39 -23 55q-26 20 -86 23v10q101 49 236 49q36 0 49.5 -11.5t13.5 -43.5q0 -44 -43 -229
q-106 -455 -106 -531q0 -45 18 -64.5t64 -19.5q71 0 153 64t136 143q57 82 84 213l96 461h162l-109 -524q-43 -203 -43 -297q0 -86 68 -86q43 0 79 8zM958 1372l11 -6q-65 -197 -174 -197q-49 0 -140 45q-75 35 -108 35q-79 0 -137 -94l-13 4q76 211 189 211q32 0 119 -41
q86 -45 120 -45q41 0 68.5 19t64.5 69z" />
    <glyph glyph-name="Umacron" unicode="&#x16a;" horiz-adv-x="1486" 
d="M260 1354l2 12h467l-2 -12q-100 -21 -127 -62q-26 -33 -47 -147l-117 -588q-26 -139 -26 -252q0 -123 77 -188.5t218 -65.5q221 0 331 137q70 88 123 353l109 549q18 102 18 159q0 48 -27 69.5t-98 35.5l4 12h381l-2 -12q-65 -11 -104 -43q-49 -39 -78 -199l-105 -545
q-38 -195 -65 -268q-38 -101 -90 -158q-152 -168 -455 -168q-183 0 -305 78q-119 79 -119 258q0 100 31 269l108 552q15 76 15 127q0 37 -26 58t-91 39zM1229 1638l-21 -110h-538l22 110h537z" />
    <glyph glyph-name="umacron" unicode="&#x16b;" horiz-adv-x="1128" 
d="M1001 76l3 -10q-115 -80 -232 -80q-48 0 -67 23.5t-19 78.5q0 75 35 236q-66 -136 -195 -246q-126 -105 -252 -105q-78 0 -115.5 35.5t-37.5 120.5q0 73 98 514q33 138 33 213q0 39 -23 55q-26 20 -86 23v10q101 49 236 49q36 0 49.5 -11.5t13.5 -43.5q0 -44 -43 -229
q-106 -455 -106 -531q0 -45 18 -64.5t64 -19.5q71 0 153 64t136 143q57 82 84 213l96 461h162l-109 -524q-43 -203 -43 -297q0 -86 68 -86q43 0 79 8zM934 1323l-29 -115h-495l28 115h496z" />
    <glyph glyph-name="Ubreve" unicode="&#x16c;" horiz-adv-x="1486" 
d="M260 1354l2 12h467l-2 -12q-100 -21 -127 -62q-26 -33 -47 -147l-117 -588q-26 -139 -26 -252q0 -123 77 -188.5t218 -65.5q221 0 331 137q70 88 123 353l109 549q18 102 18 159q0 48 -27 69.5t-98 35.5l4 12h381l-2 -12q-65 -11 -104 -43q-49 -39 -78 -199l-105 -545
q-38 -195 -65 -268q-38 -101 -90 -158q-152 -168 -455 -168q-183 0 -305 78q-119 79 -119 258q0 100 31 269l108 552q15 76 15 127q0 37 -26 58t-91 39zM1200 1749l14 -2q-44 -274 -286 -274q-219 0 -219 210q0 33 8 66h12q5 -74 59.5 -116t151.5 -42q195 0 260 158z" />
    <glyph glyph-name="ubreve" unicode="&#x16d;" horiz-adv-x="1128" 
d="M1001 76l3 -10q-115 -80 -232 -80q-48 0 -67 23.5t-19 78.5q0 75 35 236q-66 -136 -195 -246q-126 -105 -252 -105q-78 0 -115.5 35.5t-37.5 120.5q0 73 98 514q33 138 33 213q0 39 -23 55q-26 20 -86 23v10q101 49 236 49q36 0 49.5 -11.5t13.5 -43.5q0 -44 -43 -229
q-106 -455 -106 -531q0 -45 18 -64.5t64 -19.5q71 0 153 64t136 143q57 82 84 213l96 461h162l-109 -524q-43 -203 -43 -297q0 -86 68 -86q43 0 79 8zM913 1432l15 -2q-20 -119 -82 -203q-59 -80 -197 -80q-205 0 -205 217q0 44 9 68h12q15 -164 194 -164q101 0 157.5 38
t96.5 126z" />
    <glyph glyph-name="Uring" unicode="&#x16e;" horiz-adv-x="1486" 
d="M260 1354l2 12h467l-2 -12q-100 -21 -127 -62q-26 -33 -47 -147l-117 -588q-26 -139 -26 -252q0 -123 77 -188.5t218 -65.5q221 0 331 137q70 88 123 353l109 549q18 102 18 159q0 48 -27 69.5t-98 35.5l4 12h381l-2 -12q-65 -11 -104 -43q-49 -39 -78 -199l-105 -545
q-38 -195 -65 -268q-38 -101 -90 -158q-152 -168 -455 -168q-183 0 -305 78q-119 79 -119 258q0 100 31 269l108 552q15 76 15 127q0 37 -26 58t-91 39zM1110 1622q0 -76 -47 -127t-125 -51q-67 0 -109.5 42.5t-42.5 110.5q0 75 50 125t125 50q69 0 109 -41t40 -109z
M1057 1618q0 48 -28 77t-75 29q-49 0 -81.5 -34.5t-32.5 -85.5q0 -113 106 -113q49 0 80 35.5t31 91.5z" />
    <glyph glyph-name="uring" unicode="&#x16f;" horiz-adv-x="1128" 
d="M1001 76l3 -10q-115 -80 -232 -80q-48 0 -67 23.5t-19 78.5q0 75 35 236q-66 -136 -195 -246q-126 -105 -252 -105q-78 0 -115.5 35.5t-37.5 120.5q0 73 98 514q33 138 33 213q0 39 -23 55q-26 20 -86 23v10q101 49 236 49q36 0 49.5 -11.5t13.5 -43.5q0 -44 -43 -229
q-106 -455 -106 -531q0 -45 18 -64.5t64 -19.5q71 0 153 64t136 143q57 82 84 213l96 461h162l-109 -524q-43 -203 -43 -297q0 -86 68 -86q43 0 79 8zM836 1315q0 -81 -52 -135t-135 -54q-71 0 -115.5 46t-44.5 116q0 82 52.5 133.5t134.5 51.5q72 0 116 -43t44 -115z
M780 1311q0 51 -30 81.5t-80 30.5q-57 0 -91 -36.5t-34 -96.5q0 -51 29.5 -82.5t82.5 -31.5q54 0 88.5 37t34.5 98z" />
    <glyph glyph-name="Uhungarumlaut" unicode="&#x170;" horiz-adv-x="1486" 
d="M260 1354l2 12h467l-2 -12q-100 -21 -127 -62q-26 -33 -47 -147l-117 -588q-26 -139 -26 -252q0 -123 77 -188.5t218 -65.5q221 0 331 137q70 88 123 353l109 549q18 102 18 159q0 48 -27 69.5t-98 35.5l4 12h381l-2 -12q-65 -11 -104 -43q-49 -39 -78 -199l-105 -545
q-38 -195 -65 -268q-38 -101 -90 -158q-152 -168 -455 -168q-183 0 -305 78q-119 79 -119 258q0 100 31 269l108 552q15 76 15 127q0 37 -26 58t-91 39zM1018 1630l-346 -157l-10 12l278 256q48 45 88 45q31 0 51.5 -19.5t20.5 -50.5q0 -49 -82 -86zM1360 1630l-348 -157
l-8 12l278 256q48 45 86 45q32 0 52 -19t20 -51q0 -51 -80 -86z" />
    <glyph glyph-name="uhungarumlaut" unicode="&#x171;" horiz-adv-x="1128" 
d="M1001 76l3 -10q-115 -80 -232 -80q-48 0 -67 23.5t-19 78.5q0 75 35 236q-66 -136 -195 -246q-126 -105 -252 -105q-78 0 -115.5 35.5t-37.5 120.5q0 73 98 514q33 138 33 213q0 39 -23 55q-26 20 -86 23v10q101 49 236 49q36 0 49.5 -11.5t13.5 -43.5q0 -44 -43 -229
q-106 -455 -106 -531q0 -45 18 -64.5t64 -19.5q71 0 153 64t136 143q57 82 84 213l96 461h162l-109 -524q-43 -203 -43 -297q0 -86 68 -86q43 0 79 8zM723 1339l-293 -206l-10 10l209 284q46 64 94 64q70 0 70 -59q0 -41 -70 -93zM1024 1339l-293 -206l-10 10l209 284
q46 64 94 64q70 0 70 -59q0 -47 -70 -93z" />
    <glyph glyph-name="Uogonek" unicode="&#x172;" horiz-adv-x="1486" 
d="M778 -348l6 -4l-2 -8q0 -17 -16 -33q-41 -41 -125 -41q-91 0 -139.5 43.5t-48.5 114.5q0 154 188 249q-180 3 -301 80q-117 79 -117 256q0 100 31 269l108 552q15 76 15 127q0 37 -26 58t-91 39l2 12h467l-2 -12q-100 -21 -127 -62q-26 -33 -47 -147l-117 -588
q-26 -139 -26 -252q0 -123 77 -188.5t218 -65.5q221 0 331 137q70 88 123 353l109 549q18 102 18 159q0 48 -27 69.5t-98 35.5l4 12h381l-2 -12q-65 -11 -104 -43q-49 -39 -78 -199l-105 -545q-38 -195 -65 -268q-38 -101 -90 -158q-139 -151 -391 -166q-131 -101 -131 -227
q0 -113 110 -113q57 0 88 17z" />
    <glyph glyph-name="uogonek" unicode="&#x173;" horiz-adv-x="1128" 
d="M836 -334l6 -4l-2 -10q0 -16 -17 -33q-42 -39 -121 -39q-90 0 -136 41.5t-46 112.5q0 159 215 258q-49 12 -49 96q0 75 35 236q-66 -136 -195 -246q-126 -105 -252 -105q-78 0 -115.5 35.5t-37.5 120.5q0 73 98 514q33 138 33 213q0 39 -23 55q-26 20 -86 23v10
q101 49 236 49q36 0 49.5 -11.5t13.5 -43.5q0 -44 -43 -229q-106 -455 -106 -531q0 -45 18 -64.5t64 -19.5q71 0 153 64t136 143q57 82 84 213l96 461h162l-109 -524q-43 -203 -43 -297q0 -86 68 -86q43 0 79 8l3 -10q-109 -74 -220 -80q-141 -102 -141 -230
q0 -108 107 -108q59 0 86 18z" />
    <glyph glyph-name="Wcircumflex" unicode="&#x174;" horiz-adv-x="1923" 
d="M1061 1110l-547 -1110h-125q-1 48 -20 317l-60 850q-9 122 -41 150q-28 25 -90 37l2 12h455l-2 -12q-81 -27 -101 -39q-32 -19 -32 -94q0 -16 10 -224q5 -112 25 -426q15 -236 18 -340l534 1102h117l166 -1104q59 148 393 934q27 61 27 105q0 36 -33 53q-42 21 -94 33
l2 12h379l-2 -12q-19 -3 -74 -31q-30 -13 -51.5 -43.5t-52.5 -103.5l-381 -865l-56 -125q-59 -129 -81 -186h-125l-86 594q-10 74 -20.5 144t-19.5 129.5t-12 78.5zM1282 1714l174 -256l-12 -10l-254 166l-324 -164l-10 14l279 254q39 39 79 39q38 0 68 -43z" />
    <glyph glyph-name="wcircumflex" unicode="&#x175;" horiz-adv-x="1419" 
d="M322 -6h-107l-10 794q0 101 -27 119q-27 21 -88 27v10q57 27 123 41q82 16 117 16q38 0 41 -47q4 -86 4 -114q0 -32 -6 -342q-1 -88 -2 -170.5t-1.5 -123t-0.5 -50.5q323 610 383 747h112q30 -251 84 -766q143 251 209 375q62 117 99.5 223.5t37.5 151.5q0 36 -43 45
q-44 8 -65 8l-2 8q101 55 190 55q43 0 43 -36q0 -105 -164 -410q-82 -153 -344 -561h-104l-76 706q-150 -299 -403 -706zM973 1432l135 -291l-12 -8l-215 198l-310 -198l-8 10l264 291q44 47 84 47q41 0 62 -49z" />
    <glyph glyph-name="Ycircumflex" unicode="&#x176;" horiz-adv-x="1234" 
d="M752 12l-4 -12h-472l3 12q89 17 124 62q34 53 60 196l57 318l-235 600q-42 105 -74 133q-27 21 -70 33l2 12h447l-2 -12q-81 -19 -94 -27q-33 -14 -33 -45q0 -25 28 -98q153 -398 195 -518q44 69 371 510q53 77 53 110q0 29 -33 43q-37 19 -76 25l2 12h377l-2 -12
q-51 -12 -104 -51q-29 -21 -103 -113l-452 -582l-66 -344q-20 -97 -20 -155q0 -35 26.5 -56t94.5 -41zM915 1714l175 -256l-13 -10l-254 166l-323 -164l-11 14l279 254q39 39 80 39q37 0 67 -43z" />
    <glyph glyph-name="ycircumflex" unicode="&#x177;" horiz-adv-x="966" 
d="M-178 -295h14q21 -94 78 -94q64 0 135 65q108 94 266 312h-77l-39 805q-3 95 -33 118q-24 17 -88 23l-2 10q57 27 123 41q82 16 116 16q36 0 45 -45l7 -69q2 -33 2 -51q9 -147 24 -762q185 288 291 473q133 233 133 330q0 40 -43 49l-61 10l-2 10q47 24 110 39
q69 16 97 16q45 0 45 -36q0 -84 -152 -342q-115 -198 -414 -631q-179 -255 -288 -367q-124 -133 -230 -133q-82 0 -82 64q0 57 25 149zM743 1432l136 -291l-13 -8l-215 198l-309 -198l-8 10l264 291q44 47 84 47t61 -49z" />
    <glyph glyph-name="Ydieresis" unicode="&#x178;" horiz-adv-x="1234" 
d="M752 12l-4 -12h-472l3 12q89 17 124 62q34 53 60 196l57 318l-235 600q-42 105 -74 133q-27 21 -70 33l2 12h447l-2 -12q-81 -19 -94 -27q-33 -14 -33 -45q0 -25 28 -98q153 -398 195 -518q44 69 371 510q53 77 53 110q0 29 -33 43q-37 19 -76 25l2 12h377l-2 -12
q-51 -12 -104 -51q-29 -21 -103 -113l-452 -582l-66 -344q-20 -97 -20 -155q0 -35 26.5 -56t94.5 -41zM735 1599q0 -45 -31 -77.5t-77 -32.5q-39 0 -63.5 23.5t-24.5 64.5q0 51 30.5 84t79.5 33q38 0 62 -26t24 -69zM1087 1599q0 -48 -29.5 -79t-76.5 -31q-39 0 -64.5 24
t-25.5 64q0 51 31.5 84t78.5 33q38 0 62 -26t24 -69z" />
    <glyph glyph-name="Zacute" unicode="&#x179;" horiz-adv-x="1193" 
d="M985 0h-1063l2 12l1063 1280q-345 0 -545 -4q-106 -3 -143 -55q-35 -41 -82 -137h-14q10 104 28 215q6 31 18 43t38 12h985l-2 -12l-1067 -1280q141 0 579 4q118 0 170 43q57 48 127 170h15q-22 -156 -47 -252q-9 -39 -62 -39zM952 1618l-352 -145l-8 12l280 256
q46 43 89 43q32 0 53.5 -23.5t21.5 -58.5q0 -49 -84 -84z" />
    <glyph glyph-name="zacute" unicode="&#x17a;" horiz-adv-x="909" 
d="M37 49l-47 -47l-41 35q319 344 786 801q-327 0 -420 -7q-90 -3 -125 -57q-24 -40 -32 -69l-15 2q6 123 21 206q6 38 19.5 50t54.5 12h684l4 -17l-776 -784q103 -3 294 -24q194 -21 209 -21q55 0 90.5 26.5t65.5 94.5l12 -2q-15 -158 -43 -225q-18 -46 -108 -46
q-44 0 -291 35q-240 37 -342 37zM795 1339l-316 -204l-8 8l221 295q45 63 94 63q33 0 54.5 -19.5t21.5 -51.5q0 -45 -67 -91z" />
    <glyph glyph-name="Zdotaccent" unicode="&#x17b;" horiz-adv-x="1193" 
d="M985 0h-1063l2 12l1063 1280q-345 0 -545 -4q-106 -3 -143 -55q-35 -41 -82 -137h-14q10 104 28 215q6 31 18 43t38 12h985l-2 -12l-1067 -1280q141 0 579 4q118 0 170 43q57 48 127 170h15q-22 -156 -47 -252q-9 -39 -62 -39zM850 1579q0 -45 -30.5 -78t-76.5 -33
q-39 0 -64.5 24t-25.5 64q0 51 31 84t80 33q38 0 62 -25.5t24 -68.5z" />
    <glyph glyph-name="zdotaccent" unicode="&#x17c;" horiz-adv-x="909" 
d="M37 49l-47 -47l-41 35q319 344 786 801q-327 0 -420 -7q-90 -3 -125 -57q-24 -40 -32 -69l-15 2q6 123 21 206q6 38 19.5 50t54.5 12h684l4 -17l-776 -784q103 -3 294 -24q194 -21 209 -21q55 0 90.5 26.5t65.5 94.5l12 -2q-15 -158 -43 -225q-18 -46 -108 -46
q-44 0 -291 35q-240 37 -342 37zM666 1298q0 -45 -30.5 -77.5t-76.5 -32.5q-38 0 -63 25t-25 63q0 51 30.5 83t78.5 32q38 0 62 -26t24 -67z" />
    <glyph glyph-name="Zcaron" unicode="&#x17d;" horiz-adv-x="1193" 
d="M985 0h-1063l2 12l1063 1280q-345 0 -545 -4q-106 -3 -143 -55q-35 -41 -82 -137h-14q10 104 28 215q6 31 18 43t38 12h985l-2 -12l-1067 -1280q141 0 579 4q118 0 170 43q57 48 127 170h15q-22 -156 -47 -252q-9 -39 -62 -39zM672 1505l-174 256l10 11l254 -164l325 161
l9 -12l-279 -256q-41 -39 -80 -38.5t-65 42.5z" />
    <glyph glyph-name="zcaron" unicode="&#x17e;" horiz-adv-x="909" 
d="M37 49l-47 -47l-41 35q319 344 786 801q-327 0 -420 -7q-90 -3 -125 -57q-24 -40 -32 -69l-15 2q6 123 21 206q6 38 19.5 50t54.5 12h684l4 -17l-776 -784q103 -3 294 -24q194 -21 209 -21q55 0 90.5 26.5t65.5 94.5l12 -2q-15 -158 -43 -225q-18 -46 -108 -46
q-44 0 -291 35q-240 37 -342 37zM463 1180l-133 290l10 11l215 -201l309 199l10 -11l-266 -290q-42 -48 -82 -48q-42 0 -63 50z" />
    <glyph glyph-name="longs" unicode="&#x17f;" horiz-adv-x="557" 
d="M-299 -244h10q27 -151 146 -151q94 0 137 82q69 129 137 551l113 694q25 151 57 227q49 127 139 199q110 88 281 88q80 0 129 -19q37 -15 37 -47q0 -38 -41 -159h-12q-21 85 -55.5 124t-98.5 39q-96 0 -148 -73q-64 -88 -102 -326l-111 -672q-59 -373 -141 -532
q-124 -238 -346 -238q-87 0 -129 25q-29 16 -29 49q0 51 27 139z" />
    <glyph glyph-name="uni018F" unicode="&#x18f;" horiz-adv-x="1495" 
d="M1124 547h-747q-35 -87 -35 -225q0 -132 82 -204.5t223 -72.5q178 0 300 130.5t177 371.5zM283 616h856q26 98 26 232q0 147 -63 239q-60 89 -146.5 126.5t-203.5 37.5q-225 0 -441 -155l-10 4v8q0 36 27 66q74 90 206 147t312 57q263 0 393 -145q131 -143 131 -375
q0 -110 -17.5 -214t-52.5 -204.5t-95 -184t-139 -147.5t-190 -99.5t-243 -35.5q-227 0 -357.5 108t-130.5 290q0 135 43 211q18 34 95 34z" />
    <glyph glyph-name="florin" unicode="&#x192;" horiz-adv-x="1069" 
d="M901 815l-16 -88h-242l-117 -547q-49 -231 -147 -346q-129 -153 -291 -153q-85 0 -129 20q-49 21 -49 61q0 57 39 158h10q21 -172 135 -172q103 0 164 129q35 78 84 309l113 541h-199l16 88h201l14 72q52 255 152 360q114 123 309 123q104 0 162 -24q51 -20 51 -64
q0 -40 -51 -180h-14q-10 106 -51.5 151t-112.5 45q-89 0 -148 -71q-44 -52 -79 -215l-43 -197h239z" />
    <glyph glyph-name="Aringacute" unicode="&#x1fa;" horiz-adv-x="1320" 
d="M1006 1509q0 -60 -30.5 -105.5t-84.5 -62.5q11 -85 43 -268l133 -868q18 -119 49 -150q25 -28 92 -43l-2 -12h-458l2 12q47 11 94 35q39 20 39 74q0 43 -6 86l-41 278h-480l-159 -290q-43 -76 -43 -111q0 -33 32 -47l90 -25l-2 -12h-372l2 12q52 13 90 43q45 39 90 115
l508 891l166 289q-76 40 -76 135q0 75 49 124.5t127 49.5q67 0 107.5 -41t40.5 -109zM395 557h430l-90 623q-54 -109 -340 -623zM952 1505q0 48 -27.5 77.5t-74.5 29.5t-80 -35t-33 -86q0 -111 105 -111q49 0 79.5 35t30.5 90zM1108 1823l-313 -131l-9 12l250 229
q46 43 82 43q68 0 68 -73q0 -45 -78 -80z" />
    <glyph glyph-name="aringacute" unicode="&#x1fb;" horiz-adv-x="1089" 
d="M977 76l4 -10q-118 -80 -242 -80q-82 0 -82 100q0 105 35 254q-84 -175 -200 -271t-230 -96q-97 0 -145.5 58t-48.5 200q0 171 79 369q83 200 209 295q135 106 332 106q198 0 313 -53q-57 -72 -149 -596q-21 -117 -21 -207q0 -79 62 -79q39 0 84 10zM791 881q0 26 -19 39
q-30 18 -115 18q-112 0 -188 -76q-87 -84 -154 -276t-67 -328q0 -168 104 -168q76 0 166 78t150 207q49 110 112 424q11 64 11 82zM901 1311q0 -79 -50 -132t-130 -53q-68 0 -111 45t-43 115q0 79 51.5 129.5t131.5 50.5q69 0 110 -43t41 -112zM848 1309q0 50 -29 79t-78 29
q-53 0 -85.5 -36.5t-32.5 -94.5q0 -49 28 -79.5t80 -30.5q50 0 83.5 37t33.5 96zM1006 1735l-316 -205l-10 10l223 295q45 63 94 63q33 0 54.5 -19.5t21.5 -53.5q0 -44 -67 -90z" />
    <glyph glyph-name="AEacute" unicode="&#x1fc;" horiz-adv-x="1902" 
d="M307 12l-2 -12h-387l2 12q71 21 115 56q50 40 129 131l823 958q82 98 82 133q0 23 -22 34.5t-93 29.5l2 12h895q31 0 40.5 -6t9.5 -25q0 -52 -54 -229h-14q-10 91 -27 127.5t-53 48.5q-33 10 -135 10h-186q-34 0 -48 -15.5t-22 -57.5l-92 -471h155q114 0 166 10
q48 7 77.5 36.5t62.5 98.5h12l-72 -363h-14q-2 65 -24.5 97.5t-78.5 42.5q-47 8 -139 8h-158l-92 -477q-10 -52 -10 -80q0 -25 17.5 -35t64.5 -10h219q130 0 195 41q58 40 135 164h14q-42 -212 -49 -234q-7 -30 -22 -38.5t-54 -8.5h-870l2 12q83 21 117 51q33 29 61 173
l49 249h-524l-219 -270q-88 -110 -88 -143q0 -23 28 -35q46 -18 76 -25zM573 557h474l141 733q-116 -151 -615 -733zM1710 1618l-352 -145l-8 12l280 256q46 43 88 43q32 0 54 -23.5t22 -58.5q0 -49 -84 -84z" />
    <glyph glyph-name="aeacute" unicode="&#x1fd;" horiz-adv-x="1429" 
d="M647 170q-126 -197 -350 -197q-115 0 -181.5 69t-66.5 177q0 200 223 258q147 37 385 47l13 64q14 80 14 133q0 82 -52.5 123t-142.5 41q-189 0 -292 -103l-9 2q0 3 2 13t3 16q19 81 120 134.5t240 53.5q238 0 268 -174q57 78 141.5 126t180.5 48q243 0 243 -190
q0 -116 -104 -209q-58 -51 -177.5 -83t-283.5 -38q-14 -63 -14 -166q0 -116 53.5 -175.5t149.5 -59.5q144 0 258 102l8 -4q0 -10 -8 -31q-14 -31 -37 -57q-117 -117 -309 -117q-222 0 -275 197zM635 227q-4 70 -4 78q0 56 16 168q-192 -16 -285 -47q-139 -47 -139 -178
q0 -74 42 -118t112 -44q141 0 258 141zM834 528q206 18 307.5 98t101.5 201q0 111 -108 111q-106 0 -185.5 -105.5t-115.5 -304.5zM1087 1339l-315 -204l-8 8l221 295q45 63 94 63q33 0 54.5 -19.5t21.5 -51.5q0 -44 -68 -91z" />
    <glyph glyph-name="Oslashacute" unicode="&#x1fe;" horiz-adv-x="1388" 
d="M270 84l-102 -131l-55 39l110 141q-110 134 -110 367q0 199 69 397q71 204 211 332q86 78 205.5 121t243.5 43q183 0 305 -78l115 147l55 -39l-117 -149q129 -123 129 -365q0 -205 -72 -424q-72 -216 -213 -348q-176 -164 -444 -164q-207 0 -330 111zM1124 948
q0 121 -26 195l-738 -944q71 -154 256 -154q181 0 302 154q99 132 151 348q55 216 55 401zM315 455q0 -110 19 -181l731 936q-70 113 -234 113q-182 0 -307 -152q-96 -116 -153 -321q-56 -201 -56 -395zM1110 1618l-352 -145l-8 12l280 256q46 43 88 43q32 0 54 -23.5
t22 -58.5q0 -49 -84 -84z" />
    <glyph glyph-name="oslashacute" unicode="&#x1ff;" horiz-adv-x="1011" 
d="M201 39l-84 -117l-47 33l88 125q-80 95 -80 262q0 159 48 301t146 236q125 122 322 122q115 0 192 -47l84 119l50 -33l-89 -120q89 -83 89 -254q0 -145 -43 -293t-127 -252q-127 -148 -334 -148q-128 0 -215 66zM752 723q0 36 -7 76l-477 -666q40 -102 152 -102
q138 0 209 139q52 103 86 272q37 167 37 281zM246 272q0 -37 4 -65l475 663q-41 74 -143 74q-106 0 -185 -104q-67 -93 -110 -262q-41 -172 -41 -306zM858 1339l-315 -204l-8 8l221 295q45 63 94 63q33 0 54.5 -19.5t21.5 -51.5q0 -44 -68 -91z" />
    <glyph glyph-name="uni0218" unicode="&#x218;" horiz-adv-x="1032" 
d="M92 324h14q29 -134 115 -206.5t219 -72.5q170 0 242 84t72 195q0 75 -53.5 137t-190.5 147l-88 54q-199 126 -199 325q0 189 135.5 297.5t384.5 108.5q145 0 230 -39q51 -20 51 -64q0 -69 -43 -194h-12q-19 120 -82 173.5t-189 53.5q-141 0 -226 -71.5t-85 -188.5
q0 -75 41 -129.5t147 -120.5l91 -57q138 -87 199 -171.5t61 -193.5q0 -193 -136.5 -305.5t-373.5 -112.5q-176 0 -287 60q-59 35 -59 86q0 67 22 205zM182 -506l-6 17q184 88 184 178q0 36 -30 63q-35 30 -35 72q0 37 25.5 60.5t66.5 23.5q50 0 78.5 -31t28.5 -86
q0 -101 -87.5 -178.5t-224.5 -118.5z" />
    <glyph glyph-name="uni0219" unicode="&#x219;" horiz-adv-x="776" 
d="M55 248l13 -2q15 -94 90 -154q72 -57 155 -57q101 0 155 44t54 128q0 55 -35 100t-129 105l-63 41q-156 102 -156 245q0 140 108.5 221.5t289.5 81.5q104 0 163 -26q39 -14 39 -51q0 -55 -43 -162h-12q-27 178 -197 178q-97 0 -152.5 -48.5t-55.5 -127.5q0 -86 129 -172
l63 -41q112 -76 155.5 -132.5t43.5 -133.5q0 -145 -102.5 -228.5t-274.5 -83.5q-161 0 -232 56q-30 21 -30 57q0 60 24 162zM74 -506l-6 17q184 88 184 178q0 35 -31 63q-35 30 -35 72q0 37 26 60.5t67 23.5q50 0 78 -31t28 -86q0 -101 -87 -178.5t-224 -118.5z" />
    <glyph glyph-name="uni021A" unicode="&#x21a;" horiz-adv-x="1193" 
d="M721 12l-2 -12h-475l4 12q98 22 125 62q25 31 59 198l182 926q7 51 7 57q0 37 -50 37h-98q-87 0 -139 -14q-83 -18 -178 -197h-15q20 171 37 238q6 29 15 38t34 9h1002q49 0 49 -29q0 -71 -55 -254h-13q-24 176 -108 197q-56 12 -131 12h-103q-32 0 -44.5 -12t-18.5 -49
l-187 -971q-20 -97 -20 -158q0 -33 28.5 -52t94.5 -38zM246 -506l-6 17q184 88 184 178q0 35 -31 63q-35 30 -35 72q0 37 26 60.5t67 23.5q50 0 78 -31t28 -86q0 -101 -87 -178.5t-224 -118.5z" />
    <glyph glyph-name="uni021B" unicode="&#x21b;" horiz-adv-x="641" 
d="M522 100l6 -2q0 -19 -14 -41q-9 -14 -41 -37q-67 -43 -160 -43q-184 0 -184 175q0 51 25 170l118 573h-139l12 43q72 12 127 37q43 22 72 76q30 51 70 163h88l-47 -243h215l-15 -76h-217l-121 -582q-22 -110 -22 -178q0 -38 24.5 -60t63.5 -22q68 0 139 47zM37 -506
l-6 17q184 88 184 178q0 35 -31 63q-34 30 -34 72q0 37 25.5 60.5t66.5 23.5q50 0 78 -31t28 -86q0 -101 -87 -178.5t-224 -118.5z" />
    <glyph glyph-name="uni0259" unicode="&#x259;" horiz-adv-x="886" 
d="M147 795l-6 4q0 12 6 30q15 34 37 56q104 116 303 116q145 0 223 -84t78 -251q0 -154 -51 -306q-50 -158 -143 -251q-133 -136 -326 -136q-241 0 -241 197q0 134 133 229q137 96 440 99q14 66 14 153q0 244 -206 244q-155 0 -261 -100zM592 465q-208 -13 -317 -96.5
t-109 -212.5q0 -60 31.5 -92.5t87.5 -32.5q104 0 183.5 112t123.5 322z" />
    <glyph glyph-name="circumflex" unicode="&#x2c6;" horiz-adv-x="407" 
d="M344 1432l135 -291l-12 -8l-215 198l-309 -198l-9 10l265 291q43 48 84 47.5t61 -49.5z" />
    <glyph glyph-name="caron" unicode="&#x2c7;" horiz-adv-x="407" 
d="M70 1180l-133 290l10 11l215 -201l309 199l10 -11l-266 -290q-42 -48 -82 -48q-42 0 -63 50z" />
    <glyph glyph-name="breve" unicode="&#x2d8;" horiz-adv-x="407" 
d="M430 1432l14 -2q-20 -119 -82 -203q-59 -80 -196 -80q-205 0 -205 217q0 47 8 68h13q15 -164 194 -164q101 0 157.5 38t96.5 126z" />
    <glyph glyph-name="dotaccent" unicode="&#x2d9;" horiz-adv-x="407" 
d="M303 1298q0 -45 -30 -77.5t-76 -32.5q-38 0 -63 25t-25 63q0 51 30.5 83t77.5 32q38 0 62 -26t24 -67z" />
    <glyph glyph-name="ring" unicode="&#x2da;" horiz-adv-x="407" 
d="M377 1315q0 -81 -52 -135t-135 -54q-71 0 -115 46t-44 116q0 82 52 133.5t134 51.5q72 0 116 -43t44 -115zM322 1311q0 51 -30.5 81.5t-80.5 30.5q-57 0 -91 -36.5t-34 -96.5q0 -51 30 -82.5t83 -31.5q54 0 88.5 37t34.5 98z" />
    <glyph glyph-name="ogonek" unicode="&#x2db;" horiz-adv-x="407" 
d="M354 -334l6 -4l-2 -10q0 -17 -16 -33q-42 -39 -121 -39q-90 0 -136 41.5t-46 112.5q0 191 309 293l4 -11q-190 -114 -190 -260q0 -108 106 -108q59 0 86 18z" />
    <glyph glyph-name="tilde" unicode="&#x2dc;" horiz-adv-x="407" 
d="M479 1372l10 -6q-65 -197 -174 -197q-48 0 -139 45q-75 35 -108 35q-80 0 -138 -94l-12 4q76 211 188 211q32 0 119 -41q86 -45 121 -45q41 0 68.5 19t64.5 69z" />
    <glyph glyph-name="hungarumlaut" unicode="&#x2dd;" horiz-adv-x="407" 
d="M168 1339l-293 -206l-10 10l209 284q46 64 94 64q70 0 70 -59q0 -41 -70 -93zM469 1339l-293 -206l-10 10l209 284q46 64 94 64q70 0 70 -59q0 -47 -70 -93z" />
    <glyph glyph-name="uni0394" unicode="&#x394;" horiz-adv-x="1419" 
d="M961 1368l299 -1368h-1299l848 1368h152zM807 1233q-62 -112 -651 -1075h874q-188 888 -223 1075z" />
    <glyph glyph-name="uni03A9" unicode="&#x3a9;" horiz-adv-x="1513" 
d="M610 129l-18 -129h-451q-37 0 -50 10t-13 35q0 92 18 215h13q35 -86 77 -98q73 -17 308 -17q-136 60 -212.5 183t-76.5 286q0 168 59.5 325t169.5 267q187 187 469 187q225 0 346 -115t121 -348q0 -310 -158 -524q-132 -178 -344 -261q264 6 324 19q55 11 115 96h12
q-13 -98 -47 -213q-15 -47 -84 -47h-461l18 129q173 52 291 268q60 110 97 275q34 157 34 301q0 182 -68.5 266t-207.5 84q-203 0 -328 -186q-160 -238 -160 -605q0 -159 54.5 -266.5t152.5 -136.5z" />
    <glyph glyph-name="uni03BC" unicode="&#x3bc;" horiz-adv-x="1294" 
d="M307 47l-26 -153l-25 -154l-16 -111q-6 -37 -27 -49q-29 -16 -168 -16l-6 6q27 96 237 1079q33 138 33 205q0 36 -22 55q-26 20 -86 23v10q44 20 118 35q82 16 121 16q37 0 50.5 -13t13.5 -48q0 -42 -45 -221q-105 -445 -105 -539q0 -82 90 -82q69 0 146 62
q78 66 129 137q54 78 80 207l102 479h164l-111 -529q-41 -202 -41 -294q0 -84 68 -84q44 0 80 8l2 -10q-44 -31 -113 -55.5t-119 -24.5q-48 0 -67 23.5t-19 78.5q0 101 29 223q-66 -152 -162.5 -237.5t-201.5 -85.5q-88 0 -103 59z" />
    <glyph glyph-name="pi" unicode="&#x3c0;" horiz-adv-x="1333" 
d="M162 2v8q154 197 278 819h-20q-80 0 -134 -27.5t-110 -99.5l-10 5q44 142 113 211q57 57 196 57h819l-28 -146h-166l-115 -593q-8 -41 -8 -95q0 -78 74 -78q44 0 71 9l4 -11q-38 -31 -99.5 -54t-119.5 -23q-110 0 -110 108q0 51 22 170l111 567h-350q-129 -664 -207 -790
q-19 -31 -43 -41q-22 -14 -72 -14q-69 0 -96 18z" />
    <glyph glyph-name="Wgrave" unicode="&#x1e80;" horiz-adv-x="1923" 
d="M1061 1110l-547 -1110h-125q-1 48 -20 317l-60 850q-9 122 -41 150q-28 25 -90 37l2 12h455l-2 -12q-81 -27 -101 -39q-32 -19 -32 -94q0 -16 10 -224q5 -112 25 -426q15 -236 18 -340l534 1102h117l166 -1104q59 148 393 934q27 61 27 105q0 36 -33 53q-42 21 -94 33
l2 12h379l-2 -12q-19 -3 -74 -31q-30 -13 -51.5 -43.5t-52.5 -103.5l-381 -865l-56 -125q-59 -129 -81 -186h-125l-86 594q-10 74 -20.5 144t-19.5 129.5t-12 78.5zM993 1755l256 -272l-8 -10l-338 169q-74 38 -74 89q0 32 22.5 54.5t53.5 22.5q35 0 88 -53z" />
    <glyph glyph-name="wgrave" unicode="&#x1e81;" horiz-adv-x="1419" 
d="M322 -6h-107l-10 794q0 101 -27 119q-27 21 -88 27v10q57 27 123 41q82 16 117 16q38 0 41 -47q4 -86 4 -114q0 -32 -6 -342q-1 -88 -2 -170.5t-1.5 -123t-0.5 -50.5q323 610 383 747h112q30 -251 84 -766q143 251 209 375q62 117 99.5 223.5t37.5 151.5q0 36 -43 45
q-44 8 -65 8l-2 8q101 55 190 55q43 0 43 -36q0 -105 -164 -410q-82 -153 -344 -561h-104l-76 706q-150 -299 -403 -706zM739 1444l170 -301l-8 -8l-270 208q-56 44 -56 89q0 32 23.5 52.5t56.5 20.5q47 0 84 -61z" />
    <glyph glyph-name="Wacute" unicode="&#x1e82;" horiz-adv-x="1923" 
d="M1061 1110l-547 -1110h-125q-1 48 -20 317l-60 850q-9 122 -41 150q-28 25 -90 37l2 12h455l-2 -12q-81 -27 -101 -39q-32 -19 -32 -94q0 -16 10 -224q5 -112 25 -426q15 -236 18 -340l534 1102h117l166 -1104q59 148 393 934q27 61 27 105q0 36 -33 53q-42 21 -94 33
l2 12h379l-2 -12q-19 -3 -74 -31q-30 -13 -51.5 -43.5t-52.5 -103.5l-381 -865l-56 -125q-59 -129 -81 -186h-125l-86 594q-10 74 -20.5 144t-19.5 129.5t-12 78.5zM1395 1618l-353 -145l-8 12l281 256q46 43 88 43q32 0 54 -23.5t22 -58.5q0 -49 -84 -84z" />
    <glyph glyph-name="wacute" unicode="&#x1e83;" horiz-adv-x="1419" 
d="M322 -6h-107l-10 794q0 101 -27 119q-27 21 -88 27v10q57 27 123 41q82 16 117 16q38 0 41 -47q4 -86 4 -114q0 -32 -6 -342q-1 -88 -2 -170.5t-1.5 -123t-0.5 -50.5q323 610 383 747h112q30 -251 84 -766q143 251 209 375q62 117 99.5 223.5t37.5 151.5q0 36 -43 45
q-44 8 -65 8l-2 8q101 55 190 55q43 0 43 -36q0 -105 -164 -410q-82 -153 -344 -561h-104l-76 706q-150 -299 -403 -706zM1057 1339l-316 -204l-8 8l221 295q45 63 95 63q33 0 54 -19.5t21 -51.5q0 -45 -67 -91z" />
    <glyph glyph-name="Wdieresis" unicode="&#x1e84;" horiz-adv-x="1923" 
d="M1061 1110l-547 -1110h-125q-1 48 -20 317l-60 850q-9 122 -41 150q-28 25 -90 37l2 12h455l-2 -12q-81 -27 -101 -39q-32 -19 -32 -94q0 -16 10 -224q5 -112 25 -426q15 -236 18 -340l534 1102h117l166 -1104q59 148 393 934q27 61 27 105q0 36 -33 53q-42 21 -94 33
l2 12h379l-2 -12q-19 -3 -74 -31q-30 -13 -51.5 -43.5t-52.5 -103.5l-381 -865l-56 -125q-59 -129 -81 -186h-125l-86 594q-10 74 -20.5 144t-19.5 129.5t-12 78.5zM1092 1599q0 -45 -31.5 -77.5t-77.5 -32.5q-39 0 -63.5 23.5t-24.5 64.5q0 51 31 84t80 33q38 0 62 -26
t24 -69zM1444 1599q0 -48 -30 -79t-77 -31q-39 0 -64.5 24t-25.5 64q0 51 31.5 84t79.5 33q38 0 62 -26t24 -69z" />
    <glyph glyph-name="wdieresis" unicode="&#x1e85;" horiz-adv-x="1419" 
d="M322 -6h-107l-10 794q0 101 -27 119q-27 21 -88 27v10q57 27 123 41q82 16 117 16q38 0 41 -47q4 -86 4 -114q0 -32 -6 -342q-1 -88 -2 -170.5t-1.5 -123t-0.5 -50.5q323 610 383 747h112q30 -251 84 -766q143 251 209 375q62 117 99.5 223.5t37.5 151.5q0 36 -43 45
q-44 8 -65 8l-2 8q101 55 190 55q43 0 43 -36q0 -105 -164 -410q-82 -153 -344 -561h-104l-76 706q-150 -299 -403 -706zM795 1298q0 -45 -30.5 -77.5t-76.5 -32.5q-38 0 -63 25t-25 63q0 51 30.5 83t78.5 32q38 0 62 -26t24 -67zM1116 1298q0 -46 -29 -78t-75 -32
q-38 0 -63 25t-25 63q0 51 30.5 83t77.5 32q38 0 61 -25.5t23 -67.5z" />
    <glyph glyph-name="Ygrave" unicode="&#x1ef2;" horiz-adv-x="1234" 
d="M752 12l-4 -12h-472l3 12q89 17 124 62q34 53 60 196l57 318l-235 600q-42 105 -74 133q-27 21 -70 33l2 12h447l-2 -12q-81 -19 -94 -27q-33 -14 -33 -45q0 -25 28 -98q153 -398 195 -518q44 69 371 510q53 77 53 110q0 29 -33 43q-37 19 -76 25l2 12h377l-2 -12
q-51 -12 -104 -51q-29 -21 -103 -113l-452 -582l-66 -344q-20 -97 -20 -155q0 -35 26.5 -56t94.5 -41zM633 1755l256 -272l-8 -10l-338 169q-74 38 -74 89q0 32 22.5 54.5t53.5 22.5q35 0 88 -53z" />
    <glyph glyph-name="ygrave" unicode="&#x1ef3;" horiz-adv-x="966" 
d="M-178 -295h14q21 -94 78 -94q64 0 135 65q108 94 266 312h-77l-39 805q-3 95 -33 118q-24 17 -88 23l-2 10q57 27 123 41q82 16 116 16q36 0 45 -45l7 -69q2 -33 2 -51q9 -147 24 -762q185 288 291 473q133 233 133 330q0 40 -43 49l-61 10l-2 10q47 24 110 39
q69 16 97 16q45 0 45 -36q0 -84 -152 -342q-115 -198 -414 -631q-179 -255 -288 -367q-124 -133 -230 -133q-82 0 -82 64q0 57 25 149zM465 1444l170 -301l-8 -8l-271 208q-55 43 -55 89q0 32 23.5 52.5t56.5 20.5q47 0 84 -61z" />
    <glyph glyph-name="endash" unicode="&#x2013;" horiz-adv-x="1167" 
d="M1075 600l-28 -131h-953l29 131h952z" />
    <glyph glyph-name="emdash" unicode="&#x2014;" horiz-adv-x="1947" 
d="M1870 600l-29 -131h-1747l29 131h1747z" />
    <glyph glyph-name="quoteleft" unicode="&#x2018;" horiz-adv-x="425" 
d="M557 1503l6 -12q-96 -56 -153.5 -120.5t-57.5 -125.5q0 -36 41 -71q47 -38 47 -87q0 -42 -29 -72t-75 -30q-61 0 -95 38.5t-34 102.5q0 230 350 377z" />
    <glyph glyph-name="quoteright" unicode="&#x2019;" horiz-adv-x="425" 
d="M131 985l-6 12q93 53 152 119.5t59 126.5q0 44 -41 74q-47 41 -47 84q0 44 29 73t75 29q61 0 96 -38.5t35 -102.5q0 -231 -352 -377z" />
    <glyph glyph-name="quotesinglbase" unicode="&#x201a;" horiz-adv-x="425" 
d="M-117 -289l-6 13q97 57 154 120.5t57 124.5q0 37 -41 72q-47 38 -47 86q0 44 29 73t75 29q61 0 95 -38.5t34 -102.5q0 -230 -350 -377z" />
    <glyph glyph-name="quotedblleft" unicode="&#x201c;" horiz-adv-x="778" 
d="M907 1503l6 -14q-213 -121 -213 -244q0 -37 43 -71q48 -36 48 -87q0 -42 -29.5 -72t-75.5 -30q-61 0 -96 38.5t-35 102.5q0 231 352 377zM557 1503l6 -14q-211 -120 -211 -244q0 -36 41 -71q47 -38 47 -87q0 -42 -29 -72t-75 -30q-61 0 -95 38.5t-34 102.5q0 230 350 377
z" />
    <glyph glyph-name="quotedblright" unicode="&#x201d;" horiz-adv-x="778" 
d="M131 985l-6 12q93 53 152 119.5t59 126.5q0 44 -41 74q-47 41 -47 84q0 44 29 73t75 29q61 0 96 -38.5t35 -102.5q0 -231 -352 -377zM481 985l-6 12q93 53 152 119.5t59 126.5q0 37 -43 74q-45 33 -45 84q0 44 29 73t75 29q61 0 95 -38.5t34 -102.5q0 -230 -350 -377z
" />
    <glyph glyph-name="quotedblbase" unicode="&#x201e;" horiz-adv-x="778" 
d="M-117 -289l-6 13q97 57 154 120.5t57 124.5q0 37 -41 72q-47 38 -47 86q0 44 29 73t75 29q61 0 95 -38.5t34 -102.5q0 -230 -350 -377zM233 -289l-6 13q97 57 154 120.5t57 124.5q0 35 -43 72q-47 41 -47 86q0 43 30 72.5t77 29.5q61 0 95 -38.5t34 -102.5
q0 -226 -351 -377z" />
    <glyph glyph-name="dagger" unicode="&#x2020;" horiz-adv-x="1083" 
d="M635 907q-40 -291 -66 -508l-41 -344q-12 -84 -86 -84q-69 0 -69 64q0 25 12 71q5 20 90 343q95 361 119 458q-88 -12 -178 -33q-87 -20 -121 -20q-78 0 -78 72q0 92 100 92q16 0 55 -11t105.5 -29.5t126.5 -31.5q8 101 8 246q0 23 -1 68t-1 49q0 108 95 108q77 0 77 -69
q0 -34 -20 -84q-89 -221 -117 -318q58 10 180 45q101 29 125 29q80 0 80 -72q0 -43 -26.5 -68.5t-69.5 -25.5q-31 0 -121 20q-93 21 -178 33z" />
    <glyph glyph-name="daggerdbl" unicode="&#x2021;" horiz-adv-x="1083" 
d="M436 268l68 189q-56 -8 -124 -23t-113.5 -26t-59.5 -11q-36 0 -57 19.5t-21 54.5q0 92 90 92q17 0 55 -8t106.5 -23t131.5 -26l80 405q-72 -10 -140.5 -22.5t-104.5 -19.5t-50 -7q-78 0 -78 72q0 92 86 92q17 0 55.5 -10t106.5 -27.5t131 -30.5q6 65 10 218q2 84 2 135
q5 55 25.5 80.5t71.5 25.5q73 0 73 -69q0 -34 -22 -95q-5 -17 -47 -123q-43 -109 -62 -172q65 11 134.5 28.5t111 28.5t55.5 11q80 0 80 -72q0 -43 -25.5 -67.5t-72.5 -24.5q-13 0 -51.5 7t-107.5 20t-132 22l-78 -405q70 11 138.5 26t105 23t49.5 8q82 0 82 -74
q0 -42 -25 -67t-69 -25q-17 0 -56.5 8.5t-107.5 24.5t-127 27q-11 -117 -14 -238q-1 -27 -1.5 -52t-1 -41.5t-1 -29.5t-0.5 -20v-6q-9 -117 -97 -117q-78 0 -78 70q0 21 23 98z" />
    <glyph glyph-name="bullet" unicode="&#x2022;" horiz-adv-x="804" 
d="M674 588q0 -129 -80 -212t-207 -83q-106 0 -176 69t-70 177q0 129 82.5 210.5t210.5 81.5q110 0 175 -66t65 -177z" />
    <glyph glyph-name="ellipsis" unicode="&#x2026;" horiz-adv-x="2158" 
d="M410 109q0 -57 -35 -94.5t-94 -37.5q-49 0 -80 30.5t-31 80.5q0 58 36 96.5t95 38.5q49 0 79 -31.5t30 -82.5zM1102 109q0 -57 -34.5 -94.5t-92.5 -37.5q-51 0 -81 30.5t-30 80.5q0 58 35 96.5t94 38.5q50 0 79.5 -31t29.5 -83zM1798 109q0 -57 -34.5 -94.5t-92.5 -37.5
q-51 0 -81.5 30.5t-30.5 80.5q0 60 35.5 97.5t95.5 37.5q49 0 78.5 -31.5t29.5 -82.5z" />
    <glyph glyph-name="perthousand" unicode="&#x2030;" horiz-adv-x="2433" 
d="M766 1104q0 -135 -43 -277q-45 -144 -131 -225q-92 -86 -215 -86q-240 0 -240 256q0 309 160 477q91 99 231 99q238 0 238 -244zM629 1139q0 82 -24 118.5t-87 36.5q-74 0 -127 -84q-51 -80 -86 -223q-33 -132 -33 -246q0 -88 26 -128t87 -40q66 0 125 89q48 76 82 229
q37 154 37 248zM354 -29l965 1428l59 -39l-960 -1423zM1610 571q0 -134 -43 -276q-45 -144 -131 -225q-92 -86 -215 -86q-240 0 -240 256q0 309 160 477q91 98 231 98q238 0 238 -244zM1475 606q0 82 -24.5 119t-88.5 37q-74 0 -127 -84q-50 -78 -86 -223q-33 -132 -33 -246
q0 -88 26 -128t87 -40q67 0 125 88q46 73 84 231q37 154 37 246zM2353 571q0 -134 -43 -276q-45 -144 -131 -225q-92 -86 -215 -86q-240 0 -240 256q0 309 160 477q91 98 232 98q237 0 237 -244zM2218 606q0 82 -24.5 119t-88.5 37q-74 0 -127 -84q-50 -78 -86 -223
q-32 -128 -32 -246q0 -88 26 -128t86 -40q67 0 125 88q46 73 84 231q37 154 37 246z" />
    <glyph glyph-name="guilsinglleft" unicode="&#x2039;" horiz-adv-x="532" 
d="M104 559l426 350l11 -12l-314 -393l158 -408l-12 -6l-287 361q-18 27 -18 45q0 34 36 63z" />
    <glyph glyph-name="guilsinglright" unicode="&#x203a;" horiz-adv-x="532" 
d="M403 438l-426 -348l-10 10l316 394l-158 407l12 8l287 -360q16 -19 16 -47q0 -34 -37 -64z" />
    <glyph glyph-name="fraction" unicode="&#x2044;" horiz-adv-x="182" 
d="M-393 -29l962 1426l58 -35l-963 -1425z" />
    <glyph glyph-name="zero.superior" unicode="&#x2070;" 
d="M803 1452q0 -134 -43 -276q-41 -144 -129 -226q-95 -86 -217 -86q-238 0 -238 256q0 312 160 477q91 99 229 99q126 0 182 -61.5t56 -182.5zM670 1487q0 86 -23 123t-86 37q-80 0 -133 -86q-50 -78 -86 -230q-35 -146 -35 -248q0 -165 115 -165q71 0 129 88q47 78 82 235
q37 154 37 246z" />
    <glyph glyph-name="four.superior" unicode="&#x2074;" 
d="M707 893l-2 -12h-326l2 12q46 9 72 25q36 20 51 90l16 90h-383l13 61l516 537h102l-51 -254l-49 -260h131l-19 -84h-129l-16 -86q-6 -27 -6 -58q0 -27 20 -41q19 -11 58 -20zM236 1182h301q60 318 81 403q-56 -65 -382 -403z" />
    <glyph glyph-name="five.superior" unicode="&#x2075;" 
d="M176 1067h10q5 -64 54 -106.5t131 -42.5q101 0 158 66t57 171q0 74 -41.5 119t-112.5 45q-85 0 -174 -47l-8 6l112 403h420l-20 -110h-234q-90 2 -147 2l-64 -219q55 43 172 43q107 0 174.5 -58.5t67.5 -156.5q0 -143 -98.5 -230.5t-259.5 -87.5q-129 0 -199 43
q-22 13 -22 37q0 44 24 123z" />
    <glyph glyph-name="six.superior" unicode="&#x2076;" 
d="M336 1262q31 57 90.5 90.5t132.5 33.5q94 0 149.5 -54.5t55.5 -145.5q0 -141 -84 -231.5t-229 -90.5q-121 0 -184.5 68.5t-63.5 191.5q0 127 46 254t128 211q101 107 262 107q79 0 131 -19q41 -15 41 -45q0 -34 -27 -116h-10q-8 67 -40 98t-99 31q-113 0 -193 -109
q-67 -98 -106 -274zM324 1159q-7 -31 -7 -80q3 -161 136 -161q90 0 138 73t48 183q0 65 -36 103t-93 38q-99 0 -154 -76q-16 -19 -32 -80z" />
    <glyph glyph-name="seven.superior" unicode="&#x2077;" 
d="M819 1624l-442 -770l-90 23q189 336 444 696q-65 0 -147 -2h-213q-54 0 -82 -25q-17 -17 -45 -65l-8 2q6 85 22 162q9 36 57 36h514z" />
    <glyph glyph-name="eight.superior" unicode="&#x2078;" 
d="M588 1321q75 -36 118.5 -91.5t43.5 -117.5q0 -115 -88 -181.5t-228 -66.5q-125 0 -193.5 56.5t-68.5 142.5q0 164 227 219q-51 30 -79.5 79.5t-28.5 104.5q0 104 77.5 167t202.5 63q111 0 169.5 -45t58.5 -117q0 -140 -211 -213zM426 1266q-150 -70 -150 -197
q0 -68 46 -109.5t116 -41.5q85 0 134 42t49 115q0 108 -195 191zM559 1335q146 75 146 193q0 55 -36.5 88t-101.5 33q-73 0 -114 -39.5t-41 -104.5q0 -99 147 -170z" />
    <glyph glyph-name="nine.superior" unicode="&#x2079;" 
d="M641 1294q-70 -116 -219 -116q-93 0 -151 57t-58 145q0 139 84.5 227.5t230.5 88.5q122 0 188 -66t66 -184q0 -139 -39 -266q-41 -134 -120 -213q-100 -103 -275 -103q-82 0 -141 27q-41 21 -41 45q0 50 24 115h11q6 -62 47 -97.5t108 -35.5q125 0 191 100q53 81 94 276z
M651 1405q6 35 6 80q0 162 -129 162q-88 0 -135 -80q-45 -77 -45 -178q0 -67 33.5 -104.5t89.5 -37.5q104 0 150 76q22 39 30 82z" />
    <glyph glyph-name="parenleft.superior" unicode="&#x207d;" horiz-adv-x="403" 
d="M414 739l-8 -12q-113 48 -172.5 153t-59.5 242q0 231 108 402t314 243l6 -14q-168 -82 -248 -258q-78 -179 -78 -387q0 -114 38 -217t100 -152z" />
    <glyph glyph-name="parenright.superior" unicode="&#x207e;" horiz-adv-x="403" 
d="M227 1755l11 12q113 -48 172 -152.5t59 -242.5q0 -231 -108 -401.5t-314 -243.5l-8 14q169 83 246 258q80 177 80 390q0 114 -38 216.5t-100 149.5z" />
    <glyph glyph-name="n.superior" unicode="&#x207f;" 
d="M322 821l-64 -289h-121l68 314q31 143 31 190q0 27 -13 37q-14 14 -59 17v8q79 30 164 30q41 0 41 -34q0 -62 -33 -162q40 78 121 141q80 62 161 62q97 0 97 -86q0 -47 -66 -326q-7 -29 -10 -46t-5.5 -35.5t-1 -28.5t5.5 -19t13 -12.5t23 -3.5q37 0 47 2l2 -7
q-85 -49 -174 -49q-51 0 -51 45q0 37 20 121q66 279 66 320q0 49 -47 49q-39 0 -89 -37t-81 -84q-30 -46 -45 -117z" />
    <glyph glyph-name="zero.inferior" unicode="&#x2080;" 
d="M592 256q0 -135 -43 -274q-41 -146 -129 -228q-95 -86 -217 -86q-238 0 -238 256q0 312 160 477q92 99 229 99q126 0 182 -61.5t56 -182.5zM459 291q0 86 -23 123t-86 37q-80 0 -133 -86q-50 -78 -86 -230q-35 -146 -35 -248q0 -166 115 -166q70 0 129 89q47 78 82 235
q37 154 37 246z" />
    <glyph glyph-name="one.inferior" unicode="&#x2081;" 
d="M360 -305l-2 -10h-325l2 10q53 12 63 16q40 15 56 101l92 485q12 68 12 92q0 35 -45 35q-41 0 -51 -2v18l254 64l8 -8q-2 -7 -59 -295l-76 -381q-6 -38 -6 -62q0 -27 24 -45q22 -11 53 -18z" />
    <glyph glyph-name="two.inferior" unicode="&#x2082;" 
d="M428 -315h-526l12 53q102 69 158 110q55 40 149 127q176 159 176 332q0 66 -36 105t-107 39q-72 0 -113.5 -30.5t-81.5 -105.5h-8q-2 25 -2 86q0 45 53 66q85 33 195 33q118 0 181 -53t63 -138q0 -53 -21 -106q-12 -33 -43.5 -74.5t-49 -59.5t-58.5 -59q-34 -34 -111 -86
l-106 -69l-109 -68q152 4 336 4q53 0 78 19q22 16 57 75h10q-6 -76 -37 -168q-6 -19 -17.5 -25.5t-41.5 -6.5z" />
    <glyph glyph-name="three.inferior" unicode="&#x2083;" 
d="M-39 -137h8q5 -62 55 -102t134 -40q97 0 153 61t56 159q0 63 -42.5 102t-119.5 39h-37l10 47h39q90 0 135 45q62 53 62 152q0 58 -33.5 91.5t-95.5 33.5q-139 0 -201 -132h-8q0 77 2 95q3 32 49 53q67 33 190 33q112 0 173 -45t61 -119q0 -184 -225 -227
q184 -21 184 -168q0 -127 -99.5 -199t-258.5 -74q-134 0 -193 39q-27 15 -27 41q0 42 29 115z" />
    <glyph glyph-name="four.inferior" unicode="&#x2084;" 
d="M496 -303l-2 -12h-326l2 12q49 9 72 24q36 20 51 91l16 90h-383l13 61l516 537h102l-51 -254l-49 -260h131l-19 -84h-129l-16 -86q-6 -27 -6 -58q0 -27 20 -41q19 -11 58 -20zM25 -14h301q57 300 82 403q-48 -56 -383 -403z" />
    <glyph glyph-name="five.inferior" unicode="&#x2085;" 
d="M-35 -129h10q5 -64 54 -107t131 -43q100 0 157.5 66.5t57.5 171.5q0 74 -41.5 119t-112.5 45q-85 0 -174 -47l-8 6l113 403h419l-20 -110h-236q-88 2 -145 2l-64 -219q55 43 173 43q107 0 174 -58.5t67 -156.5q0 -143 -98.5 -230.5t-259.5 -87.5q-129 0 -199 43
q-22 13 -22 37q0 44 24 123z" />
    <glyph glyph-name="six.inferior" unicode="&#x2086;" 
d="M125 66q31 57 90.5 90.5t132.5 33.5q94 0 149.5 -54.5t55.5 -145.5q0 -141 -84 -231.5t-229 -90.5q-121 0 -184.5 68.5t-63.5 191.5q0 127 46 254t128 211q101 107 262 107q79 0 131 -19q41 -15 41 -45q0 -34 -27 -117h-10q-8 67 -40.5 98.5t-98.5 31.5q-113 0 -193 -109
q-67 -98 -106 -274zM113 -37q-7 -32 -7 -80q3 -162 136 -162q90 0 138 73t48 183q0 65 -36 103.5t-93 38.5q-99 0 -154 -76q-16 -19 -32 -80z" />
    <glyph glyph-name="seven.inferior" unicode="&#x2087;" 
d="M608 428l-442 -770l-90 23q189 336 444 696q-65 0 -147 -2h-213q-54 0 -82 -25q-17 -17 -45 -65l-8 2q6 85 22 162q9 36 57 36h514z" />
    <glyph glyph-name="eight.inferior" unicode="&#x2088;" 
d="M377 125q75 -36 118.5 -91.5t43.5 -117.5q0 -115 -88 -181.5t-228 -66.5q-125 0 -193.5 56.5t-68.5 142.5q0 164 227 219q-51 30 -79.5 79.5t-28.5 104.5q0 104 77.5 167t202.5 63q111 0 169.5 -45t58.5 -117q0 -140 -211 -213zM215 70q-149 -70 -149 -197
q0 -68 45.5 -110t115.5 -42q85 0 134 42.5t49 115.5q0 108 -195 191zM348 139q146 75 146 193q0 55 -36.5 88t-101.5 33q-73 0 -114 -39.5t-41 -104.5q0 -99 147 -170z" />
    <glyph glyph-name="nine.inferior" unicode="&#x2089;" 
d="M430 98q-70 -116 -219 -116q-93 0 -151 57t-58 145q0 139 84.5 227.5t230.5 88.5q122 0 188 -66t66 -184q0 -137 -39 -264q-42 -137 -120 -215q-100 -103 -275 -103q-83 0 -141 27q-41 21 -41 45q0 48 25 115h10q6 -62 47 -98t108 -36q124 0 191 101q53 81 94 276z
M440 209q6 34 6 80q0 162 -129 162q-88 0 -135 -80q-45 -77 -45 -178q0 -67 33.5 -104.5t89.5 -37.5q104 0 150 76q22 39 30 82z" />
    <glyph glyph-name="parenleft.inferior" unicode="&#x208d;" horiz-adv-x="403" 
d="M203 -457l-8 -12q-113 48 -172.5 153t-59.5 242q0 231 108 402t314 243l6 -14q-168 -82 -248 -258q-77 -177 -77 -387q0 -114 37.5 -217t99.5 -152z" />
    <glyph glyph-name="parenright.inferior" unicode="&#x208e;" horiz-adv-x="403" 
d="M16 559l11 12q113 -48 172 -152.5t59 -242.5q0 -231 -108 -401.5t-314 -243.5l-8 14q168 82 246 260q80 177 80 388q0 114 -38 216.5t-100 149.5z" />
    <glyph glyph-name="Euro" unicode="&#x20ac;" horiz-adv-x="1361" 
d="M1020 582l-16 -68h-447v-43q0 -205 79 -315.5t232 -110.5q123 0 224 70q63 46 127 139l8 -2q-3 -74 -31 -160q-16 -43 -84 -72q-106 -47 -295 -47q-223 0 -342 134t-119 374v33h-184l16 68h172q5 93 35 211h-174l17 67h178q83 240 258 371q172 129 418 129q148 0 235 -37
q49 -18 49 -63q0 -60 -57 -209h-12q-15 107 -45 157q-50 80 -191 80q-180 0 -311 -143q-100 -116 -152 -285h461l-16 -67h-461q-25 -114 -33 -211h461z" />
    <glyph glyph-name="afii61289" unicode="&#x2113;" horiz-adv-x="935" 
d="M412 578q173 100 301 247q168 186 168 369q0 109 -99 109q-91 0 -161 -107q-106 -153 -209 -618zM760 147l6 -2q-3 -27 -12 -45q-16 -37 -45 -59q-95 -68 -240 -68q-124 0 -195 78t-71 213q0 72 12 160l-145 -68l-19 50q132 60 172 83q67 323 135 494q66 165 160 270
q115 121 277 121q88 0 141 -46.5t53 -129.5q0 -208 -213 -418q-150 -144 -381 -276q-24 -120 -24 -240q0 -198 151 -198q138 0 238 81z" />
    <glyph glyph-name="trademark" unicode="&#x2122;" horiz-adv-x="1746" 
d="M600 713l-2 -8h-279l3 8q45 9 65 32q13 16 29 93l86 434q4 28 4 31q0 18 -27 18h-47q-55 0 -76 -6q-37 -8 -90 -101h-8q5 52 16 117q3 35 35 35h543q27 0 27 -23q0 -30 -27 -129h-8q-15 97 -58 103q-28 4 -69 4h-51q-18 0 -24 -6t-11 -25l-88 -454q-11 -64 -11 -66
q0 -27 17 -37q2 -1 9 -4t18 -7.5t24 -8.5zM1012 713l-2 -8h-211l2 8q39 8 65 26q20 20 33 76l90 393q21 86 21 101q0 17 -11 28q-17 12 -55 23l2 6h178q26 0 29 -27q88 -382 102 -462l283 466q13 23 33 23h170l-2 -6q-42 -14 -56 -25q-15 -12 -24 -55l-76 -467
q-4 -32 -4 -43q0 -21 12 -33q17 -15 60 -24l-2 -8h-283l2 8q25 3 59 24q19 13 31 66l15 94q16 86 30 195l29 176q-37 -71 -322 -539h-45l-67 293l-39 176l-17 72q-42 -223 -98 -461q-4 -36 -4 -43q0 -20 14 -31q6 -6 58 -22z" />
    <glyph glyph-name="Omega" unicode="&#x2126;" horiz-adv-x="1499" 
d="M610 129l-18 -129h-451q-37 0 -50 10t-13 35q0 92 18 215h13q35 -86 77 -98q73 -17 308 -17q-136 60 -212.5 183t-76.5 286q0 168 59.5 325t169.5 267q187 187 469 187q225 0 346 -115t121 -348q0 -310 -158 -524q-132 -178 -344 -261q264 6 324 19q55 11 115 96h12
q-13 -98 -47 -213q-15 -47 -84 -47h-461l18 129q173 52 291 268q60 110 97 275q34 157 34 301q0 182 -68.5 266t-207.5 84q-203 0 -328 -186q-160 -238 -160 -605q0 -159 54.5 -266.5t152.5 -136.5z" />
    <glyph glyph-name="estimated" unicode="&#x212e;" horiz-adv-x="1757" 
d="M1696 684v-18h-1268q-8 0 -8 -11v-387q0 -22 18 -43q91 -99 216 -154t261 -55q147 0 279 62t225 172h115q-111 -129 -274.5 -202t-346.5 -73q-320 0 -553 207q-229 207 -229 502q0 296 229 500q232 209 553 209t553 -209q230 -205 230 -500zM1411 717v387q0 25 -22 47
q-201 201 -474 201q-269 0 -475 -209q-20 -20 -20 -49v-377q0 -12 8 -12h971q12 0 12 12z" />
    <glyph glyph-name="onethird" unicode="&#x2153;" horiz-adv-x="1644" 
d="M297 -29l963 1426l57 -35l-963 -1425zM508 543l-2 -11h-326l2 11q55 12 64 16q39 15 55 100l92 486q13 73 13 92q0 35 -46 35q-41 0 -51 -2l-2 18l256 64l6 -9l-59 -301l-74 -374q-6 -38 -6 -62q0 -29 25 -45q22 -13 53 -18zM922 178h8q5 -62 54.5 -101.5t133.5 -39.5
q97 0 153 60.5t56 158.5q0 63 -42.5 102t-119.5 39h-37l11 47h39q90 0 135 45q61 52 61 152q0 58 -33.5 91.5t-95.5 33.5q-140 0 -201 -131h-8q0 76 2 94q3 32 49 53q67 33 191 33q112 0 172.5 -45t60.5 -119q0 -183 -225 -227q184 -21 184 -168q0 -127 -99.5 -198.5
t-258.5 -73.5q-133 0 -192 39q-27 15 -27 40q0 43 29 115z" />
    <glyph glyph-name="twothirds" unicode="&#x2154;" horiz-adv-x="1644" 
d="M403 -29l963 1426l57 -35l-962 -1425zM627 532h-527l13 54q83 57 157 110q53 38 150 125q176 162 176 334q0 66 -36 104.5t-107 38.5q-73 0 -114 -30t-81 -105h-8q-2 25 -2 86q0 45 53 66q85 33 195 33q117 0 180 -53t63 -138q0 -56 -20 -106q-4 -11 -10 -22t-11.5 -20.5
t-14.5 -22t-15 -20.5t-17 -20.5t-16.5 -19t-18.5 -19.5l-17 -17l-17 -17l-15 -15q-37 -37 -110 -86l-107 -70l-108 -67q152 4 336 4q53 0 77 18q23 16 58 76h10q-6 -76 -37 -168q-6 -19 -17.5 -26t-41.5 -7zM1006 178h8q5 -62 54.5 -101.5t133.5 -39.5q97 0 153 60.5
t56 158.5q0 63 -42.5 102t-119.5 39h-37l11 47h39q90 0 135 45q61 52 61 152q0 58 -33.5 91.5t-95.5 33.5q-140 0 -201 -131h-8q0 76 2 94q3 32 49 53q67 33 191 33q112 0 172.5 -45t60.5 -119q0 -183 -225 -227q184 -21 184 -168q0 -127 -99.5 -198.5t-258.5 -73.5
q-133 0 -192 39q-27 15 -27 40q0 43 29 115z" />
    <glyph glyph-name="oneeighth" unicode="&#x215b;" horiz-adv-x="1644" 
d="M303 -29l963 1426l57 -35l-963 -1425zM512 543l-2 -11h-326l2 11q55 12 64 16q39 15 55 100l92 486q13 73 13 92q0 35 -45 35q-42 0 -52 -2l-2 18l256 64l6 -9q-7 -24 -59 -301l-74 -374q-6 -38 -6 -62q0 -29 25 -45q18 -12 53 -18zM1319 440q75 -36 118.5 -91.5
t43.5 -117.5q0 -115 -88 -181t-228 -66q-125 0 -193.5 56t-68.5 142q0 164 227 219q-50 30 -79 80t-29 105q0 104 78 166.5t203 62.5q111 0 169 -45t58 -117q0 -140 -211 -213zM1157 385q-149 -70 -149 -197q0 -68 45.5 -109.5t115.5 -41.5q85 0 134 42.5t49 115.5
q0 107 -195 190zM1290 455q146 75 146 192q0 55 -36.5 88t-101.5 33q-73 0 -114 -39t-41 -104q0 -99 147 -170z" />
    <glyph glyph-name="threeeighths" unicode="&#x215c;" horiz-adv-x="1644" 
d="M354 -29l963 1426l57 -35l-962 -1425zM145 711h9q5 -62 54.5 -102t133.5 -40q97 0 153 60.5t56 158.5q0 64 -42.5 103t-119.5 39h-37l10 47h39q91 0 136 45q61 52 61 152q0 58 -33.5 91t-95.5 33q-140 0 -201 -131h-8q0 77 2 95q3 32 49 53q67 33 191 33q112 0 172.5 -45
t60.5 -119q0 -184 -225 -228q184 -21 184 -168q0 -127 -99.5 -198.5t-258.5 -73.5q-134 0 -193 39q-26 14 -26 41q0 45 28 115zM1350 440q74 -36 117.5 -91.5t43.5 -117.5q0 -115 -87.5 -181t-227.5 -66q-125 0 -193.5 56t-68.5 142q0 164 227 219q-50 30 -79 80t-29 105
q0 104 77.5 166.5t202.5 62.5q111 0 169.5 -45t58.5 -117q0 -140 -211 -213zM1188 385q-150 -71 -150 -197q0 -68 46 -109.5t116 -41.5q85 0 133.5 42t48.5 116q0 107 -194 190zM1321 455q145 74 145 192q0 55 -36 88t-101 33q-73 0 -114 -39t-41 -104q0 -99 147 -170z" />
    <glyph glyph-name="fiveeighths" unicode="&#x215d;" horiz-adv-x="1644" 
d="M354 -29l963 1426l57 -35l-962 -1425zM154 719h10q6 -66 54 -108t130 -42q100 0 156.5 66t56.5 172q0 75 -40 119.5t-111 44.5q-91 0 -174 -47l-9 6l113 403h420l-21 -110h-233q-88 2 -148 2l-63 -219q55 43 172 43q107 0 174.5 -58.5t67.5 -156.5q0 -143 -99 -230.5
t-260 -87.5q-128 0 -198 43q-23 13 -23 37q0 40 25 123zM1356 440q75 -36 118.5 -91.5t43.5 -117.5q0 -115 -88 -181t-228 -66q-125 0 -193.5 56t-68.5 142q0 164 227 219q-50 30 -79 80t-29 105q0 104 77.5 166.5t202.5 62.5q111 0 169.5 -45t58.5 -117q0 -140 -211 -213z
M1194 385q-150 -71 -150 -197q0 -68 46 -109.5t116 -41.5q85 0 134 42.5t49 115.5q0 107 -195 190zM1327 455q146 75 146 192q0 55 -36.5 88t-101.5 33q-73 0 -114 -39t-41 -104q0 -99 147 -170z" />
    <glyph glyph-name="seveneighths" unicode="&#x215e;" horiz-adv-x="1644" 
d="M266 -29l963 1426l57 -35l-962 -1425zM795 1276l-443 -770l-90 22q188 334 445 697q-66 0 -148 -2h-215q-52 0 -80 -25q-15 -15 -43 -63h-10q10 117 22 161q9 37 58 37h512zM1276 440q75 -36 118.5 -91.5t43.5 -117.5q0 -115 -88 -181t-228 -66q-125 0 -193.5 56
t-68.5 142q0 164 227 219q-50 30 -79 80t-29 105q0 104 78 166.5t203 62.5q111 0 169 -45t58 -117q0 -140 -211 -213zM1114 385q-149 -70 -149 -197q0 -68 45.5 -109.5t115.5 -41.5q85 0 134 42.5t49 115.5q0 107 -195 190zM1247 455q146 75 146 192q0 55 -36.5 88
t-101.5 33q-73 0 -114 -39t-41 -104q0 -99 147 -170z" />
    <glyph glyph-name="arrowleft" unicode="&#x2190;" horiz-adv-x="1505" 
d="M1470 735v-135q-1058 0 -1169 2q85 -75 528 -518l-90 -90l-682 674l680 675l90 -88l-526 -524q454 4 1169 4z" />
    <glyph glyph-name="arrowup" unicode="&#x2191;" horiz-adv-x="1505" 
d="M846 0h-137q0 941 4 1167l-525 -526l-88 90l676 682l674 -680l-90 -92q-388 385 -518 526q4 -442 4 -1167z" />
    <glyph glyph-name="arrowright" unicode="&#x2192;" horiz-adv-x="1505" 
d="M76 600v135q715 0 1169 -4l-528 524l92 88l680 -675l-682 -674l-90 90q408 408 526 518q-109 -2 -1167 -2z" />
    <glyph glyph-name="arrowdown" unicode="&#x2193;" horiz-adv-x="1505" 
d="M709 1380h137q0 -725 -4 -1167q130 141 518 526l90 -90l-674 -680l-676 680l88 92l525 -526q-4 226 -4 1165z" />
    <glyph glyph-name="uni2196" unicode="&#x2196;" horiz-adv-x="1505" 
d="M514 1026l838 -829l-97 -95l-825 828q2 -39 2 -740h-129v957h961v-125h-390q-102 1 -187.5 2t-124 1.5t-48.5 0.5z" />
    <glyph glyph-name="uni2197" unicode="&#x2197;" horiz-adv-x="1505" 
d="M1124 930l-827 -828l-94 95l837 829q-47 0 -102 -2q-141 0 -260 -2h-387v125h958v-957h-129q0 662 4 740z" />
    <glyph glyph-name="uni2198" unicode="&#x2198;" horiz-adv-x="1505" 
d="M1040 301l-837 829l96 97l825 -830q-2 41 -2 740h129v-957h-960v125q272 0 387 -2q101 0 187 -0.5t130 -1t45 -0.5z" />
    <glyph glyph-name="uni2199" unicode="&#x2199;" horiz-adv-x="1505" 
d="M428 397l825 830l97 -97l-838 -829h100q242 4 650 4v-125h-961v957h129q0 -699 -2 -740z" />
    <glyph glyph-name="partialdiff" unicode="&#x2202;" horiz-adv-x="1206" 
d="M874 764q29 139 29 303q0 270 -231 270q-191 0 -277 -176h-16q0 104 6 125q12 46 72 74q103 47 250 47q374 0 374 -381q0 -199 -63 -457q-66 -267 -168 -407q-136 -189 -375 -189q-154 0 -243 90.5t-89 239.5q0 286 185 442q116 101 303 101q161 0 243 -82zM852 688
q-18 42 -75 69t-120 27q-123 0 -196 -88q-61 -72 -103 -207q-36 -124 -36 -239q0 -219 167 -219q139 0 216 147q97 186 147 510z" />
    <glyph glyph-name="increment" unicode="&#x2206;" horiz-adv-x="1404" 
d="M961 1368l299 -1368h-1299l848 1368h152zM807 1233q-62 -112 -651 -1075h874q-188 888 -223 1075z" />
    <glyph glyph-name="product" unicode="&#x220f;" horiz-adv-x="1474" 
d="M442 -195l-2 -12h-460l2 12q88 21 118 64q31 43 60 190l202 1039q23 117 22.5 160t-26.5 63q-32 20 -88 33l2 12h1250l-2 -10q-95 -24 -123 -60q-34 -46 -60 -190l-202 -1049q-21 -108 -21 -153q0 -42 31 -64q32 -21 86 -35l-2 -12h-461l2 12q87 21 119 64q30 45 59 190
l223 1141q0 7 3.5 27t3.5 22q0 24 -15 32.5t-53 8.5h-465q-37 0 -50 -14t-24 -64l-225 -1155q-20 -100 -20 -149q0 -45 30 -66q38 -23 86 -37z" />
    <glyph glyph-name="summation" unicode="&#x2211;" horiz-adv-x="1245" 
d="M946 -207h-1020l4 23q714 748 721 757l-397 779l4 14h864q46 0 61 -9t15 -34q0 -63 -33 -178h-14q-21 103 -61 127q-27 18 -105 18q-348 4 -502 4l340 -669l-637 -664h629q98 0 139 12q55 16 113 103h12q-15 -133 -43 -230q-15 -53 -90 -53z" />
    <glyph glyph-name="minus" unicode="&#x2212;" horiz-adv-x="1302" 
d="M1159 614l-22 -118h-953l23 118h952z" />
    <glyph glyph-name="uni2215" unicode="&#x2215;" horiz-adv-x="182" 
d="M-393 -29l962 1426l58 -35l-963 -1425z" />
    <glyph glyph-name="uni2219" unicode="&#x2219;" horiz-adv-x="471" 
d="M344 545q0 -57 -34 -94t-93 -37q-51 0 -82 29.5t-31 80.5q0 58 36.5 96.5t95.5 38.5q49 0 78.5 -31.5t29.5 -82.5z" />
    <glyph glyph-name="radical" unicode="&#x221a;" horiz-adv-x="1312" 
d="M1411 1417l-782 -1718h-123l-236 661l-120 -49l-27 70l291 121l211 -611l680 1551z" />
    <glyph glyph-name="infinity" unicode="&#x221e;" horiz-adv-x="1372" 
d="M709 635q175 196 335 196q112 0 179 -72t67 -188q0 -129 -86 -221q-87 -90 -215 -90q-85 0 -151.5 45t-141.5 154q-102 -108 -176.5 -153.5t-159.5 -45.5q-115 0 -182 71t-67 183q0 133 86 225t223 92q86 0 149 -44t140 -152zM635 549q-70 103 -116.5 140.5t-110.5 37.5
q-80 0 -134.5 -56t-54.5 -143q0 -74 40.5 -118.5t111.5 -44.5q65 0 125.5 43.5t138.5 140.5zM768 545q63 -98 115 -139t114 -41q77 0 131 55.5t54 140.5q0 74 -39 120t-107 46q-118 0 -268 -182z" />
    <glyph glyph-name="integral" unicode="&#x222b;" horiz-adv-x="790" 
d="M-61 -197h10q21 -120 114 -120q121 0 162 215q16 84 31 202l119 815q16 103 28 162q68 330 349 330q70 0 116 -12q37 -9 37 -39q0 -37 -31 -135h-10q-27 120 -112 120q-65 0 -105.5 -42t-60.5 -138q-12 -62 -27 -162l-125 -860l-31 -202q-30 -145 -125.5 -233.5
t-230.5 -88.5q-57 0 -98 12q-35 15 -35 49q0 38 25 127z" />
    <glyph glyph-name="approxequal" unicode="&#x2248;" horiz-adv-x="1302" 
d="M256 606l-82 76q163 199 315 199q41 0 84 -18.5t136 -76.5q105 -63 178 -63q56 0 106.5 35t112.5 119l84 -74q-150 -203 -311 -203q-81 0 -207 72q-137 82 -193 82q-108 0 -223 -148zM207 244l-80 75q160 195 313 195q44 0 84 -18q42 -14 138 -74q117 -66 176 -66
q56 0 106 35.5t113 120.5l86 -72q-147 -202 -309 -202q-91 0 -209 71q-137 82 -195 82q-109 0 -223 -147z" />
    <glyph glyph-name="notequal" unicode="&#x2260;" horiz-adv-x="1304" 
d="M543 283l-199 -291h-108l200 291h-299l23 118h358l172 252h-481l22 119h539l186 272h107l-189 -272h300l-23 -119h-354l-174 -252h477l-23 -118h-534z" />
    <glyph glyph-name="lessequal" unicode="&#x2264;" horiz-adv-x="1302" 
d="M1042 373l-22 -131l-758 383l23 112l905 391l-29 -141l-758 -311zM995 119l-22 -119h-830l21 119h831z" />
    <glyph glyph-name="greaterequal" unicode="&#x2265;" horiz-adv-x="1302" 
d="M319 999l25 129l758 -380l-23 -117l-907 -389l29 141l757 313zM981 119l-20 -119h-836l22 119h834z" />
    <glyph glyph-name="lozenge" unicode="&#x25ca;" horiz-adv-x="1304" 
d="M287 651l450 656h119l188 -654l-438 -653h-119zM772 1176l-352 -527l151 -518l340 524z" />
    <glyph glyph-name="commaaccent" unicode="&#xf6c3;" horiz-adv-x="389" 
d="M37 -506l-6 17q184 88 184 178q0 35 -31 63q-34 30 -34 72q0 37 25.5 60.5t66.5 23.5q50 0 78 -31t28 -86q0 -101 -87 -178.5t-224 -118.5z" />
    </font>
</defs>
</svg>
