<?xml version="1.0" standalone="no"?>
<!DOCTYPE svg PUBLIC "-//W3C//DTD SVG 1.1//EN" "http://www.w3.org/Graphics/SVG/1.1/DTD/svg11.dtd" >
<svg xmlns="http://www.w3.org/2000/svg" xmlns:xlink="http://www.w3.org/1999/xlink" version="1.1">
<metadata>
Created by FontForge 20201107 at Mon Jun 16 13:58:38 2025
 By 
Copyright (c) 2018 by Dieter Hofrichter. Alle Rechte vorbehalten. |DCNT
</metadata>
<defs>
<font id="Candide-ExtraBoldItalic" horiz-adv-x="751" >
  <font-face 
    font-family="Candide ExtraBold"
    font-weight="800"
    font-style="italic"
    font-stretch="normal"
    units-per-em="2048"
    panose-1="2 0 5 3 8 0 0 9 0 4"
    ascent="1538"
    descent="-510"
    x-height="991"
    cap-height="1366"
    bbox="-416 -578 2451 2007"
    underline-thickness="102"
    underline-position="-204"
    slope="-11"
    unicode-range="U+000D-FB06"
  />
<missing-glyph horiz-adv-x="999" 
d="M993 0h-987v1382h987v-1382zM164 1284l336 -504l336 504h-672zM895 1194l-338 -502l338 -504v1006zM500 602l-336 -504h672zM440 692l-336 502v-1006z" />
    <glyph glyph-name="f_f" unicode="ff" horiz-adv-x="1314" 
d="M-285 -195h15q23 -84 64.5 -134t84.5 -50q59 0 94 62q44 89 93 360l147 829h-127l12 64q99 29 119 59q20 32 45 103q50 130 137 211q114 102 320 102q66 0 125 -16q47 -15 47 -54q0 -65 -47 -192h-17q-41 182 -122 182q-73 0 -103 -86q-17 -54 -37 -180l-10 -74h184
q59 0 86 27q16 19 45 94q61 162 152 236q119 98 319 98q95 0 162 -25q47 -21 47 -57q0 -63 -51 -215h-16q-30 114 -69 164.5t-101 50.5q-64 0 -90 -57q-29 -56 -52 -250l-8 -66h189l-21 -119h-188l-94 -524q-43 -243 -117 -420q-71 -164 -193 -254t-264 -90q-101 0 -141 21
q-37 18 -37 63q0 52 31 150h14q52 -156 145 -156q62 0 97 62q47 77 96 360l141 788h-284l-101 -565q-48 -256 -119 -420q-72 -166 -200 -252q-130 -92 -269 -92q-90 0 -131 21q-34 15 -34 59q0 82 32 182z" />
    <glyph glyph-name="fi" unicode="fi" horiz-adv-x="1257" 
d="M-303 -197h14q53 -182 150 -182q75 0 110 62q45 76 95 360l147 829h-127l12 64q91 26 115 57q7 7 61 140q60 147 166 219q131 94 375 94q150 0 242 -29q47 -15 47 -53q0 -77 -53 -242h-33q-50 240 -221 240q-101 0 -154 -59q-54 -60 -84 -277l-4 -35h301q121 33 199 33
q48 0 64 -17.5t16 -58.5q0 -53 -33 -205l-78 -389q-33 -152 -33 -207q0 -53 64 -53q57 0 69 2l2 -12q-54 -34 -170 -72q-105 -30 -188 -30q-117 0 -117 104q0 39 37 193l76 348q33 143 33 198q0 25 -21 37q-20 10 -61 10h-178l-101 -565q-48 -256 -119 -420
q-73 -169 -200 -254q-134 -90 -271 -90q-99 0 -147 25q-35 18 -35 63q0 21 10 86q8 52 23 86z" />
    <glyph glyph-name="fl" unicode="fl" horiz-adv-x="1267" 
d="M-303 -197h14q53 -182 150 -182q75 0 110 62q45 81 95 360l147 829h-127l12 64q91 26 115 57q10 12 49 119q53 145 154 227q125 107 368 107q107 0 172 -35q119 35 215 35q42 0 55 -14.5t13 -57.5q0 -37 -35 -209l-164 -811q-32 -147 -32 -207q0 -53 63 -53q58 0 70 2
l2 -12q-52 -33 -168 -72q-102 -30 -187 -30q-118 0 -118 104q0 68 28 205l121 557q70 311 70 403q0 61 -32.5 87t-96.5 26q-90 0 -131 -66q-40 -59 -66 -235l-10 -72h190l-20 -119h-186l-99 -559q-48 -252 -121 -426q-73 -169 -200 -254q-134 -90 -271 -90q-99 0 -147 25
q-35 18 -35 63q0 21 10 86q8 52 23 86z" />
    <glyph glyph-name="f_f_i" unicode="ffi" horiz-adv-x="1867" 
d="M-285 -195h15q23 -84 64.5 -134t84.5 -50q59 0 94 62q44 89 93 360l147 829h-127l12 64q99 29 119 59q20 32 45 103q50 130 137 211q114 102 320 102q66 0 125 -16q47 -15 47 -54q0 -65 -47 -192h-17q-44 182 -122 182q-77 0 -101 -88q-24 -84 -39 -178l-10 -74h184
q59 0 86 27q19 23 47 94q71 168 177 240q131 94 374 94q148 0 240 -29q47 -15 47 -53q0 -72 -51 -242h-33q-50 240 -221 240q-100 0 -156 -59q-52 -55 -82 -277l-4 -35h303q156 21 199 21q48 0 64 -17.5t16 -58.5q0 -20 -37 -205l-76 -373q-33 -152 -33 -211q0 -53 64 -53
q58 0 70 2l2 -12q-54 -34 -170 -72q-105 -30 -189 -30q-119 0 -119 104q0 20 37 193l76 346q33 143 33 200q0 32 -25 41q-15 6 -53 6h-182l-94 -524q-43 -243 -117 -420q-71 -164 -193.5 -254t-265.5 -90q-100 0 -141 21q-35 18 -35 69q0 46 31 144h14q52 -156 145 -156
q62 0 97 62q47 77 96 360l141 788h-284l-101 -565q-48 -256 -119 -420q-72 -166 -200 -252q-130 -92 -269 -92q-90 0 -131 21q-34 15 -34 59q0 82 32 182z" />
    <glyph glyph-name="f_f_l" unicode="ffl" horiz-adv-x="1873" 
d="M-285 -195h15q23 -84 64.5 -134t84.5 -50q59 0 94 62q44 89 93 360l147 829h-127l12 64q99 29 119 59q20 32 45 103q50 130 137 211q114 102 320 102q66 0 125 -16q47 -15 47 -54q0 -65 -47 -192h-17q-25 99 -53 140.5t-69 41.5q-75 0 -99 -88q-34 -131 -41 -178l-10 -74
h184q59 0 86 27q13 13 45 94q54 148 152 227q125 107 360 107q118 0 183 -35q116 35 211 35q43 0 56 -14t13 -58q0 -57 -33 -209l-163 -811q-33 -152 -33 -207q0 -53 63 -53q58 0 70 2l2 -12q-52 -33 -168 -72q-102 -30 -186 -30q-121 0 -121 106q0 57 29 199l122 561
q68 322 68 403q0 113 -127 113q-90 0 -131 -66q-38 -55 -66 -235l-10 -72h191l-21 -119h-188l-94 -524q-43 -250 -117 -420q-71 -164 -193.5 -254t-265.5 -90q-100 0 -141 21q-35 18 -35 69q0 46 31 144h14q52 -156 145 -156q62 0 97 62q47 77 96 360l141 788h-284
l-101 -565q-48 -256 -119 -420q-72 -167 -202 -254q-131 -90 -267 -90q-90 0 -131 21q-34 15 -34 59q0 82 32 182z" />
    <glyph glyph-name="f_b" unicode="fb" horiz-adv-x="1787" 
d="M-285 -195h15q23 -84 64.5 -134t84.5 -50q59 0 94 62q46 88 93 360l145 829h-127l12 64q91 26 115 57q10 12 49 119q53 145 154 227q125 107 368 107q107 0 172 -35q119 35 207 35q43 0 57.5 -14.5t14.5 -55.5q0 -46 -31 -182q-65 -290 -123 -494q73 151 193 232
q124 86 237 86q105 0 145 -54.5t40 -201.5q0 -148 -62 -340q-62 -189 -166 -293q-72 -72 -183 -115t-222 -43q-247 0 -436 86q27 46 41 105q39 146 67 287l84 401q66 318 66 403q0 61 -30.5 86t-94.5 25q-88 0 -129 -66q-41 -65 -68 -235l-10 -72h190l-20 -119h-186
l-99 -557q-50 -269 -119 -428q-72 -166 -200 -252q-130 -92 -269 -92q-90 0 -131 21q-34 15 -34 59q0 82 32 182zM981 123q0 -26 18 -41q29 -16 70 -16q87 0 145 102q38 70 86 268q48 200 48 277q0 63 -14.5 84.5t-47.5 21.5q-50 0 -110.5 -64.5t-100.5 -185.5
q-28 -93 -39 -145l-32 -145q-23 -103 -23 -156z" />
    <glyph glyph-name="f_f_b" unicode="ffb" horiz-adv-x="2396" 
d="M1589 123q0 -25 19 -41q22 -16 69 -16q85 0 144 102q42 76 88 268q47 196 47 277q0 60 -15.5 83t-46.5 23q-53 0 -113 -64t-98 -186q-23 -80 -38 -145l-33 -145q-23 -103 -23 -156zM-285 -195h15q23 -84 64.5 -134t84.5 -50q59 0 94 62q44 89 93 360l147 829h-127l12 64
q99 29 119 59q20 32 45 103q50 130 137 211q114 102 320 102q66 0 125 -16q47 -15 47 -54q0 -65 -47 -192h-17q-27 99 -54 140.5t-68 41.5q-72 0 -99 -88q-25 -72 -41 -178l-10 -74h184q59 0 86 27q13 13 45 94q54 148 152 227q125 107 371 107q107 0 172 -35q116 35 207 35
q42 0 56.5 -14t14.5 -56q0 -46 -31 -182q-76 -322 -122 -494q73 152 192 232q124 86 238 86q105 0 144.5 -54.5t39.5 -201.5q0 -151 -61 -340q-62 -189 -166 -293q-72 -72 -183.5 -115t-222.5 -43q-249 0 -438 86q27 46 41 105q39 146 67 287l86 401q64 299 64 403
q0 61 -30 86t-93 25q-88 0 -129 -66q-45 -72 -68 -235l-10 -72h191l-21 -119h-188l-94 -524q-43 -243 -117 -420q-71 -164 -193.5 -254t-265.5 -90q-100 0 -141 21q-35 18 -35 69q0 46 31 144h14q52 -156 145 -156q62 0 97 62q47 77 96 360l141 788h-284l-101 -565
q-48 -256 -119 -420q-72 -166 -200 -252q-130 -92 -269 -92q-90 0 -131 21q-34 15 -34 59q0 82 32 182z" />
    <glyph glyph-name="f_f_h" unicode="ffh" horiz-adv-x="2381" 
d="M-285 -195h15q23 -84 64.5 -134t84.5 -50q59 0 94 62q44 89 93 360l147 829h-127l12 64q99 29 119 59q20 32 45 103q50 130 137 211q114 102 320 102q66 0 125 -16q47 -15 47 -54q0 -65 -47 -192h-17q-24 101 -52 141.5t-70 40.5q-72 0 -99 -88q-25 -76 -41 -178l-10 -74
h184q59 0 86 27q13 13 45 94q54 148 152 227q125 107 371 107q107 0 172 -35q116 35 204 35q46 0 60 -12.5t14 -51.5q0 -53 -31 -186q-88 -371 -124 -510q52 124 167 227q114 105 254 105q78 0 111 -28.5t33 -104.5q0 -95 -94 -529q-39 -152 -35.5 -207t67.5 -55q52 0 66 2
l2 -12q-73 -44 -172 -72q-102 -30 -189 -30q-100 0 -100 106q0 43 33 184q100 451 100 502q0 47 -37 47q-34 0 -79 -34t-80 -91q-52 -87 -78 -213l-101 -483h-311l182 852q64 299 64 401q0 61 -30 86t-93 25q-88 0 -129 -66q-45 -72 -68 -235l-10 -72h191l-21 -119h-188
l-94 -524q-43 -243 -117 -420q-71 -164 -193.5 -254t-265.5 -90q-100 0 -141 21q-35 18 -35 69q0 46 31 144h14q52 -156 145 -156q62 0 97 62q47 77 96 360l141 788h-284l-101 -565q-48 -256 -119 -420q-72 -166 -200 -252q-130 -92 -269 -92q-90 0 -131 21q-34 15 -34 59
q0 82 32 182z" />
    <glyph glyph-name="f_f_j" unicode="ffj" horiz-adv-x="1863" 
d="M-285 -195h15q23 -84 64.5 -134t84.5 -50q59 0 94 62q43 85 93 360l147 829h-127l12 64q99 29 119 59q20 32 45 103q50 130 137 211q114 102 320 102q66 0 125 -16q47 -15 47 -54q0 -65 -47 -192h-17q-41 182 -122 182q-72 0 -99 -88q-25 -72 -41 -178l-10 -74h184
q59 0 86 27q22 25 47 94q66 169 177 244q128 90 374 90q148 0 240 -29q47 -15 47 -53q0 -72 -51 -242h-33q-50 240 -221 240q-100 0 -156 -59q-52 -55 -82 -277l-4 -35h295q164 21 201 21q49 0 65.5 -17.5t16.5 -58.5q0 -51 -82 -473q-63 -330 -107 -455q-44 -130 -96 -203
q-138 -188 -369 -188q-70 0 -118 25q-33 17 -33 55q0 37 29 147h16q35 -147 111 -147q58 0 88 55q43 76 139 580l53 282q27 150 27 203q0 35 -25 47q-13 8 -59 8h-172l-99 -540q-44 -248 -116 -420q-71 -163 -194 -253.5t-265 -90.5q-102 0 -141 20q-35 18 -35 70
q0 47 31 145h14q53 -157 145 -157q62 0 99 61q43 74 94 361l145 804h-284l-101 -565q-48 -256 -119 -420q-72 -166 -200 -252q-130 -92 -269 -92q-90 0 -131 21q-34 15 -34 59q0 82 32 182z" />
    <glyph glyph-name="f_f_k" unicode="ffk" horiz-adv-x="2375" 
d="M-285 -195h15q23 -84 64.5 -134t84.5 -50q59 0 94 62q44 89 93 360l147 829h-127l12 64q99 29 119 59q20 32 45 103q50 130 137 211q114 102 320 102q66 0 125 -16q47 -15 47 -54q0 -65 -47 -192h-17q-41 182 -122 182q-75 0 -99 -88q-31 -104 -41 -178l-10 -74h184
q59 0 86 27q13 13 45 94q54 148 152 227q125 107 371 107q107 0 172 -35q116 35 204 35q44 0 59 -15t15 -57q0 -52 -39 -209l-110 -469q46 112 161 215q117 105 246 105q201 0 201 -182q0 -93 -80 -177t-225 -141q105 -238 135 -295l53 -88q38 -47 88 -47q23 0 43 4l4 -10
q-44 -38 -135 -72q-90 -35 -184 -35q-107 0 -148 86q-41 88 -51 117l-49 143l-39 115l-65 -6l-95 -428h-311l184 852q64 287 64 401q0 61 -30 86t-93 25q-88 0 -129 -66q-45 -72 -68 -235l-10 -72h191l-21 -119h-188l-94 -524q-43 -243 -117 -420q-71 -164 -193.5 -254
t-265.5 -90q-100 0 -141 21q-35 18 -35 69q0 46 31 144h14q52 -156 145 -156q62 0 97 62q47 77 96 360l141 788h-284l-101 -565q-48 -256 -119 -420q-72 -166 -200 -252q-130 -92 -269 -92q-90 0 -131 21q-34 15 -34 59q0 82 32 182zM1667 541l-14 -68q199 20 286 107
q82 82 82 186q0 36 -23 59t-56 23q-86 0 -168 -98q-83 -95 -107 -209z" />
    <glyph glyph-name="f_h" unicode="fh" horiz-adv-x="1775" 
d="M-283 -195h15q23 -80 66.5 -132t82.5 -52q59 0 94 62q46 88 93 360l145 829h-127l12 64q91 26 115 57q10 12 49 119q53 145 154 227q125 107 368 107q107 0 172 -35q119 35 207 35q44 0 58 -12.5t14 -51.5q0 -53 -31 -186q-54 -237 -125 -510q56 127 168 227
q114 105 254 105q78 0 112 -28.5t34 -104.5q0 -84 -97 -529q-32 -131 -32 -206q0 -56 65 -56q54 0 68 2l2 -12q-73 -44 -172 -72q-102 -30 -191 -30q-100 0 -100 106q0 43 33 184q100 451 100 502q0 47 -37 47q-34 0 -79.5 -34t-80.5 -91q-51 -85 -77 -213l-101 -483h-309
l180 852q66 318 66 401q0 61 -30.5 86t-94.5 25q-88 0 -129 -66q-41 -65 -68 -235l-10 -72h190l-20 -119h-186l-99 -557q-50 -269 -119 -428q-72 -167 -202 -254q-131 -90 -267 -90q-90 0 -131 21q-34 15 -34 59q0 82 32 182z" />
    <glyph glyph-name="f_j" unicode="fj" horiz-adv-x="1257" 
d="M-303 -197h14q53 -182 150 -182q75 0 110 62q45 76 95 360l147 829h-127l12 64q91 26 115 57q7 7 61 140q60 147 166 219q131 94 375 94q150 0 242 -29q47 -15 47 -53q0 -77 -53 -242h-33q-50 240 -221 240q-101 0 -154 -59q-54 -60 -84 -277l-4 -35h301q121 33 199 33
q48 0 64 -17.5t16 -58.5q0 -71 -88 -532q-65 -344 -103 -484q-29 -108 -80 -174q-137 -174 -377 -174q-83 0 -127 29q-32 22 -32 57q0 70 39 168h16q16 -82 52.5 -128t74.5 -46q52 0 76 55q38 90 125 584l59 332q27 144 27 190q0 25 -21 37q-20 10 -61 10h-178l-101 -565
q-44 -247 -104 -393q-69 -170 -200.5 -270.5t-283.5 -100.5q-101 0 -149 25q-35 18 -35 63q0 21 10 86q8 52 23 86z" />
    <glyph glyph-name="f_k" unicode="fk" horiz-adv-x="1765" 
d="M-285 -195h15q23 -84 64.5 -134t84.5 -50q59 0 94 62q46 88 93 360l147 829h-127l12 64q91 26 115 57q10 12 49 119q53 145 154 227q125 107 368 107q107 0 172 -35q119 35 207 35q45 0 60.5 -15t15.5 -59q0 -26 -45 -213q-62 -282 -111 -463q45 110 162 215
q114 105 244 105q201 0 201 -182q0 -93 -80.5 -177t-225.5 -141q86 -204 138 -295l53 -88q38 -47 86 -47q25 0 45 4l4 -10q-40 -38 -135 -72q-93 -35 -186 -35q-107 0 -148 86q-34 81 -139 375q-64 -6 -66 -6l-92 -428h-307l182 852q66 318 66 401q0 61 -30.5 86t-94.5 25
q-88 0 -129 -66q-41 -65 -68 -235l-10 -72h190l-20 -119h-186l-99 -557q-45 -246 -121 -428q-72 -166 -200 -252q-130 -92 -269 -92q-90 0 -131 21q-34 15 -34 59q0 82 32 182zM1057 539l-15 -66q204 21 287 107q82 82 82 186q0 36 -23 59t-59 23q-86 0 -168 -98
q-81 -101 -104 -211z" />
    <glyph glyph-name=".notdef" horiz-adv-x="999" 
d="M993 0h-987v1382h987v-1382zM164 1284l336 -504l336 504h-672zM895 1194l-338 -502l338 -504v1006zM500 602l-336 -504h672zM440 692l-336 502v-1006z" />
    <glyph glyph-name=".null" horiz-adv-x="0" 
 />
    <glyph glyph-name="nonmarkingreturn" horiz-adv-x="682" 
 />
    <glyph glyph-name="NULL" horiz-adv-x="0" 
 />
    <glyph glyph-name="NULL" horiz-adv-x="0" 
 />
    <glyph glyph-name="CR" unicode="&#xd;" horiz-adv-x="413" 
 />
    <glyph glyph-name="space" unicode=" " horiz-adv-x="471" 
 />
    <glyph glyph-name="exclam" unicode="!" horiz-adv-x="563" 
d="M338 475h-27q-4 119 -20 330q-19 247 -19 287q0 51 4 89.5t17 78t35.5 65t61 41.5t91.5 16q166 0 166 -145q0 -63 -41 -172q-22 -64 -119 -266q-75 -155 -149 -324zM457 162q0 -77 -51.5 -131t-135.5 -54q-72 0 -118 47t-46 121q0 86 51 140.5t136 54.5q77 0 120.5 -48.5
t43.5 -129.5z" />
    <glyph glyph-name="quotedbl" unicode="&#x22;" horiz-adv-x="735" 
d="M322 1042l-86 -178h-31q0 5 -4 205q-4 204 -4 205q0 86 18 139q24 70 123 70q115 0 115 -111q0 -43 -37 -127q-76 -165 -94 -203zM684 1044l-86 -180h-31q0 55 -6 205q-4 204 -4 205q0 86 18 139q24 70 123 70q117 0 117 -111q0 -42 -39 -127q-53 -121 -92 -201z" />
    <glyph glyph-name="numbersign" unicode="#" horiz-adv-x="1253" 
d="M395 369l-127 -404h-98l127 404h-229l34 227h267l53 174h-234l35 227h271l118 375h99l-119 -375h309l119 375h100l-119 -375h224l-37 -227h-256l-55 -174h225l-35 -227h-262l-125 -404h-100l125 404h-310zM831 770h-311l-53 -174h309z" />
    <glyph glyph-name="dollar" unicode="$" horiz-adv-x="1116" 
d="M467 -12l-35 -181h-84l33 177q-215 3 -322 73q-36 26 -36 82q0 100 36 244h15q42 -130 130 -206t197 -87l80 412l-100 67q-119 79 -174 159t-55 194q0 188 130.5 295.5t362.5 128.5l41 200h84l-39 -196h19q149 0 239 -35q32 -11 45 -25.5t13 -40.5q0 -23 -21 -112
q-22 -92 -41 -140h-14q-19 120 -80 180.5t-180 67.5l-76 -393l65 -43q69 -46 117 -84q41 -30 84 -78q48 -48 67 -101t19 -128q0 -184 -145 -299q-147 -116 -375 -131zM682 266q0 60 -24.5 96.5t-100.5 90.5l-70 -363q195 21 195 176zM440 1083q0 -51 26 -91t93 -89l68 342
q-187 -18 -187 -162z" />
    <glyph glyph-name="percent" unicode="%" horiz-adv-x="1759" 
d="M383 -14l954 1425l88 -59l-952 -1420zM809 1100q0 -143 -45.5 -278.5t-132.5 -217.5q-94 -88 -246 -88q-264 0 -264 256q0 294 149 459q102 117 277 117q262 0 262 -248zM586 1178q0 102 -56 102q-55 0 -90 -92q-35 -91 -65 -252q-31 -164 -31 -250q0 -96 59 -96t93 98
q34 83 61 252q29 179 29 238zM1683 565q0 -143 -45.5 -277.5t-132.5 -217.5q-94 -88 -245 -88q-265 0 -265 256q0 292 150 458q102 117 276 117q262 0 262 -248zM1460 643q0 102 -55 102t-90 -92q-37 -96 -66 -252q-30 -159 -30 -249q0 -97 59 -97q58 0 92 99q35 88 62 252
q28 173 28 237z" />
    <glyph glyph-name="ampersand" unicode="&#x26;" horiz-adv-x="1458" 
d="M1413 180l8 -10q-112 -112 -189.5 -153.5t-160.5 -41.5q-117 0 -219 105q-143 -107 -365 -107q-243 0 -356 107t-113 260q0 146 97.5 245t261.5 144q-88 149 -88 275q0 186 125.5 287.5t353.5 101.5q178 0 279 -39q61 -21 61 -74q0 -85 -49 -242h-15q-33 128 -91.5 186
t-164.5 58q-86 0 -136 -46t-50 -126q0 -93 94 -242q192 -298 340 -471q66 104 66 189q0 50 -51 76q-42 22 -86 36l2 15h497l-2 -15q-35 -6 -82 -41q-49 -43 -106 -120q-99 -132 -164 -203q138 -166 225 -166q43 0 78 12zM770 162q-71 71 -195 246q-109 157 -155 245
q-49 -70 -49 -172q0 -156 86 -248q87 -90 200 -90q64 0 113 19z" />
    <glyph glyph-name="quotesingle" unicode="'" horiz-adv-x="372" 
d="M319 1042l-86 -178h-30q0 5 -4 205q-4 204 -4 205q0 86 18 139q24 70 123 70q115 0 115 -111q0 -43 -37 -127q-60 -131 -95 -203z" />
    <glyph glyph-name="parenleft" unicode="(" horiz-adv-x="626" 
d="M451 -252l-11 -12q-195 86 -294 269t-99 435q0 384 187 654t540 391l10 -17q-132 -68 -229 -187t-152 -273q-102 -282 -102 -631q0 -497 150 -629z" />
    <glyph glyph-name="parenright" unicode=")" horiz-adv-x="626" 
d="M190 1473l11 12q194 -86 292.5 -269t98.5 -436q0 -384 -186.5 -653.5t-540.5 -390.5l-10 16q131 67 228.5 187.5t152.5 273.5q104 280 104 631q0 497 -150 629z" />
    <glyph glyph-name="asterisk" unicode="*" horiz-adv-x="788" 
d="M467 752q-39 0 -65.5 21t-26.5 58q0 31 18 66l21 41q6 11 33 58t40 69q-86 -78 -129 -121q-41 -41 -92 -41q-43 0 -65.5 24t-22.5 62q0 82 86 94q32 4 101 4q73 0 114 3q-38 12 -112 32l-82 25q-70 27 -70 84q0 40 27.5 70t68.5 30q46 0 80 -49q16 -24 37 -65
q36 -61 68 -107q-9 52 -27 135q-14 80 -14 90q0 86 88 86q94 0 94 -78q0 -25 -14 -53q-12 -27 -48 -88l-55 -98l129 121q51 47 92 47q42 0 66 -26.5t24 -65.5q0 -81 -100 -93q-21 -3 -199 -6l103 -30q59 -14 82 -23q84 -31 84 -86q0 -43 -26 -71.5t-62 -28.5
q-38 0 -56.5 12.5t-48.5 56.5l-96 150q9 -41 22.5 -96t21 -86.5t7.5 -42.5q0 -84 -96 -84z" />
    <glyph glyph-name="plus" unicode="+" horiz-adv-x="1302" 
d="M715 463l-76 -389h-188l75 389h-387l37 184h389l74 389h188l-73 -389h387l-35 -184h-391z" />
    <glyph glyph-name="comma" unicode="," horiz-adv-x="569" 
d="M-92 -371l-8 19q150 91 217 159.5t67 143.5q0 59 -59 112q-49 43 -49 113q0 79 48.5 121.5t135.5 42.5q79 0 127.5 -55t48.5 -146q0 -293 -528 -510z" />
    <glyph glyph-name="hyphen" unicode="-" horiz-adv-x="702" 
d="M637 666l-49 -246h-520l51 246h518z" />
    <glyph glyph-name="period" unicode="." horiz-adv-x="534" 
d="M367 162q0 -77 -51.5 -131t-135.5 -54q-72 0 -119 47.5t-47 120.5q0 86 51.5 140.5t135.5 54.5q78 0 122 -48.5t44 -129.5z" />
    <glyph glyph-name="slash" unicode="/" horiz-adv-x="694" 
d="M885 1458l-889 -1620l-109 53l887 1616z" />
    <glyph glyph-name="zero" unicode="0" horiz-adv-x="1163" 
d="M1143 944q0 -219 -72 -455q-69 -225 -219 -366q-159 -150 -389 -150q-214 0 -308 107t-94 319q0 491 240 764q170 197 440 197q214 0 308 -103.5t94 -312.5zM799 1110q0 83 -21.5 115t-66.5 32t-79.5 -35t-66.5 -116q-57 -135 -110 -426q-52 -287 -52 -449
q0 -153 91 -153q98 0 157 160q54 152 101 428t47 444z" />
    <glyph glyph-name="one" unicode="1" horiz-adv-x="1163" 
d="M797 14l-2 -14h-668l2 14q49 8 111 37q37 21 60 65t42 144l141 737q17 93 17 136q0 63 -76 63q-59 0 -82 -2l-2 35l553 137l12 -14q-27 -111 -102 -500l-117 -600q-16 -85 -16 -125q0 -50 26 -70q49 -34 101 -43z" />
    <glyph glyph-name="two" unicode="2" horiz-adv-x="1163" 
d="M809 0h-856l22 137q139 93 191 131q79 57 182 150q97 88 168 178q68 94 112 208t44 226q0 223 -160 223q-96 0 -165 -53.5t-138 -181.5h-14q3 161 12 207q12 58 90 86q131 49 332 49q215 0 313 -98q98 -94 98 -240q0 -64 -28 -137q-28 -71 -65.5 -126t-106.5 -118
q-74 -68 -121 -104q-55 -45 -144 -103l-137 -86l-135 -80q4 0 193 4l278 9q79 3 115 28q24 17 102 121h15q-44 -283 -70 -364q-14 -38 -40.5 -52t-86.5 -14z" />
    <glyph glyph-name="three" unicode="3" horiz-adv-x="1163" 
d="M39 342h14q9 -34 21 -65.5t36 -68.5t54 -64t76 -45.5t100 -18.5q139 0 204.5 101.5t65.5 273.5q0 176 -170 176h-53l27 108h69q139 0 185 88q43 82 43 240q0 75 -46.5 130.5t-127.5 55.5q-94 0 -160.5 -53t-132.5 -180h-15q0 126 9 190q6 51 71 86q131 64 361 64
q194 0 297.5 -82.5t103.5 -210.5q0 -323 -399 -375q315 -34 315 -258q0 -95 -36.5 -173.5t-98.5 -131t-145.5 -88.5t-175 -52t-189.5 -16q-221 0 -328 66q-34 21 -34 65q0 70 59 238z" />
    <glyph glyph-name="four" unicode="4" horiz-adv-x="1163" 
d="M993 14l-2 -14h-672l3 14q68 14 118 43q60 41 86 170l21 101h-557l37 186l776 846h293l-88 -426l-74 -383h190l-45 -223h-190l-15 -76q-16 -75 -16 -119q0 -55 33 -78q33 -22 102 -41zM182 551h410q19 106 117 579q-78 -92 -527 -579z" />
    <glyph glyph-name="five" unicode="5" horiz-adv-x="1163" 
d="M74 342h16q6 -38 24 -79.5t50 -84.5t85 -70.5t118 -27.5q260 0 260 356q0 221 -176 221q-137 0 -246 -69l-15 8l199 737h711l-58 -289h-337q-255 3 -310 3l-63 -244q89 74 295 74q175 0 279 -97.5t104 -271.5q0 -254 -179 -395q-178 -140 -454 -140q-224 0 -322 64
q-41 24 -41 63q0 82 60 242z" />
    <glyph glyph-name="six" unicode="6" horiz-adv-x="1163" 
d="M469 659q40 84 126.5 133.5t180.5 49.5q309 0 309 -289q0 -244 -149 -412t-412 -168q-202 0 -311 111.5t-109 316.5q0 227 91 465q89 231 256 367q157 127 399 127q130 0 219 -29q90 -31 90 -84q0 -84 -51 -233h-14q-17 115 -78.5 179t-143.5 64q-152 0 -254 -159
q-87 -136 -149 -439zM432 469q-20 -97 -20 -211q0 -93 32 -136.5t101 -43.5q61 0 105 50t63 134q32 140 32 285q0 143 -116 143q-109 0 -164 -112q-21 -52 -33 -109z" />
    <glyph glyph-name="seven" unicode="7" horiz-adv-x="1163" 
d="M1159 1165l-670 -1212l-233 45q267 482 698 1055q-540 -6 -557 -6q-97 0 -137 -46q-32 -36 -70 -106h-14l12 102q22 160 23 172q13 87 14 91q12 49 33.5 61t87.5 12h842z" />
    <glyph glyph-name="eight" unicode="8" horiz-adv-x="1163" 
d="M829 772q112 -55 172 -146t60 -204q0 -209 -168 -328t-420 -119q-212 0 -319 88.5t-107 235.5q0 252 328 340q-160 100 -160 303q0 195 145 307q144 111 373 111q186 0 283.5 -72.5t97.5 -195.5q0 -115 -70 -191.5t-215 -128.5zM438 600q-143 -107 -143 -299
q0 -112 65 -168q67 -55 142 -55q107 0 164 62t57 169q0 83 -53 148q-54 67 -232 143zM766 811q56 53 93.5 130.5t37.5 135.5q0 85 -48 132.5t-134 47.5q-97 0 -144 -49t-47 -137q0 -146 242 -260z" />
    <glyph glyph-name="nine" unicode="9" horiz-adv-x="1163" 
d="M743 672q-107 -174 -309 -174q-145 0 -223 77.5t-78 217.5q0 245 139 405q140 162 408 162q209 0 317.5 -102t108.5 -300q0 -249 -80 -487q-76 -232 -242 -369q-150 -129 -409 -129q-137 0 -238 37q-92 35 -92 99q0 58 59 229h15q24 -131 91.5 -196.5t168.5 -65.5
q140 0 225 166q87 173 139 430zM784 899q19 97 19 193q0 165 -125 165q-60 0 -106.5 -48t-67.5 -128q-39 -144 -39 -266q0 -68 30 -107.5t85 -39.5q112 0 163 100q24 53 41 131z" />
    <glyph glyph-name="colon" unicode=":" horiz-adv-x="575" 
d="M408 162q0 -77 -51 -131t-134 -54q-73 0 -120.5 47.5t-47.5 120.5q0 86 52 140.5t137 54.5q78 0 121 -48.5t43 -129.5zM539 815q0 -80 -51.5 -133t-135.5 -53q-72 0 -118 47.5t-46 122.5q0 84 51 139t136 55q77 0 120.5 -48.5t43.5 -129.5z" />
    <glyph glyph-name="semicolon" unicode=";" horiz-adv-x="575" 
d="M539 815q0 -80 -51.5 -133t-135.5 -53q-72 0 -118 47.5t-46 122.5q0 84 51 139t136 55q77 0 120.5 -48.5t43.5 -129.5zM-51 -371l-8 19q150 91 217 159.5t67 143.5q0 59 -59 112q-49 43 -49 113q0 79 48.5 121.5t135.5 42.5q79 0 127.5 -55t48.5 -146q0 -293 -528 -510z
" />
    <glyph glyph-name="less" unicode="&#x3c;" horiz-adv-x="1302" 
d="M1004 268l-39 -207l-729 398l36 194l883 389l-43 -217l-663 -276z" />
    <glyph glyph-name="equal" unicode="=" horiz-adv-x="1302" 
d="M1106 471l-35 -186h-936l35 186h936zM1176 823l-35 -184h-936l35 184h936z" />
    <glyph glyph-name="greater" unicode="&#x3e;" horiz-adv-x="1302" 
d="M301 836l39 206l729 -397l-37 -194l-882 -390l43 218l663 276z" />
    <glyph glyph-name="question" unicode="?" horiz-adv-x="763" 
d="M307 471h-28q2 6 2 55q2 33 2 68q3 87 34 141q31 55 134 144q96 87 96 231q0 184 -154 184q-152 0 -231 -196h-15q0 119 11 194q6 37 24.5 54t59.5 28q106 33 254 33q223 0 318 -65.5t95 -219.5q0 -131 -82 -207q-90 -84 -249 -161q-117 -59 -168.5 -97t-69.5 -75
q-21 -46 -33 -111zM457 162q0 -77 -52.5 -131t-136.5 -54q-70 0 -117 47.5t-47 120.5q0 86 51.5 140.5t135.5 54.5q78 0 122 -48.5t44 -129.5z" />
    <glyph glyph-name="at" unicode="@" horiz-adv-x="1492" 
d="M1227 -18l30 -56q-238 -143 -526 -143q-293 0 -465 172q-172 169 -172 446q0 326 213 553q215 226 555 226q263 0 410 -133.5t147 -384.5q0 -124 -57 -250q-60 -129 -154 -205q-129 -105 -250 -105q-141 0 -141 113q0 75 31 160q-66 -122 -152 -193t-161 -71
q-79 0 -114.5 41t-35.5 129q0 121 70 270q73 154 174 237q104 84 260 84q164 0 289 -43q-46 -85 -150 -467q-20 -76 -20 -124q0 -43 47 -43q52 0 127 75q67 66 109 172.5t42 212.5q0 218 -121.5 338.5t-355.5 120.5q-282 0 -469 -199q-186 -198 -186 -509q0 -258 149 -402.5
t410 -144.5q142 0 246.5 29t220.5 94zM958 756q0 30 -36 39q-24 6 -60 6q-68 0 -117 -58q-55 -67 -108 -200q-51 -128 -51 -226q0 -61 45 -61q109 0 239 256q40 76 78 197q10 38 10 47z" />
    <glyph glyph-name="A" unicode="A" horiz-adv-x="1421" 
d="M303 14l-4 -14h-397l4 14q17 2 63 23q44 18 84 88l535 919l184 322h227q1 -17 45 -311l119 -840q15 -125 56 -160q27 -24 86 -41l-2 -14h-615l2 14q77 23 94 35q39 20 39 74q0 26 -10 104l-27 228h-411l-154 -279q-37 -67 -37 -94q0 -24 25 -37q16 -10 94 -31zM432 563
h342l-57 522q-36 -80 -285 -522z" />
    <glyph glyph-name="B" unicode="B" horiz-adv-x="1337" 
d="M623 0h-623l4 14q77 14 117 58q30 35 57 166l174 882q17 97 17 135q0 41 -27.5 62t-93.5 35l2 14h569q229 0 330 -49q137 -61 137 -217q0 -152 -93.5 -238t-299.5 -131q346 -34 346 -305q0 -282 -274 -381q-116 -45 -342 -45zM709 1186l-80 -412h51q76 0 131 25
q123 59 123 274q0 121 -41 156q-39 31 -107 31h-20q-25 0 -37.5 -16t-19.5 -58zM645 668h-39l-78 -412q-16 -78 -16 -109q0 -38 25 -41q36 -4 86 -4q241 0 241 359q0 143 -98 186q-46 21 -121 21z" />
    <glyph glyph-name="C" unicode="C" horiz-adv-x="1300" 
d="M1167 305l15 -2q-35 -159 -60 -213q-24 -52 -82 -67q-158 -50 -358 -50q-292 0 -443 145.5t-151 411.5q0 271 109.5 473.5t316.5 305.5q174 86 434 86q187 0 297 -45q55 -21 55 -64q0 -67 -61 -256h-14q-30 146 -90 203q-61 55 -191 55q-168 0 -287 -119
q-98 -98 -143 -268q-45 -167 -45 -346q0 -218 82 -346.5t237 -128.5q128 0 232 72q70 48 147 153z" />
    <glyph glyph-name="D" unicode="D" horiz-adv-x="1544" 
d="M705 0h-705l2 14q102 24 129 70q24 41 64 231l143 734q27 138 27 198q0 43 -23.5 65.5t-93.5 39.5l2 14h614q350 0 492 -121q160 -133 160 -381q0 -356 -189 -604q-95 -123 -255.5 -191.5t-366.5 -68.5zM682 1057l-152 -776q-16 -91 -16 -115q0 -29 25 -45
q30 -21 161 -21q120 0 211.5 66t141.5 184q94 222 94 520q0 161 -37 242q-64 150 -250 150h-22q-76 0 -105 -29q-21 -21 -51 -176z" />
    <glyph glyph-name="E" unicode="E" horiz-adv-x="1212" 
d="M993 0h-993l2 14q71 17 109 47q40 29 61 142l180 919q15 76 15 129q0 46 -27 64q-22 19 -92 37l2 14h934q47 0 47 -33q0 -45 -66 -268h-14q-21 126 -59 164q-25 22 -129 22h-181q-37 0 -53 -19.5t-24 -66.5l-80 -395h123q142 0 192 12q42 10 67 37t58 96h16l-82 -407h-16
q-5 35 -10.5 56t-18 39t-27.5 26.5t-44.5 15t-64 8t-91.5 2.5h-121l-78 -399q-14 -63 -14 -100q0 -43 94 -43h187q122 0 184 45q53 35 135 166h14q-28 -172 -59 -279q-7 -26 -23 -35.5t-53 -9.5z" />
    <glyph glyph-name="F" unicode="F" horiz-adv-x="1122" 
d="M657 14l-4 -14h-653l2 14q86 21 125 66q24 27 59 192l160 822q21 111 21 149q0 29 -7 47q-15 34 -112 62l2 14h921q50 0 50 -33q0 -52 -66 -268h-14q-15 151 -66 174q-24 12 -137 12h-160q-35 0 -48.5 -17t-24.5 -69l-82 -409h122q122 0 177 14q87 21 141 133h14
l-80 -407h-14q-6 63 -29.5 95t-76.5 42q-47 8 -152 8h-123l-74 -381q-16 -88 -16 -133q0 -69 145 -113z" />
    <glyph glyph-name="G" unicode="G" horiz-adv-x="1466" 
d="M1214 20l-96 -10l-186 -22q-144 -15 -258 -15q-295 0 -441 152q-145 151 -145 397q0 293 133 512q136 220 367 299q186 62 413 62q191 0 304 -39q38 -13 55.5 -29.5t17.5 -44.5q0 -71 -61 -254h-14q-14 102 -64 168q-71 92 -240 92q-159 0 -278 -82q-250 -173 -250 -686
q0 -202 77 -321t220 -119q56 0 84 22q30 27 45 99l29 147q16 94 16 139t-22 69t-86 42l2 12h575l-2 -12q-52 -21 -80 -49q-28 -25 -63 -193l-31 -155q-21 -89 -21 -181z" />
    <glyph glyph-name="H" unicode="H" horiz-adv-x="1595" 
d="M1395 14l-2 -14h-627l2 14q86 21 123 64q24 30 59 190l78 387h-424l-76 -389q-20 -109 -20 -160q0 -31 27.5 -51.5t93.5 -40.5l-2 -14h-627l4 14q76 18 119 64q31 39 61 190l162 819q21 105 21 164q0 42 -23.5 62.5t-95.5 38.5l2 14h622l-4 -14q-77 -22 -112 -54
q-20 -20 -32.5 -58.5t-31.5 -137.5l-65 -332h424l63 317q21 105 21 164q0 42 -23.5 62.5t-97.5 38.5l2 14h622l-4 -14q-83 -27 -110 -54q-37 -37 -66 -196l-162 -836q-20 -109 -20 -160q0 -31 26.5 -51.5t92.5 -40.5z" />
    <glyph glyph-name="I" unicode="I" horiz-adv-x="829" 
d="M629 14l-2 -14h-627l4 14q76 18 119 64q31 39 61 190l162 822q21 105 21 161q0 42 -23.5 62.5t-95.5 38.5l2 14h627l-5 -14q-89 -27 -116 -54q-20 -20 -32.5 -58t-31.5 -136l-164 -838q-20 -109 -20 -160q0 -31 27.5 -51.5t93.5 -40.5z" />
    <glyph glyph-name="J" unicode="J" horiz-adv-x="823" 
d="M-152 -25h13q20 -94 58 -141t87 -47q62 0 86 41q24 39 29 82q8 24 22 106q15 67 35 183l172 897q19 97 19 141q0 42 -28 66.5t-108 48.5l3 14h634l-2 -14q-91 -33 -108 -54q-37 -51 -64 -192q-4 -22 -34.5 -179.5t-53.5 -281.5l-73 -403q-27 -143 -61 -227t-95 -152
q-156 -182 -389 -182q-76 0 -135 16q-45 12 -45 57q0 36 14 107q11 70 24 114z" />
    <glyph glyph-name="K" unicode="K" horiz-adv-x="1511" 
d="M629 14l-2 -14h-627l4 14q76 18 119 64q31 39 61 190l162 822q21 105 21 161q0 42 -23.5 62.5t-95.5 38.5l2 14h627l-5 -14q-89 -27 -116 -54q-20 -20 -32.5 -58t-31.5 -136l-82 -410q163 138 412 381q121 121 121 185q0 58 -113 92l2 14h539l-2 -14q-54 -19 -111 -52
q-43 -24 -84 -59q-9 -7 -104 -94l-326 -303q241 -553 354 -729q33 -53 148 -88l-4 -15q-114 -20 -385 -20q-65 0 -94.5 19t-53.5 71q-51 112 -133 313q-89 228 -98 244q-66 -55 -94 -74l-56 -299q-20 -109 -20 -160q0 -31 27.5 -51.5t93.5 -40.5z" />
    <glyph glyph-name="L" unicode="L" horiz-adv-x="1191" 
d="M989 0h-989l2 14q73 18 109 49q37 27 59 140l170 860q27 138 27 182q0 45 -23.5 67t-95.5 40l2 14h627l-3 -14q-90 -26 -116 -56q-23 -24 -36 -65t-34 -148l-160 -823q-14 -63 -14 -102q0 -45 86 -45h182q131 0 187 39q62 42 145 172h14q-31 -179 -59 -279
q-12 -45 -80 -45z" />
    <glyph glyph-name="M" unicode="M" horiz-adv-x="1798" 
d="M391 14l-4 -14h-412l2 14q90 21 123 66q29 29 70 201l182 790q27 111 27 186q0 45 -35 66q-28 18 -78 29l4 14h457q44 0 58.5 -10t19.5 -43q78 -581 98 -758l387 762q13 28 27.5 38.5t50.5 10.5h451l-2 -14q-64 -22 -78 -33q-37 -25 -53 -115l-166 -940
q-17 -100 -17 -149q0 -42 41 -66q37 -22 82 -35l-2 -14h-635l2 14q41 6 90 33q54 28 72 137l168 969l-522 -1022h-174q-131 1021 -133 1051l-199 -910q-21 -102 -21 -151q0 -67 119 -107z" />
    <glyph glyph-name="N" unicode="N" horiz-adv-x="1542" 
d="M436 14l-4 -14h-432l4 14q83 18 119 60q34 34 61 180q53 259 150 788q28 159 28 193q0 56 -26 76q-33 29 -92 41l2 14h454q45 0 60 -35q255 -545 397 -870q61 317 117 663q8 57 8 109q0 51 -27.5 76.5t-99.5 42.5l2 14h424l-2 -14q-55 -15 -106 -54q-52 -42 -78 -186
l-215 -1126h-189l-518 1194q-43 -244 -158 -916q-16 -112 -16 -141q0 -37 26 -57t111 -52z" />
    <glyph glyph-name="O" unicode="O" horiz-adv-x="1447" 
d="M1419 924q0 -204 -80 -426q-79 -219 -231 -359q-90 -80 -219 -123t-262 -43q-258 0 -398.5 138.5t-140.5 386.5q0 192 74 399q76 204 227 334q88 77 224.5 120.5t275.5 43.5q530 0 530 -471zM1044 1010q0 153 -40.5 216.5t-133.5 63.5q-123 0 -211 -131
q-82 -123 -141 -344q-57 -212 -57 -420q0 -166 43 -240.5t137 -74.5q133 0 207 123q88 144 141 393q55 247 55 414z" />
    <glyph glyph-name="P" unicode="P" horiz-adv-x="1337" 
d="M655 14l-2 -14h-651l2 14q81 22 121 64q26 36 61 194l164 832q17 90 17 149q0 57 -37 72q-59 22 -82 27l2 14h543q172 0 303 -25q126 -24 191 -99t65 -189q0 -127 -51.5 -221.5t-145.5 -149.5q-177 -98 -440 -98q-61 0 -123 4l-66 -332q-18 -94 -18 -150q0 -37 39 -57
q36 -18 108 -35zM709 1182l-97 -490q23 -2 101 -2q278 0 278 367q0 119 -65 172q-47 35 -121 35h-27q-36 0 -48.5 -16.5t-20.5 -65.5z" />
    <glyph glyph-name="Q" unicode="Q" horiz-adv-x="1447" 
d="M1419 924q0 -204 -80 -426q-79 -219 -231 -359q-83 -74 -195 -114q157 -115 248 -154q87 -37 195 -37q66 0 84 6l6 -10q-215 -188 -365 -188q-113 0 -225 65q-104 62 -360 277q-197 32 -302.5 167t-105.5 347q0 192 74 399q76 204 227 334q88 77 224.5 120.5t275.5 43.5
q530 0 530 -471zM1044 1010q0 153 -40.5 216.5t-133.5 63.5q-123 0 -211 -131q-82 -123 -141 -344q-57 -212 -57 -420q0 -166 43 -240.5t137 -74.5q133 0 207 123q88 144 141 393q55 247 55 414z" />
    <glyph glyph-name="R" unicode="R" horiz-adv-x="1464" 
d="M631 14l-4 -14h-627l2 14q83 20 123 64q26 36 61 194l160 828q21 102 21 151q0 42 -27 65t-94 36l4 14h524q155 0 287 -12q130 -12 208.5 -96t78.5 -209q0 -152 -98 -253.5t-277 -138.5q42 -14 65 -45l7 -7l7 -7l6 -6t6.5 -7t5 -7t5.5 -8t5.5 -8.5t6 -11t5.5 -11.5
q39 -84 47 -109q4 -11 13.5 -34.5t12.5 -33.5l29 -79l33 -88q24 -67 62 -102.5t114 -65.5l-4 -15q-126 -20 -273 -20q-144 0 -200 39q-50 39 -97 196q-65 237 -88 308q-18 57 -94 57h-55l-64 -322q-20 -109 -20 -145q0 -43 14 -57q21 -27 109 -54zM705 1176l-89 -469h50
q139 0 206 49q109 77 109 329q0 50 -22 94t-58 62q-46 21 -104 21h-19q-34 0 -49.5 -20t-23.5 -66z" />
    <glyph glyph-name="S" unicode="S" horiz-adv-x="1050" 
d="M72 383h16q85 -303 361 -303q241 0 241 190q0 70 -45 115q-43 46 -164 129l-92 61q-117 78 -173 164t-56 205q0 222 156.5 336.5t431.5 114.5q140 0 241 -39q58 -21 58 -64q0 -69 -56 -237h-14q-25 130 -85.5 183.5t-191.5 53.5q-124 0 -189 -49t-65 -131q0 -51 35 -97.5
t125 -111.5l99 -72l98 -73q27 -19 74 -66q61 -58 83.5 -116t28.5 -160q0 -205 -160 -326q-159 -117 -413 -117q-221 0 -334 72q-43 27 -43 88q0 59 33 250z" />
    <glyph glyph-name="T" unicode="T" horiz-adv-x="1253" 
d="M844 14l-2 -14h-625l4 14q85 21 117 64q25 28 63 209l168 846q9 41 9 75q0 43 -54 43h-35q-71 0 -139 -26q-100 -44 -194 -207h-17q25 208 47 303q6 26 18.5 35.5t37.5 9.5h1058q52 0 52 -33q0 -58 -68 -315h-14q-27 181 -115 215q-41 18 -125 18h-47q-31 0 -43.5 -11.5
t-19.5 -47.5l-179 -936q-20 -97 -20 -152q0 -56 123 -90z" />
    <glyph glyph-name="U" unicode="U" horiz-adv-x="1505" 
d="M236 1352l2 14h628l-2 -14q-89 -22 -114 -47q-33 -26 -58 -150l-125 -637q-26 -133 -26 -225q0 -104 57.5 -151.5t179.5 -47.5q150 0 246 96q79 79 121 273l127 645q16 82 16 129q0 50 -25 73t-98 42l4 14h414l-4 -14l-61 -17q-46 -20 -68 -53.5t-39 -116.5l-123 -653
q-47 -252 -133 -352q-86 -99 -204.5 -143t-293.5 -44q-456 0 -456 344q0 81 30 248l107 553q16 82 16 142q0 40 -23.5 57t-94.5 35z" />
    <glyph glyph-name="V" unicode="V" horiz-adv-x="1374" 
d="M690 0h-227q-1 2 -5.5 33.5t-16.5 109.5t-25 160l-137 848q-18 125 -52 162q-26 26 -69 39l4 14h600l-2 -14q-73 -12 -107 -35q-37 -27 -37 -80q0 -5 11 -98q118 -816 121 -840l63 129l147 293l216 426q45 86 45 133q0 30 -25 43q-47 21 -82 29l2 14h397l-4 -14
q-3 0 -55 -21q-29 -14 -51.5 -42.5t-69.5 -114.5l-463 -842q-125 -227 -178 -332z" />
    <glyph glyph-name="W" unicode="W" horiz-adv-x="1947" 
d="M606 0h-235q-3 78 -21 317l-65 877q-9 94 -39 121q-22 22 -68 37l4 14h566l-3 -14q-63 -19 -86 -39q-22 -22 -22 -78q0 -42 18 -432q19 -412 19 -434q16 48 413 962h222q129 -885 133 -973l311 793q27 70 27 115q0 40 -41 61q-22 13 -64 25l4 14h373l-4 -14
q-18 -3 -55 -25q-40 -24 -82 -121l-398 -919l-63 -144q-30 -66 -61 -143h-232q-26 227 -72 588l-36 305l-11 80q-19 -54 -432 -973z" />
    <glyph glyph-name="X" unicode="X" horiz-adv-x="1400" 
d="M307 14l-2 -14h-414l3 14q16 0 45 13q61 25 161 131l465 491l-250 557q-36 84 -73 115q-25 25 -68 31l2 14h586l-2 -14q-38 -9 -68 -25q-20 -11 -20 -37q0 -29 26 -88l70 -160q64 -136 78 -174l289 344q41 47 41 82q0 26 -27 35q-50 19 -70 23l4 14h392l-2 -14
q-35 -8 -66 -29q-55 -43 -129 -125l-389 -418l287 -622q49 -107 88 -127q25 -14 41 -17l-5 -14h-583l4 14q47 9 72 23q20 11 20 39q0 24 -29 90q-126 286 -176 395l-350 -399q-45 -54 -45 -86q0 -19 23 -35q35 -20 71 -27z" />
    <glyph glyph-name="Y" unicode="Y" horiz-adv-x="1294" 
d="M877 14l-5 -14h-636l2 14q98 23 127 66q20 26 55 209l61 329l-235 601q-34 81 -68 108q-33 20 -51 25l4 14h574l-3 -14q-81 -18 -90 -27q-10 -10 -10 -25q0 -23 23 -90q157 -427 168 -469l51 72l117 162l167 233q35 50 35 82q0 22 -18 31q-32 23 -76 31l2 14h385l-2 -14
q-23 -5 -51 -19q-50 -26 -125 -116l-434 -547l-74 -391q-20 -97 -20 -160q0 -34 27.5 -57.5t99.5 -47.5z" />
    <glyph glyph-name="Z" unicode="Z" horiz-adv-x="1257" 
d="M1055 0h-1178l2 14l1008 1239q-234 0 -422 -8q-115 -3 -162 -59q-25 -29 -84 -129h-14q12 142 33 254q5 22 8.5 31.5t15.5 16.5t35 7h1096l-2 -14l-1022 -1239q239 0 485 6q132 3 178 49q51 48 119 166h16q-2 -31 -22 -146q-21 -123 -28 -143q-24 -42 -62 -45z" />
    <glyph glyph-name="bracketleft" unicode="[" horiz-adv-x="667" 
d="M438 -219l-2 -12h-444l325 1679h447l-2 -14q-158 -39 -189 -70q-23 -23 -41 -113l-249 -1286q-9 -43 -9 -76q0 -44 37 -65q26 -16 127 -43z" />
    <glyph glyph-name="backslash" unicode="\" horiz-adv-x="888" 
d="M299 1503l500 -1616l-117 -32l-504 1615z" />
    <glyph glyph-name="bracketright" unicode="]" horiz-adv-x="667" 
d="M229 1436l2 12h447l-328 -1679h-446l2 14q157 39 188 70q23 23 41 112l250 1286q8 39 8 76q0 45 -37 66q-26 16 -127 43z" />
    <glyph glyph-name="asciicircum" unicode="^" horiz-adv-x="1302" 
d="M897 1309l240 -779h-197l-176 588l-385 -588h-217l530 779h205z" />
    <glyph glyph-name="underscore" unicode="_" horiz-adv-x="1021" 
d="M-104 -252l18 105h1020l-19 -105h-1019z" />
    <glyph glyph-name="grave" unicode="`" horiz-adv-x="411" 
d="M242 1442l157 -309l-12 -11l-295 178q-86 50 -86 119q0 50 33.5 82.5t81.5 32.5q74 0 121 -92z" />
    <glyph glyph-name="a" unicode="a" horiz-adv-x="1202" 
d="M1098 94l2 -10q-64 -43 -161.5 -72.5t-182.5 -29.5q-117 0 -117 114q0 82 31 240q-182 -363 -434 -363q-31 0 -54.5 3.5t-51.5 18t-46.5 40t-31.5 72t-13 110.5q0 171 86 375q89 207 213 307q75 63 164 91t225 28q102 0 234 -21q131 -21 172 -45q-68 -84 -156 -592
q-21 -117 -21 -200q0 -34 19 -52t47 -18q40 0 76 4zM772 885q0 24 -20 35q-13 8 -47 8q-73 0 -127 -60q-70 -79 -138 -286q-67 -204 -67 -322q0 -94 57 -94q49 0 107.5 59.5t101.5 145.5q25 55 59 170q38 119 64 254q10 68 10 90z" />
    <glyph glyph-name="b" unicode="b" horiz-adv-x="1161" 
d="M10 57q33 65 41 105q33 123 66 276l90 434q63 289 63 406q0 48 -14 65q-22 29 -100 35v15q233 53 397 53q63 0 63 -55q0 -56 -32 -195l-41 -184q-15 -67 -39 -167.5t-31 -133.5q68 139 184.5 223t235.5 84q105 0 146.5 -56.5t41.5 -201.5q0 -151 -59 -340
q-58 -187 -162 -291q-68 -71 -181.5 -114.5t-225.5 -43.5q-254 0 -443 86zM373 123q0 -27 20 -41q22 -16 70 -16q83 0 141 102q38 68 82 266q45 187 45 279q0 60 -15 83t-46 23q-50 0 -110.5 -65.5t-98.5 -186.5q-30 -106 -37 -145l-29 -143q-22 -135 -22 -156z" />
    <glyph glyph-name="c" unicode="c" horiz-adv-x="901" 
d="M768 242l6 -4q0 -33 -8 -52q-15 -37 -47 -69q-147 -144 -383 -144q-143 0 -220 73.5t-77 209.5q0 176 61 344q66 175 152 266q140 152 385 152q111 0 190 -29q47 -21 47 -59q0 -56 -59 -221h-16q-37 131 -72 178t-86 47q-74 0 -121 -72q-61 -92 -100 -250
q-39 -157 -39 -317q0 -150 133 -150q65 0 135.5 27.5t118.5 69.5z" />
    <glyph glyph-name="d" unicode="d" horiz-adv-x="1220" 
d="M1100 94l2 -10q-159 -102 -342 -102q-121 0 -121 129q0 40 29 208q-80 -163 -194.5 -254.5t-227.5 -91.5q-89 0 -140 37q-67 48 -67 207q0 172 84 375q84 198 207 303q150 123 366 123q74 0 99 -14l10 55q29 176 29 223q0 53 -21 68q-28 22 -94 28v15q220 53 399 53
q38 0 52 -13.5t14 -46.5q0 -13 -41 -227l-127 -610q-55 -265 -55 -387q0 -72 67 -72q40 0 72 4zM649 379q32 64 109 426q10 48 10 72q0 32 -20 41q-24 12 -48 12q-76 0 -127 -66q-66 -84 -133 -286q-67 -201 -67 -324q0 -88 53 -88q55 0 114.5 56t108.5 157z" />
    <glyph glyph-name="e" unicode="e" horiz-adv-x="925" 
d="M780 244l6 -4q0 -23 -4 -43q-11 -34 -32 -60q-53 -66 -163.5 -115t-232.5 -49q-158 0 -236.5 65t-78.5 228q0 142 61 322q64 181 158 282q139 148 367 148q146 0 217 -48t71 -155q0 -59 -55 -143q-49 -82 -167 -140t-302 -59q-14 -80 -14 -176q1 -83 39 -117.5t110 -34.5
q64 0 137.5 29.5t118.5 69.5zM395 516q138 37 211.5 130t73.5 218q0 76 -68 76q-118 0 -217 -424z" />
    <glyph glyph-name="f" unicode="f" horiz-adv-x="708" 
d="M-285 -195h15q23 -84 64.5 -134t84.5 -50q59 0 94 62q45 89 95 364l145 825h-127l12 64q91 26 115 57q9 12 49 119q56 151 150 227q125 107 333 107q95 0 150 -21q49 -21 49 -57q0 -62 -53 -213h-17q-32 115 -68.5 162t-92.5 47q-62 0 -97 -59q-25 -49 -51 -242l-10 -72
h188l-20 -119h-186l-101 -563q-48 -255 -121 -426q-70 -162 -198 -250q-128 -90 -267 -90q-90 0 -133 21q-34 15 -34 59q0 82 32 182z" />
    <glyph glyph-name="g" unicode="g" horiz-adv-x="1181" 
d="M27 -125h16q22 -123 85.5 -187.5t145.5 -64.5q87 0 158 68q27 27 68.5 119.5t72.5 201.5l43 150l56 190q-87 -173 -205 -267.5t-227 -94.5q-75 0 -136 35q-69 50 -69 204q0 166 86 367q86 200 209 299q80 65 168 92q91 31 243 31q114 0 228 -21q116 -21 157 -47
q-51 -60 -145 -542q-60 -310 -109 -461q-46 -142 -133 -232q-88 -91 -223 -131q-137 -41 -256 -41q-160 0 -237 41q-46 21 -46 64q0 69 50 227zM766 885q0 23 -21 35q-16 8 -47 8q-72 0 -125 -56q-65 -76 -135 -276q-69 -195 -69 -322q0 -54 13.5 -73t45.5 -19q47 0 115 68
q70 67 110 168q43 108 105 387q8 36 8 80z" />
    <glyph glyph-name="h" unicode="h" horiz-adv-x="1175" 
d="M432 483l-100 -483h-312l181 854q69 324 69 428q0 48 -18 66q-24 24 -96 30v15q239 53 399 53q36 0 49.5 -14.5t13.5 -51.5q0 -53 -32 -184l-123 -510q51 121 170 227q120 105 260 105q82 0 116.5 -28.5t34.5 -104.5q0 -99 -92 -529q-37 -157 -37 -206q0 -56 68 -56
q52 0 66 2l2 -12q-72 -43 -170 -72q-102 -30 -189 -30q-58 0 -81 25.5t-23 76.5q0 47 33 188q100 451 100 502q0 47 -47 47q-37 0 -83 -33.5t-81 -91.5q-52 -87 -78 -213z" />
    <glyph glyph-name="i" unicode="i" horiz-adv-x="663" 
d="M530 96l2 -12q-54 -34 -170 -72q-105 -30 -188 -30q-117 0 -117 104q0 45 37 199l76 342q29 142 29 215q0 52 -25 71q-31 24 -86 27v12q186 60 363 60q52 0 72 -18.5t20 -57.5q0 -24 -37 -203l-76 -379q-33 -152 -33 -207q0 -53 64 -53q57 0 69 2zM578 1319
q0 -91 -46.5 -143t-128.5 -52q-64 0 -102.5 38.5t-38.5 103.5q0 78 47 130t129 52q65 0 102.5 -36t37.5 -93z" />
    <glyph glyph-name="j" unicode="j" horiz-adv-x="624" 
d="M-246 -205h17q16 -82 52.5 -128t74.5 -46q51 0 75 55q37 88 123 578l66 381q26 144 26 215q0 42 -22 61q-26 23 -90 29v12q195 62 381 62q41 0 57 -16t16 -50q0 -60 -96 -575q-68 -357 -102 -484q-29 -108 -80 -174q-137 -174 -377 -174q-83 0 -127 29q-33 23 -33 57
q0 70 39 168zM569 1319q0 -91 -46 -143t-128 -52q-64 0 -102.5 38.5t-38.5 103.5q0 78 47 130t129 52q65 0 102 -36t37 -93z" />
    <glyph glyph-name="k" unicode="k" horiz-adv-x="1144" 
d="M424 428l-92 -428h-312l187 870q65 310 65 412q0 46 -20 66q-24 24 -94 30v15q239 53 399 53q36 0 48.5 -15.5t12.5 -54.5q0 -56 -28 -180q-90 -399 -119 -500q46 113 160 215q117 105 246 105q198 0 198 -182q0 -93 -80 -177t-225 -141q111 -249 137 -295l54 -88
q38 -47 88 -47q23 0 43 4l4 -10q-44 -38 -135 -72q-90 -35 -185 -35q-108 0 -149 86q-32 70 -49 119q-13 35 -45.5 130t-45.5 126zM444 539l-14 -66q202 21 285 107q82 82 82 186q0 37 -22.5 59.5t-57.5 22.5q-89 0 -168 -98q-81 -96 -105 -211z" />
    <glyph glyph-name="l" unicode="l" horiz-adv-x="647" 
d="M506 96l2 -12q-54 -34 -170 -72q-102 -30 -186 -30q-63 0 -85 24.5t-22 77.5q0 52 33 201l121 565q71 340 71 426q0 54 -20 74q-25 25 -94 28v15q227 53 389 53q43 0 58 -15t15 -53q0 -46 -38 -211l-174 -807q-33 -152 -33 -213q0 -53 63 -53q58 0 70 2z" />
    <glyph glyph-name="m" unicode="m" horiz-adv-x="1705" 
d="M440 473l-98 -473h-305l115 547q43 197 43 307q0 38 -17 55q-22 22 -92 31v12q168 60 354 60q48 0 65 -17.5t17 -62.5q0 -64 -51 -252q43 118 164 227q120 111 252 111q78 0 113.5 -29.5t35.5 -107.5q0 -67 -30 -199q43 121 157 229q113 107 248 107q84 0 125 -28
t41 -103q0 -89 -92 -525q-37 -164 -37 -212q0 -56 65 -56q58 0 68 2l2 -12q-52 -33 -170 -70q-100 -32 -168 -32q-121 0 -121 92q0 72 33 215q100 446 100 479q0 53 -45 53q-40 0 -85.5 -35.5t-79.5 -99.5q-45 -79 -76 -223l-97 -463h-309l119 547q41 190 41 221t-10.5 43
t-36.5 12q-32 0 -80.5 -38t-83.5 -97q-44 -75 -74 -215z" />
    <glyph glyph-name="n" unicode="n" horiz-adv-x="1189" 
d="M446 483l-100 -483h-309l117 559q41 199 41 295q0 38 -19 57q-23 26 -90 29v12q168 60 350 60q50 0 69 -15t19 -53q0 -68 -51 -268q46 121 168 231q123 111 268 111q79 0 115.5 -29t36.5 -104q0 -98 -94 -529q-35 -152 -35 -204q0 -58 67 -58q52 0 66 2l2 -12
q-68 -43 -170 -72q-102 -30 -182 -30q-111 0 -111 96q0 38 33 194q100 463 100 498q0 30 -8.5 40.5t-32.5 10.5q-40 0 -88.5 -33.5t-83.5 -91.5q-52 -87 -78 -213z" />
    <glyph glyph-name="o" unicode="o" horiz-adv-x="1083" 
d="M1004 666q0 -150 -47 -296.5t-134 -242.5q-139 -154 -403 -154q-181 0 -280 102.5t-99 284.5q0 313 184 512q137 146 393 146q182 0 284 -91.5t102 -260.5zM696 827q0 109 -88 109q-78 0 -125 -105q-49 -112 -96 -327q-45 -205 -45 -326q0 -125 92 -125q97 0 137 119
q39 110 84 342q41 214 41 313z" />
    <glyph glyph-name="p" unicode="p" horiz-adv-x="1173" 
d="M438 -440l-2 -11h-598l2 11q79 28 105 67q17 26 39 117l149 707q64 290 64 401q0 43 -23 63q-28 22 -86 25v12q168 60 350 60q50 0 69 -15t19 -53q0 -75 -49 -264q63 146 187 244q122 94 237 94q109 0 152 -57t43 -203q0 -148 -64 -334q-62 -188 -166 -295
q-72 -72 -184 -115t-223 -43q-60 0 -117 13l-45 -222q-12 -58 -12 -92q0 -19 7.5 -32.5t43 -34.5t102.5 -43zM377 121q0 -30 20 -41q24 -17 70 -17q84 0 143 103q42 77 88 270q47 199 47 279q0 104 -65 104q-48 0 -108 -66t-99 -190q-23 -66 -41 -155l-31 -134
q-24 -135 -24 -153z" />
    <glyph glyph-name="q" unicode="q" horiz-adv-x="1198" 
d="M948 -440l-2 -11h-602l2 11q96 36 129 69q45 45 66 135l133 566q-187 -357 -428 -357q-89 0 -140 37q-67 48 -67 207q0 164 84 373q84 201 209 305q82 65 164 94t204 29q263 0 414 -74q-9 -12 -57 -219l-205 -930q-18 -85 -18 -125q0 -34 22.5 -56.5t91.5 -53.5zM770 885
q0 26 -25 35q-19 8 -40 8q-79 0 -125 -58q-66 -78 -136 -288q-71 -213 -71 -301q0 -65 11.5 -90t45.5 -25q47 0 108 58.5t109 146.5q51 92 115 434q8 39 8 80z" />
    <glyph glyph-name="r" unicode="r" horiz-adv-x="917" 
d="M446 483l-100 -483h-309l117 557q41 202 41 297q0 35 -17 55q-25 28 -92 31v12q177 60 350 60q51 0 70.5 -15.5t19.5 -58.5q0 -44 -53 -264q48 130 137 235q95 109 211 109q45 0 68 -10q24 -12 24 -54q0 -67 -71 -247h-17q-27 110 -114 110q-115 0 -191 -129
q-47 -84 -74 -205z" />
    <glyph glyph-name="s" unicode="s" horiz-adv-x="856" 
d="M47 315h16q21 -112 101 -186q83 -74 170 -74q145 0 145 123q0 49 -31 89t-122 98l-62 38q-166 108 -166 267q0 166 121.5 257t341.5 91q113 0 189 -31q43 -15 43 -61q0 -18 -19 -92q-16 -62 -41 -125h-16q-40 227 -207 227q-158 0 -158 -125q0 -68 111 -145l65 -45
q85 -59 113 -84q42 -34 73 -92t31 -121q0 -161 -119.5 -256t-320.5 -95q-176 0 -258 58q-37 27 -37 67q0 87 37 217z" />
    <glyph glyph-name="t" unicode="t" horiz-adv-x="712" 
d="M596 117l6 -4q0 -28 -20 -54q-15 -18 -45 -36q-82 -46 -207 -46q-244 0 -244 218q0 60 27 180l102 495h-121l15 64q88 23 135 49q59 31 102 94q48 74 86 158h160l-45 -244h186l-20 -121h-185l-116 -542q-23 -115 -23 -170q0 -35 23.5 -55.5t60.5 -20.5q61 0 123 35z" />
    <glyph glyph-name="u" unicode="u" horiz-adv-x="1181" 
d="M1081 94l2 -10q-159 -102 -333 -102q-119 0 -119 129q0 102 33 217q-66 -135 -183 -246q-115 -109 -245 -109q-162 0 -162 164q0 81 84 463q39 169 39 256q0 55 -47 70l-70 14v10q70 27 174 41q120 19 190 19q55 0 76 -16t21 -58q0 -26 -41 -207q-103 -438 -103 -500
q0 -43 41 -43q63 0 146 103q66 84 110 284l86 418h312l-111 -547q-43 -203 -43 -266q0 -88 78 -88q19 0 65 4z" />
    <glyph glyph-name="v" unicode="v" horiz-adv-x="1021" 
d="M356 0h-194l-15 778q-3 106 -30 127q-38 23 -84 23v12q58 27 176 49q126 27 192 27q48 0 54 -45q4 -40 4 -115q-3 -558 -6 -649l198 305q148 242 148 362q0 42 -35 54q-27 9 -66 12v12q45 26 125 45q81 19 121 19q60 0 60 -39q0 -101 -173 -363q-128 -195 -475 -614z" />
    <glyph glyph-name="w" unicode="w" horiz-adv-x="1505" 
d="M375 0h-199l-31 762q-6 117 -34 139q-26 19 -80 27v12q58 27 176 49q126 27 192 27q55 0 58 -51q4 -110 4 -111q0 -30 -6 -590l288 645h226q59 -535 71 -676q77 143 146 281q117 237 117 356q0 49 -41 58q-20 7 -70 14v10q47 27 125 45q84 19 108 19q62 0 62 -37
q0 -87 -105 -287q-114 -219 -419 -692h-199l-64 616q-185 -372 -325 -616z" />
    <glyph glyph-name="x" unicode="x" horiz-adv-x="1058" 
d="M-53 231h16q21 -81 68 -81q64 0 119 55q77 77 215 248l-115 286q-49 117 -78 140q-17 14 -45 14q-3 0 -9 -0.5t-17 -1.5t-21 -2l-4 12q44 33 157 74q110 43 175 43q56 0 77 -37q29 -53 68 -160l72 -184q83 129 180 250q101 131 194 131q40 0 56 -16.5t16 -53.5
q0 -60 -39 -176h-16q-27 62 -74 62q-62 0 -123 -70q-76 -85 -164 -195l129 -319q37 -87 68 -133q25 -31 57 -31q19 0 49 6l5 -12q-54 -36 -156 -72q-107 -35 -166 -35q-79 0 -109 58q-31 53 -61 137l-80 211q-137 -205 -205 -289q-94 -117 -188 -117q-37 0 -57.5 19
t-20.5 49q0 82 27 190z" />
    <glyph glyph-name="y" unicode="y" horiz-adv-x="1026" 
d="M-203 -236h21q6 -47 34 -78.5t56 -31.5q64 0 121 51q144 116 290 305h-151l-37 766q-6 101 -31 123q-24 21 -84 27v14q53 24 181 51q129 27 194 27q40 0 49 -45q6 -35 6 -133q9 -601 9 -680q101 167 227 379q115 207 115 325q0 40 -41 58q-33 13 -66 16l-2 14
q45 23 137 45q92 21 125 21q36 0 49 -8.5t13 -32.5q0 -70 -158 -340q-137 -231 -438 -645q-192 -264 -357 -416q-90 -84 -200 -84q-95 0 -95 76q0 93 33 196z" />
    <glyph glyph-name="z" unicode="z" horiz-adv-x="935" 
d="M16 51l-57 -61l-57 47q315 331 716 702q-262 0 -344 -6q-91 -3 -122 -51q-23 -29 -31 -61l-17 2q12 216 27 295q8 43 24 58t58 15h739l4 -20q-334 -338 -731 -697q85 -3 254 -16q167 -10 185 -10q65 0 105.5 24.5t70.5 89.5l14 -2q-21 -253 -55 -323q-23 -57 -129 -57
q-51 0 -299 34q-249 37 -355 37z" />
    <glyph glyph-name="braceleft" unicode="{" horiz-adv-x="724" 
d="M508 -223l-4 -15q-212 0 -308 48t-96 172q0 34 13 120l32 187q23 141 23 164q0 79 -31.5 118t-103.5 43l4 15q112 9 160 78q41 60 77 233l43 227q30 158 146.5 222.5t363.5 64.5v-16q-119 -12 -178 -74t-86 -213l-49 -264q-23 -121 -104 -185t-226 -88q224 -40 224 -227
q0 -37 -9 -84l-30 -168q-19 -108 -19 -160q0 -177 158 -198z" />
    <glyph glyph-name="bar" unicode="|" horiz-adv-x="616" 
d="M588 1485l-334 -1706h-203l334 1706h203z" />
    <glyph glyph-name="braceright" unicode="}" horiz-adv-x="724" 
d="M242 1440l4 14q212 0 307.5 -47.5t95.5 -171.5q0 -41 -12 -121l-35 -186q-22 -126 -22 -164q0 -79 31.5 -118.5t103.5 -43.5l-4 -14q-115 -9 -162 -80q-50 -76 -76 -232l-41 -227q-29 -158 -146 -222.5t-364 -64.5v17q117 12 176 74t86 213l49 264q23 121 104.5 184.5
t227.5 87.5q-225 40 -225 227q0 46 8 82l31 170q18 95 18 160q0 178 -155 199z" />
    <glyph glyph-name="asciitilde" unicode="~" horiz-adv-x="1302" 
d="M248 395l-125 127q174 201 340 201q31 0 49 -3t61.5 -23t110.5 -62q97 -60 162 -60q94 0 209 130l127 -125q-160 -195 -344 -195q-99 0 -191 57q-85 54 -117 68t-75 14q-108 0 -207 -129z" />
    <glyph glyph-name="exclamdown" unicode="&#xa1;" horiz-adv-x="563" 
d="M225 526h27q4 -100 20 -297q19 -238 19 -313q0 -51 -4.5 -90.5t-17.5 -80t-35.5 -67t-61 -43t-90.5 -16.5q-76 0 -121 37t-45 108q0 66 41 175q23 64 119 264q80 166 149 323zM106 842q0 77 51.5 130.5t135.5 53.5q72 0 118 -47t46 -121q0 -86 -51 -140t-136 -54
q-77 0 -120.5 48.5t-43.5 129.5z" />
    <glyph glyph-name="cent" unicode="&#xa2;" horiz-adv-x="1093" 
d="M618 16l-38 -209h-84l36 193q-12 -2 -55 -2q-164 0 -257 90t-93 240q0 327 233 575q59 65 161.5 109.5t215.5 48.5l37 186h84l-37 -188q103 -3 158 -25q43 -15 43 -49q0 -27 -18 -100t-39 -123h-17q-27 204 -143 213l-154 -797q126 0 254 90l6 -2q0 -32 -8 -53
q-9 -34 -51 -70q-104 -93 -234 -127zM492 358q0 -122 77 -163l150 768q-45 -19 -94 -84q-133 -198 -133 -521z" />
    <glyph glyph-name="sterling" unicode="&#xa3;" horiz-adv-x="1253" 
d="M971 672l-31 -140h-231q-30 -78 -122.5 -147.5t-230.5 -112.5q490 8 615 15q38 2 81.5 18.5t61.5 38.5q39 49 53 76h15q-34 -263 -70 -352q-18 -41 -42.5 -54.5t-94.5 -13.5h-998l35 188q67 11 127 39q183 85 221 275q5 25 5 30h-199l31 140h174q0 220 6 254
q35 209 170 321q137 113 430 113q125 0 223 -31q62 -21 62 -76q0 -56 -62 -239h-14q-35 136 -81.5 188.5t-131.5 52.5q-94 0 -144.5 -80t-74.5 -284l-11 -109q-1 -33 -8 -110h236z" />
    <glyph glyph-name="currency" unicode="&#xa4;" horiz-adv-x="1247" 
d="M1133 274l-140 -139l-121 119q-94 -66 -229 -66q-143 0 -235 68l-121 -123l-133 139l127 121q-72 93 -72 228q0 122 70 229l-127 121l137 139l121 -121q101 70 231 70q120 0 233 -72l121 121l135 -135l-124 -121q69 -81 69 -231q0 -145 -69 -226zM383 625
q0 -122 72 -199.5t184 -77.5t186 78t74 195t-74 195.5t-184 78.5q-109 0 -184 -78q-74 -77 -74 -192z" />
    <glyph glyph-name="yen" unicode="&#xa5;" horiz-adv-x="1396" 
d="M1145 500l-19 -103h-272l-25 -133q-18 -102 -18 -155q0 -65 115 -95l-2 -14h-619l2 14q95 21 125 62q21 24 51 190l25 131h-279l21 103h278l23 106l-29 70h-239l22 102h176l-168 412q-29 75 -61 100q-23 20 -64 29l2 14h611l-2 -14q-73 -22 -82 -31q-15 -15 -15 -35
q0 -25 25 -92q125 -322 147 -397l310 418q37 52 37 78q0 20 -21 32q-36 20 -63 27l2 14h370l-2 -14q-15 -2 -53 -21q-34 -15 -117 -114l-331 -406h194l-20 -102h-256l-19 -23l-31 -153h271z" />
    <glyph glyph-name="brokenbar" unicode="&#xa6;" horiz-adv-x="636" 
d="M594 1382l-125 -643h-236l125 643h236zM418 477l-125 -639h-236l125 639h236z" />
    <glyph glyph-name="section" unicode="&#xa7;" horiz-adv-x="1069" 
d="M47 16h14q17 -122 99 -196t190 -74q85 0 137 45.5t52 122.5q0 88 -109 174l-233 184q-127 103 -127 240q0 129 81.5 205.5t233.5 83.5q-131 104 -131 266q0 184 145 276q148 95 365 95q152 0 233 -37q56 -27 56 -80q0 -27 -23 -111q-15 -52 -45 -123h-14q-21 110 -83 179
t-153 69q-90 0 -143 -39t-53 -116q0 -83 131 -181l112 -84q124 -93 177 -165.5t53 -157.5q0 -126 -88.5 -205t-229.5 -84q137 -122 137 -246q0 -191 -145 -303q-141 -112 -358 -112q-84 0 -167.5 20t-121.5 47q-41 27 -41 68q0 96 49 239zM395 551l170 -139q37 -37 78 -37
q31 0 59 22q37 30 37 70q0 49 -84 115l-135 110q-54 45 -88 45q-30 0 -61 -22q-37 -30 -37 -76q0 -36 61 -88z" />
    <glyph glyph-name="dieresis" unicode="&#xa8;" horiz-adv-x="407" 
d="M154 1307q0 -69 -42.5 -115.5t-109.5 -46.5q-55 0 -90 34.5t-35 90.5q0 67 45.5 114.5t108.5 47.5q56 0 89.5 -34.5t33.5 -90.5zM535 1307q0 -69 -42.5 -115.5t-109.5 -46.5q-55 0 -90 34.5t-35 90.5q0 67 45.5 114.5t108.5 47.5q56 0 89.5 -34.5t33.5 -90.5z" />
    <glyph glyph-name="copyright" unicode="&#xa9;" horiz-adv-x="1658" 
d="M1581 688q0 -310 -205 -512q-206 -203 -522 -203q-312 0 -518 203q-205 205 -205 512q0 309 205 514q207 207 516 207q317 0 522 -205q207 -207 207 -516zM1473 688q0 273 -175 451q-171 180 -446 180q-270 0 -444 -180q-175 -181 -175 -451q0 -268 175 -446
q176 -179 444 -179q272 0 446 177q175 178 175 448zM1141 475h14q-9 -110 -29 -145q-14 -23 -43 -39q-78 -35 -231 -35q-197 0 -302.5 96.5t-105.5 274.5q0 271 164 409q135 111 361 111q133 0 198 -27q45 -17 45 -51q0 -47 -41 -156h-14q-9 64 -37 109q-35 53 -147 53
q-138 0 -207 -106q-78 -122 -78 -328q0 -149 55 -231t162 -82q85 0 144 39q54 36 92 108z" />
    <glyph glyph-name="ordfeminine" unicode="&#xaa;" horiz-adv-x="747" 
d="M772 592l4 -10q-91 -60 -207 -60q-88 0 -88 78q0 46 21 135q-103 -219 -281 -219q-62 0 -93.5 31.5t-31.5 114.5q0 100 58 219t135 184q96 78 266 78q55 0 141 -13q79 -12 105 -28q-44 -50 -99 -340q-14 -74 -14 -133q0 -39 41 -39q31 0 43 2zM563 1059q0 17 -16 20
q-6 2 -21 2q-33 0 -67 -34q-49 -52 -92 -168q-43 -113 -43 -191q0 -51 30 -51q65 0 129 125q15 29 37 106q29 98 35 140q8 36 8 51z" />
    <glyph glyph-name="guillemotleft" unicode="&#xab;" horiz-adv-x="905" 
d="M92 571l432 336l11 -8l-254 -391l96 -414l-12 -6l-297 361q-17 24 -17 49q0 43 41 73zM473 571l432 336l10 -8l-253 -391l96 -414l-13 -6l-296 361q-17 24 -17 49q0 43 41 73z" />
    <glyph glyph-name="logicalnot" unicode="&#xac;" horiz-adv-x="1220" 
d="M1104 709l-105 -555h-182l70 370h-744l35 185h926z" />
    <glyph glyph-name="uni00AD" unicode="&#xad;" horiz-adv-x="702" 
d="M637 666l-49 -246h-520l51 246h518z" />
    <glyph glyph-name="registered" unicode="&#xae;" horiz-adv-x="1658" 
d="M1581 688q0 -310 -205 -512q-206 -203 -522 -203q-312 0 -518 203q-205 205 -205 512q0 309 205 514q207 207 516 207q317 0 522 -205q207 -207 207 -516zM1473 688q0 273 -175 451q-171 180 -446 180q-270 0 -444 -180q-175 -181 -175 -451q0 -268 175 -446
q176 -179 444 -179q272 0 446 177q175 178 175 448zM805 299l-2 -10h-406l4 10q62 16 82 39q20 24 41 133l97 477q10 58 10 94q0 23 -23 39q-27 16 -47 23l2 8h307q154 0 209 -14q166 -34 166 -185q0 -93 -62.5 -152.5t-178.5 -76.5q38 -10 63 -35t45 -67q13 -26 21 -54
l43 -122q19 -49 36.5 -66.5t65.5 -34.5l-2 -10q-120 -10 -160 -10q-106 0 -139 39q-31 31 -51 110q-40 148 -54 176q-21 35 -63 35h-35l-39 -178q-12 -53 -12 -92q0 -35 22 -51q23 -19 60 -25zM846 987l-60 -276h37q85 0 131 37q68 53 68 186q0 57 -37 84q-28 22 -76 22h-18
q-20 0 -29.5 -11t-15.5 -42z" />
    <glyph glyph-name="overscore" unicode="&#xaf;" horiz-adv-x="407" 
d="M487 1380l-36 -161h-537l37 161h536z" />
    <glyph glyph-name="degree" unicode="&#xb0;" horiz-adv-x="638" 
d="M160 1120q0 121 84 211q85 88 215 88q111 0 180.5 -71.5t69.5 -186.5q0 -127 -86 -213q-83 -86 -209 -86q-112 0 -183 73.5t-71 184.5zM453 1333q-80 0 -138.5 -60.5t-58.5 -152.5q0 -76 45.5 -125t118.5 -49q85 0 140.5 59t55.5 150q0 79 -44.5 128.5t-118.5 49.5z" />
    <glyph glyph-name="plusminus" unicode="&#xb1;" horiz-adv-x="1302" 
d="M768 659l-70 -358h-190l67 358h-370l35 181h374l68 368h192l-69 -368h373l-37 -181h-373zM1040 186l-34 -186h-936l36 186h934z" />
    <glyph glyph-name="twosuperior" unicode="&#xb2;" 
d="M633 881h-541l14 75q164 108 277 224q143 149 143 327q0 51 -28 86t-74 35q-56 0 -94 -30t-86 -109h-13q0 58 7 123q6 38 57 53q95 31 213 31q128 0 195 -54.5t67 -140.5q0 -130 -160 -258q-131 -100 -286 -186l-37 -21q126 4 309 4q55 0 80 19q29 23 59 78h13
q-2 -20 -19 -117q-14 -79 -22 -102q-6 -21 -21.5 -29t-52.5 -8z" />
    <glyph glyph-name="threesuperior" unicode="&#xb3;" 
d="M152 1087h10q8 -63 58 -106t128 -43q162 0 162 211q0 108 -115 108h-28l14 68h39q86 0 121 59q28 54 28 134q0 110 -96 110q-112 0 -197 -143h-10q2 45 15 121q6 35 43 53q70 37 215 37q129 0 196.5 -47.5t67.5 -120.5q0 -194 -258 -228q215 -18 215 -163
q0 -134 -121 -205q-121 -68 -289 -68q-138 0 -209 41q-20 14 -20 41q0 56 31 141z" />
    <glyph glyph-name="acute" unicode="&#xb4;" horiz-adv-x="407" 
d="M322 1286l-332 -164l-10 11l200 297q37 52 64 72t67 20q54 0 85.5 -30t31.5 -81q0 -73 -106 -125z" />
    <glyph glyph-name="mu" unicode="&#xb5;" horiz-adv-x="1300" 
d="M408 33l-19 -111q-36 -255 -39 -266q-9 -53 -28 -66q-45 -26 -314 -26l-6 6q195 876 231 1022q43 173 43 266q0 53 -47 68q-36 9 -67 14v10q66 27 170 41q117 19 188 19q60 0 80.5 -15.5t20.5 -58.5q0 -39 -43 -207q-105 -427 -105 -508q0 -41 43 -41q64 0 135 86
q60 72 103 262l98 463h305l-110 -559q-39 -186 -39 -258q0 -84 82 -84q17 0 63 4l2 -10q-51 -36 -156 -72q-99 -30 -180 -30q-117 0 -117 129q0 84 27 192q-104 -297 -256 -297q-53 0 -65 27z" />
    <glyph glyph-name="paragraph" unicode="&#xb6;" horiz-adv-x="1130" 
d="M346 -209l-2 14q100 26 166 111q56 77 117 379l35 172q-215 7 -330 105.5t-115 271.5q0 175 90 304.5t254 182.5q110 35 375 35h203l-4 -14q-100 -21 -129 -58q-32 -35 -52 -151l-168 -858l-14 -70l-12 -65l-12 -54q-5 -22 -9 -35.5t-12.5 -32t-11.5 -26.5
q-16 -40 -53 -80q-110 -116 -316 -131z" />
    <glyph glyph-name="middot" unicode="&#xb7;" horiz-adv-x="544" 
d="M248 367q-74 0 -121 46.5t-47 121.5q0 83 51.5 138.5t136.5 55.5q77 0 120.5 -48.5t43.5 -127.5q0 -80 -50.5 -133t-133.5 -53z" />
    <glyph glyph-name="cedilla" unicode="&#xb8;" horiz-adv-x="407" 
d="M2 -412v9l8 6q25 -25 94 -25q47 0 78 26.5t31 78.5q0 42 -24 67t-60 25q-11 0 -39 -4l-8 6l115 241h55l-57 -139q215 0 215 -166q0 -97 -77.5 -156t-191.5 -59q-101 0 -125 35q-14 17 -14 55z" />
    <glyph glyph-name="onesuperior" unicode="&#xb9;" 
d="M641 895l-4 -14h-434l4 14q37 8 67 25q42 22 62 120l82 439q12 62 12 75q0 41 -49 41q-39 0 -53 -2l-2 25l358 82l10 -10l-32 -156l-27 -139l-68 -351q-8 -41 -8 -77q0 -32 19 -45q30 -21 63 -27z" />
    <glyph glyph-name="ordmasculine" unicode="&#xba;" horiz-adv-x="700" 
d="M737 936q0 -87 -32.5 -178.5t-88.5 -151.5q-90 -90 -247 -90q-120 0 -188 65t-68 171q0 191 120 305q89 86 256 86q116 0 182 -54t66 -153zM524 1022q0 63 -45 63q-40 0 -67 -49q-35 -62 -60 -182q-28 -134 -28 -207q0 -78 47 -78q46 0 73 68q36 80 56 194q24 120 24 191
z" />
    <glyph glyph-name="guillemotright" unicode="&#xbb;" horiz-adv-x="905" 
d="M803 424l-432 -336l-11 8l254 391l-96 414l12 6l297 -360q17 -24 17 -49q0 -44 -41 -74zM422 424l-432 -336l-10 8l253 391l-96 414l13 6l296 -360q17 -24 17 -49q0 -44 -41 -74z" />
    <glyph glyph-name="onequarter" unicode="&#xbc;" horiz-adv-x="1726" 
d="M317 -14l955 1423l82 -53l-955 -1424zM557 547l-4 -15h-434l4 15q45 12 70 24q38 20 59 121l82 438q12 62 12 76q0 41 -49 41q-39 0 -53 -2l-2 25l358 82l10 -11l-32 -155l-27 -139l-68 -351q-9 -46 -7.5 -78.5t18.5 -44.5q24 -16 63 -26zM1460 14l-4 -14h-434l4 14
q54 14 78 31q37 23 55 111l8 45h-350l23 106l483 508h190q-22 -93 -53 -254l-47 -231h125l-27 -129h-120l-7 -39q-10 -58 -10 -86t21 -37q18 -11 65 -25zM946 330h246q36 193 72 342q-73 -87 -318 -342z" />
    <glyph glyph-name="onehalf" unicode="&#xbd;" horiz-adv-x="1726" 
d="M313 -14l955 1423l82 -53l-955 -1424zM549 547l-4 -15h-434l4 15q43 11 69 24q39 20 60 121l82 438q12 62 12 76q0 41 -49 41q-39 0 -53 -2l-3 25l359 82l10 -11l-33 -155l-26 -139l-68 -351q-9 -46 -8 -78.5t18 -44.5q23 -15 64 -26zM1438 0h-541l14 76
q91 60 151.5 108.5t125.5 114.5q143 149 143 328q0 51 -28 86t-74 35q-56 0 -94 -30t-86 -110h-13q0 68 6 123q6 38 58 53q95 31 213 31q128 0 195 -54t67 -140q0 -131 -160 -259q-128 -98 -287 -186l-36 -20q126 4 309 4q56 0 80 18q29 23 59 78h12q-3 -33 -18 -117
q-13 -73 -23 -102q-6 -21 -21 -29t-52 -8z" />
    <glyph glyph-name="threequarters" unicode="&#xbe;" horiz-adv-x="1726" 
d="M1505 14l-4 -14h-434l4 14q54 14 78 31q37 23 55 111l8 45h-350l23 106l483 508h191q-27 -117 -54 -254l-47 -231h125l-27 -129h-120l-6 -39q-11 -64 -11 -86q0 -28 21 -37q18 -11 65 -25zM133 739h10q8 -63 58 -106t129 -43q162 0 162 211q0 108 -115 108h-29l14 68h39
q86 0 121 59q29 56 29 133q0 111 -96 111q-112 0 -197 -143h-10q4 55 14 120q6 36 43 54q70 37 215 37q130 0 196 -46t66 -122q0 -193 -256 -228q213 -18 213 -164q0 -135 -118 -204q-121 -68 -289 -68q-140 0 -211 41q-21 15 -21 41q0 56 33 141zM393 -14l955 1423l82 -53
l-955 -1424zM991 330h246q36 193 72 342q-73 -87 -318 -342z" />
    <glyph glyph-name="questiondown" unicode="&#xbf;" horiz-adv-x="763" 
d="M526 530h29q0 -93 -2 -120q-3 -88 -35 -144q-29 -51 -135 -143q-96 -87 -96 -232q0 -89 40 -135.5t111 -46.5q84 0 139 48.5t95 148.5h14q0 -127 -10 -195q-6 -37 -24.5 -54t-59.5 -28q-103 -32 -252 -32q-224 0 -320 64.5t-96 217.5q0 131 82 207q90 83 250 164
q121 61 171 97.5t67 74.5q19 43 32 108zM379 842q0 77 51 130.5t135 53.5q70 0 117 -47.5t47 -120.5q0 -86 -51 -140t-135 -54q-77 0 -120.5 48.5t-43.5 129.5z" />
    <glyph glyph-name="Agrave" unicode="&#xc0;" horiz-adv-x="1421" 
d="M303 14l-4 -14h-397l4 14q17 2 63 23q44 18 84 88l535 919l184 322h227q1 -17 45 -311l119 -840q15 -125 56 -160q27 -24 86 -41l-2 -14h-615l2 14q77 23 94 35q39 20 39 74q0 26 -10 104l-27 228h-411l-154 -279q-37 -67 -37 -94q0 -24 25 -37q16 -10 94 -31zM432 563
h342l-57 522q-36 -80 -285 -522zM815 1776l182 -308l-8 -10l-319 193q-101 58 -101 129q0 45 33 73.5t78 28.5q72 0 135 -106z" />
    <glyph glyph-name="Aacute" unicode="&#xc1;" horiz-adv-x="1421" 
d="M303 14l-4 -14h-397l4 14q17 2 63 23q44 18 84 88l535 919l184 322h227q1 -17 45 -311l119 -840q15 -125 56 -160q27 -24 86 -41l-2 -14h-615l2 14q77 23 94 35q39 20 39 74q0 26 -10 104l-27 228h-411l-154 -279q-37 -67 -37 -94q0 -24 25 -37q16 -10 94 -31zM432 563
h342l-57 522q-36 -80 -285 -522zM1116 1585l-356 -127l-8 12l245 273q70 76 133 76q49 0 80 -30t31 -83q0 -75 -125 -121z" />
    <glyph glyph-name="Acircumflex" unicode="&#xc2;" horiz-adv-x="1421" 
d="M303 14l-4 -14h-397l4 14q17 2 63 23q44 18 84 88l535 919l184 322h227q1 -17 45 -311l119 -840q15 -125 56 -160q27 -24 86 -41l-2 -14h-615l2 14q77 23 94 35q39 20 39 74q0 26 -10 104l-27 228h-411l-154 -279q-37 -67 -37 -94q0 -24 25 -37q16 -10 94 -31zM432 563
h342l-57 522q-36 -80 -285 -522zM1028 1722l164 -256l-10 -10l-281 135l-340 -135l-8 12l278 263q46 43 99 43q64 0 98 -52z" />
    <glyph glyph-name="Atilde" unicode="&#xc3;" horiz-adv-x="1421" 
d="M303 14l-4 -14h-397l4 14q17 2 63 23q44 18 84 88l535 919l184 322h227q1 -17 45 -311l119 -840q15 -125 56 -160q27 -24 86 -41l-2 -14h-615l2 14q77 23 94 35q39 20 39 74q0 26 -10 104l-27 228h-411l-154 -279q-37 -67 -37 -94q0 -24 25 -37q16 -10 94 -31zM432 563
h342l-57 522q-36 -80 -285 -522zM1212 1741l17 -6q-77 -250 -213 -250q-59 0 -144 39q-93 43 -141 43q-76 0 -137 -94l-16 6q34 81 47 110q20 44 73 97q51 51 113 51q40 0 147 -49q72 -35 115 -35q46 0 76 19.5t63 68.5z" />
    <glyph glyph-name="Adieresis" unicode="&#xc4;" horiz-adv-x="1421" 
d="M303 14l-4 -14h-397l4 14q17 2 63 23q44 18 84 88l535 919l184 322h227q1 -17 45 -311l119 -840q15 -125 56 -160q27 -24 86 -41l-2 -14h-615l2 14q77 23 94 35q39 20 39 74q0 26 -10 104l-27 228h-411l-154 -279q-37 -67 -37 -94q0 -24 25 -37q16 -10 94 -31zM432 563
h342l-57 522q-36 -80 -285 -522zM842 1632q0 -68 -43 -115t-111 -47q-52 0 -87.5 35.5t-35.5 91.5q0 67 45.5 114.5t108.5 47.5q56 0 89.5 -35.5t33.5 -91.5zM1245 1632q0 -68 -42.5 -115t-108.5 -47q-54 0 -89.5 35t-35.5 92q0 68 44.5 115t110.5 47q56 0 88.5 -35
t32.5 -92z" />
    <glyph glyph-name="Aring" unicode="&#xc5;" horiz-adv-x="1421" 
d="M303 14l-4 -14h-397l4 14q17 2 63 23q44 18 84 88l535 919l184 322h227q1 -17 45 -311l119 -840q15 -125 56 -160q27 -24 86 -41l-2 -14h-615l2 14q77 23 94 35q39 20 39 74q0 26 -10 104l-27 228h-411l-154 -279q-37 -67 -37 -94q0 -24 25 -37q16 -10 94 -31zM432 563
h342l-57 522q-36 -80 -285 -522zM1073 1630q0 -76 -50 -129t-130 -53q-67 0 -111.5 45t-44.5 113q0 77 53 127.5t132 50.5q68 0 109.5 -43t41.5 -111zM1008 1626q0 43 -26.5 71.5t-68.5 28.5q-50 0 -80 -32.5t-30 -87.5q0 -42 28 -70.5t72 -28.5t74.5 34t30.5 85z" />
    <glyph glyph-name="AE" unicode="&#xc6;" horiz-adv-x="2039" 
d="M371 14l-2 -14h-447l2 14q67 19 115 58q76 56 139 131l809 950q80 95 80 133q0 24 -26 36t-109 30l2 14h1075q47 0 47 -33q0 -61 -61 -268h-15q-24 150 -79 174q-27 12 -129 12h-168q-25 0 -40 -12t-20.5 -27.5t-11.5 -46.5l-80 -395h125q139 0 186 12q44 10 71 38.5
t58 94.5h17l-82 -407h-17q-9 119 -100 137q-55 10 -154 10h-122l-78 -397q-15 -68 -15 -100q0 -45 86 -45h179q136 0 198 45q70 51 138 166h14q-47 -250 -58 -281q-7 -28 -22.5 -35.5t-58.5 -7.5h-996l2 14q75 23 119 52q38 25 59 137l52 252h-521l-182 -230
q-86 -109 -86 -145q0 -19 25 -35q45 -20 82 -31zM627 563h446l137 709q-121 -155 -583 -709z" />
    <glyph glyph-name="Ccedilla" unicode="&#xc7;" horiz-adv-x="1300" 
d="M416 -420v8l8 6q27 -24 96 -24q48 0 80.5 27t32.5 79q0 43 -25 69t-61 26q-23 0 -41 -7l-8 9l94 204q-249 23 -376.5 166t-127.5 387q0 271 109.5 473.5t316.5 305.5q174 86 434 86q187 0 297 -45q55 -21 55 -64q0 -67 -61 -256h-14q-30 146 -90 203q-61 55 -191 55
q-168 0 -287 -119q-98 -98 -143 -268q-45 -167 -45 -346q0 -218 82 -346.5t237 -128.5q128 0 232 72q70 48 147 153l15 -2q-35 -159 -60 -213q-24 -52 -82 -67q-158 -50 -358 -50h-29l-41 -96q112 0 168 -46t56 -124q0 -100 -79 -159.5t-198 -59.5q-99 0 -129 35
q-14 14 -14 57z" />
    <glyph glyph-name="Egrave" unicode="&#xc8;" horiz-adv-x="1212" 
d="M993 0h-993l2 14q71 17 109 47q40 29 61 142l180 919q15 76 15 129q0 46 -27 64q-22 19 -92 37l2 14h934q47 0 47 -33q0 -45 -66 -268h-14q-21 126 -59 164q-25 22 -129 22h-181q-37 0 -53 -19.5t-24 -66.5l-80 -395h123q142 0 192 12q42 10 67 37t58 96h16l-82 -407h-16
q-5 35 -10.5 56t-18 39t-27.5 26.5t-44.5 15t-64 8t-91.5 2.5h-121l-78 -399q-14 -63 -14 -100q0 -43 94 -43h187q122 0 184 45q53 35 135 166h14q-28 -172 -59 -279q-7 -26 -23 -35.5t-53 -9.5zM723 1776l182 -308l-8 -10l-319 193q-101 58 -101 129q0 45 33 73.5t78 28.5
q72 0 135 -106z" />
    <glyph glyph-name="Eacute" unicode="&#xc9;" horiz-adv-x="1212" 
d="M993 0h-993l2 14q71 17 109 47q40 29 61 142l180 919q15 76 15 129q0 46 -27 64q-22 19 -92 37l2 14h934q47 0 47 -33q0 -45 -66 -268h-14q-21 126 -59 164q-25 22 -129 22h-181q-37 0 -53 -19.5t-24 -66.5l-80 -395h123q142 0 192 12q42 10 67 37t58 96h16l-82 -407h-16
q-5 35 -10.5 56t-18 39t-27.5 26.5t-44.5 15t-64 8t-91.5 2.5h-121l-78 -399q-14 -63 -14 -100q0 -43 94 -43h187q122 0 184 45q53 35 135 166h14q-28 -172 -59 -279q-7 -26 -23 -35.5t-53 -9.5zM995 1585l-356 -127l-8 12l246 273q70 76 133 76q49 0 79.5 -30t30.5 -83
q0 -75 -125 -121z" />
    <glyph glyph-name="Ecircumflex" unicode="&#xca;" horiz-adv-x="1212" 
d="M993 0h-993l2 14q71 17 109 47q40 29 61 142l180 919q15 76 15 129q0 46 -27 64q-22 19 -92 37l2 14h934q47 0 47 -33q0 -45 -66 -268h-14q-21 126 -59 164q-25 22 -129 22h-181q-37 0 -53 -19.5t-24 -66.5l-80 -395h123q142 0 192 12q42 10 67 37t58 96h16l-82 -407h-16
q-5 35 -10.5 56t-18 39t-27.5 26.5t-44.5 15t-64 8t-91.5 2.5h-121l-78 -399q-14 -63 -14 -100q0 -43 94 -43h187q122 0 184 45q53 35 135 166h14q-28 -172 -59 -279q-7 -26 -23 -35.5t-53 -9.5zM950 1722l164 -256l-10 -10l-281 135l-340 -135l-8 12l279 263q46 43 98 43
q64 0 98 -52z" />
    <glyph glyph-name="Edieresis" unicode="&#xcb;" horiz-adv-x="1212" 
d="M993 0h-993l2 14q71 17 109 47q40 29 61 142l180 919q15 76 15 129q0 46 -27 64q-22 19 -92 37l2 14h934q47 0 47 -33q0 -45 -66 -268h-14q-21 126 -59 164q-25 22 -129 22h-181q-37 0 -53 -19.5t-24 -66.5l-80 -395h123q142 0 192 12q42 10 67 37t58 96h16l-82 -407h-16
q-5 35 -10.5 56t-18 39t-27.5 26.5t-44.5 15t-64 8t-91.5 2.5h-121l-78 -399q-14 -63 -14 -100q0 -43 94 -43h187q122 0 184 45q53 35 135 166h14q-28 -172 -59 -279q-7 -26 -23 -35.5t-53 -9.5zM756 1632q0 -68 -43 -115t-111 -47q-52 0 -87.5 35.5t-35.5 91.5
q0 67 45.5 114.5t108.5 47.5q56 0 89.5 -35.5t33.5 -91.5zM1159 1632q0 -68 -42.5 -115t-108.5 -47q-54 0 -89.5 35t-35.5 92q0 68 44.5 115t110.5 47q56 0 88.5 -35t32.5 -92z" />
    <glyph glyph-name="Igrave" unicode="&#xcc;" horiz-adv-x="829" 
d="M629 14l-2 -14h-627l4 14q76 18 119 64q31 39 61 190l162 822q21 105 21 161q0 42 -23.5 62.5t-95.5 38.5l2 14h627l-5 -14q-89 -27 -116 -54q-20 -20 -32.5 -58t-31.5 -136l-164 -838q-20 -109 -20 -160q0 -31 27.5 -51.5t93.5 -40.5zM530 1776l183 -308l-8 -10
l-320 193q-100 57 -100 129q0 46 32.5 74t77.5 28q72 0 135 -106z" />
    <glyph glyph-name="Iacute" unicode="&#xcd;" horiz-adv-x="829" 
d="M629 14l-2 -14h-627l4 14q76 18 119 64q31 39 61 190l162 822q21 105 21 161q0 42 -23.5 62.5t-95.5 38.5l2 14h627l-5 -14q-89 -27 -116 -54q-20 -20 -32.5 -58t-31.5 -136l-164 -838q-20 -109 -20 -160q0 -31 27.5 -51.5t93.5 -40.5zM805 1585l-356 -127l-9 12l246 273
q70 76 133 76q49 0 80 -30t31 -83q0 -75 -125 -121z" />
    <glyph glyph-name="Icircumflex" unicode="&#xce;" horiz-adv-x="829" 
d="M629 14l-2 -14h-627l4 14q76 18 119 64q31 39 61 190l162 822q21 105 21 161q0 42 -23.5 62.5t-95.5 38.5l2 14h627l-5 -14q-89 -27 -116 -54q-20 -20 -32.5 -58t-31.5 -136l-164 -838q-20 -109 -20 -160q0 -31 27.5 -51.5t93.5 -40.5zM733 1722l164 -256l-10 -10
l-281 135l-340 -135l-8 12l279 263q46 43 98 43q64 0 98 -52z" />
    <glyph glyph-name="Idieresis" unicode="&#xcf;" horiz-adv-x="829" 
d="M629 14l-2 -14h-627l4 14q76 18 119 64q31 39 61 190l162 822q21 105 21 161q0 42 -23.5 62.5t-95.5 38.5l2 14h627l-5 -14q-89 -27 -116 -54q-20 -20 -32.5 -58t-31.5 -136l-164 -838q-20 -109 -20 -160q0 -31 27.5 -51.5t93.5 -40.5zM547 1632q0 -68 -43 -115t-111 -47
q-52 0 -87.5 35.5t-35.5 91.5q0 67 45.5 114.5t108.5 47.5q56 0 89.5 -35.5t33.5 -91.5zM950 1632q0 -68 -42.5 -115t-108.5 -47q-55 0 -90 35t-35 92q0 68 44.5 115t110.5 47q56 0 88.5 -35t32.5 -92z" />
    <glyph glyph-name="Eth" unicode="&#xd0;" horiz-adv-x="1544" 
d="M705 0h-705l2 14q102 24 129 70q24 41 64 231l65 336h-186l26 135h187l51 263q27 138 27 198q0 43 -23.5 65.5t-93.5 39.5l2 14h614q350 0 492 -121q160 -133 160 -381q0 -356 -189 -604q-95 -123 -255.5 -191.5t-366.5 -68.5zM602 651l-72 -370q-16 -91 -16 -115
q0 -29 25 -45q30 -21 161 -21q120 0 211.5 66t141.5 184q94 222 94 520q0 161 -37 242q-64 150 -250 150h-22q-76 0 -105 -29q-21 -21 -51 -176l-53 -271h293l-27 -135h-293z" />
    <glyph glyph-name="Ntilde" unicode="&#xd1;" horiz-adv-x="1542" 
d="M436 14l-4 -14h-432l4 14q83 18 119 60q34 34 61 180q53 259 150 788q28 159 28 193q0 56 -26 76q-33 29 -92 41l2 14h454q45 0 60 -35q255 -545 397 -870q61 317 117 663q8 57 8 109q0 51 -27.5 76.5t-99.5 42.5l2 14h424l-2 -14q-55 -15 -106 -54q-52 -42 -78 -186
l-215 -1126h-189l-518 1194q-43 -244 -158 -916q-16 -112 -16 -141q0 -37 26 -57t111 -52zM1288 1741l17 -6q-77 -250 -213 -250q-59 0 -144 39q-93 43 -141 43q-76 0 -137 -94l-17 6q34 81 47 110q19 42 74 97q51 51 113 51q40 0 147 -49q72 -35 115 -35q46 0 76 19.5
t63 68.5z" />
    <glyph glyph-name="Ograve" unicode="&#xd2;" horiz-adv-x="1447" 
d="M1419 924q0 -204 -80 -426q-79 -219 -231 -359q-90 -80 -219 -123t-262 -43q-258 0 -398.5 138.5t-140.5 386.5q0 192 74 399q76 204 227 334q88 77 224.5 120.5t275.5 43.5q530 0 530 -471zM1044 1010q0 153 -40.5 216.5t-133.5 63.5q-123 0 -211 -131
q-82 -123 -141 -344q-57 -212 -57 -420q0 -166 43 -240.5t137 -74.5q133 0 207 123q88 144 141 393q55 247 55 414zM829 1776l183 -308l-8 -10l-320 193q-100 57 -100 129q0 46 32.5 74t77.5 28q72 0 135 -106z" />
    <glyph glyph-name="Oacute" unicode="&#xd3;" horiz-adv-x="1447" 
d="M1419 924q0 -204 -80 -426q-79 -219 -231 -359q-90 -80 -219 -123t-262 -43q-258 0 -398.5 138.5t-140.5 386.5q0 192 74 399q76 204 227 334q88 77 224.5 120.5t275.5 43.5q530 0 530 -471zM1044 1010q0 153 -40.5 216.5t-133.5 63.5q-123 0 -211 -131
q-82 -123 -141 -344q-57 -212 -57 -420q0 -166 43 -240.5t137 -74.5q133 0 207 123q88 144 141 393q55 247 55 414zM1139 1585l-357 -127l-8 12l246 273q70 76 133 76q49 0 80 -30t31 -83q0 -75 -125 -121z" />
    <glyph glyph-name="Ocircumflex" unicode="&#xd4;" horiz-adv-x="1447" 
d="M1419 924q0 -204 -80 -426q-79 -219 -231 -359q-90 -80 -219 -123t-262 -43q-258 0 -398.5 138.5t-140.5 386.5q0 192 74 399q76 204 227 334q88 77 224.5 120.5t275.5 43.5q530 0 530 -471zM1044 1010q0 153 -40.5 216.5t-133.5 63.5q-123 0 -211 -131
q-82 -123 -141 -344q-57 -212 -57 -420q0 -166 43 -240.5t137 -74.5q133 0 207 123q88 144 141 393q55 247 55 414zM1055 1722l164 -256l-11 -10l-280 135l-340 -135l-8 12l278 263q46 43 98 43q65 0 99 -52z" />
    <glyph glyph-name="Otilde" unicode="&#xd5;" horiz-adv-x="1447" 
d="M1419 924q0 -204 -80 -426q-79 -219 -231 -359q-90 -80 -219 -123t-262 -43q-258 0 -398.5 138.5t-140.5 386.5q0 192 74 399q76 204 227 334q88 77 224.5 120.5t275.5 43.5q530 0 530 -471zM1044 1010q0 153 -40.5 216.5t-133.5 63.5q-123 0 -211 -131
q-82 -123 -141 -344q-57 -212 -57 -420q0 -166 43 -240.5t137 -74.5q133 0 207 123q88 144 141 393q55 247 55 414zM1219 1741l16 -6q-77 -250 -213 -250q-58 0 -143 39q-93 43 -142 43q-76 0 -137 -94l-16 6q34 81 47 110q19 42 74 97q51 51 112 51q41 0 148 -49
q72 -35 114 -35q46 0 76.5 19.5t63.5 68.5z" />
    <glyph glyph-name="Odieresis" unicode="&#xd6;" horiz-adv-x="1447" 
d="M1419 924q0 -204 -80 -426q-79 -219 -231 -359q-90 -80 -219 -123t-262 -43q-258 0 -398.5 138.5t-140.5 386.5q0 192 74 399q76 204 227 334q88 77 224.5 120.5t275.5 43.5q530 0 530 -471zM1044 1010q0 153 -40.5 216.5t-133.5 63.5q-123 0 -211 -131
q-82 -123 -141 -344q-57 -212 -57 -420q0 -166 43 -240.5t137 -74.5q133 0 207 123q88 144 141 393q55 247 55 414zM903 1632q0 -68 -43 -115t-110 -47q-52 0 -87.5 35.5t-35.5 91.5q0 67 45 114.5t108 47.5q56 0 89.5 -35.5t33.5 -91.5zM1307 1632q0 -67 -43 -114.5
t-109 -47.5q-55 0 -90 35t-35 92q0 68 45 115t111 47q56 0 88.5 -35t32.5 -92z" />
    <glyph glyph-name="multiply" unicode="&#xd7;" horiz-adv-x="1239" 
d="M625 426l-291 -258l-113 131l285 262l-232 256l140 129l233 -256l285 260l112 -135l-284 -258l233 -254l-139 -131z" />
    <glyph glyph-name="Oslash" unicode="&#xd8;" horiz-adv-x="1447" 
d="M289 61l-92 -116l-74 55l96 121q-131 137 -131 377q0 192 74 399q76 204 227 334q88 77 224.5 120.5t275.5 43.5q168 0 291 -54l118 152l74 -53l-112 -144q159 -117 159 -372q0 -204 -80 -426q-79 -219 -231 -359q-90 -80 -219 -123t-262 -43q-207 0 -338 88zM1044 1010
v12l-579 -735q12 -108 54.5 -157.5t121.5 -49.5q133 0 207 123q88 144 141 393q55 247 55 414zM659 1159q-78 -115 -137 -325q-58 -207 -61 -406l571 725q-30 137 -162 137q-123 0 -211 -131z" />
    <glyph glyph-name="Ugrave" unicode="&#xd9;" horiz-adv-x="1505" 
d="M236 1352l2 14h628l-2 -14q-89 -22 -114 -47q-33 -26 -58 -150l-125 -637q-26 -133 -26 -225q0 -104 57.5 -151.5t179.5 -47.5q150 0 246 96q79 79 121 273l127 645q16 82 16 129q0 50 -25 73t-98 42l4 14h414l-4 -14l-61 -17q-46 -20 -68 -53.5t-39 -116.5l-123 -653
q-47 -252 -133 -352q-86 -99 -204.5 -143t-293.5 -44q-456 0 -456 344q0 81 30 248l107 553q16 82 16 142q0 40 -23.5 57t-94.5 35zM918 1776l182 -308l-8 -10l-320 193q-100 57 -100 129q0 46 32.5 74t77.5 28q73 0 136 -106z" />
    <glyph glyph-name="Uacute" unicode="&#xda;" horiz-adv-x="1505" 
d="M236 1352l2 14h628l-2 -14q-89 -22 -114 -47q-33 -26 -58 -150l-125 -637q-26 -133 -26 -225q0 -104 57.5 -151.5t179.5 -47.5q150 0 246 96q79 79 121 273l127 645q16 82 16 129q0 50 -25 73t-98 42l4 14h414l-4 -14l-61 -17q-46 -20 -68 -53.5t-39 -116.5l-123 -653
q-47 -252 -133 -352q-86 -99 -204.5 -143t-293.5 -44q-456 0 -456 344q0 81 30 248l107 553q16 82 16 142q0 40 -23.5 57t-94.5 35zM1176 1585l-357 -127l-8 12l246 273q70 76 133 76q49 0 79.5 -30t30.5 -83q0 -75 -124 -121z" />
    <glyph glyph-name="Ucircumflex" unicode="&#xdb;" horiz-adv-x="1505" 
d="M236 1352l2 14h628l-2 -14q-89 -22 -114 -47q-33 -26 -58 -150l-125 -637q-26 -133 -26 -225q0 -104 57.5 -151.5t179.5 -47.5q150 0 246 96q79 79 121 273l127 645q16 82 16 129q0 50 -25 73t-98 42l4 14h414l-4 -14l-61 -17q-46 -20 -68 -53.5t-39 -116.5l-123 -653
q-47 -252 -133 -352q-86 -99 -204.5 -143t-293.5 -44q-456 0 -456 344q0 81 30 248l107 553q16 82 16 142q0 40 -23.5 57t-94.5 35zM1094 1722l163 -256l-10 -10l-280 135l-340 -135l-9 12l279 263q46 43 98 43q65 0 99 -52z" />
    <glyph glyph-name="Udieresis" unicode="&#xdc;" horiz-adv-x="1505" 
d="M236 1352l2 14h628l-2 -14q-89 -22 -114 -47q-33 -26 -58 -150l-125 -637q-26 -133 -26 -225q0 -104 57.5 -151.5t179.5 -47.5q150 0 246 96q79 79 121 273l127 645q16 82 16 129q0 50 -25 73t-98 42l4 14h414l-4 -14l-61 -17q-46 -20 -68 -53.5t-39 -116.5l-123 -653
q-47 -252 -133 -352q-86 -99 -204.5 -143t-293.5 -44q-456 0 -456 344q0 81 30 248l107 553q16 82 16 142q0 40 -23.5 57t-94.5 35zM915 1632q0 -68 -43 -115t-110 -47q-52 0 -87.5 35.5t-35.5 91.5q0 67 45.5 114.5t108.5 47.5q56 0 89 -35.5t33 -91.5zM1319 1632
q0 -67 -43 -114.5t-109 -47.5q-55 0 -90 35t-35 92q0 68 45 115t111 47q56 0 88.5 -35t32.5 -92z" />
    <glyph glyph-name="Yacute" unicode="&#xdd;" horiz-adv-x="1294" 
d="M877 14l-5 -14h-636l2 14q98 23 127 66q20 26 55 209l61 329l-235 601q-34 81 -68 108q-33 20 -51 25l4 14h574l-3 -14q-81 -18 -90 -27q-10 -10 -10 -25q0 -23 23 -90q157 -427 168 -469l51 72l117 162l167 233q35 50 35 82q0 22 -18 31q-32 23 -76 31l2 14h385l-2 -14
q-23 -5 -51 -19q-50 -26 -125 -116l-434 -547l-74 -391q-20 -97 -20 -160q0 -34 27.5 -57.5t99.5 -47.5zM1120 1585l-356 -127l-8 12l245 273q70 76 134 76q49 0 79.5 -30t30.5 -83q0 -75 -125 -121z" />
    <glyph glyph-name="Thorn" unicode="&#xde;" horiz-adv-x="1337" 
d="M639 14l-2 -14h-637l2 14q87 21 121 64q26 34 61 190l162 811q23 118 23 170q0 40 -27 64q-24 24 -94 39l2 14h627l-5 -14q-90 -21 -118 -56q-29 -37 -62 -194l-4 -23q30 6 123 6q487 0 487 -311q0 -126 -50.5 -219t-143.5 -145q-179 -99 -442 -99q-100 0 -123 2l-17 -82
q-14 -66 -14 -114q0 -35 27 -56q33 -26 104 -47zM651 897l-94 -477q25 -2 92 -2q287 0 287 375q0 46 -18 91.5t-48 63.5q-57 31 -139 31q-41 0 -55 -15.5t-25 -66.5z" />
    <glyph glyph-name="germandbls" unicode="&#xdf;" horiz-adv-x="1245" 
d="M-291 -205h15q52 -178 149 -178q74 0 109 78q27 61 81 338l140 727q57 294 98 395q44 108 164 197q128 94 354 94q179 0 274 -62t95 -180q0 -90 -47 -155q-51 -71 -158 -154l-104 -84q-41 -35 -41 -72q0 -34 75 -94l62 -51q99 -84 135.5 -144.5t36.5 -140.5
q0 -134 -121 -243q-120 -105 -342 -105q-108 0 -186 37q-33 14 -33 70q0 28 24 178h19q65 -207 201 -207q163 0 163 156q0 86 -133 192l-30 25q-150 120 -150 200q0 50 33 97q36 52 139 149l90 84q123 117 123 272q0 68 -40 111t-105 43q-106 0 -150 -86q-35 -71 -76 -274
l-141 -719q-41 -208 -117 -418q-59 -155 -190 -240q-131 -88 -272 -88q-100 0 -146 27q-31 16 -31 59q0 81 33 166z" />
    <glyph glyph-name="agrave" unicode="&#xe0;" horiz-adv-x="1202" 
d="M1098 94l2 -10q-64 -43 -161.5 -72.5t-182.5 -29.5q-117 0 -117 114q0 82 31 240q-182 -363 -434 -363q-31 0 -54.5 3.5t-51.5 18t-46.5 40t-31.5 72t-13 110.5q0 171 86 375q89 207 213 307q75 63 164 91t225 28q102 0 234 -21q131 -21 172 -45q-68 -84 -156 -592
q-21 -117 -21 -200q0 -34 19 -52t47 -18q40 0 76 4zM772 885q0 24 -20 35q-13 8 -47 8q-73 0 -127 -60q-70 -79 -138 -286q-67 -204 -67 -322q0 -94 57 -94q49 0 107.5 59.5t101.5 145.5q25 55 59 170q38 119 64 254q10 68 10 90zM670 1442l157 -309l-12 -11l-295 178
q-86 50 -86 119q0 50 33.5 82.5t81.5 32.5q74 0 121 -92z" />
    <glyph glyph-name="aacute" unicode="&#xe1;" horiz-adv-x="1202" 
d="M1098 94l2 -10q-64 -43 -161.5 -72.5t-182.5 -29.5q-117 0 -117 114q0 82 31 240q-182 -363 -434 -363q-31 0 -54.5 3.5t-51.5 18t-46.5 40t-31.5 72t-13 110.5q0 171 86 375q89 207 213 307q75 63 164 91t225 28q102 0 234 -21q131 -21 172 -45q-68 -84 -156 -592
q-21 -117 -21 -200q0 -34 19 -52t47 -18q40 0 76 4zM772 885q0 24 -20 35q-13 8 -47 8q-73 0 -127 -60q-70 -79 -138 -286q-67 -204 -67 -322q0 -94 57 -94q49 0 107.5 59.5t101.5 145.5q25 55 59 170q38 119 64 254q10 68 10 90zM971 1286l-332 -164l-10 11l200 297
q37 52 64.5 72t67.5 20q54 0 85 -30t31 -81q0 -73 -106 -125z" />
    <glyph glyph-name="acircumflex" unicode="&#xe2;" horiz-adv-x="1202" 
d="M1098 94l2 -10q-64 -43 -161.5 -72.5t-182.5 -29.5q-117 0 -117 114q0 82 31 240q-182 -363 -434 -363q-31 0 -54.5 3.5t-51.5 18t-46.5 40t-31.5 72t-13 110.5q0 171 86 375q89 207 213 307q75 63 164 91t225 28q102 0 234 -21q131 -21 172 -45q-68 -84 -156 -592
q-21 -117 -21 -200q0 -34 19 -52t47 -18q40 0 76 4zM772 885q0 24 -20 35q-13 8 -47 8q-73 0 -127 -60q-70 -79 -138 -286q-67 -204 -67 -322q0 -94 57 -94q49 0 107.5 59.5t101.5 145.5q25 55 59 170q38 119 64 254q10 68 10 90zM887 1421l139 -291l-12 -10l-254 166
l-311 -166l-11 10l248 300q47 59 107 59q64 0 94 -68z" />
    <glyph glyph-name="atilde" unicode="&#xe3;" horiz-adv-x="1202" 
d="M1098 94l2 -10q-64 -43 -161.5 -72.5t-182.5 -29.5q-117 0 -117 114q0 82 31 240q-182 -363 -434 -363q-31 0 -54.5 3.5t-51.5 18t-46.5 40t-31.5 72t-13 110.5q0 171 86 375q89 207 213 307q75 63 164 91t225 28q102 0 234 -21q131 -21 172 -45q-68 -84 -156 -592
q-21 -117 -21 -200q0 -34 19 -52t47 -18q40 0 76 4zM772 885q0 24 -20 35q-13 8 -47 8q-73 0 -127 -60q-70 -79 -138 -286q-67 -204 -67 -322q0 -94 57 -94q49 0 107.5 59.5t101.5 145.5q25 55 59 170q38 119 64 254q10 68 10 90zM1038 1430l17 -9q-83 -250 -209 -250
q-37 0 -137 41q-79 39 -125 39q-70 0 -131 -94l-17 6q33 85 47 115q18 39 68 96q45 51 100 51q46 0 125 -43q77 -41 129 -41q43 0 69 18t64 71z" />
    <glyph glyph-name="adieresis" unicode="&#xe4;" horiz-adv-x="1202" 
d="M1098 94l2 -10q-64 -43 -161.5 -72.5t-182.5 -29.5q-117 0 -117 114q0 82 31 240q-182 -363 -434 -363q-31 0 -54.5 3.5t-51.5 18t-46.5 40t-31.5 72t-13 110.5q0 171 86 375q89 207 213 307q75 63 164 91t225 28q102 0 234 -21q131 -21 172 -45q-68 -84 -156 -592
q-21 -117 -21 -200q0 -34 19 -52t47 -18q40 0 76 4zM772 885q0 24 -20 35q-13 8 -47 8q-73 0 -127 -60q-70 -79 -138 -286q-67 -204 -67 -322q0 -94 57 -94q49 0 107.5 59.5t101.5 145.5q25 55 59 170q38 119 64 254q10 68 10 90zM702 1307q0 -69 -42.5 -115.5t-108.5 -46.5
q-55 0 -90 34.5t-35 90.5q0 67 45.5 114.5t108.5 47.5q56 0 89 -34.5t33 -90.5zM1083 1307q0 -69 -42.5 -115.5t-108.5 -46.5q-55 0 -90 34.5t-35 90.5q0 67 45.5 114.5t108.5 47.5q56 0 89 -34.5t33 -90.5z" />
    <glyph glyph-name="aring" unicode="&#xe5;" horiz-adv-x="1202" 
d="M1098 94l2 -10q-64 -43 -161.5 -72.5t-182.5 -29.5q-117 0 -117 114q0 82 31 240q-182 -363 -434 -363q-31 0 -54.5 3.5t-51.5 18t-46.5 40t-31.5 72t-13 110.5q0 171 86 375q89 207 213 307q75 63 164 91t225 28q102 0 234 -21q131 -21 172 -45q-68 -84 -156 -592
q-21 -117 -21 -200q0 -34 19 -52t47 -18q40 0 76 4zM772 885q0 24 -20 35q-13 8 -47 8q-73 0 -127 -60q-70 -79 -138 -286q-67 -204 -67 -322q0 -94 57 -94q49 0 107.5 59.5t101.5 145.5q25 55 59 170q38 119 64 254q10 68 10 90zM932 1331q0 -82 -54.5 -136t-140.5 -54
q-75 0 -122.5 46.5t-47.5 119.5q0 82 56 135t141 53q78 0 123 -44.5t45 -119.5zM864 1323q0 49 -30.5 81t-77.5 32q-54 0 -86.5 -35t-32.5 -92q0 -48 29 -78.5t79 -30.5q51 0 85 34.5t34 88.5z" />
    <glyph glyph-name="ae" unicode="&#xe6;" horiz-adv-x="1441" 
d="M604 145q-114 -172 -321 -172q-119 0 -186.5 74t-67.5 184q0 217 243 269q144 30 344 30l13 76q8 47 8 101q0 62 -48 92t-126 30q-167 0 -279 -77l-8 2l6 37q21 82 127 153q106 74 316 74q179 0 247 -86q109 86 263 86q297 0 297 -215q0 -33 -1 -46.5t-9.5 -40.5
t-26.5 -59q-27 -50 -76 -84q-55 -36 -157 -63t-230 -31q-17 -73 -17 -174q0 -88 34.5 -124t109.5 -36q135 0 246 97l12 -6q0 -19 -6 -43q-10 -35 -33 -60q-55 -66 -163.5 -113t-231.5 -47q-227 0 -279 172zM590 215q-6 49 -6 66q0 82 20 196q-134 -15 -188 -49
q-70 -43 -70 -141q0 -135 113 -135q68 0 131 63zM944 532q107 11 167 82.5t71 153.5q10 52 10 92q0 45 -13 60.5t-44 15.5t-58 -21q-28 -22 -66.5 -123.5t-66.5 -259.5z" />
    <glyph glyph-name="ccedilla" unicode="&#xe7;" horiz-adv-x="901" 
d="M102 -412v9l9 6q25 -25 94 -25q46 0 77 26.5t31 78.5q0 42 -23.5 67t-60.5 25q-11 0 -39 -4l-8 6l94 200q-237 27 -237 279q0 176 61 344q66 175 152 266q140 152 385 152q111 0 190 -29q47 -21 47 -59q0 -56 -59 -221h-16q-37 131 -72 178t-86 47q-74 0 -121 -72
q-61 -92 -100 -250q-39 -157 -39 -317q0 -150 133 -150q65 0 135.5 27.5t118.5 69.5l6 -4q0 -33 -8 -52q-15 -37 -47 -69q-147 -144 -383 -144h-2l-39 -94q215 0 215 -166q0 -97 -77 -156t-191 -59q-101 0 -125 35q-15 18 -15 55z" />
    <glyph glyph-name="egrave" unicode="&#xe8;" horiz-adv-x="925" 
d="M780 244l6 -4q0 -23 -4 -43q-11 -34 -32 -60q-53 -66 -163.5 -115t-232.5 -49q-158 0 -236.5 65t-78.5 228q0 142 61 322q64 181 158 282q139 148 367 148q146 0 217 -48t71 -155q0 -59 -55 -143q-49 -82 -167 -140t-302 -59q-14 -80 -14 -176q1 -83 39 -117.5t110 -34.5
q64 0 137.5 29.5t118.5 69.5zM395 516q138 37 211.5 130t73.5 218q0 76 -68 76q-118 0 -217 -424zM532 1442l158 -309l-12 -11l-295 178q-86 50 -86 119q0 50 33.5 82.5t81.5 32.5q73 0 120 -92z" />
    <glyph glyph-name="eacute" unicode="&#xe9;" horiz-adv-x="925" 
d="M780 244l6 -4q0 -23 -4 -43q-11 -34 -32 -60q-53 -66 -163.5 -115t-232.5 -49q-158 0 -236.5 65t-78.5 228q0 142 61 322q64 181 158 282q139 148 367 148q146 0 217 -48t71 -155q0 -59 -55 -143q-49 -82 -167 -140t-302 -59q-14 -80 -14 -176q1 -83 39 -117.5t110 -34.5
q64 0 137.5 29.5t118.5 69.5zM395 516q138 37 211.5 130t73.5 218q0 76 -68 76q-118 0 -217 -424zM860 1286l-332 -164l-10 11l201 297q37 52 64 72t67 20q54 0 85.5 -30t31.5 -81q0 -73 -107 -125z" />
    <glyph glyph-name="ecircumflex" unicode="&#xea;" horiz-adv-x="925" 
d="M780 244l6 -4q0 -23 -4 -43q-11 -34 -32 -60q-53 -66 -163.5 -115t-232.5 -49q-158 0 -236.5 65t-78.5 228q0 142 61 322q64 181 158 282q139 148 367 148q146 0 217 -48t71 -155q0 -59 -55 -143q-49 -82 -167 -140t-302 -59q-14 -80 -14 -176q1 -83 39 -117.5t110 -34.5
q64 0 137.5 29.5t118.5 69.5zM395 516q138 37 211.5 130t73.5 218q0 76 -68 76q-118 0 -217 -424zM782 1421l140 -291l-13 -10l-254 166l-311 -166l-10 10l248 300q47 59 106 59q64 0 94 -68z" />
    <glyph glyph-name="edieresis" unicode="&#xeb;" horiz-adv-x="925" 
d="M780 244l6 -4q0 -23 -4 -43q-11 -34 -32 -60q-53 -66 -163.5 -115t-232.5 -49q-158 0 -236.5 65t-78.5 228q0 142 61 322q64 181 158 282q139 148 367 148q146 0 217 -48t71 -155q0 -59 -55 -143q-49 -82 -167 -140t-302 -59q-14 -80 -14 -176q1 -83 39 -117.5t110 -34.5
q64 0 137.5 29.5t118.5 69.5zM395 516q138 37 211.5 130t73.5 218q0 76 -68 76q-118 0 -217 -424zM604 1307q0 -69 -42.5 -115.5t-108.5 -46.5q-55 0 -90 34.5t-35 90.5q0 67 45 114.5t108 47.5q56 0 89.5 -34.5t33.5 -90.5zM985 1307q0 -69 -42.5 -115.5t-108.5 -46.5
q-55 0 -90 34.5t-35 90.5q0 67 45 114.5t108 47.5q56 0 89.5 -34.5t33.5 -90.5z" />
    <glyph glyph-name="igrave" unicode="&#xec;" horiz-adv-x="663" 
d="M311 1442l158 -309l-12 -11l-295 178q-86 50 -86 119q0 50 33 82.5t81 32.5q74 0 121 -92zM530 98l2 -12q-57 -34 -172 -72q-95 -32 -186 -32q-117 0 -117 104q0 39 37 193l78 348q31 143 31 215q0 50 -27 71q-31 24 -86 27v12q186 60 359 60q52 0 72 -18.5t20 -57.5
q0 -33 -35 -205l-76 -377q-33 -152 -33 -207q0 -53 66 -53q35 0 67 4z" />
    <glyph glyph-name="iacute" unicode="&#xed;" horiz-adv-x="663" 
d="M522 1286l-332 -164l-10 11l201 297q37 52 64 72t67 20q54 0 85.5 -30t31.5 -81q0 -73 -107 -125zM444 98l2 -12q-57 -34 -172 -72q-95 -32 -186 -32q-117 0 -117 104q0 39 37 193l78 348q31 143 31 215q0 50 -27 71q-31 24 -86 27v12q186 60 358 60q52 0 72.5 -18.5
t20.5 -57.5q0 -33 -35 -205l-76 -377q-33 -152 -33 -207q0 -53 66 -53q35 0 67 4z" />
    <glyph glyph-name="icircumflex" unicode="&#xee;" horiz-adv-x="663" 
d="M530 98l2 -12q-57 -34 -172 -72q-95 -32 -186 -32q-117 0 -117 104q0 39 37 193l78 348q31 143 31 215q0 50 -27 71q-31 24 -86 27v12q186 60 359 60q52 0 72 -18.5t20 -57.5q0 -33 -35 -205l-76 -377q-33 -152 -33 -207q0 -53 66 -53q35 0 67 4zM526 1421l140 -291
l-13 -10l-254 166l-311 -166l-10 10l248 300q47 59 106 59q64 0 94 -68z" />
    <glyph glyph-name="idieresis" unicode="&#xef;" horiz-adv-x="663" 
d="M354 1307q0 -69 -42.5 -115.5t-108.5 -46.5q-55 0 -90 34.5t-35 90.5q0 67 45 114.5t108 47.5q56 0 89.5 -34.5t33.5 -90.5zM735 1307q0 -69 -42.5 -115.5t-108.5 -46.5q-55 0 -90 34.5t-35 90.5q0 67 45 114.5t108 47.5q56 0 89.5 -34.5t33.5 -90.5zM530 98l2 -12
q-57 -34 -172 -72q-95 -32 -186 -32q-117 0 -117 104q0 39 37 193l78 348q31 143 31 215q0 50 -27 71q-31 24 -86 27v12q186 60 359 60q52 0 72 -18.5t20 -57.5q0 -33 -35 -205l-76 -377q-33 -152 -33 -207q0 -53 66 -53q35 0 67 4z" />
    <glyph glyph-name="eth" unicode="&#xf0;" horiz-adv-x="1075" 
d="M973 1427l59 -100l-160 -88q138 -205 138 -457q0 -446 -193 -657q-63 -69 -164 -110.5t-217 -41.5q-187 0 -289 106t-102 286q0 288 170 485q122 143 326 143q122 0 166 -59q-3 97 -27 199l-162 -91l-57 101l182 100q-59 146 -158 211l33 51q161 -50 281 -176zM688 797
q0 106 -92 106q-81 0 -121 -100q-48 -111 -88 -309q-41 -202 -41 -316q0 -125 94 -125q86 0 127 117q42 121 82 334q39 198 39 293z" />
    <glyph glyph-name="ntilde" unicode="&#xf1;" horiz-adv-x="1189" 
d="M446 483l-100 -483h-309l117 559q41 199 41 295q0 38 -19 57q-23 26 -90 29v12q168 60 350 60q50 0 69 -15t19 -53q0 -68 -51 -268q46 121 168 231q123 111 268 111q79 0 115.5 -29t36.5 -104q0 -98 -94 -529q-35 -152 -35 -204q0 -58 67 -58q52 0 66 2l2 -12
q-68 -43 -170 -72q-102 -30 -182 -30q-111 0 -111 96q0 38 33 194q100 463 100 498q0 30 -8.5 40.5t-32.5 10.5q-40 0 -88.5 -33.5t-83.5 -91.5q-52 -87 -78 -213zM981 1430l16 -9q-83 -250 -209 -250q-37 0 -137 41q-79 39 -125 39q-70 0 -131 -94l-16 6q33 85 47 115
q18 39 68 96q45 51 100 51q46 0 125 -43q77 -41 129 -41q43 0 69 18t64 71z" />
    <glyph glyph-name="ograve" unicode="&#xf2;" horiz-adv-x="1083" 
d="M1004 666q0 -150 -47 -296.5t-134 -242.5q-139 -154 -403 -154q-181 0 -280 102.5t-99 284.5q0 313 184 512q137 146 393 146q182 0 284 -91.5t102 -260.5zM696 827q0 109 -88 109q-78 0 -125 -105q-49 -112 -96 -327q-45 -205 -45 -326q0 -125 92 -125q97 0 137 119
q39 110 84 342q41 214 41 313zM592 1442l158 -309l-13 -11l-295 178q-86 50 -86 119q0 50 33.5 82.5t81.5 32.5q74 0 121 -92z" />
    <glyph glyph-name="oacute" unicode="&#xf3;" horiz-adv-x="1083" 
d="M1004 666q0 -150 -47 -296.5t-134 -242.5q-139 -154 -403 -154q-181 0 -280 102.5t-99 284.5q0 313 184 512q137 146 393 146q182 0 284 -91.5t102 -260.5zM696 827q0 109 -88 109q-78 0 -125 -105q-49 -112 -96 -327q-45 -205 -45 -326q0 -125 92 -125q97 0 137 119
q39 110 84 342q41 214 41 313zM838 1286l-332 -164l-10 11l200 297q37 52 64 72t67 20q54 0 85.5 -30t31.5 -81q0 -73 -106 -125z" />
    <glyph glyph-name="ocircumflex" unicode="&#xf4;" horiz-adv-x="1083" 
d="M1004 666q0 -150 -47 -296.5t-134 -242.5q-139 -154 -403 -154q-181 0 -280 102.5t-99 284.5q0 313 184 512q137 146 393 146q182 0 284 -91.5t102 -260.5zM696 827q0 109 -88 109q-78 0 -125 -105q-49 -112 -96 -327q-45 -205 -45 -326q0 -125 92 -125q97 0 137 119
q39 110 84 342q41 214 41 313zM788 1421l140 -291l-13 -10l-253 166l-312 -166l-10 10l248 300q47 59 106 59q64 0 94 -68z" />
    <glyph glyph-name="otilde" unicode="&#xf5;" horiz-adv-x="1083" 
d="M1004 666q0 -150 -47 -296.5t-134 -242.5q-139 -154 -403 -154q-181 0 -280 102.5t-99 284.5q0 313 184 512q137 146 393 146q182 0 284 -91.5t102 -260.5zM696 827q0 109 -88 109q-78 0 -125 -105q-49 -112 -96 -327q-45 -205 -45 -326q0 -125 92 -125q97 0 137 119
q39 110 84 342q41 214 41 313zM965 1430l16 -9q-83 -250 -209 -250q-37 0 -137 41q-79 39 -125 39q-70 0 -131 -94l-17 6q29 75 48 115q19 42 67 96q45 51 101 51q45 0 124 -43q77 -41 129 -41q43 0 69.5 18t64.5 71z" />
    <glyph glyph-name="odieresis" unicode="&#xf6;" horiz-adv-x="1083" 
d="M1004 666q0 -150 -47 -296.5t-134 -242.5q-139 -154 -403 -154q-181 0 -280 102.5t-99 284.5q0 313 184 512q137 146 393 146q182 0 284 -91.5t102 -260.5zM696 827q0 109 -88 109q-78 0 -125 -105q-49 -112 -96 -327q-45 -205 -45 -326q0 -125 92 -125q97 0 137 119
q39 110 84 342q41 214 41 313zM616 1307q0 -69 -42.5 -115.5t-108.5 -46.5q-55 0 -90 34.5t-35 90.5q0 67 45.5 114.5t108.5 47.5q56 0 89 -34.5t33 -90.5zM997 1307q0 -69 -42.5 -115.5t-108.5 -46.5q-55 0 -90 34.5t-35 90.5q0 67 45 114.5t108 47.5q56 0 89.5 -34.5
t33.5 -90.5z" />
    <glyph glyph-name="divide" unicode="&#xf7;" horiz-adv-x="1302" 
d="M827 877q0 -61 -39.5 -102.5t-101.5 -41.5q-50 0 -82.5 31.5t-32.5 81.5q0 63 42 105t102 42q53 0 82.5 -32t29.5 -84zM174 647h965l-33 -184h-967zM709 256q0 -61 -40 -102t-102 -41q-50 0 -82 31t-32 81q0 63 41.5 105.5t101.5 42.5q53 0 83 -32.5t30 -84.5z" />
    <glyph glyph-name="oslash" unicode="&#xf8;" horiz-adv-x="1083" 
d="M227 25l-82 -115l-59 41l82 115q-123 111 -123 299q0 308 184 507q137 146 398 146q115 0 196 -37l88 123l66 -41l-86 -119q125 -88 125 -274q0 -150 -45 -295q-46 -145 -135 -248q-61 -68 -167.5 -111t-222.5 -43q-128 0 -219 52zM586 178q70 208 108 494l-348 -484v-12
q0 -123 98 -123q99 0 142 125zM709 821v6q0 51 -24.5 80t-66.5 29q-84 0 -131 -102q-34 -70 -75 -226q-40 -154 -54 -276z" />
    <glyph glyph-name="ugrave" unicode="&#xf9;" horiz-adv-x="1181" 
d="M1081 94l2 -10q-159 -102 -333 -102q-119 0 -119 129q0 102 33 217q-66 -135 -183 -246q-115 -109 -245 -109q-162 0 -162 164q0 81 84 463q39 169 39 256q0 55 -47 70l-70 14v10q70 27 174 41q120 19 190 19q55 0 76 -16t21 -58q0 -26 -41 -207q-103 -438 -103 -500
q0 -43 41 -43q63 0 146 103q66 84 110 284l86 418h312l-111 -547q-43 -203 -43 -266q0 -88 78 -88q19 0 65 4zM588 1446l157 -309l-12 -11l-295 179q-86 50 -86 118q0 50 33.5 82.5t81.5 32.5q74 0 121 -92z" />
    <glyph glyph-name="uacute" unicode="&#xfa;" horiz-adv-x="1181" 
d="M1081 94l2 -10q-159 -102 -333 -102q-119 0 -119 129q0 102 33 217q-66 -135 -183 -246q-115 -109 -245 -109q-162 0 -162 164q0 81 84 463q39 169 39 256q0 55 -47 70l-70 14v10q70 27 174 41q120 19 190 19q55 0 76 -16t21 -58q0 -26 -41 -207q-103 -438 -103 -500
q0 -43 41 -43q63 0 146 103q66 84 110 284l86 418h312l-111 -547q-43 -203 -43 -266q0 -88 78 -88q19 0 65 4zM899 1286l-332 -164l-10 11l201 297q37 52 64 72t67 20q54 0 85.5 -30t31.5 -81q0 -73 -107 -125z" />
    <glyph glyph-name="ucircumflex" unicode="&#xfb;" horiz-adv-x="1181" 
d="M1081 94l2 -10q-159 -102 -333 -102q-119 0 -119 129q0 102 33 217q-66 -135 -183 -246q-115 -109 -245 -109q-162 0 -162 164q0 81 84 463q39 169 39 256q0 55 -47 70l-70 14v10q70 27 174 41q120 19 190 19q55 0 76 -16t21 -58q0 -26 -41 -207q-103 -438 -103 -500
q0 -43 41 -43q63 0 146 103q66 84 110 284l86 418h312l-111 -547q-43 -203 -43 -266q0 -88 78 -88q19 0 65 4zM829 1421l140 -291l-13 -10l-254 166l-311 -166l-10 10l248 300q47 59 106 59q64 0 94 -68z" />
    <glyph glyph-name="udieresis" unicode="&#xfc;" horiz-adv-x="1181" 
d="M1081 94l2 -10q-159 -102 -333 -102q-119 0 -119 129q0 102 33 217q-66 -135 -183 -246q-115 -109 -245 -109q-162 0 -162 164q0 81 84 463q39 169 39 256q0 55 -47 70l-70 14v10q70 27 174 41q120 19 190 19q55 0 76 -16t21 -58q0 -26 -41 -207q-103 -438 -103 -500
q0 -43 41 -43q63 0 146 103q66 84 110 284l86 418h312l-111 -547q-43 -203 -43 -266q0 -88 78 -88q19 0 65 4zM641 1307q0 -69 -42.5 -115.5t-109.5 -46.5q-55 0 -89.5 34.5t-34.5 90.5q0 67 45 114.5t108 47.5q56 0 89.5 -34.5t33.5 -90.5zM1022 1307q0 -69 -42.5 -115.5
t-109.5 -46.5q-55 0 -90 34.5t-35 90.5q0 67 45.5 114.5t108.5 47.5q56 0 89.5 -34.5t33.5 -90.5z" />
    <glyph glyph-name="yacute" unicode="&#xfd;" horiz-adv-x="1026" 
d="M-203 -236h21q6 -47 34 -78.5t56 -31.5q64 0 121 51q144 116 290 305h-151l-37 766q-6 101 -31 123q-24 21 -84 27v14q53 24 181 51q129 27 194 27q40 0 49 -45q6 -35 6 -133q9 -601 9 -680q101 167 227 379q115 207 115 325q0 40 -41 58q-33 13 -66 16l-2 14
q45 23 137 45q92 21 125 21q36 0 49 -8.5t13 -32.5q0 -70 -158 -340q-137 -231 -438 -645q-192 -264 -357 -416q-90 -84 -200 -84q-95 0 -95 76q0 93 33 196zM872 1286l-331 -164l-11 11l201 297q37 52 64 72t67 20q54 0 85.5 -30t31.5 -81q0 -73 -107 -125z" />
    <glyph glyph-name="thorn" unicode="&#xfe;" horiz-adv-x="1173" 
d="M438 -440l-2 -11h-598l2 11q79 28 105 67q24 35 39 117l247 1192q66 318 66 412q0 39 -10 59q-17 32 -101 41v10q201 53 389 53q37 0 51.5 -13t14.5 -48t-31 -190q-75 -360 -133 -580q63 146 187 244q122 94 237 94q109 0 152 -57t43 -203q0 -148 -64 -334
q-65 -188 -166 -295q-152 -158 -403 -158q-64 0 -121 13l-45 -222q-12 -58 -12 -92q0 -19 7.5 -32.5t43 -34.5t102.5 -43zM377 121q0 -30 20 -41q24 -17 70 -17q84 0 143 103q42 77 88 270q47 199 47 279q0 104 -65 104q-48 0 -108 -66t-99 -190q-23 -66 -41 -155l-31 -132
q-24 -147 -24 -155z" />
    <glyph glyph-name="ydieresis" unicode="&#xff;" horiz-adv-x="1026" 
d="M-201 -236h21q6 -47 34 -78.5t56 -31.5q64 0 121 51q146 118 291 305h-152l-37 766q-6 101 -31 123q-24 21 -84 27v14q53 24 181 51q129 27 194 27q40 0 49 -45q7 -40 7 -133q8 -535 8 -680q101 167 227 379q115 207 115 325q0 40 -41 58q-33 13 -66 16l-2 14
q45 23 137 45q92 21 125 21q36 0 49 -8.5t13 -32.5q0 -70 -158 -340q-137 -231 -438 -645q-192 -264 -357 -416q-90 -84 -200 -84q-94 0 -94 76q0 96 32 196zM580 1307q0 -69 -42.5 -115.5t-109.5 -46.5q-55 0 -90 34.5t-35 90.5q0 67 45.5 114.5t108.5 47.5
q56 0 89.5 -34.5t33.5 -90.5zM961 1307q0 -69 -42.5 -115.5t-109.5 -46.5q-55 0 -90 34.5t-35 90.5q0 67 45.5 114.5t108.5 47.5q56 0 89.5 -34.5t33.5 -90.5z" />
    <glyph glyph-name="Amacron" unicode="&#x100;" horiz-adv-x="1421" 
d="M303 14l-4 -14h-397l4 14q17 2 63 23q44 18 84 88l535 919l184 322h227q1 -17 45 -311l119 -840q15 -125 56 -160q27 -24 86 -41l-2 -14h-615l2 14q77 23 94 35q39 20 39 74q0 26 -10 104l-27 228h-411l-154 -279q-37 -67 -37 -94q0 -24 25 -37q16 -10 94 -31zM432 563
h342l-57 522q-36 -80 -285 -522zM1206 1649l-26 -158h-588l31 158h583z" />
    <glyph glyph-name="amacron" unicode="&#x101;" horiz-adv-x="1202" 
d="M1098 94l2 -10q-64 -43 -161.5 -72.5t-182.5 -29.5q-117 0 -117 114q0 82 31 240q-182 -363 -434 -363q-31 0 -54.5 3.5t-51.5 18t-46.5 40t-31.5 72t-13 110.5q0 171 86 375q89 207 213 307q75 63 164 91t225 28q102 0 234 -21q131 -21 172 -45q-68 -84 -156 -592
q-21 -117 -21 -200q0 -34 19 -52t47 -18q40 0 76 4zM772 885q0 24 -20 35q-13 8 -47 8q-73 0 -127 -60q-70 -79 -138 -286q-67 -204 -67 -322q0 -94 57 -94q49 0 107.5 59.5t101.5 145.5q25 55 59 170q38 119 64 254q10 68 10 90zM1038 1380l-37 -161h-536l37 161h536z" />
    <glyph glyph-name="Abreve" unicode="&#x102;" horiz-adv-x="1421" 
d="M303 14l-4 -14h-397l4 14q17 2 63 23q44 18 84 88l535 919l184 322h227q1 -17 45 -311l119 -840q15 -125 56 -160q27 -24 86 -41l-2 -14h-615l2 14q77 23 94 35q39 20 39 74q0 26 -10 104l-27 228h-411l-154 -279q-37 -67 -37 -94q0 -24 25 -37q16 -10 94 -31zM432 563
h342l-57 522q-36 -80 -285 -522zM1169 1757l17 -2q-7 -45 -18.5 -85.5t-36 -83.5t-58 -73.5t-86 -50.5t-117.5 -20q-231 0 -231 258q0 47 2 57h16q21 -143 238 -143q111 0 173.5 32.5t100.5 110.5z" />
    <glyph glyph-name="abreve" unicode="&#x103;" horiz-adv-x="1202" 
d="M1098 94l2 -10q-64 -43 -161.5 -72.5t-182.5 -29.5q-117 0 -117 114q0 82 31 240q-182 -363 -434 -363q-31 0 -54.5 3.5t-51.5 18t-46.5 40t-31.5 72t-13 110.5q0 171 86 375q89 207 213 307q75 63 164 91t225 28q102 0 234 -21q131 -21 172 -45q-68 -84 -156 -592
q-21 -117 -21 -200q0 -34 19 -52t47 -18q40 0 76 4zM772 885q0 24 -20 35q-13 8 -47 8q-73 0 -127 -60q-70 -79 -138 -286q-67 -204 -67 -322q0 -94 57 -94q49 0 107.5 59.5t101.5 145.5q25 55 59 170q38 119 64 254q10 68 10 90zM1028 1493l14 -2q-56 -330 -309 -330
q-235 0 -235 262q0 41 6 68l14 2q19 -84 71.5 -121t160.5 -37t170 37t108 121z" />
    <glyph glyph-name="Aogonek" unicode="&#x104;" horiz-adv-x="1421" 
d="M995 -369l6 -6l-2 -10q-3 -23 -18 -41q-42 -51 -150 -51q-103 0 -159 48t-56 128q0 105 77.5 175.5t228.5 125.5h-234l2 14q77 23 94 35q39 20 39 74q0 26 -10 104l-27 228h-411l-154 -279q-37 -67 -37 -94q0 -24 25 -37q16 -10 94 -31l-4 -14h-397l4 14q17 2 63 23
q44 18 84 88l535 919l184 322h227q1 -17 45 -311l119 -840q15 -125 56 -160q27 -24 86 -41l-2 -14h-338q-62 -58 -78 -76q-78 -96 -78 -194q0 -113 102 -113q59 0 84 14zM432 563h342l-57 522q-36 -80 -285 -522z" />
    <glyph glyph-name="aogonek" unicode="&#x105;" horiz-adv-x="1202" 
d="M883 -356l6 -6l-2 -11q-3 -22 -19 -45q-40 -49 -145 -49q-101 0 -155 46.5t-54 123.5q0 177 248 279h-6q-117 0 -117 114q0 82 31 240q-182 -363 -434 -363q-31 0 -54.5 3.5t-51.5 18t-46.5 40t-31.5 72t-13 110.5q0 171 86 375q89 207 213 307q75 63 164 91t225 28
q102 0 234 -21q131 -21 172 -45q-68 -84 -156 -592q-21 -117 -21 -200q0 -34 19 -52t47 -18q40 0 76 4l2 -10q-113 -74 -258 -94q-142 -139 -142 -252q0 -50 26 -79.5t73 -29.5q57 0 84 15zM772 885q0 24 -20 35q-13 8 -47 8q-73 0 -127 -60q-70 -79 -138 -286
q-67 -204 -67 -322q0 -94 57 -94q49 0 107.5 59.5t101.5 145.5q25 55 59 170q38 119 64 254q10 68 10 90z" />
    <glyph glyph-name="Cacute" unicode="&#x106;" horiz-adv-x="1300" 
d="M1167 305l15 -2q-35 -159 -60 -213q-24 -52 -82 -67q-158 -50 -358 -50q-292 0 -443 145.5t-151 411.5q0 271 109.5 473.5t316.5 305.5q174 86 434 86q187 0 297 -45q55 -21 55 -64q0 -67 -61 -256h-14q-30 146 -90 203q-61 55 -191 55q-168 0 -287 -119
q-98 -98 -143 -268q-45 -167 -45 -346q0 -218 82 -346.5t237 -128.5q128 0 232 72q70 48 147 153zM1126 1585l-356 -127l-8 12l246 273q70 76 133 76q49 0 79.5 -30t30.5 -83q0 -75 -125 -121z" />
    <glyph glyph-name="cacute" unicode="&#x107;" horiz-adv-x="901" 
d="M768 242l6 -4q0 -33 -8 -52q-15 -37 -47 -69q-147 -144 -383 -144q-143 0 -220 73.5t-77 209.5q0 176 61 344q66 175 152 266q140 152 385 152q111 0 190 -29q47 -21 47 -59q0 -56 -59 -221h-16q-37 131 -72 178t-86 47q-74 0 -121 -72q-61 -92 -100 -250
q-39 -157 -39 -317q0 -150 133 -150q65 0 135.5 27.5t118.5 69.5zM860 1286l-332 -164l-10 11l201 297q37 52 64 72t67 20q54 0 85.5 -30t31.5 -81q0 -73 -107 -125z" />
    <glyph glyph-name="Ccircumflex" unicode="&#x108;" horiz-adv-x="1300" 
d="M1167 305l15 -2q-35 -159 -60 -213q-24 -52 -82 -67q-158 -50 -358 -50q-292 0 -443 145.5t-151 411.5q0 271 109.5 473.5t316.5 305.5q174 86 434 86q187 0 297 -45q55 -21 55 -64q0 -67 -61 -256h-14q-30 146 -90 203q-61 55 -191 55q-168 0 -287 -119
q-98 -98 -143 -268q-45 -167 -45 -346q0 -218 82 -346.5t237 -128.5q128 0 232 72q70 48 147 153zM1059 1722l164 -256l-11 -10l-280 135l-340 -135l-8 12l278 263q46 43 99 43q64 0 98 -52z" />
    <glyph glyph-name="ccircumflex" unicode="&#x109;" horiz-adv-x="901" 
d="M768 242l6 -4q0 -33 -8 -52q-15 -37 -47 -69q-147 -144 -383 -144q-143 0 -220 73.5t-77 209.5q0 176 61 344q66 175 152 266q140 152 385 152q111 0 190 -29q47 -21 47 -59q0 -56 -59 -221h-16q-37 131 -72 178t-86 47q-74 0 -121 -72q-61 -92 -100 -250
q-39 -157 -39 -317q0 -150 133 -150q65 0 135.5 27.5t118.5 69.5zM774 1421l139 -291l-12 -10l-254 166l-311 -166l-10 10l247 300q47 59 107 59q64 0 94 -68z" />
    <glyph glyph-name="Cdotaccent" unicode="&#x10a;" horiz-adv-x="1300" 
d="M1167 305l15 -2q-35 -159 -60 -213q-24 -52 -82 -67q-158 -50 -358 -50q-292 0 -443 145.5t-151 411.5q0 271 109.5 473.5t316.5 305.5q174 86 434 86q187 0 297 -45q55 -21 55 -64q0 -67 -61 -256h-14q-30 146 -90 203q-61 55 -191 55q-168 0 -287 -119
q-98 -98 -143 -268q-45 -167 -45 -346q0 -218 82 -346.5t237 -128.5q128 0 232 72q70 48 147 153zM1057 1612q0 -68 -42.5 -115t-109.5 -47q-54 0 -88.5 35t-34.5 92q0 67 45.5 114.5t108.5 47.5q56 0 88.5 -35t32.5 -92z" />
    <glyph glyph-name="cdotaccent" unicode="&#x10b;" horiz-adv-x="901" 
d="M768 242l6 -4q0 -33 -8 -52q-15 -37 -47 -69q-147 -144 -383 -144q-143 0 -220 73.5t-77 209.5q0 176 61 344q66 175 152 266q140 152 385 152q111 0 190 -29q47 -21 47 -59q0 -56 -59 -221h-16q-37 131 -72 178t-86 47q-74 0 -121 -72q-61 -92 -100 -250
q-39 -157 -39 -317q0 -150 133 -150q65 0 135.5 27.5t118.5 69.5zM784 1307q0 -69 -42.5 -115.5t-110.5 -46.5q-55 0 -90 34.5t-35 90.5q0 69 45 115.5t111 46.5q56 0 89 -35t33 -90z" />
    <glyph glyph-name="Ccaron" unicode="&#x10c;" horiz-adv-x="1300" 
d="M1167 305l15 -2q-35 -159 -60 -213q-24 -52 -82 -67q-158 -50 -358 -50q-292 0 -443 145.5t-151 411.5q0 271 109.5 473.5t316.5 305.5q174 86 434 86q187 0 297 -45q55 -21 55 -64q0 -67 -61 -256h-14q-30 146 -90 203q-61 55 -191 55q-168 0 -287 -119
q-98 -98 -143 -268q-45 -167 -45 -346q0 -218 82 -346.5t237 -128.5q128 0 232 72q70 48 147 153zM748 1491l-164 256l10 10l280 -135l340 135l9 -12l-279 -262q-43 -43 -98 -43q-64 0 -98 51z" />
    <glyph glyph-name="ccaron" unicode="&#x10d;" horiz-adv-x="901" 
d="M768 242l6 -4q0 -33 -8 -52q-15 -37 -47 -69q-147 -144 -383 -144q-143 0 -220 73.5t-77 209.5q0 176 61 344q66 175 152 266q140 152 385 152q111 0 190 -29q47 -21 47 -59q0 -56 -59 -221h-16q-37 131 -72 178t-86 47q-74 0 -121 -72q-61 -92 -100 -250
q-39 -157 -39 -317q0 -150 133 -150q65 0 135.5 27.5t118.5 69.5zM528 1204l-139 291l12 10l254 -166l312 166l10 -10l-248 -299q-47 -59 -106 -59q-65 0 -95 67z" />
    <glyph glyph-name="Dcaron" unicode="&#x10e;" horiz-adv-x="1544" 
d="M705 0h-705l2 14q102 24 129 70q24 41 64 231l143 734q27 138 27 198q0 43 -23.5 65.5t-93.5 39.5l2 14h614q350 0 492 -121q160 -133 160 -381q0 -356 -189 -604q-95 -123 -255.5 -191.5t-366.5 -68.5zM682 1057l-152 -776q-16 -91 -16 -115q0 -29 25 -45
q30 -21 161 -21q120 0 211.5 66t141.5 184q94 222 94 520q0 161 -37 242q-64 150 -250 150h-22q-76 0 -105 -29q-21 -21 -51 -176zM731 1491l-164 256l11 10l280 -135l340 135l8 -12l-278 -262q-43 -43 -99 -43q-64 0 -98 51z" />
    <glyph glyph-name="dcaron" unicode="&#x10f;" horiz-adv-x="1220" 
d="M1112 94l2 -10q-159 -102 -342 -102q-121 0 -121 129q0 40 29 208q-80 -163 -194.5 -254.5t-227.5 -91.5q-47 0 -77.5 7.5t-61.5 29.5q-68 49 -68 207q0 172 84 375q84 198 207 303q150 123 367 123q73 0 98 -14l10 55q29 176 29 223q0 53 -21 68q-28 22 -94 28v15
q220 53 399 53q38 0 52 -13.5t14 -46.5q0 -13 -41 -227l-127 -610q-55 -265 -55 -387q0 -72 67 -72q40 0 72 4zM662 379q30 61 108 426q10 48 10 72q0 32 -20 41q-24 12 -47 12q-76 0 -127 -66q-66 -84 -133 -286q-68 -204 -68 -324q0 -88 53 -88q55 0 115 56t109 157z
M1188 958l-6 17q190 102 190 192q0 49 -39 82q-35 35 -35 82q0 55 33.5 86t91.5 31q67 0 106.5 -40t39.5 -108q0 -129 -113 -217q-109 -84 -268 -125z" />
    <glyph glyph-name="Dcroat" unicode="&#x110;" horiz-adv-x="1544" 
d="M705 0h-705l2 14q102 24 129 70q24 41 64 231l65 336h-186l26 135h187l51 263q27 138 27 198q0 43 -23.5 65.5t-93.5 39.5l2 14h614q350 0 492 -121q160 -133 160 -381q0 -356 -189 -604q-95 -123 -255.5 -191.5t-366.5 -68.5zM602 651l-72 -370q-16 -91 -16 -115
q0 -29 25 -45q30 -21 161 -21q120 0 211.5 66t141.5 184q94 222 94 520q0 161 -37 242q-64 150 -250 150h-22q-76 0 -105 -29q-21 -21 -51 -176l-53 -271h293l-27 -135h-293z" />
    <glyph glyph-name="dslash" unicode="&#x111;" horiz-adv-x="1220" 
d="M1100 94l2 -10q-159 -102 -342 -102q-121 0 -121 129q0 40 29 208q-80 -163 -194.5 -254.5t-227.5 -91.5q-89 0 -140 37q-67 48 -67 207q0 172 84 375q84 198 207 303q150 123 366 123q74 0 99 -14l10 55l12 76h-221l20 104h213q1 11 2 21t2 15.5t1 6.5q0 53 -21 68
q-28 22 -94 28v15q220 53 399 53q38 0 52 -13.5t14 -46.5q0 -9 -27 -147h121l-21 -104h-120l-121 -586q-55 -265 -55 -387q0 -72 67 -72q40 0 72 4zM649 379q32 64 109 426q10 48 10 72q0 32 -20 41q-24 12 -48 12q-76 0 -127 -66q-66 -84 -133 -286q-67 -201 -67 -324
q0 -88 53 -88q55 0 114.5 56t108.5 157z" />
    <glyph glyph-name="Emacron" unicode="&#x112;" horiz-adv-x="1212" 
d="M993 0h-993l2 14q71 17 109 47q40 29 61 142l180 919q15 76 15 129q0 46 -27 64q-22 19 -92 37l2 14h934q47 0 47 -33q0 -45 -66 -268h-14q-21 126 -59 164q-25 22 -129 22h-181q-37 0 -53 -19.5t-24 -66.5l-80 -395h123q142 0 192 12q42 10 67 37t58 96h16l-82 -407h-16
q-5 35 -10.5 56t-18 39t-27.5 26.5t-44.5 15t-64 8t-91.5 2.5h-121l-78 -399q-14 -63 -14 -100q0 -43 94 -43h187q122 0 184 45q53 35 135 166h14q-28 -172 -59 -279q-7 -26 -23 -35.5t-53 -9.5zM1106 1649l-27 -158h-587l30 158h584z" />
    <glyph glyph-name="emacron" unicode="&#x113;" horiz-adv-x="925" 
d="M780 244l6 -4q0 -23 -4 -43q-11 -34 -32 -60q-53 -66 -163.5 -115t-232.5 -49q-158 0 -236.5 65t-78.5 228q0 142 61 322q64 181 158 282q139 148 367 148q146 0 217 -48t71 -155q0 -59 -55 -143q-49 -82 -167 -140t-302 -59q-14 -80 -14 -176q1 -83 39 -117.5t110 -34.5
q64 0 137.5 29.5t118.5 69.5zM395 516q138 37 211.5 130t73.5 218q0 76 -68 76q-118 0 -217 -424zM948 1380l-37 -161h-536l37 161h536z" />
    <glyph glyph-name="Ebreve" unicode="&#x114;" horiz-adv-x="1212" 
d="M993 0h-993l2 14q71 17 109 47q40 29 61 142l180 919q15 76 15 129q0 46 -27 64q-22 19 -92 37l2 14h934q47 0 47 -33q0 -45 -66 -268h-14q-21 126 -59 164q-25 22 -129 22h-181q-37 0 -53 -19.5t-24 -66.5l-80 -395h123q142 0 192 12q42 10 67 37t58 96h16l-82 -407h-16
q-5 35 -10.5 56t-18 39t-27.5 26.5t-44.5 15t-64 8t-91.5 2.5h-121l-78 -399q-14 -63 -14 -100q0 -43 94 -43h187q122 0 184 45q53 35 135 166h14q-28 -172 -59 -279q-7 -26 -23 -35.5t-53 -9.5zM1081 1757l17 -2q-7 -45 -18.5 -85.5t-36 -83.5t-58 -73.5t-86 -50.5
t-117.5 -20q-231 0 -231 258q0 47 2 57h16q21 -143 238 -143q111 0 173.5 32.5t100.5 110.5z" />
    <glyph glyph-name="ebreve" unicode="&#x115;" horiz-adv-x="925" 
d="M780 244l6 -4q0 -23 -4 -43q-11 -34 -32 -60q-53 -66 -163.5 -115t-232.5 -49q-158 0 -236.5 65t-78.5 228q0 142 61 322q64 181 158 282q139 148 367 148q146 0 217 -48t71 -155q0 -59 -55 -143q-49 -82 -167 -140t-302 -59q-14 -80 -14 -176q1 -83 39 -117.5t110 -34.5
q64 0 137.5 29.5t118.5 69.5zM395 516q138 37 211.5 130t73.5 218q0 76 -68 76q-118 0 -217 -424zM922 1493l14 -2q-56 -330 -309 -330q-236 0 -236 262q0 41 6 68l15 2q19 -84 71 -121t160 -37t171 37t108 121z" />
    <glyph glyph-name="Edotaccent" unicode="&#x116;" horiz-adv-x="1212" 
d="M993 0h-993l2 14q71 17 109 47q40 29 61 142l180 919q15 76 15 129q0 46 -27 64q-22 19 -92 37l2 14h934q47 0 47 -33q0 -45 -66 -268h-14q-21 126 -59 164q-25 22 -129 22h-181q-37 0 -53 -19.5t-24 -66.5l-80 -395h123q142 0 192 12q42 10 67 37t58 96h16l-82 -407h-16
q-5 35 -10.5 56t-18 39t-27.5 26.5t-44.5 15t-64 8t-91.5 2.5h-121l-78 -399q-14 -63 -14 -100q0 -43 94 -43h187q122 0 184 45q53 35 135 166h14q-28 -172 -59 -279q-7 -26 -23 -35.5t-53 -9.5zM942 1612q0 -68 -42 -115t-109 -47q-54 0 -88.5 35t-34.5 92q0 67 45 114.5
t108 47.5q56 0 88.5 -35t32.5 -92z" />
    <glyph glyph-name="edotaccent" unicode="&#x117;" horiz-adv-x="925" 
d="M780 244l6 -4q0 -23 -4 -43q-11 -34 -32 -60q-53 -66 -163.5 -115t-232.5 -49q-158 0 -236.5 65t-78.5 228q0 142 61 322q64 181 158 282q139 148 367 148q146 0 217 -48t71 -155q0 -59 -55 -143q-49 -82 -167 -140t-302 -59q-14 -80 -14 -176q1 -83 39 -117.5t110 -34.5
q64 0 137.5 29.5t118.5 69.5zM395 516q138 37 211.5 130t73.5 218q0 76 -68 76q-118 0 -217 -424zM788 1307q0 -69 -42.5 -115.5t-110.5 -46.5q-55 0 -90 34.5t-35 90.5q0 69 45 115.5t111 46.5q56 0 89 -35t33 -90z" />
    <glyph glyph-name="Eogonek" unicode="&#x118;" horiz-adv-x="1212" 
d="M948 0h-948l2 14q71 17 109 47q40 29 61 142l180 919q15 76 15 129q0 46 -27 64q-22 19 -92 37l2 14h934q47 0 47 -33q0 -45 -66 -268h-14q-21 126 -59 164q-25 22 -129 22h-181q-37 0 -53 -19.5t-24 -66.5l-80 -395h123q142 0 192 12q42 10 67 37t58 96h16l-82 -407h-16
q-5 35 -10.5 56t-18 39t-27.5 26.5t-44.5 15t-64 8t-91.5 2.5h-121l-78 -399q-14 -63 -14 -100q0 -43 94 -43h187q122 0 184 45q53 35 135 166h14q-28 -172 -59 -279q-7 -26 -23 -35.5t-53 -9.5q-63 -63 -71 -72q-31 -37 -56.5 -89t-25.5 -101q0 -50 25.5 -79.5t72.5 -29.5
q57 0 84 15l6 -6l-2 -11q-3 -24 -18 -45q-40 -49 -146 -49q-101 0 -155 46.5t-54 123.5q0 192 295 297z" />
    <glyph glyph-name="eogonek" unicode="&#x119;" horiz-adv-x="925" 
d="M487 -356l7 -6l-2 -11q-3 -22 -19 -45q-40 -49 -145 -49q-101 0 -155 46.5t-54 123.5q0 169 229 270q-144 3 -227 62q-82 61 -82 231q0 142 61 322q64 181 158 282q139 148 367 148q146 0 217 -48t71 -155q0 -59 -55 -143q-49 -82 -167 -140t-302 -59q-14 -80 -14 -176
q1 -83 39 -117.5t110 -34.5q64 0 137.5 29.5t118.5 69.5l6 -4q0 -23 -4 -43q-11 -34 -32 -60q-44 -54 -130 -99t-184 -58q-131 -125 -131 -242q0 -50 25.5 -79.5t72.5 -29.5q57 0 84 15zM395 516q138 37 211.5 130t73.5 218q0 76 -68 76q-118 0 -217 -424z" />
    <glyph glyph-name="Ecaron" unicode="&#x11a;" horiz-adv-x="1212" 
d="M993 0h-993l2 14q71 17 109 47q40 29 61 142l180 919q15 76 15 129q0 46 -27 64q-22 19 -92 37l2 14h934q47 0 47 -33q0 -45 -66 -268h-14q-21 126 -59 164q-25 22 -129 22h-181q-37 0 -53 -19.5t-24 -66.5l-80 -395h123q142 0 192 12q42 10 67 37t58 96h16l-82 -407h-16
q-5 35 -10.5 56t-18 39t-27.5 26.5t-44.5 15t-64 8t-91.5 2.5h-121l-78 -399q-14 -63 -14 -100q0 -43 94 -43h187q122 0 184 45q53 35 135 166h14q-28 -172 -59 -279q-7 -26 -23 -35.5t-53 -9.5zM682 1491l-164 256l10 10l281 -135l340 135l8 -12l-278 -262q-43 -43 -99 -43
q-64 0 -98 51z" />
    <glyph glyph-name="ecaron" unicode="&#x11b;" horiz-adv-x="925" 
d="M780 244l6 -4q0 -23 -4 -43q-11 -34 -32 -60q-53 -66 -163.5 -115t-232.5 -49q-158 0 -236.5 65t-78.5 228q0 142 61 322q64 181 158 282q139 148 367 148q146 0 217 -48t71 -155q0 -59 -55 -143q-49 -82 -167 -140t-302 -59q-14 -80 -14 -176q1 -83 39 -117.5t110 -34.5
q64 0 137.5 29.5t118.5 69.5zM395 516q138 37 211.5 130t73.5 218q0 76 -68 76q-118 0 -217 -424zM522 1204l-139 291l12 10l254 -166l312 166l10 -10l-248 -299q-47 -59 -107 -59q-64 0 -94 67z" />
    <glyph glyph-name="Gcircumflex" unicode="&#x11c;" horiz-adv-x="1466" 
d="M1214 20l-96 -10l-186 -22q-144 -15 -258 -15q-295 0 -441 152q-145 151 -145 397q0 293 133 512q136 220 367 299q186 62 413 62q191 0 304 -39q38 -13 55.5 -29.5t17.5 -44.5q0 -71 -61 -254h-14q-14 102 -64 168q-71 92 -240 92q-159 0 -278 -82q-250 -173 -250 -686
q0 -202 77 -321t220 -119q56 0 84 22q30 27 45 99l29 147q16 94 16 139t-22 69t-86 42l2 12h575l-2 -12q-52 -21 -80 -49q-28 -25 -63 -193l-31 -155q-21 -89 -21 -181zM1083 1722l164 -256l-10 -10l-281 135l-340 -135l-8 12l279 263q46 43 98 43q64 0 98 -52z" />
    <glyph glyph-name="gcircumflex" unicode="&#x11d;" horiz-adv-x="1181" 
d="M27 -125h16q22 -123 85.5 -187.5t145.5 -64.5q87 0 158 68q27 27 68.5 119.5t72.5 201.5l43 150l56 190q-87 -173 -205 -267.5t-227 -94.5q-75 0 -136 35q-69 50 -69 204q0 166 86 367q86 200 209 299q80 65 168 92q91 31 243 31q114 0 228 -21q116 -21 157 -47
q-51 -60 -145 -542q-60 -310 -109 -461q-46 -142 -133 -232q-88 -91 -223 -131q-137 -41 -256 -41q-160 0 -237 41q-46 21 -46 64q0 69 50 227zM766 885q0 23 -21 35q-16 8 -47 8q-72 0 -125 -56q-65 -76 -135 -276q-69 -195 -69 -322q0 -54 13.5 -73t45.5 -19q47 0 115 68
q70 67 110 168q43 108 105 387q8 36 8 80zM874 1421l140 -291l-13 -10l-253 166l-312 -166l-10 10l248 300q47 59 106 59q64 0 94 -68z" />
    <glyph glyph-name="Gbreve" unicode="&#x11e;" horiz-adv-x="1466" 
d="M1214 20l-96 -10l-186 -22q-144 -15 -258 -15q-295 0 -441 152q-145 151 -145 397q0 293 133 512q136 220 367 299q186 62 413 62q191 0 304 -39q38 -13 55.5 -29.5t17.5 -44.5q0 -71 -61 -254h-14q-14 102 -64 168q-71 92 -240 92q-159 0 -278 -82q-250 -173 -250 -686
q0 -202 77 -321t220 -119q56 0 84 22q30 27 45 99l29 147q16 94 16 139t-22 69t-86 42l2 12h575l-2 -12q-52 -21 -80 -49q-28 -25 -63 -193l-31 -155q-21 -89 -21 -181zM1225 1757l16 -2q-7 -46 -18.5 -86t-35.5 -83t-57.5 -73.5t-86 -50.5t-117.5 -20q-232 0 -232 258
q0 47 2 57h17q21 -143 237 -143q111 0 174 32.5t101 110.5z" />
    <glyph glyph-name="gbreve" unicode="&#x11f;" horiz-adv-x="1181" 
d="M27 -125h16q22 -123 85.5 -187.5t145.5 -64.5q87 0 158 68q27 27 68.5 119.5t72.5 201.5l43 150l56 190q-87 -173 -205 -267.5t-227 -94.5q-75 0 -136 35q-69 50 -69 204q0 166 86 367q86 200 209 299q80 65 168 92q91 31 243 31q114 0 228 -21q116 -21 157 -47
q-51 -60 -145 -542q-60 -310 -109 -461q-46 -142 -133 -232q-88 -91 -223 -131q-137 -41 -256 -41q-160 0 -237 41q-46 21 -46 64q0 69 50 227zM766 885q0 23 -21 35q-16 8 -47 8q-72 0 -125 -56q-65 -76 -135 -276q-69 -195 -69 -322q0 -54 13.5 -73t45.5 -19q47 0 115 68
q70 67 110 168q43 108 105 387q8 36 8 80zM1001 1493l15 -2q-56 -330 -309 -330q-236 0 -236 262q0 41 6 68l15 2q19 -84 71 -121t160 -37t170 37t108 121z" />
    <glyph glyph-name="Gdotaccent" unicode="&#x120;" horiz-adv-x="1466" 
d="M1214 20l-96 -10l-186 -22q-144 -15 -258 -15q-295 0 -441 152q-145 151 -145 397q0 293 133 512q136 220 367 299q186 62 413 62q191 0 304 -39q38 -13 55.5 -29.5t17.5 -44.5q0 -71 -61 -254h-14q-14 102 -64 168q-71 92 -240 92q-159 0 -278 -82q-250 -173 -250 -686
q0 -202 77 -321t220 -119q56 0 84 22q30 27 45 99l29 147q16 94 16 139t-22 69t-86 42l2 12h575l-2 -12q-52 -21 -80 -49q-28 -25 -63 -193l-31 -155q-21 -89 -21 -181zM1042 1612q0 -68 -42 -115t-109 -47q-54 0 -88.5 35t-34.5 92q0 67 45.5 114.5t108.5 47.5q56 0 88 -35
t32 -92z" />
    <glyph glyph-name="gdotaccent" unicode="&#x121;" horiz-adv-x="1181" 
d="M27 -125h16q22 -123 85.5 -187.5t145.5 -64.5q87 0 158 68q27 27 68.5 119.5t72.5 201.5l43 150l56 190q-87 -173 -205 -267.5t-227 -94.5q-75 0 -136 35q-69 50 -69 204q0 166 86 367q86 200 209 299q80 65 168 92q91 31 243 31q114 0 228 -21q116 -21 157 -47
q-51 -60 -145 -542q-60 -310 -109 -461q-46 -142 -133 -232q-88 -91 -223 -131q-137 -41 -256 -41q-160 0 -237 41q-46 21 -46 64q0 69 50 227zM766 885q0 23 -21 35q-16 8 -47 8q-72 0 -125 -56q-65 -76 -135 -276q-69 -195 -69 -322q0 -54 13.5 -73t45.5 -19q47 0 115 68
q70 67 110 168q43 108 105 387q8 36 8 80zM885 1307q0 -69 -43 -115.5t-111 -46.5q-55 0 -90 34.5t-35 90.5q0 69 45 115.5t111 46.5q56 0 89.5 -35t33.5 -90z" />
    <glyph glyph-name="Gcommaaccent" unicode="&#x122;" horiz-adv-x="1466" 
d="M1214 20l-96 -10l-186 -22q-144 -15 -258 -15q-295 0 -441 152q-145 151 -145 397q0 293 133 512q136 220 367 299q186 62 413 62q191 0 304 -39q38 -13 55.5 -29.5t17.5 -44.5q0 -71 -61 -254h-14q-14 102 -64 168q-71 92 -240 92q-159 0 -278 -82q-250 -173 -250 -686
q0 -202 77 -321t220 -119q56 0 84 22q30 27 45 99l29 147q16 94 16 139t-22 69t-86 42l2 12h575l-2 -12q-52 -21 -80 -49q-28 -25 -63 -193l-31 -155q-21 -89 -21 -181zM414 -573l-6 16q190 102 190 192q0 45 -39 84q-35 35 -35 80q0 55 33.5 86t91.5 31q67 0 106.5 -39.5
t39.5 -107.5q0 -130 -113 -215q-107 -85 -268 -127z" />
    <glyph glyph-name="gcommaaccent" unicode="&#x123;" horiz-adv-x="1181" 
d="M981 1645l8 -21q-190 -102 -190 -190q0 -46 41 -84q34 -34 34 -80q0 -54 -34 -85.5t-90 -31.5q-67 0 -107.5 38.5t-40.5 106.5q0 132 111 220q112 90 268 127zM39 -125h16q22 -122 86 -187t146 -65q86 0 157 68q27 27 69.5 119.5t72.5 201.5l43 150l55 190
q-87 -173 -205 -267.5t-227 -94.5q-74 0 -135 35q-70 50 -70 204q0 166 86 367q86 200 209 299q80 65 168 92q91 31 244 31q113 0 227 -21q117 -22 158 -47q-52 -61 -146 -542q-62 -318 -108 -461q-46 -142 -133 -232q-88 -91 -224 -131q-137 -41 -256 -41q-160 0 -237 41
q-45 20 -45 64q0 73 49 227zM778 885q0 24 -20 35q-16 8 -47 8q-72 0 -125 -56q-64 -76 -135 -276q-70 -198 -70 -322q0 -54 13.5 -73t45.5 -19q47 0 115 68q71 68 111 168q41 103 104 387q8 36 8 80z" />
    <glyph glyph-name="Hcircumflex" unicode="&#x124;" horiz-adv-x="1595" 
d="M1395 14l-2 -14h-627l2 14q86 21 123 64q24 30 59 190l78 387h-424l-76 -389q-20 -109 -20 -160q0 -31 27.5 -51.5t93.5 -40.5l-2 -14h-627l4 14q76 18 119 64q31 39 61 190l162 819q21 105 21 164q0 42 -23.5 62.5t-95.5 38.5l2 14h622l-4 -14q-77 -22 -112 -54
q-20 -20 -32.5 -58.5t-31.5 -137.5l-65 -332h424l63 317q21 105 21 164q0 42 -23.5 62.5t-97.5 38.5l2 14h622l-4 -14q-83 -27 -110 -54q-37 -37 -66 -196l-162 -836q-20 -109 -20 -160q0 -31 26.5 -51.5t92.5 -40.5zM1135 1722l163 -256l-10 -10l-280 135l-340 -135l-9 12
l279 263q46 43 98 43q65 0 99 -52z" />
    <glyph glyph-name="hcircumflex" unicode="&#x125;" horiz-adv-x="1175" 
d="M432 483l-100 -483h-312l181 854q69 324 69 428q0 48 -18 66q-24 24 -96 30v15q239 53 399 53q36 0 49.5 -14.5t13.5 -51.5q0 -53 -32 -184l-123 -510q51 121 170 227q120 105 260 105q82 0 116.5 -28.5t34.5 -104.5q0 -99 -92 -529q-37 -157 -37 -206q0 -56 68 -56
q52 0 66 2l2 -12q-72 -43 -170 -72q-102 -30 -189 -30q-58 0 -81 25.5t-23 76.5q0 47 33 188q100 451 100 502q0 47 -47 47q-37 0 -83 -33.5t-81 -91.5q-52 -87 -78 -213zM651 1739l164 -256l-10 -10l-281 135l-340 -135l-8 12l279 262q46 43 98 43q64 0 98 -51z" />
    <glyph glyph-name="Hbar" unicode="&#x126;" horiz-adv-x="1595" 
d="M629 14l-2 -14h-627l4 14q76 18 119 64q31 39 61 190l133 672h-172l27 139h172l2 8q21 105 21 164q0 42 -23.5 62.5t-95.5 38.5l2 14h622l-4 -14q-77 -22 -112 -54q-20 -20 -32.5 -58.5t-31.5 -137.5l-4 -23h424l2 8q21 105 21 164q0 42 -23.5 62.5t-97.5 38.5l2 14h622
l-4 -14q-83 -27 -110 -54q-37 -37 -66 -196l-4 -23h174l-26 -139h-177l-129 -674q-20 -109 -20 -160q0 -31 26.5 -51.5t92.5 -40.5l-2 -14h-627l2 14q86 21 123 64q24 30 59 190l78 387h-424l-76 -389q-20 -109 -20 -160q0 -31 27.5 -51.5t93.5 -40.5zM1083 940h-424
l-32 -170h424z" />
    <glyph glyph-name="hbar" unicode="&#x127;" horiz-adv-x="1175" 
d="M432 483l-100 -483h-312l181 854q6 32 23.5 125.5t29.5 155.5h-129l22 104h121q2 10 2 43q0 48 -18 66q-24 24 -96 30v15q239 53 399 53q38 0 49 -14q10 -10 13 -27t-2 -58t-21 -108h213l-23 -104h-213l-108 -449q51 121 170 227q120 105 260 105q82 0 116.5 -28.5
t34.5 -104.5q0 -99 -92 -529q-37 -157 -37 -206q0 -56 68 -56q52 0 66 2l2 -12q-72 -43 -170 -72q-102 -30 -189 -30q-58 0 -81 25.5t-23 76.5q0 47 33 188q100 451 100 502q0 47 -47 47q-37 0 -83 -33.5t-81 -91.5q-52 -87 -78 -213z" />
    <glyph glyph-name="Itilde" unicode="&#x128;" horiz-adv-x="829" 
d="M629 14l-2 -14h-627l4 14q76 18 119 64q31 39 61 190l162 822q21 105 21 161q0 42 -23.5 62.5t-95.5 38.5l2 14h627l-5 -14q-89 -27 -116 -54q-20 -20 -32.5 -58t-31.5 -136l-164 -838q-20 -109 -20 -160q0 -31 27.5 -51.5t93.5 -40.5zM915 1741l17 -6
q-77 -250 -213 -250q-59 0 -144 39q-93 43 -141 43q-76 0 -137 -94l-16 6q34 81 47 110q20 44 73 97q51 51 113 51q41 0 148 -49q72 -35 114 -35q46 0 76 19.5t63 68.5z" />
    <glyph glyph-name="itilde" unicode="&#x129;" horiz-adv-x="663" 
d="M705 1430l16 -9q-83 -250 -209 -250q-37 0 -137 41q-79 39 -125 39q-70 0 -131 -94l-17 6q29 75 48 115q19 42 67 96q45 51 100 51q49 0 125 -43q77 -41 129 -41q43 0 69.5 18t64.5 71zM530 98l2 -12q-57 -34 -172 -72q-95 -32 -186 -32q-117 0 -117 104q0 39 37 193
l78 348q31 143 31 215q0 50 -27 71q-31 24 -86 27v12q186 60 359 60q52 0 72 -18.5t20 -57.5q0 -33 -35 -205l-76 -377q-33 -152 -33 -207q0 -53 66 -53q35 0 67 4z" />
    <glyph glyph-name="Imacron" unicode="&#x12a;" horiz-adv-x="829" 
d="M629 14l-2 -14h-627l4 14q76 18 119 64q31 39 61 190l162 822q21 105 21 161q0 42 -23.5 62.5t-95.5 38.5l2 14h627l-5 -14q-89 -27 -116 -54q-20 -20 -32.5 -58t-31.5 -136l-164 -838q-20 -109 -20 -160q0 -31 27.5 -51.5t93.5 -40.5zM909 1649l-26 -158h-588l31 158
h583z" />
    <glyph glyph-name="imacron" unicode="&#x12b;" horiz-adv-x="663" 
d="M696 1380l-37 -161h-536l37 161h536zM530 98l2 -12q-57 -34 -172 -72q-95 -32 -186 -32q-117 0 -117 104q0 39 37 193l78 348q31 143 31 215q0 50 -27 71q-31 24 -86 27v12q186 60 359 60q52 0 72 -18.5t20 -57.5q0 -33 -35 -205l-76 -377q-33 -152 -33 -207
q0 -53 66 -53q35 0 67 4z" />
    <glyph glyph-name="Ibreve" unicode="&#x12c;" horiz-adv-x="829" 
d="M629 14l-2 -14h-627l4 14q76 18 119 64q31 39 61 190l162 822q21 105 21 161q0 42 -23.5 62.5t-95.5 38.5l2 14h627l-5 -14q-89 -27 -116 -54q-20 -20 -32.5 -58t-31.5 -136l-164 -838q-20 -109 -20 -160q0 -31 27.5 -51.5t93.5 -40.5zM889 1757l16 -2q-7 -46 -18.5 -86
t-35.5 -83t-57.5 -73.5t-86 -50.5t-117.5 -20q-232 0 -232 258q0 47 2 57h17q21 -143 237 -143q111 0 174 32.5t101 110.5z" />
    <glyph glyph-name="ibreve" unicode="&#x12d;" horiz-adv-x="663" 
d="M690 1493l15 -2q-56 -330 -310 -330q-235 0 -235 262q0 41 6 68l14 2q19 -84 71.5 -121t160.5 -37t170 37t108 121zM530 98l2 -12q-57 -34 -172 -72q-95 -32 -186 -32q-117 0 -117 104q0 39 37 193l78 348q31 143 31 215q0 50 -27 71q-31 24 -86 27v12q186 60 359 60
q52 0 72 -18.5t20 -57.5q0 -33 -35 -205l-76 -377q-33 -152 -33 -207q0 -53 66 -53q35 0 67 4z" />
    <glyph glyph-name="Iogonek" unicode="&#x12e;" horiz-adv-x="829" 
d="M334 -369l6 -6l-2 -10q-3 -22 -19 -41q-42 -51 -149 -51q-103 0 -159 48t-56 128q0 105 77 176t228 125h-248l4 14q76 18 119 64q33 41 62 190l161 822q21 105 21 161q0 42 -23.5 62.5t-95.5 38.5l2 14h627l-4 -14q-91 -28 -117 -54q-20 -20 -32 -57.5t-31 -136.5
l-164 -838q-21 -114 -21 -160q0 -31 27.5 -51.5t93.5 -40.5l-2 -14h-336q-62 -58 -78 -76q-78 -96 -78 -194q0 -113 103 -113q59 0 84 14z" />
    <glyph glyph-name="iogonek" unicode="&#x12f;" horiz-adv-x="663" 
d="M293 -356l6 -6l-2 -11q-3 -24 -18 -45q-40 -49 -146 -49q-101 0 -155 46.5t-54 123.5q0 177 248 279q-115 0 -115 104q0 45 37 199l76 342q29 142 29 215q0 52 -25 71q-31 24 -86 27v12q186 60 363 60q52 0 72 -18.5t20 -57.5q0 -24 -37 -203l-76 -379q-33 -152 -33 -207
q0 -53 64 -53q57 0 69 2l2 -12q-123 -76 -282 -96q-139 -136 -139 -250q0 -50 25.5 -79.5t72.5 -29.5q57 0 84 15zM578 1319q0 -91 -46.5 -143t-128.5 -52q-64 0 -102.5 38.5t-38.5 103.5q0 78 47 130t129 52q65 0 102.5 -36t37.5 -93z" />
    <glyph glyph-name="Idot" unicode="&#x130;" horiz-adv-x="829" 
d="M629 14l-2 -14h-627l4 14q76 18 119 64q31 39 61 190l162 822q21 105 21 161q0 42 -23.5 62.5t-95.5 38.5l2 14h627l-5 -14q-89 -27 -116 -54q-20 -20 -32.5 -58t-31.5 -136l-164 -838q-20 -109 -20 -160q0 -31 27.5 -51.5t93.5 -40.5zM739 1612q0 -68 -42 -115t-109 -47
q-54 0 -88.5 35t-34.5 92q0 67 45 114.5t108 47.5q56 0 88.5 -35t32.5 -92z" />
    <glyph glyph-name="dotlessi" unicode="&#x131;" horiz-adv-x="663" 
d="M530 98l2 -12q-57 -34 -172 -72q-95 -32 -186 -32q-117 0 -117 104q0 39 37 193l78 348q31 143 31 215q0 50 -27 71q-31 24 -86 27v12q186 60 359 60q52 0 72 -18.5t20 -57.5q0 -33 -35 -205l-76 -377q-33 -152 -33 -207q0 -53 66 -53q35 0 67 4z" />
    <glyph glyph-name="IJ" unicode="&#x132;" horiz-adv-x="1667" 
d="M629 14l-2 -14h-627l4 14q76 18 119 64q31 39 61 190l162 822q21 105 21 161q0 42 -23.5 62.5t-95.5 38.5l2 14h627l-5 -14q-89 -27 -116 -54q-20 -20 -32.5 -58t-31.5 -136l-164 -838q-20 -109 -20 -160q0 -31 27.5 -51.5t93.5 -40.5zM686 -25h12q20 -94 58.5 -141
t87.5 -47q62 0 86 41q23 37 28 82q10 30 23 106q15 67 35 183l172 897q18 92 18 141q0 42 -27.5 66.5t-107.5 48.5l2 14h635l-2 -14q-92 -34 -109 -54q-36 -49 -63 -192q-4 -22 -34.5 -179.5t-53.5 -281.5l-74 -403q-27 -143 -60.5 -227t-94.5 -152q-156 -182 -390 -182
q-76 0 -135 16q-45 12 -45 57q0 30 12 107q13 68 27 114z" />
    <glyph glyph-name="ij" unicode="&#x133;" horiz-adv-x="1273" 
d="M530 96l2 -12q-54 -34 -170 -72q-105 -30 -188 -30q-117 0 -117 104q0 45 37 199l76 342q29 142 29 215q0 52 -25 71q-31 24 -86 27v12q186 60 363 60q52 0 72 -18.5t20 -57.5q0 -24 -37 -203l-76 -379q-33 -152 -33 -207q0 -53 64 -53q57 0 69 2zM578 1319
q0 -91 -46.5 -143t-128.5 -52q-64 0 -102.5 38.5t-38.5 103.5q0 78 47 130t129 52q65 0 102.5 -36t37.5 -93zM403 -205h17q16 -82 52.5 -128t74.5 -46q52 0 76 55q36 84 122 578l66 381q27 150 27 215q0 41 -23 61q-26 23 -90 29v12q195 62 381 62q41 0 57.5 -16t16.5 -50
q0 -55 -97 -575q-68 -357 -102 -484q-29 -108 -80 -174q-137 -174 -377 -174q-84 0 -127 29q-32 22 -32 57q0 72 38 168zM1219 1319q0 -91 -46.5 -143t-128.5 -52q-64 0 -102.5 38.5t-38.5 103.5q0 78 47 130t129 52q65 0 102.5 -36t37.5 -93z" />
    <glyph glyph-name="Jcircumflex" unicode="&#x134;" horiz-adv-x="823" 
d="M-152 -25h13q20 -94 58 -141t87 -47q62 0 86 41q24 39 29 82q8 24 22 106q15 67 35 183l172 897q19 97 19 141q0 42 -28 66.5t-108 48.5l3 14h634l-2 -14q-91 -33 -108 -54q-37 -51 -64 -192q-4 -22 -34.5 -179.5t-53.5 -281.5l-73 -403q-27 -143 -61 -227t-95 -152
q-156 -182 -389 -182q-76 0 -135 16q-45 12 -45 57q0 36 14 107q11 70 24 114zM725 1722l164 -256l-10 -10l-281 135l-340 -135l-8 12l278 263q46 43 99 43q64 0 98 -52z" />
    <glyph glyph-name="jcircumflex" unicode="&#x135;" horiz-adv-x="624" 
d="M-246 -205h17q16 -82 52.5 -128t74.5 -46q51 0 75 55q37 81 121 578l68 381q26 144 26 215q0 42 -22 61q-26 23 -90 29v12q195 62 381 62q41 0 57 -16t16 -50q0 -57 -34 -248l-119 -612q-32 -161 -60 -248q-23 -71 -65 -125q-137 -174 -377 -174q-83 0 -127 29
q-33 23 -33 57q0 70 39 168zM502 1401l139 -291l-12 -10l-254 166l-312 -166l-10 10l248 299q47 59 107 59q64 0 94 -67z" />
    <glyph glyph-name="Kcommaaccent" unicode="&#x136;" horiz-adv-x="1511" 
d="M629 14l-2 -14h-627l4 14q76 18 119 64q31 39 61 190l162 822q21 105 21 161q0 42 -23.5 62.5t-95.5 38.5l2 14h627l-5 -14q-89 -27 -116 -54q-20 -20 -32.5 -58t-31.5 -136l-82 -410q163 138 412 381q121 121 121 185q0 58 -113 92l2 14h539l-2 -14q-54 -19 -111 -52
q-43 -24 -84 -59q-9 -7 -104 -94l-326 -303q241 -553 354 -729q33 -53 148 -88l-4 -15q-114 -20 -385 -20q-65 0 -94.5 19t-53.5 71q-51 112 -133 313q-89 228 -98 244q-66 -55 -94 -74l-56 -299q-20 -109 -20 -160q0 -31 27.5 -51.5t93.5 -40.5zM471 -573l-6 16
q190 102 190 192q0 45 -39 84q-34 34 -34 80q0 55 33.5 86t91.5 31q67 0 106 -39t39 -108q0 -130 -113 -215q-107 -85 -268 -127z" />
    <glyph glyph-name="kcommaaccent" unicode="&#x137;" horiz-adv-x="1144" 
d="M426 428l-92 -428h-311l186 870q65 310 65 412q0 46 -20 66q-24 24 -94 30v15q239 53 399 53q36 0 49 -15.5t13 -54.5q0 -51 -29 -180q-90 -399 -119 -500q46 113 160 215q117 105 246 105q198 0 198 -182q0 -93 -80 -177t-225 -141q111 -249 137 -295l54 -88
q38 -47 88 -47q23 0 43 4l4 -10q-44 -38 -135 -72q-90 -35 -185 -35q-108 0 -149 86q-32 70 -49 119q-13 35 -45.5 130t-45.5 126zM229 -573l-6 16q191 102 191 192q0 45 -39 84q-35 35 -35 80q0 55 33.5 86t91.5 31q67 0 106 -39t39 -108q0 -131 -112 -215
q-106 -85 -269 -127zM446 539l-14 -66q202 21 285 107q82 82 82 186q0 37 -22.5 59.5t-57.5 22.5q-89 0 -168 -98q-81 -96 -105 -211z" />
    <glyph glyph-name="kgreenlandic" unicode="&#x138;" horiz-adv-x="1144" 
d="M381 225l-49 -225h-312l95 432q69 319 69 414q0 47 -18 65q-25 25 -94 31v14q244 54 393 54q35 0 49 -17q12 -15 12 -53q0 -49 -32 -174q-29 -120 -76 -295q82 169 264 360q181 187 307 187q78 0 78 -76q0 -80 -49 -199h-17q-27 66 -49 90.5t-57 24.5q-94 0 -207 -113
q145 -389 191 -477q61 -113 100 -149q31 -31 74 -31q5 0 22 1t19 1l4 -10q-38 -33 -146 -70q-104 -37 -192 -37q-69 7 -97 34.5t-57 101.5q-62 134 -129 358q-62 -77 -96 -242z" />
    <glyph glyph-name="Lacute" unicode="&#x139;" horiz-adv-x="1191" 
d="M989 0h-989l2 14q73 18 109 49q37 27 59 140l170 860q27 138 27 182q0 45 -23.5 67t-95.5 40l2 14h627l-3 -14q-90 -26 -116 -56q-23 -24 -36 -65t-34 -148l-160 -823q-14 -63 -14 -102q0 -45 86 -45h182q131 0 187 39q62 42 145 172h14q-31 -179 -59 -279
q-12 -45 -80 -45zM805 1585l-356 -127l-9 12l246 273q70 76 133 76q49 0 80 -30t31 -83q0 -75 -125 -121z" />
    <glyph glyph-name="lacute" unicode="&#x13a;" horiz-adv-x="647" 
d="M506 96l2 -12q-54 -34 -170 -72q-102 -30 -186 -30q-63 0 -85 24.5t-22 77.5q0 52 33 201l121 565q71 340 71 426q0 54 -20 74q-25 25 -94 28v15q227 53 389 53q43 0 58 -15t15 -53q0 -46 -38 -211l-174 -807q-33 -152 -33 -213q0 -53 63 -53q58 0 70 2zM717 1683
l-357 -127l-8 13l246 272q70 76 133 76q49 0 80 -30t31 -83q0 -75 -125 -121z" />
    <glyph glyph-name="Lcommaaccent" unicode="&#x13b;" horiz-adv-x="1191" 
d="M989 0h-989l2 14q73 18 109 49q37 27 59 140l170 860q27 138 27 182q0 45 -23.5 67t-95.5 40l2 14h627l-3 -14q-90 -26 -116 -56q-23 -24 -36 -65t-34 -148l-160 -823q-14 -63 -14 -102q0 -45 86 -45h182q131 0 187 39q62 42 145 172h14q-31 -179 -59 -279
q-12 -45 -80 -45zM274 -573l-6 16q191 102 191 192q0 45 -39 84q-35 35 -35 80q0 55 33.5 86t91.5 31q66 0 105.5 -39t39.5 -108q0 -131 -112 -215q-106 -85 -269 -127z" />
    <glyph glyph-name="lcommaaccent" unicode="&#x13c;" horiz-adv-x="647" 
d="M506 96l2 -12q-54 -34 -170 -72q-102 -30 -186 -30q-63 0 -85 24.5t-22 77.5q0 52 33 201l121 565q71 340 71 426q0 54 -20 74q-25 25 -94 28v15q227 53 389 53q43 0 58 -15t15 -53q0 -46 -38 -211l-174 -807q-33 -152 -33 -213q0 -53 63 -53q58 0 70 2zM-25 -573l-6 16
q191 102 191 192q0 45 -39 84q-35 35 -35 80q0 55 33.5 86t91.5 31q67 0 106 -39t39 -108q0 -131 -112 -215q-106 -85 -269 -127z" />
    <glyph glyph-name="Lcaron" unicode="&#x13d;" horiz-adv-x="1191" 
d="M989 0h-989l2 14q73 18 109 49q37 27 59 140l170 860q27 138 27 182q0 45 -23.5 67t-95.5 40l2 14h627l-3 -14q-90 -26 -116 -56q-23 -24 -36 -65t-34 -148l-160 -823q-14 -63 -14 -102q0 -45 86 -45h182q131 0 187 39q62 42 145 172h14q-31 -179 -59 -279
q-12 -45 -80 -45zM883 913l-6 17q190 102 190 192q0 49 -39 82q-35 35 -35 82q0 55 33.5 86t91.5 31q66 0 106 -39.5t40 -108.5q0 -129 -113 -217q-109 -84 -268 -125z" />
    <glyph glyph-name="lcaron" unicode="&#x13e;" horiz-adv-x="647" 
d="M506 96l2 -12q-54 -34 -170 -72q-102 -30 -186 -30q-63 0 -85 24.5t-22 77.5q0 52 33 201l121 565q71 340 71 426q0 54 -20 74q-25 25 -94 28v15q227 53 389 53q43 0 58 -15t15 -53q0 -46 -38 -211l-174 -807q-33 -152 -33 -213q0 -53 63 -53q58 0 70 2zM616 961l-6 16
q191 102 191 192q0 49 -39 82q-35 35 -35 82q0 55 33.5 86t91.5 31q66 0 105.5 -39t39.5 -108q0 -131 -112 -218q-106 -82 -269 -124z" />
    <glyph glyph-name="Ldot" unicode="&#x13f;" horiz-adv-x="1191" 
d="M1214 672q0 -80 -50 -132.5t-134 -52.5q-72 0 -119 47.5t-47 120.5q0 83 52 139t135 56q78 0 120.5 -48.5t42.5 -129.5zM989 0h-989l2 14q73 18 109 49q37 27 59 140l170 860q27 138 27 182q0 45 -23.5 67t-95.5 40l2 14h627l-3 -14q-90 -26 -116 -56q-23 -24 -36 -65
t-34 -148l-160 -823q-14 -63 -14 -102q0 -45 86 -45h182q131 0 187 39q62 42 145 172h14q-31 -179 -59 -279q-12 -45 -80 -45z" />
    <glyph glyph-name="ldot" unicode="&#x140;" horiz-adv-x="890" 
d="M948 672q0 -78 -47 -129t-129 -51q-65 0 -114.5 47t-49.5 114q0 88 47 141.5t131 53.5q78 0 120 -46.5t42 -129.5zM506 96l2 -12q-54 -34 -170 -72q-102 -30 -186 -30q-63 0 -85 24.5t-22 77.5q0 52 33 201l121 565q71 340 71 426q0 54 -20 74q-25 25 -94 28v15
q227 53 389 53q43 0 58 -15t15 -53q0 -46 -38 -211l-174 -807q-33 -152 -33 -213q0 -53 63 -53q58 0 70 2z" />
    <glyph glyph-name="Lslash" unicode="&#x141;" horiz-adv-x="1191" 
d="M233 526l-135 -71l-65 112l233 123l74 373q27 138 27 182q0 45 -23.5 67t-95.5 40l2 14h627l-3 -14q-90 -26 -116 -56q-23 -24 -36 -65t-34 -148l-37 -188l176 94l60 -110l-266 -144l-93 -475q-14 -63 -14 -102q0 -45 86 -45h182q131 0 187 39q62 42 145 172h14
q-31 -179 -59 -279q-12 -45 -80 -45h-989l2 14q73 18 109 49q37 27 59 140z" />
    <glyph glyph-name="lslash" unicode="&#x142;" horiz-adv-x="647" 
d="M133 539l-67 -35l-50 98l148 76l37 172q71 340 71 426q0 54 -20 74q-25 25 -94 28v15q230 53 389 53q43 0 58.5 -15t15.5 -53q0 -42 -39 -211l-66 -307l111 58l49 -101l-191 -98l-77 -359q-33 -152 -33 -213q0 -53 63 -53q58 0 70 2l2 -12q-54 -34 -170 -72
q-102 -30 -186 -30q-63 0 -85 24.5t-22 77.5q0 52 33 201z" />
    <glyph glyph-name="Nacute" unicode="&#x143;" horiz-adv-x="1542" 
d="M436 14l-4 -14h-432l4 14q83 18 119 60q34 34 61 180q53 259 150 788q28 159 28 193q0 56 -26 76q-33 29 -92 41l2 14h454q45 0 60 -35q255 -545 397 -870q61 317 117 663q8 57 8 109q0 51 -27.5 76.5t-99.5 42.5l2 14h424l-2 -14q-55 -15 -106 -54q-52 -42 -78 -186
l-215 -1126h-189l-518 1194q-43 -244 -158 -916q-16 -112 -16 -141q0 -37 26 -57t111 -52zM1188 1608l-357 -127l-8 12l246 272q70 76 133 76q49 0 80 -29.5t31 -82.5q0 -75 -125 -121z" />
    <glyph glyph-name="nacute" unicode="&#x144;" horiz-adv-x="1189" 
d="M446 483l-100 -483h-309l117 559q41 199 41 295q0 38 -19 57q-23 26 -90 29v12q168 60 350 60q50 0 69 -15t19 -53q0 -68 -51 -268q46 121 168 231q123 111 268 111q79 0 115.5 -29t36.5 -104q0 -98 -94 -529q-35 -152 -35 -204q0 -58 67 -58q52 0 66 2l2 -12
q-68 -43 -170 -72q-102 -30 -182 -30q-111 0 -111 96q0 38 33 194q100 463 100 498q0 30 -8.5 40.5t-32.5 10.5q-40 0 -88.5 -33.5t-83.5 -91.5q-52 -87 -78 -213zM893 1286l-332 -164l-10 11l201 297q37 52 64 72t67 20q54 0 85 -30t31 -81q0 -73 -106 -125z" />
    <glyph glyph-name="Ncommaaccent" unicode="&#x145;" horiz-adv-x="1542" 
d="M436 14l-4 -14h-432l4 14q83 18 119 60q34 34 61 180q53 259 150 788q28 159 28 193q0 56 -26 76q-33 29 -92 41l2 14h454q45 0 60 -35q255 -545 397 -870q61 317 117 663q8 57 8 109q0 51 -27.5 76.5t-99.5 42.5l2 14h424l-2 -14q-55 -15 -106 -54q-52 -42 -78 -186
l-215 -1126h-189l-518 1194q-43 -244 -158 -916q-16 -112 -16 -141q0 -37 26 -57t111 -52zM412 -573l-6 16q190 102 190 192q0 45 -39 84q-35 35 -35 80q0 55 33.5 86t91.5 31q67 0 106.5 -39.5t39.5 -107.5q0 -130 -113 -215q-107 -85 -268 -127z" />
    <glyph glyph-name="ncommaaccent" unicode="&#x146;" horiz-adv-x="1189" 
d="M446 483l-100 -483h-309l117 559q41 199 41 295q0 38 -19 57q-23 26 -90 29v12q168 60 350 60q50 0 69 -15t19 -53q0 -68 -51 -268q46 121 168 231q123 111 268 111q79 0 115.5 -29t36.5 -104q0 -98 -94 -529q-35 -152 -35 -204q0 -58 67 -58q52 0 66 2l2 -12
q-68 -43 -170 -72q-102 -30 -182 -30q-111 0 -111 96q0 38 33 194q100 463 100 498q0 30 -8.5 40.5t-32.5 10.5q-40 0 -88.5 -33.5t-83.5 -91.5q-52 -87 -78 -213zM219 -573l-6 16q190 102 190 192q0 46 -38 84q-35 35 -35 80q0 55 33.5 86t91.5 31q67 0 106 -39t39 -108
q0 -130 -113 -215q-107 -85 -268 -127z" />
    <glyph glyph-name="Ncaron" unicode="&#x147;" horiz-adv-x="1542" 
d="M436 14l-4 -14h-432l4 14q83 18 119 60q34 34 61 180q53 259 150 788q28 159 28 193q0 56 -26 76q-33 29 -92 41l2 14h454q45 0 60 -35q255 -545 397 -870q61 317 117 663q8 57 8 109q0 51 -27.5 76.5t-99.5 42.5l2 14h424l-2 -14q-55 -15 -106 -54q-52 -42 -78 -186
l-215 -1126h-189l-518 1194q-43 -244 -158 -916q-16 -112 -16 -141q0 -37 26 -57t111 -52zM842 1491l-164 256l10 10l281 -135l340 135l8 -12l-279 -262q-43 -43 -98 -43q-64 0 -98 51z" />
    <glyph glyph-name="ncaron" unicode="&#x148;" horiz-adv-x="1189" 
d="M449 483l-101 -483h-309l117 559q41 199 41 295q0 38 -19 57q-26 26 -90 29v12q168 60 350 60q50 0 69 -15t19 -53q0 -68 -51 -268q46 121 168 231q123 111 268 111q79 0 115.5 -29t36.5 -104q0 -98 -94 -529q-35 -152 -35 -204q0 -58 67 -58q52 0 66 2l2 -12
q-68 -43 -170 -72q-102 -30 -182 -30q-111 0 -111 96q0 38 33 194q100 463 100 498q0 30 -8.5 40.5t-32.5 10.5q-40 0 -88.5 -33.5t-83.5 -91.5q-51 -85 -77 -213zM520 1204l-139 291l12 10l254 -166l311 166l11 -10l-248 -299q-47 -59 -107 -59q-64 0 -94 67z" />
    <glyph glyph-name="napostrophe" unicode="&#x149;" horiz-adv-x="1189" 
d="M446 483l-100 -483h-309l117 559q41 199 41 295q0 38 -19 57q-23 26 -90 29v12q168 60 350 60q50 0 69 -15t19 -53q0 -68 -51 -268q46 121 168 231q123 111 268 111q79 0 115.5 -29t36.5 -104q0 -98 -94 -529q-35 -152 -35 -204q0 -58 67 -58q52 0 66 2l2 -12
q-68 -43 -170 -72q-102 -30 -182 -30q-111 0 -111 96q0 38 33 194q100 463 100 498q0 30 -8.5 40.5t-32.5 10.5q-40 0 -88.5 -33.5t-83.5 -91.5q-52 -87 -78 -213zM119 1061l-6 16q190 102 190 193q0 45 -39 84q-35 35 -35 80q0 55 33.5 85.5t91.5 30.5q67 0 106.5 -39.5
t39.5 -107.5q0 -129 -113 -217q-109 -84 -268 -125z" />
    <glyph glyph-name="Eng" unicode="&#x14a;" horiz-adv-x="1542" 
d="M436 14l-4 -14h-432l4 14q83 18 119 60q34 34 61 180q53 259 150 788q28 159 28 193q0 56 -26 76q-38 30 -92 41l2 14h454q45 0 60 -35l399 -862l113 653q8 63 8 111q0 51 -27.5 76.5t-99.5 42.5l2 14h426l-2 -14q-55 -15 -106 -54q-52 -42 -78 -186l-201 -1051
q-14 -81 -35 -172q-33 -147 -88 -221q-99 -141 -293 -141q-53 0 -96 16q-35 15 -35 58q0 85 37 209h16q30 -175 131 -175q61 0 101 46q60 66 80 231l4 33l-543 1233q-81 -451 -158 -914q-16 -112 -16 -141q0 -37 26 -57t111 -52z" />
    <glyph glyph-name="eng" unicode="&#x14b;" horiz-adv-x="1189" 
d="M446 471l-100 -471h-309l115 545q43 203 43 311q0 26 -13 49q-21 35 -96 35v12q168 60 338 60q50 0 71 -16t21 -54q0 -97 -43 -262q58 128 172 233t252 105q78 0 112.5 -29.5t34.5 -105.5q0 -68 -40 -299q-35 -201 -95 -459q-76 -333 -180 -461q-143 -174 -403 -174
q-64 0 -93 16q-36 20 -36 56q0 56 41 174h18q5 -75 32 -120.5t68 -45.5q48 0 86 47q55 77 125 397q154 699 154 758q0 49 -33 49q-39 0 -88 -37t-84 -100q-39 -68 -70 -213z" />
    <glyph glyph-name="Omacron" unicode="&#x14c;" horiz-adv-x="1447" 
d="M1419 924q0 -204 -80 -426q-79 -219 -231 -359q-90 -80 -219 -123t-262 -43q-258 0 -398.5 138.5t-140.5 386.5q0 192 74 399q76 204 227 334q88 77 224.5 120.5t275.5 43.5q530 0 530 -471zM1044 1010q0 153 -40.5 216.5t-133.5 63.5q-123 0 -211 -131
q-82 -123 -141 -344q-57 -212 -57 -420q0 -166 43 -240.5t137 -74.5q133 0 207 123q88 144 141 393q55 247 55 414zM1219 1649l-27 -158h-588l31 158h584z" />
    <glyph glyph-name="omacron" unicode="&#x14d;" horiz-adv-x="1083" 
d="M1004 666q0 -150 -47 -296.5t-134 -242.5q-139 -154 -403 -154q-181 0 -280 102.5t-99 284.5q0 313 184 512q137 146 393 146q182 0 284 -91.5t102 -260.5zM696 827q0 109 -88 109q-78 0 -125 -105q-49 -112 -96 -327q-45 -205 -45 -326q0 -125 92 -125q97 0 137 119
q39 110 84 342q41 214 41 313zM963 1380l-37 -161h-537l37 161h537z" />
    <glyph glyph-name="Obreve" unicode="&#x14e;" horiz-adv-x="1447" 
d="M1419 924q0 -204 -80 -426q-79 -219 -231 -359q-90 -80 -219 -123t-262 -43q-258 0 -398.5 138.5t-140.5 386.5q0 192 74 399q76 204 227 334q88 77 224.5 120.5t275.5 43.5q530 0 530 -471zM1044 1010q0 153 -40.5 216.5t-133.5 63.5q-123 0 -211 -131
q-82 -123 -141 -344q-57 -212 -57 -420q0 -166 43 -240.5t137 -74.5q133 0 207 123q88 144 141 393q55 247 55 414zM1198 1757l16 -2q-7 -46 -18.5 -86t-35.5 -83t-57.5 -73.5t-86 -50.5t-117.5 -20q-231 0 -231 258q0 47 2 57h16q21 -143 238 -143q110 0 173 32.5
t101 110.5z" />
    <glyph glyph-name="obreve" unicode="&#x14f;" horiz-adv-x="1083" 
d="M1004 666q0 -150 -47 -296.5t-134 -242.5q-139 -154 -403 -154q-181 0 -280 102.5t-99 284.5q0 313 184 512q137 146 393 146q182 0 284 -91.5t102 -260.5zM696 827q0 109 -88 109q-78 0 -125 -105q-49 -112 -96 -327q-45 -205 -45 -326q0 -125 92 -125q97 0 137 119
q39 110 84 342q41 214 41 313zM946 1493l15 -2q-56 -330 -310 -330q-235 0 -235 262q0 41 6 68l14 2q19 -84 71.5 -121t160.5 -37t170 37t108 121z" />
    <glyph glyph-name="Ohungarumlaut" unicode="&#x150;" horiz-adv-x="1447" 
d="M1419 924q0 -204 -80 -426q-79 -219 -231 -359q-90 -80 -219 -123t-262 -43q-258 0 -398.5 138.5t-140.5 386.5q0 192 74 399q76 204 227 334q88 77 224.5 120.5t275.5 43.5q530 0 530 -471zM1044 1010q0 153 -40.5 216.5t-133.5 63.5q-123 0 -211 -131
q-82 -123 -141 -344q-57 -212 -57 -420q0 -166 43 -240.5t137 -74.5q133 0 207 123q88 144 141 393q55 247 55 414zM944 1606l-354 -148l-8 12l243 271q76 82 136 82q44 0 73 -25t29 -67q0 -73 -119 -125zM1335 1606l-354 -148l-8 12l244 271q70 82 135 82q44 0 74 -25
t30 -67q0 -72 -121 -125z" />
    <glyph glyph-name="ohungarumlaut" unicode="&#x151;" horiz-adv-x="1083" 
d="M1004 666q0 -150 -47 -296.5t-134 -242.5q-139 -154 -403 -154q-181 0 -280 102.5t-99 284.5q0 313 184 512q137 146 393 146q182 0 284 -91.5t102 -260.5zM696 827q0 109 -88 109q-78 0 -125 -105q-49 -112 -96 -327q-45 -205 -45 -326q0 -125 92 -125q97 0 137 119
q39 110 84 342q41 214 41 313zM698 1323l-311 -182l-10 12l201 299q37 52 62.5 71t64.5 19q44 0 72 -24.5t28 -67.5q0 -66 -107 -127zM1055 1323l-316 -182l-10 12l203 299q37 52 62.5 71t64.5 19q44 0 72 -24.5t28 -67.5q0 -66 -104 -127z" />
    <glyph glyph-name="OE" unicode="&#x152;" horiz-adv-x="1941" 
d="M1843 332h15l-62 -293q-7 -25 -21.5 -32t-54.5 -7h-700q-69 0 -207 -6t-207 -6q-254 0 -386 124.5t-132 368.5q0 223 86 420.5t248 323.5q196 153 479 153q60 0 174 -6t189 -6h647q47 0 47 -35q0 -56 -64 -266h-14q-21 166 -88 178q-31 8 -127 8h-162q-34 0 -48.5 -18.5
t-22.5 -67.5l-80 -395h127q135 0 188 12q41 10 65.5 37.5t61.5 100.5h14l-79 -404h-13q-11 63 -32 91t-70 38q-58 10 -152 10h-131l-76 -399q-12 -58 -12 -100q0 -25 17.5 -34t64.5 -9h193q114 0 176 39q72 41 149 180zM907 244l176 889q7 40 7 57q0 23 -11 41
q-27 43 -133 43q-181 0 -295 -164q-91 -129 -137 -336q-47 -208 -47 -393q0 -133 60 -210t178 -77q109 0 153 35q33 29 49 115z" />
    <glyph glyph-name="oe" unicode="&#x153;" horiz-adv-x="1515" 
d="M721 63q-104 -90 -293 -90q-177 0 -280 108t-103 284q0 299 182 505q133 148 391 148q92 0 173.5 -28t117.5 -81q48 48 131 78.5t160 30.5q152 0 227.5 -46t75.5 -149q0 -67 -49 -149q-47 -85 -162 -143t-305 -62q-16 -62 -16 -172q0 -88 31.5 -120t107.5 -32
q65 0 140.5 29.5t121.5 69.5l6 -4q0 -13 -4 -41q-9 -35 -33 -62q-54 -66 -161 -114q-112 -50 -222 -50q-190 0 -237 90zM692 838q0 98 -82 98q-72 0 -112 -76q-59 -111 -105 -325q-47 -217 -47 -367q0 -115 84 -115q92 0 135 117q45 119 88 342q39 201 39 326zM995 514
q98 27 164 96q111 113 111 248q0 82 -60 82q-24 0 -42.5 -14t-47.5 -54q-52 -76 -125 -358z" />
    <glyph glyph-name="Racute" unicode="&#x154;" horiz-adv-x="1464" 
d="M631 14l-4 -14h-627l2 14q83 20 123 64q26 36 61 194l160 828q21 102 21 151q0 42 -27 65t-94 36l4 14h524q155 0 287 -12q130 -12 208.5 -96t78.5 -209q0 -152 -98 -253.5t-277 -138.5q42 -14 65 -45l7 -7l7 -7l6 -6t6.5 -7t5 -7t5.5 -8t5.5 -8.5t6 -11t5.5 -11.5
q39 -84 47 -109q4 -11 13.5 -34.5t12.5 -33.5l29 -79l33 -88q24 -67 62 -102.5t114 -65.5l-4 -15q-126 -20 -273 -20q-144 0 -200 39q-50 39 -97 196q-65 237 -88 308q-18 57 -94 57h-55l-64 -322q-20 -109 -20 -145q0 -43 14 -57q21 -27 109 -54zM705 1176l-89 -469h50
q139 0 206 49q109 77 109 329q0 50 -22 94t-58 62q-46 21 -104 21h-19q-34 0 -49.5 -20t-23.5 -66zM1049 1608l-357 -127l-8 12l246 272q70 76 133 76q49 0 80 -29.5t31 -82.5q0 -75 -125 -121z" />
    <glyph glyph-name="racute" unicode="&#x155;" horiz-adv-x="917" 
d="M446 483l-100 -483h-309l117 557q41 202 41 297q0 35 -17 55q-25 28 -92 31v12q177 60 350 60q51 0 70.5 -15.5t19.5 -58.5q0 -44 -53 -264q48 130 137 235q95 109 211 109q45 0 68 -10q24 -12 24 -54q0 -67 -71 -247h-17q-27 110 -114 110q-115 0 -191 -129
q-47 -84 -74 -205zM813 1286l-332 -164l-10 11l201 297q37 52 64 72t67 20q54 0 85.5 -30t31.5 -81q0 -73 -107 -125z" />
    <glyph glyph-name="Rcommaaccent" unicode="&#x156;" horiz-adv-x="1464" 
d="M631 14l-4 -14h-627l2 14q83 20 123 64q26 36 61 194l160 828q21 102 21 151q0 42 -27 65t-94 36l4 14h524q155 0 287 -12q130 -12 208.5 -96t78.5 -209q0 -152 -98 -253.5t-277 -138.5q42 -14 65 -45l7 -7l7 -7l6 -6t6.5 -7t5 -7t5.5 -8t5.5 -8.5t6 -11t5.5 -11.5
q39 -84 47 -109q4 -11 13.5 -34.5t12.5 -33.5l29 -79l33 -88q24 -67 62 -102.5t114 -65.5l-4 -15q-126 -20 -273 -20q-144 0 -200 39q-50 39 -97 196q-65 237 -88 308q-18 57 -94 57h-55l-64 -322q-20 -109 -20 -145q0 -43 14 -57q21 -27 109 -54zM705 1176l-89 -469h50
q139 0 206 49q109 77 109 329q0 50 -22 94t-58 62q-46 21 -104 21h-19q-34 0 -49.5 -20t-23.5 -66zM449 -573l-7 16q191 102 191 192q0 45 -39 84q-35 35 -35 80q0 55 33.5 86t91.5 31q66 0 105.5 -39t39.5 -108q0 -131 -112 -215q-107 -85 -268 -127z" />
    <glyph glyph-name="rcommaaccent" unicode="&#x157;" horiz-adv-x="917" 
d="M446 483l-100 -483h-309l117 557q41 202 41 297q0 35 -17 55q-25 28 -92 31v12q177 60 350 60q51 0 70.5 -15.5t19.5 -58.5q0 -44 -53 -264q48 130 137 235q95 109 211 109q45 0 68 -10q24 -12 24 -54q0 -67 -71 -247h-17q-27 110 -114 110q-115 0 -191 -129
q-47 -84 -74 -205zM-82 -573l-6 16q190 102 190 192q0 45 -39 84q-34 34 -34 80q0 55 33.5 86t91.5 31q66 0 105.5 -39t39.5 -108q0 -130 -113 -215q-107 -85 -268 -127z" />
    <glyph glyph-name="Rcaron" unicode="&#x158;" horiz-adv-x="1464" 
d="M631 14l-4 -14h-627l2 14q83 20 123 64q26 36 61 194l160 828q21 102 21 151q0 42 -27 65t-94 36l4 14h524q155 0 287 -12q130 -12 208.5 -96t78.5 -209q0 -152 -98 -253.5t-277 -138.5q42 -14 65 -45l7 -7l7 -7l6 -6t6.5 -7t5 -7t5.5 -8t5.5 -8.5t6 -11t5.5 -11.5
q39 -84 47 -109q4 -11 13.5 -34.5t12.5 -33.5l29 -79l33 -88q24 -67 62 -102.5t114 -65.5l-4 -15q-126 -20 -273 -20q-144 0 -200 39q-50 39 -97 196q-65 237 -88 308q-18 57 -94 57h-55l-64 -322q-20 -109 -20 -145q0 -43 14 -57q21 -27 109 -54zM705 1176l-89 -469h50
q139 0 206 49q109 77 109 329q0 50 -22 94t-58 62q-46 21 -104 21h-19q-34 0 -49.5 -20t-23.5 -66zM690 1491l-164 256l11 10l280 -135l340 135l8 -12l-278 -262q-43 -43 -99 -43q-64 0 -98 51z" />
    <glyph glyph-name="rcaron" unicode="&#x159;" horiz-adv-x="917" 
d="M446 483l-100 -483h-309l117 557q41 202 41 297q0 35 -17 55q-25 28 -92 31v12q177 60 350 60q51 0 70.5 -15.5t19.5 -58.5q0 -44 -53 -264q48 130 137 235q95 109 211 109q45 0 68 -10q24 -12 24 -54q0 -67 -71 -247h-17q-27 110 -114 110q-115 0 -191 -129
q-47 -84 -74 -205zM424 1204l-139 291l12 10l254 -166l311 166l10 -10l-247 -299q-47 -59 -107 -59q-64 0 -94 67z" />
    <glyph glyph-name="Sacute" unicode="&#x15a;" horiz-adv-x="1050" 
d="M72 383h16q85 -303 361 -303q241 0 241 190q0 70 -45 115q-43 46 -164 129l-92 61q-117 78 -173 164t-56 205q0 222 156.5 336.5t431.5 114.5q140 0 241 -39q58 -21 58 -64q0 -69 -56 -237h-14q-25 130 -85.5 183.5t-191.5 53.5q-124 0 -189 -49t-65 -131q0 -51 35 -97.5
t125 -111.5l99 -72l98 -73q27 -19 74 -66q61 -58 83.5 -116t28.5 -160q0 -205 -160 -326q-159 -117 -413 -117q-221 0 -334 72q-43 27 -43 88q0 59 33 250zM920 1585l-357 -127l-8 12l246 273q70 76 133 76q49 0 79.5 -30t30.5 -83q0 -75 -124 -121z" />
    <glyph glyph-name="sacute" unicode="&#x15b;" horiz-adv-x="856" 
d="M47 315h16q21 -112 101 -186q83 -74 170 -74q145 0 145 123q0 49 -31 89t-122 98l-62 38q-166 108 -166 267q0 166 121.5 257t341.5 91q113 0 189 -31q43 -15 43 -61q0 -18 -19 -92q-16 -62 -41 -125h-16q-40 227 -207 227q-158 0 -158 -125q0 -68 111 -145l65 -45
q85 -59 113 -84q42 -34 73 -92t31 -121q0 -161 -119.5 -256t-320.5 -95q-176 0 -258 58q-37 27 -37 67q0 87 37 217zM752 1286l-332 -164l-10 11l200 297q37 52 64 72t67 20q54 0 85.5 -30t31.5 -81q0 -73 -106 -125z" />
    <glyph glyph-name="Scircumflex" unicode="&#x15c;" horiz-adv-x="1050" 
d="M72 383h16q85 -303 361 -303q241 0 241 190q0 70 -45 115q-43 46 -164 129l-92 61q-117 78 -173 164t-56 205q0 222 156.5 336.5t431.5 114.5q140 0 241 -39q58 -21 58 -64q0 -69 -56 -237h-14q-25 130 -85.5 183.5t-191.5 53.5q-124 0 -189 -49t-65 -131q0 -51 35 -97.5
t125 -111.5l99 -72l98 -73q27 -19 74 -66q61 -58 83.5 -116t28.5 -160q0 -205 -160 -326q-159 -117 -413 -117q-221 0 -334 72q-43 27 -43 88q0 59 33 250zM866 1722l164 -256l-10 -10l-281 135l-340 -135l-8 12l279 263q46 43 98 43q64 0 98 -52z" />
    <glyph glyph-name="scircumflex" unicode="&#x15d;" horiz-adv-x="856" 
d="M47 315h16q21 -112 101 -186q83 -74 170 -74q145 0 145 123q0 49 -31 89t-122 98l-62 38q-166 108 -166 267q0 166 121.5 257t341.5 91q113 0 189 -31q43 -15 43 -61q0 -18 -19 -92q-16 -62 -41 -125h-16q-40 227 -207 227q-158 0 -158 -125q0 -68 111 -145l65 -45
q85 -59 113 -84q42 -34 73 -92t31 -121q0 -161 -119.5 -256t-320.5 -95q-176 0 -258 58q-37 27 -37 67q0 87 37 217zM694 1421l140 -291l-13 -10l-254 166l-311 -166l-10 10l248 300q47 59 106 59q64 0 94 -68z" />
    <glyph glyph-name="Scedilla" unicode="&#x15e;" horiz-adv-x="1050" 
d="M207 -420v8l8 6q27 -24 96 -24q48 0 80.5 27t32.5 79q0 43 -25 69t-61 26q-24 0 -41 -7l-8 9l92 200q-202 6 -299 72q-43 27 -43 88q0 59 33 250h16q85 -303 361 -303q241 0 241 190q0 70 -45 115q-43 46 -164 129l-92 61q-117 78 -173 164t-56 205q0 222 156.5 336.5
t431.5 114.5q140 0 241 -39q58 -21 58 -64q0 -69 -56 -237h-14q-25 130 -85.5 183.5t-191.5 53.5q-124 0 -189 -49t-65 -131q0 -51 35 -97.5t125 -111.5l99 -72l98 -73q27 -19 74 -66q61 -58 83.5 -116t28.5 -160q0 -200 -151 -318q-149 -116 -394 -125l-41 -96
q112 0 168 -46t56 -124q0 -100 -79 -159.5t-198 -59.5q-99 0 -129 35q-14 14 -14 57z" />
    <glyph glyph-name="scedilla" unicode="&#x15f;" horiz-adv-x="856" 
d="M84 -412v9l8 6q25 -25 94 -25q47 0 78 26.5t31 78.5q0 42 -24 67t-60 25q-11 0 -39 -4l-8 6l94 198q-146 9 -211 56q-37 27 -37 67q0 87 37 217h16q21 -112 101 -186q83 -74 170 -74q145 0 145 123q0 49 -31 89t-122 98l-62 38q-166 108 -166 267q0 166 121.5 257
t341.5 91q113 0 189 -31q43 -15 43 -61q0 -18 -19 -92q-16 -62 -41 -125h-16q-40 227 -207 227q-158 0 -158 -125q0 -68 111 -145l65 -45q85 -59 113 -84q42 -34 73 -92t31 -121q0 -160 -116 -253t-314 -98l-39 -94q216 0 216 -166q0 -97 -77.5 -156t-191.5 -59
q-101 0 -125 35q-14 17 -14 55z" />
    <glyph glyph-name="Scaron" unicode="&#x160;" horiz-adv-x="1050" 
d="M72 383h16q85 -303 361 -303q241 0 241 190q0 70 -45 115q-43 46 -164 129l-92 61q-117 78 -173 164t-56 205q0 222 156.5 336.5t431.5 114.5q140 0 241 -39q58 -21 58 -64q0 -69 -56 -237h-14q-25 130 -85.5 183.5t-191.5 53.5q-124 0 -189 -49t-65 -131q0 -51 35 -97.5
t125 -111.5l99 -72l98 -73q27 -19 74 -66q61 -58 83.5 -116t28.5 -160q0 -205 -160 -326q-159 -117 -413 -117q-221 0 -334 72q-43 27 -43 88q0 59 33 250zM623 1491l-164 256l10 10l281 -135l340 135l8 -12l-279 -262q-43 -43 -98 -43q-64 0 -98 51z" />
    <glyph glyph-name="scaron" unicode="&#x161;" horiz-adv-x="856" 
d="M47 315h16q21 -112 101 -186q83 -74 170 -74q145 0 145 123q0 49 -31 89t-122 98l-62 38q-166 108 -166 267q0 166 121.5 257t341.5 91q113 0 189 -31q43 -15 43 -61q0 -18 -19 -92q-16 -62 -41 -125h-16q-40 227 -207 227q-158 0 -158 -125q0 -68 111 -145l65 -45
q85 -59 113 -84q42 -34 73 -92t31 -121q0 -161 -119.5 -256t-320.5 -95q-176 0 -258 58q-37 27 -37 67q0 87 37 217zM412 1204l-140 291l13 10l254 -166l311 166l10 -10l-248 -299q-47 -59 -106 -59q-64 0 -94 67z" />
    <glyph glyph-name="uni0162" unicode="&#x162;" horiz-adv-x="1253" 
d="M303 -420v8l8 6q27 -24 97 -24q48 0 80 27t32 79q0 43 -24 69t-62 26q-24 0 -41 -7l-8 9l107 227h-275l4 14q85 21 117 64q25 28 63 209l168 846q9 41 9 75q0 43 -54 43h-35q-71 0 -139 -26q-100 -44 -194 -207h-17q25 208 47 303q6 26 18.5 35.5t37.5 9.5h1058
q52 0 52 -33q0 -58 -68 -315h-14q-27 181 -115 215q-41 18 -125 18h-47q-31 0 -43.5 -11.5t-19.5 -47.5l-179 -936q-20 -97 -20 -152q0 -56 123 -90l-2 -14h-289l-53 -123q111 0 167 -46t56 -124q0 -100 -79 -159.5t-198 -59.5q-99 0 -129 35q-14 14 -14 57z" />
    <glyph glyph-name="uni0163" unicode="&#x163;" horiz-adv-x="712" 
d="M68 -412v9l8 6q25 -25 94 -25q47 0 78 26.5t31 78.5q0 42 -24 67t-60 25q-11 0 -39 -4l-9 6l99 209q-160 27 -160 209q0 60 27 180l102 495h-121l15 64q88 23 135 49q59 31 102 94q48 74 86 158h160l-45 -244h186l-20 -121h-185l-116 -542q-23 -115 -23 -170
q0 -35 23.5 -55.5t60.5 -20.5q61 0 123 35l6 -4q0 -28 -20 -54q-15 -18 -45 -36q-82 -46 -207 -46q-20 0 -29 3l-41 -101q215 0 215 -166q0 -97 -77 -156t-191 -59q-101 0 -125 35q-14 17 -14 55z" />
    <glyph glyph-name="Tcaron" unicode="&#x164;" horiz-adv-x="1253" 
d="M831 14l-2 -14h-624l4 14q85 21 117 64q25 28 63 209l168 846q8 36 8 75q0 43 -53 43h-35q-71 0 -139 -26q-101 -44 -195 -207h-16q25 208 47 303q6 26 18 35.5t37 9.5h1059q51 0 51 -33q0 -62 -67 -315h-15q-27 181 -114 215q-41 18 -125 18h-47q-31 0 -44 -11.5
t-20 -47.5l-178 -936q-20 -97 -20 -152q0 -56 122 -90zM662 1491l-164 256l10 10l280 -135l340 135l9 -12l-279 -262q-43 -43 -98 -43q-64 0 -98 51z" />
    <glyph glyph-name="tcaron" unicode="&#x165;" horiz-adv-x="712" 
d="M596 117l6 -4q0 -28 -20 -54q-15 -18 -45 -36q-82 -46 -207 -46q-244 0 -244 218q0 60 27 180l102 495h-121l15 64q88 23 135 49q59 31 102 94q48 74 86 158h160l-45 -244h186l-20 -121h-185l-116 -542q-23 -115 -23 -170q0 -35 23.5 -55.5t60.5 -20.5q61 0 123 35z
M657 1063l-6 16q191 102 191 193q0 49 -39 82q-35 35 -35 82q0 55 33.5 85.5t91.5 30.5q67 0 106 -39t39 -108q0 -130 -112 -217q-108 -83 -269 -125z" />
    <glyph glyph-name="Tbar" unicode="&#x166;" horiz-adv-x="1253" 
d="M844 14l-2 -14h-625l4 14q85 21 117 64q25 28 63 209l76 385h-250l33 141h246l63 320q9 41 9 75q0 43 -54 43h-35q-71 0 -139 -26q-100 -44 -194 -207h-17q25 208 47 303q6 26 18.5 35.5t37.5 9.5h1058q52 0 52 -33q0 -58 -68 -315h-14q-27 181 -115 215q-41 18 -125 18
h-47q-31 0 -43.5 -11.5t-19.5 -47.5l-74 -379h260l-33 -141h-254l-78 -416q-20 -97 -20 -152q0 -56 123 -90z" />
    <glyph glyph-name="tbar" unicode="&#x167;" horiz-adv-x="712" 
d="M596 117l6 -4q0 -28 -20 -54q-15 -18 -45 -36q-82 -46 -207 -46q-244 0 -244 218q0 60 27 180l39 190h-105l27 119h102l39 186h-121l15 64q88 23 135 49q59 31 102 94q48 74 86 158h160l-45 -244h186l-20 -121h-185l-41 -186h187l-27 -119h-184l-51 -237
q-23 -115 -23 -170q0 -35 23.5 -55.5t60.5 -20.5q61 0 123 35z" />
    <glyph glyph-name="Utilde" unicode="&#x168;" horiz-adv-x="1505" 
d="M236 1352l2 14h628l-2 -14q-89 -22 -114 -47q-33 -26 -58 -150l-125 -637q-26 -133 -26 -225q0 -104 57.5 -151.5t179.5 -47.5q150 0 246 96q79 79 121 273l127 645q16 82 16 129q0 50 -25 73t-98 42l4 14h414l-4 -14l-61 -17q-46 -20 -68 -53.5t-39 -116.5l-123 -653
q-47 -252 -133 -352q-86 -99 -204.5 -143t-293.5 -44q-456 0 -456 344q0 81 30 248l107 553q16 82 16 142q0 40 -23.5 57t-94.5 35zM1288 1741l17 -6q-77 -250 -213 -250q-59 0 -144 39q-93 43 -141 43q-76 0 -137 -94l-17 6q34 81 47 110q19 42 74 97q51 51 113 51
q40 0 147 -49q72 -35 115 -35q46 0 76 19.5t63 68.5z" />
    <glyph glyph-name="utilde" unicode="&#x169;" horiz-adv-x="1181" 
d="M1081 94l2 -10q-159 -102 -333 -102q-119 0 -119 129q0 102 33 217q-66 -135 -183 -246q-115 -109 -245 -109q-162 0 -162 164q0 81 84 463q39 169 39 256q0 55 -47 70l-70 14v10q70 27 174 41q120 19 190 19q55 0 76 -16t21 -58q0 -26 -41 -207q-103 -438 -103 -500
q0 -43 41 -43q63 0 146 103q66 84 110 284l86 418h312l-111 -547q-43 -203 -43 -266q0 -88 78 -88q19 0 65 4zM989 1430l17 -9q-83 -250 -209 -250q-38 0 -138 41q-79 39 -124 39q-71 0 -132 -94l-16 6q33 85 47 115q18 39 68 96q45 51 100 51q46 0 125 -43q77 -41 129 -41
q43 0 69 18t64 71z" />
    <glyph glyph-name="Umacron" unicode="&#x16a;" horiz-adv-x="1505" 
d="M236 1352l2 14h628l-2 -14q-89 -22 -114 -47q-33 -26 -58 -150l-125 -637q-26 -133 -26 -225q0 -104 57.5 -151.5t179.5 -47.5q150 0 246 96q79 79 121 273l127 645q16 82 16 129q0 50 -25 73t-98 42l4 14h414l-4 -14l-61 -17q-46 -20 -68 -53.5t-39 -116.5l-123 -653
q-47 -252 -133 -352q-86 -99 -204.5 -143t-293.5 -44q-456 0 -456 344q0 81 30 248l107 553q16 82 16 142q0 40 -23.5 57t-94.5 35zM1266 1649l-27 -158h-588l31 158h584z" />
    <glyph glyph-name="umacron" unicode="&#x16b;" horiz-adv-x="1181" 
d="M1081 94l2 -10q-159 -102 -333 -102q-119 0 -119 129q0 102 33 217q-66 -135 -183 -246q-115 -109 -245 -109q-162 0 -162 164q0 81 84 463q39 169 39 256q0 55 -47 70l-70 14v10q70 27 174 41q120 19 190 19q55 0 76 -16t21 -58q0 -26 -41 -207q-103 -438 -103 -500
q0 -43 41 -43q63 0 146 103q66 84 110 284l86 418h312l-111 -547q-43 -203 -43 -266q0 -88 78 -88q19 0 65 4zM973 1380l-37 -161h-537l37 161h537z" />
    <glyph glyph-name="Ubreve" unicode="&#x16c;" horiz-adv-x="1505" 
d="M236 1352l2 14h628l-2 -14q-89 -22 -114 -47q-33 -26 -58 -150l-125 -637q-26 -133 -26 -225q0 -104 57.5 -151.5t179.5 -47.5q150 0 246 96q79 79 121 273l127 645q16 82 16 129q0 50 -25 73t-98 42l4 14h414l-4 -14l-61 -17q-46 -20 -68 -53.5t-39 -116.5l-123 -653
q-47 -252 -133 -352q-86 -99 -204.5 -143t-293.5 -44q-456 0 -456 344q0 81 30 248l107 553q16 82 16 142q0 40 -23.5 57t-94.5 35zM1264 1757l16 -2q-7 -46 -18.5 -86t-35.5 -83t-57.5 -73.5t-86 -50.5t-117.5 -20q-232 0 -232 258q0 47 2 57h17q21 -143 237 -143
q111 0 174 32.5t101 110.5z" />
    <glyph glyph-name="ubreve" unicode="&#x16d;" horiz-adv-x="1181" 
d="M1081 94l2 -10q-159 -102 -333 -102q-119 0 -119 129q0 102 33 217q-66 -135 -183 -246q-115 -109 -245 -109q-162 0 -162 164q0 81 84 463q39 169 39 256q0 55 -47 70l-70 14v10q70 27 174 41q120 19 190 19q55 0 76 -16t21 -58q0 -26 -41 -207q-103 -438 -103 -500
q0 -43 41 -43q63 0 146 103q66 84 110 284l86 418h312l-111 -547q-43 -203 -43 -266q0 -88 78 -88q19 0 65 4zM979 1493l14 -2q-56 -330 -309 -330q-235 0 -235 262q0 41 6 68l14 2q19 -84 71 -121t160 -37t171 37t108 121z" />
    <glyph glyph-name="Uring" unicode="&#x16e;" horiz-adv-x="1505" 
d="M236 1352l2 14h628l-2 -14q-89 -22 -114 -47q-33 -26 -58 -150l-125 -637q-26 -133 -26 -225q0 -104 57.5 -151.5t179.5 -47.5q150 0 246 96q79 79 121 273l127 645q16 82 16 129q0 50 -25 73t-98 42l4 14h414l-4 -14l-61 -17q-46 -20 -68 -53.5t-39 -116.5l-123 -653
q-47 -252 -133 -352q-86 -99 -204.5 -143t-293.5 -44q-456 0 -456 344q0 81 30 248l107 553q16 82 16 142q0 40 -23.5 57t-94.5 35zM1171 1630q0 -76 -50 -129t-130 -53q-67 0 -111 45t-44 113q0 77 52.5 127.5t131.5 50.5q68 0 109.5 -43t41.5 -111zM1106 1626
q0 43 -26 71.5t-68 28.5q-50 0 -80.5 -32.5t-30.5 -87.5q0 -42 28 -70.5t72 -28.5t74.5 34t30.5 85z" />
    <glyph glyph-name="uring" unicode="&#x16f;" horiz-adv-x="1181" 
d="M1081 94l2 -10q-159 -102 -333 -102q-119 0 -119 129q0 102 33 217q-66 -135 -183 -246q-115 -109 -245 -109q-162 0 -162 164q0 81 84 463q39 169 39 256q0 55 -47 70l-70 14v10q70 27 174 41q120 19 190 19q55 0 76 -16t21 -58q0 -26 -41 -207q-103 -438 -103 -500
q0 -43 41 -43q63 0 146 103q66 84 110 284l86 418h312l-111 -547q-43 -203 -43 -266q0 -88 78 -88q19 0 65 4zM856 1331q0 -82 -54 -136t-140 -54q-75 0 -122.5 46.5t-47.5 119.5q0 82 55.5 135t140.5 53q78 0 123 -44.5t45 -119.5zM788 1323q0 49 -30.5 81t-77.5 32
q-54 0 -86.5 -35t-32.5 -92q0 -48 29.5 -78.5t79.5 -30.5q51 0 84.5 34.5t33.5 88.5z" />
    <glyph glyph-name="Uhungarumlaut" unicode="&#x170;" horiz-adv-x="1505" 
d="M236 1352l2 14h628l-2 -14q-89 -22 -114 -47q-33 -26 -58 -150l-125 -637q-26 -133 -26 -225q0 -104 57.5 -151.5t179.5 -47.5q150 0 246 96q79 79 121 273l127 645q16 82 16 129q0 50 -25 73t-98 42l4 14h414l-4 -14l-61 -17q-46 -20 -68 -53.5t-39 -116.5l-123 -653
q-47 -252 -133 -352q-86 -99 -204.5 -143t-293.5 -44q-456 0 -456 344q0 81 30 248l107 553q16 82 16 142q0 40 -23.5 57t-94.5 35zM1028 1606l-354 -148l-8 12l243 271q76 82 135 82q44 0 73.5 -25t29.5 -67q0 -73 -119 -125zM1419 1606l-354 -148l-8 12l243 271
q70 82 136 82q44 0 74 -25t30 -67q0 -72 -121 -125z" />
    <glyph glyph-name="uhungarumlaut" unicode="&#x171;" horiz-adv-x="1181" 
d="M1081 94l2 -10q-159 -102 -333 -102q-119 0 -119 129q0 102 33 217q-66 -135 -183 -246q-115 -109 -245 -109q-162 0 -162 164q0 81 84 463q39 169 39 256q0 55 -47 70l-70 14v10q70 27 174 41q120 19 190 19q55 0 76 -16t21 -58q0 -26 -41 -207q-103 -438 -103 -500
q0 -43 41 -43q63 0 146 103q66 84 110 284l86 418h312l-111 -547q-43 -203 -43 -266q0 -88 78 -88q19 0 65 4zM702 1323l-311 -182l-10 12l201 299q37 52 62.5 71t64.5 19q44 0 72 -24.5t28 -67.5q0 -66 -107 -127zM1059 1323l-316 -182l-10 12l203 299q37 52 62.5 71
t64.5 19q44 0 72 -24.5t28 -67.5q0 -66 -104 -127z" />
    <glyph glyph-name="Uogonek" unicode="&#x172;" horiz-adv-x="1505" 
d="M811 -369l6 -6l-2 -10q-3 -23 -18 -41q-42 -51 -150 -51q-103 0 -159 48t-56 128q0 172 238 274h-13q-456 0 -456 344q0 81 30 248l107 553q16 82 16 142q0 40 -23.5 57t-94.5 35l2 14h628l-2 -14q-89 -22 -114 -47q-33 -26 -58 -150l-125 -637q-26 -133 -26 -225
q0 -104 57.5 -151.5t179.5 -47.5q150 0 246 96q79 79 121 273l127 645q16 82 16 129q0 50 -25 73t-98 42l4 14h414l-4 -14l-61 -17q-46 -20 -68 -53.5t-39 -116.5l-123 -653q-47 -252 -133 -352q-140 -162 -399 -183q-131 -122 -131 -247q0 -113 102 -113q59 0 84 14z" />
    <glyph glyph-name="uogonek" unicode="&#x173;" horiz-adv-x="1181" 
d="M834 -356l6 -6l-2 -11q-3 -22 -19 -45q-40 -49 -145 -49q-101 0 -155 46.5t-54 123.5q0 179 254 281q-88 15 -88 127q0 102 33 217q-66 -135 -183 -246q-115 -109 -245 -109q-162 0 -162 164q0 81 84 463q39 169 39 256q0 55 -47 70l-70 14v10q70 27 174 41
q120 19 190 19q55 0 76 -16t21 -58q0 -26 -41 -207q-103 -438 -103 -500q0 -43 41 -43q63 0 146 103q66 84 110 284l86 418h312l-111 -547q-43 -203 -43 -266q0 -88 78 -88q19 0 65 4l2 -10q-142 -91 -297 -100q-135 -132 -135 -246q0 -50 26 -79.5t73 -29.5q57 0 84 15z
" />
    <glyph glyph-name="Wcircumflex" unicode="&#x174;" horiz-adv-x="1947" 
d="M606 0h-235q-3 78 -21 317l-65 877q-9 94 -39 121q-22 22 -68 37l4 14h566l-3 -14q-63 -19 -86 -39q-22 -22 -22 -78q0 -42 18 -432q19 -412 19 -434q16 48 413 962h222q129 -885 133 -973l311 793q27 70 27 115q0 40 -41 61q-22 13 -64 25l4 14h373l-4 -14
q-18 -3 -55 -25q-40 -24 -82 -121l-398 -919l-63 -144q-30 -66 -61 -143h-232q-26 227 -72 588l-36 305l-11 80q-19 -54 -432 -973zM1348 1722l163 -256l-10 -10l-280 135l-340 -135l-9 12l279 263q46 43 98 43q65 0 99 -52z" />
    <glyph glyph-name="wcircumflex" unicode="&#x175;" horiz-adv-x="1505" 
d="M375 0h-199l-31 762q-6 117 -34 139q-26 19 -80 27v12q58 27 176 49q126 27 192 27q55 0 58 -51q4 -110 4 -111q0 -30 -6 -590l288 645h226q59 -535 71 -676q77 143 146 281q117 237 117 356q0 49 -41 58q-20 7 -70 14v10q47 27 125 45q84 19 108 19q62 0 62 -37
q0 -87 -105 -287q-114 -219 -419 -692h-199l-64 616q-185 -372 -325 -616zM1026 1421l139 -291l-12 -10l-254 166l-311 -166l-10 10l247 300q47 59 107 59q64 0 94 -68z" />
    <glyph glyph-name="Ycircumflex" unicode="&#x176;" horiz-adv-x="1294" 
d="M877 14l-5 -14h-636l2 14q98 23 127 66q20 26 55 209l61 329l-235 601q-34 81 -68 108q-33 20 -51 25l4 14h574l-3 -14q-81 -18 -90 -27q-10 -10 -10 -25q0 -23 23 -90q157 -427 168 -469l51 72l117 162l167 233q35 50 35 82q0 22 -18 31q-32 23 -76 31l2 14h385l-2 -14
q-23 -5 -51 -19q-50 -26 -125 -116l-434 -547l-74 -391q-20 -97 -20 -160q0 -34 27.5 -57.5t99.5 -47.5zM999 1722l164 -256l-10 -10l-281 135l-340 -135l-8 12l279 263q46 43 98 43q64 0 98 -52z" />
    <glyph glyph-name="ycircumflex" unicode="&#x177;" horiz-adv-x="1026" 
d="M-203 -236h21q6 -47 34 -78.5t56 -31.5q64 0 121 51q144 116 290 305h-151l-37 766q-6 101 -31 123q-24 21 -84 27v14q53 24 181 51q129 27 194 27q40 0 49 -45q6 -35 6 -133q9 -601 9 -680q101 167 227 379q115 207 115 325q0 40 -41 58q-33 13 -66 16l-2 14
q45 23 137 45q92 21 125 21q36 0 49 -8.5t13 -32.5q0 -70 -158 -340q-137 -231 -438 -645q-192 -264 -357 -416q-90 -84 -200 -84q-95 0 -95 76q0 93 33 196zM778 1421l140 -291l-13 -10l-254 166l-311 -166l-10 10l248 300q47 59 106 59q64 0 94 -68z" />
    <glyph glyph-name="Ydieresis" unicode="&#x178;" horiz-adv-x="1294" 
d="M877 14l-5 -14h-636l2 14q98 23 127 66q20 26 55 209l61 329l-235 601q-34 81 -68 108q-33 20 -51 25l4 14h574l-3 -14q-81 -18 -90 -27q-10 -10 -10 -25q0 -23 23 -90q157 -427 168 -469l51 72l117 162l167 233q35 50 35 82q0 22 -18 31q-32 23 -76 31l2 14h385l-2 -14
q-23 -5 -51 -19q-50 -26 -125 -116l-434 -547l-74 -391q-20 -97 -20 -160q0 -34 27.5 -57.5t99.5 -47.5zM811 1632q0 -68 -43 -115t-111 -47q-52 0 -87 35.5t-35 91.5q0 67 45 114.5t108 47.5q56 0 89.5 -35.5t33.5 -91.5zM1214 1632q0 -68 -42.5 -115t-108.5 -47
q-55 0 -90 35t-35 92q0 68 45 115t111 47q56 0 88 -35t32 -92z" />
    <glyph glyph-name="Zacute" unicode="&#x179;" horiz-adv-x="1257" 
d="M1055 0h-1178l2 14l1008 1239q-234 0 -422 -8q-115 -3 -162 -59q-25 -29 -84 -129h-14q12 142 33 254q5 22 8.5 31.5t15.5 16.5t35 7h1096l-2 -14l-1022 -1239q239 0 485 6q132 3 178 49q51 48 119 166h16q-2 -31 -22 -146q-21 -123 -28 -143q-24 -42 -62 -45zM952 1585
l-356 -127l-8 12l246 273q70 76 133 76q49 0 79.5 -30t30.5 -83q0 -75 -125 -121z" />
    <glyph glyph-name="zacute" unicode="&#x17a;" horiz-adv-x="935" 
d="M16 51l-57 -61l-57 47q315 331 716 702q-262 0 -344 -6q-91 -3 -122 -51q-23 -29 -31 -61l-17 2q12 216 27 295q8 43 24 58t58 15h739l4 -20q-334 -338 -731 -697q85 -3 254 -16q167 -10 185 -10q65 0 105.5 24.5t70.5 89.5l14 -2q-21 -253 -55 -323q-23 -57 -129 -57
q-51 0 -299 34q-249 37 -355 37zM780 1286l-331 -164l-11 11l201 297q37 52 64 72t67 20q54 0 85.5 -30t31.5 -81q0 -73 -107 -125z" />
    <glyph glyph-name="Zdotaccent" unicode="&#x17b;" horiz-adv-x="1257" 
d="M1055 0h-1178l2 14l1008 1239q-234 0 -422 -8q-115 -3 -162 -59q-25 -29 -84 -129h-14q12 142 33 254q5 22 8.5 31.5t15.5 16.5t35 7h1096l-2 -14l-1022 -1239q239 0 485 6q132 3 178 49q51 48 119 166h16q-2 -31 -22 -146q-21 -123 -28 -143q-24 -42 -62 -45zM952 1612
q0 -68 -42 -115t-109 -47q-54 0 -88.5 35t-34.5 92q0 67 45 114.5t108 47.5q56 0 88.5 -35t32.5 -92z" />
    <glyph glyph-name="zdotaccent" unicode="&#x17c;" horiz-adv-x="935" 
d="M16 51l-57 -61l-57 47q315 331 716 702q-262 0 -344 -6q-91 -3 -122 -51q-23 -29 -31 -61l-17 2q12 216 27 295q8 43 24 58t58 15h739l4 -20q-334 -338 -731 -697q85 -3 254 -16q167 -10 185 -10q65 0 105.5 24.5t70.5 89.5l14 -2q-21 -253 -55 -323q-23 -57 -129 -57
q-51 0 -299 34q-249 37 -355 37zM707 1307q0 -69 -43 -115.5t-111 -46.5q-55 0 -90 34.5t-35 90.5q0 69 45 115.5t111 46.5q56 0 89.5 -35t33.5 -90z" />
    <glyph glyph-name="Zcaron" unicode="&#x17d;" horiz-adv-x="1257" 
d="M1055 0h-1178l2 14l1008 1239q-234 0 -422 -8q-115 -3 -162 -59q-25 -29 -84 -129h-14q12 142 33 254q5 22 8.5 31.5t15.5 16.5t35 7h1096l-2 -14l-1022 -1239q239 0 485 6q132 3 178 49q51 48 119 166h16q-2 -31 -22 -146q-21 -123 -28 -143q-24 -42 -62 -45zM684 1491
l-164 256l10 10l281 -135l340 135l8 -12l-278 -262q-43 -43 -99 -43q-64 0 -98 51z" />
    <glyph glyph-name="zcaron" unicode="&#x17e;" horiz-adv-x="935" 
d="M16 51l-57 -61l-57 47q315 331 716 702q-262 0 -344 -6q-91 -3 -122 -51q-23 -29 -31 -61l-17 2q12 216 27 295q8 43 24 58t58 15h739l4 -20q-334 -338 -731 -697q85 -3 254 -16q167 -10 185 -10q65 0 105.5 24.5t70.5 89.5l14 -2q-21 -253 -55 -323q-23 -57 -129 -57
q-51 0 -299 34q-249 37 -355 37zM434 1204l-139 291l12 10l254 -166l311 166l11 -10l-248 -299q-47 -59 -107 -59q-64 0 -94 67z" />
    <glyph glyph-name="longs" unicode="&#x17f;" horiz-adv-x="643" 
d="M-322 -201h15q41 -176 147 -176q81 0 111 58q42 83 90 346l135 807q30 194 64 284q59 160 172 242q118 86 356 86q92 0 147 -21q48 -22 48 -55q0 -49 -54 -209h-16q-30 112 -67 160.5t-99 48.5q-83 0 -117 -63q-21 -41 -69 -291l-133 -729q-46 -258 -115 -410
q-67 -154 -197 -244t-270 -90q-100 0 -145 25q-35 15 -35 61q0 61 32 170z" />
    <glyph glyph-name="uni018F" unicode="&#x18f;" horiz-adv-x="1431" 
d="M948 535h-483q-33 -112 -33 -269q0 -186 178 -186q239 0 338 455zM227 647h750q22 110 22 209q0 322 -366 322q-215 0 -408 -146l-10 4l2 15q2 31 27 75q65 115 213 191t358 76q294 0 426 -150q135 -150 135 -391q0 -246 -86 -444q-89 -200 -271.5 -317.5t-428.5 -117.5
q-241 0 -374.5 114t-133.5 306q0 134 45 217q18 37 100 37z" />
    <glyph glyph-name="florin" unicode="&#x192;" horiz-adv-x="1159" 
d="M993 834l-20 -138h-219l-111 -518q-29 -140 -92 -244.5t-139 -156.5q-140 -96 -316 -96q-108 0 -170 30q-43 21 -43 64q0 71 51 196h13q17 -92 55 -139t90 -47q67 0 105 53q40 52 102 355l102 503h-180l21 138h190q76 300 193 405q149 131 387 131q136 0 207 -39
q36 -17 36 -65t-71 -228h-10q-34 230 -158 230q-72 0 -117 -54q-47 -56 -74 -190l-41 -190h209z" />
    <glyph glyph-name="Aringacute" unicode="&#x1fa;" horiz-adv-x="1421" 
d="M1065 1501q0 -89 -68 -145l23 -152l24 -153l119 -836q15 -125 56 -160q27 -24 86 -41l-2 -14h-615l2 14q77 23 94 35q39 20 39 74q0 26 -10 104l-27 228h-411l-154 -279q-37 -67 -37 -94q0 -24 25 -37q16 -10 94 -31l-4 -14h-397l4 14q17 2 63 23q44 18 84 88l535 917
l184 324q-41 47 -41 111q0 77 52.5 127.5t131.5 50.5q67 0 108.5 -43t41.5 -111zM432 563h342l-57 522q-32 -67 -285 -522zM1141 1794l-293 -113l-12 15l204 239q63 72 117 72q43 0 68.5 -26t25.5 -74q0 -70 -110 -113zM999 1497q0 43 -25.5 71.5t-66.5 28.5
q-50 0 -80 -32.5t-30 -87.5q0 -42 27.5 -70.5t70.5 -28.5q45 0 74.5 33t29.5 86z" />
    <glyph glyph-name="aringacute" unicode="&#x1fb;" horiz-adv-x="1202" 
d="M1077 94l2 -10q-153 -102 -344 -102q-117 0 -117 124q0 72 31 230q-181 -363 -434 -363q-31 0 -54.5 3.5t-51.5 18t-46.5 40t-31.5 72t-13 110.5q0 171 86 375q89 207 213 307q75 63 164 91t226 28q101 0 233 -21q131 -21 172 -45q-68 -84 -156 -592q-20 -111 -20 -200
q0 -34 18.5 -52t46.5 -18q40 0 76 4zM752 885q0 23 -21 35q-13 8 -47 8q-79 0 -127 -60q-66 -80 -137 -288q-68 -207 -68 -320q0 -94 58 -94q49 0 106.5 59.5t101.5 145.5q28 61 60 170q36 112 63 254q11 75 11 90zM932 1323q0 -76 -50 -129t-130 -53q-67 0 -110.5 44.5
t-43.5 112.5q0 78 52 128.5t130 50.5q68 0 110 -43t42 -111zM868 1319q0 43 -27 71.5t-69 28.5q-50 0 -80 -33t-30 -88q0 -42 28 -70t72 -28q47 0 76.5 34t29.5 85zM1044 1726l-331 -163l-11 10l201 297q37 52 64 72t67 20q54 0 85.5 -29t31.5 -80q0 -75 -107 -127z" />
    <glyph glyph-name="AEacute" unicode="&#x1fc;" horiz-adv-x="2039" 
d="M371 14l-2 -14h-447l2 14q67 19 115 58q76 56 139 131l809 950q80 95 80 133q0 24 -26 36t-109 30l2 14h1075q47 0 47 -33q0 -61 -61 -268h-15q-24 150 -79 174q-27 12 -129 12h-168q-25 0 -40 -12t-20.5 -27.5t-11.5 -46.5l-80 -395h125q139 0 186 12q44 10 71 38.5
t58 94.5h17l-82 -407h-17q-9 119 -100 137q-55 10 -154 10h-122l-78 -397q-15 -68 -15 -100q0 -45 86 -45h179q136 0 198 45q70 51 138 166h14q-47 -250 -58 -281q-7 -28 -22.5 -35.5t-58.5 -7.5h-996l2 14q75 23 119 52q38 25 59 137l52 252h-521l-182 -230
q-86 -109 -86 -145q0 -19 25 -35q45 -20 82 -31zM627 563h446l137 709q-121 -155 -583 -709zM1751 1585l-356 -127l-9 12l246 273q70 76 133 76q49 0 80 -30t31 -83q0 -75 -125 -121z" />
    <glyph glyph-name="aeacute" unicode="&#x1fd;" horiz-adv-x="1441" 
d="M604 145q-114 -172 -321 -172q-119 0 -186.5 74t-67.5 184q0 217 243 269q144 30 344 30l13 76q8 47 8 101q0 62 -48 92t-126 30q-167 0 -279 -77l-8 2l6 37q21 82 127 153q106 74 316 74q179 0 247 -86q109 86 263 86q297 0 297 -215q0 -33 -1 -46.5t-9.5 -40.5
t-26.5 -59q-27 -50 -76 -84q-55 -36 -157 -63t-230 -31q-17 -73 -17 -174q0 -88 34.5 -124t109.5 -36q135 0 246 97l12 -6q0 -19 -6 -43q-10 -35 -33 -60q-55 -66 -163.5 -113t-231.5 -47q-227 0 -279 172zM590 215q-6 49 -6 66q0 82 20 196q-134 -15 -188 -49
q-70 -43 -70 -141q0 -135 113 -135q68 0 131 63zM944 532q107 11 167 82.5t71 153.5q10 52 10 92q0 45 -13 60.5t-44 15.5t-58 -21q-28 -22 -66.5 -123.5t-66.5 -259.5zM1083 1286l-331 -164l-11 11l201 297q37 52 64 72t67 20q54 0 85.5 -30t31.5 -81q0 -73 -107 -125z" />
    <glyph glyph-name="Oslashacute" unicode="&#x1fe;" horiz-adv-x="1447" 
d="M289 61l-92 -116l-74 55l96 121q-131 137 -131 377q0 192 74 399q76 204 227 334q88 77 224.5 120.5t275.5 43.5q168 0 291 -54l118 152l74 -53l-112 -144q159 -117 159 -372q0 -204 -80 -426q-79 -219 -231 -359q-90 -80 -219 -123t-262 -43q-207 0 -338 88zM1044 1010
v12l-579 -735q12 -108 54.5 -157.5t121.5 -49.5q133 0 207 123q88 144 141 393q55 247 55 414zM659 1159q-78 -115 -137 -325q-58 -207 -61 -406l571 725q-30 137 -162 137q-123 0 -211 -131zM1104 1585l-356 -127l-9 12l246 273q70 76 133 76q49 0 80 -30t31 -83
q0 -75 -125 -121z" />
    <glyph glyph-name="oslashacute" unicode="&#x1ff;" horiz-adv-x="1083" 
d="M227 25l-82 -115l-59 41l82 115q-123 111 -123 299q0 308 184 507q137 146 398 146q115 0 196 -37l88 123l66 -41l-86 -119q125 -88 125 -274q0 -150 -45 -295q-46 -145 -135 -248q-61 -68 -167.5 -111t-222.5 -43q-128 0 -219 52zM586 178q70 208 108 494l-348 -484v-12
q0 -123 98 -123q99 0 142 125zM709 821v6q0 51 -24.5 80t-66.5 29q-84 0 -131 -102q-34 -70 -75 -226q-40 -154 -54 -276zM870 1286l-331 -164l-11 11l201 297q37 52 64 72t67 20q54 0 85.5 -30t31.5 -81q0 -73 -107 -125z" />
    <glyph glyph-name="uni0218" unicode="&#x218;" horiz-adv-x="1050" 
d="M72 383h16q85 -303 361 -303q241 0 241 190q0 70 -45 115q-43 46 -164 129l-92 61q-117 78 -173 164t-56 205q0 222 156.5 336.5t431.5 114.5q140 0 241 -39q58 -21 58 -64q0 -69 -56 -237h-14q-25 130 -85.5 183.5t-191.5 53.5q-124 0 -189 -49t-65 -131q0 -51 35 -97.5
t125 -111.5l99 -72l98 -73q27 -19 74 -66q61 -58 83.5 -116t28.5 -160q0 -205 -160 -326q-159 -117 -413 -117q-221 0 -334 72q-43 27 -43 88q0 59 33 250zM119 -573l-6 16q190 102 190 192q0 45 -39 84q-35 35 -35 80q0 55 33.5 86t91.5 31q67 0 106.5 -39.5t39.5 -107.5
q0 -130 -113 -215q-107 -85 -268 -127z" />
    <glyph glyph-name="uni0219" unicode="&#x219;" horiz-adv-x="856" 
d="M47 315h16q21 -112 101 -186q83 -74 170 -74q145 0 145 123q0 49 -31 89t-122 98l-62 38q-166 108 -166 267q0 166 121.5 257t341.5 91q113 0 189 -31q43 -15 43 -61q0 -18 -19 -92q-16 -62 -41 -125h-16q-40 227 -207 227q-158 0 -158 -125q0 -68 111 -145l65 -45
q85 -59 113 -84q42 -34 73 -92t31 -121q0 -161 -119.5 -256t-320.5 -95q-176 0 -258 58q-37 27 -37 67q0 87 37 217zM43 -573l-6 16q190 102 190 192q0 45 -39 84q-34 34 -34 80q0 55 33.5 86t91.5 31q67 0 106 -39t39 -108q0 -130 -113 -215q-107 -85 -268 -127z" />
    <glyph glyph-name="uni021A" unicode="&#x21a;" horiz-adv-x="1253" 
d="M831 14l-2 -14h-624l4 14q85 21 117 64q25 28 63 209l168 846q8 36 8 75q0 43 -53 43h-35q-71 0 -139 -26q-101 -44 -195 -207h-16q25 208 47 303q6 26 18 35.5t37 9.5h1059q51 0 51 -33q0 -62 -67 -315h-15q-27 181 -114 215q-41 18 -125 18h-47q-31 0 -44 -11.5
t-20 -47.5l-178 -936q-20 -97 -20 -152q0 -56 122 -90zM244 -573l-6 16q190 102 190 192q0 45 -39 84q-35 35 -35 80q0 55 33.5 86t91.5 31q67 0 106.5 -39.5t39.5 -107.5q0 -130 -113 -215q-107 -85 -268 -127z" />
    <glyph glyph-name="uni021B" unicode="&#x21b;" horiz-adv-x="712" 
d="M596 117l6 -4q0 -28 -20 -54q-15 -18 -45 -36q-82 -46 -207 -46q-244 0 -244 218q0 60 27 180l102 495h-121l15 64q88 23 135 49q59 31 102 94q48 74 86 158h160l-45 -244h186l-20 -121h-185l-116 -542q-23 -115 -23 -170q0 -35 23.5 -55.5t60.5 -20.5q61 0 123 35z
M6 -573l-6 16q190 102 190 192q0 46 -38 84q-35 35 -35 80q0 55 33.5 86t91.5 31q66 0 105.5 -39t39.5 -108q0 -130 -113 -215q-107 -85 -268 -127z" />
    <glyph glyph-name="uni0259" unicode="&#x259;" horiz-adv-x="911" 
d="M117 748l-6 4q0 23 4 43q5 19 32 59q44 59 150 113q99 51 227 51q324 0 324 -316q0 -155 -51 -317q-49 -164 -144 -264q-145 -148 -379 -148q-288 0 -288 215q0 42 12.5 83t48.5 87t91.5 79.5t150.5 56t217 22.5q16 112 16 176q0 86 -38 120t-111 34q-149 0 -256 -98z
M500 485q-142 -36 -215.5 -129.5t-73.5 -220.5q0 -84 65 -84q129 0 224 434z" />
    <glyph glyph-name="circumflex" unicode="&#x2c6;" horiz-adv-x="407" 
d="M352 1421l140 -291l-13 -10l-254 166l-311 -166l-10 10l248 300q47 59 106 59q64 0 94 -68z" />
    <glyph glyph-name="caron" unicode="&#x2c7;" horiz-adv-x="407" 
d="M47 1204l-139 291l12 10l254 -166l311 166l11 -10l-248 -299q-47 -59 -107 -59q-64 0 -94 67z" />
    <glyph glyph-name="breve" unicode="&#x2d8;" horiz-adv-x="407" 
d="M461 1493l14 -2q-56 -330 -309 -330q-236 0 -236 262q0 37 7 68l14 2q19 -84 71 -121t160 -37t171 37t108 121z" />
    <glyph glyph-name="dotaccent" unicode="&#x2d9;" horiz-adv-x="407" 
d="M344 1307q0 -69 -43 -115.5t-111 -46.5q-55 0 -89.5 34.5t-34.5 90.5q0 69 44.5 115.5t110.5 46.5q56 0 89.5 -35t33.5 -90z" />
    <glyph glyph-name="ring" unicode="&#x2da;" horiz-adv-x="407" 
d="M385 1331q0 -82 -54.5 -136t-140.5 -54q-75 0 -122.5 46.5t-47.5 119.5q0 82 56 135t141 53q78 0 123 -44.5t45 -119.5zM317 1323q0 49 -30.5 81t-77.5 32q-54 0 -86.5 -35t-32.5 -92q0 -48 29.5 -78.5t79.5 -30.5q51 0 84.5 34.5t33.5 88.5z" />
    <glyph glyph-name="ogonek" unicode="&#x2db;" horiz-adv-x="407" 
d="M385 -356l6 -6l-2 -11q-3 -24 -18 -45q-40 -49 -146 -49q-101 0 -155 46.5t-54 123.5q0 112 85 184t253 127l6 -10q-44 -41 -73 -74q-30 -32 -57 -87.5t-27 -104.5q0 -50 25.5 -79.5t72.5 -29.5q57 0 84 15z" />
    <glyph glyph-name="tilde" unicode="&#x2dc;" horiz-adv-x="407" 
d="M494 1430l16 -9q-83 -250 -209 -250q-37 0 -137 41q-79 39 -125 39q-70 0 -131 -94l-17 6q29 75 48 115q19 42 67 96q45 51 100 51q46 0 125 -43q77 -41 129 -41q43 0 69.5 18t64.5 71z" />
    <glyph glyph-name="hungarumlaut" unicode="&#x2dd;" horiz-adv-x="407" 
d="M127 1323l-311 -182l-11 12l201 299q37 52 62.5 71t64.5 19q44 0 72 -24.5t28 -67.5q0 -67 -106 -127zM483 1323l-315 -182l-10 12l202 299q37 52 62.5 71t64.5 19q44 0 72.5 -24.5t28.5 -67.5q0 -66 -105 -127z" />
    <glyph glyph-name="uni0394" unicode="&#x394;" horiz-adv-x="1536" 
d="M1038 1366l316 -1366h-1422l836 1366h270zM752 1130q-81 -150 -504 -858h680q-138 656 -176 858z" />
    <glyph glyph-name="uni03A9" unicode="&#x3a9;" horiz-adv-x="1583" 
d="M674 219l-31 -219h-493q-44 0 -61 10t-17 39q0 53 8 154q8 109 16 147h15q34 -74 88 -90q69 -16 356 -16q-169 55 -262.5 183.5t-93.5 297.5q0 291 213 492q187 178 497 178q253 0 391 -120t138 -370q0 -271 -150 -434q-136 -151 -368 -227q322 6 391 22q63 15 114 84h17
q-37 -205 -68 -303q-15 -47 -100 -47h-502l31 219q48 23 79 59t64 101q59 121 86 311q31 200 31 332q0 143 -40.5 205.5t-137.5 62.5q-155 0 -228 -184q-96 -241 -96 -600q0 -229 113 -287z" />
    <glyph glyph-name="uni03BC" unicode="&#x3bc;" horiz-adv-x="1345" 
d="M408 33l-19 -111q-36 -255 -39 -266q-9 -53 -28 -66q-45 -26 -314 -26l-6 6q195 876 231 1022q43 173 43 266q0 53 -47 68q-36 9 -67 14v10q66 27 170 41q117 19 188 19q60 0 80.5 -15.5t20.5 -58.5q0 -39 -43 -207q-105 -427 -105 -508q0 -41 43 -41q64 0 135 86
q60 72 103 262l98 463h305l-110 -559q-39 -186 -39 -258q0 -84 82 -84q17 0 63 4l2 -10q-51 -36 -156 -72q-99 -30 -180 -30q-117 0 -117 129q0 84 27 192q-104 -297 -256 -297q-53 0 -65 27z" />
    <glyph glyph-name="pi" unicode="&#x3c0;" horiz-adv-x="1431" 
d="M127 6v8q177 212 285 715h-37q-73 0 -125.5 -23.5t-106.5 -91.5l-12 7q45 191 137 294q70 76 217 76h887l-53 -262h-150l-90 -475q-8 -36 -8 -88q0 -84 70 -84q56 0 76 4l4 -10q-36 -34 -121.5 -64t-179.5 -30q-175 0 -175 163q0 50 21 152l82 432h-186
q-71 -369 -111 -502q-38 -136 -72 -182q-18 -27 -59 -45q-46 -18 -123 -18q-135 0 -170 24z" />
    <glyph glyph-name="Wgrave" unicode="&#x1e80;" horiz-adv-x="1947" 
d="M606 0h-235q-3 78 -21 317l-65 877q-9 94 -39 121q-22 22 -68 37l4 14h566l-3 -14q-63 -19 -86 -39q-22 -22 -22 -78q0 -42 18 -432q19 -412 19 -434q16 48 413 962h222q129 -885 133 -973l311 793q27 70 27 115q0 40 -41 61q-22 13 -64 25l4 14h373l-4 -14
q-18 -3 -55 -25q-40 -24 -82 -121l-398 -919l-63 -144q-30 -66 -61 -143h-232q-26 227 -72 588l-36 305l-11 80q-19 -54 -432 -973zM1085 1776l183 -308l-8 -10l-320 193q-100 57 -100 129q0 46 32.5 74t77.5 28q72 0 135 -106z" />
    <glyph glyph-name="wgrave" unicode="&#x1e81;" horiz-adv-x="1505" 
d="M375 0h-199l-31 762q-6 117 -34 139q-26 19 -80 27v12q58 27 176 49q126 27 192 27q55 0 58 -51q4 -110 4 -111q0 -30 -6 -590l288 645h226q59 -535 71 -676q77 143 146 281q117 237 117 356q0 49 -41 58q-20 7 -70 14v10q47 27 125 45q84 19 108 19q62 0 62 -37
q0 -87 -105 -287q-114 -219 -419 -692h-199l-64 616q-185 -372 -325 -616zM797 1442l157 -309l-12 -11l-295 178q-86 50 -86 119q0 50 33.5 82.5t81.5 32.5q74 0 121 -92z" />
    <glyph glyph-name="Wacute" unicode="&#x1e82;" horiz-adv-x="1947" 
d="M606 0h-235q-3 78 -21 317l-65 877q-9 94 -39 121q-22 22 -68 37l4 14h566l-3 -14q-63 -19 -86 -39q-22 -22 -22 -78q0 -42 18 -432q19 -412 19 -434q16 48 413 962h222q129 -885 133 -973l311 793q27 70 27 115q0 40 -41 61q-22 13 -64 25l4 14h373l-4 -14
q-18 -3 -55 -25q-40 -24 -82 -121l-398 -919l-63 -144q-30 -66 -61 -143h-232q-26 227 -72 588l-36 305l-11 80q-19 -54 -432 -973zM1409 1585l-356 -127l-9 12l246 273q70 76 133 76q49 0 80 -30t31 -83q0 -75 -125 -121z" />
    <glyph glyph-name="wacute" unicode="&#x1e83;" horiz-adv-x="1505" 
d="M375 0h-199l-31 762q-6 117 -34 139q-26 19 -80 27v12q58 27 176 49q126 27 192 27q55 0 58 -51q4 -110 4 -111q0 -30 -6 -590l288 645h226q59 -535 71 -676q77 143 146 281q117 237 117 356q0 49 -41 58q-20 7 -70 14v10q47 27 125 45q84 19 108 19q62 0 62 -37
q0 -87 -105 -287q-114 -219 -419 -692h-199l-64 616q-185 -372 -325 -616zM1090 1286l-332 -164l-10 11l200 297q37 52 64 72t67 20q54 0 85.5 -30t31.5 -81q0 -73 -106 -125z" />
    <glyph glyph-name="Wdieresis" unicode="&#x1e84;" horiz-adv-x="1947" 
d="M606 0h-235q-3 78 -21 317l-65 877q-9 94 -39 121q-22 22 -68 37l4 14h566l-3 -14q-63 -19 -86 -39q-22 -22 -22 -78q0 -42 18 -432q19 -412 19 -434q16 48 413 962h222q129 -885 133 -973l311 793q27 70 27 115q0 40 -41 61q-22 13 -64 25l4 14h373l-4 -14
q-18 -3 -55 -25q-40 -24 -82 -121l-398 -919l-63 -144q-30 -66 -61 -143h-232q-26 227 -72 588l-36 305l-11 80q-19 -54 -432 -973zM1157 1632q0 -68 -43 -115t-110 -47q-52 0 -87.5 35.5t-35.5 91.5q0 67 45 114.5t108 47.5q56 0 89.5 -35.5t33.5 -91.5zM1561 1632
q0 -67 -43 -114.5t-109 -47.5q-55 0 -90 35t-35 92q0 68 45 115t111 47q56 0 88.5 -35t32.5 -92z" />
    <glyph glyph-name="wdieresis" unicode="&#x1e85;" horiz-adv-x="1505" 
d="M375 0h-199l-31 762q-6 117 -34 139q-26 19 -80 27v12q58 27 176 49q126 27 192 27q55 0 58 -51q4 -110 4 -111q0 -30 -6 -590l288 645h226q59 -535 71 -676q77 143 146 281q117 237 117 356q0 49 -41 58q-20 7 -70 14v10q47 27 125 45q84 19 108 19q62 0 62 -37
q0 -87 -105 -287q-114 -219 -419 -692h-199l-64 616q-185 -372 -325 -616zM844 1307q0 -69 -42.5 -115.5t-109.5 -46.5q-55 0 -90 34.5t-35 90.5q0 67 45.5 114.5t108.5 47.5q56 0 89.5 -34.5t33.5 -90.5zM1225 1307q0 -69 -42.5 -115.5t-109.5 -46.5q-55 0 -90 34.5
t-35 90.5q0 67 45.5 114.5t108.5 47.5q56 0 89.5 -34.5t33.5 -90.5z" />
    <glyph glyph-name="Ygrave" unicode="&#x1ef2;" horiz-adv-x="1294" 
d="M877 14l-5 -14h-636l2 14q98 23 127 66q20 26 55 209l61 329l-235 601q-34 81 -68 108q-33 20 -51 25l4 14h574l-3 -14q-81 -18 -90 -27q-10 -10 -10 -25q0 -23 23 -90q157 -427 168 -469l51 72l117 162l167 233q35 50 35 82q0 22 -18 31q-32 23 -76 31l2 14h385l-2 -14
q-23 -5 -51 -19q-50 -26 -125 -116l-434 -547l-74 -391q-20 -97 -20 -160q0 -34 27.5 -57.5t99.5 -47.5zM768 1776l182 -308l-8 -10l-319 193q-101 58 -101 129q0 45 33 73.5t78 28.5q72 0 135 -106z" />
    <glyph glyph-name="ygrave" unicode="&#x1ef3;" horiz-adv-x="1026" 
d="M-203 -236h21q6 -47 34 -78.5t56 -31.5q64 0 121 51q144 116 290 305h-151l-37 766q-6 101 -31 123q-24 21 -84 27v14q53 24 181 51q129 27 194 27q40 0 49 -45q6 -35 6 -133q9 -601 9 -680q101 167 227 379q115 207 115 325q0 40 -41 58q-33 13 -66 16l-2 14
q45 23 137 45q92 21 125 21q36 0 49 -8.5t13 -32.5q0 -70 -158 -340q-137 -231 -438 -645q-192 -264 -357 -416q-90 -84 -200 -84q-95 0 -95 76q0 93 33 196zM514 1442l158 -309l-13 -11l-294 178q-86 50 -86 119q0 50 33 82.5t81 32.5q74 0 121 -92z" />
    <glyph glyph-name="endash" unicode="&#x2013;" horiz-adv-x="1169" 
d="M1108 659l-47 -235h-1000l48 235h999z" />
    <glyph glyph-name="emdash" unicode="&#x2014;" horiz-adv-x="2002" 
d="M1929 659l-51 -235h-1819l50 235h1820z" />
    <glyph glyph-name="quoteleft" unicode="&#x2018;" horiz-adv-x="460" 
d="M641 1536l8 -14q-237 -147 -237 -281q0 -50 55 -102q33 -33 40.5 -76t-7.5 -80t-53 -62.5t-89 -25.5q-85 0 -129.5 49t-44.5 135q0 129 99 240q37 42 108 88q73 48 121 70q13 7 129 59z" />
    <glyph glyph-name="quoteright" unicode="&#x2019;" horiz-adv-x="458" 
d="M78 895l-8 16q235 143 235 281q0 52 -53 102q-43 40 -43 103q0 62 40.5 100.5t110.5 38.5q84 0 128 -48t44 -134q0 -135 -100 -242q-40 -43 -108 -88q-98 -62 -246 -129z" />
    <glyph glyph-name="quotesinglbase" unicode="&#x201a;" horiz-adv-x="460" 
d="M-174 -319l-8 16q237 147 237 280q0 54 -55 103q-43 40 -43 102t41 101t111 39q84 0 128 -48.5t44 -134.5q0 -134 -101 -239q-40 -46 -108 -88q-65 -45 -117 -70q-45 -23 -129 -61z" />
    <glyph glyph-name="quotedblleft" unicode="&#x201c;" horiz-adv-x="915" 
d="M961 1477l129 59l8 -16q-238 -145 -238 -279q0 -53 55 -102q43 -40 43 -103q0 -62 -40.5 -101.5t-110.5 -39.5q-83 0 -127.5 49t-44.5 135q0 130 98 240q35 40 109 88q70 46 119 70zM641 1536l8 -16q-237 -144 -237 -279q0 -50 55 -102q33 -33 40.5 -76t-7.5 -80
t-53 -62.5t-89 -25.5q-85 0 -129.5 49t-44.5 135q0 129 99 240q37 42 108 88q73 48 121 70q13 7 129 59z" />
    <glyph glyph-name="quotedblright" unicode="&#x201d;" horiz-adv-x="915" 
d="M78 895l-8 16q235 143 235 281q0 52 -53 102q-43 40 -43 103q0 62 40.5 100.5t110.5 38.5q84 0 128 -48t44 -134q0 -135 -100 -242q-40 -43 -108 -88q-98 -62 -246 -129zM526 895l-8 16q238 148 238 281q0 49 -56 102q-33 33 -40.5 75.5t8 79t53 62t88.5 25.5
q85 0 129.5 -48t44.5 -134q0 -135 -100 -242q-39 -42 -109 -88q-93 -59 -248 -129z" />
    <glyph glyph-name="quotedblbase" unicode="&#x201e;" horiz-adv-x="915" 
d="M-174 -319l-8 16q237 147 237 280q0 54 -55 103q-43 40 -43 102t41 101t111 39q84 0 128 -48.5t44 -134.5q0 -134 -101 -239q-40 -46 -108 -88q-65 -45 -117 -70q-45 -23 -129 -61zM274 -319l-8 16q238 148 238 280q0 51 -55 103q-33 33 -40.5 75.5t7.5 79t52.5 62
t88.5 25.5q85 0 129.5 -48.5t44.5 -134.5q0 -135 -100 -239q-39 -45 -109 -88q-67 -46 -119 -70q-45 -23 -129 -61z" />
    <glyph glyph-name="dagger" unicode="&#x2020;" horiz-adv-x="1153" 
d="M670 903q-19 -176 -33 -332l-23 -299l-12 -184q-5 -51 -38.5 -84t-82.5 -33q-104 0 -104 88q0 42 20 103l56 174q103 326 170 567q-37 -13 -101 -39q-62 -25 -99 -35t-81 -10q-45 0 -73.5 27.5t-28.5 71.5q0 135 131 135q53 0 139 -47q83 -45 123 -58q-3 91 -17 187
q-14 101 -14 139q0 143 125 143q119 0 119 -98q0 -40 -31 -107q-20 -45 -63 -120q-48 -88 -70 -144l94 43q68 35 111.5 50.5t87.5 15.5q102 0 102 -105q0 -59 -33 -96t-92 -37q-30 -3 -74 10.5t-106.5 38t-101.5 35.5z" />
    <glyph glyph-name="daggerdbl" unicode="&#x2021;" horiz-adv-x="1153" 
d="M537 457q-31 -10 -103 -47q-118 -62 -186 -62q-42 0 -69 30.5t-27 84.5q0 59 30.5 95t85.5 36q46 0 86 -12q29 -8 97.5 -36t95.5 -36l76 387q-55 -16 -136 -51q-90 -37 -143 -37q-106 0 -106 113q0 58 30 94.5t84 36.5q40 0 86 -17q27 -11 95.5 -47t95.5 -45
q-4 64 -17 162q-14 109 -14 141q0 71 18 115q23 55 119 55q50 0 79.5 -25t29.5 -69q0 -46 -33 -119q-22 -50 -76 -151l-55 -109q21 9 92 43q126 66 197 66q110 0 110 -109q0 -59 -36 -97t-97 -38q-54 0 -149 39q-77 33 -125 49l-76 -387q49 12 139 47q90 37 144 37
q50 0 78 -29.5t28 -77.5q0 -65 -32.5 -102t-96.5 -37q-49 0 -90 14q-41 15 -100 50q-66 39 -80 45l18 -146q17 -129 17 -133q0 -190 -136 -190q-110 0 -110 100q0 46 26 111q15 37 64 125q62 111 72 133z" />
    <glyph glyph-name="bullet" unicode="&#x2022;" horiz-adv-x="958" 
d="M836 635q0 -159 -101 -266t-264 -107q-136 0 -225 86q-88 88 -88 227q0 163 100 263q101 104 268 104q142 0 226 -83.5t84 -223.5z" />
    <glyph glyph-name="ellipsis" unicode="&#x2026;" horiz-adv-x="2279" 
d="M500 162q0 -77 -52.5 -131t-136.5 -54q-70 0 -117 47.5t-47 120.5q0 86 51.5 140.5t135.5 54.5q78 0 122 -48.5t44 -129.5zM1219 162q0 -77 -51 -131t-134 -54q-72 0 -119 46.5t-47 121.5q0 86 52 140.5t137 54.5q77 0 119.5 -48.5t42.5 -129.5zM1948 162q0 -77 -52 -131
t-135 -54q-72 0 -119 47.5t-47 120.5q0 86 51 140.5t136 54.5q78 0 122 -48.5t44 -129.5z" />
    <glyph glyph-name="perthousand" unicode="&#x2030;" horiz-adv-x="2527" 
d="M383 -14l954 1425l88 -59l-952 -1420zM809 1100q0 -143 -45.5 -278.5t-132.5 -217.5q-94 -88 -246 -88q-264 0 -264 256q0 294 149 459q102 117 277 117q262 0 262 -248zM586 1178q0 102 -56 102q-55 0 -90 -92q-35 -91 -65 -252q-31 -164 -31 -250q0 -96 59 -96t93 98
q34 83 61 252q29 179 29 238zM1683 565q0 -143 -45.5 -277.5t-132.5 -217.5q-94 -88 -245 -88q-265 0 -265 256q0 292 150 458q102 117 276 117q262 0 262 -248zM1460 643q0 102 -55 102t-90 -92q-37 -96 -66 -252q-30 -159 -30 -249q0 -97 59 -97q58 0 92 99q35 88 62 252
q28 173 28 237zM2451 565q0 -143 -45.5 -277.5t-132.5 -217.5q-94 -88 -245 -88q-265 0 -265 256q0 292 150 458q102 117 276 117q262 0 262 -248zM2228 643q0 102 -55 102t-90 -92q-37 -96 -66 -252q-30 -159 -30 -249q0 -97 59 -97q58 0 92 99q35 88 62 252q28 173 28 237
z" />
    <glyph glyph-name="guilsinglleft" unicode="&#x2039;" horiz-adv-x="524" 
d="M92 571l432 336l11 -8l-254 -391l96 -414l-12 -6l-297 361q-17 24 -17 49q0 43 41 73z" />
    <glyph glyph-name="guilsinglright" unicode="&#x203a;" horiz-adv-x="524" 
d="M422 424l-432 -336l-10 8l253 391l-96 414l13 6l296 -360q17 -24 17 -49q0 -44 -41 -74z" />
    <glyph glyph-name="fraction" unicode="&#x2044;" horiz-adv-x="182" 
d="M-416 -14l955 1423l82 -53l-955 -1424z" />
    <glyph glyph-name="zero.superior" unicode="&#x2070;" 
d="M846 1448q0 -136 -43 -272q-43 -137 -133 -224q-94 -88 -248 -88q-264 0 -264 256q0 285 151 459q105 117 275 117q262 0 262 -248zM623 1526q0 57 -12.5 79.5t-41.5 22.5q-57 0 -92 -92q-35 -91 -65 -252q-31 -164 -31 -250q0 -96 59 -96q58 0 92 98q35 88 62 252
q29 179 29 238z" />
    <glyph glyph-name="four.superior" unicode="&#x2074;" 
d="M762 895l-4 -14h-434l4 14q54 14 78 31q37 24 55 110l8 45h-350l22 107l484 508h190q-22 -93 -53 -254l-47 -232h125l-27 -129h-121l-6 -39q-10 -58 -10 -86q0 -27 20 -36q17 -10 66 -25zM248 1210h246q40 212 71 342q-79 -95 -317 -342z" />
    <glyph glyph-name="five.superior" unicode="&#x2075;" 
d="M164 1100h10q12 -68 55.5 -115t116.5 -47q80 0 123 55t43 148q0 149 -104 149q-94 0 -164 -49l-8 6l114 434h465l-35 -168h-219q-163 3 -199 3l-40 -160q58 49 196 49q109 0 177.5 -58.5t68.5 -160.5q0 -150 -109.5 -236t-289.5 -86q-145 0 -207 39q-25 16 -25 43
q0 42 31 154z" />
    <glyph glyph-name="six.superior" unicode="&#x2076;" 
d="M410 1282q30 50 84.5 78.5t115.5 28.5q91 0 142 -52t51 -141q0 -151 -91 -241.5t-255 -90.5q-128 0 -197.5 69t-69.5 193q0 142 56 274t155 216q95 80 250 80q71 0 131 -17q64 -18 64 -55q0 -56 -33 -141h-12q-10 75 -42.5 109t-92.5 34q-98 0 -162 -94q-49 -69 -94 -250
zM387 1141q-8 -36 -8 -105q0 -98 84 -98q53 0 86 45q30 43 39.5 89.5t9.5 109.5q0 49 -21 75.5t-53 26.5q-76 0 -110 -63q-15 -24 -27 -80z" />
    <glyph glyph-name="seven.superior" unicode="&#x2077;" 
d="M852 1591l-422 -749l-135 35q192 331 424 639q-218 0 -350 -3q-57 0 -84 -30q-21 -24 -37 -66h-12q0 104 22 217q6 28 22 37.5t54 9.5h530z" />
    <glyph glyph-name="eight.superior" unicode="&#x2078;" 
d="M645 1348q148 -65 148 -218q0 -121 -101 -193.5t-262 -72.5q-134 0 -204 55.5t-70 141.5q0 144 211 196q-107 67 -107 185q0 117 88 185.5t230 68.5q121 0 185 -43t64 -115q0 -66 -44 -109.5t-138 -80.5zM397 1235q-82 -70 -82 -168q0 -60 38 -95.5t91 -35.5
q68 0 106 35.5t38 97.5q0 92 -191 166zM606 1368q72 60 72 158q0 104 -109 104q-56 0 -87 -30.5t-31 -81.5q0 -42 35.5 -77.5t119.5 -72.5z" />
    <glyph glyph-name="nine.superior" unicode="&#x2079;" 
d="M592 1272q-64 -98 -191 -98q-92 0 -146 52.5t-54 139.5q0 146 92 238t254 92q134 0 206 -62t72 -180q0 -160 -48 -297t-142 -213q-103 -80 -268 -80q-93 0 -152 27q-57 23 -57 53q0 65 32 150h13q7 -70 53.5 -113t108.5 -43q97 0 147 78q40 63 80 256zM610 1430
q8 36 8 102q0 96 -69 96q-37 0 -63.5 -26.5t-39.5 -69t-18.5 -82.5t-5.5 -78q0 -94 67 -94q71 0 97 63q18 41 24 89z" />
    <glyph glyph-name="parenleft.superior" unicode="&#x207d;" horiz-adv-x="415" 
d="M453 737l-11 -14q-256 108 -256 418q0 229 116.5 394.5t334.5 236.5l8 -17q-303 -149 -303 -651q0 -115 30.5 -218t80.5 -149z" />
    <glyph glyph-name="parenright.superior" unicode="&#x207e;" horiz-adv-x="415" 
d="M215 1757l10 15q256 -108 256 -418q0 -230 -116.5 -395t-335.5 -236l-9 16q163 79 234 256q72 179 72 396q0 115 -30.5 217.5t-80.5 148.5z" />
    <glyph glyph-name="n.superior" unicode="&#x207f;" horiz-adv-x="761" 
d="M385 817l-66 -285h-213l78 322q29 132 29 180q0 33 -14 41q-22 14 -62 17l2 10q125 35 238 35q57 0 57 -39q0 -46 -28 -152q40 80 116.5 138.5t163.5 58.5q51 0 73.5 -18t22.5 -64q0 -43 -69 -316q-21 -89 -21 -120q0 -35 47 -35q29 0 39 2l2 -10q-49 -25 -118 -41
q-81 -19 -125 -19q-70 0 -70 56q0 41 20 120q66 279 66 291q0 33 -21 33q-47 0 -96 -76q-32 -49 -51 -129z" />
    <glyph glyph-name="zero.inferior" unicode="&#x2080;" 
d="M625 252q0 -134 -43 -270q-44 -140 -133 -226q-94 -88 -248 -88q-264 0 -264 256q0 285 151 459q105 117 274 117q263 0 263 -248zM401 330q0 57 -12 79.5t-41 22.5q-57 0 -92 -92q-37 -96 -66 -252q-30 -159 -30 -250q0 -96 59 -96q58 0 92 98q35 88 62 252
q28 173 28 238z" />
    <glyph glyph-name="one.inferior" unicode="&#x2081;" 
d="M420 -301l-4 -14h-434l4 14q37 8 67 25q42 22 62 120l82 439q12 61 12 75q0 41 -49 41q-40 0 -54 -2l-2 25l359 82l10 -10l-33 -156l-26 -139l-68 -351q-8 -41 -8 -77q0 -33 18 -45q30 -21 64 -27z" />
    <glyph glyph-name="two.inferior" unicode="&#x2082;" 
d="M412 -315h-541l14 75q93 61 153 109.5t124 116.5q143 143 143 325q0 51 -28 86t-74 35q-56 0 -94 -30t-86 -109h-13q0 67 6 123q6 38 58 53q95 31 213 31q128 0 195 -54.5t67 -140.5q0 -130 -160 -258q-128 -98 -287 -186l-36 -21q126 4 309 4q55 0 80 19q29 23 59 78h12
q-4 -36 -18 -115q-13 -76 -23 -105q-6 -21 -21 -28.5t-52 -7.5z" />
    <glyph glyph-name="three.inferior" unicode="&#x2083;" 
d="M-70 -109h11q8 -63 58 -106t128 -43q162 0 162 211q0 108 -115 108h-29l15 68h39q85 0 120 59q29 56 29 134q0 110 -96 110q-112 0 -197 -143h-10q2 52 14 121q6 35 43 53q70 37 215 37q129 0 197 -47.5t68 -120.5q0 -194 -258 -228q215 -18 215 -163q0 -135 -121 -203
q-119 -70 -289 -70q-138 0 -209 41q-20 14 -20 41q0 58 30 141z" />
    <glyph glyph-name="four.inferior" unicode="&#x2084;" 
d="M541 -301l-4 -14h-435l4 14q54 14 78 31q38 24 56 110l8 45h-350l22 107l483 508h191q-22 -93 -53 -254l-47 -232h124l-26 -129h-121l-6 -39q-10 -58 -10 -86q0 -27 20 -36q17 -10 66 -25zM27 14h245q36 193 72 342q-79 -95 -317 -342z" />
    <glyph glyph-name="five.inferior" unicode="&#x2085;" 
d="M-57 -96h10q12 -68 55.5 -115t116.5 -47q80 0 123 55t43 148q0 149 -105 149q-93 0 -163 -49l-9 6l115 434h465l-35 -168h-219q-109 2 -199 2l-41 -159q58 49 197 49q109 0 177.5 -58.5t68.5 -160.5q0 -150 -110 -236t-290 -86q-144 0 -206 39q-25 16 -25 43q0 42 31 154
z" />
    <glyph glyph-name="six.inferior" unicode="&#x2086;" 
d="M188 86q30 50 85 78.5t116 28.5q91 0 142 -52t51 -141q0 -151 -91 -241.5t-255 -90.5q-128 0 -197.5 69t-69.5 193q0 142 56 274t155 216q95 80 250 80q72 0 131 -17q64 -18 64 -55q0 -56 -33 -141h-12q-10 75 -43 109t-93 34q-97 0 -161 -94q-51 -71 -95 -250zM166 -55
q-8 -36 -8 -105q0 -98 84 -98q51 0 86 47q49 67 49 197q0 49 -21 75.5t-53 26.5q-76 0 -110 -63q-15 -24 -27 -80z" />
    <glyph glyph-name="seven.inferior" unicode="&#x2087;" 
d="M631 395l-422 -749l-135 35q190 327 424 638q-263 0 -351 -2q-57 0 -84 -30q-19 -22 -36 -66h-13q0 99 23 217q6 28 22 37.5t54 9.5h530z" />
    <glyph glyph-name="eight.inferior" unicode="&#x2088;" 
d="M424 152q147 -64 147 -218q0 -121 -101 -193.5t-261 -72.5q-134 0 -204.5 55.5t-70.5 141.5q0 144 211 196q-106 66 -106 185q0 117 87.5 185.5t229.5 68.5q121 0 185.5 -43.5t64.5 -114.5q0 -66 -44 -109.5t-138 -80.5zM176 39q-82 -70 -82 -168q0 -60 38 -95.5
t91 -35.5q68 0 106 35.5t38 97.5q0 92 -191 166zM385 172q72 60 72 158q0 104 -109 104q-56 0 -87.5 -30.5t-31.5 -81.5q0 -42 35.5 -77t120.5 -73z" />
    <glyph glyph-name="nine.inferior" unicode="&#x2089;" 
d="M371 76q-65 -99 -191 -99q-92 0 -146 53t-54 140q0 146 92 238t254 92q134 0 206 -62t72 -180q0 -160 -48 -297t-142 -213q-103 -80 -269 -80q-93 0 -151 27q-57 23 -57 53q0 65 32 150h13q7 -70 53 -113t108 -43q98 0 148 78q40 63 80 256zM389 233q8 36 8 103
q0 96 -69 96q-37 0 -63.5 -26.5t-39.5 -69t-18.5 -82.5t-5.5 -78q0 -94 67 -94q71 0 97 63q18 41 24 88z" />
    <glyph glyph-name="parenleft.inferior" unicode="&#x208d;" horiz-adv-x="415" 
d="M231 -459l-10 -14q-256 108 -256 418q0 229 116.5 394t334.5 236l8 -16q-303 -149 -303 -651q0 -115 30 -218t80 -149z" />
    <glyph glyph-name="parenright.inferior" unicode="&#x208e;" horiz-adv-x="415" 
d="M-6 561l10 14q256 -108 256 -417q0 -229 -117 -394.5t-336 -236.5l-8 16q163 79 234 256t71 396q0 115 -30 217.5t-80 148.5z" />
    <glyph glyph-name="Euro" unicode="&#x20ac;" horiz-adv-x="1372" 
d="M1042 594l-20 -100h-336v-66q0 -350 213 -350q144 0 231 90q76 83 113 139l12 -4q-23 -171 -34 -211q-11 -35 -68 -63q-112 -56 -328 -56q-244 0 -377 132.5t-133 386.5v2h-168l23 100h149q8 92 29 178h-151l22 100h162q91 249 299 379q177 109 424 109q173 0 264 -45
q47 -21 47 -70q0 -61 -65 -250h-13q-14 104 -45 164q-53 96 -188 96q-147 0 -252 -141q-72 -97 -113 -242h353l-21 -100h-356q-19 -126 -23 -178h350z" />
    <glyph glyph-name="afii61289" unicode="&#x2113;" horiz-adv-x="1001" 
d="M512 672q177 102 287 252q92 127 92 266q0 41 -22.5 65.5t-59.5 24.5q-66 0 -113 -59q-82 -105 -184 -549zM809 182l10 -4q0 -2 -22 -65q-15 -44 -56 -68q-116 -72 -270 -72q-133 0 -227 64t-94 211q0 45 8 168q-106 -45 -148 -60l-30 76q143 59 192 84q69 313 137 471
q66 148 158 250q138 147 356 147q113 0 178.5 -55t65.5 -151q0 -97 -43.5 -178.5t-136.5 -170.5q-169 -155 -400 -266q-10 -50 -24 -153q-12 -108 -12 -160q0 -141 108 -141q134 0 250 73z" />
    <glyph glyph-name="trademark" unicode="&#x2122;" horiz-adv-x="1800" 
d="M627 715l-2 -10h-349l3 10q47 9 67 35q14 22 29 90l76 387q8 33 8 57q0 23 -25 23h-26q-59 0 -80 -9q-31 -11 -84 -106h-11q9 100 17 131q6 43 43 43h559q33 0 33 -31q0 -26 -27 -143h-10q-12 60 -25.5 83t-38.5 28q-54 4 -67 4h-27q-18 0 -24 -6.5t-11 -26.5l-86 -436
q-8 -41 -8 -64q0 -31 21 -43q16 -10 45 -16zM1012 715l-2 -10h-232l2 10q56 12 70 26q21 18 33 72l90 393q20 81 20 101q0 18 -10 28q-23 20 -55 23l2 8h256q16 0 26 -29q62 -257 84 -362l35 59l76 123l109 182q15 27 36 27h240l-2 -8q-49 -10 -63 -24t-25 -62
q-13 -61 -76 -430q-6 -50 -6 -58q0 -31 12 -43q11 -11 64 -26l-2 -10h-363l2 10q44 10 64 30q19 19 28 58q10 39 76 416l-295 -490h-61q-32 144 -62 277t-41.5 183.5t-11.5 51.5q-62 -325 -88 -434q-4 -36 -4 -43q0 -24 25 -37q15 -9 49 -12z" />
    <glyph glyph-name="Omega" unicode="&#x2126;" horiz-adv-x="1566" 
d="M674 219l-31 -219h-493q-44 0 -61 10t-17 39q0 53 8 154q8 109 16 147h15q34 -74 88 -90q69 -16 356 -16q-169 55 -262.5 183.5t-93.5 297.5q0 291 213 492q187 178 497 178q253 0 391 -120t138 -370q0 -271 -150 -434q-136 -151 -368 -227q322 6 391 22q63 15 114 84h17
q-37 -205 -68 -303q-15 -47 -100 -47h-502l31 219q48 23 79 59t64 101q59 121 86 311q31 200 31 332q0 143 -40.5 205.5t-137.5 62.5q-155 0 -228 -184q-96 -241 -96 -600q0 -229 113 -287z" />
    <glyph glyph-name="estimated" unicode="&#x212e;" horiz-adv-x="1734" 
d="M1683 686v-18h-1277q-11 0 -11 -11v-387q0 -15 19 -43q200 -209 483 -209q148 0 280.5 62t225.5 172h117q-109 -128 -274.5 -201.5t-350.5 -73.5q-326 0 -559 207q-230 208 -230 502q0 295 230 500q232 209 559 209q325 0 557 -209q231 -206 231 -500zM1397 719v387
q0 24 -23 47q-207 201 -477 201q-278 0 -481 -209q-21 -21 -21 -49v-377q0 -12 11 -12h978q13 0 13 12z" />
    <glyph glyph-name="onethird" unicode="&#x2153;" horiz-adv-x="1726" 
d="M940 207h10q8 -63 58.5 -106.5t128.5 -43.5q161 0 161 211q0 109 -114 109h-29l14 67h39q86 0 121 60q29 56 29 133q0 111 -96 111q-112 0 -197 -144h-10q2 52 14 121q6 35 43 53q70 37 215 37q129 0 196.5 -47.5t67.5 -120.5q0 -193 -258 -227q215 -18 215 -164
q0 -134 -121 -205q-119 -67 -288 -67q-138 0 -209 41q-21 15 -21 41q0 56 31 141zM561 547l-4 -15h-434l4 15q45 12 70 24q38 20 59 121l82 438q12 62 12 76q0 41 -49 41q-39 0 -53 -2l-2 25l358 82l10 -11l-32 -155l-27 -139l-68 -351q-9 -46 -7.5 -78.5t18.5 -44.5
q24 -16 63 -26zM328 -14l954 1423l82 -53l-954 -1424z" />
    <glyph glyph-name="twothirds" unicode="&#x2154;" horiz-adv-x="1726" 
d="M602 532h-539l15 76q164 108 276 223q144 150 144 328q0 52 -27 86.5t-70 34.5q-61 0 -99.5 -29.5t-86.5 -109.5h-12q0 73 4 123q6 35 59 53q95 31 213 31q128 0 195 -54.5t67 -140.5q0 -66 -42 -134t-117 -126q-116 -88 -293 -188q-5 -3 -16 -8.5t-15 -8.5q126 4 311 4
q57 0 82 19q21 15 56 77h12q-4 -32 -21 -112q-15 -82 -22 -107q-6 -21 -21.5 -29t-52.5 -8zM1004 207h10q8 -63 58 -106.5t128 -43.5q162 0 162 211q0 109 -115 109h-28l14 67h39q86 0 121 60q28 54 28 133q0 111 -96 111q-111 0 -197 -144h-10q2 45 15 121q6 35 43 53
q70 37 215 37q129 0 196.5 -47.5t67.5 -120.5q0 -193 -258 -227q215 -18 215 -164q0 -134 -121 -205q-119 -67 -289 -67q-138 0 -209 41q-20 14 -20 41q0 56 31 141zM403 -14l955 1423l82 -53l-955 -1424z" />
    <glyph glyph-name="oneeighth" unicode="&#x215b;" horiz-adv-x="1726" 
d="M356 -14l955 1423l82 -53l-955 -1424zM602 547l-4 -15h-434l4 15q45 12 70 24q38 20 59 121l82 438q12 62 12 76q0 41 -49 41q-39 0 -53 -2l-2 25l358 82l10 -11l-32 -155l-27 -139l-68 -351q-9 -46 -7.5 -78.5t18.5 -44.5q24 -16 63 -26zM1434 467q147 -65 147 -217
q0 -121 -101 -193.5t-261 -72.5q-134 0 -204.5 55t-70.5 141q0 145 211 197q-106 66 -106 184q0 117 87.5 185.5t229.5 68.5q121 0 185.5 -43.5t64.5 -114.5q0 -65 -44 -109t-138 -81zM1186 354q-82 -70 -82 -168q0 -60 38 -95.5t91 -35.5q68 0 105.5 35.5t37.5 97.5
q0 93 -190 166zM1395 487q71 59 71 158q0 105 -108 105q-56 0 -87.5 -31t-31.5 -82q0 -42 35.5 -77t120.5 -73z" />
    <glyph glyph-name="threeeighths" unicode="&#x215c;" horiz-adv-x="1726" 
d="M1450 467q147 -65 147 -217q0 -121 -101 -193.5t-261 -72.5q-134 0 -204 55t-70 141q0 145 210 197q-106 66 -106 184q0 117 87.5 185.5t229.5 68.5q121 0 185.5 -43.5t64.5 -114.5q0 -65 -44 -109t-138 -81zM102 739h11q8 -63 58 -106t128 -43q162 0 162 211
q0 108 -115 108h-29l15 68h39q86 0 121 59q28 54 28 133q0 111 -96 111q-112 0 -197 -143h-10q4 55 14 120q6 36 43 54q70 37 215 37q129 0 196 -46.5t67 -121.5q0 -193 -256 -228q213 -18 213 -164q0 -134 -119 -204q-121 -68 -289 -68q-140 0 -211 41q-20 14 -20 41
q0 59 32 141zM360 -14l955 1423l82 -53l-955 -1424zM1202 354q-82 -70 -82 -168q0 -60 38 -95.5t91 -35.5q68 0 106 35.5t38 97.5q0 92 -191 166zM1411 487q72 60 72 158q0 105 -109 105q-56 0 -87.5 -31t-31.5 -82q0 -42 35.5 -77t120.5 -73z" />
    <glyph glyph-name="fiveeighths" unicode="&#x215d;" horiz-adv-x="1726" 
d="M371 -14l954 1423l82 -53l-954 -1424zM137 752h13q12 -68 54.5 -115t112.5 -47q82 0 125 54.5t43 148.5q0 149 -106 149q-91 0 -158 -49l-12 6l115 434h464l-34 -168h-219q-109 2 -199 2l-41 -159q58 49 197 49q108 0 176.5 -58.5t68.5 -160.5q0 -150 -109.5 -236
t-289.5 -86q-145 0 -207 39q-25 16 -25 43q0 42 31 154zM1458 467q148 -65 148 -217q0 -121 -101 -193.5t-262 -72.5q-134 0 -204 55t-70 141q0 145 211 197q-107 67 -107 184t88 185.5t230 68.5q121 0 185 -43.5t64 -114.5q0 -65 -44 -109t-138 -81zM1210 354
q-82 -70 -82 -168q0 -60 38 -95.5t91 -35.5q68 0 106 35.5t38 97.5q0 92 -191 166zM1419 487q72 60 72 158q0 105 -109 105q-56 0 -87 -31t-31 -82q0 -42 35.5 -77.5t119.5 -72.5z" />
    <glyph glyph-name="seveneighths" unicode="&#x215e;" horiz-adv-x="1726" 
d="M297 -14l954 1423l82 -53l-954 -1424zM801 1243l-422 -749l-135 34q192 331 424 639q-263 0 -351 -2q-57 0 -84 -30q-8 -8 -36 -66h-13q0 99 23 217q6 28 22 37.5t54 9.5h528zM1376 467q148 -65 148 -217q0 -121 -101 -193.5t-262 -72.5q-134 0 -204 55t-70 141
q0 145 211 197q-107 67 -107 184t88 185.5t230 68.5q121 0 185.5 -43.5t64.5 -114.5q0 -65 -44.5 -109t-138.5 -81zM1128 354q-81 -69 -81 -168q0 -60 38 -95.5t91 -35.5q68 0 105.5 35.5t37.5 97.5q0 92 -191 166zM1337 487q72 60 72 158q0 105 -109 105q-56 0 -87 -31
t-31 -82q0 -42 35.5 -77.5t119.5 -72.5z" />
    <glyph glyph-name="arrowleft" unicode="&#x2190;" horiz-adv-x="1523" 
d="M1479 813v-250q-871 0 -971 2q14 -12 63 -61l142 -142q25 -24 205 -198l-164 -168l-703 692l709 698l160 -157l-199 -203q-89 -93 -213 -217q200 4 971 4z" />
    <glyph glyph-name="arrowup" unicode="&#x2191;" horiz-adv-x="1523" 
d="M911 0h-249q0 771 4 971l-66 -66q-64 -64 -154 -149l-202 -199l-158 162l700 708l693 -702l-168 -164q-389 395 -402 410q2 -100 2 -971z" />
    <glyph glyph-name="arrowright" unicode="&#x2192;" horiz-adv-x="1523" 
d="M90 563v250q771 0 971 -4l-66 65l-149 150q-198 204 -199 205l162 157l709 -698l-703 -692l-164 168l203 198q192 189 207 203q-100 -2 -971 -2z" />
    <glyph glyph-name="arrowdown" unicode="&#x2193;" horiz-adv-x="1523" 
d="M662 1378h249q0 -870 -2 -970q5 6 402 409l168 -164l-693 -702l-700 708l158 162l202 -200q123 -116 220 -213q-4 200 -4 970z" />
    <glyph glyph-name="uni2196" unicode="&#x2196;" horiz-adv-x="1523" 
d="M678 979l715 -692l-176 -181l-695 693q2 -43 2 -580h-235v981h997v-223h-291q-186 2 -317 2z" />
    <glyph glyph-name="uni2197" unicode="&#x2197;" horiz-adv-x="1523" 
d="M1044 799l-692 -693l-178 181l715 692h-38.5t-94.5 -0.5t-130.5 -1t-164 -0.5h-178.5v223h997v-981h-238q0 142 0.5 279.5t1 217.5t0.5 83z" />
    <glyph glyph-name="uni2198" unicode="&#x2198;" horiz-adv-x="1523" 
d="M889 408l-715 692l178 180l692 -692q0 3 -0.5 82.5t-1 217t-0.5 279.5h238v-981h-997v224h288q82 0 156.5 -0.5t116.5 -1t45 -0.5z" />
    <glyph glyph-name="uni2199" unicode="&#x2199;" horiz-adv-x="1523" 
d="M520 588l694 692l177 -180l-715 -692h96q109 2 512 2v-224h-997v981h235q0 -536 -2 -579z" />
    </font>
</defs>
</svg>
