<?xml version="1.0" standalone="no"?>
<!DOCTYPE svg PUBLIC "-//W3C//DTD SVG 1.1//EN" "http://www.w3.org/Graphics/SVG/1.1/DTD/svg11.dtd" >
<svg xmlns="http://www.w3.org/2000/svg" xmlns:xlink="http://www.w3.org/1999/xlink" version="1.1">
<metadata>
Created by FontForge 20201107 at Mon Jun 16 13:58:41 2025
 By 
Copyright (c) 2018 by Dieter Hofrichter. Alle Rechte vorbehalten. |DCNT
</metadata>
<defs>
<font id="Candide-Regular" horiz-adv-x="722" >
  <font-face 
    font-family="Candide"
    font-weight="400"
    font-stretch="normal"
    units-per-em="2048"
    panose-1="2 0 5 3 7 0 0 2 0 4"
    ascent="1538"
    descent="-510"
    x-height="985"
    cap-height="1366"
    bbox="-283 -537 2413 2011"
    underline-thickness="102"
    underline-position="-204"
    unicode-range="U+000D-FB06"
  />
<missing-glyph horiz-adv-x="1087" 
d="M1081 0h-1073v1503h1073v-1503zM180 1395l365 -547l364 547h-729zM975 1298l-367 -546l367 -547v1093zM545 655l-365 -549h729zM481 752l-366 546v-1093z" />
    <glyph glyph-name="f_f" unicode="ff" horiz-adv-x="1282" 
d="M537 10v-10h-443v10q69 20 94 60q25 39 25 186v645h-147v35q88 28 116 63q23 30 35 99q25 176 120.5 248.5t270.5 72.5q73 0 129 -16q45 -12 45 -53q0 -47 -28 -156h-13q-17 71 -59 119q-36 39 -96 39q-124 0 -170 -88q-31 -60 -31 -185q0 -58 4 -94h303q80 0 111 31
q29 29 41 119q19 170 117 240.5t270 70.5q79 0 129 -16q45 -12 45 -52q0 -47 -29 -157h-12q-16 64 -66 120q-35 35 -102 35q-110 0 -154 -84q-30 -56 -30 -217q0 -67 2 -90h217v-84h-217v-637q0 -150 24 -190q20 -33 138 -64v-10h-455v10q69 20 94 60q25 39 25 186v645h-451
v-637q0 -152 23 -190q18 -30 125 -64z" />
    <glyph glyph-name="fi" unicode="fi" horiz-adv-x="1222" 
d="M539 10v-10h-445v10q71 20 94 58q25 36 25 188v645h-147v35q95 30 118 63q24 34 41 125q35 170 149.5 246t315.5 76q121 0 201 -25q53 -18 53 -59q0 -64 -35 -186h-18q-21 101 -78 155q-48 45 -141 45q-162 0 -230 -92q-55 -70 -55 -209q0 -7 1 -44t1 -46h414
q108 19 170 19q26 0 35.5 -12.5t9.5 -45.5q0 -3 -0.5 -22t-1.5 -59t-2 -83q-2 -100 -2 -202v-344q0 -125 22 -164q27 -44 105 -62v-10h-420v10q73 25 96 64q23 38 23 162v485q0 125 -23 151q-23 29 -86 29h-340v-637q0 -149 23 -190q20 -34 127 -64z" />
    <glyph glyph-name="fl" unicode="fl" horiz-adv-x="1224" 
d="M532 10v-10h-438v10q71 20 94 58q25 36 25 188v645h-147v35q88 27 116 63q25 31 37 119q52 328 426 328q120 0 201 -35q78 35 139 35q35 0 35 -53q0 -5 -0.5 -31.5t-1.5 -80t-2 -110.5q-2 -133 -2 -229v-692q0 -152 22 -180q28 -42 103 -60v-10h-420v10q67 21 96 64
q23 33 23 170v923q0 126 -39 162q-53 47 -148 47q-133 0 -205 -78q-61 -67 -61 -243q0 -52 2 -70h252v-84h-250v-637q0 -151 25 -190q21 -35 118 -64z" />
    <glyph glyph-name="f_f_i" unicode="ffi" horiz-adv-x="1849" 
d="M537 10v-10h-443v10q69 20 94 60q25 39 25 186v645h-147v35q80 26 114 63q29 38 35 95q24 178 120.5 251.5t274.5 73.5q70 0 125 -18q29 -11 38 -20t9 -29q0 -49 -28 -158h-13q-15 67 -61 119q-36 39 -96 39q-123 0 -170 -92q-29 -63 -29 -181q0 -58 4 -94h303
q75 0 111 31q27 24 45 106q35 174 146.5 249t316.5 75q116 0 198 -29q54 -22 54 -57q0 -75 -33 -193h-23q-21 94 -82 158q-51 51 -139 51q-157 0 -225 -92q-49 -67 -49 -199q0 -38 4 -100h411q108 19 170 19q29 0 38.5 -12.5t9.5 -45.5q0 -2 -1 -21.5t-2 -59t-2 -83.5
q-2 -100 -2 -202v-344q0 -120 23 -164q24 -44 104 -62v-10h-419v10q80 28 94 64q22 36 22 162v485q0 125 -20 151q-23 29 -88 29h-340v-637q0 -151 26 -190q21 -35 121 -64v-10h-440v10q69 20 94 60q25 39 25 186v645h-451v-639q0 -154 25 -190q18 -28 123 -62z" />
    <glyph glyph-name="f_f_l" unicode="ffl" horiz-adv-x="1851" 
d="M537 10v-10h-443v10q69 20 94 60q25 39 25 186v645h-147v35q80 26 114 63q28 36 37 99q28 176 123 248.5t268 72.5q70 0 129 -18q45 -15 45 -49q0 -49 -28 -158h-13q-17 71 -59 119q-36 39 -98 39q-119 0 -168 -88q-31 -64 -31 -183q0 -14 4 -96h303q80 0 111 31
q28 25 43 117q31 167 139.5 240t290.5 73q125 0 197 -35q78 35 137 35q35 0 35 -51q0 -12 -1 -42.5t-2 -84.5t-2 -109q-2 -127 -2 -217v-692q0 -151 25 -182q29 -39 102 -58v-10h-422v10q79 28 97 62q22 39 22 172v925q0 132 -37 162q-45 45 -145 45q-145 0 -209 -76
q-57 -63 -57 -239q0 -62 2 -76h248v-84h-250v-637q0 -150 24 -190q21 -29 123 -64v-10h-440v10q69 20 94 60q25 39 25 186v645h-451v-637q0 -154 25 -190q21 -34 123 -64z" />
    <glyph glyph-name="f_b" unicode="fb" horiz-adv-x="1800" 
d="M532 10v-10h-438v10q70 21 94 58q25 36 25 188v645h-147v35q91 28 116 63q25 31 37 117q28 179 134.5 254.5t299.5 75.5q102 0 183 -35q75 35 137 35q35 0 35 -53q0 -12 -0.5 -44t-1.5 -93t-2 -119q-4 -299 -5 -328q26 84 121 145q97 60 207 60q383 0 383 -504
q0 -253 -125.5 -391.5t-343.5 -138.5q-107 0 -209 30q-95 31 -108 31q-50 0 -90 -94l-15 2q6 74 6 307v913q0 123 -37 160q-53 47 -145 47q-131 0 -197 -78q-61 -70 -61 -231q0 -46 4 -82h250v-84h-250v-637q0 -150 25 -192q25 -35 118 -62zM1001 649v-422q0 -74 23 -104
q26 -30 82.5 -51t120.5 -21q137 0 213 108t76 316q0 434 -263 434q-108 0 -188 -71q-39 -29 -51 -70q-13 -37 -13 -119z" />
    <glyph glyph-name="f_f_b" unicode="ffb" horiz-adv-x="2426" 
d="M537 10v-10h-443v10q69 20 94 60q25 39 25 186v645h-147v35q86 26 118 63q28 36 37 99q24 178 118.5 249.5t274.5 71.5q63 0 119 -16q49 -15 49 -51q0 -49 -28 -158h-13q-21 79 -61 119q-36 39 -105 39q-110 0 -159 -88q-31 -57 -31 -193q0 -50 4 -86h305q75 0 111 31
q23 23 43 119q34 170 139.5 240.5t292.5 70.5q103 0 178 -35q87 35 144 35q19 0 24.5 -10t5.5 -43q0 -66 -2 -129q0 -140 -2 -230t-2 -225q29 88 121.5 146.5t204.5 58.5q383 0 383 -504q0 -253 -125 -391.5t-342 -138.5q-123 0 -211 32q-95 29 -107 29q-52 0 -92 -94l-12 2
q4 66 4 307v913q0 126 -39 162q-51 45 -133 45q-140 0 -207 -76q-59 -65 -59 -239v-35q2 -20 2 -41h250v-84h-250v-639q0 -154 24 -188q21 -29 138 -64v-10h-455v10q68 21 94 60q25 42 25 186v645h-451v-637q0 -154 25 -190q21 -34 123 -64zM1626 649v-422q0 -66 23 -104
q25 -31 81.5 -51.5t122.5 -20.5q137 0 212 108t75 316q0 227 -65.5 330.5t-196.5 103.5q-111 0 -188 -71q-37 -37 -50 -70q-14 -41 -14 -119z" />
    <glyph glyph-name="f_f_h" unicode="ffh" horiz-adv-x="2480" 
d="M537 10v-10h-443v10q69 20 94 60q25 39 25 186v645h-147v35q86 26 118 63q28 36 37 97q19 173 116 248t267 75q74 0 133 -18q29 -10 37 -19t8 -30q0 -49 -28 -158h-13q-18 76 -61 119q-36 39 -96 39q-119 0 -168 -88q-31 -57 -31 -193q0 -40 4 -86h305q75 0 111 31
q21 21 41 119q37 170 144 240.5t290 70.5q112 0 190 -35q81 35 140 35q35 0 35 -53q0 -21 -1 -87.5t-2.5 -214.5t-3.5 -282q43 92 140.5 147.5t216.5 55.5q222 0 268 -166q21 -73 21 -244v-344q0 -153 26 -192q23 -33 103 -58v-8h-422v8q68 20 94 64q22 42 22 188v322
q0 201 -49 256q-52 61 -155 61q-109 0 -189 -57q-48 -36 -63 -88q-13 -44 -13 -115v-391q0 -136 25 -178q27 -41 102 -62v-8h-422v8q78 28 97 64q22 39 22 172v925q0 126 -37 160q-53 47 -145 47q-138 0 -209 -71q-59 -65 -59 -252q0 -3 1 -33t1 -35h250v-84h-250v-637
q0 -150 24 -190q21 -29 123 -64v-10h-440v10q69 20 94 60q25 39 25 186v645h-451v-637q0 -154 25 -190q21 -34 123 -64z" />
    <glyph glyph-name="f_f_j" unicode="ffj" horiz-adv-x="1830" 
d="M537 10v-10h-443v10q69 20 94 60q25 39 25 186v645h-147v35q88 28 116 63q23 30 35 101q27 187 127 252q98 67 266 67q67 0 123 -16q49 -15 49 -51q0 -49 -28 -158h-13q-15 67 -61 119q-36 39 -100 39q-121 0 -164 -88q-31 -64 -31 -187q0 -56 4 -92h303q75 0 111 31
q26 23 41 106q36 171 148.5 247.5t316.5 76.5q118 0 200 -29q50 -15 50 -57q0 -75 -33 -193h-23q-24 95 -80 154q-52 55 -157 55q-141 0 -205 -88q-51 -68 -51 -211q0 -26 4 -92h409q108 19 172 19q26 0 36.5 -13t10.5 -45l-4 -143q-2 -96 -2 -246v-244q2 -111 2 -258
q0 -163 -14 -243q-12 -87 -49 -150q-36 -65 -105.5 -103t-158.5 -38q-73 0 -113 16q-37 15 -37 49q0 56 21 142h14q24 -134 125 -134q74 0 102 60q35 72 35 459v608q0 126 -22 151q-23 29 -86 29h-336v-637q0 -151 26 -190q21 -35 121 -64v-10h-440v10q69 20 94 60
q25 39 25 186v645h-451v-639q0 -154 25 -190q18 -28 123 -62z" />
    <glyph glyph-name="f_f_k" unicode="ffk" horiz-adv-x="2377" 
d="M537 10v-10h-443v10q69 20 94 60q25 39 25 186v645h-147v35q77 24 114 61q28 28 37 103q24 172 120 245.5t263 73.5q77 0 133 -16q29 -11 39 -21t10 -30q0 -49 -28 -158h-13q-18 76 -61 119q-36 39 -102 39q-111 0 -160 -88q-33 -56 -33 -179q0 -54 4 -100h305
q80 0 111 31q28 28 43 119q34 171 138.5 241t291.5 70q107 0 192 -33q85 33 144 33q19 0 26 -9.5t7 -39.5q0 -1 -1 -30t-2 -89.5t-2 -130.5l-2 -132t-1.5 -100t-0.5 -45v-366q145 125 269 258q88 94 88 139q0 50 -103 74v10h389v-10q-54 -12 -102 -51l-49 -43l-62 -60
l-213 -205q281 -426 406 -542q39 -39 111 -54v-8q-88 -18 -203 -18q-95 0 -152 78q-145 189 -288 436l-91 -80v-176q0 -146 25 -182q30 -41 102 -62v-8h-422v8q70 27 97 64q22 36 22 174v923q0 126 -37 160q-53 47 -145 47q-138 0 -209 -71q-61 -64 -61 -242q0 -42 4 -78
h250v-84h-250v-637q0 -150 24 -190q21 -29 123 -64v-10h-440v10q69 20 94 60q25 39 25 186v645h-451v-637q0 -154 25 -190q21 -34 123 -64z" />
    <glyph glyph-name="f_h" unicode="fh" horiz-adv-x="1855" 
d="M532 10v-10h-438v10q71 20 94 58q25 36 25 188v645h-147v35q94 35 116 63q25 31 37 119q30 179 136.5 253.5t295.5 74.5q114 0 195 -35q84 35 139 35q35 0 35 -47q0 -2 -0.5 -30.5t-1.5 -90t-2 -131.5q-2 -158 -2 -338q41 92 138 147.5t218 55.5q217 0 266 -166
q23 -84 23 -240v-348q0 -158 27 -192q21 -34 100 -58v-8h-420v8q66 21 94 64q21 35 21 188v322q0 198 -49 256q-52 61 -154 61q-119 0 -191 -57q-45 -29 -63 -88q-10 -33 -10 -115v-393q0 -142 22 -178q25 -38 103 -60v-8h-420v8q76 28 96 64q23 38 23 172v921
q0 128 -39 164q-53 47 -150 47q-131 0 -203 -78q-61 -70 -61 -241q0 -52 2 -72h252v-84h-250v-641q0 -144 25 -186q21 -35 118 -64z" />
    <glyph glyph-name="f_j" unicode="fj" horiz-adv-x="1198" 
d="M532 10v-10h-438v10q70 21 94 58q25 36 25 188v645h-147v35q96 28 118 63q22 31 37 121q30 174 145 250t328 76q104 0 183 -27q55 -21 55 -61q0 -73 -33 -191h-22q-22 98 -80 162q-44 47 -133 47q-155 0 -222 -88q-55 -67 -55 -207q0 -84 2 -96h406q108 19 170 19
q26 0 35.5 -12.5t9.5 -45.5q0 -2 -0.5 -19.5t-1.5 -54.5t-2 -79q-2 -96 -2 -213q0 -150 2 -271t2 -256q0 -157 -15 -243q-12 -87 -49 -150q-83 -139 -264 -139q-70 0 -113 16q-35 15 -35 49q0 68 21 142h12q27 -134 125 -134q77 0 105 60q32 60 32 381v686q0 131 -20 151
q-23 29 -86 29h-332v-637q0 -149 23 -190q23 -37 120 -64z" />
    <glyph glyph-name="f_k" unicode="fk" horiz-adv-x="1751" 
d="M532 10v-10h-438v10q70 21 94 58q25 36 25 188v645h-147v35q88 27 116 63q22 28 37 117q13 78 42 136.5t67.5 95t91.5 59t109 31t126 8.5q113 0 191 -35q72 35 139 35q35 0 35 -53q0 -2 -0.5 -30t-1.5 -88.5t-2 -129.5q-2 -158 -2 -275v-366q109 93 266 256q88 98 88 141
q0 53 -100 74v10h387v-10q-46 -13 -92 -47q-20 -13 -121 -107l-211 -205q284 -432 403 -542q43 -39 111 -54v-8q-71 -18 -203 -18q-91 0 -151 78q-142 189 -287 436l-90 -80v-176q0 -151 24 -186q27 -40 103 -58v-8h-422v8q77 27 96 64q23 41 23 184v913q0 124 -39 160
q-53 47 -152 47q-134 0 -201 -76q-61 -67 -61 -245q0 -52 2 -70h252v-84h-250v-637q0 -151 25 -190q24 -37 118 -64z" />
    <glyph glyph-name=".notdef" horiz-adv-x="1087" 
d="M1081 0h-1073v1503h1073v-1503zM180 1395l365 -547l364 547h-729zM975 1298l-367 -546l367 -547v1093zM545 655l-365 -549h729zM481 752l-366 546v-1093z" />
    <glyph glyph-name=".null" horiz-adv-x="0" 
 />
    <glyph glyph-name="nonmarkingreturn" horiz-adv-x="682" 
 />
    <glyph glyph-name="NULL" horiz-adv-x="0" 
 />
    <glyph glyph-name="NULL" horiz-adv-x="0" 
 />
    <glyph glyph-name="CR" unicode="&#xd;" horiz-adv-x="450" 
 />
    <glyph glyph-name="space" unicode=" " horiz-adv-x="475" 
 />
    <glyph glyph-name="exclam" unicode="!" horiz-adv-x="567" 
d="M332 426h-29q-9 98 -41 356q-53 445 -53 473q0 134 113 134q112 0 112 -129q0 -30 -16 -158l-43 -318q-31 -222 -43 -358zM438 100q0 -55 -33.5 -89t-87.5 -34q-53 0 -86 33q-35 35 -35 90.5t35 87.5q26 26 64 32t70.5 -5.5t54.5 -42.5t18 -72z" />
    <glyph glyph-name="quotedbl" unicode="&#x22;" horiz-adv-x="702" 
d="M193 903h-27q-9 70 -27 176q-43 271 -43 283q0 104 90 104t90 -104q0 -13 -16 -98l-37 -187q-20 -104 -30 -174zM522 903h-26q-9 70 -27 176q-43 271 -43 283q0 104 90 104q92 0 92 -104q0 -14 -16 -96l-37 -189q-31 -159 -33 -174z" />
    <glyph glyph-name="numbersign" unicode="#" horiz-adv-x="1269" 
d="M442 414l-65 -449h-64l68 449h-244v141h264l39 260h-247v141h270l61 416h64l-64 -416h312l61 416h64l-64 -416h236v-141h-256l-39 -260h239v-141h-262l-65 -449h-64l68 449h-312zM813 815h-309l-39 -260h309z" />
    <glyph glyph-name="dollar" unicode="$" horiz-adv-x="1069" 
d="M602 -10v-183h-65v177h-35q-184 0 -297 61q-62 35 -62 82q0 89 15 184h18q27 -98 100 -168q98 -88 259 -88h2v516l-11 7l-98 49q-137 71 -192.5 155.5t-55.5 202.5q0 139 90 233.5t267 116.5v201h65v-195q8 2 41 2q155 0 244 -30q38 -12 50.5 -26t12.5 -44
q0 -59 -28 -190h-19q-26 110 -86 164q-69 57 -199 57h-16v-502l78 -37q172 -83 231 -168q62 -83 62 -205q0 -154 -95 -251.5t-276 -120.5zM811 283q0 87 -43 139q-44 53 -166 117v-480q101 18 155 81t54 143zM340 1051q0 -79 37 -131q38 -50 160 -115v463q-97 -19 -147 -75
t-50 -142z" />
    <glyph glyph-name="percent" unicode="%" horiz-adv-x="1691" 
d="M694 930q0 -195 -79.5 -304.5t-229.5 -109.5q-164 0 -236.5 106.5t-72.5 313.5q0 196 83.5 304t233.5 108q161 0 231 -105.5t70 -312.5zM551 926q0 204 -33.5 285t-124.5 81q-170 0 -170 -342q0 -201 37.5 -289t128.5 -88q162 0 162 353zM471 -31l690 1428l66 -29
l-688 -1427zM1616 397q0 -194 -80.5 -303.5t-228.5 -109.5q-165 0 -238.5 106.5t-73.5 312.5q0 195 85 303.5t235 108.5q161 0 231 -105.5t70 -312.5zM1470 397q0 206 -33.5 284.5t-125.5 78.5q-168 0 -168 -342q0 -200 38.5 -288.5t129.5 -88.5q159 0 159 356z" />
    <glyph glyph-name="ampersand" unicode="&#x26;" horiz-adv-x="1488" 
d="M1466 143l11 -10q-134 -158 -244 -158q-64 0 -118 31t-136 111q-159 -144 -395 -144q-235 0 -361 117q-123 117 -123 289q0 268 334 385q-100 147 -100 293q0 151 104 243.5t295 92.5q133 0 209 -29q68 -24 68 -78q0 -59 -31 -186h-14q-29 102 -80 162q-53 59 -154 59
t-161 -53.5t-60 -153.5q0 -124 121 -301q68 -99 198 -252q130 -154 234 -258q39 51 74 143q32 85 32 154q0 56 -49 80q-47 23 -84 31v12h410v-12q-33 -10 -72 -33q-53 -35 -82 -100q-93 -224 -174 -318q84 -84 136.5 -117.5t109.5 -33.5q50 0 102 34zM922 172
q-112 109 -244 268q-155 190 -207 269q-176 -80 -176 -265q0 -156 102 -258q100 -100 267 -100q158 0 258 86z" />
    <glyph glyph-name="quotesingle" unicode="'" horiz-adv-x="372" 
d="M193 903h-27q-9 70 -27 176q-43 271 -43 283q0 104 90 104t90 -102q0 -13 -16 -98l-37 -189q-20 -104 -30 -174z" />
    <glyph glyph-name="parenleft" unicode="(" horiz-adv-x="600" 
d="M588 -240l-6 -12q-490 170 -490 891q0 279 117 500q119 222 375 334l6 -13q-340 -214 -340 -817q0 -686 338 -883z" />
    <glyph glyph-name="parenright" unicode=")" horiz-adv-x="600" 
d="M12 1460l4 13q492 -169 492 -891q0 -283 -119 -502q-117 -221 -373 -332l-6 12q340 214 340 818q0 685 -338 882z" />
    <glyph glyph-name="asterisk" unicode="*" horiz-adv-x="790" 
d="M397 774q-67 0 -67 64q0 20 6 47l51 188q-29 -27 -70 -67.5t-66 -64.5t-36 -32q-22 -16 -47 -16q-28 0 -46 22t-18 52q0 36 33 53q19 11 103 33q52 13 133 41q-38 13 -92 29t-91.5 27.5t-48.5 16.5q-35 15 -35 56q0 27 20 49t48 22q23 0 45 -16l39 -33q13 -12 58.5 -58.5
t70.5 -70.5q-11 45 -26 102t-23 88.5t-8 43.5q0 67 71 67q66 0 66 -65q0 -20 -6 -47q-4 -18 -23.5 -88.5t-27.5 -100.5q38 33 77.5 72.5l63 63t33.5 30.5q21 12 39 12q30 0 48.5 -20.5t18.5 -48.5q0 -38 -33 -58q-13 -7 -46.5 -17t-89 -26t-97.5 -30q39 -12 93.5 -28
t89 -26.5t46.5 -15.5q37 -15 37 -51q0 -33 -19.5 -55t-43 -22.5t-43.5 13.5q-13 9 -38 32t-65 62.5t-73 69.5l28 -102q31 -97 31 -131q0 -66 -70 -66z" />
    <glyph glyph-name="plus" unicode="+" horiz-adv-x="1302" 
d="M711 496v-426h-121v426h-412v120h412v424h121v-424h413v-120h-413z" />
    <glyph glyph-name="comma" unicode="," horiz-adv-x="501" 
d="M80 -319l-10 18q180 131 180 254q0 46 -49 80q-60 42 -60 92q0 47 31 76.5t80 29.5q63 0 98 -43.5t35 -124.5q0 -106 -84 -208.5t-221 -173.5z" />
    <glyph glyph-name="hyphen" unicode="-" horiz-adv-x="694" 
d="M598 598v-133h-504v133h504z" />
    <glyph glyph-name="period" unicode="." horiz-adv-x="487" 
d="M371 100q0 -55 -33.5 -89t-87.5 -34q-53 0 -86 33q-35 35 -35 90.5t35 87.5q26 26 64 32t70.5 -5.5t54.5 -42.5t18 -72z" />
    <glyph glyph-name="slash" unicode="/" horiz-adv-x="841" 
d="M801 1481l-705 -1626l-76 26l709 1626z" />
    <glyph glyph-name="zero" unicode="0" horiz-adv-x="1097" 
d="M1026 659q0 -325 -122.5 -505.5t-354.5 -180.5q-272 0 -381 199q-94 181 -94 500q0 326 127.5 503t361.5 177q271 0 371 -199q50 -96 71 -213t21 -281zM819 651q0 341 -53 486q-52 143 -209 143q-278 0 -278 -588q0 -339 59 -493q59 -152 217 -152q135 0 199.5 144.5
t64.5 459.5z" />
    <glyph glyph-name="one" unicode="1" horiz-adv-x="1097" 
d="M797 10v-10h-486v10q51 12 95 33q61 30 61 160v823q0 136 -14 168q-14 39 -78 39q-62 0 -80 -2l-4 24l356 103l15 -15q-7 -171 -7 -489v-651q0 -81 12 -111.5t46 -48.5q23 -13 84 -33z" />
    <glyph glyph-name="two" unicode="2" horiz-adv-x="1097" 
d="M891 0h-828v90q412 315 547 531q64 102 87.5 178t23.5 164q0 315 -262 315q-114 0 -182.5 -55t-110.5 -174h-12q-23 135 -23 170q0 54 70 81q113 52 305 52q211 0 315.5 -97.5t104.5 -273.5q0 -189 -159.5 -382.5t-514.5 -438.5q121 0 252 2q262 4 291 4q69 0 102 33
q27 27 76 120h14q0 -147 -18 -270q-5 -30 -19.5 -39.5t-58.5 -9.5z" />
    <glyph glyph-name="three" unicode="3" horiz-adv-x="1097" 
d="M104 291h13q28 -109 113.5 -176.5t220.5 -67.5q141 0 211.5 90t70.5 244q0 135 -79 210t-220 75h-51v61h53q269 0 269 297q0 120 -61.5 186t-182.5 66q-116 0 -184 -50.5t-109 -168.5h-12q-19 100 -19 155q0 53 60 84q109 56 309 56q197 0 298 -83.5t101 -234.5
q0 -130 -69 -211t-230 -116q174 -23 253 -103.5t79 -222.5q0 -194 -128.5 -301t-358.5 -107q-197 0 -310 64q-51 29 -51 80q0 73 14 174z" />
    <glyph glyph-name="four" unicode="4" horiz-adv-x="1097" 
d="M987 10v-10h-483v10q70 15 106 41q49 37 49 146v168h-608v96l660 891h139q-4 -410 -4 -424v-434h207v-129h-207v-172q0 -114 55 -148q26 -13 86 -35zM168 494h491q0 548 3 686q-61 -92 -494 -686z" />
    <glyph glyph-name="five" unicode="5" horiz-adv-x="1097" 
d="M127 289h14q24 -101 111 -165.5t217 -64.5q140 0 215.5 89.5t75.5 254.5q0 326 -279 326q-145 0 -282 -76l-11 9l72 663h649v-168h-393q-129 2 -205 2l-39 -371q103 62 263 62q203 0 317.5 -103.5t114.5 -316.5t-131 -335t-359 -122q-211 0 -317 68q-49 34 -49 80
q4 81 16 168z" />
    <glyph glyph-name="six" unicode="6" horiz-adv-x="1097" 
d="M297 623q37 93 127.5 148.5t206.5 55.5q180 0 276.5 -103t96.5 -298q0 -194 -115 -324q-114 -129 -311 -129q-229 0 -345 162t-116 457q0 242 69 422q59 156 180 247t308 91q145 0 223 -35q61 -27 61 -68q0 -44 -30 -170h-13q-25 105 -83 153t-168 48q-175 0 -268 -172.5
t-99 -484.5zM573 49q113 0 175.5 91t62.5 276q0 152 -62.5 228.5t-175.5 76.5q-147 0 -223 -113q-39 -53 -39 -157q0 -103 21 -189q25 -92 87.5 -152.5t153.5 -60.5z" />
    <glyph glyph-name="seven" unicode="7" horiz-adv-x="1097" 
d="M483 -35l-147 25q184 485 534 1169q-9 0 -73.5 -0.5t-201 -1.5t-286.5 -2q-101 0 -129 -31t-55 -116h-12q-17 139 -17 264q0 29 14.5 41t49.5 12h825v-92q-272 -655 -502 -1268z" />
    <glyph glyph-name="eight" unicode="8" horiz-adv-x="1097" 
d="M672 737q323 -126 323 -381q0 -174 -127 -280q-127 -103 -331 -103q-205 0 -318 94.5t-113 247.5q0 117 76.5 208.5t214.5 133.5q-237 129 -237 344q0 158 110 252q114 99 295 99q188 0 282.5 -76.5t94.5 -216.5q0 -208 -270 -322zM444 631q-190 -114 -190 -309
q0 -127 81 -200t204 -73t198.5 69t75.5 179t-80 184q-76 73 -289 150zM625 762q178 117 178 287q0 110 -59 168.5t-175 58.5q-115 0 -177 -59t-62 -158q0 -93 59 -158q64 -67 236 -139z" />
    <glyph glyph-name="nine" unicode="9" horiz-adv-x="1097" 
d="M799 702q-39 -93 -126.5 -148.5t-201.5 -55.5q-179 0 -277 103.5t-98 297.5q0 192 121 322q120 129 324 129q440 0 440 -617q0 -320 -113 -528q-61 -111 -173 -171.5t-263 -60.5q-150 0 -237 37q-60 28 -60 68q0 45 29 180h12q50 -209 266 -209q348 0 357 653zM788 879
q0 403 -247 403q-116 0 -185 -91.5t-69 -275.5q0 -155 64.5 -234t176.5 -79q70 0 129.5 32t92.5 83q38 52 38 162z" />
    <glyph glyph-name="colon" unicode=":" horiz-adv-x="526" 
d="M410 102q0 -57 -32.5 -91t-86.5 -34q-52 0 -85.5 34t-33.5 89q0 57 33.5 91t87.5 34t85.5 -33.5t31.5 -89.5zM410 846q0 -56 -32.5 -90.5t-86.5 -34.5q-38 -4 -68 19t-42.5 57.5t-7 73t31.5 63.5q27 26 65 32t70 -5.5t53 -42.5t17 -72z" />
    <glyph glyph-name="semicolon" unicode=";" horiz-adv-x="526" 
d="M121 -319l-10 18q180 134 180 254q0 53 -49 80q-60 42 -60 92q0 47 30.5 76.5t78.5 29.5q63 0 99 -44.5t36 -123.5q0 -106 -84 -208.5t-221 -173.5zM410 846q0 -56 -32.5 -90.5t-86.5 -34.5q-38 -4 -68 19t-42.5 57.5t-7 73t31.5 63.5q27 26 65 32t70 -5.5t53 -42.5
t17 -72z" />
    <glyph glyph-name="less" unicode="&#x3c;" horiz-adv-x="1302" 
d="M1044 231v-141l-827 402v118l827 408v-137l-694 -328z" />
    <glyph glyph-name="equal" unicode="=" horiz-adv-x="1302" 
d="M184 309v121h934v-121h-934zM184 682v119h934v-119h-934z" />
    <glyph glyph-name="greater" unicode="&#x3e;" horiz-adv-x="1302" 
d="M260 877v141l823 -402v-120l-823 -406v137l690 328z" />
    <glyph glyph-name="question" unicode="?" horiz-adv-x="888" 
d="M336 422h-25q-20 114 -20 141q0 74 28 125q25 46 130 137q126 108 126 267q0 225 -196 225q-93 0 -147.5 -49t-81.5 -146h-11q-18 88 -18 156q0 49 61 76q93 37 230 37q182 0 275 -75t93 -214q0 -102 -55 -178q-50 -73 -197 -174q-97 -66 -133.5 -106.5t-46.5 -94.5
q-6 -29 -12 -127zM465 100q0 -56 -33.5 -89.5t-89.5 -33.5q-53 0 -86 33q-33 36 -33 91t35 87q26 26 64 32t70.5 -5.5t54.5 -42.5t18 -72z" />
    <glyph glyph-name="at" unicode="@" horiz-adv-x="1521" 
d="M1266 -31l20 -43q-232 -143 -516 -143q-301 0 -483 176q-178 175 -178 461q0 331 208 545q212 215 541 215q267 0 414 -141t147 -394q0 -210 -131 -375q-132 -164 -278 -164q-123 0 -123 123q0 85 22 162q-75 -137 -160.5 -208.5t-160.5 -71.5q-152 0 -152 188
q0 117 64 266q65 151 159 230q95 77 238 77q141 0 246 -45q-45 -72 -125 -450q-14 -71 -14 -137q0 -68 55 -68q83 0 186 145q101 146 101 322q0 229 -128.5 358t-365.5 129q-282 0 -469 -196q-188 -197 -188 -508q0 -278 161 -426q166 -152 435 -152q146 0 251 31
q105 30 224 94zM997 770q0 30 -36 39q-52 10 -87 10q-76 0 -141 -59q-67 -64 -119 -201q-51 -134 -51 -235q0 -121 74 -121q75 0 154 84.5t133 220.5q32 83 65 213q8 24 8 49z" />
    <glyph glyph-name="A" unicode="A" horiz-adv-x="1345" 
d="M383 10v-10h-373v10q51 12 82 43q46 46 82 144l322 860q51 132 112 309h135l107 -295l315 -868q41 -111 78 -150q29 -29 90 -43v-10h-477v10q58 11 92 35q29 19 29 55q0 32 -27 109l-96 272h-477l-94 -272q-25 -77 -25 -115q0 -35 39 -55q45 -22 86 -29zM403 557h424
q-106 301 -108 307l-70 203l-33 100q-12 -39 -32 -96l-72 -203q-21 -57 -61.5 -173.5t-47.5 -137.5z" />
    <glyph glyph-name="B" unicode="B" horiz-adv-x="1251" 
d="M625 0h-510v10q91 31 112 58q27 34 27 163v922q0 113 -31 152q-33 33 -108 51v10h487q187 0 293 -41q88 -36 137 -108t49 -173q0 -256 -282 -321q168 -13 261 -104t93 -230q0 -266 -233 -348q-118 -41 -295 -41zM449 1214v-464h96q108 0 176 22q153 52 153 254
q0 178 -116 236q-65 30 -170 30h-76q-36 0 -49.5 -16.5t-13.5 -61.5zM543 680h-94v-537q0 -59 51 -65q46 -6 135 -6q299 0 299 319q0 212 -195 268q-74 21 -196 21z" />
    <glyph glyph-name="C" unicode="C" horiz-adv-x="1294" 
d="M1188 260h12q-3 -106 -20 -170q-9 -37 -78 -65q-128 -52 -324 -52q-329 0 -501.5 185.5t-172.5 525.5q0 342 182.5 525.5t530.5 183.5q200 0 324 -47q65 -27 65 -76q0 -65 -37 -201h-12q-22 101 -72 156q-89 92 -278 92q-232 0 -357.5 -156.5t-125.5 -460.5
q0 -307 128.5 -477t376.5 -170q144 0 236 62q73 49 123 145z" />
    <glyph glyph-name="D" unicode="D" horiz-adv-x="1478" 
d="M635 0h-520v10q64 19 88.5 34.5t34.5 43.5q16 46 16 203v784q0 167 -18 207q-18 50 -121 74v10h555q301 0 450 -94q256 -164 256 -551q0 -721 -741 -721zM449 1126v-856q0 -107 10 -137q8 -31 39 -45q50 -16 141 -16q266 0 393 153.5t127 481.5q0 307 -137 456
q-114 129 -401 129q-124 0 -152 -28q-20 -20 -20 -138z" />
    <glyph glyph-name="E" unicode="E" horiz-adv-x="1126" 
d="M983 0h-868v10q69 23 108 53q31 28 31 170v908q0 132 -27 159q-29 32 -112 56v10h835q29 0 38 -9t9 -36q0 -35 -18 -211h-12q-24 83 -51.5 120t-67.5 48q-41 12 -133 12h-207q-35 0 -47 -13.5t-12 -49.5v-477h159q104 0 160 12q51 10 74.5 37t42.5 94h12v-356h-12
q-14 64 -42 92.5t-89 38.5q-40 6 -144 6h-161v-496q0 -58 19 -79t79 -21h225q129 0 178 43q47 38 101 168h12q-10 -208 -14 -238q-5 -31 -17.5 -41t-48.5 -10z" />
    <glyph glyph-name="F" unicode="F" horiz-adv-x="1064" 
d="M610 10v-10h-495v10q85 21 116 66q23 41 23 188v885q0 127 -27 154q-33 33 -112 53v10h833q31 0 40 -9t9 -38q0 -69 -18 -207h-12q-24 87 -49.5 122t-65.5 46q-48 10 -135 10h-209q-35 0 -47 -12.5t-12 -48.5v-498h180q94 0 149 10q53 12 76 38.5t41 90.5h12v-350h-12
q-14 64 -41 91.5t-88 37.5q-38 6 -135 6h-182v-393q0 -98 6.5 -135.5t25.5 -56.5q31 -31 129 -60z" />
    <glyph glyph-name="G" unicode="G" horiz-adv-x="1425" 
d="M1264 25q-51 -6 -205 -29q-148 -23 -254 -23q-328 0 -516 185q-187 187 -187 526t193.5 524t550.5 185q207 0 346 -47q42 -14 57 -28.5t15 -43.5q0 -77 -35 -205h-12q-22 88 -60 139q-83 109 -307 109q-256 0 -391 -154.5t-135 -464.5q0 -304 132.5 -474.5t385.5 -170.5
q149 0 194 39q17 17 17 86v162q0 156 -23 197q-28 42 -121 63v10h453v-10q-72 -27 -88 -59q-25 -42 -25 -197v-139q0 -121 15 -180z" />
    <glyph glyph-name="H" unicode="H" horiz-adv-x="1550" 
d="M590 10v-10h-475v10q90 21 116 64q23 41 23 190v844q0 150 -23 188q-25 39 -116 60v10h475v-10q-94 -24 -115 -58q-26 -39 -26 -188v-358h651v356q0 155 -23 188q-28 39 -116 60v10h475v-10q-88 -21 -117 -58q-23 -33 -23 -188v-848q0 -154 25 -190q24 -37 115 -62v-10
h-475v10q92 24 116 64q23 41 23 190v410h-651v-412q0 -148 26 -190q24 -40 115 -62z" />
    <glyph glyph-name="I" unicode="I" horiz-adv-x="704" 
d="M590 10v-10h-475v10q90 21 116 64q23 41 23 190v844q0 148 -23 186q-24 38 -116 62v10h475v-10q-94 -21 -115 -56q-26 -39 -26 -190v-848q0 -148 26 -190q24 -40 115 -62z" />
    <glyph glyph-name="J" unicode="J" horiz-adv-x="708" 
d="M-14 -90h14q34 -156 147 -156q80 0 107 62q37 81 37 403v889q0 142 -25 184q-23 40 -127 64v10h484v-10q-86 -21 -113 -56q-25 -36 -25 -190q0 -119 4 -537q1 -90 2 -175.5t2 -132t1 -60.5q0 -155 -15 -234q-15 -82 -55 -145q-88 -150 -291 -150q-77 0 -127 13
q-43 12 -43 51q0 52 23 170z" />
    <glyph glyph-name="K" unicode="K" horiz-adv-x="1376" 
d="M590 10v-10h-475v10q87 21 116 64q23 41 23 190v844q0 144 -23 188q-28 39 -116 60v10h475v-10q-94 -22 -115 -56q-26 -39 -26 -190v-440q147 141 403 440q96 113 96 168q0 51 -114 78v10h430v-10q-60 -21 -105 -56q-39 -31 -123 -118l-348 -377q273 -396 369 -520
q109 -141 184 -205q39 -34 123 -64v-12q-71 -8 -227 -8q-68 0 -109.5 20.5t-85.5 77.5q-124 159 -395 582l-98 -98v-318q0 -146 26 -188q21 -38 115 -62z" />
    <glyph glyph-name="L" unicode="L" horiz-adv-x="1116" 
d="M987 0h-872v10q79 24 108 53q31 36 31 170v875q0 149 -25 188q-29 37 -114 60v10h483v-10q-92 -20 -121 -58q-28 -36 -28 -188v-932q0 -58 19 -79t79 -21h219q133 0 180 41q53 44 105 172h12q-6 -176 -14 -228q-4 -41 -15.5 -52t-46.5 -11z" />
    <glyph glyph-name="M" unicode="M" horiz-adv-x="1800" 
d="M492 10v-10h-388v10q86 25 113 62q27 30 33 172l39 893q2 18 2 88q-3 47 -31 75q-39 39 -104 56v10h301q33 0 45.5 -7.5t19.5 -31.5q277 -718 385 -1024q36 108 396 1016q12 30 22.5 38.5t36.5 8.5h311v-10q-95 -27 -114 -56q-25 -36 -25 -114q0 -40 25 -1010
q3 -94 45 -127q24 -21 94 -39v-10h-477v10q67 16 106 47q33 33 33 142q0 57 -17 1007l-104 -268l-131 -334q-27 -72 -60.5 -159t-79 -203.5t-73.5 -188.5h-94l-428 1147q-11 -355 -17 -516q-12 -418 -12 -455q0 -122 29 -159q32 -36 119 -60z" />
    <glyph glyph-name="N" unicode="N" horiz-adv-x="1495" 
d="M502 10v-10h-391v10q91 25 118 68q25 39 25 196q0 232 2 402t2 381q0 190 -22 229q-27 43 -121 70v10h305q38 0 65 -37q609 -875 701 -1022q-7 330 -10 793q-3 153 -25 184q-28 48 -119 72v10h377v-10q-91 -28 -115 -68t-24 -196v-1106h-107q-710 1040 -823 1210
q10 -615 10 -920q0 -156 27 -196q29 -44 125 -70z" />
    <glyph glyph-name="O" unicode="O" horiz-adv-x="1480" 
d="M1376 700q0 -348 -168.5 -537.5t-470.5 -189.5q-300 0 -466.5 177.5t-166.5 517.5q0 354 183 540q185 185 465 185q302 0 463 -178.5t161 -514.5zM1163 676q0 643 -413 643q-80 0 -146.5 -26.5t-132.5 -88.5q-69 -64 -108 -196.5t-39 -315.5q0 -645 417 -645
q201 0 311.5 158t110.5 471z" />
    <glyph glyph-name="P" unicode="P" horiz-adv-x="1226" 
d="M598 10v-10h-483v10q98 30 116 64q23 41 23 186v854q0 144 -21 178q-26 44 -118 64v10h436q207 0 291 -20q295 -61 295 -355q0 -209 -150 -311q-147 -100 -391 -100q-77 0 -147 4v-326q0 -155 26 -188q25 -36 123 -60zM449 1210v-551q62 -4 133 -4q340 0 340 326
q0 225 -150 283q-73 28 -186 28h-76q-36 0 -48.5 -18t-12.5 -64z" />
    <glyph glyph-name="Q" unicode="Q" horiz-adv-x="1480" 
d="M1376 700q0 -282 -113 -462.5t-321 -237.5q169 -116 301 -180q130 -62 262 -62q56 0 74 9l4 -11q-130 -112 -260 -112q-132 0 -254 67q-120 65 -387 264q-275 18 -426.5 193.5t-151.5 499.5q0 354 183 540q185 185 465 185q302 0 463 -178.5t161 -514.5zM1163 676
q0 643 -413 643q-80 0 -146.5 -26.5t-132.5 -88.5q-69 -64 -108 -196.5t-39 -315.5q0 -645 417 -645q201 0 311.5 158t110.5 471z" />
    <glyph glyph-name="R" unicode="R" horiz-adv-x="1363" 
d="M594 10v-10h-479v10q90 24 116 64q23 41 23 190v846q0 148 -23 186q-25 39 -116 60v10h446q174 0 293 -29q121 -29 185.5 -115.5t64.5 -220.5q0 -132 -75 -224t-208 -134q44 -23 94 -96q53 -76 56 -82l76 -123l92 -147q56 -88 106 -131t111 -50v-10q-86 -12 -166 -12
q-121 0 -166 39q-70 61 -141 194q-123 233 -176 318q-40 61 -134 61h-124v-344q0 -157 26 -190q28 -32 119 -60zM449 1219v-541h106q132 0 197 35q137 73 137 278q0 193 -111 258q-76 43 -209 43h-55q-38 0 -51.5 -15t-13.5 -58z" />
    <glyph glyph-name="S" unicode="S" horiz-adv-x="1069" 
d="M131 309h12q27 -108 111 -180q94 -82 250 -82q140 0 215.5 68.5t75.5 169.5q0 97 -58 161q-61 67 -239 154l-101 49q-262 133 -262 369q0 159 119 266q121 109 362 109q153 0 244 -31q41 -14 54.5 -27.5t13.5 -42.5q0 -54 -33 -192h-12q-30 111 -88 160q-68 59 -205 59
q-139 0 -215 -65.5t-76 -172.5q0 -82 49 -143q54 -63 209 -139l96 -47q169 -80 239.5 -170.5t70.5 -212.5q0 -180 -126.5 -288t-351.5 -108q-197 0 -307 64q-63 37 -63 84q0 82 16 188z" />
    <glyph glyph-name="T" unicode="T" horiz-adv-x="1216" 
d="M850 10v-10h-479v10q90 21 116 64q23 41 23 190v965q0 35 -11.5 48t-43.5 13h-105q-98 0 -145 -12q-41 -11 -71.5 -53t-65.5 -140h-11q-10 160 -10 234q0 30 7 38.5t36 8.5h1036q30 0 37.5 -7.5t7.5 -37.5q0 -89 -10 -236h-10q-30 98 -60.5 139.5t-78.5 53.5
q-55 12 -148 12h-98q-35 0 -47 -12.5t-12 -48.5v-965q0 -153 26 -192q24 -38 117 -62z" />
    <glyph glyph-name="U" unicode="U" horiz-adv-x="1488" 
d="M98 1356v10h475v-10q-90 -24 -118 -66q-23 -44 -23 -145v-615q0 -201 37 -294q70 -181 324 -181q103 0 185.5 35.5t119.5 93.5q65 95 65 346v578q0 149 -35 190q-30 40 -112 58v10h385v-10q-68 -18 -103 -56q-41 -41 -41 -192v-549q0 -296 -86 -414q-123 -172 -426 -172
q-341 0 -446 193q-61 110 -61 385v588q0 123 -27 157q-25 36 -113 60z" />
    <glyph glyph-name="V" unicode="V" horiz-adv-x="1333" 
d="M733 0h-135q-85 256 -102 301l-316 860q-47 125 -76 154q-25 25 -94 41v10h484v-10q-65 -20 -95 -37t-30.5 -52t24.5 -108q286 -803 332 -950l319 936q25 73 25 115q0 38 -35 59q-44 26 -86 37v10h375v-10q-72 -18 -98 -47q-31 -31 -72 -140l-311 -858
q-71 -195 -109 -311z" />
    <glyph glyph-name="W" unicode="W" horiz-adv-x="1951" 
d="M623 0h-138q-4 23 -77 315l-218 850q-35 129 -77 156q-51 26 -80 35v10h473v-10q-52 -16 -90 -35q-35 -21 -35 -57q0 -43 14 -95q203 -813 223 -927q43 158 334 1091h138q292 -872 356 -1093l213 913q12 49 12 102q0 43 -43 64q-37 18 -94 37v10h387v-10l-74 -31
q-31 -13 -47.5 -45.5t-38.5 -112.5l-217 -852q-67 -262 -78 -315h-137l-358 1122q-49 -178 -348 -1122z" />
    <glyph glyph-name="X" unicode="X" horiz-adv-x="1384" 
d="M424 10v-10h-401v10q50 14 83 39q53 35 97 96l383 529l-350 530q-66 96 -91 113q-33 26 -77 39v10h491v-10q-51 -12 -92 -33q-27 -12 -27 -37q0 -27 41 -92l256 -385l228 332q69 103 69 141q0 27 -24 39q-20 11 -90 35v10h370v-10q-49 -18 -76 -39t-86 -98l-344 -471
l400 -603q50 -74 90 -98q38 -23 86 -37v-10h-522v10q45 13 88 37q28 12 28 39q0 35 -32 84l-285 436l-285 -407q-51 -71 -51 -109q0 -32 29 -45q24 -13 94 -35z" />
    <glyph glyph-name="Y" unicode="Y" horiz-adv-x="1288" 
d="M881 10v-10h-475v10q89 21 114 64q25 42 25 184v330l-365 602q-62 101 -98 131q-34 26 -70 35v10h486v-10q-50 -10 -90 -31q-31 -19 -31 -39q0 -34 41 -102l289 -492l272 473q41 68 41 113q0 28 -37 49q-28 18 -72 29v10h365v-10q-53 -14 -96 -60q-29 -31 -78 -106
l-361 -584v-350q0 -150 27 -184q21 -34 113 -62z" />
    <glyph glyph-name="Z" unicode="Z" horiz-adv-x="1228" 
d="M1096 0h-1061v16l835 1276q-291 0 -528 -6q-123 -3 -160 -55q-23 -38 -49 -133h-12q-19 139 -19 221q0 27 7.5 37t31.5 10h994v-18l-832 -1270q333 0 551 4q152 3 201 49q39 39 98 154h12q0 -134 -18 -248q-1 -20 -13 -28.5t-38 -8.5z" />
    <glyph glyph-name="bracketleft" unicode="[" horiz-adv-x="608" 
d="M547 -221v-10h-342v1677h342v-10q-147 -35 -172 -70q-19 -28 -19 -109v-1300q0 -81 21 -111q17 -26 170 -67z" />
    <glyph glyph-name="backslash" unicode="\" horiz-adv-x="841" 
d="M111 1507l706 -1626l-74 -33l-704 1629z" />
    <glyph glyph-name="bracketright" unicode="]" horiz-adv-x="608" 
d="M61 1436v10h342v-1677h-342v10q149 35 172 71q19 28 19 107v1300q0 81 -19 109q-20 29 -172 70z" />
    <glyph glyph-name="asciicircum" unicode="^" horiz-adv-x="1302" 
d="M719 1333l338 -723h-129l-273 588l-274 -590h-129l344 725h123z" />
    <glyph glyph-name="underscore" unicode="_" horiz-adv-x="1077" 
d="M0 -270v112h1077v-112h-1077z" />
    <glyph glyph-name="grave" unicode="`" horiz-adv-x="438" 
d="M213 1466l180 -321l-8 -10l-285 239q-53 47 -53 88q0 32 23.5 52t56.5 20q51 0 86 -68z" />
    <glyph glyph-name="a" unicode="a" horiz-adv-x="1042" 
d="M676 147q-85 -172 -295 -172q-136 0 -218.5 76t-82.5 199q0 166 182 219q85 24 301 57q74 9 90 25q13 16 13 61v58q0 129 -45 174q-52 55 -179 55q-97 0 -172 -29t-106 -77l-6 2q-4 16 -4 32q0 80 100 131q105 54 252 54q172 0 255 -71t83 -234q0 -99 -2 -224v-276
q0 -89 22 -119.5t78 -30.5q32 0 66 9l4 -9q-77 -80 -181 -80q-149 0 -155 170zM666 266v223q-20 -8 -66 -18l-78 -14q-117 -22 -157 -39q-103 -41 -103 -160q0 -89 52 -135.5t135 -46.5q158 0 204 110q13 32 13 80z" />
    <glyph glyph-name="b" unicode="b" horiz-adv-x="1167" 
d="M199 -53l-15 2q6 74 6 307v901q0 103 -16 162q-21 69 -104 84v10q126 33 258 33q26 0 35.5 -12t9.5 -43q0 -121 -8 -582q31 89 122 147t205 58q383 0 383 -504q0 -254 -123.5 -392t-341.5 -138q-119 0 -211 30q-98 29 -108 29q-51 0 -92 -92zM367 643v-416q0 -68 22 -104
q23 -31 82 -51.5t127 -20.5q137 0 212 107t75 317q0 227 -66 329.5t-198 102.5q-119 0 -191 -69q-34 -34 -49 -74q-14 -38 -14 -121z" />
    <glyph glyph-name="c" unicode="c" horiz-adv-x="935" 
d="M879 170l6 -2v-12q0 -14 -17 -45q-34 -61 -117 -99.5t-202 -38.5q-212 0 -334.5 132.5t-122.5 373.5q0 261 137 395q138 138 365 138q137 0 215 -35q49 -21 49 -59q0 -58 -31 -170h-10q-26 96 -86 147q-52 43 -147 43q-137 0 -218 -103.5t-81 -320.5q0 -223 88.5 -327.5
t244.5 -104.5q151 0 261 88z" />
    <glyph glyph-name="d" unicode="d" horiz-adv-x="1210" 
d="M811 160q-31 -82 -113.5 -133.5t-187.5 -51.5q-197 0 -307.5 127.5t-110.5 366.5q0 256 130 399.5t362 143.5q145 0 221 -58v199q0 120 -17 166q-28 66 -104 84v10q141 33 260 33q43 0 43 -51q0 -7 -0.5 -44.5t-1.5 -113.5t-2 -158q-2 -188 -2 -358v-498q0 -160 98 -160
q36 0 64 7l6 -9q-35 -35 -91 -57t-106 -22q-70 0 -103.5 40.5t-37.5 137.5zM805 295v438q0 50 -8 94q-6 33 -29 56q-57 57 -180 57q-152 0 -227.5 -114t-75.5 -322q0 -217 77.5 -320.5t208.5 -103.5q120 0 189 72q30 30 39 71q6 24 6 72z" />
    <glyph glyph-name="e" unicode="e" horiz-adv-x="1007" 
d="M287 602h454q4 36 4 66q0 276 -198 276q-117 0 -185 -88.5t-75 -253.5zM862 532h-579v-24q0 -238 98 -332q101 -94 244 -94q169 0 293 100l8 -4v-10q0 -8 -11 -37q-35 -67 -126 -112.5t-220 -45.5q-237 0 -357 133.5t-120 376.5q0 249 129 387q130 142 340 142
q182 0 275.5 -99t93.5 -276q0 -73 -8 -86q-13 -19 -60 -19z" />
    <glyph glyph-name="f" unicode="f" horiz-adv-x="657" 
d="M549 10v-10h-455v10q70 21 94 58q25 36 25 188v645h-147v35q88 27 114 63q27 35 39 127q24 173 116.5 246.5t262.5 73.5q78 0 137 -19q45 -15 45 -49q0 -43 -30 -157h-13q-21 82 -67 122q-33 33 -99 33q-109 0 -155 -76q-31 -57 -31 -208q0 -29 4 -107h217v-84h-217v-637
q0 -146 25 -188q19 -31 135 -66z" />
    <glyph glyph-name="g" unicode="g" horiz-adv-x="1017" 
d="M326 354q-228 70 -228 310q0 158 106 253t294 95q120 0 209 -47q209 6 274 57l8 -2q-4 -76 -20 -104t-59 -30t-119 11q71 -83 71 -217q0 -160 -106 -252t-281 -92q-8 0 -42.5 2t-41.5 2q-27 0 -43 -16q-26 -20 -26 -60q0 -42 43 -57q38 -14 188 -41q143 -26 201 -39
q229 -55 229 -240q0 -161 -134 -253.5t-372 -92.5q-211 0 -323.5 69t-112.5 189q0 188 289 246q-129 37 -129 141q0 101 125 168zM414 23q-90 0 -178 -76q-56 -53 -56 -137q0 -92 88 -144q88 -55 215 -55q161 0 246.5 56.5t85.5 152.5q0 100 -119 143q-72 26 -149 41
q-93 19 -133 19zM680 674q0 268 -195 268q-204 0 -204 -268q0 -147 50 -210t148 -63q201 0 201 273z" />
    <glyph glyph-name="h" unicode="h" horiz-adv-x="1232" 
d="M506 8v-8h-420v8q76 28 96 64q23 41 23 172v911q0 115 -19 170q-21 57 -102 78v10q135 33 256 33q27 0 37 -11.5t10 -43.5q0 -2 -0.5 -30t-1.5 -88.5t-2 -129.5q-2 -156 -2 -334q43 93 137.5 148t216.5 55q216 0 269 -164q22 -68 22 -221v-369q0 -158 27 -192
q21 -34 100 -58v-8h-420v8q70 24 94 64q23 44 23 188v322q0 200 -47 256q-52 61 -158 61q-107 0 -186 -55q-53 -38 -68 -92q-10 -42 -10 -113v-391q0 -142 22 -178q27 -40 103 -62z" />
    <glyph glyph-name="i" unicode="i" horiz-adv-x="598" 
d="M514 8v-8h-420v8q73 27 94 64q23 41 23 164v479q0 132 -23 176q-27 55 -98 67v11q122 35 256 35q28 0 37.5 -12.5t9.5 -45.5q0 -5 -0.5 -24.5t-1.5 -60t-2 -83.5q-2 -98 -2 -198v-344q0 -120 23 -164q29 -43 104 -64zM281 1204q-50 0 -81.5 32t-31.5 83q0 54 31.5 86.5
t85.5 32.5q51 0 80.5 -31.5t29.5 -85.5t-30 -85.5t-84 -31.5z" />
    <glyph glyph-name="j" unicode="j" horiz-adv-x="583" 
d="M-63 -254h12q24 -133 129 -133q73 0 100 59q33 65 33 381v658q0 136 -23 180q-37 58 -98 67v11q122 35 256 35q26 0 36.5 -13.5t10.5 -44.5q0 -2 -0.5 -20.5t-1.5 -58t-2 -83.5q-2 -100 -2 -204v-256q2 -113 2 -252q0 -170 -12 -246q-9 -77 -47 -143q-83 -142 -271 -142
q-68 0 -110 17q-35 15 -35 47q0 54 23 141zM281 1204q-50 0 -81.5 32t-31.5 83q0 54 31.5 86.5t85.5 32.5q51 0 80.5 -31.5t29.5 -85.5t-30 -85.5t-84 -31.5z" />
    <glyph glyph-name="k" unicode="k" horiz-adv-x="1122" 
d="M510 8v-8h-422v8q76 28 96 64q23 38 23 174v911q0 143 -21 178q-30 59 -100 68v10q121 33 254 33q29 0 39 -12t10 -48q0 -3 -0.5 -31t-1.5 -87.5t-2 -126.5q-2 -154 -2 -271v-366q137 118 266 256q88 94 88 141q0 53 -96 74v10h383v-10q-43 -12 -90 -47
q-20 -13 -121 -107l-213 -205q283 -430 404 -542q38 -38 112 -54v-8q-92 -18 -198 -18q-98 0 -158 78q-142 189 -287 436l-90 -80v-176q0 -146 25 -182q28 -42 102 -62z" />
    <glyph glyph-name="l" unicode="l" horiz-adv-x="593" 
d="M508 8v-8h-422v8q77 27 96 64q23 41 23 172v915q0 117 -12 158q-21 67 -109 86v10q126 33 262 33q25 0 34 -12t9 -48q0 -7 -0.5 -38t-1.5 -94t-2 -130t-2 -130l-1.5 -94.5t-0.5 -39.5v-610q0 -144 22 -180q35 -44 105 -62z" />
    <glyph glyph-name="m" unicode="m" horiz-adv-x="1849" 
d="M514 8v-8h-420v8q74 26 94 64q23 41 23 161v484q0 141 -25 180q-30 52 -96 61v11q103 32 248 32q27 0 35 -8q11 -7 14 -30q4 -32 4 -150q38 92 131.5 145.5t212.5 53.5q228 0 266 -221q42 101 138 161t219 60q207 0 262 -166q20 -56 20 -221v-379q0 -133 29 -180
q21 -34 100 -58v-8h-419v8q68 21 92 62q24 37 24 178v321q0 217 -45 271q-47 59 -151 59q-100 0 -176 -55q-42 -33 -64 -88q-14 -41 -14 -121v-385q0 -156 26 -189q22 -28 101 -53v-8h-422v8q73 25 96 64q23 38 23 176v321q0 219 -43 271q-53 59 -152 59q-115 0 -182 -55
q-50 -37 -64 -90q-12 -46 -12 -113v-393q0 -149 25 -180q25 -38 102 -60z" />
    <glyph glyph-name="n" unicode="n" horiz-adv-x="1241" 
d="M514 8v-8h-420v8q73 24 94 64q23 41 23 161v484q0 136 -25 178q-36 54 -96 63v11q111 32 244 32q47 0 53 -38q4 -36 4 -152q38 92 134 146.5t218 54.5q223 0 269 -168q20 -67 20 -219v-383q0 -132 29 -179q22 -31 100 -55v-8h-420v8q69 21 93 62q22 42 22 170v335
q0 207 -47 263q-52 61 -158 61q-108 0 -184 -55q-54 -42 -68 -90q-12 -50 -12 -113v-403q0 -129 25 -168q28 -39 102 -62z" />
    <glyph glyph-name="o" unicode="o" horiz-adv-x="1146" 
d="M1057 506q0 -255 -127.5 -394t-356.5 -139q-226 0 -353.5 129.5t-127.5 380.5q0 262 141 394q144 135 359 135q227 0 346 -129.5t119 -376.5zM862 489q0 453 -278 453q-123 0 -211 -98t-88 -344q0 -234 77 -345.5t216 -111.5q284 0 284 446z" />
    <glyph glyph-name="p" unicode="p" horiz-adv-x="1163" 
d="M526 -440v-11h-454v11q73 22 96 61q22 36 22 162v934q0 141 -26 180q-34 52 -94 61v11q103 32 237 32q50 0 58 -38q4 -28 4 -146q31 86 123.5 141.5t203.5 55.5q379 0 379 -496q0 -254 -133 -393q-132 -135 -344 -135q-157 0 -231 45v-250q0 -125 24 -162q28 -36 135 -63
zM367 651v-409q0 -71 22 -107q21 -31 78.5 -52.5t124.5 -21.5q135 0 212 108.5t77 307.5q0 227 -64 328.5t-196 101.5q-124 0 -195 -71q-30 -30 -45 -70q-14 -41 -14 -115z" />
    <glyph glyph-name="q" unicode="q" horiz-adv-x="1187" 
d="M1100 -440v-11h-455v11q108 27 135 67q25 42 25 162v371q-39 -81 -120.5 -126.5t-195.5 -45.5q-181 0 -289 129.5t-108 351.5q0 255 126.5 399t354.5 144q106 0 201 -31q77 -31 109 -31q48 0 86 92l20 -2q-6 -73 -6 -327v-926q0 -131 21 -166q27 -40 96 -61zM805 330v405
q0 93 -23 131q-53 74 -202 74q-144 0 -220.5 -111.5t-76.5 -304.5q0 -224 75.5 -328t210.5 -104q122 0 191 72q31 36 37 61q1 7 8 105z" />
    <glyph glyph-name="r" unicode="r" horiz-adv-x="833" 
d="M547 8v-8h-453v8q73 28 94 62q23 41 23 168v477q0 133 -25 178q-26 56 -96 65v11q111 32 246 32q46 0 49 -40q4 -28 4 -166q29 97 106.5 157t176.5 60q50 0 82 -13q39 -12 39 -51q0 -49 -35 -168h-13q-34 107 -145 107q-60 0 -112.5 -36t-77.5 -93q-23 -58 -23 -158v-360
q0 -130 29 -170q28 -35 131 -62z" />
    <glyph glyph-name="s" unicode="s" horiz-adv-x="854" 
d="M115 256h12q35 -112 115 -166q68 -45 174 -45q91 0 143.5 45t52.5 113t-45 110q-46 46 -180 107l-70 33q-204 98 -204 268q0 122 92 205q92 86 297 86q115 0 194 -29q43 -15 43 -53q0 -48 -28 -166h-13q-20 91 -84 139q-46 37 -141 37q-103 0 -158 -41.5t-55 -114.5
q0 -62 41 -103t158 -97l67 -33q143 -64 191 -131q49 -64 49 -156q0 -115 -90 -205q-89 -86 -273 -86q-142 0 -241 45q-62 27 -62 88q0 88 15 150z" />
    <glyph glyph-name="t" unicode="t" horiz-adv-x="661" 
d="M651 102l4 -8q-90 -112 -239 -112q-182 0 -203 161q-6 43 -6 154v604h-148v37q61 13 96 29t74 47q70 59 131 233h23v-262h217v-84h-217v-608q0 -77 6 -127q18 -100 125 -100q66 0 137 36z" />
    <glyph glyph-name="u" unicode="u" horiz-adv-x="1232" 
d="M848 166q-46 -95 -134 -144t-200 -49q-234 0 -293 170q-24 67 -24 217v347q0 123 -17 176q-25 60 -104 78v12q107 26 254 26q30 0 39.5 -9t9.5 -38l-1 -16q0 -15 -1 -48.5t-2 -72.5q-2 -88 -2 -207v-213q0 -188 53 -250q53 -59 162 -59q113 0 188 66q37 32 53 81
q13 44 13 142v325q0 138 -19 181q-21 59 -104 80v12q116 26 260 26q28 0 37.5 -8.5t9.5 -38.5v-6q0 -7 -0.5 -19.5t-1 -29t-1 -42t-1.5 -52.5q-4 -196 -4 -223v-359q0 -158 100 -158q29 0 64 7l4 -7q-32 -35 -89.5 -58t-109.5 -23q-67 0 -101 43t-38 141z" />
    <glyph glyph-name="v" unicode="v" horiz-adv-x="1067" 
d="M594 0h-123q-55 163 -332 821q-45 104 -76 129q-28 20 -49 27v8h426v-8q-60 -18 -94 -39q-27 -15 -27 -41q0 -27 23 -88q203 -519 246 -641q15 49 235 637q23 67 23 90q0 31 -35 49q-40 19 -80 33v8h322v-8q-17 -5 -49 -25q-38 -23 -82 -131q-280 -685 -328 -821z" />
    <glyph glyph-name="w" unicode="w" horiz-adv-x="1554" 
d="M780 778l-268 -778h-123q-20 86 -239 819q-30 100 -66 129q-13 13 -51 27v10h424v-10q-48 -13 -84 -33q-36 -18 -39.5 -58t16.5 -102l156 -587q31 101 258 759h119q222 -624 262 -759l24 96q26 90 134 506q14 57 14 94q0 35 -35 53l-74 31v10h316v-10q-69 -29 -88 -53
q-20 -23 -41 -103l-228 -819h-123q-214 619 -264 778z" />
    <glyph glyph-name="x" unicode="x" horiz-adv-x="1107" 
d="M373 8v-8h-353v8q32 10 74 35q24 15 96 100l273 342l-240 338q-63 89 -96 119q-32 25 -64 33v10h443v-10q-56 -11 -84 -29q-23 -13 -23 -37q0 -28 43 -92l158 -223l158 221q41 59 41 94q0 21 -23 37q-44 23 -69 29v10h335v-10q-27 -7 -73 -41q-38 -30 -88 -94l-238 -299
l285 -400q47 -71 90 -98q29 -20 69 -35v-8h-458v8q52 13 84 31q20 11 20 37q0 32 -39 88l-186 264l-193 -256q-49 -70 -49 -98q0 -27 33 -41z" />
    <glyph glyph-name="y" unicode="y" horiz-adv-x="1093" 
d="M147 -256h13q27 -96 106 -96q80 0 127 78q79 142 129 274h-53q-95 249 -330 821q-45 108 -76 127q-26 18 -51 29v8h426v-8q-59 -18 -92 -39q-27 -15 -27 -43q0 -26 23 -90q209 -543 246 -660q41 119 235 656q21 59 21 94q0 25 -31 47q-36 20 -82 35v8h322v-8
q-31 -12 -52 -25q-38 -25 -83 -137q-229 -589 -310 -815q-83 -223 -162 -354q-79 -125 -213 -125q-39 0 -73 12q-39 14 -39 55q0 58 26 156z" />
    <glyph glyph-name="z" unicode="z" horiz-adv-x="991" 
d="M852 0h-805v18q567 836 619 904q-211 0 -347 -4q-101 -3 -129 -60q-29 -55 -47 -125h-12q-20 97 -20 201q0 31 9 41t38 10h741v-20l-620 -897q180 0 372 4q124 3 160 34q43 35 94 158h13q0 -142 -9 -225q-1 -23 -13 -31t-44 -8z" />
    <glyph glyph-name="braceleft" unicode="{" horiz-adv-x="645" 
d="M596 -221v-15q-201 0 -288 67.5t-87 231.5v238q0 147 -43.5 218.5t-154.5 78.5v12q122 12 159 82t37 236v196q0 166 86.5 245t290.5 79v-14q-126 -17 -173.5 -82t-47.5 -224v-235q0 -128 -50 -195t-165 -92q115 -25 166 -89t51 -191v-252q0 -145 49.5 -213.5t169.5 -81.5
z" />
    <glyph glyph-name="bar" unicode="|" horiz-adv-x="548" 
d="M340 1479v-1723h-131v1723h131z" />
    <glyph glyph-name="braceright" unicode="}" horiz-adv-x="645" 
d="M59 1434v14q201 0 288 -67.5t87 -231.5v-240q0 -146 44 -217.5t155 -77.5v-14q-123 -12 -160 -82t-37 -235v-197q0 -166 -86.5 -244t-290.5 -78v15q126 17 174 82t48 223v235q0 128 49 194t164 91q-114 25 -164.5 90t-50.5 193v252q0 144 -49 211t-171 84z" />
    <glyph glyph-name="asciitilde" unicode="~" horiz-adv-x="1302" 
d="M238 424l-88 76q141 196 296 196q47 0 97 -16q41 -13 141 -72q119 -67 176 -67q56 0 102 34.5t101 118.5l90 -73q-132 -203 -295 -203q-91 0 -211 69q-143 82 -203 82q-111 0 -206 -145z" />
    <glyph glyph-name="exclamdown" unicode="&#xa1;" horiz-adv-x="579" 
d="M238 623h26q4 -48 10.5 -106t15 -133.5t13.5 -119.5q55 -427 55 -471q0 -133 -110 -133q-115 0 -115 129q0 22 17 158l43 315q28 208 45 361zM250 1071q52 0 86.5 -34t34.5 -87q0 -57 -33.5 -91t-89.5 -34q-54 0 -86.5 33.5t-32.5 89.5q0 55 33.5 89t87.5 34z" />
    <glyph glyph-name="cent" unicode="&#xa2;" horiz-adv-x="1069" 
d="M659 -6v-187h-67v185q-207 8 -324.5 141.5t-117.5 372.5q0 237 120 379.5t322 161.5v192h67v-188q136 0 220 -35q47 -21 47 -64q0 -58 -31 -170h-14q-27 115 -84 154q-52 40 -138 43v-879h29q132 0 254 90l10 -4v-8q0 -17 -18 -47q-82 -122 -275 -137zM346 539
q0 -367 246 -428v862q-114 -20 -180 -127.5t-66 -306.5z" />
    <glyph glyph-name="sterling" unicode="&#xa3;" horiz-adv-x="1210" 
d="M891 688v-86h-301q0 -10 1 -38t1 -32q0 -137 -59.5 -222t-190.5 -150q68 3 592 12q81 3 117 39q31 31 65 106h12q0 -173 -18 -262q-6 -32 -27.5 -43.5t-78.5 -11.5h-893v109q52 8 106 32q97 47 138.5 132t41.5 233q0 40 -6 96h-196v86h186q-25 189 -25 244q0 420 459 420
q133 0 234 -29q51 -17 51 -70q0 -50 -29 -192h-14q-31 121 -81.5 169t-152.5 48q-136 0 -197 -81t-61 -245q0 -27 19 -264h307z" />
    <glyph glyph-name="currency" unicode="&#xa4;" horiz-adv-x="1138" 
d="M1006 307l-95 -96l-116 119q-85 -70 -220 -70q-134 0 -217 68l-116 -117l-97 96l119 119q-69 98 -69 221t69 221l-119 119l97 96l116 -116q87 69 217 69q132 0 220 -67l116 114l95 -96l-117 -117q69 -87 69 -223q0 -126 -71 -221zM575 928q-113 0 -190 -80
q-74 -80 -74 -197q0 -122 74 -205q76 -79 193 -79q118 0 188 79q74 80 74 201q0 122 -76 201q-77 80 -189 80z" />
    <glyph glyph-name="yen" unicode="&#xa5;" horiz-adv-x="1290" 
d="M1073 473v-65h-338v-154q0 -138 27 -182q21 -34 115 -62v-10h-469v10q94 21 116 64q23 38 23 186v148h-328v65h328v111l-60 98h-268v63h230l-242 400q-63 108 -98 133q-30 27 -70 35v12h477v-12q-26 -6 -90 -29q-31 -12 -31 -41q0 -28 45 -102l265 -461l249 442
q45 80 45 115q0 29 -49 53q-32 14 -67 23v12h368v-10q-61 -17 -104 -66q-38 -41 -76 -102l-244 -402h246v-63h-285l-53 -90v-119h338z" />
    <glyph glyph-name="brokenbar" unicode="&#xa6;" horiz-adv-x="526" 
d="M344 1380v-641h-139v641h139zM344 477v-639h-139v639h139z" />
    <glyph glyph-name="section" unicode="&#xa7;" horiz-adv-x="1026" 
d="M166 -55h10q25 -105 103.5 -166.5t183.5 -61.5q108 0 163.5 47.5t55.5 131.5q0 72 -34 122.5t-126 120.5l-239 178q-82 63 -121 115q-39 55 -49.5 89t-10.5 85q0 99 74 170t191 78q-160 112 -160 276q0 125 94 216q94 94 297 94q113 0 195 -31q63 -23 63 -76
q0 -81 -31 -172h-10q-19 96 -79.5 151.5t-157.5 55.5q-111 0 -162 -52t-51 -132q0 -62 36.5 -109.5t137.5 -122.5l172 -129q127 -95 172 -155q49 -58 49 -148q0 -107 -76 -180q-79 -73 -190 -76q180 -131 180 -293q0 -136 -92 -231q-91 -98 -303 -98q-163 0 -258 59
q-54 31 -54 80q0 53 27 164zM379 477l151 -112q52 -46 103 -46q37 0 72 21q69 46 69 127q0 45 -28.5 85t-104.5 99l-147 109q-62 45 -95 45q-57 0 -102 -45q-45 -48 -45 -109q0 -47 26.5 -82.5t100.5 -91.5z" />
    <glyph glyph-name="dieresis" unicode="&#xa8;" horiz-adv-x="442" 
d="M147 1290q6 -61 -45 -86t-102 0t-45 86q0 43 27.5 71t70.5 28q42 0 68 -28t26 -71zM487 1290q6 -61 -45 -86t-102 0t-45 86q0 43 27 71t71 28q41 0 67.5 -28t26.5 -71z" />
    <glyph glyph-name="copyright" unicode="&#xa9;" horiz-adv-x="1691" 
d="M846 -29q-302 0 -504 205q-201 207 -201 510t201 510t502 207q303 0 504 -207q202 -205 202 -510q0 -304 -200 -510q-199 -205 -504 -205zM844 1350q-274 0 -459 -191q-182 -191 -182 -473t182 -473q185 -188 461 -188q281 0 463 188t182 473q0 286 -184 473
q-182 191 -463 191zM1135 442h12q0 -74 -14 -131q-6 -25 -43 -37q-71 -32 -207 -32q-208 0 -316 112t-108 322t117.5 327t330.5 117q131 0 201 -30q41 -18 41 -50q0 -52 -19 -139h-14q-20 80 -49 109q-51 51 -164 51q-137 0 -214 -92.5t-77 -274.5q0 -187 78 -290t225 -103
q95 0 148 41q41 27 72 100z" />
    <glyph glyph-name="ordfeminine" unicode="&#xaa;" horiz-adv-x="673" 
d="M428 627q-53 -109 -188 -109q-84 0 -134.5 45.5t-50.5 118.5q0 101 113 135q102 25 192 35q44 6 56 18q6 9 6 35v27q0 71 -27 98q-30 35 -104 35q-115 0 -178 -66l-7 2q-2 6 -2 21q0 48 66.5 83.5t161.5 35.5q215 0 215 -195q0 -55 -2 -123v-155q0 -54 15 -73.5t52 -19.5
q12 0 37 5l4 -7q-45 -51 -118 -51q-98 0 -107 105zM422 709v114q-12 -6 -43 -10q-94 -13 -139 -33q-58 -21 -58 -88q0 -48 30 -75t79 -27q52 0 94 28q23 16 31 41q6 21 6 50z" />
    <glyph glyph-name="guillemotleft" unicode="&#xab;" horiz-adv-x="905" 
d="M96 555l353 363l12 -11l-228 -399l224 -416l-13 -6l-346 360q-31 31 -31 54t29 55zM469 555l352 363l13 -11l-228 -399l223 -416l-12 -6l-346 360q-31 31 -31 54q0 26 29 55z" />
    <glyph glyph-name="logicalnot" unicode="&#xac;" horiz-adv-x="1302" 
d="M1106 633v-541h-121v420h-827v121h948z" />
    <glyph glyph-name="uni00AD" unicode="&#xad;" horiz-adv-x="694" 
d="M598 598v-133h-504v133h504z" />
    <glyph glyph-name="registered" unicode="&#xae;" horiz-adv-x="1691" 
d="M846 -29q-302 0 -504 205q-201 207 -201 510t201 510q204 207 502 207q302 0 506 -207q202 -205 202 -510t-202 -510q-199 -205 -504 -205zM844 1350q-275 0 -457 -191t-182 -473t182 -473q182 -188 459 -188q281 0 463 188q184 187 184 473t-184 473q-185 191 -465 191z
M819 305v-10h-319v10q47 11 71 35q19 22 19 119v491q0 89 -17 113q-16 22 -73 37v14h291q92 0 180 -16q168 -37 168 -203q0 -161 -187 -213q42 -12 76 -66q16 -20 35 -55q13 -18 47.5 -77.5t44.5 -75.5q55 -81 141 -101v-10q-63 -8 -112 -8q-79 0 -115 22q-40 30 -90 119
q-23 41 -47 84t-38 69t-20 35q-21 35 -81 35h-64v-200q0 -93 14 -113q14 -19 76 -35zM729 1012v-307h57q77 0 119 22q82 46 82 160t-65 149q-41 21 -121 21h-35q-23 0 -30 -9t-7 -36z" />
    <glyph glyph-name="overscore" unicode="&#xaf;" horiz-adv-x="444" 
d="M481 1321v-111h-524v111h524z" />
    <glyph glyph-name="degree" unicode="&#xb0;" horiz-adv-x="655" 
d="M59 1139q0 118 78 196q77 80 195 80q116 0 191 -77.5t75 -198.5q0 -114 -78 -195q-78 -78 -192 -78q-115 0 -193 78q-76 79 -76 195zM131 1139q0 -88 56.5 -148.5t142.5 -60.5t143 60.5t57 148.5q0 91 -56.5 151t-143.5 60q-86 0 -142.5 -60t-56.5 -151z" />
    <glyph glyph-name="plusminus" unicode="&#xb1;" horiz-adv-x="1302" 
d="M713 680v-404h-121v404h-408v119h408v405h121v-405h405v-119h-405zM1118 119v-119h-934v119h934z" />
    <glyph glyph-name="twosuperior" unicode="&#xb2;" 
d="M573 881h-520v63q242 175 326 297q82 119 82 227q0 174 -160 174q-72 0 -113.5 -33.5t-68.5 -107.5h-13q-12 61 -12 109q0 36 45 53q73 33 195 33q274 0 274 -226q0 -110 -99 -223t-323 -260q21 3 334 6q42 0 64 19q21 21 45 73h12q0 -104 -10 -172q-5 -19 -16 -25.5
t-42 -6.5z" />
    <glyph glyph-name="threesuperior" unicode="&#xb3;" 
d="M78 1069h10q20 -65 72.5 -106t134.5 -41q85 0 129.5 51.5t44.5 136.5q0 78 -47 122t-133 44h-33v49h37q158 0 158 172q0 145 -148 145q-71 0 -112.5 -32t-71.5 -107h-10q-11 72 -11 111q0 32 39 49q67 33 197 33q128 0 194 -50.5t66 -140.5q0 -152 -186 -198
q206 -27 206 -195q0 -117 -83.5 -182.5t-231.5 -65.5q-131 0 -199 39q-32 19 -32 51q0 47 10 115z" />
    <glyph glyph-name="acute" unicode="&#xb4;" horiz-adv-x="442" 
d="M340 1374l-283 -239l-10 10l180 319q37 70 86 70q33 0 56.5 -20t23.5 -52q0 -41 -53 -88z" />
    <glyph glyph-name="mu" unicode="&#xb5;" horiz-adv-x="1302" 
d="M438 72v-156q0 -38 4 -174q1 -29 2 -56.5t1.5 -41t0.5 -15.5q0 -41 -14 -49q-29 -16 -180 -16l-6 8q14 241 14 709v426q0 134 -14 172q-27 69 -113 82v12q110 26 260 26q31 0 41 -8t10 -37q0 -1 -0.5 -17t-1.5 -51t-2 -75q-2 -90 -2 -211v-207q0 -106 11 -158.5t43 -87.5
q58 -61 161 -61q119 0 191 66q39 33 51 84q10 45 10 149v315q0 131 -16 181q-27 65 -111 80v12q116 26 264 26q28 0 38 -9t10 -38v-6q-1 -7 -1.5 -19.5t-1 -29t-1 -42t-1.5 -52.5q-4 -196 -4 -223v-353q0 -89 26 -125t79 -36q34 0 61 6l6 -9q-33 -33 -90.5 -57t-107.5 -24
q-67 0 -98.5 39.5t-43.5 142.5q-77 -191 -286 -191q-65 0 -117 26.5t-72 72.5z" />
    <glyph glyph-name="paragraph" unicode="&#xb6;" horiz-adv-x="1116" 
d="M537 -221l-7 14q100 41 146 123q41 77 41 334v266q-40 -6 -94 -6q-211 0 -331 106.5t-120 307.5q0 155 70.5 259.5t201.5 145.5q116 35 330 35h197v-12q-99 -28 -113 -60q-27 -34 -27 -151v-883q0 -168 -8 -225q-9 -67 -47 -119q-64 -101 -239 -135z" />
    <glyph glyph-name="middot" unicode="&#xb7;" horiz-adv-x="485" 
d="M244 416q-52 0 -86.5 34t-34.5 89t34.5 89t88.5 34t86.5 -33.5t32.5 -89.5q0 -55 -33.5 -89t-87.5 -34z" />
    <glyph glyph-name="cedilla" unicode="&#xb8;" horiz-adv-x="446" 
d="M53 -389v8l6 2q24 -24 88 -24q55 0 86 27.5t31 78.5q0 102 -106 102q-25 0 -41 -4l-6 6l77 211h50l-50 -139q99 0 149 -44.5t50 -119.5q0 -81 -55.5 -128.5t-147.5 -47.5q-108 0 -123 41q-8 13 -8 31z" />
    <glyph glyph-name="onesuperior" unicode="&#xb9;" 
d="M528 889v-8h-327v8q31 7 61 20q39 20 39 99v487q0 77 -12 100t-49 23q-40 0 -50 -2l-2 18l244 66l10 -10q-4 -82 -4 -293v-389q0 -81 37 -99q18 -13 53 -20z" />
    <glyph glyph-name="ordmasculine" unicode="&#xba;" horiz-adv-x="741" 
d="M682 836q0 -153 -82 -236.5t-229 -83.5q-146 0 -229 77.5t-83 229.5q0 150 90 234t232 84q148 0 224.5 -78t76.5 -227zM545 827q0 143 -42.5 205t-125.5 62q-180 0 -180 -260q0 -273 176 -273q172 0 172 266z" />
    <glyph glyph-name="guillemotright" unicode="&#xbb;" horiz-adv-x="905" 
d="M809 446l-352 -360l-13 8l228 400l-223 415l12 9l346 -361q31 -36 31 -55t-29 -56zM436 446l-352 -360l-12 8l227 400l-223 415l12 9l346 -363q31 -31 31 -53q0 -27 -29 -56z" />
    <glyph glyph-name="onequarter" unicode="&#xbc;" horiz-adv-x="1646" 
d="M430 -31l690 1428l68 -29l-688 -1427zM530 541v-9h-327v9q16 4 61 22q39 14 39 96v488q0 82 -12 100q-16 23 -51 23q-37 0 -47 -2l-3 18l244 66l10 -11q-4 -82 -4 -292v-390q0 -80 37 -98q26 -13 53 -20zM1473 8v-8h-324v8q38 9 68 25q30 21 30 88v90h-381v70l412 534
h106q-2 -59 -2 -254v-258h131v-92h-131v-90q0 -72 35 -90q14 -10 56 -23zM954 303h293q0 151 4 397q-22 -32 -297 -397z" />
    <glyph glyph-name="onehalf" unicode="&#xbd;" horiz-adv-x="1646" 
d="M406 -31l690 1428l67 -29l-688 -1427zM518 541v-9h-328v9q19 5 62 22q39 14 39 96v488q0 82 -12 100q-16 23 -52 23q-37 0 -47 -2l-2 18l244 66l10 -11q-4 -82 -4 -292v-390q0 -80 37 -98q26 -13 53 -20zM1485 0h-520v63q240 173 325 297q82 119 82 228q0 174 -160 174
q-72 0 -113.5 -33.5t-68.5 -107.5h-12q-12 61 -12 108q0 36 45 53q73 33 194 33q275 0 275 -225q0 -110 -99.5 -223.5t-322.5 -260.5q29 4 334 7q42 0 63 18q20 20 45 74h12q0 -104 -10 -172q-5 -20 -15.5 -26.5t-41.5 -6.5z" />
    <glyph glyph-name="threequarters" unicode="&#xbe;" horiz-adv-x="1646" 
d="M512 -31l690 1428l68 -29l-688 -1427zM156 721h10q20 -65 73 -106.5t134 -41.5q85 0 129.5 52t44.5 137q0 78 -47 122t-133 44h-33v49h37q157 0 157 172q0 145 -147 145q-69 0 -112 -32.5t-72 -106.5h-11q-10 65 -10 111q0 32 39 49q67 33 197 33q128 0 194 -50.5
t66 -140.5q0 -153 -187 -199q207 -27 207 -194q0 -117 -83.5 -182.5t-231.5 -65.5q-131 0 -199 39q-33 20 -33 51q0 40 11 115zM1518 8v-8h-324v8q38 9 68 25q30 21 30 88v90h-381v70l412 534h107q-3 -88 -3 -254v-258h132v-92h-132v-90q0 -72 35 -90q14 -10 56 -23z
M999 303h293q0 151 4 397q-22 -32 -297 -397z" />
    <glyph glyph-name="questiondown" unicode="&#xbf;" horiz-adv-x="888" 
d="M551 625h27q16 -91 16 -142q0 -75 -27 -125q-29 -53 -127 -135q-129 -108 -129 -266q0 -106 49.5 -165.5t149.5 -59.5q93 0 146.5 48t80.5 146h13q18 -89 18 -155q0 -50 -63 -76q-93 -37 -228 -37q-183 0 -275.5 74t-92.5 215q0 99 53 176q58 80 198 176q100 68 137 108
t44 93q10 58 10 125zM424 948q0 55 33.5 89t87.5 34q37 4 67.5 -18.5t43.5 -56.5t7.5 -73t-32.5 -65q-26 -25 -64 -30.5t-70.5 6t-54.5 42t-18 72.5z" />
    <glyph glyph-name="Agrave" unicode="&#xc0;" horiz-adv-x="1345" 
d="M383 10v-10h-373v10q51 12 82 43q46 46 82 144l322 860q51 132 112 309h135l107 -295l315 -868q41 -111 78 -150q29 -29 90 -43v-10h-477v10q58 11 92 35q29 19 29 55q0 32 -27 109l-96 272h-477l-94 -272q-25 -77 -25 -115q0 -35 39 -55q45 -22 86 -29zM403 557h424
q-106 301 -108 307l-70 203l-33 100q-12 -39 -32 -96l-72 -203q-21 -57 -61.5 -173.5t-47.5 -137.5zM547 1774l254 -277l-10 -12l-334 174q-76 40 -76 88q0 35 23 55.5t59 20.5q41 0 84 -49z" />
    <glyph glyph-name="Aacute" unicode="&#xc1;" horiz-adv-x="1345" 
d="M383 10v-10h-373v10q51 12 82 43q46 46 82 144l322 860q51 132 112 309h135l107 -295l315 -868q41 -111 78 -150q29 -29 90 -43v-10h-477v10q58 11 92 35q29 19 29 55q0 32 -27 109l-96 272h-477l-94 -272q-25 -77 -25 -115q0 -35 39 -55q45 -22 86 -29zM403 557h424
q-106 301 -108 307l-70 203l-33 100q-12 -39 -32 -96l-72 -203q-21 -57 -61.5 -173.5t-47.5 -137.5zM905 1651l-336 -174l-8 12l252 274q46 52 86 52q34 0 58 -21t24 -55q0 -51 -76 -88z" />
    <glyph glyph-name="Acircumflex" unicode="&#xc2;" horiz-adv-x="1345" 
d="M383 10v-10h-373v10q51 12 82 43q46 46 82 144l322 860q51 132 112 309h135l107 -295l315 -868q41 -111 78 -150q29 -29 90 -43v-10h-477v10q58 11 92 35q29 19 29 55q0 32 -27 109l-96 272h-477l-94 -272q-25 -77 -25 -115q0 -35 39 -55q45 -22 86 -29zM403 557h424
q-106 301 -108 307l-70 203l-33 100q-12 -39 -32 -96l-72 -203q-21 -57 -61.5 -173.5t-47.5 -137.5zM758 1726l223 -253l-8 -11l-297 162l-287 -162l-8 11l225 256q34 40 78 40q37 0 74 -43z" />
    <glyph glyph-name="Atilde" unicode="&#xc3;" horiz-adv-x="1345" 
d="M383 10v-10h-373v10q51 12 82 43q46 46 82 144l322 860q51 132 112 309h135l107 -295l315 -868q41 -111 78 -150q29 -29 90 -43v-10h-477v10q58 11 92 35q29 19 29 55q0 32 -27 109l-96 272h-477l-94 -272q-25 -77 -25 -115q0 -35 39 -55q45 -22 86 -29zM403 557h424
q-106 301 -108 307l-70 203l-33 100q-12 -39 -32 -96l-72 -203q-21 -57 -61.5 -173.5t-47.5 -137.5zM969 1726l12 -4q-52 -202 -170 -202q-58 0 -149 39q-76 36 -132 36q-92 0 -135 -94l-12 4q58 217 170 217q53 0 149 -45q75 -37 134 -37q83 0 133 86z" />
    <glyph glyph-name="Adieresis" unicode="&#xc4;" horiz-adv-x="1345" 
d="M383 10v-10h-373v10q51 12 82 43q46 46 82 144l322 860q51 132 112 309h135l107 -295l315 -868q41 -111 78 -150q29 -29 90 -43v-10h-477v10q58 11 92 35q29 19 29 55q0 32 -27 109l-96 272h-477l-94 -272q-25 -77 -25 -115q0 -35 39 -55q45 -22 86 -29zM403 557h424
q-106 301 -108 307l-70 203l-33 100q-12 -39 -32 -96l-72 -203q-21 -57 -61.5 -173.5t-47.5 -137.5zM594 1595q5 -62 -46.5 -86.5t-103.5 1t-47 85.5q0 43 29 72t72 29q42 0 69 -29t27 -72zM956 1595q5 -62 -46.5 -86.5t-103 1t-46.5 85.5q0 43 28.5 72t71.5 29q42 0 69 -29
t27 -72z" />
    <glyph glyph-name="Aring" unicode="&#xc5;" horiz-adv-x="1345" 
d="M383 10v-10h-373v10q51 12 82 43q46 46 82 144l322 860q51 132 112 309h135l107 -295l315 -868q41 -111 78 -150q29 -29 90 -43v-10h-477v10q58 11 92 35q29 19 29 55q0 32 -27 109l-96 272h-477l-94 -272q-25 -77 -25 -115q0 -35 39 -55q45 -22 86 -29zM403 557h424
q-106 301 -108 307l-70 203l-33 100q-12 -39 -32 -96l-72 -203q-21 -57 -61.5 -173.5t-47.5 -137.5zM840 1622q0 -72 -46 -120t-118 -48q-69 0 -115.5 48t-46.5 120q0 73 46 117.5t120 44.5q72 0 116 -44.5t44 -117.5zM680 1499q51 0 81 33.5t30 87.5t-32 87.5t-83 33.5
q-69 6 -99.5 -56.5t-0.5 -126t104 -59.5z" />
    <glyph glyph-name="AE" unicode="&#xc6;" horiz-adv-x="1914" 
d="M414 10v-10h-408v10q64 15 109 60q43 43 104 129l645 958q51 74 51 119q0 46 -120 80v10h936q55 0 55 -51q0 -63 -19 -215h-12q-25 89 -52 128t-67 50q-41 12 -133 12h-209q-35 0 -47 -12.5t-12 -48.5v-479h160q103 0 161 12q50 10 72 37t41 96h14v-360h-14
q-14 64 -42 93.5t-89 39.5q-40 6 -141 6h-162v-498q0 -58 19 -78t79 -20h226q127 0 174 41q47 35 106 172h10q0 -130 -10 -228q-4 -40 -17.5 -51.5t-52.5 -11.5h-866v10q83 27 109 53q28 31 28 170v250h-524l-170 -270q-61 -94 -61 -127q0 -31 32 -45q33 -15 97 -31z
M1040 1280l-473 -721h473v721z" />
    <glyph glyph-name="Ccedilla" unicode="&#xc7;" horiz-adv-x="1294" 
d="M559 -401v10l6 2q28 -25 90 -25q57 0 90 29t33 80q0 104 -112 104q-27 0 -39 -4l-9 6l66 176q-285 26 -432.5 208.5t-147.5 498.5q0 342 182.5 525.5t530.5 183.5q200 0 324 -47q65 -27 65 -76q0 -65 -37 -201h-12q-22 101 -72 156q-89 92 -278 92q-232 0 -357.5 -156.5
t-125.5 -460.5q0 -307 128.5 -477t376.5 -170q144 0 236 62q73 49 123 145h12q-3 -106 -20 -170q-9 -37 -78 -65q-128 -52 -324 -52q-35 0 -45 2l-33 -100q205 0 205 -170q0 -84 -58.5 -132t-156.5 -48q-94 0 -121 43q-10 17 -10 31z" />
    <glyph glyph-name="Egrave" unicode="&#xc8;" horiz-adv-x="1126" 
d="M983 0h-868v10q69 23 108 53q31 28 31 170v908q0 132 -27 159q-29 32 -112 56v10h835q29 0 38 -9t9 -36q0 -35 -18 -211h-12q-24 83 -51.5 120t-67.5 48q-41 12 -133 12h-207q-35 0 -47 -13.5t-12 -49.5v-477h159q104 0 160 12q51 10 74.5 37t42.5 94h12v-356h-12
q-14 64 -42 92.5t-89 38.5q-40 6 -144 6h-161v-496q0 -58 19 -79t79 -21h225q129 0 178 43q47 38 101 168h12q-10 -208 -14 -238q-5 -31 -17.5 -41t-48.5 -10zM451 1774l254 -277l-11 -12l-334 174q-75 40 -75 88q0 35 23 55.5t59 20.5q41 0 84 -49z" />
    <glyph glyph-name="Eacute" unicode="&#xc9;" horiz-adv-x="1126" 
d="M983 0h-868v10q69 23 108 53q31 28 31 170v908q0 132 -27 159q-29 32 -112 56v10h835q29 0 38 -9t9 -36q0 -35 -18 -211h-12q-24 83 -51.5 120t-67.5 48q-41 12 -133 12h-207q-35 0 -47 -13.5t-12 -49.5v-477h159q104 0 160 12q51 10 74.5 37t42.5 94h12v-356h-12
q-14 64 -42 92.5t-89 38.5q-40 6 -144 6h-161v-496q0 -58 19 -79t79 -21h225q129 0 178 43q47 38 101 168h12q-10 -208 -14 -238q-5 -31 -17.5 -41t-48.5 -10zM836 1651l-336 -174l-8 12l251 274q46 52 86 52q34 0 58 -21t24 -55q0 -51 -75 -88z" />
    <glyph glyph-name="Ecircumflex" unicode="&#xca;" horiz-adv-x="1126" 
d="M983 0h-868v10q69 23 108 53q31 28 31 170v908q0 132 -27 159q-29 32 -112 56v10h835q29 0 38 -9t9 -36q0 -35 -18 -211h-12q-24 83 -51.5 120t-67.5 48q-41 12 -133 12h-207q-35 0 -47 -13.5t-12 -49.5v-477h159q104 0 160 12q51 10 74.5 37t42.5 94h12v-356h-12
q-14 64 -42 92.5t-89 38.5q-40 6 -144 6h-161v-496q0 -58 19 -79t79 -21h225q129 0 178 43q47 38 101 168h12q-10 -208 -14 -238q-5 -31 -17.5 -41t-48.5 -10zM690 1726l223 -253l-8 -11l-297 162l-286 -162l-9 11l226 256q34 40 77 40q37 0 74 -43z" />
    <glyph glyph-name="Edieresis" unicode="&#xcb;" horiz-adv-x="1126" 
d="M983 0h-868v10q69 23 108 53q31 28 31 170v908q0 132 -27 159q-29 32 -112 56v10h835q29 0 38 -9t9 -36q0 -35 -18 -211h-12q-24 83 -51.5 120t-67.5 48q-41 12 -133 12h-207q-35 0 -47 -13.5t-12 -49.5v-477h159q104 0 160 12q51 10 74.5 37t42.5 94h12v-356h-12
q-14 64 -42 92.5t-89 38.5q-40 6 -144 6h-161v-496q0 -58 19 -79t79 -21h225q129 0 178 43q47 38 101 168h12q-10 -208 -14 -238q-5 -31 -17.5 -41t-48.5 -10zM526 1595q5 -62 -46.5 -86.5t-103 1t-46.5 85.5q0 43 28.5 72t71.5 29q42 0 69 -29t27 -72zM889 1595
q5 -62 -46.5 -86.5t-103.5 1t-47 85.5q0 43 29 72t72 29q42 0 69 -29t27 -72z" />
    <glyph glyph-name="Igrave" unicode="&#xcc;" horiz-adv-x="704" 
d="M590 10v-10h-475v10q90 21 116 64q23 41 23 190v844q0 148 -23 186q-24 38 -116 62v10h475v-10q-94 -21 -115 -56q-26 -39 -26 -190v-848q0 -148 26 -190q24 -40 115 -62zM207 1774l254 -277l-10 -12l-334 174q-76 40 -76 88q0 35 23 55.5t59 20.5q41 0 84 -49z" />
    <glyph glyph-name="Iacute" unicode="&#xcd;" horiz-adv-x="704" 
d="M590 10v-10h-475v10q90 21 116 64q23 41 23 190v844q0 148 -23 186q-24 38 -116 62v10h475v-10q-94 -21 -115 -56q-26 -39 -26 -190v-848q0 -148 26 -190q24 -40 115 -62zM567 1659l-336 -174l-8 12l252 275q45 51 86 51q34 0 58 -21t24 -55q0 -51 -76 -88z" />
    <glyph glyph-name="Icircumflex" unicode="&#xce;" horiz-adv-x="704" 
d="M590 10v-10h-475v10q90 21 116 64q23 41 23 190v844q0 148 -23 186q-24 38 -116 62v10h475v-10q-94 -21 -115 -56q-26 -39 -26 -190v-848q0 -148 26 -190q24 -40 115 -62zM424 1726l223 -253l-8 -11l-297 162l-287 -162l-8 11l225 256q34 40 78 40q37 0 74 -43z" />
    <glyph glyph-name="Idieresis" unicode="&#xcf;" horiz-adv-x="704" 
d="M590 10v-10h-475v10q90 21 116 64q23 41 23 190v844q0 148 -23 186q-24 38 -116 62v10h475v-10q-94 -21 -115 -56q-26 -39 -26 -190v-848q0 -148 26 -190q24 -40 115 -62zM266 1595q5 -62 -46.5 -86.5t-103 1t-46.5 85.5q0 43 28.5 72t71.5 29q42 0 69 -29t27 -72z
M629 1595q5 -62 -46.5 -86.5t-103.5 1t-47 85.5q0 43 28.5 72t71.5 29q42 0 69.5 -29t27.5 -72z" />
    <glyph glyph-name="Eth" unicode="&#xd0;" horiz-adv-x="1478" 
d="M635 0h-520v10q64 19 88.5 34.5t34.5 43.5q16 46 16 203v383h-168v84h168v317q0 167 -18 207q-18 50 -121 74v10h555q301 0 450 -94q256 -164 256 -551q0 -721 -741 -721zM449 674v-404q0 -107 10 -137q8 -31 39 -45q50 -16 141 -16q266 0 393 153.5t127 481.5
q0 307 -137 456q-114 129 -401 129q-124 0 -152 -28q-20 -20 -20 -138v-368h387v-84h-387z" />
    <glyph glyph-name="Ntilde" unicode="&#xd1;" horiz-adv-x="1495" 
d="M502 10v-10h-391v10q91 25 118 68q25 39 25 196q0 232 2 402t2 381q0 190 -22 229q-27 43 -121 70v10h305q38 0 65 -37q609 -875 701 -1022q-7 330 -10 793q-3 153 -25 184q-28 48 -119 72v10h377v-10q-91 -28 -115 -68t-24 -196v-1106h-107q-710 1040 -823 1210
q10 -615 10 -920q0 -156 27 -196q29 -44 125 -70zM1061 1726l12 -4q-52 -202 -170 -202q-58 0 -149 39q-76 36 -131 36q-93 0 -136 -94l-12 4q58 217 170 217q54 0 150 -45q75 -37 133 -37q83 0 133 86z" />
    <glyph glyph-name="Ograve" unicode="&#xd2;" horiz-adv-x="1480" 
d="M1376 700q0 -348 -168.5 -537.5t-470.5 -189.5q-300 0 -466.5 177.5t-166.5 517.5q0 354 183 540q185 185 465 185q302 0 463 -178.5t161 -514.5zM1163 676q0 643 -413 643q-80 0 -146.5 -26.5t-132.5 -88.5q-69 -64 -108 -196.5t-39 -315.5q0 -645 417 -645
q201 0 311.5 158t110.5 471zM625 1774l254 -277l-11 -12l-333 174q-76 40 -76 88q0 35 23 55.5t59 20.5q41 0 84 -49z" />
    <glyph glyph-name="Oacute" unicode="&#xd3;" horiz-adv-x="1480" 
d="M1376 700q0 -348 -168.5 -537.5t-470.5 -189.5q-300 0 -466.5 177.5t-166.5 517.5q0 354 183 540q185 185 465 185q302 0 463 -178.5t161 -514.5zM1163 676q0 643 -413 643q-80 0 -146.5 -26.5t-132.5 -88.5q-69 -64 -108 -196.5t-39 -315.5q0 -645 417 -645
q201 0 311.5 158t110.5 471zM958 1659l-335 -174l-9 12l252 275q45 51 86 51q34 0 58 -21t24 -55q0 -51 -76 -88z" />
    <glyph glyph-name="Ocircumflex" unicode="&#xd4;" horiz-adv-x="1480" 
d="M1376 700q0 -348 -168.5 -537.5t-470.5 -189.5q-300 0 -466.5 177.5t-166.5 517.5q0 354 183 540q185 185 465 185q302 0 463 -178.5t161 -514.5zM1163 676q0 643 -413 643q-80 0 -146.5 -26.5t-132.5 -88.5q-69 -64 -108 -196.5t-39 -315.5q0 -645 417 -645
q201 0 311.5 158t110.5 471zM823 1726l224 -253l-9 -11l-297 162l-286 -162l-9 11l226 256q34 40 78 40q36 0 73 -43z" />
    <glyph glyph-name="Otilde" unicode="&#xd5;" horiz-adv-x="1480" 
d="M1376 700q0 -348 -168.5 -537.5t-470.5 -189.5q-300 0 -466.5 177.5t-166.5 517.5q0 354 183 540q185 185 465 185q302 0 463 -178.5t161 -514.5zM1163 676q0 643 -413 643q-80 0 -146.5 -26.5t-132.5 -88.5q-69 -64 -108 -196.5t-39 -315.5q0 -645 417 -645
q201 0 311.5 158t110.5 471zM1030 1726l12 -4q-52 -202 -170 -202q-58 0 -149 39q-76 36 -131 36q-92 0 -135 -94l-13 4q58 217 170 217q54 0 150 -45q75 -37 133 -37q83 0 133 86z" />
    <glyph glyph-name="Odieresis" unicode="&#xd6;" horiz-adv-x="1480" 
d="M1376 700q0 -348 -168.5 -537.5t-470.5 -189.5q-300 0 -466.5 177.5t-166.5 517.5q0 354 183 540q185 185 465 185q302 0 463 -178.5t161 -514.5zM1163 676q0 643 -413 643q-80 0 -146.5 -26.5t-132.5 -88.5q-69 -64 -108 -196.5t-39 -315.5q0 -645 417 -645
q201 0 311.5 158t110.5 471zM659 1595q5 -62 -46.5 -86.5t-103 1t-46.5 85.5q0 43 28.5 72t71.5 29q42 0 69 -29t27 -72zM1022 1595q5 -62 -46.5 -86.5t-103.5 1t-47 85.5q0 43 29 72t72 29q42 0 69 -29t27 -72z" />
    <glyph glyph-name="multiply" unicode="&#xd7;" horiz-adv-x="1302" 
d="M649 477l-303 -305l-78 80l299 309l-303 307l84 88l303 -307l299 305l82 -82l-299 -307l303 -307l-82 -86z" />
    <glyph glyph-name="Oslash" unicode="&#xd8;" horiz-adv-x="1480" 
d="M338 90l-111 -149l-59 43l115 155q-179 182 -179 533q0 357 185 542q188 185 469 185q223 0 372 -101l117 158l60 -43l-119 -160q194 -179 194 -548q0 -352 -169 -542t-474 -190q-245 0 -401 117zM1169 678q0 278 -79 440l-664 -905q108 -166 324 -166q199 0 309 159
t110 472zM324 694q0 -255 65 -409l660 901q-102 141 -295 141q-82 0 -150 -26.5t-133 -90.5q-69 -64 -108 -197.5t-39 -318.5z" />
    <glyph glyph-name="Ugrave" unicode="&#xd9;" horiz-adv-x="1488" 
d="M98 1356v10h475v-10q-90 -24 -118 -66q-23 -44 -23 -145v-615q0 -201 37 -294q70 -181 324 -181q103 0 185.5 35.5t119.5 93.5q65 95 65 346v578q0 149 -35 190q-30 40 -112 58v10h385v-10q-68 -18 -103 -56q-41 -41 -41 -192v-549q0 -296 -86 -414q-123 -172 -426 -172
q-341 0 -446 193q-61 110 -61 385v588q0 123 -27 157q-25 36 -113 60zM627 1774l254 -277l-11 -12l-333 174q-76 40 -76 88q0 35 23 55.5t59 20.5q41 0 84 -49z" />
    <glyph glyph-name="Uacute" unicode="&#xda;" horiz-adv-x="1488" 
d="M98 1356v10h475v-10q-90 -24 -118 -66q-23 -44 -23 -145v-615q0 -201 37 -294q70 -181 324 -181q103 0 185.5 35.5t119.5 93.5q65 95 65 346v578q0 149 -35 190q-30 40 -112 58v10h385v-10q-68 -18 -103 -56q-41 -41 -41 -192v-549q0 -296 -86 -414q-123 -172 -426 -172
q-341 0 -446 193q-61 110 -61 385v588q0 123 -27 157q-25 36 -113 60zM987 1659l-336 -174l-8 12l252 275q45 51 86 51q34 0 58 -21t24 -55q0 -51 -76 -88z" />
    <glyph glyph-name="Ucircumflex" unicode="&#xdb;" horiz-adv-x="1488" 
d="M98 1356v10h475v-10q-90 -24 -118 -66q-23 -44 -23 -145v-615q0 -201 37 -294q70 -181 324 -181q103 0 185.5 35.5t119.5 93.5q65 95 65 346v578q0 149 -35 190q-30 40 -112 58v10h385v-10q-68 -18 -103 -56q-41 -41 -41 -192v-549q0 -296 -86 -414q-123 -172 -426 -172
q-341 0 -446 193q-61 110 -61 385v588q0 123 -27 157q-25 36 -113 60zM848 1726l223 -253l-8 -11l-297 162l-287 -162l-8 11l225 256q34 40 78 40q37 0 74 -43z" />
    <glyph glyph-name="Udieresis" unicode="&#xdc;" horiz-adv-x="1488" 
d="M98 1356v10h475v-10q-90 -24 -118 -66q-23 -44 -23 -145v-615q0 -201 37 -294q70 -181 324 -181q103 0 185.5 35.5t119.5 93.5q65 95 65 346v578q0 149 -35 190q-30 40 -112 58v10h385v-10q-68 -18 -103 -56q-41 -41 -41 -192v-549q0 -296 -86 -414q-123 -172 -426 -172
q-341 0 -446 193q-61 110 -61 385v588q0 123 -27 157q-25 36 -113 60zM686 1595q5 -62 -46.5 -86.5t-103.5 1t-47 85.5q0 43 29 72t72 29q42 0 69 -29t27 -72zM1049 1595q5 -62 -46.5 -86.5t-103.5 1t-47 85.5q0 43 28.5 72t71.5 29q42 0 69.5 -29t27.5 -72z" />
    <glyph glyph-name="Yacute" unicode="&#xdd;" horiz-adv-x="1288" 
d="M881 10v-10h-475v10q89 21 114 64q25 42 25 184v330l-365 602q-62 101 -98 131q-34 26 -70 35v10h486v-10q-50 -10 -90 -31q-31 -19 -31 -39q0 -34 41 -102l289 -492l272 473q41 68 41 113q0 28 -37 49q-28 18 -72 29v10h365v-10q-53 -14 -96 -60q-29 -31 -78 -106
l-361 -584v-350q0 -150 27 -184q21 -34 113 -62zM922 1659l-336 -174l-8 12l251 275q45 51 86 51q34 0 58 -21t24 -55q0 -51 -75 -88z" />
    <glyph glyph-name="Thorn" unicode="&#xde;" horiz-adv-x="1226" 
d="M594 10v-10h-479v10q90 27 116 64q23 41 23 186v848q0 150 -23 188q-22 36 -116 60v10h475v-10q-97 -21 -117 -58q-24 -40 -24 -180v-39q47 6 141 6q122 0 207 -15t161 -52q162 -75 162 -307q0 -201 -142 -302.5t-392 -101.5q-72 0 -137 6v-65q0 -143 26 -176
q35 -41 119 -62zM449 930v-545q62 -4 120 -4q340 0 340 328q0 217 -153 276q-79 29 -195 29q-70 0 -91 -16.5t-21 -67.5z" />
    <glyph glyph-name="germandbls" unicode="&#xdf;" horiz-adv-x="1034" 
d="M338 0h-262v10q52 21 67 39q35 35 35 162v647q0 268 31 359q79 229 334 229q146 0 222.5 -69.5t76.5 -192.5q0 -142 -123 -262l-74 -72q-59 -59 -59 -98q0 -24 20.5 -47t85.5 -74l125 -99q144 -114 144 -260q0 -40 -7.5 -78t-29 -79.5t-54.5 -71.5t-89.5 -50t-129.5 -20
q-120 0 -178 37q-37 24 -37 64q0 62 21 151h10q41 -176 186 -176q79 0 121.5 45t42.5 117q0 56 -22 98t-99 101l-123 98q-72 56 -99.5 94.5t-27.5 85.5q0 79 97 176l73 74q95 95 95 244q0 93 -46 143.5t-126 50.5q-119 0 -168 -104q-39 -85 -39 -268v-730q0 -175 6 -274z
" />
    <glyph glyph-name="agrave" unicode="&#xe0;" horiz-adv-x="1042" 
d="M676 147q-85 -172 -295 -172q-136 0 -218.5 76t-82.5 199q0 166 182 219q85 24 301 57q74 9 90 25q13 16 13 61v58q0 129 -45 174q-52 55 -179 55q-97 0 -172 -29t-106 -77l-6 2q-4 16 -4 32q0 80 100 131q105 54 252 54q172 0 255 -71t83 -234q0 -99 -2 -224v-276
q0 -89 22 -119.5t78 -30.5q32 0 66 9l4 -9q-77 -80 -181 -80q-149 0 -155 170zM666 266v223q-20 -8 -66 -18l-78 -14q-117 -22 -157 -39q-103 -41 -103 -160q0 -89 52 -135.5t135 -46.5q158 0 204 110q13 32 13 80zM422 1466l180 -321l-8 -10l-285 239q-53 47 -53 88
q0 32 23.5 52t56.5 20q51 0 86 -68z" />
    <glyph glyph-name="aacute" unicode="&#xe1;" horiz-adv-x="1042" 
d="M676 147q-85 -172 -295 -172q-136 0 -218.5 76t-82.5 199q0 166 182 219q85 24 301 57q74 9 90 25q13 16 13 61v58q0 129 -45 174q-52 55 -179 55q-97 0 -172 -29t-106 -77l-6 2q-4 16 -4 32q0 80 100 131q105 54 252 54q172 0 255 -71t83 -234q0 -99 -2 -224v-276
q0 -89 22 -119.5t78 -30.5q32 0 66 9l4 -9q-77 -80 -181 -80q-149 0 -155 170zM666 266v223q-20 -8 -66 -18l-78 -14q-117 -22 -157 -39q-103 -41 -103 -160q0 -89 52 -135.5t135 -46.5q158 0 204 110q13 32 13 80zM709 1374l-283 -239l-10 10l180 319q37 70 86 70
q33 0 56.5 -20t23.5 -52q0 -41 -53 -88z" />
    <glyph glyph-name="acircumflex" unicode="&#xe2;" horiz-adv-x="1042" 
d="M676 147q-85 -172 -295 -172q-136 0 -218.5 76t-82.5 199q0 166 182 219q85 24 301 57q74 9 90 25q13 16 13 61v58q0 129 -45 174q-52 55 -179 55q-97 0 -172 -29t-106 -77l-6 2q-4 16 -4 32q0 80 100 131q105 54 252 54q172 0 255 -71t83 -234q0 -99 -2 -224v-276
q0 -89 22 -119.5t78 -30.5q32 0 66 9l4 -9q-77 -80 -181 -80q-149 0 -155 170zM666 266v223q-20 -8 -66 -18l-78 -14q-117 -22 -157 -39q-103 -41 -103 -160q0 -89 52 -135.5t135 -46.5q158 0 204 110q13 32 13 80zM578 1427l202 -286l-8 -8l-274 192l-267 -190l-8 6
l207 289q35 47 74 47t74 -50z" />
    <glyph glyph-name="atilde" unicode="&#xe3;" horiz-adv-x="1042" 
d="M676 147q-85 -172 -295 -172q-136 0 -218.5 76t-82.5 199q0 166 182 219q85 24 301 57q74 9 90 25q13 16 13 61v58q0 129 -45 174q-52 55 -179 55q-97 0 -172 -29t-106 -77l-6 2q-4 16 -4 32q0 80 100 131q105 54 252 54q172 0 255 -71t83 -234q0 -99 -2 -224v-276
q0 -89 22 -119.5t78 -30.5q32 0 66 9l4 -9q-77 -80 -181 -80q-149 0 -155 170zM666 266v223q-20 -8 -66 -18l-78 -14q-117 -22 -157 -39q-103 -41 -103 -160q0 -89 52 -135.5t135 -46.5q158 0 204 110q13 32 13 80zM776 1386l12 -4q-18 -68 -28 -90q-14 -41 -51 -75.5
t-82 -34.5q-58 0 -140 39q-75 34 -122 34q-83 0 -129 -94l-13 4q26 93 51 142q41 75 111 75q46 0 139 -43q82 -39 127 -39q78 0 125 86z" />
    <glyph glyph-name="adieresis" unicode="&#xe4;" horiz-adv-x="1042" 
d="M676 147q-85 -172 -295 -172q-136 0 -218.5 76t-82.5 199q0 166 182 219q85 24 301 57q74 9 90 25q13 16 13 61v58q0 129 -45 174q-52 55 -179 55q-97 0 -172 -29t-106 -77l-6 2q-4 16 -4 32q0 80 100 131q105 54 252 54q172 0 255 -71t83 -234q0 -99 -2 -224v-276
q0 -89 22 -119.5t78 -30.5q32 0 66 9l4 -9q-77 -80 -181 -80q-149 0 -155 170zM666 266v223q-20 -8 -66 -18l-78 -14q-117 -22 -157 -39q-103 -41 -103 -160q0 -89 52 -135.5t135 -46.5q158 0 204 110q13 32 13 80zM424 1282q0 -44 -26.5 -71t-69.5 -27q-42 0 -69.5 27
t-27.5 71q0 43 28 70.5t71 27.5q42 0 68 -27.5t26 -70.5zM764 1282q0 -46 -30 -72t-66.5 -26t-66.5 26t-30 72q0 43 27.5 70.5t71.5 27.5q41 0 67.5 -27.5t26.5 -70.5z" />
    <glyph glyph-name="aring" unicode="&#xe5;" horiz-adv-x="1042" 
d="M676 147q-85 -172 -295 -172q-136 0 -218.5 76t-82.5 199q0 166 182 219q85 24 301 57q74 9 90 25q13 16 13 61v58q0 129 -45 174q-52 55 -179 55q-97 0 -172 -29t-106 -77l-6 2q-4 16 -4 32q0 80 100 131q105 54 252 54q172 0 255 -71t83 -234q0 -99 -2 -224v-276
q0 -89 22 -119.5t78 -30.5q32 0 66 9l4 -9q-77 -80 -181 -80q-149 0 -155 170zM666 266v223q-20 -8 -66 -18l-78 -14q-117 -22 -157 -39q-103 -41 -103 -160q0 -89 52 -135.5t135 -46.5q158 0 204 110q13 32 13 80zM666 1298q0 -73 -48 -122.5t-122 -49.5q-73 0 -121.5 49
t-48.5 123q0 73 49.5 120.5t124.5 47.5q74 0 120 -46.5t46 -121.5zM616 1296q0 56 -33 90.5t-87 34.5q-55 0 -87 -33.5t-32 -89.5q0 -55 33.5 -91t89.5 -36q53 0 84.5 35t31.5 90z" />
    <glyph glyph-name="ae" unicode="&#xe6;" horiz-adv-x="1566" 
d="M741 154q-126 -179 -352 -179q-134 0 -221.5 81.5t-87.5 205.5q0 200 239 258q122 28 343 37q2 18 2 107q0 130 -43 176q-51 57 -179 57q-204 0 -278 -111l-6 2q-4 16 -4 33q0 81 100 135q103 56 248 56q234 0 286 -166q108 166 332 166q181 0 276 -102t95 -283
q0 -104 -8 -117q-9 -18 -60 -18h-579v-11q0 -221 98 -309q104 -90 244 -90q169 0 293 100l6 -4v-10q0 -22 -10 -39q-39 -66 -129.5 -111t-217.5 -45q-273 0 -387 181zM709 211q-47 112 -47 276q-144 -3 -250 -34q-150 -43 -150 -179q0 -89 58 -137.5t143 -48.5
q167 0 246 123zM848 559h455q4 36 4 105q0 280 -203 280q-116 0 -185.5 -104t-70.5 -281z" />
    <glyph glyph-name="ccedilla" unicode="&#xe7;" horiz-adv-x="935" 
d="M354 -389v8l6 2q24 -24 89 -24q54 0 85 27.5t31 78.5q0 102 -106 102q-25 0 -41 -4l-6 6l61 173q-180 24 -280.5 152.5t-100.5 346.5q0 261 137 395q138 138 365 138q137 0 215 -35q49 -21 49 -59q0 -58 -31 -170h-10q-26 96 -86 147q-52 43 -147 43q-137 0 -218 -103.5
t-81 -320.5q0 -223 88.5 -327.5t244.5 -104.5q151 0 261 88l6 -2v-12q0 -14 -17 -45q-34 -61 -117 -99.5t-202 -38.5h-27l-33 -94q99 0 149 -44.5t50 -119.5q0 -81 -55.5 -128.5t-147.5 -47.5q-108 0 -123 41q-8 13 -8 31z" />
    <glyph glyph-name="egrave" unicode="&#xe8;" horiz-adv-x="1007" 
d="M287 602h454q4 36 4 66q0 276 -198 276q-117 0 -185 -88.5t-75 -253.5zM862 532h-579v-24q0 -238 98 -332q101 -94 244 -94q169 0 293 100l8 -4v-10q0 -8 -11 -37q-35 -67 -126 -112.5t-220 -45.5q-237 0 -357 133.5t-120 376.5q0 249 129 387q130 142 340 142
q182 0 275.5 -99t93.5 -276q0 -73 -8 -86q-13 -19 -60 -19zM469 1466l180 -321l-8 -10l-285 239q-53 47 -53 88q0 32 23.5 52t56.5 20q51 0 86 -68z" />
    <glyph glyph-name="eacute" unicode="&#xe9;" horiz-adv-x="1007" 
d="M287 602h454q4 36 4 66q0 276 -198 276q-117 0 -185 -88.5t-75 -253.5zM862 532h-579v-24q0 -238 98 -332q101 -94 244 -94q169 0 293 100l8 -4v-10q0 -8 -11 -37q-35 -67 -126 -112.5t-220 -45.5q-237 0 -357 133.5t-120 376.5q0 249 129 387q130 142 340 142
q182 0 275.5 -99t93.5 -276q0 -73 -8 -86q-13 -19 -60 -19zM750 1374l-283 -239l-10 10l180 319q37 70 86 70q33 0 56.5 -20t23.5 -52q0 -41 -53 -88z" />
    <glyph glyph-name="ecircumflex" unicode="&#xea;" horiz-adv-x="1007" 
d="M287 602h454q4 36 4 66q0 276 -198 276q-117 0 -185 -88.5t-75 -253.5zM862 532h-579v-24q0 -238 98 -332q101 -94 244 -94q169 0 293 100l8 -4v-10q0 -8 -11 -37q-35 -67 -126 -112.5t-220 -45.5q-237 0 -357 133.5t-120 376.5q0 249 129 387q130 142 340 142
q182 0 275.5 -99t93.5 -276q0 -73 -8 -86q-13 -19 -60 -19zM606 1427l203 -286l-8 -8l-275 192l-266 -190l-8 6l207 289q35 47 73 47q39 0 74 -50z" />
    <glyph glyph-name="edieresis" unicode="&#xeb;" horiz-adv-x="1007" 
d="M287 602h454q4 36 4 66q0 276 -198 276q-117 0 -185 -88.5t-75 -253.5zM862 532h-579v-24q0 -238 98 -332q101 -94 244 -94q169 0 293 100l8 -4v-10q0 -8 -11 -37q-35 -67 -126 -112.5t-220 -45.5q-237 0 -357 133.5t-120 376.5q0 249 129 387q130 142 340 142
q182 0 275.5 -99t93.5 -276q0 -73 -8 -86q-13 -19 -60 -19zM481 1290q0 -44 -26.5 -71t-69.5 -27q-42 0 -69 27t-27 71q0 43 27.5 71t70.5 28q42 0 68 -28t26 -71zM821 1290q0 -46 -30 -72t-66 -26t-66 26t-30 72q0 43 27 71t71 28q41 0 67.5 -28t26.5 -71z" />
    <glyph glyph-name="igrave" unicode="&#xec;" horiz-adv-x="598" 
d="M199 1466l180 -321l-8 -10l-285 239q-53 47 -53 88q0 32 23.5 52t56.5 20q51 0 86 -68zM514 8v-8h-420v8q73 27 94 64q23 38 23 159v484q0 132 -23 176q-34 58 -98 67v11q122 35 256 35q28 0 37.5 -12.5t9.5 -45.5q0 -5 -0.5 -24.5t-1.5 -60t-2 -83.5q-2 -98 -2 -198
v-347q0 -117 23 -161q29 -43 104 -64z" />
    <glyph glyph-name="iacute" unicode="&#xed;" horiz-adv-x="598" 
d="M434 1374l-282 -239l-11 10l181 319q37 70 86 70q33 0 56 -20t23 -52q0 -41 -53 -88zM514 8v-8h-420v8q73 27 94 64q23 38 23 159v484q0 132 -23 176q-34 58 -98 67v11q122 35 256 35q28 0 37.5 -12.5t9.5 -45.5q0 -5 -0.5 -24.5t-1.5 -60t-2 -83.5q-2 -98 -2 -198v-347
q0 -117 23 -161q29 -43 104 -64z" />
    <glyph glyph-name="icircumflex" unicode="&#xee;" horiz-adv-x="598" 
d="M514 8v-8h-420v8q73 27 94 64q23 38 23 159v484q0 132 -23 176q-34 58 -98 67v11q122 35 256 35q28 0 37.5 -12.5t9.5 -45.5q0 -5 -0.5 -24.5t-1.5 -60t-2 -83.5q-2 -98 -2 -198v-347q0 -117 23 -161q29 -43 104 -64zM358 1427l203 -286l-8 -8l-274 192l-267 -190l-8 6
l207 289q35 47 74 47q38 0 73 -50z" />
    <glyph glyph-name="idieresis" unicode="&#xef;" horiz-adv-x="598" 
d="M219 1290q0 -44 -26.5 -71t-69.5 -27q-42 0 -69 27t-27 71q0 43 27.5 71t70.5 28q42 0 68 -28t26 -71zM559 1290q0 -46 -30 -72t-66 -26t-66 26t-30 72q0 43 27 71t71 28q41 0 67.5 -28t26.5 -71zM514 8v-8h-420v8q73 27 94 64q23 38 23 159v484q0 132 -23 176
q-34 58 -98 67v11q122 35 256 35q28 0 37.5 -12.5t9.5 -45.5q0 -5 -0.5 -24.5t-1.5 -60t-2 -83.5q-2 -98 -2 -198v-347q0 -117 23 -161q29 -43 104 -64z" />
    <glyph glyph-name="eth" unicode="&#xf0;" horiz-adv-x="1148" 
d="M936 1438l43 -64l-170 -104q118 -136 182 -328.5t64 -409.5q0 -261 -126 -410t-356 -149q-226 0 -352.5 127t-126.5 373q0 255 135 387q137 131 344 131q182 0 254 -106q-34 168 -127 315l-194 -121l-41 66l190 119q-115 139 -258 186l25 55q193 -45 334 -180zM862 473
q0 235 -71 341t-211 106q-119 0 -207 -101q-86 -100 -86 -332q0 -225 76.5 -334.5t214.5 -109.5q284 0 284 430z" />
    <glyph glyph-name="ntilde" unicode="&#xf1;" horiz-adv-x="1241" 
d="M514 8v-8h-420v8q73 24 94 64q23 41 23 161v484q0 136 -25 178q-36 54 -96 63v11q111 32 244 32q47 0 53 -38q4 -36 4 -152q38 92 134 146.5t218 54.5q223 0 269 -168q20 -67 20 -219v-383q0 -132 29 -179q22 -31 100 -55v-8h-420v8q69 21 93 62q22 42 22 170v335
q0 207 -47 263q-52 61 -158 61q-108 0 -184 -55q-54 -42 -68 -90q-12 -50 -12 -113v-403q0 -129 25 -168q28 -39 102 -62zM895 1386l12 -4q-18 -68 -28 -90q-14 -41 -51 -75.5t-83 -34.5q-57 0 -139 39q-75 34 -123 34q-83 0 -129 -94l-12 4q26 93 51 142q41 75 111 75
q46 0 139 -43q82 -39 127 -39q78 0 125 86z" />
    <glyph glyph-name="ograve" unicode="&#xf2;" horiz-adv-x="1146" 
d="M1057 506q0 -255 -127.5 -394t-356.5 -139q-226 0 -353.5 129.5t-127.5 380.5q0 262 141 394q144 135 359 135q227 0 346 -129.5t119 -376.5zM862 489q0 453 -278 453q-123 0 -211 -98t-88 -344q0 -234 77 -345.5t216 -111.5q284 0 284 446zM487 1466l181 -321l-9 -10
l-284 239q-53 47 -53 88q0 32 23 52t56 20q51 0 86 -68z" />
    <glyph glyph-name="oacute" unicode="&#xf3;" horiz-adv-x="1146" 
d="M1057 506q0 -255 -127.5 -394t-356.5 -139q-226 0 -353.5 129.5t-127.5 380.5q0 262 141 394q144 135 359 135q227 0 346 -129.5t119 -376.5zM862 489q0 453 -278 453q-123 0 -211 -98t-88 -344q0 -234 77 -345.5t216 -111.5q284 0 284 446zM764 1374l-283 -239l-10 10
l180 319q37 70 86 70q33 0 56.5 -20t23.5 -52q0 -41 -53 -88z" />
    <glyph glyph-name="ocircumflex" unicode="&#xf4;" horiz-adv-x="1146" 
d="M1057 506q0 -255 -127.5 -394t-356.5 -139q-226 0 -353.5 129.5t-127.5 380.5q0 262 141 394q144 135 359 135q227 0 346 -129.5t119 -376.5zM862 489q0 453 -278 453q-123 0 -211 -98t-88 -344q0 -234 77 -345.5t216 -111.5q284 0 284 446zM657 1427l203 -286l-8 -8
l-274 192l-267 -190l-8 6l207 289q35 47 74 47q38 0 73 -50z" />
    <glyph glyph-name="otilde" unicode="&#xf5;" horiz-adv-x="1146" 
d="M1057 506q0 -255 -127.5 -394t-356.5 -139q-226 0 -353.5 129.5t-127.5 380.5q0 262 141 394q144 135 359 135q227 0 346 -129.5t119 -376.5zM862 489q0 453 -278 453q-123 0 -211 -98t-88 -344q0 -234 77 -345.5t216 -111.5q284 0 284 446zM846 1386l12 -4
q-17 -62 -29 -90q-14 -41 -51 -75.5t-82 -34.5q-57 0 -139 39q-75 34 -123 34q-83 0 -129 -94l-12 4q26 93 51 142q41 75 111 75q46 0 139 -43q82 -39 127 -39q78 0 125 86z" />
    <glyph glyph-name="odieresis" unicode="&#xf6;" horiz-adv-x="1146" 
d="M1057 506q0 -255 -127.5 -394t-356.5 -139q-226 0 -353.5 129.5t-127.5 380.5q0 262 141 394q144 135 359 135q227 0 346 -129.5t119 -376.5zM862 489q0 453 -278 453q-123 0 -211 -98t-88 -344q0 -234 77 -345.5t216 -111.5q284 0 284 446zM498 1290q0 -44 -27 -71
t-70 -27q-42 0 -69 27t-27 71q0 43 27.5 71t70.5 28q42 0 68.5 -28t26.5 -71zM838 1290q0 -46 -30 -72t-66.5 -26t-66.5 26t-30 72q0 43 27 71t71 28q41 0 68 -28t27 -71z" />
    <glyph glyph-name="divide" unicode="&#xf7;" horiz-adv-x="1302" 
d="M752 856q0 -41 -26 -67.5t-67 -26.5q-42 0 -68 26t-26 68q0 43 25.5 69.5t68.5 26.5q41 0 67 -26.5t26 -69.5zM1114 610v-121h-924v121h924zM752 238q0 -41 -26 -68t-67 -27q-42 0 -68 26.5t-26 68.5q0 43 25.5 69.5t68.5 26.5q41 0 67 -26.5t26 -69.5z" />
    <glyph glyph-name="oslash" unicode="&#xf8;" horiz-adv-x="1146" 
d="M279 51l-91 -123l-53 37l94 129q-137 131 -137 389q0 262 141 394q144 135 359 135q148 0 260 -62l96 131l56 -37l-97 -133q150 -126 150 -405q0 -255 -127.5 -394t-356.5 -139q-172 0 -294 78zM862 489q0 182 -47 297l-457 -626q74 -117 220 -117q134 0 209 111.5
t75 334.5zM285 500q0 -169 41 -275l452 625q-71 92 -194 92t-211 -98t-88 -344z" />
    <glyph glyph-name="ugrave" unicode="&#xf9;" horiz-adv-x="1232" 
d="M848 166q-46 -95 -134 -144t-200 -49q-234 0 -293 170q-24 67 -24 217v347q0 123 -17 176q-25 60 -104 78v12q107 26 254 26q30 0 39.5 -9t9.5 -38l-1 -16q0 -15 -1 -48.5t-2 -72.5q-2 -88 -2 -207v-213q0 -188 53 -250q53 -59 162 -59q113 0 188 66q37 32 53 81
q13 44 13 142v325q0 138 -19 181q-21 59 -104 80v12q116 26 260 26q28 0 37.5 -8.5t9.5 -38.5v-6q0 -7 -0.5 -19.5t-1 -29t-1 -42t-1.5 -52.5q-4 -196 -4 -223v-359q0 -158 100 -158q29 0 64 7l4 -7q-32 -35 -89.5 -58t-109.5 -23q-67 0 -101 43t-38 141zM504 1470l180 -321
l-8 -10l-285 239q-53 47 -53 88q0 32 23.5 52t56.5 20q51 0 86 -68z" />
    <glyph glyph-name="uacute" unicode="&#xfa;" horiz-adv-x="1232" 
d="M848 166q-46 -95 -134 -144t-200 -49q-234 0 -293 170q-24 67 -24 217v347q0 123 -17 176q-25 60 -104 78v12q107 26 254 26q30 0 39.5 -9t9.5 -38l-1 -16q0 -15 -1 -48.5t-2 -72.5q-2 -88 -2 -207v-213q0 -188 53 -250q53 -59 162 -59q113 0 188 66q37 32 53 81
q13 44 13 142v325q0 138 -19 181q-21 59 -104 80v12q116 26 260 26q28 0 37.5 -8.5t9.5 -38.5v-6q0 -7 -0.5 -19.5t-1 -29t-1 -42t-1.5 -52.5q-4 -196 -4 -223v-359q0 -158 100 -158q29 0 64 7l4 -7q-32 -35 -89.5 -58t-109.5 -23q-67 0 -101 43t-38 141zM782 1374
l-282 -239l-11 10l181 319q37 70 86 70q33 0 56.5 -20t23.5 -52q0 -40 -54 -88z" />
    <glyph glyph-name="ucircumflex" unicode="&#xfb;" horiz-adv-x="1232" 
d="M848 166q-46 -95 -134 -144t-200 -49q-234 0 -293 170q-24 67 -24 217v347q0 123 -17 176q-25 60 -104 78v12q107 26 254 26q30 0 39.5 -9t9.5 -38l-1 -16q0 -15 -1 -48.5t-2 -72.5q-2 -88 -2 -207v-213q0 -188 53 -250q53 -59 162 -59q113 0 188 66q37 32 53 81
q13 44 13 142v325q0 138 -19 181q-21 59 -104 80v12q116 26 260 26q28 0 37.5 -8.5t9.5 -38.5v-6q0 -7 -0.5 -19.5t-1 -29t-1 -42t-1.5 -52.5q-4 -196 -4 -223v-359q0 -158 100 -158q29 0 64 7l4 -7q-32 -35 -89.5 -58t-109.5 -23q-67 0 -101 43t-38 141zM680 1427l203 -286
l-9 -8l-274 192l-266 -190l-8 6l206 289q35 47 74 47t74 -50z" />
    <glyph glyph-name="udieresis" unicode="&#xfc;" horiz-adv-x="1232" 
d="M848 166q-46 -95 -134 -144t-200 -49q-234 0 -293 170q-24 67 -24 217v347q0 123 -17 176q-25 60 -104 78v12q107 26 254 26q30 0 39.5 -9t9.5 -38l-1 -16q0 -15 -1 -48.5t-2 -72.5q-2 -88 -2 -207v-213q0 -188 53 -250q53 -59 162 -59q113 0 188 66q37 32 53 81
q13 44 13 142v325q0 138 -19 181q-21 59 -104 80v12q116 26 260 26q28 0 37.5 -8.5t9.5 -38.5v-6q0 -7 -0.5 -19.5t-1 -29t-1 -42t-1.5 -52.5q-4 -196 -4 -223v-359q0 -158 100 -158q29 0 64 7l4 -7q-32 -35 -89.5 -58t-109.5 -23q-67 0 -101 43t-38 141zM530 1290
q0 -44 -26.5 -71t-69.5 -27q-42 0 -69 27t-27 71q0 43 27.5 71t70.5 28q42 0 68 -28t26 -71zM870 1290q0 -46 -30 -72t-66 -26t-66 26t-30 72q0 43 27 71t71 28q41 0 67.5 -28t26.5 -71z" />
    <glyph glyph-name="yacute" unicode="&#xfd;" horiz-adv-x="1093" 
d="M147 -256h13q27 -96 106 -96q80 0 127 78q79 142 129 274h-53q-95 249 -330 821q-45 108 -76 127q-26 18 -51 29v8h426v-8q-59 -18 -92 -39q-27 -15 -27 -43q0 -26 23 -90q209 -543 246 -660q41 119 235 656q21 59 21 94q0 25 -31 47q-36 20 -82 35v8h322v-8
q-31 -12 -52 -25q-38 -25 -83 -137q-229 -589 -310 -815q-83 -223 -162 -354q-79 -125 -213 -125q-39 0 -73 12q-39 14 -39 55q0 58 26 156zM799 1374l-283 -239l-10 10l180 319q37 70 86 70q33 0 56.5 -20t23.5 -52q0 -41 -53 -88z" />
    <glyph glyph-name="thorn" unicode="&#xfe;" horiz-adv-x="1163" 
d="M520 -440v-11h-454v11q73 22 96 61q22 36 22 160v1380q0 124 -14 162q-21 62 -107 80v10q126 33 263 33q23 0 32 -11t9 -40q0 -39 -1 -117.5t-2 -207.5t-2 -249q32 84 127.5 138.5t206.5 54.5q183 0 278 -127.5t95 -372.5q0 -253 -129.5 -388.5t-349.5 -135.5
q-156 0 -230 45v-252q0 -121 27 -162q22 -31 133 -61zM360 649v-407q0 -71 23 -109q54 -72 199 -72q138 0 215 103t77 303q0 236 -63.5 338t-196.5 102q-123 0 -194 -71q-31 -28 -45 -68q-15 -44 -15 -119z" />
    <glyph glyph-name="ydieresis" unicode="&#xff;" horiz-adv-x="1093" 
d="M147 -256h13q27 -96 106 -96q80 0 127 78q79 142 129 274h-53q-95 249 -330 821q-45 108 -76 127q-26 18 -51 29v8h426v-8q-59 -18 -92 -39q-27 -15 -27 -43q0 -26 23 -90q209 -543 246 -660q41 119 235 656q21 59 21 94q0 25 -31 47q-36 20 -82 35v8h322v-8
q-31 -12 -52 -25q-38 -25 -83 -137q-229 -589 -310 -815q-83 -223 -162 -354q-79 -125 -213 -125q-39 0 -73 12q-39 14 -39 55q0 58 26 156zM475 1290q6 -61 -45 -86t-102 0t-45 86q0 43 27.5 71t70.5 28q42 0 68 -28t26 -71zM815 1290q6 -61 -45 -86t-102 0t-45 86
q0 43 27 71t71 28q41 0 67.5 -28t26.5 -71z" />
    <glyph glyph-name="Amacron" unicode="&#x100;" horiz-adv-x="1345" 
d="M383 10v-10h-373v10q51 12 82 43q46 46 82 144l322 860q51 132 112 309h135l107 -295l315 -868q41 -111 78 -150q29 -29 90 -43v-10h-477v10q58 11 92 35q29 19 29 55q0 32 -27 109l-96 272h-477l-94 -272q-25 -77 -25 -115q0 -35 39 -55q45 -22 86 -29zM403 557h424
q-106 301 -108 307l-70 203l-33 100q-12 -39 -32 -96l-72 -203q-21 -57 -61.5 -173.5t-47.5 -137.5zM950 1651v-113h-542v113h542z" />
    <glyph glyph-name="amacron" unicode="&#x101;" horiz-adv-x="1042" 
d="M676 147q-85 -172 -295 -172q-136 0 -218.5 76t-82.5 199q0 166 182 219q85 24 301 57q74 9 90 25q13 16 13 61v58q0 129 -45 174q-52 55 -179 55q-97 0 -172 -29t-106 -77l-6 2q-4 16 -4 32q0 80 100 131q105 54 252 54q172 0 255 -71t83 -234q0 -99 -2 -224v-276
q0 -89 22 -119.5t78 -30.5q32 0 66 9l4 -9q-77 -80 -181 -80q-149 0 -155 170zM666 266v223q-20 -8 -66 -18l-78 -14q-117 -22 -157 -39q-103 -41 -103 -160q0 -89 52 -135.5t135 -46.5q158 0 204 110q13 32 13 80zM778 1321v-111h-524v111h524z" />
    <glyph glyph-name="Abreve" unicode="&#x102;" horiz-adv-x="1345" 
d="M383 10v-10h-373v10q51 12 82 43q46 46 82 144l322 860q51 132 112 309h135l107 -295l315 -868q41 -111 78 -150q29 -29 90 -43v-10h-477v10q58 11 92 35q29 19 29 55q0 32 -27 109l-96 272h-477l-94 -272q-25 -77 -25 -115q0 -35 39 -55q45 -22 86 -29zM403 557h424
q-106 301 -108 307l-70 203l-33 100q-12 -39 -32 -96l-72 -203q-21 -57 -61.5 -173.5t-47.5 -137.5zM928 1767l14 -2q-18 -280 -268 -280q-158 0 -209 92q-41 73 -41 188l14 2q21 -82 75 -120.5t161 -38.5t164.5 38t89.5 121z" />
    <glyph glyph-name="abreve" unicode="&#x103;" horiz-adv-x="1042" 
d="M676 147q-85 -172 -295 -172q-136 0 -218.5 76t-82.5 199q0 166 182 219q85 24 301 57q74 9 90 25q13 16 13 61v58q0 129 -45 174q-52 55 -179 55q-97 0 -172 -29t-106 -77l-6 2q-4 16 -4 32q0 80 100 131q105 54 252 54q172 0 255 -71t83 -234q0 -99 -2 -224v-276
q0 -89 22 -119.5t78 -30.5q32 0 66 9l4 -9q-77 -80 -181 -80q-149 0 -155 170zM666 266v223q-20 -8 -66 -18l-78 -14q-117 -22 -157 -39q-103 -41 -103 -160q0 -89 52 -135.5t135 -46.5q158 0 204 110q13 32 13 80zM750 1432l12 -2q-15 -285 -260 -285q-244 0 -244 287l14 2
q21 -85 73 -125.5t157 -40.5t160.5 39t87.5 125z" />
    <glyph glyph-name="Aogonek" unicode="&#x104;" horiz-adv-x="1345" 
d="M1178 -342l6 -4v-8q0 -12 -13 -25q-41 -47 -133 -47q-94 0 -146 49t-52 129q0 160 233 248h-217v10q58 11 92 35q29 19 29 55q0 32 -27 109l-96 272h-477l-94 -272q-25 -77 -25 -115q0 -35 39 -55q45 -22 86 -29v-10h-373v10q51 12 82 43q46 46 82 144l322 860
q51 132 112 309h135l107 -295l315 -868q41 -111 78 -150q29 -29 90 -43v-10h-223q-143 -94 -143 -233q0 -127 120 -127q64 0 91 18zM403 557h424q-106 301 -108 307l-70 203l-33 100q-12 -39 -32 -96l-72 -203q-21 -57 -61.5 -173.5t-47.5 -137.5z" />
    <glyph glyph-name="aogonek" unicode="&#x105;" horiz-adv-x="1042" 
d="M944 -336l6 -4v-8q0 -13 -12 -25q-43 -43 -129 -43q-90 0 -140.5 47.5t-50.5 124.5q0 141 177 224q-116 18 -119 167q-85 -172 -295 -172q-136 0 -218.5 76t-82.5 199q0 166 182 219q85 24 301 57q74 9 90 25q13 16 13 61v58q0 129 -45 174q-52 55 -179 55
q-97 0 -172 -29t-106 -77l-6 2q-4 16 -4 32q0 80 100 131q105 54 252 54q172 0 255 -71t83 -234q0 -99 -2 -224v-276q0 -89 22 -119.5t78 -30.5q32 0 66 9l4 -9q-68 -71 -164 -77q-107 -85 -107 -209q0 -53 29 -90q27 -35 88 -35q59 0 86 18zM666 266v223q-20 -8 -66 -18
l-78 -14q-117 -22 -157 -39q-103 -41 -103 -160q0 -89 52 -135.5t135 -46.5q158 0 204 110q13 32 13 80z" />
    <glyph glyph-name="Cacute" unicode="&#x106;" horiz-adv-x="1294" 
d="M1188 260h12q-3 -106 -20 -170q-9 -37 -78 -65q-128 -52 -324 -52q-329 0 -501.5 185.5t-172.5 525.5q0 342 182.5 525.5t530.5 183.5q200 0 324 -47q65 -27 65 -76q0 -65 -37 -201h-12q-22 101 -72 156q-89 92 -278 92q-232 0 -357.5 -156.5t-125.5 -460.5
q0 -307 128.5 -477t376.5 -170q144 0 236 62q73 49 123 145zM983 1659l-336 -174l-8 12l252 275q45 51 86 51q34 0 58 -21t24 -55q0 -51 -76 -88z" />
    <glyph glyph-name="cacute" unicode="&#x107;" horiz-adv-x="935" 
d="M879 170l6 -2v-12q0 -14 -17 -45q-34 -61 -117 -99.5t-202 -38.5q-212 0 -334.5 132.5t-122.5 373.5q0 261 137 395q138 138 365 138q137 0 215 -35q49 -21 49 -59q0 -58 -31 -170h-10q-26 96 -86 147q-52 43 -147 43q-137 0 -218 -103.5t-81 -320.5q0 -223 88.5 -327.5
t244.5 -104.5q151 0 261 88zM758 1374l-283 -239l-10 10l180 319q37 70 86 70q33 0 56.5 -20t23.5 -52q0 -41 -53 -88z" />
    <glyph glyph-name="Ccircumflex" unicode="&#x108;" horiz-adv-x="1294" 
d="M1188 260h12q-3 -106 -20 -170q-9 -37 -78 -65q-128 -52 -324 -52q-329 0 -501.5 185.5t-172.5 525.5q0 342 182.5 525.5t530.5 183.5q200 0 324 -47q65 -27 65 -76q0 -65 -37 -201h-12q-22 101 -72 156q-89 92 -278 92q-232 0 -357.5 -156.5t-125.5 -460.5
q0 -307 128.5 -477t376.5 -170q144 0 236 62q73 49 123 145zM846 1726l223 -253l-8 -11l-297 162l-287 -162l-8 11l225 256q34 40 78 40q37 0 74 -43z" />
    <glyph glyph-name="ccircumflex" unicode="&#x109;" horiz-adv-x="935" 
d="M879 170l6 -2v-12q0 -14 -17 -45q-34 -61 -117 -99.5t-202 -38.5q-212 0 -334.5 132.5t-122.5 373.5q0 261 137 395q138 138 365 138q137 0 215 -35q49 -21 49 -59q0 -58 -31 -170h-10q-26 96 -86 147q-52 43 -147 43q-137 0 -218 -103.5t-81 -320.5q0 -223 88.5 -327.5
t244.5 -104.5q151 0 261 88zM629 1427l202 -286l-8 -8l-274 192l-266 -190l-9 6l207 289q35 47 74 47t74 -50z" />
    <glyph glyph-name="Cdotaccent" unicode="&#x10a;" horiz-adv-x="1294" 
d="M1188 260h12q-3 -106 -20 -170q-9 -37 -78 -65q-128 -52 -324 -52q-329 0 -501.5 185.5t-172.5 525.5q0 342 182.5 525.5t530.5 183.5q200 0 324 -47q65 -27 65 -76q0 -65 -37 -201h-12q-22 101 -72 156q-89 92 -278 92q-232 0 -357.5 -156.5t-125.5 -460.5
q0 -307 128.5 -477t376.5 -170q144 0 236 62q73 49 123 145zM756 1495q-43 0 -72 28t-29 72t29.5 73.5t73.5 29.5t72 -29t28 -74q0 -44 -29 -72t-73 -28z" />
    <glyph glyph-name="cdotaccent" unicode="&#x10b;" horiz-adv-x="935" 
d="M879 170l6 -2v-12q0 -14 -17 -45q-34 -61 -117 -99.5t-202 -38.5q-212 0 -334.5 132.5t-122.5 373.5q0 261 137 395q138 138 365 138q137 0 215 -35q49 -21 49 -59q0 -58 -31 -170h-10q-26 96 -86 147q-52 43 -147 43q-137 0 -218 -103.5t-81 -320.5q0 -223 88.5 -327.5
t244.5 -104.5q151 0 261 88zM657 1290q0 -44 -28 -73t-72 -29q-43 0 -71.5 29t-28.5 73q0 45 28 74t74 29q44 0 71 -28t27 -75z" />
    <glyph glyph-name="Ccaron" unicode="&#x10c;" horiz-adv-x="1294" 
d="M1188 260h12q-3 -106 -20 -170q-9 -37 -78 -65q-128 -52 -324 -52q-329 0 -501.5 185.5t-172.5 525.5q0 342 182.5 525.5t530.5 183.5q200 0 324 -47q65 -27 65 -76q0 -65 -37 -201h-12q-22 101 -72 156q-89 92 -278 92q-232 0 -357.5 -156.5t-125.5 -460.5
q0 -307 128.5 -477t376.5 -170q144 0 236 62q73 49 123 145zM668 1520l-224 254l9 10l295 -162l288 162l8 -8l-227 -260q-33 -39 -76 -39q-33 0 -73 43z" />
    <glyph glyph-name="ccaron" unicode="&#x10d;" horiz-adv-x="935" 
d="M879 170l6 -2v-12q0 -14 -17 -45q-34 -61 -117 -99.5t-202 -38.5q-212 0 -334.5 132.5t-122.5 373.5q0 261 137 395q138 138 365 138q137 0 215 -35q49 -21 49 -59q0 -58 -31 -170h-10q-26 96 -86 147q-52 43 -147 43q-137 0 -218 -103.5t-81 -320.5q0 -223 88.5 -327.5
t244.5 -104.5q151 0 261 88zM479 1186l-203 287l9 8l274 -193l266 193l9 -8l-207 -289q-32 -48 -74 -47.5t-74 49.5z" />
    <glyph glyph-name="Dcaron" unicode="&#x10e;" horiz-adv-x="1478" 
d="M635 0h-520v10q64 19 88.5 34.5t34.5 43.5q16 46 16 203v784q0 167 -18 207q-18 50 -121 74v10h555q301 0 450 -94q256 -164 256 -551q0 -721 -741 -721zM449 1126v-856q0 -107 10 -137q8 -31 39 -45q50 -16 141 -16q266 0 393 153.5t127 481.5q0 307 -137 456
q-114 129 -401 129q-124 0 -152 -28q-20 -20 -20 -138zM598 1520l-223 254l8 10l295 -162l289 162l8 -8l-227 -260q-33 -39 -76 -39q-34 0 -74 43z" />
    <glyph glyph-name="dcaron" unicode="&#x10f;" horiz-adv-x="1210" 
d="M811 160q-31 -82 -113.5 -133.5t-187.5 -51.5q-197 0 -307.5 127.5t-110.5 366.5q0 256 130 399.5t362 143.5q145 0 221 -58v199q0 120 -17 166q-28 66 -104 84v10q141 33 260 33q43 0 43 -51q0 -7 -0.5 -44.5t-1.5 -113.5t-2 -158q-2 -188 -2 -358v-498q0 -160 98 -160
q36 0 64 7l6 -9q-35 -35 -91 -57t-106 -22q-70 0 -103.5 40.5t-37.5 137.5zM805 295v438q0 50 -8 94q-6 33 -29 56q-57 57 -180 57q-152 0 -227.5 -114t-75.5 -322q0 -217 77.5 -320.5t208.5 -103.5q120 0 189 72q30 30 39 71q6 24 6 72zM1100 1010l-8 12q145 106 145 199
q0 42 -39 65q-51 29 -51 80q0 37 26.5 61.5t69.5 24.5q56 0 87.5 -36.5t31.5 -102.5q0 -87 -72.5 -169t-189.5 -134z" />
    <glyph glyph-name="Dcroat" unicode="&#x110;" horiz-adv-x="1478" 
d="M635 0h-520v10q64 19 88.5 34.5t34.5 43.5q16 46 16 203v383h-168v84h168v317q0 167 -18 207q-18 50 -121 74v10h555q301 0 450 -94q256 -164 256 -551q0 -721 -741 -721zM449 674v-404q0 -107 10 -137q8 -31 39 -45q50 -16 141 -16q266 0 393 153.5t127 481.5
q0 307 -137 456q-114 129 -401 129q-124 0 -152 -28q-20 -20 -20 -138v-368h387v-84h-387z" />
    <glyph glyph-name="dslash" unicode="&#x111;" horiz-adv-x="1210" 
d="M811 160q-31 -82 -113.5 -133.5t-187.5 -51.5q-197 0 -307.5 127.5t-110.5 366.5q0 256 130 399.5t362 143.5q145 0 221 -58v199h-252v74h250q-3 62 -15 92q-28 66 -104 84v10q141 33 260 33q43 0 43 -51q0 -117 -2 -168h174v-74h-174q-4 -430 -4 -432v-498
q0 -160 98 -160q36 0 64 7l6 -9q-35 -35 -91 -57t-106 -22q-70 0 -103.5 40.5t-37.5 137.5zM805 295v438q0 50 -8 94q-6 33 -29 56q-57 57 -180 57q-152 0 -227.5 -114t-75.5 -322q0 -217 77.5 -320.5t208.5 -103.5q120 0 189 72q30 30 39 71q6 24 6 72z" />
    <glyph glyph-name="Emacron" unicode="&#x112;" horiz-adv-x="1126" 
d="M983 0h-868v10q69 23 108 53q31 28 31 170v908q0 132 -27 159q-29 32 -112 56v10h835q29 0 38 -9t9 -36q0 -35 -18 -211h-12q-24 83 -51.5 120t-67.5 48q-41 12 -133 12h-207q-35 0 -47 -13.5t-12 -49.5v-477h159q104 0 160 12q51 10 74.5 37t42.5 94h12v-356h-12
q-14 64 -42 92.5t-89 38.5q-40 6 -144 6h-161v-496q0 -58 19 -79t79 -21h225q129 0 178 43q47 38 101 168h12q-10 -208 -14 -238q-5 -31 -17.5 -41t-48.5 -10zM885 1651v-113h-543v113h543z" />
    <glyph glyph-name="emacron" unicode="&#x113;" horiz-adv-x="1007" 
d="M287 602h454q4 36 4 66q0 276 -198 276q-117 0 -185 -88.5t-75 -253.5zM862 532h-579v-24q0 -238 98 -332q101 -94 244 -94q169 0 293 100l8 -4v-10q0 -8 -11 -37q-35 -67 -126 -112.5t-220 -45.5q-237 0 -357 133.5t-120 376.5q0 249 129 387q130 142 340 142
q182 0 275.5 -99t93.5 -276q0 -73 -8 -86q-13 -19 -60 -19zM813 1321v-111h-524v111h524z" />
    <glyph glyph-name="Ebreve" unicode="&#x114;" horiz-adv-x="1126" 
d="M983 0h-868v10q69 23 108 53q31 28 31 170v908q0 132 -27 159q-29 32 -112 56v10h835q29 0 38 -9t9 -36q0 -35 -18 -211h-12q-24 83 -51.5 120t-67.5 48q-41 12 -133 12h-207q-35 0 -47 -13.5t-12 -49.5v-477h159q104 0 160 12q51 10 74.5 37t42.5 94h12v-356h-12
q-14 64 -42 92.5t-89 38.5q-40 6 -144 6h-161v-496q0 -58 19 -79t79 -21h225q129 0 178 43q47 38 101 168h12q-10 -208 -14 -238q-5 -31 -17.5 -41t-48.5 -10zM848 1767l14 -2q-18 -280 -268 -280q-158 0 -209 92q-41 73 -41 188l14 2q21 -82 75 -120.5t161 -38.5t164.5 38
t89.5 121z" />
    <glyph glyph-name="ebreve" unicode="&#x115;" horiz-adv-x="1007" 
d="M287 602h454q4 36 4 66q0 276 -198 276q-117 0 -185 -88.5t-75 -253.5zM862 532h-579v-24q0 -238 98 -332q101 -94 244 -94q169 0 293 100l8 -4v-10q0 -8 -11 -37q-35 -67 -126 -112.5t-220 -45.5q-237 0 -357 133.5t-120 376.5q0 249 129 387q130 142 340 142
q182 0 275.5 -99t93.5 -276q0 -73 -8 -86q-13 -19 -60 -19zM784 1432l13 -2q-15 -285 -260 -285q-244 0 -244 287l14 2q21 -85 73 -125.5t157 -40.5t160 39t87 125z" />
    <glyph glyph-name="Edotaccent" unicode="&#x116;" horiz-adv-x="1126" 
d="M983 0h-868v10q69 23 108 53q31 28 31 170v908q0 132 -27 159q-29 32 -112 56v10h835q29 0 38 -9t9 -36q0 -35 -18 -211h-12q-24 83 -51.5 120t-67.5 48q-41 12 -133 12h-207q-35 0 -47 -13.5t-12 -49.5v-477h159q104 0 160 12q51 10 74.5 37t42.5 94h12v-356h-12
q-14 64 -42 92.5t-89 38.5q-40 6 -144 6h-161v-496q0 -58 19 -79t79 -21h225q129 0 178 43q47 38 101 168h12q-10 -208 -14 -238q-5 -31 -17.5 -41t-48.5 -10zM602 1495q-43 0 -71.5 28t-28.5 72t29 73.5t73 29.5t72.5 -29.5t28.5 -73.5t-29 -72t-74 -28z" />
    <glyph glyph-name="edotaccent" unicode="&#x117;" horiz-adv-x="1007" 
d="M287 602h454q4 36 4 66q0 276 -198 276q-117 0 -185 -88.5t-75 -253.5zM862 532h-579v-24q0 -238 98 -332q101 -94 244 -94q169 0 293 100l8 -4v-10q0 -8 -11 -37q-35 -67 -126 -112.5t-220 -45.5q-237 0 -357 133.5t-120 376.5q0 249 129 387q130 142 340 142
q182 0 275.5 -99t93.5 -276q0 -73 -8 -86q-13 -19 -60 -19zM639 1290q0 -44 -28 -73t-72 -29q-32 -3 -57 16t-35.5 47t-6 60t26.5 53q21 21 53 26t59 -5t45.5 -35.5t14.5 -59.5z" />
    <glyph glyph-name="Eogonek" unicode="&#x118;" horiz-adv-x="1126" 
d="M930 0h-815v10q69 23 108 53q31 28 31 170v908q0 132 -27 159q-29 32 -112 56v10h835q29 0 38 -9t9 -36q0 -35 -18 -211h-12q-24 83 -51.5 120t-67.5 48q-41 12 -133 12h-207q-35 0 -47 -13.5t-12 -49.5v-477h159q104 0 160 12q51 10 74.5 37t42.5 94h12v-356h-12
q-14 64 -42 92.5t-89 38.5q-40 6 -144 6h-161v-496q0 -58 19 -79t79 -21h225q129 0 178 43q47 38 101 168h12q-10 -208 -14 -238q-5 -31 -17.5 -41t-48.5 -10h-16q-144 -94 -144 -233q0 -127 121 -127q63 0 90 18l6 -4v-8q0 -13 -12 -25q-41 -47 -133 -47q-95 0 -147 49
t-52 129q0 160 234 248z" />
    <glyph glyph-name="eogonek" unicode="&#x119;" horiz-adv-x="1007" 
d="M770 -336l6 -4v-8q0 -13 -12 -25q-43 -43 -129 -43q-90 0 -140.5 47.5t-50.5 124.5q0 136 164 219q-8 -2 -39 -2q-237 0 -357 133.5t-120 376.5q0 249 129 387q130 142 340 142q182 0 275.5 -99t93.5 -276q0 -73 -8 -86q-13 -19 -60 -19h-579v-24q0 -238 98 -332
q101 -94 244 -94q169 0 293 100l8 -4v-10q0 -8 -11 -37q-64 -113 -235 -147q-113 -85 -113 -213q0 -53 29 -90q27 -35 88 -35q59 0 86 18zM287 602h454q4 36 4 66q0 276 -198 276q-117 0 -185 -88.5t-75 -253.5z" />
    <glyph glyph-name="Ecaron" unicode="&#x11a;" horiz-adv-x="1126" 
d="M983 0h-868v10q69 23 108 53q31 28 31 170v908q0 132 -27 159q-29 32 -112 56v10h835q29 0 38 -9t9 -36q0 -35 -18 -211h-12q-24 83 -51.5 120t-67.5 48q-41 12 -133 12h-207q-35 0 -47 -13.5t-12 -49.5v-477h159q104 0 160 12q51 10 74.5 37t42.5 94h12v-356h-12
q-14 64 -42 92.5t-89 38.5q-40 6 -144 6h-161v-496q0 -58 19 -79t79 -21h225q129 0 178 43q47 38 101 168h12q-10 -208 -14 -238q-5 -31 -17.5 -41t-48.5 -10zM541 1520l-224 254l9 10l295 -162l288 162l9 -8l-228 -260q-33 -39 -76 -39q-33 0 -73 43z" />
    <glyph glyph-name="ecaron" unicode="&#x11b;" horiz-adv-x="1007" 
d="M287 602h454q4 36 4 66q0 276 -198 276q-117 0 -185 -88.5t-75 -253.5zM862 532h-579v-24q0 -238 98 -332q101 -94 244 -94q169 0 293 100l8 -4v-10q0 -8 -11 -37q-35 -67 -126 -112.5t-220 -45.5q-237 0 -357 133.5t-120 376.5q0 249 129 387q130 142 340 142
q182 0 275.5 -99t93.5 -276q0 -73 -8 -86q-13 -19 -60 -19zM467 1186l-203 287l8 8l275 -193l266 193l8 -8l-207 -289q-32 -48 -73.5 -47.5t-73.5 49.5z" />
    <glyph glyph-name="Gcircumflex" unicode="&#x11c;" horiz-adv-x="1425" 
d="M1264 25q-51 -6 -205 -29q-148 -23 -254 -23q-328 0 -516 185q-187 187 -187 526t193.5 524t550.5 185q207 0 346 -47q42 -14 57 -28.5t15 -43.5q0 -77 -35 -205h-12q-22 88 -60 139q-83 109 -307 109q-256 0 -391 -154.5t-135 -464.5q0 -304 132.5 -474.5t385.5 -170.5
q149 0 194 39q17 17 17 86v162q0 156 -23 197q-28 42 -121 63v10h453v-10q-72 -27 -88 -59q-25 -42 -25 -197v-139q0 -121 15 -180zM870 1726l224 -253l-9 -11l-297 162l-286 -162l-8 11l225 256q34 40 78 40q36 0 73 -43z" />
    <glyph glyph-name="gcircumflex" unicode="&#x11d;" horiz-adv-x="1017" 
d="M326 354q-228 70 -228 310q0 158 106 253t294 95q120 0 209 -47q209 6 274 57l8 -2q-4 -76 -20 -104t-59 -30t-119 11q71 -83 71 -217q0 -160 -106 -252t-281 -92q-8 0 -42.5 2t-41.5 2q-27 0 -43 -16q-26 -20 -26 -60q0 -42 43 -57q38 -14 188 -41q143 -26 201 -39
q229 -55 229 -240q0 -161 -134 -253.5t-372 -92.5q-211 0 -323.5 69t-112.5 189q0 188 289 246q-129 37 -129 141q0 101 125 168zM414 23q-90 0 -178 -76q-56 -53 -56 -137q0 -92 88 -144q88 -55 215 -55q161 0 246.5 56.5t85.5 152.5q0 100 -119 143q-72 26 -149 41
q-93 19 -133 19zM680 674q0 268 -195 268q-204 0 -204 -268q0 -147 50 -210t148 -63q201 0 201 273zM586 1427l202 -286l-8 -8l-274 192l-266 -190l-9 6l207 289q35 47 74 47t74 -50z" />
    <glyph glyph-name="Gbreve" unicode="&#x11e;" horiz-adv-x="1425" 
d="M1264 25q-51 -6 -205 -29q-148 -23 -254 -23q-328 0 -516 185q-187 187 -187 526t193.5 524t550.5 185q207 0 346 -47q42 -14 57 -28.5t15 -43.5q0 -77 -35 -205h-12q-22 88 -60 139q-83 109 -307 109q-256 0 -391 -154.5t-135 -464.5q0 -304 132.5 -474.5t385.5 -170.5
q149 0 194 39q17 17 17 86v162q0 156 -23 197q-28 42 -121 63v10h453v-10q-72 -27 -88 -59q-25 -42 -25 -197v-139q0 -121 15 -180zM1028 1767l14 -2q-18 -280 -268 -280q-158 0 -209 92q-41 73 -41 188l15 2q21 -82 74.5 -120.5t160.5 -38.5t164.5 38t89.5 121z" />
    <glyph glyph-name="gbreve" unicode="&#x11f;" horiz-adv-x="1017" 
d="M326 354q-228 70 -228 310q0 158 106 253t294 95q120 0 209 -47q209 6 274 57l8 -2q-4 -76 -20 -104t-59 -30t-119 11q71 -83 71 -217q0 -160 -106 -252t-281 -92q-8 0 -42.5 2t-41.5 2q-27 0 -43 -16q-26 -20 -26 -60q0 -42 43 -57q38 -14 188 -41q143 -26 201 -39
q229 -55 229 -240q0 -161 -134 -253.5t-372 -92.5q-211 0 -323.5 69t-112.5 189q0 188 289 246q-129 37 -129 141q0 101 125 168zM414 23q-90 0 -178 -76q-56 -53 -56 -137q0 -92 88 -144q88 -55 215 -55q161 0 246.5 56.5t85.5 152.5q0 100 -119 143q-72 26 -149 41
q-93 19 -133 19zM680 674q0 268 -195 268q-204 0 -204 -268q0 -147 50 -210t148 -63q201 0 201 273zM739 1432l13 -2q-15 -285 -260 -285q-244 0 -244 287l14 2q21 -85 73 -125.5t157 -40.5t160 39t87 125z" />
    <glyph glyph-name="Gdotaccent" unicode="&#x120;" horiz-adv-x="1425" 
d="M1264 25q-51 -6 -205 -29q-148 -23 -254 -23q-328 0 -516 185q-187 187 -187 526t193.5 524t550.5 185q207 0 346 -47q42 -14 57 -28.5t15 -43.5q0 -77 -35 -205h-12q-22 88 -60 139q-83 109 -307 109q-256 0 -391 -154.5t-135 -464.5q0 -304 132.5 -474.5t385.5 -170.5
q149 0 194 39q17 17 17 86v162q0 156 -23 197q-28 42 -121 63v10h453v-10q-72 -27 -88 -59q-25 -42 -25 -197v-139q0 -121 15 -180zM791 1495q-43 0 -72 28t-29 72t29.5 73.5t73.5 29.5t72 -29t28 -74q0 -44 -29 -72t-73 -28z" />
    <glyph glyph-name="gdotaccent" unicode="&#x121;" horiz-adv-x="1017" 
d="M326 354q-228 70 -228 310q0 158 106 253t294 95q120 0 209 -47q209 6 274 57l8 -2q-4 -76 -20 -104t-59 -30t-119 11q71 -83 71 -217q0 -160 -106 -252t-281 -92q-8 0 -42.5 2t-41.5 2q-27 0 -43 -16q-26 -20 -26 -60q0 -42 43 -57q38 -14 188 -41q143 -26 201 -39
q229 -55 229 -240q0 -161 -134 -253.5t-372 -92.5q-211 0 -323.5 69t-112.5 189q0 188 289 246q-129 37 -129 141q0 101 125 168zM414 23q-90 0 -178 -76q-56 -53 -56 -137q0 -92 88 -144q88 -55 215 -55q161 0 246.5 56.5t85.5 152.5q0 100 -119 143q-72 26 -149 41
q-93 19 -133 19zM680 674q0 268 -195 268q-204 0 -204 -268q0 -147 50 -210t148 -63q201 0 201 273zM586 1290q0 -44 -28.5 -73t-72.5 -29q-32 -3 -56.5 16t-35 47t-6 60t26.5 53q21 21 53 26t59 -5t45.5 -35.5t14.5 -59.5z" />
    <glyph glyph-name="Gcommaaccent" unicode="&#x122;" horiz-adv-x="1425" 
d="M1264 25q-51 -6 -205 -29q-148 -23 -254 -23q-328 0 -516 185q-187 187 -187 526t193.5 524t550.5 185q207 0 346 -47q42 -14 57 -28.5t15 -43.5q0 -77 -35 -205h-12q-22 88 -60 139q-83 109 -307 109q-256 0 -391 -154.5t-135 -464.5q0 -304 132.5 -474.5t385.5 -170.5
q149 0 194 39q17 17 17 86v162q0 156 -23 197q-28 42 -121 63v10h453v-10q-72 -27 -88 -59q-25 -42 -25 -197v-139q0 -121 15 -180zM618 -537l-8 15q146 103 146 196q0 40 -39 66q-51 26 -51 80q0 37 26.5 61.5t69.5 24.5q56 0 87.5 -36.5t31.5 -102.5q0 -87 -73 -169.5
t-190 -134.5z" />
    <glyph glyph-name="gcommaaccent" unicode="&#x123;" horiz-adv-x="1017" 
d="M326 354q-228 70 -228 310q0 158 106 253t294 95q120 0 209 -47q209 6 274 57l8 -2q-4 -76 -20 -104t-59 -30t-119 11q71 -83 71 -217q0 -160 -106 -252t-281 -92q-8 0 -42.5 2t-41.5 2q-27 0 -43 -16q-26 -20 -26 -60q0 -42 43 -57q38 -14 188 -41q143 -26 201 -39
q229 -55 229 -240q0 -161 -134 -253.5t-372 -92.5q-211 0 -323.5 69t-112.5 189q0 188 289 246q-129 37 -129 141q0 101 125 168zM414 23q-90 0 -178 -76q-56 -53 -56 -137q0 -92 88 -144q88 -55 215 -55q161 0 246.5 56.5t85.5 152.5q0 100 -119 143q-72 26 -149 41
q-93 19 -133 19zM680 674q0 268 -195 268q-204 0 -204 -268q0 -147 50 -210t148 -63q201 0 201 273zM645 1583l19 -33q-154 -103 -154 -184q0 -40 39 -63q51 -34 51 -80q0 -39 -26 -63.5t-70 -24.5q-56 0 -87.5 36.5t-31.5 102.5q0 85 71.5 169t188.5 140z" />
    <glyph glyph-name="Hcircumflex" unicode="&#x124;" horiz-adv-x="1550" 
d="M590 10v-10h-475v10q90 21 116 64q23 41 23 190v844q0 150 -23 188q-25 39 -116 60v10h475v-10q-94 -24 -115 -58q-26 -39 -26 -188v-358h651v356q0 155 -23 188q-28 39 -116 60v10h475v-10q-88 -21 -117 -58q-23 -33 -23 -188v-848q0 -154 25 -190q24 -37 115 -62v-10
h-475v10q92 24 116 64q23 41 23 190v410h-651v-412q0 -148 26 -190q24 -40 115 -62zM862 1726l223 -253l-8 -11l-297 162l-286 -162l-9 11l226 256q34 40 77 40q37 0 74 -43z" />
    <glyph glyph-name="hcircumflex" unicode="&#x125;" horiz-adv-x="1232" 
d="M506 8v-8h-420v8q76 28 96 64q23 41 23 172v911q0 115 -19 170q-21 57 -102 78v10q135 33 256 33q27 0 37 -11.5t10 -43.5q0 -2 -0.5 -30t-1.5 -88.5t-2 -129.5q-2 -156 -2 -334q43 93 137.5 148t216.5 55q216 0 269 -164q22 -68 22 -221v-369q0 -158 27 -192
q21 -34 100 -58v-8h-420v8q70 24 94 64q23 44 23 188v322q0 200 -47 256q-52 61 -158 61q-107 0 -186 -55q-53 -38 -68 -92q-10 -42 -10 -113v-391q0 -142 22 -178q27 -40 103 -62zM426 1720l223 -254l-8 -10l-297 162l-287 -162l-8 10l225 256q35 41 78 41q37 0 74 -43z
" />
    <glyph glyph-name="Hbar" unicode="&#x126;" horiz-adv-x="1550" 
d="M590 10v-10h-475v10q90 21 116 64q23 41 23 190v707h-168v86h168v51q0 150 -23 188q-25 39 -116 60v10h475v-10q-94 -24 -115 -58q-26 -39 -26 -188v-53h651v51q0 155 -23 188q-28 39 -116 60v10h475v-10q-88 -21 -117 -58q-23 -33 -23 -188v-53h172v-86h-172v-709
q0 -154 25 -190q24 -37 115 -62v-10h-475v10q92 24 116 64q23 41 23 190v410h-651v-412q0 -148 26 -190q24 -40 115 -62zM449 971v-219h651v219h-651z" />
    <glyph glyph-name="hbar" unicode="&#x127;" horiz-adv-x="1232" 
d="M506 8v-8h-420v8q76 28 96 64q23 41 23 172v905h-166v82h164q-4 40 -17 94q-21 57 -102 78v10q135 33 256 33q27 0 37 -11.5t10 -43.5q0 -21 -2 -58v-102h260v-82h-262q-2 -80 -2 -340q43 93 137.5 148t216.5 55q216 0 269 -164q22 -68 22 -221v-369q0 -158 27 -192
q21 -34 100 -58v-8h-420v8q70 24 94 64q23 44 23 188v322q0 200 -47 256q-52 61 -158 61q-107 0 -186 -55q-53 -38 -68 -92q-10 -42 -10 -113v-391q0 -142 22 -178q27 -40 103 -62z" />
    <glyph glyph-name="Itilde" unicode="&#x128;" horiz-adv-x="704" 
d="M590 10v-10h-475v10q90 21 116 64q23 41 23 190v844q0 148 -23 186q-24 38 -116 62v10h475v-10q-94 -21 -115 -56q-26 -39 -26 -190v-848q0 -148 26 -190q24 -40 115 -62zM623 1726l12 -4q-52 -202 -170 -202q-59 0 -150 39q-76 36 -131 36q-92 0 -135 -94l-12 4
q58 217 170 217q53 0 149 -45q75 -37 133 -37q84 0 134 86z" />
    <glyph glyph-name="itilde" unicode="&#x129;" horiz-adv-x="598" 
d="M555 1386l12 -4q-18 -68 -28 -90q-14 -41 -51 -75.5t-82 -34.5q-58 0 -140 39q-75 34 -123 34q-83 0 -129 -94l-12 4q26 93 51 142q41 75 111 75q46 0 139 -43q82 -39 127 -39q78 0 125 86zM514 8v-8h-420v8q73 27 94 64q23 38 23 159v484q0 132 -23 176q-34 58 -98 67
v11q122 35 256 35q28 0 37.5 -12.5t9.5 -45.5q0 -5 -0.5 -24.5t-1.5 -60t-2 -83.5q-2 -98 -2 -198v-347q0 -117 23 -161q29 -43 104 -64z" />
    <glyph glyph-name="Imacron" unicode="&#x12a;" horiz-adv-x="704" 
d="M590 10v-10h-475v10q90 21 116 64q23 41 23 190v844q0 148 -23 186q-24 38 -116 62v10h475v-10q-94 -21 -115 -56q-26 -39 -26 -190v-848q0 -148 26 -190q24 -40 115 -62zM621 1651v-113h-543v113h543z" />
    <glyph glyph-name="imacron" unicode="&#x12b;" horiz-adv-x="598" 
d="M541 1321v-111h-525v111h525zM514 8v-8h-420v8q73 27 94 64q23 38 23 159v484q0 132 -23 176q-34 58 -98 67v11q122 35 256 35q28 0 37.5 -12.5t9.5 -45.5q0 -5 -0.5 -24.5t-1.5 -60t-2 -83.5q-2 -98 -2 -198v-347q0 -117 23 -161q29 -43 104 -64z" />
    <glyph glyph-name="Ibreve" unicode="&#x12c;" horiz-adv-x="704" 
d="M590 10v-10h-475v10q90 21 116 64q23 41 23 190v844q0 148 -23 186q-24 38 -116 62v10h475v-10q-94 -21 -115 -56q-26 -39 -26 -190v-848q0 -148 26 -190q24 -40 115 -62zM582 1767l14 -2q-18 -280 -268 -280q-158 0 -209 92q-41 73 -41 188l14 2q21 -82 75 -120.5
t161 -38.5t164.5 38t89.5 121z" />
    <glyph glyph-name="ibreve" unicode="&#x12d;" horiz-adv-x="598" 
d="M526 1432l13 -2q-15 -285 -260 -285q-244 0 -244 287l14 2q21 -85 73 -125.5t157 -40.5t160 39t87 125zM514 8v-8h-420v8q73 27 94 64q23 38 23 159v484q0 132 -23 176q-34 58 -98 67v11q122 35 256 35q28 0 37.5 -12.5t9.5 -45.5q0 -5 -0.5 -24.5t-1.5 -60t-2 -83.5
q-2 -98 -2 -198v-347q0 -117 23 -161q29 -43 104 -64z" />
    <glyph glyph-name="Iogonek" unicode="&#x12e;" horiz-adv-x="704" 
d="M434 -342l6 -4v-8q0 -13 -12 -25q-41 -47 -133 -47q-95 0 -147 49t-52 129q0 160 234 248h-215v10q90 21 116 64q23 41 23 190v844q0 148 -23 186q-24 38 -116 62v10h475v-10q-94 -21 -115 -56q-26 -39 -26 -190v-848q0 -148 26 -190q24 -40 115 -62v-10h-223
q-144 -94 -144 -233q0 -127 121 -127q63 0 90 18z" />
    <glyph glyph-name="iogonek" unicode="&#x12f;" horiz-adv-x="598" 
d="M410 -336l6 -4v-8q0 -12 -13 -25q-43 -43 -129 -43q-90 0 -140 47.5t-50 124.5q0 158 225 244h-215v8q73 27 94 64q23 41 23 164v479q0 132 -23 176q-27 55 -98 67v11q122 35 256 35q28 0 37.5 -12.5t9.5 -45.5q0 -5 -0.5 -24.5t-1.5 -60t-2 -83.5q-2 -98 -2 -198v-344
q0 -120 23 -164q29 -43 104 -64v-8h-170q-137 -91 -137 -229q0 -53 29 -90q27 -35 88 -35q59 0 86 18zM281 1204q-50 0 -81.5 32t-31.5 83q0 54 31.5 86.5t85.5 32.5q51 0 80.5 -31.5t29.5 -85.5t-30 -85.5t-84 -31.5z" />
    <glyph glyph-name="Idot" unicode="&#x130;" horiz-adv-x="704" 
d="M590 10v-10h-475v10q90 21 116 64q23 41 23 190v844q0 148 -23 186q-24 38 -116 62v10h475v-10q-94 -21 -115 -56q-26 -39 -26 -190v-848q0 -148 26 -190q24 -40 115 -62zM340 1495q-43 0 -71.5 28t-28.5 72t29 73.5t73 29.5t72 -29t28 -74q0 -44 -29 -72t-73 -28z" />
    <glyph glyph-name="dotlessi" unicode="&#x131;" horiz-adv-x="598" 
d="M514 8v-8h-420v8q73 27 94 64q23 38 23 159v484q0 132 -23 176q-34 58 -98 67v11q122 35 256 35q28 0 37.5 -12.5t9.5 -45.5q0 -5 -0.5 -24.5t-1.5 -60t-2 -83.5q-2 -98 -2 -198v-347q0 -117 23 -161q29 -43 104 -64z" />
    <glyph glyph-name="IJ" unicode="&#x132;" horiz-adv-x="1470" 
d="M590 10v-10h-475v10q90 21 116 64q23 41 23 190v844q0 148 -23 186q-24 38 -116 62v10h475v-10q-94 -21 -115 -56q-26 -39 -26 -190v-848q0 -148 26 -190q24 -40 115 -62zM616 -90h15q35 -156 147 -156q80 0 107 62q37 81 37 403v889q0 142 -25 184q-23 40 -127 64v10
h483v-10q-84 -21 -112 -56q-25 -36 -25 -190q0 -119 4 -537q1 -87 2 -175t1.5 -133t0.5 -60q0 -160 -14 -234q-15 -82 -55 -145q-89 -150 -291 -150q-77 0 -127 13q-43 12 -43 51q0 57 22 170z" />
    <glyph glyph-name="ij" unicode="&#x133;" horiz-adv-x="1153" 
d="M514 8v-8h-420v8q73 27 94 64q23 41 23 164v479q0 132 -23 176q-27 55 -98 67v11q122 35 256 35q28 0 37.5 -12.5t9.5 -45.5q0 -5 -0.5 -24.5t-1.5 -60t-2 -83.5q-2 -98 -2 -198v-344q0 -120 23 -164q29 -43 104 -64zM281 1204q-50 0 -81.5 32t-31.5 83q0 54 31.5 86.5
t85.5 32.5q51 0 80.5 -31.5t29.5 -85.5t-30 -85.5t-84 -31.5zM508 -254h12q24 -133 129 -133q74 0 101 59q32 63 32 381v658q0 138 -22 180q-37 58 -98 67v11q122 35 256 35q26 0 36.5 -13.5t10.5 -44.5q0 -2 -0.5 -20.5t-1.5 -58t-2 -83.5q-3 -150 -3 -204v-256
q3 -170 3 -252q0 -163 -13 -246q-9 -77 -47 -143q-83 -142 -270 -142q-69 0 -111 17q-35 15 -35 47q0 54 23 141zM852 1204q-50 0 -81.5 32t-31.5 83q0 54 31.5 86.5t85.5 32.5q51 0 81 -31.5t30 -85.5t-30.5 -85.5t-84.5 -31.5z" />
    <glyph glyph-name="Jcircumflex" unicode="&#x134;" horiz-adv-x="708" 
d="M-14 -90h14q34 -156 147 -156q80 0 107 62q37 81 37 403v889q0 142 -25 184q-23 40 -127 64v10h484v-10q-86 -21 -113 -56q-25 -36 -25 -190q0 -119 4 -537q1 -90 2 -175.5t2 -132t1 -60.5q0 -155 -15 -234q-15 -82 -55 -145q-88 -150 -291 -150q-77 0 -127 13
q-43 12 -43 51q0 52 23 170zM465 1726l223 -253l-8 -11l-297 162l-287 -162l-8 11l225 256q34 40 78 40q37 0 74 -43z" />
    <glyph glyph-name="jcircumflex" unicode="&#x135;" horiz-adv-x="583" 
d="M-63 -254h12q24 -133 129 -133q73 0 100 59q33 65 33 381v658q0 136 -23 180q-37 58 -98 67v11q122 35 256 35q26 0 36.5 -13.5t10.5 -44.5q0 -2 -0.5 -20.5t-1.5 -58t-2 -83.5q-2 -100 -2 -204v-256q2 -113 2 -252q0 -170 -12 -246q-9 -77 -47 -143q-83 -142 -271 -142
q-68 0 -110 17q-35 15 -35 47q0 54 23 141zM362 1427l203 -286l-8 -8l-274 192l-267 -190l-8 6l207 289q35 47 74 47q38 0 73 -50z" />
    <glyph glyph-name="Kcommaaccent" unicode="&#x136;" horiz-adv-x="1376" 
d="M590 10v-10h-475v10q87 21 116 64q23 41 23 190v844q0 144 -23 188q-28 39 -116 60v10h475v-10q-94 -22 -115 -56q-26 -39 -26 -190v-440q147 141 403 440q96 113 96 168q0 51 -114 78v10h430v-10q-60 -21 -105 -56q-39 -31 -123 -118l-348 -377q273 -396 369 -520
q109 -141 184 -205q39 -34 123 -64v-12q-71 -8 -227 -8q-68 0 -109.5 20.5t-85.5 77.5q-124 159 -395 582l-98 -98v-318q0 -146 26 -188q21 -38 115 -62zM571 -537l-8 15q146 103 146 196q0 40 -39 66q-52 27 -52 80q0 37 26.5 61.5t70.5 24.5q56 0 87.5 -36.5t31.5 -102.5
q0 -87 -73 -169.5t-190 -134.5z" />
    <glyph glyph-name="kcommaaccent" unicode="&#x137;" horiz-adv-x="1122" 
d="M510 8v-8h-422v8q76 28 96 64q23 38 23 174v911q0 143 -21 178q-30 59 -100 68v10q121 33 254 33q29 0 39 -12t10 -48q0 -3 -0.5 -31t-1.5 -87.5t-2 -126.5q-2 -154 -2 -271v-366q137 118 266 256q88 94 88 141q0 53 -96 74v10h383v-10q-43 -12 -90 -47
q-20 -13 -121 -107l-213 -205q283 -430 404 -542q38 -38 112 -54v-8q-92 -18 -198 -18q-98 0 -158 78q-142 189 -287 436l-90 -80v-176q0 -146 25 -182q28 -42 102 -62zM451 -537l-9 15q146 103 146 196q0 40 -39 66q-51 26 -51 80q0 37 26.5 61.5t69.5 24.5
q56 0 87.5 -36.5t31.5 -102.5q0 -87 -72.5 -169.5t-189.5 -134.5z" />
    <glyph glyph-name="kgreenlandic" unicode="&#x138;" horiz-adv-x="1122" 
d="M510 8v-8h-422v8q77 27 96 64q23 41 23 174v467q0 142 -23 180q-35 56 -98 65v9q115 34 254 34q30 0 39.5 -11.5t9.5 -49.5q0 -12 -0.5 -36t-1.5 -69t-2 -83q-2 -98 -2 -181v-67q109 93 266 256q90 104 90 141q0 50 -102 74v10h387v-10q-58 -17 -100 -51l-50 -43l-61 -60
l-213 -205q105 -160 148 -223q45 -65 122 -168q63 -83 134 -151q44 -38 112 -58v-10q-76 -12 -207 -12q-89 0 -149 78q-103 140 -287 434l-90 -78v-176q0 -146 25 -182q24 -41 102 -62z" />
    <glyph glyph-name="Lacute" unicode="&#x139;" horiz-adv-x="1116" 
d="M987 0h-872v10q79 24 108 53q31 36 31 170v875q0 149 -25 188q-29 37 -114 60v10h483v-10q-92 -20 -121 -58q-28 -36 -28 -188v-932q0 -58 19 -79t79 -21h219q133 0 180 41q53 44 105 172h12q-6 -176 -14 -228q-4 -41 -15.5 -52t-46.5 -11zM555 1659l-336 -174l-8 12
l252 275q45 51 86 51q34 0 58 -21t24 -55q0 -51 -76 -88z" />
    <glyph glyph-name="lacute" unicode="&#x13a;" horiz-adv-x="593" 
d="M508 8v-8h-422v8q77 27 96 64q23 41 23 172v915q0 117 -12 158q-21 67 -109 86v10q126 33 262 33q25 0 34 -12t9 -48q0 -7 -0.5 -38t-1.5 -94t-2 -130t-2 -130l-1.5 -94.5t-0.5 -39.5v-610q0 -144 22 -180q35 -44 105 -62zM471 1690l-336 -174l-8 12l252 274q45 51 86 51
q34 0 58 -20.5t24 -54.5q0 -48 -76 -88z" />
    <glyph glyph-name="Lcommaaccent" unicode="&#x13b;" horiz-adv-x="1116" 
d="M987 0h-872v10q79 24 108 53q31 36 31 170v875q0 149 -25 188q-29 37 -114 60v10h483v-10q-92 -20 -121 -58q-28 -36 -28 -188v-932q0 -58 19 -79t79 -21h219q133 0 180 41q53 44 105 172h12q-6 -176 -14 -228q-4 -41 -15.5 -52t-46.5 -11zM471 -537l-8 15
q145 103 145 196q0 40 -39 66q-51 26 -51 80q0 37 26.5 61.5t69.5 24.5q56 0 87.5 -36.5t31.5 -102.5q0 -87 -72.5 -169.5t-189.5 -134.5z" />
    <glyph glyph-name="lcommaaccent" unicode="&#x13c;" horiz-adv-x="593" 
d="M508 8v-8h-422v8q77 27 96 64q23 41 23 172v915q0 117 -12 158q-21 67 -109 86v10q126 33 262 33q25 0 34 -12t9 -48q0 -7 -0.5 -38t-1.5 -94t-2 -130t-2 -130l-1.5 -94.5t-0.5 -39.5v-610q0 -144 22 -180q35 -44 105 -62zM141 -537l-8 15q146 103 146 196q0 40 -39 66
q-52 27 -52 80q0 37 26.5 61.5t70.5 24.5q56 0 87 -36.5t31 -102.5q0 -87 -72.5 -169.5t-189.5 -134.5z" />
    <glyph glyph-name="Lcaron" unicode="&#x13d;" horiz-adv-x="1116" 
d="M987 0h-872v10q79 24 108 53q31 36 31 170v875q0 149 -25 188q-29 37 -114 60v10h483v-10q-92 -20 -121 -58q-28 -36 -28 -188v-932q0 -58 19 -79t79 -21h219q133 0 180 41q53 44 105 172h12q-6 -176 -14 -228q-4 -41 -15.5 -52t-46.5 -11zM676 979l-8 12
q145 106 145 199q0 42 -39 65q-51 29 -51 80q0 37 26.5 61.5t69.5 24.5q56 0 87.5 -36.5t31.5 -102.5q0 -87 -72.5 -169t-189.5 -134z" />
    <glyph glyph-name="lcaron" unicode="&#x13e;" horiz-adv-x="593" 
d="M508 8v-8h-422v8q77 27 96 64q23 41 23 172v915q0 117 -12 158q-21 67 -109 86v10q126 33 262 33q25 0 34 -12t9 -48q0 -7 -0.5 -38t-1.5 -94t-2 -130t-2 -130l-1.5 -94.5t-0.5 -39.5v-610q0 -144 22 -180q35 -44 105 -62zM500 1010l-8 12q145 106 145 199q0 42 -39 65
q-51 29 -51 80q0 37 26.5 61.5t69.5 24.5q56 0 87.5 -36.5t31.5 -102.5q0 -87 -72.5 -169t-189.5 -134z" />
    <glyph glyph-name="Ldot" unicode="&#x13f;" horiz-adv-x="1116" 
d="M1024 666q0 -56 -34 -90.5t-89 -34.5q-52 0 -86.5 35t-34.5 90q0 56 35 90.5t90 34.5q54 0 86.5 -34t32.5 -91zM987 0h-872v10q79 24 108 53q31 36 31 170v875q0 149 -25 188q-29 37 -114 60v10h483v-10q-92 -20 -121 -58q-28 -36 -28 -188v-932q0 -58 19 -79t79 -21h219
q133 0 180 41q53 44 105 172h12q-6 -176 -14 -228q-4 -41 -15.5 -52t-46.5 -11z" />
    <glyph glyph-name="ldot" unicode="&#x140;" horiz-adv-x="798" 
d="M813 678q0 -56 -32.5 -89.5t-86.5 -33.5q-50 0 -83 34t-33 87q0 56 32 89.5t86 33.5q51 0 84 -33.5t33 -87.5zM508 8v-8h-422v8q77 27 96 64q23 41 23 172v915q0 117 -12 158q-21 67 -109 86v10q126 33 262 33q25 0 34 -12t9 -48q0 -7 -0.5 -38t-1.5 -94t-2 -130t-2 -130
l-1.5 -94.5t-0.5 -39.5v-610q0 -144 22 -180q35 -44 105 -62z" />
    <glyph glyph-name="Lslash" unicode="&#x141;" horiz-adv-x="1116" 
d="M254 539l-162 -101l-45 70l207 129v471q0 149 -25 188q-29 37 -114 60v10h483v-10q-92 -20 -121 -58q-28 -36 -28 -188v-350l311 196l45 -69l-356 -225v-484q0 -58 19 -79t79 -21h219q133 0 180 41q53 44 105 172h12q-6 -176 -14 -228q-4 -41 -15.5 -52t-46.5 -11h-872
v10q79 24 108 53q31 36 31 170v306z" />
    <glyph glyph-name="lslash" unicode="&#x142;" horiz-adv-x="593" 
d="M205 610l-150 -88l-39 68l189 112v457q0 117 -12 158q-21 67 -109 86v10q126 33 262 33q25 0 34 -12t9 -48q0 -7 -0.5 -38t-1.5 -94t-2 -130t-2 -130l-1.5 -94.5t-0.5 -39.5v-53l156 94l38 -70l-194 -116v-465q0 -144 22 -180q35 -44 105 -62v-8h-422v8q77 27 96 64
q23 41 23 172v366z" />
    <glyph glyph-name="Nacute" unicode="&#x143;" horiz-adv-x="1495" 
d="M502 10v-10h-391v10q91 25 118 68q25 39 25 196q0 232 2 402t2 381q0 190 -22 229q-27 43 -121 70v10h305q38 0 65 -37q609 -875 701 -1022q-7 330 -10 793q-3 153 -25 184q-28 48 -119 72v10h377v-10q-91 -28 -115 -68t-24 -196v-1106h-107q-710 1040 -823 1210
q10 -615 10 -920q0 -156 27 -196q29 -44 125 -70zM999 1659l-335 -174l-9 12l252 275q45 51 86 51q34 0 58 -21t24 -55q0 -51 -76 -88z" />
    <glyph glyph-name="nacute" unicode="&#x144;" horiz-adv-x="1241" 
d="M514 8v-8h-420v8q73 24 94 64q23 41 23 161v484q0 136 -25 178q-36 54 -96 63v11q111 32 244 32q47 0 53 -38q4 -36 4 -152q38 92 134 146.5t218 54.5q223 0 269 -168q20 -67 20 -219v-383q0 -132 29 -179q22 -31 100 -55v-8h-420v8q69 21 93 62q22 42 22 170v335
q0 207 -47 263q-52 61 -158 61q-108 0 -184 -55q-54 -42 -68 -90q-12 -50 -12 -113v-403q0 -129 25 -168q28 -39 102 -62zM801 1374l-283 -239l-10 10l180 319q37 70 86 70q33 0 56.5 -20t23.5 -52q0 -41 -53 -88z" />
    <glyph glyph-name="Ncommaaccent" unicode="&#x145;" horiz-adv-x="1495" 
d="M502 10v-10h-391v10q91 25 118 68q25 39 25 196q0 232 2 402t2 381q0 190 -22 229q-27 43 -121 70v10h305q38 0 65 -37q609 -875 701 -1022q-7 330 -10 793q-3 153 -25 184q-28 48 -119 72v10h377v-10q-91 -28 -115 -68t-24 -196v-1106h-107q-710 1040 -823 1210
q10 -615 10 -920q0 -156 27 -196q29 -44 125 -70zM608 -537l-8 15q145 103 145 196q0 41 -38 66q-52 27 -52 80q0 37 26.5 61.5t70.5 24.5q56 0 87 -36.5t31 -102.5q0 -87 -72.5 -169.5t-189.5 -134.5z" />
    <glyph glyph-name="ncommaaccent" unicode="&#x146;" horiz-adv-x="1241" 
d="M514 8v-8h-420v8q73 24 94 64q23 41 23 161v484q0 136 -25 178q-36 54 -96 63v11q111 32 244 32q47 0 53 -38q4 -36 4 -152q38 92 134 146.5t218 54.5q223 0 269 -168q20 -67 20 -219v-383q0 -132 29 -179q22 -31 100 -55v-8h-420v8q69 21 93 62q22 42 22 170v335
q0 207 -47 263q-52 61 -158 61q-108 0 -184 -55q-54 -42 -68 -90q-12 -50 -12 -113v-403q0 -129 25 -168q28 -39 102 -62zM471 -537l-8 15q145 103 145 196q0 40 -39 66q-51 26 -51 80q0 37 26.5 61.5t69.5 24.5q56 0 87.5 -36.5t31.5 -102.5q0 -87 -72.5 -169.5
t-189.5 -134.5z" />
    <glyph glyph-name="Ncaron" unicode="&#x147;" horiz-adv-x="1495" 
d="M502 10v-10h-391v10q91 25 118 68q25 39 25 196q0 232 2 402t2 381q0 190 -22 229q-27 43 -121 70v10h305q38 0 65 -37q609 -875 701 -1022q-7 330 -10 793q-3 153 -25 184q-28 48 -119 72v10h377v-10q-91 -28 -115 -68t-24 -196v-1106h-107q-710 1040 -823 1210
q10 -615 10 -920q0 -156 27 -196q29 -44 125 -70zM686 1520l-223 254l8 10l295 -162l289 162l8 -8l-227 -260q-33 -39 -76 -39q-34 0 -74 43z" />
    <glyph glyph-name="ncaron" unicode="&#x148;" horiz-adv-x="1241" 
d="M514 8v-8h-420v8q73 24 94 64q23 41 23 161v484q0 136 -25 178q-36 54 -96 63v11q111 32 244 32q47 0 53 -38q4 -36 4 -152q38 92 134 146.5t218 54.5q223 0 269 -168q20 -67 20 -219v-383q0 -132 29 -179q22 -31 100 -55v-8h-420v8q69 21 93 62q22 42 22 170v335
q0 207 -47 263q-52 61 -158 61q-108 0 -184 -55q-54 -42 -68 -90q-12 -50 -12 -113v-403q0 -129 25 -168q28 -39 102 -62zM506 1186l-203 287l8 8l275 -193l266 193l8 -8l-207 -289q-35 -47 -73 -47q-40 0 -74 49z" />
    <glyph glyph-name="napostrophe" unicode="&#x149;" horiz-adv-x="1241" 
d="M514 8v-8h-420v8q73 24 94 64q23 41 23 161v484q0 136 -25 178q-36 54 -96 63v11q111 32 244 32q47 0 53 -38q4 -36 4 -152q38 92 134 146.5t218 54.5q223 0 269 -168q20 -67 20 -219v-383q0 -132 29 -179q22 -31 100 -55v-8h-420v8q69 21 93 62q22 42 22 170v335
q0 207 -47 263q-52 61 -158 61q-108 0 -184 -55q-54 -42 -68 -90q-12 -50 -12 -113v-403q0 -129 25 -168q28 -39 102 -62zM98 1094l-8 14q146 103 146 197q0 39 -39 65q-52 27 -52 80q0 37 26.5 61.5t70.5 24.5q56 0 87 -36.5t31 -102.5q0 -87 -72.5 -169t-189.5 -134z" />
    <glyph glyph-name="Eng" unicode="&#x14a;" horiz-adv-x="1495" 
d="M502 10v-10h-393v10q84 23 120 68q25 39 25 196q4 770 4 783q0 193 -22 229q-21 43 -121 70v10h309q32 0 55 -29q561 -795 701 -1020l-6 785q0 145 -23 186q-27 43 -121 68v10h379v-10q-91 -28 -115 -68t-24 -196v-1043q0 -149 -13 -235q-9 -82 -43 -146
q-32 -62 -100 -96.5t-158 -34.5q-61 0 -94 10q-43 12 -43 52q0 51 21 174h12q12 -73 50.5 -114.5t94.5 -41.5q80 0 117 57q45 62 45 248v72l-821 1202q0 -26 0.5 -80.5t1.5 -156.5t2 -191l8 -494q3 -166 25 -194q29 -43 127 -70z" />
    <glyph glyph-name="eng" unicode="&#x14b;" horiz-adv-x="1241" 
d="M514 8v-8h-420v8q73 24 94 64q23 41 23 161v484q0 133 -25 178q-34 54 -96 63v11q111 32 244 32q47 0 53 -38q4 -36 4 -152q41 92 138 146.5t219 54.5q218 0 264 -168q20 -67 20 -244v-534q0 -166 -12 -252q-9 -83 -45 -148q-38 -65 -112 -105t-169 -40q-45 0 -98 16
q-39 14 -39 51q0 64 21 140h12q21 -134 133 -134q72 0 102 64q31 73 31 375v536q0 205 -49 269q-52 61 -156 61q-126 0 -196 -61q-47 -41 -58 -84q-10 -42 -10 -117v-399q0 -129 25 -168q28 -39 102 -62z" />
    <glyph glyph-name="Omacron" unicode="&#x14c;" horiz-adv-x="1480" 
d="M1376 700q0 -348 -168.5 -537.5t-470.5 -189.5q-300 0 -466.5 177.5t-166.5 517.5q0 354 183 540q185 185 465 185q302 0 463 -178.5t161 -514.5zM1163 676q0 643 -413 643q-80 0 -146.5 -26.5t-132.5 -88.5q-69 -64 -108 -196.5t-39 -315.5q0 -645 417 -645
q201 0 311.5 158t110.5 471zM1016 1651v-113h-543v113h543z" />
    <glyph glyph-name="omacron" unicode="&#x14d;" horiz-adv-x="1146" 
d="M1057 506q0 -255 -127.5 -394t-356.5 -139q-226 0 -353.5 129.5t-127.5 380.5q0 262 141 394q144 135 359 135q227 0 346 -129.5t119 -376.5zM862 489q0 453 -278 453q-123 0 -211 -98t-88 -344q0 -234 77 -345.5t216 -111.5q284 0 284 446zM838 1321v-111h-525v111h525z
" />
    <glyph glyph-name="Obreve" unicode="&#x14e;" horiz-adv-x="1480" 
d="M1376 700q0 -348 -168.5 -537.5t-470.5 -189.5q-300 0 -466.5 177.5t-166.5 517.5q0 354 183 540q185 185 465 185q302 0 463 -178.5t161 -514.5zM1163 676q0 643 -413 643q-80 0 -146.5 -26.5t-132.5 -88.5q-69 -64 -108 -196.5t-39 -315.5q0 -645 417 -645
q201 0 311.5 158t110.5 471zM985 1767l14 -2q-18 -280 -268 -280q-158 0 -209 92q-41 73 -41 188l15 2q21 -82 74.5 -120.5t160.5 -38.5t164.5 38t89.5 121z" />
    <glyph glyph-name="obreve" unicode="&#x14f;" horiz-adv-x="1146" 
d="M1057 506q0 -255 -127.5 -394t-356.5 -139q-226 0 -353.5 129.5t-127.5 380.5q0 262 141 394q144 135 359 135q227 0 346 -129.5t119 -376.5zM862 489q0 453 -278 453q-123 0 -211 -98t-88 -344q0 -234 77 -345.5t216 -111.5q284 0 284 446zM815 1432l12 -2
q-15 -285 -260 -285q-243 0 -243 287l14 2q21 -86 72.5 -126t156.5 -40t160.5 39t87.5 125z" />
    <glyph glyph-name="Ohungarumlaut" unicode="&#x150;" horiz-adv-x="1480" 
d="M1376 700q0 -348 -168.5 -537.5t-470.5 -189.5q-300 0 -466.5 177.5t-166.5 517.5q0 354 183 540q185 185 465 185q302 0 463 -178.5t161 -514.5zM1163 676q0 643 -413 643q-80 0 -146.5 -26.5t-132.5 -88.5q-69 -64 -108 -196.5t-39 -315.5q0 -645 417 -645
q201 0 311.5 158t110.5 471zM823 1659l-325 -174l-11 12l248 272q47 50 88 50q76 0 76 -68q0 -55 -76 -92zM1165 1659l-327 -174l-9 12l248 272q47 50 86 50q76 0 76 -68q0 -54 -74 -92z" />
    <glyph glyph-name="ohungarumlaut" unicode="&#x151;" horiz-adv-x="1146" 
d="M1057 506q0 -255 -127.5 -394t-356.5 -139q-226 0 -353.5 129.5t-127.5 380.5q0 262 141 394q144 135 359 135q227 0 346 -129.5t119 -376.5zM862 489q0 453 -278 453q-123 0 -211 -98t-88 -344q0 -234 77 -345.5t216 -111.5q284 0 284 446zM653 1374l-264 -239l-10 10
l166 317q35 66 88 66q31 0 52.5 -17.5t21.5 -46.5q0 -42 -54 -90zM942 1374l-266 -239l-10 10l165 315q35 68 89 68q31 0 52 -17.5t21 -46.5q0 -45 -51 -90z" />
    <glyph glyph-name="OE" unicode="&#x152;" horiz-adv-x="1886" 
d="M1808 291h13q0 -109 -13 -219q-5 -45 -17 -58.5t-48 -13.5h-586q-86 0 -219 -8q-131 -8 -221 -8q-613 0 -613 694q0 340 179 522q182 182 481 182q82 0 197 -8t200 -8h537q30 0 42.5 -11t12.5 -38q0 -47 -16 -217h-13q-29 92 -52 129t-58 49q-40 12 -137 12h-215
q-34 0 -45 -13t-11 -50v-475h162q86 0 158 10q51 10 72.5 34.5t41.5 92.5h15v-348h-15q-14 62 -41.5 89.5t-87.5 37.5q-36 8 -141 8h-164v-498q0 -59 18.5 -79.5t78.5 -20.5h227q124 0 172 45q53 50 106 168zM1010 223v938q0 76 -27 103q-48 45 -205 45q-220 0 -336 -159
t-116 -454q0 -634 422 -637q184 0 229 45q33 26 33 119z" />
    <glyph glyph-name="oe" unicode="&#x153;" horiz-adv-x="1765" 
d="M948 172q-120 -199 -379 -199q-225 0 -351 129.5t-126 380.5q0 262 141 394q144 135 359 135q266 0 371 -199q108 199 362 199q182 0 275.5 -99t93.5 -276q0 -73 -8 -86q-10 -19 -60 -19h-575v-30q0 -99 21 -175.5t54.5 -121.5t80.5 -73.5t92 -39t96 -10.5q164 0 288 100
l7 -4v-10q0 -15 -11 -37q-33 -66 -125 -112t-219 -46q-279 0 -387 199zM862 500q0 442 -276 442q-125 0 -213 -98t-88 -344q0 -233 78 -345t215 -112q284 0 284 457zM1055 602h452q4 46 4 57q0 285 -198 285q-113 0 -182.5 -91t-75.5 -251z" />
    <glyph glyph-name="Racute" unicode="&#x154;" horiz-adv-x="1363" 
d="M594 10v-10h-479v10q90 24 116 64q23 41 23 190v846q0 148 -23 186q-25 39 -116 60v10h446q174 0 293 -29q121 -29 185.5 -115.5t64.5 -220.5q0 -132 -75 -224t-208 -134q44 -23 94 -96q53 -76 56 -82l76 -123l92 -147q56 -88 106 -131t111 -50v-10q-86 -12 -166 -12
q-121 0 -166 39q-70 61 -141 194q-123 233 -176 318q-40 61 -134 61h-124v-344q0 -157 26 -190q28 -32 119 -60zM449 1219v-541h106q132 0 197 35q137 73 137 278q0 193 -111 258q-76 43 -209 43h-55q-38 0 -51.5 -15t-13.5 -58zM866 1659l-336 -174l-8 12l252 275
q45 51 86 51q34 0 58 -21t24 -55q0 -51 -76 -88z" />
    <glyph glyph-name="racute" unicode="&#x155;" horiz-adv-x="833" 
d="M547 8v-8h-453v8q73 28 94 62q23 41 23 168v477q0 133 -25 178q-26 56 -96 65v11q111 32 246 32q46 0 49 -40q4 -28 4 -166q29 97 106.5 157t176.5 60q50 0 82 -13q39 -12 39 -51q0 -49 -35 -168h-13q-34 107 -145 107q-60 0 -112.5 -36t-77.5 -93q-23 -58 -23 -158v-360
q0 -130 29 -170q28 -35 131 -62zM684 1374l-283 -239l-10 10l180 319q37 70 86 70q33 0 56.5 -20t23.5 -52q0 -41 -53 -88z" />
    <glyph glyph-name="Rcommaaccent" unicode="&#x156;" horiz-adv-x="1363" 
d="M594 10v-10h-479v10q90 24 116 64q23 41 23 190v846q0 148 -23 186q-25 39 -116 60v10h446q174 0 293 -29q121 -29 185.5 -115.5t64.5 -220.5q0 -132 -75 -224t-208 -134q44 -23 94 -96q53 -76 56 -82l76 -123l92 -147q56 -88 106 -131t111 -50v-10q-86 -12 -166 -12
q-121 0 -166 39q-70 61 -141 194q-123 233 -176 318q-40 61 -134 61h-124v-344q0 -157 26 -190q28 -32 119 -60zM449 1219v-541h106q132 0 197 35q137 73 137 278q0 193 -111 258q-76 43 -209 43h-55q-38 0 -51.5 -15t-13.5 -58zM578 -537l-9 15q146 103 146 196
q0 40 -39 66q-51 26 -51 80q0 37 26.5 61.5t69.5 24.5q56 0 87.5 -36.5t31.5 -102.5q0 -87 -72.5 -169.5t-189.5 -134.5z" />
    <glyph glyph-name="rcommaaccent" unicode="&#x157;" horiz-adv-x="833" 
d="M547 8v-8h-453v8q73 28 94 62q23 41 23 168v477q0 133 -25 178q-26 56 -96 65v11q111 32 246 32q46 0 49 -40q4 -28 4 -166q29 97 106.5 157t176.5 60q50 0 82 -13q39 -12 39 -51q0 -49 -35 -168h-13q-34 107 -145 107q-60 0 -112.5 -36t-77.5 -93q-23 -58 -23 -158v-360
q0 -130 29 -170q28 -35 131 -62zM156 -537l-9 15q146 103 146 196q0 40 -39 66q-51 26 -51 80q0 37 26.5 61.5t69.5 24.5q56 0 87.5 -36.5t31.5 -102.5q0 -87 -72.5 -169.5t-189.5 -134.5z" />
    <glyph glyph-name="Rcaron" unicode="&#x158;" horiz-adv-x="1363" 
d="M594 10v-10h-479v10q90 24 116 64q23 41 23 190v846q0 148 -23 186q-25 39 -116 60v10h446q174 0 293 -29q121 -29 185.5 -115.5t64.5 -220.5q0 -132 -75 -224t-208 -134q44 -23 94 -96q53 -76 56 -82l76 -123l92 -147q56 -88 106 -131t111 -50v-10q-86 -12 -166 -12
q-121 0 -166 39q-70 61 -141 194q-123 233 -176 318q-40 61 -134 61h-124v-344q0 -157 26 -190q28 -32 119 -60zM449 1219v-541h106q132 0 197 35q137 73 137 278q0 193 -111 258q-76 43 -209 43h-55q-38 0 -51.5 -15t-13.5 -58zM526 1520l-223 254l8 10l295 -162l289 162
l8 -8l-227 -260q-33 -39 -76 -39q-34 0 -74 43z" />
    <glyph glyph-name="rcaron" unicode="&#x159;" horiz-adv-x="833" 
d="M547 8v-8h-453v8q73 28 94 62q23 41 23 168v477q0 133 -25 178q-26 56 -96 65v11q111 32 246 32q46 0 49 -40q4 -28 4 -166q29 97 106.5 157t176.5 60q50 0 82 -13q39 -12 39 -51q0 -49 -35 -168h-13q-34 107 -145 107q-60 0 -112.5 -36t-77.5 -93q-23 -58 -23 -158v-360
q0 -130 29 -170q28 -35 131 -62zM360 1186l-202 287l8 8l274 -193l267 193l8 -8l-207 -289q-32 -48 -74 -47.5t-74 49.5z" />
    <glyph glyph-name="Sacute" unicode="&#x15a;" horiz-adv-x="1069" 
d="M131 309h12q27 -108 111 -180q94 -82 250 -82q140 0 215.5 68.5t75.5 169.5q0 97 -58 161q-61 67 -239 154l-101 49q-262 133 -262 369q0 159 119 266q121 109 362 109q153 0 244 -31q41 -14 54.5 -27.5t13.5 -42.5q0 -54 -33 -192h-12q-30 111 -88 160q-68 59 -205 59
q-139 0 -215 -65.5t-76 -172.5q0 -82 49 -143q54 -63 209 -139l96 -47q169 -80 239.5 -170.5t70.5 -212.5q0 -180 -126.5 -288t-351.5 -108q-197 0 -307 64q-63 37 -63 84q0 82 16 188zM791 1659l-336 -174l-9 12l252 275q45 51 86 51q34 0 58 -21t24 -55q0 -51 -75 -88z
" />
    <glyph glyph-name="sacute" unicode="&#x15b;" horiz-adv-x="854" 
d="M115 256h12q35 -112 115 -166q68 -45 174 -45q91 0 143.5 45t52.5 113t-45 110q-46 46 -180 107l-70 33q-204 98 -204 268q0 122 92 205q92 86 297 86q115 0 194 -29q43 -15 43 -53q0 -48 -28 -166h-13q-20 91 -84 139q-46 37 -141 37q-103 0 -158 -41.5t-55 -114.5
q0 -62 41 -103t158 -97l67 -33q143 -64 191 -131q49 -64 49 -156q0 -115 -90 -205q-89 -86 -273 -86q-142 0 -241 45q-62 27 -62 88q0 88 15 150zM657 1374l-282 -239l-10 10l180 319q37 70 86 70q33 0 56.5 -20t23.5 -52q0 -40 -54 -88z" />
    <glyph glyph-name="Scircumflex" unicode="&#x15c;" horiz-adv-x="1069" 
d="M131 309h12q27 -108 111 -180q94 -82 250 -82q140 0 215.5 68.5t75.5 169.5q0 97 -58 161q-61 67 -239 154l-101 49q-262 133 -262 369q0 159 119 266q121 109 362 109q153 0 244 -31q41 -14 54.5 -27.5t13.5 -42.5q0 -54 -33 -192h-12q-30 111 -88 160q-68 59 -205 59
q-139 0 -215 -65.5t-76 -172.5q0 -82 49 -143q54 -63 209 -139l96 -47q169 -80 239.5 -170.5t70.5 -212.5q0 -180 -126.5 -288t-351.5 -108q-197 0 -307 64q-63 37 -63 84q0 82 16 188zM629 1726l223 -253l-8 -11l-297 162l-287 -162l-8 11l225 256q34 40 78 40q37 0 74 -43
z" />
    <glyph glyph-name="scircumflex" unicode="&#x15d;" horiz-adv-x="854" 
d="M115 256h12q35 -112 115 -166q68 -45 174 -45q91 0 143.5 45t52.5 113t-45 110q-46 46 -180 107l-70 33q-204 98 -204 268q0 122 92 205q92 86 297 86q115 0 194 -29q43 -15 43 -53q0 -48 -28 -166h-13q-20 91 -84 139q-46 37 -141 37q-103 0 -158 -41.5t-55 -114.5
q0 -62 41 -103t158 -97l67 -33q143 -64 191 -131q49 -64 49 -156q0 -115 -90 -205q-89 -86 -273 -86q-142 0 -241 45q-62 27 -62 88q0 88 15 150zM524 1427l203 -286l-8 -8l-275 192l-266 -190l-8 6l207 289q35 47 74 47q38 0 73 -50z" />
    <glyph glyph-name="Scedilla" unicode="&#x15e;" horiz-adv-x="1069" 
d="M342 -401v10l6 2q28 -25 90 -25q57 0 90 29t33 80q0 104 -112 104q-27 0 -39 -4l-9 6l64 172q-186 3 -287 64q-63 37 -63 84q0 82 16 188h12q27 -108 111 -180q94 -82 250 -82q140 0 215.5 68.5t75.5 169.5q0 97 -58 161q-61 67 -239 154l-101 49q-262 133 -262 369
q0 159 119 266q121 109 362 109q153 0 244 -31q41 -14 54.5 -27.5t13.5 -42.5q0 -54 -33 -192h-12q-30 111 -88 160q-68 59 -205 59q-139 0 -215 -65.5t-76 -172.5q0 -82 49 -143q54 -63 209 -139l96 -47q169 -80 239.5 -170.5t70.5 -212.5q0 -173 -117.5 -281t-329.5 -115
l-33 -98q205 0 205 -170q0 -84 -58.5 -132t-156.5 -48q-94 0 -121 43q-10 17 -10 31z" />
    <glyph glyph-name="scedilla" unicode="&#x15f;" horiz-adv-x="854" 
d="M254 -389v8l6 2q24 -24 88 -24q55 0 86 27.5t31 78.5q0 102 -107 102q-25 0 -41 -4l-6 6l62 166q-120 6 -211 45q-62 27 -62 88q0 88 15 150h12q35 -112 115 -166q68 -45 174 -45q91 0 143.5 45t52.5 113t-45 110q-46 46 -180 107l-70 33q-204 98 -204 268q0 122 92 205
q92 86 297 86q115 0 194 -29q43 -15 43 -53q0 -48 -28 -166h-13q-20 91 -84 139q-46 37 -141 37q-103 0 -158 -41.5t-55 -114.5q0 -62 41 -103t158 -97l67 -33q143 -64 191 -131q49 -64 49 -156q0 -123 -87.5 -204t-256.5 -87l-33 -94q99 0 149 -44.5t50 -119.5
q0 -81 -55.5 -128.5t-147.5 -47.5q-108 0 -123 41q-8 13 -8 31z" />
    <glyph glyph-name="Scaron" unicode="&#x160;" horiz-adv-x="1069" 
d="M131 309h12q27 -108 111 -180q94 -82 250 -82q140 0 215.5 68.5t75.5 169.5q0 97 -58 161q-61 67 -239 154l-101 49q-262 133 -262 369q0 159 119 266q121 109 362 109q153 0 244 -31q41 -14 54.5 -27.5t13.5 -42.5q0 -54 -33 -192h-12q-30 111 -88 160q-68 59 -205 59
q-139 0 -215 -65.5t-76 -172.5q0 -82 49 -143q54 -63 209 -139l96 -47q169 -80 239.5 -170.5t70.5 -212.5q0 -180 -126.5 -288t-351.5 -108q-197 0 -307 64q-63 37 -63 84q0 82 16 188zM473 1520l-223 254l8 10l295 -162l289 162l8 -8l-227 -260q-33 -39 -76 -39
q-34 0 -74 43z" />
    <glyph glyph-name="scaron" unicode="&#x161;" horiz-adv-x="854" 
d="M115 256h12q35 -112 115 -166q68 -45 174 -45q91 0 143.5 45t52.5 113t-45 110q-46 46 -180 107l-70 33q-204 98 -204 268q0 122 92 205q92 86 297 86q115 0 194 -29q43 -15 43 -53q0 -48 -28 -166h-13q-20 91 -84 139q-46 37 -141 37q-103 0 -158 -41.5t-55 -114.5
q0 -62 41 -103t158 -97l67 -33q143 -64 191 -131q49 -64 49 -156q0 -115 -90 -205q-89 -86 -273 -86q-142 0 -241 45q-62 27 -62 88q0 88 15 150zM377 1186l-203 287l8 8l275 -193l266 193l8 -8l-207 -289q-32 -48 -73.5 -47.5t-73.5 49.5z" />
    <glyph glyph-name="uni0162" unicode="&#x162;" horiz-adv-x="1216" 
d="M436 -401v10l6 2q28 -25 90 -25q57 0 90 29t33 80q0 104 -112 104q-27 0 -39 -4l-8 6l73 199h-211v10q92 21 117 64q23 41 23 190v965q0 35 -12 48t-44 13h-104q-98 0 -145 -12q-42 -11 -72.5 -53.5t-65.5 -139.5h-10q-10 160 -10 234q0 30 7 38.5t36 8.5h1036
q30 0 37.5 -7.5t7.5 -37.5q0 -89 -10 -236h-10q-30 98 -61 139.5t-79 53.5q-55 12 -147 12h-98q-35 0 -47.5 -13t-12.5 -48v-965q0 -152 27 -192q24 -38 117 -62v-10h-217l-43 -125q204 0 204 -170q0 -84 -58.5 -132t-156.5 -48q-94 0 -121 43q-10 17 -10 31z" />
    <glyph glyph-name="uni0163" unicode="&#x163;" horiz-adv-x="661" 
d="M236 -389v8l6 2q24 -24 88 -24q54 0 85 27.5t31 78.5q0 102 -106 102q-25 0 -41 -4l-6 6l65 181q-127 21 -145 155q-6 43 -6 154v604h-148v37q61 13 96 29t74 47q70 59 131 233h23v-262h217v-84h-217v-608q0 -77 6 -127q18 -100 125 -100q66 0 137 36l4 -8
q-90 -112 -239 -112h-10l-35 -103q99 0 148.5 -44.5t49.5 -119.5q0 -81 -55.5 -128.5t-146.5 -47.5q-108 0 -123 41q-8 13 -8 31z" />
    <glyph glyph-name="Tcaron" unicode="&#x164;" horiz-adv-x="1216" 
d="M838 10v-10h-480v10q92 21 117 64q23 41 23 190v965q0 35 -12 48t-44 13h-104q-98 0 -145 -12q-42 -11 -72.5 -53.5t-65.5 -139.5h-10q-10 160 -10 234q0 30 7 38.5t36 8.5h1036q30 0 37.5 -7.5t7.5 -37.5q0 -89 -10 -236h-10q-30 98 -61 139.5t-79 53.5q-55 12 -147 12
h-98q-35 0 -47.5 -13t-12.5 -48v-965q0 -152 27 -192q24 -38 117 -62zM520 1520l-223 254l8 10l295 -162l289 162l8 -8l-227 -260q-33 -39 -76 -39q-34 0 -74 43z" />
    <glyph glyph-name="tcaron" unicode="&#x165;" horiz-adv-x="661" 
d="M651 102l4 -8q-90 -112 -239 -112q-182 0 -203 161q-6 43 -6 154v604h-148v37q61 13 96 29t74 47q70 59 131 233h23v-262h217v-84h-217v-608q0 -77 6 -127q18 -100 125 -100q66 0 137 36zM504 1087l-8 13q145 106 145 198q0 43 -39 66q-51 29 -51 80q0 37 26.5 61.5
t69.5 24.5q56 0 87.5 -36.5t31.5 -102.5q0 -87 -72.5 -169.5t-189.5 -134.5z" />
    <glyph glyph-name="Tbar" unicode="&#x166;" horiz-adv-x="1216" 
d="M850 10v-10h-479v10q90 21 116 64q23 41 23 190v438h-305v86h305v441q0 35 -11.5 48t-43.5 13h-105q-98 0 -145 -12q-41 -11 -71.5 -53t-65.5 -140h-11q-10 160 -10 234q0 30 7 38.5t36 8.5h1036q30 0 37.5 -7.5t7.5 -37.5q0 -89 -10 -236h-10q-30 98 -60.5 139.5
t-78.5 53.5q-55 12 -148 12h-98q-35 0 -47 -12.5t-12 -48.5v-441h325v-86h-325v-438q0 -153 26 -192q24 -38 117 -62z" />
    <glyph glyph-name="tbar" unicode="&#x167;" horiz-adv-x="661" 
d="M651 102l4 -8q-90 -112 -239 -112q-182 0 -203 161q-6 43 -6 154v287h-139v80h139v237h-148v37q61 13 96 29t74 47q70 59 131 233h23v-262h217v-84h-217v-237h207v-80h-207v-291q0 -77 6 -127q18 -100 125 -100q66 0 137 36z" />
    <glyph glyph-name="Utilde" unicode="&#x168;" horiz-adv-x="1488" 
d="M98 1356v10h475v-10q-90 -24 -118 -66q-23 -44 -23 -145v-615q0 -201 37 -294q70 -181 324 -181q103 0 185.5 35.5t119.5 93.5q65 95 65 346v578q0 149 -35 190q-30 40 -112 58v10h385v-10q-68 -18 -103 -56q-41 -41 -41 -192v-549q0 -296 -86 -414q-123 -172 -426 -172
q-341 0 -446 193q-61 110 -61 385v588q0 123 -27 157q-25 36 -113 60zM1067 1726l12 -4q-52 -202 -170 -202q-58 0 -149 39q-76 36 -131 36q-92 0 -135 -94l-13 4q58 217 170 217q54 0 150 -45q75 -37 133 -37q83 0 133 86z" />
    <glyph glyph-name="utilde" unicode="&#x169;" horiz-adv-x="1232" 
d="M848 166q-46 -95 -134 -144t-200 -49q-234 0 -293 170q-24 67 -24 217v347q0 123 -17 176q-25 60 -104 78v12q107 26 254 26q30 0 39.5 -9t9.5 -38l-1 -16q0 -15 -1 -48.5t-2 -72.5q-2 -88 -2 -207v-213q0 -188 53 -250q53 -59 162 -59q113 0 188 66q37 32 53 81
q13 44 13 142v325q0 138 -19 181q-21 59 -104 80v12q116 26 260 26q28 0 37.5 -8.5t9.5 -38.5v-6q0 -7 -0.5 -19.5t-1 -29t-1 -42t-1.5 -52.5q-4 -196 -4 -223v-359q0 -158 100 -158q29 0 64 7l4 -7q-32 -35 -89.5 -58t-109.5 -23q-67 0 -101 43t-38 141zM895 1386l12 -4
q-18 -68 -28 -90q-14 -41 -51 -75.5t-83 -34.5q-57 0 -139 39q-75 34 -123 34q-83 0 -129 -94l-12 4q26 93 51 142q41 75 111 75q46 0 139 -43q82 -39 127 -39q78 0 125 86z" />
    <glyph glyph-name="Umacron" unicode="&#x16a;" horiz-adv-x="1488" 
d="M98 1356v10h475v-10q-90 -24 -118 -66q-23 -44 -23 -145v-615q0 -201 37 -294q70 -181 324 -181q103 0 185.5 35.5t119.5 93.5q65 95 65 346v578q0 149 -35 190q-30 40 -112 58v10h385v-10q-68 -18 -103 -56q-41 -41 -41 -192v-549q0 -296 -86 -414q-123 -172 -426 -172
q-341 0 -446 193q-61 110 -61 385v588q0 123 -27 157q-25 36 -113 60zM1036 1651v-113h-542v113h542z" />
    <glyph glyph-name="umacron" unicode="&#x16b;" horiz-adv-x="1232" 
d="M848 166q-46 -95 -134 -144t-200 -49q-234 0 -293 170q-24 67 -24 217v347q0 123 -17 176q-25 60 -104 78v12q107 26 254 26q30 0 39.5 -9t9.5 -38l-1 -16q0 -15 -1 -48.5t-2 -72.5q-2 -88 -2 -207v-213q0 -188 53 -250q53 -59 162 -59q113 0 188 66q37 32 53 81
q13 44 13 142v325q0 138 -19 181q-21 59 -104 80v12q116 26 260 26q28 0 37.5 -8.5t9.5 -38.5v-6q0 -7 -0.5 -19.5t-1 -29t-1 -42t-1.5 -52.5q-4 -196 -4 -223v-359q0 -158 100 -158q29 0 64 7l4 -7q-32 -35 -89.5 -58t-109.5 -23q-67 0 -101 43t-38 141zM868 1321v-111
h-524v111h524z" />
    <glyph glyph-name="Ubreve" unicode="&#x16c;" horiz-adv-x="1488" 
d="M98 1356v10h475v-10q-90 -24 -118 -66q-23 -44 -23 -145v-615q0 -201 37 -294q70 -181 324 -181q103 0 185.5 35.5t119.5 93.5q65 95 65 346v578q0 149 -35 190q-30 40 -112 58v10h385v-10q-68 -18 -103 -56q-41 -41 -41 -192v-549q0 -296 -86 -414q-123 -172 -426 -172
q-341 0 -446 193q-61 110 -61 385v588q0 123 -27 157q-25 36 -113 60zM1014 1767l14 -2q-18 -280 -268 -280q-158 0 -209 92q-41 73 -41 188l14 2q21 -82 75 -120.5t161 -38.5t164.5 38t89.5 121z" />
    <glyph glyph-name="ubreve" unicode="&#x16d;" horiz-adv-x="1232" 
d="M848 166q-46 -95 -134 -144t-200 -49q-234 0 -293 170q-24 67 -24 217v347q0 123 -17 176q-25 60 -104 78v12q107 26 254 26q30 0 39.5 -9t9.5 -38l-1 -16q0 -15 -1 -48.5t-2 -72.5q-2 -88 -2 -207v-213q0 -188 53 -250q53 -59 162 -59q113 0 188 66q37 32 53 81
q13 44 13 142v325q0 138 -19 181q-21 59 -104 80v12q116 26 260 26q28 0 37.5 -8.5t9.5 -38.5v-6q0 -7 -0.5 -19.5t-1 -29t-1 -42t-1.5 -52.5q-4 -196 -4 -223v-359q0 -158 100 -158q29 0 64 7l4 -7q-32 -35 -89.5 -58t-109.5 -23q-67 0 -101 43t-38 141zM840 1432l12 -2
q-15 -285 -260 -285q-244 0 -244 287l14 2q21 -85 73 -125.5t157 -40.5t160.5 39t87.5 125z" />
    <glyph glyph-name="Uring" unicode="&#x16e;" horiz-adv-x="1488" 
d="M98 1356v10h475v-10q-90 -24 -118 -66q-23 -44 -23 -145v-615q0 -201 37 -294q70 -181 324 -181q103 0 185.5 35.5t119.5 93.5q65 95 65 346v578q0 149 -35 190q-30 40 -112 58v10h385v-10q-68 -18 -103 -56q-41 -41 -41 -192v-549q0 -296 -86 -414q-123 -172 -426 -172
q-341 0 -446 193q-61 110 -61 385v588q0 123 -27 157q-25 36 -113 60zM934 1622q0 -72 -46 -120t-118 -48q-69 0 -115.5 48t-46.5 120q0 73 46 117.5t120 44.5q72 0 116 -44.5t44 -117.5zM774 1499q51 0 81 33.5t30 87.5t-32 87.5t-83 33.5q-69 6 -99.5 -56.5t-0.5 -126
t104 -59.5z" />
    <glyph glyph-name="uring" unicode="&#x16f;" horiz-adv-x="1232" 
d="M848 166q-46 -95 -134 -144t-200 -49q-234 0 -293 170q-24 67 -24 217v347q0 123 -17 176q-25 60 -104 78v12q107 26 254 26q30 0 39.5 -9t9.5 -38l-1 -16q0 -15 -1 -48.5t-2 -72.5q-2 -88 -2 -207v-213q0 -188 53 -250q53 -59 162 -59q113 0 188 66q37 32 53 81
q13 44 13 142v325q0 138 -19 181q-21 59 -104 80v12q116 26 260 26q28 0 37.5 -8.5t9.5 -38.5v-6q0 -7 -0.5 -19.5t-1 -29t-1 -42t-1.5 -52.5q-4 -196 -4 -223v-359q0 -158 100 -158q29 0 64 7l4 -7q-32 -35 -89.5 -58t-109.5 -23q-67 0 -101 43t-38 141zM774 1298
q0 -73 -48 -122.5t-122 -49.5q-73 0 -121.5 49t-48.5 123q0 73 49.5 120.5t124.5 47.5q74 0 120 -46.5t46 -121.5zM725 1296q0 56 -33.5 90.5t-87.5 34.5q-55 0 -87 -33.5t-32 -89.5q0 -55 33.5 -91t89.5 -36q53 0 85 35t32 90z" />
    <glyph glyph-name="Uhungarumlaut" unicode="&#x170;" horiz-adv-x="1488" 
d="M98 1356v10h475v-10q-90 -24 -118 -66q-23 -44 -23 -145v-615q0 -201 37 -294q70 -181 324 -181q103 0 185.5 35.5t119.5 93.5q65 95 65 346v578q0 149 -35 190q-30 40 -112 58v10h385v-10q-68 -18 -103 -56q-41 -41 -41 -192v-549q0 -296 -86 -414q-123 -172 -426 -172
q-341 0 -446 193q-61 110 -61 385v588q0 123 -27 157q-25 36 -113 60zM817 1659l-325 -174l-11 12l248 272q47 50 88 50q76 0 76 -68q0 -55 -76 -92zM1159 1659l-328 -174l-8 12l248 272q47 50 86 50q76 0 76 -68q0 -54 -74 -92z" />
    <glyph glyph-name="uhungarumlaut" unicode="&#x171;" horiz-adv-x="1232" 
d="M848 166q-46 -95 -134 -144t-200 -49q-234 0 -293 170q-24 67 -24 217v347q0 123 -17 176q-25 60 -104 78v12q107 26 254 26q30 0 39.5 -9t9.5 -38l-1 -16q0 -15 -1 -48.5t-2 -72.5q-2 -88 -2 -207v-213q0 -188 53 -250q53 -59 162 -59q113 0 188 66q37 32 53 81
q13 44 13 142v325q0 138 -19 181q-21 59 -104 80v12q116 26 260 26q28 0 37.5 -8.5t9.5 -38.5v-6q0 -7 -0.5 -19.5t-1 -29t-1 -42t-1.5 -52.5q-4 -196 -4 -223v-359q0 -158 100 -158q29 0 64 7l4 -7q-32 -35 -89.5 -58t-109.5 -23q-67 0 -101 43t-38 141zM662 1374
l-265 -239l-10 10l166 317q35 66 88 66q31 0 52.5 -17.5t21.5 -46.5q0 -43 -53 -90zM950 1374l-266 -239l-10 10l166 315q35 68 88 68q31 0 52 -17.5t21 -46.5q0 -45 -51 -90z" />
    <glyph glyph-name="Uogonek" unicode="&#x172;" horiz-adv-x="1488" 
d="M901 -342l6 -4v-8q0 -13 -12 -25q-41 -47 -133 -47q-95 0 -147 49t-52 129q0 138 170 221q-331 3 -434 193q-61 110 -61 385v588q0 123 -27 157q-25 36 -113 60v10h475v-10q-90 -24 -118 -66q-23 -44 -23 -145v-615q0 -201 37 -294q70 -181 324 -181q103 0 185.5 35.5
t119.5 93.5q65 95 65 346v578q0 149 -35 190q-30 40 -112 58v10h385v-10q-68 -18 -103 -56q-41 -41 -41 -192v-549q0 -296 -86 -414q-116 -155 -372 -170q-109 -83 -109 -208q0 -127 121 -127q63 0 90 18z" />
    <glyph glyph-name="uogonek" unicode="&#x173;" horiz-adv-x="1232" 
d="M1090 -336l6 -4v-8q0 -12 -13 -25q-43 -43 -129 -43q-90 0 -140 47.5t-50 124.5q0 148 186 230q-96 18 -102 180q-46 -95 -134 -144t-200 -49q-234 0 -293 170q-24 67 -24 217v347q0 123 -17 176q-25 60 -104 78v12q107 26 254 26q30 0 39.5 -9t9.5 -38l-1 -16
q0 -15 -1 -48.5t-2 -72.5q-2 -88 -2 -207v-213q0 -188 53 -250q53 -59 162 -59q113 0 188 66q37 32 53 81q13 44 13 142v325q0 138 -19 181q-21 59 -104 80v12q116 26 260 26q28 0 37.5 -8.5t9.5 -38.5v-6q0 -7 -0.5 -19.5t-1 -29t-1 -42t-1.5 -52.5q-4 -196 -4 -223v-359
q0 -158 100 -158q29 0 64 7l4 -7q-69 -72 -189 -81q-110 -82 -110 -211q0 -54 28 -90q27 -35 89 -35q59 0 86 18z" />
    <glyph glyph-name="Wcircumflex" unicode="&#x174;" horiz-adv-x="1951" 
d="M623 0h-138q-4 23 -77 315l-218 850q-35 129 -77 156q-51 26 -80 35v10h473v-10q-52 -16 -90 -35q-35 -21 -35 -57q0 -43 14 -95q203 -813 223 -927q43 158 334 1091h138q292 -872 356 -1093l213 913q12 49 12 102q0 43 -43 64q-37 18 -94 37v10h387v-10l-74 -31
q-31 -13 -47.5 -45.5t-38.5 -112.5l-217 -852q-67 -262 -78 -315h-137l-358 1122q-49 -178 -348 -1122zM1092 1726l223 -253l-8 -11l-297 162l-287 -162l-8 11l225 256q34 40 78 40q37 0 74 -43z" />
    <glyph glyph-name="wcircumflex" unicode="&#x175;" horiz-adv-x="1554" 
d="M780 778l-268 -778h-123q-20 86 -239 819q-30 100 -66 129q-13 13 -51 27v10h424v-10q-48 -13 -84 -33q-36 -18 -39.5 -58t16.5 -102l156 -587q31 101 258 759h119q222 -624 262 -759l24 96q26 90 134 506q14 57 14 94q0 35 -35 53l-74 31v10h316v-10q-69 -29 -88 -53
q-20 -23 -41 -103l-228 -819h-123q-214 619 -264 778zM885 1427l202 -286l-8 -8l-274 192l-266 -190l-9 6l207 289q35 47 74 47t74 -50z" />
    <glyph glyph-name="Ycircumflex" unicode="&#x176;" horiz-adv-x="1288" 
d="M881 10v-10h-475v10q89 21 114 64q25 42 25 184v330l-365 602q-62 101 -98 131q-34 26 -70 35v10h486v-10q-50 -10 -90 -31q-31 -19 -31 -39q0 -34 41 -102l289 -492l272 473q41 68 41 113q0 28 -37 49q-28 18 -72 29v10h365v-10q-53 -14 -96 -60q-29 -31 -78 -106
l-361 -584v-350q0 -150 27 -184q21 -34 113 -62zM768 1726l223 -253l-8 -11l-297 162l-287 -162l-8 11l225 256q34 40 78 40q37 0 74 -43z" />
    <glyph glyph-name="ycircumflex" unicode="&#x177;" horiz-adv-x="1093" 
d="M147 -256h13q27 -96 106 -96q80 0 127 78q79 142 129 274h-53q-95 249 -330 821q-45 108 -76 127q-26 18 -51 29v8h426v-8q-59 -18 -92 -39q-27 -15 -27 -43q0 -26 23 -90q209 -543 246 -660q41 119 235 656q21 59 21 94q0 25 -31 47q-36 20 -82 35v8h322v-8
q-31 -12 -52 -25q-38 -25 -83 -137q-229 -589 -310 -815q-83 -223 -162 -354q-79 -125 -213 -125q-39 0 -73 12q-39 14 -39 55q0 58 26 156zM649 1427l203 -286l-8 -8l-275 192l-266 -190l-8 6l207 289q35 47 73 47q39 0 74 -50z" />
    <glyph glyph-name="Ydieresis" unicode="&#x178;" horiz-adv-x="1288" 
d="M881 10v-10h-475v10q89 21 114 64q25 42 25 184v330l-365 602q-62 101 -98 131q-34 26 -70 35v10h486v-10q-50 -10 -90 -31q-31 -19 -31 -39q0 -34 41 -102l289 -492l272 473q41 68 41 113q0 28 -37 49q-28 18 -72 29v10h365v-10q-53 -14 -96 -60q-29 -31 -78 -106
l-361 -584v-350q0 -150 27 -184q21 -34 113 -62zM586 1595q5 -62 -46.5 -86.5t-103.5 1t-47 85.5q0 43 28.5 72t71.5 29q42 0 69.5 -29t27.5 -72zM948 1595q5 -62 -46.5 -86.5t-103 1t-46.5 85.5q0 43 28.5 72t71.5 29q42 0 69 -29t27 -72z" />
    <glyph glyph-name="Zacute" unicode="&#x179;" horiz-adv-x="1228" 
d="M1096 0h-1061v16l835 1276q-291 0 -528 -6q-123 -3 -160 -55q-23 -38 -49 -133h-12q-19 139 -19 221q0 27 7.5 37t31.5 10h994v-18l-832 -1270q333 0 551 4q152 3 201 49q39 39 98 154h12q0 -134 -18 -248q-1 -20 -13 -28.5t-38 -8.5zM827 1659l-335 -174l-9 12l252 275
q45 51 86 51q34 0 58 -21t24 -55q0 -51 -76 -88z" />
    <glyph glyph-name="zacute" unicode="&#x17a;" horiz-adv-x="991" 
d="M852 0h-805v18q567 836 619 904q-211 0 -347 -4q-101 -3 -129 -60q-29 -55 -47 -125h-12q-20 97 -20 201q0 31 9 41t38 10h741v-20l-620 -897q180 0 372 4q124 3 160 34q43 35 94 158h13q0 -142 -9 -225q-1 -23 -13 -31t-44 -8zM731 1374l-282 -239l-11 10l180 319
q37 70 87 70q33 0 56 -20t23 -52q0 -41 -53 -88z" />
    <glyph glyph-name="Zdotaccent" unicode="&#x17b;" horiz-adv-x="1228" 
d="M1096 0h-1061v16l835 1276q-291 0 -528 -6q-123 -3 -160 -55q-23 -38 -49 -133h-12q-19 139 -19 221q0 27 7.5 37t31.5 10h994v-18l-832 -1270q333 0 551 4q152 3 201 49q39 39 98 154h12q0 -134 -18 -248q-1 -20 -13 -28.5t-38 -8.5zM623 1495q-43 0 -72 28t-29 72
t29.5 73.5t73.5 29.5t72 -29t28 -74q0 -44 -29 -72t-73 -28z" />
    <glyph glyph-name="zdotaccent" unicode="&#x17c;" horiz-adv-x="991" 
d="M852 0h-805v18q567 836 619 904q-211 0 -347 -4q-101 -3 -129 -60q-29 -55 -47 -125h-12q-20 97 -20 201q0 31 9 41t38 10h741v-20l-620 -897q180 0 372 4q124 3 160 34q43 35 94 158h13q0 -142 -9 -225q-1 -23 -13 -31t-44 -8zM612 1290q0 -44 -28 -73t-72 -29
q-43 0 -71.5 29t-28.5 73q0 45 28 74t74 29q44 0 71 -28t27 -75z" />
    <glyph glyph-name="Zcaron" unicode="&#x17d;" horiz-adv-x="1228" 
d="M1096 0h-1061v16l835 1276q-291 0 -528 -6q-123 -3 -160 -55q-23 -38 -49 -133h-12q-19 139 -19 221q0 27 7.5 37t31.5 10h994v-18l-832 -1270q333 0 551 4q152 3 201 49q39 39 98 154h12q0 -134 -18 -248q-1 -20 -13 -28.5t-38 -8.5zM543 1520l-224 254l9 10l295 -162
l288 162l9 -8l-228 -260q-33 -39 -76 -39q-33 0 -73 43z" />
    <glyph glyph-name="zcaron" unicode="&#x17e;" horiz-adv-x="991" 
d="M852 0h-805v18q567 836 619 904q-211 0 -347 -4q-101 -3 -129 -60q-29 -55 -47 -125h-12q-20 97 -20 201q0 31 9 41t38 10h741v-20l-620 -897q180 0 372 4q124 3 160 34q43 35 94 158h13q0 -142 -9 -225q-1 -23 -13 -31t-44 -8zM432 1186l-203 287l9 8l274 -193l266 193
l8 -8l-206 -289q-35 -47 -74 -47q-40 0 -74 49z" />
    <glyph glyph-name="longs" unicode="&#x17f;" horiz-adv-x="624" 
d="M547 10v-10h-455v10q69 21 92 58q25 36 25 188v690q0 164 20 248q30 125 123.5 188.5t231.5 63.5q88 0 141 -16q43 -15 43 -54q0 -36 -29 -155h-14q-19 91 -63 127q-36 28 -97 28q-101 0 -147 -88q-33 -62 -33 -276v-748q0 -154 25 -190q21 -34 137 -64z" />
    <glyph glyph-name="uni018F" unicode="&#x18f;" horiz-adv-x="1390" 
d="M1067 526h-745q-5 -63 -5 -88q0 -183 98 -287t259 -104q372 0 393 479zM197 612h876v47q0 350 -141 476q-66 60 -144.5 86t-183.5 26q-261 0 -444 -157l-8 4v10q0 26 14 51q46 82 176 150q129 69 326 69q333 0 473 -180q143 -180 143 -508q0 -345 -160 -529t-460 -184
q-268 0 -416 139.5t-148 376.5q0 77 15 101q9 22 82 22z" />
    <glyph glyph-name="florin" unicode="&#x192;" horiz-adv-x="1064" 
d="M827 809v-84h-247l-62 -547q-24 -227 -112 -346q-107 -149 -273 -149q-98 0 -145 20q-49 18 -49 70q0 49 24 143h14q30 -160 154 -160q101 0 154 127q31 81 51 289l53 553h-196v84h204l9 70q24 252 118 362q103 121 291 121q101 0 168 -25q55 -21 55 -67q0 -40 -37 -170
h-10q-23 103 -66 145.5t-118 42.5q-92 0 -139 -71q-41 -56 -56 -201l-24 -207h239z" />
    <glyph glyph-name="Aringacute" unicode="&#x1fa;" horiz-adv-x="1353" 
d="M842 1501q0 -104 -88 -147l100 -277l317 -874q40 -112 78 -150q28 -28 92 -43v-10h-481v10q54 10 94 35q29 19 29 55q0 34 -27 111l-98 274h-479l-94 -274q-25 -67 -25 -117q0 -35 39 -55q45 -20 86 -29v-10h-375v10q56 15 84 43q40 40 80 144l326 866q69 188 106 293
q-84 44 -84 143q0 69 46 114.5t118 45.5q69 0 112.5 -44.5t43.5 -113.5zM621 1174l-215 -613h425zM793 1499q4 37 -16.5 66.5t-51 41.5t-65.5 6.5t-58 -30.5q-24 -25 -29 -60.5t6.5 -65.5t40 -51.5t66.5 -21.5q49 0 78 32.5t29 82.5zM911 1858l-305 -158l-8 12l225 252
q44 47 80 47q32 0 54 -19t22 -50q0 -49 -68 -84z" />
    <glyph glyph-name="aringacute" unicode="&#x1fb;" horiz-adv-x="1042" 
d="M678 150q-41 -84 -118.5 -129.5t-176.5 -45.5q-136 0 -217.5 75.5t-81.5 199.5q0 165 182 221q70 19 299 55q76 9 92 25q11 15 11 61v54q0 123 -43 172q-55 61 -181 61q-203 0 -276 -113l-8 2q-4 16 -4 33q0 81 100 135q103 56 252 56q173 0 255.5 -74.5t82.5 -241.5
q0 -96 -2 -217v-270q0 -89 23 -119.5t79 -30.5q31 0 64 11l4 -9q-73 -79 -180 -79q-74 0 -111.5 39t-44.5 129zM668 276v213q-18 -9 -64 -18q-211 -47 -237 -55q-101 -40 -101 -158q0 -89 51 -134.5t134 -45.5q155 0 204 110q13 26 13 88zM686 1290q0 -73 -48 -121.5
t-122 -48.5q-73 0 -121.5 49t-48.5 121q0 74 49 121t125 47q75 0 120.5 -46.5t45.5 -121.5zM639 1288q0 55 -34.5 90t-88.5 35q-55 0 -87 -33.5t-32 -89.5t32.5 -90.5t90.5 -34.5q54 0 86.5 34.5t32.5 88.5zM745 1761l-282 -239l-12 8l180 321q41 68 88 68q33 0 56.5 -19.5
t23.5 -50.5q0 -40 -54 -88z" />
    <glyph glyph-name="AEacute" unicode="&#x1fc;" horiz-adv-x="1914" 
d="M414 10v-10h-408v10q64 15 109 60q43 43 104 129l645 958q51 74 51 119q0 46 -120 80v10h936q55 0 55 -51q0 -63 -19 -215h-12q-25 89 -52 128t-67 50q-41 12 -133 12h-209q-35 0 -47 -12.5t-12 -48.5v-479h160q103 0 161 12q50 10 72 37t41 96h14v-360h-14
q-14 64 -42 93.5t-89 39.5q-40 6 -141 6h-162v-498q0 -58 19 -78t79 -20h226q127 0 174 41q47 35 106 172h10q0 -130 -10 -228q-4 -40 -17.5 -51.5t-52.5 -11.5h-866v10q83 27 109 53q28 31 28 170v250h-524l-170 -270q-61 -94 -61 -127q0 -31 32 -45q33 -15 97 -31z
M1040 1280l-473 -721h473v721zM1563 1659l-336 -174l-8 12l251 275q45 51 86 51q34 0 58 -21t24 -55q0 -51 -75 -88z" />
    <glyph glyph-name="aeacute" unicode="&#x1fd;" horiz-adv-x="1566" 
d="M741 154q-126 -179 -352 -179q-134 0 -221.5 81.5t-87.5 205.5q0 200 239 258q122 28 343 37q2 18 2 107q0 130 -43 176q-51 57 -179 57q-204 0 -278 -111l-6 2q-4 16 -4 33q0 81 100 135q103 56 248 56q234 0 286 -166q108 166 332 166q181 0 276 -102t95 -283
q0 -104 -8 -117q-9 -18 -60 -18h-579v-11q0 -221 98 -309q104 -90 244 -90q169 0 293 100l6 -4v-10q0 -22 -10 -39q-39 -66 -129.5 -111t-217.5 -45q-273 0 -387 181zM709 211q-47 112 -47 276q-144 -3 -250 -34q-150 -43 -150 -179q0 -89 58 -137.5t143 -48.5
q167 0 246 123zM848 559h455q4 36 4 105q0 280 -203 280q-116 0 -185.5 -104t-70.5 -281zM1061 1374l-283 -239l-10 10l180 319q37 70 86 70q33 0 56.5 -20t23.5 -52q0 -41 -53 -88z" />
    <glyph glyph-name="Oslashacute" unicode="&#x1fe;" horiz-adv-x="1480" 
d="M338 90l-111 -149l-59 43l115 155q-179 182 -179 533q0 357 185 542q188 185 469 185q223 0 372 -101l117 158l60 -43l-119 -160q194 -179 194 -548q0 -352 -169 -542t-474 -190q-245 0 -401 117zM1169 678q0 278 -79 440l-664 -905q108 -166 324 -166q199 0 309 159
t110 472zM324 694q0 -255 65 -409l660 901q-102 141 -295 141q-82 0 -150 -26.5t-133 -90.5q-69 -64 -108 -197.5t-39 -318.5zM993 1659l-336 -174l-8 12l252 275q45 51 86 51q34 0 58 -21t24 -55q0 -51 -76 -88z" />
    <glyph glyph-name="oslashacute" unicode="&#x1ff;" horiz-adv-x="1146" 
d="M279 51l-91 -123l-53 37l94 129q-137 131 -137 389q0 262 141 394q144 135 359 135q148 0 260 -62l96 131l56 -37l-97 -133q150 -126 150 -405q0 -255 -127.5 -394t-356.5 -139q-172 0 -294 78zM862 489q0 182 -47 297l-457 -626q74 -117 220 -117q134 0 209 111.5
t75 334.5zM285 500q0 -169 41 -275l452 625q-71 92 -194 92t-211 -98t-88 -344zM797 1374l-283 -239l-10 10l180 319q37 70 86 70q33 0 56.5 -20t23.5 -52q0 -41 -53 -88z" />
    <glyph glyph-name="uni0218" unicode="&#x218;" horiz-adv-x="1069" 
d="M131 309h12q27 -108 111 -180q94 -82 250 -82q140 0 215.5 68.5t75.5 169.5q0 97 -58 161q-61 67 -239 154l-101 49q-262 133 -262 369q0 159 119 266q121 109 362 109q153 0 244 -31q41 -14 54.5 -27.5t13.5 -42.5q0 -54 -33 -192h-12q-30 111 -88 160q-68 59 -205 59
q-139 0 -215 -65.5t-76 -172.5q0 -82 49 -143q54 -63 209 -139l96 -47q169 -80 239.5 -170.5t70.5 -212.5q0 -180 -126.5 -288t-351.5 -108q-197 0 -307 64q-63 37 -63 84q0 82 16 188zM385 -537l-8 15q145 103 145 196q0 40 -39 66q-51 26 -51 80q0 37 26.5 61.5t69.5 24.5
q56 0 87.5 -36.5t31.5 -102.5q0 -87 -72.5 -169.5t-189.5 -134.5z" />
    <glyph glyph-name="uni0219" unicode="&#x219;" horiz-adv-x="854" 
d="M115 256h12q35 -112 115 -166q68 -45 174 -45q91 0 143.5 45t52.5 113t-45 110q-46 46 -180 107l-70 33q-204 98 -204 268q0 122 92 205q92 86 297 86q115 0 194 -29q43 -15 43 -53q0 -48 -28 -166h-13q-20 91 -84 139q-46 37 -141 37q-103 0 -158 -41.5t-55 -114.5
q0 -62 41 -103t158 -97l67 -33q143 -64 191 -131q49 -64 49 -156q0 -115 -90 -205q-89 -86 -273 -86q-142 0 -241 45q-62 27 -62 88q0 88 15 150zM293 -537l-8 15q145 103 145 196q0 40 -39 66q-51 26 -51 80q0 37 26.5 61.5t69.5 24.5q56 0 87.5 -36.5t31.5 -102.5
q0 -87 -72.5 -169.5t-189.5 -134.5z" />
    <glyph glyph-name="uni021A" unicode="&#x21a;" horiz-adv-x="1216" 
d="M838 10v-10h-480v10q92 21 117 64q23 41 23 190v965q0 35 -12 48t-44 13h-104q-98 0 -145 -12q-42 -11 -72.5 -53.5t-65.5 -139.5h-10q-10 160 -10 234q0 30 7 38.5t36 8.5h1036q30 0 37.5 -7.5t7.5 -37.5q0 -89 -10 -236h-10q-30 98 -61 139.5t-79 53.5q-55 12 -147 12
h-98q-35 0 -47.5 -13t-12.5 -48v-965q0 -152 27 -192q24 -38 117 -62zM455 -537l-9 15q146 103 146 196q0 40 -39 66q-51 26 -51 80q0 37 26.5 61.5t69.5 24.5q56 0 87.5 -36.5t31.5 -102.5q0 -87 -72.5 -169.5t-189.5 -134.5z" />
    <glyph glyph-name="uni021B" unicode="&#x21b;" horiz-adv-x="661" 
d="M651 102l4 -8q-90 -112 -239 -112q-182 0 -203 161q-6 43 -6 154v604h-148v37q61 13 96 29t74 47q70 59 131 233h23v-262h217v-84h-217v-608q0 -77 6 -127q18 -100 125 -100q66 0 137 36zM254 -537l-8 15q145 103 145 196q0 40 -39 66q-51 26 -51 80q0 37 26.5 61.5
t69.5 24.5q56 0 87.5 -36.5t31.5 -102.5q0 -87 -72.5 -169.5t-189.5 -134.5z" />
    <glyph glyph-name="uni0259" unicode="&#x259;" horiz-adv-x="1007" 
d="M727 383h-455q-4 -36 -4 -66q0 -276 215 -276q229 0 244 342zM152 451h579v26q0 242 -86 334t-229 92q-184 0 -305 -100l-9 4v8q0 10 11 39q35 66 131.5 112t230.5 46q447 0 447 -510q0 -250 -120 -389.5t-331 -139.5q-186 0 -286.5 100t-100.5 275q0 73 8 84
q10 19 60 19z" />
    <glyph glyph-name="circumflex" unicode="&#x2c6;" horiz-adv-x="444" 
d="M297 1427l203 -286l-8 -8l-275 192l-266 -190l-8 6l207 289q35 47 73 47q39 0 74 -50z" />
    <glyph glyph-name="caron" unicode="&#x2c7;" horiz-adv-x="444" 
d="M145 1186l-202 287l8 8l274 -193l267 193l8 -8l-207 -289q-35 -47 -74 -47q-40 0 -74 49z" />
    <glyph glyph-name="breve" unicode="&#x2d8;" horiz-adv-x="444" 
d="M463 1432l12 -2q-15 -285 -260 -285q-244 0 -244 287l15 2q21 -86 72.5 -126t156.5 -40t160.5 39t87.5 125z" />
    <glyph glyph-name="dotaccent" unicode="&#x2d9;" horiz-adv-x="442" 
d="M322 1290q0 -44 -28.5 -73t-72.5 -29q-43 0 -71.5 29t-28.5 73q0 45 28 74t74 29q45 0 72 -28t27 -75z" />
    <glyph glyph-name="ring" unicode="&#x2da;" horiz-adv-x="444" 
d="M395 1298q0 -73 -48 -122.5t-122 -49.5q-73 0 -121.5 49t-48.5 123q0 73 49.5 120.5t124.5 47.5q74 0 120 -46.5t46 -121.5zM346 1296q0 56 -33.5 90.5t-87.5 34.5q-55 0 -87 -33.5t-32 -89.5q0 -55 33.5 -91t89.5 -36q53 0 85 35t32 90z" />
    <glyph glyph-name="ogonek" unicode="&#x2db;" horiz-adv-x="442" 
d="M397 -336l6 -4v-8q0 -13 -12 -25q-43 -43 -129 -43q-90 0 -140 47.5t-50 124.5q0 170 264 258l8 -6q-149 -94 -149 -237q0 -54 28 -90q27 -35 88 -35q59 0 86 18z" />
    <glyph glyph-name="tilde" unicode="&#x2dc;" horiz-adv-x="444" 
d="M492 1386l12 -4q-17 -62 -29 -90q-14 -41 -51 -75.5t-82 -34.5q-57 0 -139 39q-75 34 -123 34q-83 0 -129 -94l-12 4q26 93 53 142q38 75 108 75q50 0 140 -43q82 -39 127 -39q78 0 125 86z" />
    <glyph glyph-name="hungarumlaut" unicode="&#x2dd;" horiz-adv-x="442" 
d="M186 1374l-264 -239l-10 10l166 317q35 66 88 66q31 0 52.5 -17.5t21.5 -46.5q0 -42 -54 -90zM475 1374l-266 -239l-10 10l166 315q35 68 88 68q31 0 52 -17.5t21 -46.5q0 -45 -51 -90z" />
    <glyph glyph-name="uni0394" unicode="&#x394;" horiz-adv-x="1415" 
d="M795 1366l565 -1366h-1309l580 1366h164zM1081 162l-428 1052q-66 -182 -432 -1052h860z" />
    <glyph glyph-name="uni03A9" unicode="&#x3a9;" horiz-adv-x="1507" 
d="M676 133v-133h-463q-40 0 -53.5 10t-18.5 37q-12 73 -12 219h10q42 -92 90 -100q57 -14 318 -14q-168 70 -269.5 223.5t-101.5 363.5q0 169 49 301t135 207q171 146 402 146q266 0 411.5 -156t145.5 -477q0 -209 -104 -364.5t-285 -243.5q278 3 338 16q51 9 92 98h10
q-6 -146 -18 -219q-5 -26 -21.5 -36.5t-54.5 -10.5h-467v133q133 47 213 217q82 171 82 393q0 306 -85.5 441t-262.5 135q-172 0 -268.5 -144t-96.5 -436q0 -224 78 -397q79 -168 207 -209z" />
    <glyph glyph-name="uni03BC" unicode="&#x3bc;" horiz-adv-x="1302" 
d="M438 72v-156q0 -38 4 -174q1 -29 2 -56.5t1.5 -41t0.5 -15.5q0 -41 -14 -49q-29 -16 -180 -16l-6 8q14 241 14 709v426q0 134 -14 172q-27 69 -113 82v12q110 26 260 26q31 0 41 -8t10 -37q0 -1 -0.5 -17t-1.5 -51t-2 -75q-2 -90 -2 -211v-207q0 -106 11 -158.5t43 -87.5
q58 -61 161 -61q119 0 191 66q39 33 51 84q10 45 10 149v315q0 131 -16 181q-27 65 -111 80v12q116 26 264 26q28 0 38 -9t10 -38v-6q-1 -7 -1.5 -19.5t-1 -29t-1 -42t-1.5 -52.5q-4 -196 -4 -223v-353q0 -89 26 -125t79 -36q34 0 61 6l6 -9q-33 -33 -90.5 -57t-107.5 -24
q-67 0 -98.5 39.5t-43.5 142.5q-77 -191 -286 -191q-65 0 -117 26.5t-72 72.5z" />
    <glyph glyph-name="pi" unicode="&#x3c0;" horiz-adv-x="1337" 
d="M281 -2l-7 14q120 199 123 832h-20q-81 0 -129.5 -28t-91.5 -105l-19 6q12 129 76 211q48 57 188 57h820v-141h-164v-608q0 -95 21.5 -134t74.5 -39q32 0 74 11l4 -8q-85 -82 -209 -82q-100 0 -127 90q-14 43 -14 190v580h-346q0 -666 -56 -805q-9 -29 -33 -43
q-27 -12 -71 -12q-56 0 -94 14z" />
    <glyph glyph-name="Wgrave" unicode="&#x1e80;" horiz-adv-x="1951" 
d="M623 0h-138q-4 23 -77 315l-218 850q-35 129 -77 156q-51 26 -80 35v10h473v-10q-52 -16 -90 -35q-35 -21 -35 -57q0 -43 14 -95q203 -813 223 -927q43 158 334 1091h138q292 -872 356 -1093l213 913q12 49 12 102q0 43 -43 64q-37 18 -94 37v10h387v-10l-74 -31
q-31 -13 -47.5 -45.5t-38.5 -112.5l-217 -852q-67 -262 -78 -315h-137l-358 1122q-49 -178 -348 -1122zM868 1774l254 -277l-10 -12l-334 174q-76 40 -76 88q0 35 23 55.5t59 20.5q41 0 84 -49z" />
    <glyph glyph-name="wgrave" unicode="&#x1e81;" horiz-adv-x="1554" 
d="M780 778l-268 -778h-123q-20 86 -239 819q-30 100 -66 129q-13 13 -51 27v10h424v-10q-48 -13 -84 -33q-36 -18 -39.5 -58t16.5 -102l156 -587q31 101 258 759h119q222 -624 262 -759l24 96q26 90 134 506q14 57 14 94q0 35 -35 53l-74 31v10h316v-10q-69 -29 -88 -53
q-20 -23 -41 -103l-228 -819h-123q-214 619 -264 778zM709 1466l180 -321l-8 -10l-285 239q-53 47 -53 88q0 32 23.5 52t56.5 20q51 0 86 -68z" />
    <glyph glyph-name="Wacute" unicode="&#x1e82;" horiz-adv-x="1951" 
d="M623 0h-138q-4 23 -77 315l-218 850q-35 129 -77 156q-51 26 -80 35v10h473v-10q-52 -16 -90 -35q-35 -21 -35 -57q0 -43 14 -95q203 -813 223 -927q43 158 334 1091h138q292 -872 356 -1093l213 913q12 49 12 102q0 43 -43 64q-37 18 -94 37v10h387v-10l-74 -31
q-31 -13 -47.5 -45.5t-38.5 -112.5l-217 -852q-67 -262 -78 -315h-137l-358 1122q-49 -178 -348 -1122zM1255 1659l-335 -174l-9 12l252 275q45 51 86 51q34 0 58 -21t24 -55q0 -51 -76 -88z" />
    <glyph glyph-name="wacute" unicode="&#x1e83;" horiz-adv-x="1554" 
d="M780 778l-268 -778h-123q-20 86 -239 819q-30 100 -66 129q-13 13 -51 27v10h424v-10q-48 -13 -84 -33q-36 -18 -39.5 -58t16.5 -102l156 -587q31 101 258 759h119q222 -624 262 -759l24 96q26 90 134 506q14 57 14 94q0 35 -35 53l-74 31v10h316v-10q-69 -29 -88 -53
q-20 -23 -41 -103l-228 -819h-123q-214 619 -264 778zM1004 1374l-283 -239l-10 10l180 319q37 70 86 70q33 0 56.5 -20t23.5 -52q0 -41 -53 -88z" />
    <glyph glyph-name="Wdieresis" unicode="&#x1e84;" horiz-adv-x="1951" 
d="M623 0h-138q-4 23 -77 315l-218 850q-35 129 -77 156q-51 26 -80 35v10h473v-10q-52 -16 -90 -35q-35 -21 -35 -57q0 -43 14 -95q203 -813 223 -927q43 158 334 1091h138q292 -872 356 -1093l213 913q12 49 12 102q0 43 -43 64q-37 18 -94 37v10h387v-10l-74 -31
q-31 -13 -47.5 -45.5t-38.5 -112.5l-217 -852q-67 -262 -78 -315h-137l-358 1122q-49 -178 -348 -1122zM922 1595q5 -62 -46.5 -86.5t-103.5 1t-47 85.5q0 43 28.5 72t71.5 29q42 0 69.5 -29t27.5 -72zM1284 1595q5 -62 -46.5 -86.5t-103.5 1t-47 85.5q0 43 29 72t72 29
q42 0 69 -29t27 -72z" />
    <glyph glyph-name="wdieresis" unicode="&#x1e85;" horiz-adv-x="1554" 
d="M780 778l-268 -778h-123q-20 86 -239 819q-30 100 -66 129q-13 13 -51 27v10h424v-10q-48 -13 -84 -33q-36 -18 -39.5 -58t16.5 -102l156 -587q31 101 258 759h119q222 -624 262 -759l24 96q26 90 134 506q14 57 14 94q0 35 -35 53l-74 31v10h316v-10q-69 -29 -88 -53
q-20 -23 -41 -103l-228 -819h-123q-214 619 -264 778zM727 1290q0 -44 -26.5 -71t-69.5 -27q-42 0 -69 27t-27 71q0 43 27.5 71t70.5 28q42 0 68 -28t26 -71zM1067 1290q0 -46 -30 -72t-66.5 -26t-66.5 26t-30 72q0 43 27.5 71t71.5 28q41 0 67.5 -28t26.5 -71z" />
    <glyph glyph-name="Ygrave" unicode="&#x1ef2;" horiz-adv-x="1288" 
d="M881 10v-10h-475v10q89 21 114 64q25 42 25 184v330l-365 602q-62 101 -98 131q-34 26 -70 35v10h486v-10q-50 -10 -90 -31q-31 -19 -31 -39q0 -34 41 -102l289 -492l272 473q41 68 41 113q0 28 -37 49q-28 18 -72 29v10h365v-10q-53 -14 -96 -60q-29 -31 -78 -106
l-361 -584v-350q0 -150 27 -184q21 -34 113 -62zM535 1774l253 -277l-10 -12l-334 174q-75 40 -75 88q0 35 23 55.5t59 20.5q41 0 84 -49z" />
    <glyph glyph-name="ygrave" unicode="&#x1ef3;" horiz-adv-x="1093" 
d="M147 -256h13q27 -96 106 -96q80 0 127 78q79 142 129 274h-53q-95 249 -330 821q-45 108 -76 127q-26 18 -51 29v8h426v-8q-59 -18 -92 -39q-27 -15 -27 -43q0 -26 23 -90q209 -543 246 -660q41 119 235 656q21 59 21 94q0 25 -31 47q-36 20 -82 35v8h322v-8
q-31 -12 -52 -25q-38 -25 -83 -137q-229 -589 -310 -815q-83 -223 -162 -354q-79 -125 -213 -125q-39 0 -73 12q-39 14 -39 55q0 58 26 156zM455 1466l180 -321l-8 -10l-285 239q-53 47 -53 88q0 32 23.5 52t56.5 20q51 0 86 -68z" />
    <glyph glyph-name="endash" unicode="&#x2013;" horiz-adv-x="1169" 
d="M1061 598v-133h-967v133h967z" />
    <glyph glyph-name="emdash" unicode="&#x2014;" horiz-adv-x="1951" 
d="M1855 598v-133h-1761v133h1761z" />
    <glyph glyph-name="quoteleft" unicode="&#x2018;" horiz-adv-x="415" 
d="M377 1495l8 -12q-172 -132 -172 -252q0 -52 51 -78q60 -35 60 -90q0 -44 -31.5 -74.5t-75.5 -30.5q-62 0 -97.5 43.5t-35.5 120.5q0 103 78.5 201.5t214.5 171.5z" />
    <glyph glyph-name="quoteright" unicode="&#x2019;" horiz-adv-x="415" 
d="M55 965l-8 14q172 129 172 252q0 49 -51 78q-59 35 -59 90q0 44 31 74t75 30q62 0 97.5 -43.5t35.5 -120.5q0 -103 -78 -201.5t-215 -172.5z" />
    <glyph glyph-name="quotesinglbase" unicode="&#x201a;" horiz-adv-x="415" 
d="M55 -305l-8 12q172 132 172 252q0 52 -51 78q-59 35 -59 90q0 44 31 74t75 30q63 0 98 -42t35 -121q0 -103 -78 -200.5t-215 -172.5z" />
    <glyph glyph-name="quotedblleft" unicode="&#x201c;" horiz-adv-x="772" 
d="M713 1495l10 -12q-172 -129 -172 -252q0 -51 49 -78q62 -35 62 -90q0 -45 -31 -75t-78 -30q-62 0 -96.5 43t-34.5 121q0 103 78 201.5t213 171.5zM377 1495l8 -12q-172 -132 -172 -252q0 -51 49 -78q62 -35 62 -90q0 -44 -31.5 -74.5t-75.5 -30.5q-62 0 -97.5 43.5
t-35.5 120.5q0 103 78.5 201.5t214.5 171.5z" />
    <glyph glyph-name="quotedblright" unicode="&#x201d;" horiz-adv-x="772" 
d="M57 958l-10 13q174 131 174 252q0 51 -51 77q-61 37 -61 91q0 45 30.5 74.5t77.5 29.5q62 0 96.5 -42.5t34.5 -121.5q0 -103 -77.5 -201.5t-213.5 -171.5zM395 958l-10 13q174 131 174 252q0 51 -51 77q-62 38 -62 91q0 44 31 74t78 30q62 0 96.5 -42.5t34.5 -121.5
q0 -103 -78 -201.5t-213 -171.5z" />
    <glyph glyph-name="quotedblbase" unicode="&#x201e;" horiz-adv-x="772" 
d="M57 -307l-10 14q174 125 174 252q0 49 -51 78q-61 34 -61 90q0 45 30.5 74.5t77.5 29.5q62 0 96.5 -42.5t34.5 -120.5q0 -103 -77.5 -202t-213.5 -173zM395 -307l-10 14q174 125 174 252q0 49 -51 78q-62 35 -62 90q0 44 31 74t78 30q62 0 96.5 -42.5t34.5 -120.5
q0 -103 -77.5 -202t-213.5 -173z" />
    <glyph glyph-name="dagger" unicode="&#x2020;" horiz-adv-x="1085" 
d="M137 934q0 41 23.5 64.5t60.5 23.5q26 0 121 -29q97 -29 176 -43q-7 64 -26 170q-37 185 -37 205q0 92 86 92t86 -90q0 -9 -11 -70q-2 -12 -23 -125t-30 -182q54 10 129 31q137 41 168 41q84 0 84 -82q0 -42 -22.5 -66t-61.5 -24q-14 0 -53.5 8t-111.5 23t-132 26
q7 -157 31 -477q24 -285 24 -371q0 -88 -75 -88q-80 0 -80 88q0 72 22 371q24 290 33 477q-61 -11 -131 -26t-109 -23t-57 -8q-36 0 -60 23t-24 61z" />
    <glyph glyph-name="daggerdbl" unicode="&#x2021;" horiz-adv-x="1085" 
d="M518 461q-77 -13 -178 -41q-90 -23 -115 -23q-38 0 -61 22t-23 62q0 82 84 82q25 0 115 -22q96 -24 178 -37v409q-51 -7 -118 -21t-112.5 -23t-62.5 -9q-36 0 -60 22.5t-24 59.5q0 41 23 62.5t61 21.5q29 0 115 -27q101 -28 178 -41q-6 48 -26 160q-35 172 -35 209
q0 90 86 90t86 -92q0 -11 -11 -72q-5 -33 -25 -139.5t-28 -155.5q69 13 174 41q92 27 121 27q84 0 84 -82q0 -84 -84 -84q-15 -2 -52 6t-106.5 22.5t-136.5 24.5v-409q68 11 136.5 26.5t106 24t52.5 8.5q84 0 84 -84q0 -82 -84 -82q-16 0 -56.5 10t-108.5 26.5t-130 27.5
l29 -180q35 -199 35 -234q0 -92 -86 -92t-86 90q0 30 8 82l27 156q21 133 26 178z" />
    <glyph glyph-name="bullet" unicode="&#x2022;" horiz-adv-x="811" 
d="M674 563q0 -121 -74.5 -195.5t-196.5 -74.5q-116 0 -192 75t-76 191q0 123 77 199t200 76q119 0 190.5 -74t71.5 -197z" />
    <glyph glyph-name="ellipsis" unicode="&#x2026;" horiz-adv-x="2162" 
d="M508 100q0 -55 -33.5 -89t-87.5 -34q-53 0 -86 33q-35 35 -35 90.5t35 87.5q26 26 64 32t70.5 -5.5t54.5 -42.5t18 -72zM1202 100q0 -55 -33.5 -89t-87.5 -34q-53 0 -86 33q-35 35 -35 90.5t35 87.5q26 26 64 32t70.5 -5.5t54.5 -42.5t18 -72zM1896 100
q0 -56 -33.5 -89.5t-88.5 -33.5q-53 0 -86 33q-33 36 -33 91t35 87q26 26 63.5 32t70 -5.5t54.5 -42.5t18 -72z" />
    <glyph glyph-name="perthousand" unicode="&#x2030;" horiz-adv-x="2445" 
d="M694 930q0 -195 -79.5 -304.5t-229.5 -109.5q-164 0 -236.5 106.5t-72.5 313.5q0 196 83.5 304t233.5 108q161 0 231 -105.5t70 -312.5zM551 926q0 204 -33.5 285t-124.5 81q-170 0 -170 -342q0 -201 37.5 -289t128.5 -88q162 0 162 353zM471 -31l690 1428l66 -29
l-688 -1427zM1616 397q0 -194 -80.5 -303.5t-228.5 -109.5q-165 0 -238.5 106.5t-73.5 312.5q0 195 85 303.5t235 108.5q161 0 231 -105.5t70 -312.5zM1470 397q0 206 -33.5 284.5t-125.5 78.5q-168 0 -168 -342q0 -200 38.5 -288.5t129.5 -88.5q159 0 159 356zM2370 397
q0 -194 -81 -303.5t-229 -109.5q-165 0 -237 105t-72 314q0 196 83.5 304t233.5 108q161 0 231.5 -105.5t70.5 -312.5zM2224 397q0 205 -33.5 284t-126.5 79q-168 0 -168 -342q0 -200 38.5 -288.5t129.5 -88.5q160 0 160 356z" />
    <glyph glyph-name="guilsinglleft" unicode="&#x2039;" horiz-adv-x="532" 
d="M96 555l353 363l12 -11l-228 -399l224 -416l-13 -6l-346 360q-31 31 -31 54t29 55z" />
    <glyph glyph-name="guilsinglright" unicode="&#x203a;" horiz-adv-x="532" 
d="M442 446l-352 -360l-12 8l227 400l-223 415l12 9l344 -359q33 -36 33 -57q0 -19 -29 -56z" />
    <glyph glyph-name="fraction" unicode="&#x2044;" horiz-adv-x="194" 
d="M-283 -31l691 1428l67 -29l-688 -1427z" />
    <glyph glyph-name="zero.superior" unicode="&#x2070;" 
d="M670 1278q0 -194 -81 -304t-229 -110q-165 0 -238 107t-73 313q0 195 85 303.5t235 108.5q161 0 231 -105.5t70 -312.5zM524 1274q0 206 -34 286t-125 80q-168 0 -168 -342q0 -203 37.5 -289.5t130.5 -86.5q81 0 120 83t39 269z" />
    <glyph glyph-name="four.superior" unicode="&#x2074;" 
d="M647 889v-8h-323v8q40 9 67 24q31 22 31 88v91h-381v69l412 535h106q-2 -59 -2 -254v-258h131v-92h-131v-91q0 -72 35 -90q12 -8 55 -22zM129 1184h293q0 151 4 397q-22 -32 -297 -397z" />
    <glyph glyph-name="five.superior" unicode="&#x2075;" 
d="M90 1061h12q14 -60 67.5 -100.5t131.5 -40.5q87 0 134.5 53.5t47.5 148.5q0 92 -46 141.5t-126 49.5q-88 0 -174 -45l-8 6l47 407h420v-112q-340 0 -385 2l-23 -213q62 35 164 35q130 0 204.5 -63t74.5 -189q0 -129 -86 -203t-234 -74q-135 0 -200 41q-31 22 -31 49
q0 55 10 107z" />
    <glyph glyph-name="six.superior" unicode="&#x2076;" 
d="M213 1260q25 55 80.5 87.5t126.5 32.5q114 0 176.5 -61.5t62.5 -181.5t-76.5 -196.5t-203.5 -76.5q-147 0 -224 99.5t-77 275.5q0 71 11 134.5t37.5 123.5t67 103.5t105 69.5t145.5 26q87 0 142 -19q39 -14 39 -41q0 -48 -21 -118h-8q-34 124 -162 124q-215 0 -221 -382z
M221 1153q0 -102 40 -166.5t116 -64.5q67 0 104 52.5t37 155.5q0 179 -141 179q-81 0 -129 -66q-27 -37 -27 -90z" />
    <glyph glyph-name="seven.superior" unicode="&#x2077;" 
d="M324 860l-99 14q109 285 334 695q-63 0 -147 -2h-209q-58 0 -78.5 -20t-32.5 -70h-14q-10 65 -10 161q0 25 10.5 34t36.5 9h526v-63q-128 -288 -317 -758z" />
    <glyph glyph-name="eight.superior" unicode="&#x2078;" 
d="M444 1331q201 -80 201 -233q0 -106 -80 -170t-213 -64t-203.5 56.5t-70.5 150.5q0 140 180 201q-145 71 -145 209q0 97 70 156t188 59q243 0 243 -180q0 -120 -170 -185zM291 1253q-115 -65 -115 -176q0 -75 51 -116t127 -41q72 0 119 40.5t47 102.5q0 64 -48.5 105
t-180.5 85zM414 1348q104 64 104 168q0 61 -38.5 93.5t-106.5 32.5t-106 -33.5t-38 -88.5q0 -56 39 -93t146 -79z" />
    <glyph glyph-name="nine.superior" unicode="&#x2079;" 
d="M512 1303q-59 -127 -205 -127q-111 0 -174 64t-63 181q0 119 78.5 197t205.5 78q293 0 293 -373q0 -73 -10 -136.5t-36 -124t-65.5 -103.5t-102.5 -69t-144 -26q-102 0 -156 23q-35 18 -35 43q0 43 19 114h12q27 -129 164 -129q111 0 164 96.5t55 291.5zM506 1419
q0 223 -150 223q-66 0 -107.5 -54.5t-41.5 -153.5q0 -183 141 -183q82 0 129 68q29 40 29 100z" />
    <glyph glyph-name="parenleft.superior" unicode="&#x207d;" horiz-adv-x="403" 
d="M389 743l-8 -16q-311 108 -311 539q0 175 77.5 306t235.5 195l6 -14q-209 -126 -209 -485q0 -411 209 -525z" />
    <glyph glyph-name="parenright.superior" unicode="&#x207e;" horiz-adv-x="403" 
d="M14 1753l6 14q312 -109 312 -536q0 -176 -78 -308t-234 -196l-6 14q209 126 209 488q0 407 -209 524z" />
    <glyph glyph-name="n.superior" unicode="&#x207f;" horiz-adv-x="800" 
d="M336 541v-9h-279v9q50 15 60 39q14 20 14 96v285q0 86 -16 108q-23 30 -60 35v8q74 23 166 23q34 0 37 -29q2 -12 2 -84q58 119 223 119q135 0 170 -103q13 -44 13 -147v-213q0 -87 18 -105q10 -17 64 -32v-9h-281v9q43 14 59 39q13 23 13 98v207q0 115 -29 147
q-26 33 -92 33q-73 0 -119 -37q-25 -22 -35 -51q-6 -24 -6 -66v-235q0 -81 14 -98q13 -22 64 -37z" />
    <glyph glyph-name="zero.inferior" unicode="&#x2080;" 
d="M670 397q0 -194 -81 -303.5t-229 -109.5q-165 0 -238 106.5t-73 312.5q0 195 85 303.5t235 108.5q161 0 231 -105.5t70 -312.5zM524 393q0 206 -34 286.5t-125 80.5q-168 0 -168 -342q0 -203 37.5 -290t130.5 -87q81 0 120 83t39 269z" />
    <glyph glyph-name="one.inferior" unicode="&#x2081;" 
d="M528 8v-8h-327v8q26 6 61 21q39 20 39 98v487q0 77 -12 100t-49 23q-40 0 -50 -2l-2 19l244 65l10 -10q-4 -82 -4 -293v-389q0 -80 37 -98q20 -14 53 -21z" />
    <glyph glyph-name="two.inferior" unicode="&#x2082;" 
d="M573 0h-520v63q242 175 326 297q82 119 82 228q0 174 -160 174q-72 0 -113.5 -33.5t-68.5 -107.5h-13q-12 61 -12 108q0 36 45 53q73 33 195 33q274 0 274 -225q0 -110 -99.5 -223.5t-322.5 -260.5q29 4 334 7q43 0 64 18q20 20 45 74h12q0 -104 -10 -172q-5 -19 -16 -26
t-42 -7z" />
    <glyph glyph-name="three.inferior" unicode="&#x2083;" 
d="M78 188h10q20 -65 72.5 -106t134.5 -41q85 0 129.5 51.5t44.5 136.5q0 78 -47 122t-133 44h-33v49h37q158 0 158 172q0 146 -148 146q-71 0 -112.5 -32t-71.5 -107h-10q-11 72 -11 110q0 32 39 49q67 33 197 33q128 0 194 -50t66 -140q0 -153 -186 -199q206 -27 206 -195
q0 -117 -83.5 -182t-231.5 -65q-131 0 -199 39q-32 19 -32 51q0 46 10 114z" />
    <glyph glyph-name="four.inferior" unicode="&#x2084;" 
d="M647 8v-8h-323v8q37 8 67 25q31 22 31 88v90h-381v70l412 534h106q-2 -59 -2 -254v-258h131v-92h-131v-90q0 -72 35 -90q15 -10 55 -23zM129 303h293q0 151 4 397q-22 -32 -297 -397z" />
    <glyph glyph-name="five.inferior" unicode="&#x2085;" 
d="M90 180h12q14 -60 67.5 -100.5t131.5 -40.5q87 0 134.5 54t47.5 149q0 92 -46 141t-126 49q-88 0 -174 -45l-8 6l47 408h420v-113q-340 0 -385 2l-23 -213q62 35 164 35q130 0 204.5 -63t74.5 -189q0 -129 -86 -202.5t-234 -73.5q-135 0 -200 41q-31 22 -31 49
q0 54 10 106z" />
    <glyph glyph-name="six.inferior" unicode="&#x2086;" 
d="M213 379q25 55 80.5 88t126.5 33q114 0 176.5 -62t62.5 -182t-76.5 -196t-203.5 -76q-147 0 -224 99t-77 275q0 71 11 134.5t37.5 123.5t67 103.5t105 69.5t145.5 26q90 0 142 -18q39 -14 39 -41q0 -48 -21 -119h-8q-34 125 -162 125q-215 0 -221 -383zM221 272
q0 -102 40 -166.5t116 -64.5q67 0 104 53t37 156q0 178 -141 178q-81 0 -129 -66q-27 -38 -27 -90z" />
    <glyph glyph-name="seven.inferior" unicode="&#x2087;" 
d="M324 -20l-99 14q108 282 334 694q-63 0 -147 -2h-209q-58 0 -78.5 -20t-32.5 -70h-14q-10 65 -10 162q0 25 10.5 34t36.5 9h526v-64q-132 -297 -317 -757z" />
    <glyph glyph-name="eight.inferior" unicode="&#x2088;" 
d="M444 451q201 -80 201 -234q0 -106 -80 -169.5t-213 -63.5t-203.5 56t-70.5 150q0 140 180 201q-145 71 -145 209q0 97 70 156t188 59q243 0 243 -180q0 -119 -170 -184zM291 373q-115 -65 -115 -176q0 -75 51 -116.5t127 -41.5q72 0 119 40.5t47 102.5q0 64 -49 105.5
t-180 85.5zM414 467q104 64 104 168q0 61 -38.5 94t-106.5 33t-106 -34t-38 -89q0 -56 39 -93t146 -79z" />
    <glyph glyph-name="nine.inferior" unicode="&#x2089;" 
d="M512 422q-59 -127 -205 -127q-111 0 -174 64t-63 182q0 119 78.5 196.5t205.5 77.5q293 0 293 -373q0 -73 -10 -136t-36 -123.5t-65.5 -103.5t-102.5 -69t-144 -26q-104 0 -156 22q-35 18 -35 43q0 44 19 115h12q27 -129 164 -129q111 0 164 96.5t55 290.5zM506 539
q0 223 -150 223q-66 0 -107.5 -55t-41.5 -154q0 -182 141 -182q83 0 129 67q29 40 29 101z" />
    <glyph glyph-name="parenleft.inferior" unicode="&#x208d;" horiz-adv-x="403" 
d="M389 -137l-8 -17q-311 108 -311 539q0 175 77.5 306.5t235.5 195.5l6 -15q-209 -126 -209 -485q0 -410 209 -524z" />
    <glyph glyph-name="parenright.inferior" unicode="&#x208e;" horiz-adv-x="403" 
d="M14 872l6 15q312 -109 312 -537q0 -176 -78 -308t-234 -196l-6 15q209 126 209 487q0 407 -209 524z" />
    <glyph glyph-name="Euro" unicode="&#x20ac;" horiz-adv-x="1355" 
d="M991 571v-63h-446q26 -223 126.5 -341t266.5 -118q125 0 205 62q54 45 100 143h14q-3 -117 -16 -164q-9 -44 -70 -72q-86 -45 -270 -45q-238 0 -382 138t-179 397h-180v63h174q-2 18 -2 93q0 66 4 116h-176v64h186q38 246 188.5 377t397.5 131q171 0 258 -37
q63 -23 63 -68q0 -65 -30 -200h-17q-28 104 -71 159q-60 72 -209 72q-155 0 -253.5 -110.5t-127.5 -323.5h446v-64h-450q-4 -86 -4 -100q0 -15 4 -109h450z" />
    <glyph glyph-name="afii61289" unicode="&#x2113;" horiz-adv-x="940" 
d="M393 584q342 241 342 553q0 77 -34.5 122.5t-90.5 45.5q-90 0 -143 -105q-68 -139 -74 -616zM834 154l6 -2q0 -14 -4 -46q-10 -36 -33 -57q-88 -76 -234 -76q-198 0 -276 152q-64 116 -70 301q-69 -39 -133 -66l-22 54q85 40 151 78q0 317 29 493q29 159 102 264
q92 127 260 127q240 0 240 -258q0 -323 -455 -608q6 -180 31 -279q24 -79 73.5 -124.5t116.5 -45.5q122 0 218 93z" />
    <glyph glyph-name="trademark" unicode="&#x2122;" horiz-adv-x="1742" 
d="M575 717v-10h-278v10q46 12 61 33q13 20 13 92v448q0 17 -6 23t-25 6h-47q-58 0 -76 -6q-45 -15 -72 -99h-8q-6 64 -6 117q0 35 25 35h553q28 0 28 -31q0 -59 -4 -121h-10q-28 92 -78 101q-32 4 -72 4h-45q-18 0 -24 -5.5t-6 -23.5v-450q0 -75 12 -90q16 -19 65 -33z
M1004 717v-10h-220v10q47 9 64 26q15 18 18 76l15 383q2 25 2 86q0 28 -17 45q-20 12 -57 23v10h184q24 0 33 -20q170 -397 188 -453q9 22 33 81t65.5 162t84.5 207q10 23 26 23h183v-10q-37 -9 -56 -25q-14 -14 -14 -51q0 -33 16 -479q3 -46 23 -60q13 -13 57 -24v-10h-282
v10q47 15 59 24q18 15 18 66q0 19 -12 465l-217 -541h-49l-223 539q0 -113 -2 -246t-2 -213q0 -52 16 -68q18 -18 66 -26z" />
    <glyph glyph-name="Omega" unicode="&#x2126;" horiz-adv-x="1499" 
d="M676 133v-133h-463q-40 0 -53.5 10t-18.5 37q-12 73 -12 219h10q42 -92 90 -100q57 -14 318 -14q-168 70 -269.5 223.5t-101.5 363.5q0 169 49 301t135 207q171 146 402 146q266 0 411.5 -156t145.5 -477q0 -209 -104 -364.5t-285 -243.5q278 3 338 16q51 9 92 98h10
q-6 -146 -18 -219q-5 -26 -21.5 -36.5t-54.5 -10.5h-467v133q133 47 213 217q82 171 82 393q0 306 -85.5 441t-262.5 135q-172 0 -268.5 -144t-96.5 -436q0 -224 78 -397q79 -168 207 -209z" />
    <glyph glyph-name="estimated" unicode="&#x212e;" horiz-adv-x="1769" 
d="M1665 684v-18h-1262q-8 0 -8 -11v-387q0 -21 19 -43q194 -209 475 -209q146 0 277.5 62t224.5 172h114q-112 -129 -273.5 -202t-344.5 -73q-318 0 -551 207q-227 205 -227 502q0 295 227 500q233 207 551 207q321 0 551 -207q227 -205 227 -500zM1382 715v389
q0 25 -22 47q-199 199 -471 199q-275 0 -473 -207q-21 -18 -21 -49v-379q0 -10 8 -10h967q12 0 12 10z" />
    <glyph glyph-name="onethird" unicode="&#x2153;" horiz-adv-x="1646" 
d="M410 -31l690 1428l67 -29l-688 -1427zM524 541v-9h-327v9q16 4 61 22q39 14 39 96v488q0 82 -12 100q-16 23 -52 23q-37 0 -47 -2l-2 18l244 66l10 -11q-4 -82 -4 -292v-390q0 -80 37 -98q26 -13 53 -20zM983 188h10q20 -65 72.5 -106t134.5 -41q85 0 129.5 51.5
t44.5 136.5q0 78 -47 122t-133 44h-33v49h37q158 0 158 172q0 146 -148 146q-71 0 -112.5 -32t-71.5 -107h-10q-10 62 -10 110q0 32 38 49q67 33 197 33q128 0 194 -50t66 -140q0 -153 -186 -199q207 -27 207 -195q0 -117 -84 -182t-232 -65q-130 0 -198 39q-33 20 -33 51
q0 46 10 114z" />
    <glyph glyph-name="twothirds" unicode="&#x2154;" horiz-adv-x="1646" 
d="M621 532h-521v64q242 175 326 297q82 119 82 227q0 174 -160 174q-72 0 -113.5 -33.5t-68.5 -107.5h-12q-13 67 -13 109q0 36 45 53q73 33 195 33q274 0 274 -226q0 -110 -99 -223t-323 -260l334 6q42 0 64 19q21 21 45 73h12q0 -104 -10 -172q-5 -20 -15.5 -26.5
t-41.5 -6.5zM1063 188h10q20 -65 72.5 -106t134.5 -41q85 0 129.5 51.5t44.5 136.5q0 78 -47 122t-133 44h-33v49h37q158 0 158 172q0 146 -148 146q-71 0 -112.5 -32t-71.5 -107h-10q-11 68 -11 110q0 32 39 49q67 33 197 33q128 0 194 -50t66 -140q0 -153 -186 -199
q206 -27 206 -195q0 -117 -83.5 -182t-231.5 -65q-131 0 -199 39q-32 19 -32 51q0 46 10 114zM506 -31l690 1428l68 -29l-689 -1427z" />
    <glyph glyph-name="oneeighth" unicode="&#x215b;" horiz-adv-x="1646" 
d="M416 -31l690 1428l68 -29l-689 -1427zM530 541v-9h-327v9q16 4 61 22q39 14 39 96v488q0 82 -12 100q-16 23 -51 23q-37 0 -47 -2l-3 18l244 66l10 -11q-4 -82 -4 -292v-390q0 -80 37 -98q26 -13 53 -20zM1329 451q201 -80 201 -234q0 -106 -80 -169.5t-213 -63.5
t-203.5 56t-70.5 150q0 140 180 201q-146 71 -146 209q0 97 70 156t188 59q244 0 244 -180q0 -119 -170 -184zM1176 373q-115 -65 -115 -176q0 -75 51 -116.5t127 -41.5q72 0 119 40.5t47 102.5q0 64 -49 105.5t-180 85.5zM1298 467q105 65 105 168q0 61 -39 94t-107 33
t-105.5 -34t-37.5 -89q0 -56 38.5 -93t145.5 -79z" />
    <glyph glyph-name="threeeighths" unicode="&#x215c;" horiz-adv-x="1646" 
d="M457 -31l690 1428l67 -29l-688 -1427zM125 721h10q20 -65 73 -106.5t134 -41.5q85 0 129.5 52t44.5 137q0 78 -47 122t-133 44h-33v49h37q158 0 158 172q0 145 -148 145q-69 0 -112 -32.5t-72 -106.5h-10q-11 72 -11 111q0 32 39 49q67 33 197 33q128 0 194 -50.5
t66 -140.5q0 -153 -186 -199q207 -27 207 -194q0 -117 -84 -182.5t-232 -65.5q-131 0 -199 39q-32 19 -32 51q0 47 10 115zM1352 451q200 -80 200 -234q0 -106 -79.5 -169.5t-212.5 -63.5t-204 56t-71 150q0 140 180 201q-145 71 -145 209q0 97 70 156t188 59
q244 0 244 -180q0 -119 -170 -184zM1198 373q-115 -65 -115 -176q0 -75 51.5 -116.5t127.5 -41.5q72 0 118.5 40.5t46.5 102.5q0 64 -49 105.5t-180 85.5zM1321 467q104 64 104 168q0 61 -38.5 94t-106.5 33t-105.5 -34t-37.5 -89q0 -56 38.5 -93t145.5 -79z" />
    <glyph glyph-name="fiveeighths" unicode="&#x215d;" horiz-adv-x="1646" 
d="M473 -31l690 1428l68 -29l-688 -1427zM135 713h12q14 -60 67.5 -101t131.5 -41q87 0 134.5 54t47.5 149q0 92 -46 141.5t-126 49.5q-88 0 -174 -45l-8 6l47 407h420v-112q-340 0 -385 2l-23 -213q61 34 164 34q130 0 204.5 -62.5t74.5 -188.5q0 -129 -86 -203t-234 -74
q-135 0 -200 41q-31 22 -31 49q0 55 10 107zM1374 451q201 -80 201 -234q0 -106 -80 -169.5t-213 -63.5t-203.5 56t-70.5 150q0 140 180 201q-146 71 -146 209q0 97 70 156t188 59q244 0 244 -180q0 -119 -170 -184zM1221 373q-115 -65 -115 -176q0 -75 51 -116.5t127 -41.5
q72 0 119 40.5t47 102.5q0 64 -49 105.5t-180 85.5zM1343 467q105 65 105 168q0 61 -38.5 94t-106.5 33t-106 -34t-38 -89q0 -56 38.5 -93t145.5 -79z" />
    <glyph glyph-name="seveneighths" unicode="&#x215e;" horiz-adv-x="1646" 
d="M393 -31l690 1428l68 -29l-688 -1427zM379 512l-98 14q111 291 333 695q-63 0 -147 -2h-209q-58 0 -78.5 -20.5t-32.5 -70.5h-14q-10 65 -10 162q0 25 10.5 34t36.5 9h526v-63q-128 -288 -317 -758zM1325 451q201 -80 201 -234q0 -106 -80 -169.5t-213 -63.5t-204 56
t-71 150q0 140 181 201q-146 71 -146 209q0 97 70 156t188 59q244 0 244 -180q0 -119 -170 -184zM1171 373q-114 -65 -114 -176q0 -75 51 -116.5t127 -41.5q72 0 119 40.5t47 102.5q0 64 -49 105.5t-181 85.5zM1294 467q105 65 105 168q0 61 -39 94t-107 33t-105.5 -34
t-37.5 -89q0 -56 38.5 -93t145.5 -79z" />
    <glyph glyph-name="arrowleft" unicode="&#x2190;" horiz-adv-x="1505" 
d="M1446 741v-143q-1044 0 -1155 2q120 -109 520 -506l-92 -98l-678 674l676 676l94 -97l-522 -512q226 4 1157 4z" />
    <glyph glyph-name="arrowup" unicode="&#x2191;" horiz-adv-x="1505" 
d="M827 0h-145q0 927 4 1153q-57 -63 -514 -520l-92 92l676 682l674 -680l-95 -94q-425 425 -510 520q2 -111 2 -1153z" />
    <glyph glyph-name="arrowright" unicode="&#x2192;" horiz-adv-x="1505" 
d="M59 621v145q929 0 1155 -4l-526 512l100 96l674 -676l-678 -676l-92 101q393 387 522 504q-113 -2 -1155 -2z" />
    <glyph glyph-name="arrowdown" unicode="&#x2193;" horiz-adv-x="1505" 
d="M682 1382h145q0 -711 -4 -1153q145 157 510 519l94 -95l-671 -678l-678 678l100 95q436 -432 506 -517q-2 113 -2 1151z" />
    <glyph glyph-name="uni2196" unicode="&#x2196;" horiz-adv-x="1505" 
d="M502 1022l825 -815l-100 -105l-424 428q-220 220 -271 269l-114 119q4 -160 4 -725h-137v956h956v-131h-389q-97 1 -181.5 2t-123.5 1.5t-45 0.5z" />
    <glyph glyph-name="uni2197" unicode="&#x2197;" horiz-adv-x="1505" 
d="M1096 924l-811 -822l-101 105l830 817q-44 0 -101 -2q-230 -4 -643 -4v131h957v-956h-135q0 649 4 731z" />
    <glyph glyph-name="uni2198" unicode="&#x2198;" horiz-adv-x="1505" 
d="M1006 311l-820 813l99 103l813 -815q-4 78 -4 725h133v-957h-957v133q272 0 385 -2h351z" />
    <glyph glyph-name="uni2199" unicode="&#x2199;" horiz-adv-x="1505" 
d="M416 412l809 815l102 -101l-823 -815h96q226 4 639 4v-133h-954v955h135q0 -565 -4 -725z" />
    <glyph glyph-name="partialdiff" unicode="&#x2202;" horiz-adv-x="1208" 
d="M819 762q2 14 2 98q0 222 -76.5 345.5t-212.5 123.5q-104 0 -171 -44.5t-93 -117.5h-10q-8 41 -8 115q0 47 51 70q110 55 264 55q449 0 449 -631q0 -404 -108 -603.5t-349 -199.5q-182 0 -282.5 112.5t-100.5 307.5q0 222 117 336q116 113 291 113q160 0 237 -80z
M813 684q-23 42 -78.5 67t-120.5 25q-117 0 -179 -97.5t-62 -287.5q0 -348 202 -348q201 0 228 344q10 133 10 297z" />
    <glyph glyph-name="increment" unicode="&#x2206;" horiz-adv-x="1409" 
d="M795 1366l565 -1366h-1309l580 1366h164zM1081 162l-428 1052q-66 -182 -432 -1052h860z" />
    <glyph glyph-name="product" unicode="&#x220f;" horiz-adv-x="1478" 
d="M1366 -197v-10h-467v10q95 21 117 64q22 39 22 190v1160q0 44 -16 58.5t-61 14.5h-455q-41 0 -53.5 -14.5t-12.5 -63.5v-1157q0 -150 25 -192q22 -36 115 -60v-10h-467v10q89 21 114 64q23 41 23 190v1051q0 152 -23 190q-26 37 -114 58v10h1253v-10q-90 -21 -113 -60
q-24 -44 -24 -186v-1055q0 -151 24 -192q21 -38 113 -60z" />
    <glyph glyph-name="summation" unicode="&#x2211;" horiz-adv-x="1247" 
d="M1065 -207h-1012v19l615 755l-527 779v20h891q52 0 69 -9t17 -38q0 -41 -16 -172h-12q-27 85 -78 121q-33 20 -103 20q-170 2 -506 2l435 -647l-551 -676h631q92 0 133 15q28 10 46.5 30t51.5 76h12q-9 -196 -16 -242q-5 -31 -21 -42t-59 -11z" />
    <glyph glyph-name="minus" unicode="&#x2212;" horiz-adv-x="1302" 
d="M1118 618v-122h-934v122h934z" />
    <glyph glyph-name="uni2215" unicode="&#x2215;" horiz-adv-x="194" 
d="M-283 -31l691 1428l67 -29l-688 -1427z" />
    <glyph glyph-name="uni2219" unicode="&#x2219;" horiz-adv-x="485" 
d="M244 416q-52 0 -86.5 34t-34.5 89t34.5 89t88.5 34t86.5 -33.5t32.5 -89.5q0 -55 -33.5 -89t-87.5 -34z" />
    <glyph glyph-name="radical" unicode="&#x221a;" horiz-adv-x="1314" 
d="M1270 1417l-551 -1718h-127l-342 663l-113 -55l-31 62l283 147l309 -620l469 1544z" />
    <glyph glyph-name="infinity" unicode="&#x221e;" horiz-adv-x="1363" 
d="M688 635q82 105 154.5 150.5t158.5 45.5q119 0 194 -77.5t75 -204.5q0 -124 -78.5 -206.5t-200.5 -82.5q-86 0 -156 44t-155 153q-89 -108 -157.5 -152.5t-153.5 -44.5q-123 0 -198 78t-75 201q0 130 79 212.5t206 82.5q86 0 152.5 -44t154.5 -155zM616 543
q-82 108 -130 146t-111 38q-77 0 -122.5 -49.5t-45.5 -128.5q0 -80 45 -131t119 -51q66 0 122 41t123 135zM748 547q74 -99 129 -140.5t116 -41.5q71 0 117.5 52t46.5 128q0 79 -43.5 129.5t-114.5 50.5q-122 0 -251 -178z" />
    <glyph glyph-name="integral" unicode="&#x222b;" horiz-adv-x="792" 
d="M72 -203h12q34 -112 129 -112q121 0 121 202q0 93 -4 195l-41 831q-4 144 -4 160q0 157 74 245.5t219 88.5q165 0 165 -59q0 -60 -14 -131h-12q-41 120 -129 120q-69 0 -99 -43t-30 -147q0 -54 4 -148l43 -876q4 -152 4 -191q0 -147 -82 -232t-223 -85q-65 0 -105 12
q-45 15 -45 60q0 23 17 110z" />
    <glyph glyph-name="approxequal" unicode="&#x2248;" horiz-adv-x="1302" 
d="M238 602l-88 78q144 197 296 197q79 0 238 -93q111 -63 176 -63q56 0 102 33.5t101 117.5l90 -73q-132 -203 -295 -203q-82 0 -211 72q-137 82 -203 82q-111 0 -206 -148zM238 240l-88 75q141 197 296 197q82 0 238 -90q115 -68 176 -68q54 0 100 35t103 121l90 -74
q-129 -203 -295 -203q-88 0 -211 72q-143 82 -203 82q-107 0 -206 -147z" />
    <glyph glyph-name="notequal" unicode="&#x2260;" horiz-adv-x="1302" 
d="M586 309l-140 -289h-104l141 289h-299v121h357l121 252h-478v119h535l133 272h102l-131 -272h295v-119h-354l-121 -252h475v-121h-532z" />
    <glyph glyph-name="lessequal" unicode="&#x2264;" horiz-adv-x="1302" 
d="M1055 383v-141l-826 383v116l826 389v-135l-690 -309zM1055 119v-119h-826v119h826z" />
    <glyph glyph-name="greaterequal" unicode="&#x2265;" horiz-adv-x="1302" 
d="M250 991v139l827 -378v-119l-827 -391v139l690 309zM1077 119v-119h-827v119h827z" />
    <glyph glyph-name="lozenge" unicode="&#x25ca;" horiz-adv-x="1302" 
d="M260 666l330 667h131l321 -665l-325 -668h-127zM653 1202l-258 -536l258 -537l256 537z" />
    <glyph glyph-name="commaaccent" unicode="&#xf6c3;" horiz-adv-x="423" 
d="M88 -537l-8 15q145 103 145 196q0 40 -39 66q-51 26 -51 80q0 37 26.5 61.5t69.5 24.5q56 0 87.5 -36.5t31.5 -102.5q0 -87 -72.5 -169.5t-189.5 -134.5z" />
    <glyph glyph-name="s_t" unicode="&#xfb06;" horiz-adv-x="1468" 
d="M115 256h12q29 -97 111 -158q71 -53 174 -53q96 0 149 45.5t53 116.5q0 63 -45 102q-50 44 -178 109l-78 39q-108 52 -152 115t-44 149q0 119 92 205q95 86 295 86q79 0 123 -13q-84 72 -84 170q0 246 344 246q79 0 172 -22q92 -21 139 -56v-352h217v-84h-217v-602
q0 -95 6 -129q18 -104 117 -104q71 0 135 34l6 -6q-87 -112 -233 -112q-180 0 -201 161q-6 59 -6 154v604h-145v37q113 26 161 74q76 70 88 303q-79 33 -235 33q-128 0 -194 -54.5t-66 -150.5q0 -101 55 -156q8 -2 37 -14q25 -13 25 -47q0 -49 -31 -164h-12
q-24 96 -74.5 137t-157.5 41q-100 0 -153.5 -43t-53.5 -113q0 -61 40.5 -101.5t150.5 -90.5l75 -37q134 -66 185 -130t51 -157q0 -119 -90 -209q-89 -86 -283 -86q-139 0 -235 47q-60 28 -60 78q0 90 15 158z" />
    <glyph glyph-name="CR.001" horiz-adv-x="681" 
 />
    <glyph glyph-name="Dotlessi" horiz-adv-x="661" 
d="M590 10v-10h-475v10q90 21 116 64q23 41 23 190v844q0 148 -23 186q-24 38 -116 62v10h475v-10q-94 -21 -115 -56q-26 -39 -26 -190v-848q0 -148 26 -190q24 -40 115 -62z" />
    <glyph glyph-name="Euro.denominator" horiz-adv-x="882" 
d="M641 346v-47h-274q35 -262 243 -262q82 0 133 45q36 32 60 82h10q-3 -77 -10 -109q-6 -25 -47 -43q-64 -28 -176 -28q-152 0 -244 80.5t-115 234.5h-112v47h108q-2 10 -2 55q0 52 2 66h-108v45h114q26 147 123.5 225t255.5 78q103 0 164 -22q41 -15 41 -43
q0 -46 -19 -127h-12q-12 59 -41 92q-36 45 -135 45q-203 0 -233 -248h274v-45h-279q-2 -12 -2 -57q0 -50 2 -64h279z" />
    <glyph glyph-name="Euro.numerator" horiz-adv-x="882" 
d="M641 879v-48h-274q35 -262 243 -262q82 0 133 45q36 32 60 82h10q-3 -74 -10 -106q-10 -31 -47 -45q-72 -29 -176 -29q-152 0 -244 80.5t-115 234.5h-112v48h108q-2 10 -2 55q0 51 2 65h-108v45h114q26 147 123.5 225.5t255.5 78.5q100 0 164 -23q41 -15 41 -43
q0 -46 -19 -127h-12q-12 59 -41 92q-36 45 -135 45q-203 0 -233 -248h274v-45h-279q-2 -12 -2 -57q0 -49 2 -63h279z" />
    <glyph glyph-name="Euro.oldstyle" horiz-adv-x="1325" 
d="M973 522v-63h-443q29 -202 129 -308t263 -106q121 0 200 64q63 51 101 135h14q-3 -101 -18 -160q-9 -40 -70 -68q-93 -43 -270 -43q-237 0 -376.5 123.5t-174.5 362.5h-181v63h175q-1 15 -2 36t-2 35.5t-1 24.5q0 52 5 109h-175v64h185q42 229 190 351t391 122
q166 0 256 -35q62 -24 62 -66q0 -55 -29 -190h-14q-28 97 -66 141q-69 78 -215 78q-154 0 -252.5 -102.5t-124.5 -298.5h443v-64h-451q-2 -20 -2 -94q0 -65 4 -111h449z" />
    <glyph glyph-name="Kgreenlandic" horiz-adv-x="1519" 
d="M1591 1495l17 -20q-176 -129 -176 -246q0 -50 51 -76q59 -41 59 -90q0 -45 -30.5 -76t-77.5 -31q-62 0 -98 44t-36 122q0 103 78 201.5t213 171.5zM590 10v-10h-475v10q87 21 116 64q23 41 23 190v844q0 144 -23 188q-28 39 -116 60v10h475v-10q-94 -22 -115 -56
q-26 -39 -26 -190v-440q147 141 403 440q96 113 96 168q0 51 -114 78v10h430v-10q-60 -21 -105 -56q-39 -31 -123 -118l-348 -377q273 -396 369 -520q109 -141 184 -205q39 -34 123 -64v-12q-71 -8 -227 -8q-68 0 -109.5 20.5t-85.5 77.5q-124 159 -395 582l-98 -98v-318
q0 -146 26 -188q21 -38 115 -62z" />
    <glyph glyph-name="S_S" horiz-adv-x="2154" 
d="M1200 309h12q27 -108 111 -180q94 -82 250 -82q140 0 215.5 68.5t75.5 169.5q0 97 -58 161q-61 67 -239 154l-101 49q-262 133 -262 369q0 159 119 266q121 109 363 109q152 0 243 -31q41 -14 54.5 -27.5t13.5 -42.5q0 -54 -33 -192h-12q-30 111 -88 160q-68 59 -205 59
q-139 0 -215 -65.5t-76 -172.5q0 -82 49 -143q54 -63 209 -139l96 -47q169 -80 239.5 -170.5t70.5 -212.5q0 -180 -126.5 -288t-351.5 -108q-197 0 -307 64q-63 37 -63 84q0 82 16 188zM131 309h12q27 -108 111 -180q94 -82 250 -82q140 0 215.5 68.5t75.5 169.5
q0 97 -58 161q-61 67 -239 154l-101 49q-262 133 -262 369q0 159 119 266q121 109 362 109q153 0 244 -31q41 -14 54.5 -27.5t13.5 -42.5q0 -54 -33 -192h-12q-30 111 -88 160q-68 59 -205 59q-139 0 -215 -65.5t-76 -172.5q0 -82 49 -143q54 -63 209 -139l96 -47
q169 -80 239.5 -170.5t70.5 -212.5q0 -180 -126.5 -288t-351.5 -108q-197 0 -307 64q-63 37 -63 84q0 82 16 188z" />
    <glyph glyph-name="T_h" horiz-adv-x="2316" 
d="M850 10v-10h-479v10q90 21 116 64q23 38 23 190v965q0 35 -11.5 48t-43.5 13h-105q-88 0 -143 -12q-78 -18 -137 -201h-13q-10 163 -10 242q0 30 7 38.5t36 8.5h1172q139 80 184 80q20 0 26.5 -8.5t6.5 -36.5q0 -106 -6 -592q41 93 139 149t219 56q217 0 266 -168
q23 -77 23 -238v-350q0 -153 26 -192q23 -33 103 -58v-8h-422v8q74 25 94 64q23 38 23 186v326q0 198 -50 254q-52 61 -153 61q-123 0 -195 -57q-39 -29 -61 -90q-12 -37 -12 -113v-393q0 -144 24 -178q25 -39 102 -60v-8h-419v8q72 27 94 62q24 41 24 172v925
q0 56 -12.5 78t-48.5 33q-43 12 -152 12h-319q-35 0 -47 -12.5t-12 -48.5v-969q0 -155 26 -188q24 -38 117 -62z" />
    <glyph glyph-name="Tcaron_h" horiz-adv-x="2316" 
d="M850 10v-10h-479v10q90 21 116 64q23 38 23 190v965q0 35 -11.5 48t-43.5 13h-105q-88 0 -143 -12q-78 -18 -137 -201h-13q-10 163 -10 242q0 30 7 38.5t36 8.5h1172q139 80 184 80q20 0 26.5 -8.5t6.5 -36.5q0 -106 -6 -592q41 93 139 149t219 56q217 0 266 -168
q23 -77 23 -238v-350q0 -153 26 -192q23 -33 103 -58v-8h-422v8q74 25 94 64q23 38 23 186v326q0 198 -50 254q-52 61 -153 61q-123 0 -195 -57q-39 -29 -61 -90q-12 -37 -12 -113v-393q0 -144 24 -178q25 -39 102 -60v-8h-419v8q72 27 94 62q24 41 24 172v925
q0 56 -12.5 78t-48.5 33q-43 12 -152 12h-319q-35 0 -47 -12.5t-12 -48.5v-969q0 -155 26 -188q24 -38 117 -62zM530 1520l-223 254l8 10l295 -162l289 162l8 -8l-227 -260q-33 -39 -76 -39q-34 0 -74 43z" />
    <glyph glyph-name="a.sc" horiz-adv-x="1103" 
d="M326 10v-10h-320v10q41 6 70 35q38 33 69 111l254 649q57 140 93 239h126l50 -133l39 -98l247 -649q29 -80 62 -113q26 -26 82 -41v-10h-422v10q44 8 82 31q20 11 20 45q0 27 -20 80l-74 199h-375l-71 -199q-21 -56 -21 -88q0 -26 31 -41q36 -19 78 -27zM332 430h327
q-156 437 -159 451q-23 -70 -168 -451z" />
    <glyph glyph-name="a.superior" horiz-adv-x="675" 
d="M430 627q-53 -109 -188 -109q-84 0 -134.5 45.5t-50.5 118.5q0 100 115 135q73 19 188 33q49 6 58 18q6 9 6 35v29q0 69 -29 98q-35 35 -102 35q-114 0 -180 -66l-7 2q-2 6 -2 21q0 48 67 83.5t163 35.5q215 0 215 -195q0 -55 -2 -123v-155q0 -54 15 -73.5t52 -19.5
q12 0 37 5l4 -7q-51 -51 -120 -51q-96 0 -105 105zM424 709v112q-13 -6 -45 -10q-102 -17 -139 -33q-56 -21 -56 -86q0 -48 30 -75t79 -27q51 0 90 26q26 16 35 43q6 15 6 50z" />
    <glyph glyph-name="aacute.sc" horiz-adv-x="1103" 
d="M326 10v-10h-320v10q41 6 70 35q38 33 69 111l254 649q57 140 93 239h126l50 -133l39 -98l247 -649q29 -80 62 -113q26 -26 82 -41v-10h-422v10q44 8 82 31q20 11 20 45q0 27 -20 80l-74 199h-375l-71 -199q-21 -56 -21 -88q0 -26 31 -41q36 -19 78 -27zM332 430h327
q-156 437 -159 451q-23 -70 -168 -451zM768 1405l-283 -240l-10 11l180 321q38 66 86 66q33 0 56.5 -19.5t23.5 -50.5q0 -41 -53 -88z" />
    <glyph glyph-name="abreve.sc" horiz-adv-x="1103" 
d="M326 10v-10h-320v10q41 6 70 35q38 33 69 111l254 649q57 140 93 239h126l50 -133l39 -98l247 -649q29 -80 62 -113q26 -26 82 -41v-10h-422v10q44 8 82 31q20 11 20 45q0 27 -20 80l-74 199h-375l-71 -199q-21 -56 -21 -88q0 -26 31 -41q36 -19 78 -27zM332 430h327
q-156 437 -159 451q-23 -70 -168 -451zM799 1464l12 -2q-15 -284 -260 -284q-244 0 -244 286l15 2q21 -86 72.5 -126t156.5 -40t160.5 39t87.5 125z" />
    <glyph glyph-name="acircumflex.sc" horiz-adv-x="1103" 
d="M326 10v-10h-320v10q41 6 70 35q38 33 69 111l254 649q57 140 93 239h126l50 -133l39 -98l247 -649q29 -80 62 -113q26 -26 82 -41v-10h-422v10q44 8 82 31q20 11 20 45q0 27 -20 80l-74 199h-375l-71 -199q-21 -56 -21 -88q0 -26 31 -41q36 -19 78 -27zM332 430h327
q-156 437 -159 451q-23 -70 -168 -451zM633 1460l203 -286l-9 -9l-274 193l-266 -193l-8 9l206 288q35 47 74 47q37 0 74 -49z" />
    <glyph glyph-name="acute.cap" horiz-adv-x="444" 
d="M354 1659l-336 -174l-8 12l252 275q45 51 86 51q34 0 58 -21t24 -55q0 -51 -76 -88z" />
    <glyph glyph-name="acute.sc" horiz-adv-x="442" 
d="M340 1405l-283 -240l-10 11l180 321q38 66 86 66q33 0 56.5 -19.5t23.5 -50.5q0 -41 -53 -88z" />
    <glyph glyph-name="adieresis.sc" horiz-adv-x="1103" 
d="M326 10v-10h-320v10q41 6 70 35q38 33 69 111l254 649q57 140 93 239h126l50 -133l39 -98l247 -649q29 -80 62 -113q26 -26 82 -41v-10h-422v10q44 8 82 31q20 11 20 45q0 27 -20 80l-74 199h-375l-71 -199q-21 -56 -21 -88q0 -26 31 -41q36 -19 78 -27zM332 430h327
q-156 437 -159 451q-23 -70 -168 -451zM381 1225q-42 0 -69 27t-27 69q-4 33 14.5 58.5t45.5 35.5t57.5 5t48.5 -27q21 -21 25.5 -52t-5.5 -58t-34.5 -44.5t-55.5 -13.5zM817 1321q6 -59 -45 -83.5t-102 0t-45 83.5q0 44 27 72t71 28q41 0 67.5 -28t26.5 -72z" />
    <glyph glyph-name="ae.sc" horiz-adv-x="1572" 
d="M338 10v-10h-338v10q50 11 86 43q37 34 86 101l516 727q43 58 43 90q0 37 -100 63v10h790q26 0 34.5 -7.5t8.5 -30.5q0 -88 -12 -179h-12q-40 131 -94 146q-27 8 -111 8h-168q-26 0 -35.5 -10t-9.5 -35v-356h129q94 0 133 8q36 7 55 31.5t33 76.5h12v-299h-12
q-28 97 -104 109q-46 6 -115 6h-131v-371q0 -44 16 -62t62 -18h182q98 0 139 35q42 36 88 140h11q0 -102 -13 -195q-5 -27 -14 -34t-39 -7h-727v10q71 22 90 41q25 25 25 127v191h-422l-129 -191q-53 -80 -53 -108q0 -26 24 -35q33 -14 76 -25zM463 430h379v543
q-13 -22 -379 -543z" />
    <glyph glyph-name="aeacute.sc" horiz-adv-x="1572" 
d="M338 10v-10h-338v10q50 11 86 43q37 34 86 101l516 727q43 58 43 90q0 37 -100 63v10h790q26 0 34.5 -7.5t8.5 -30.5q0 -88 -12 -179h-12q-40 131 -94 146q-27 8 -111 8h-168q-26 0 -35.5 -10t-9.5 -35v-356h129q94 0 133 8q36 7 55 31.5t33 76.5h12v-299h-12
q-28 97 -104 109q-46 6 -115 6h-131v-371q0 -44 16 -62t62 -18h182q98 0 139 35q42 36 88 140h11q0 -102 -13 -195q-5 -27 -14 -34t-39 -7h-727v10q71 22 90 41q25 25 25 127v191h-422l-129 -191q-53 -80 -53 -108q0 -26 24 -35q33 -14 76 -25zM463 430h379v543
q-13 -22 -379 -543zM1276 1405l-283 -240l-10 11l180 321q38 66 86 66q33 0 56.5 -19.5t23.5 -50.5q0 -41 -53 -88z" />
    </font>
</defs>
</svg>
