<?xml version="1.0" standalone="no"?>
<!DOCTYPE svg PUBLIC "-//W3C//DTD SVG 1.1//EN" "http://www.w3.org/Graphics/SVG/1.1/DTD/svg11.dtd" >
<svg xmlns="http://www.w3.org/2000/svg" xmlns:xlink="http://www.w3.org/1999/xlink" version="1.1">
<metadata>
Created by FontForge 20201107 at Mon Jun 16 13:58:35 2025
 By 
Copyright (c) 2018 by Dieter Hofrichter. Alle Rechte vorbehalten. |DCNT
</metadata>
<defs>
<font id="Candide-BoldItalic" horiz-adv-x="741" >
  <font-face 
    font-family="Candide"
    font-weight="700"
    font-style="italic"
    font-stretch="normal"
    units-per-em="2048"
    panose-1="2 0 8 3 8 0 0 9 0 4"
    ascent="1538"
    descent="-510"
    x-height="985"
    cap-height="1366"
    bbox="-408 -551 2415 1997"
    underline-thickness="102"
    underline-position="-204"
    slope="-11"
    unicode-range="U+000D-FB06"
  />
<missing-glyph horiz-adv-x="999" 
d="M993 0h-987v1382h987v-1382zM164 1284l336 -504l336 504h-672zM895 1194l-338 -502l338 -504v1006zM500 602l-336 -504h672zM440 692l-336 502v-1006z" />
    <glyph glyph-name="f_f" unicode="ff" horiz-adv-x="1277" 
d="M-281 -213h15q19 -79 61.5 -124.5t87.5 -45.5q70 0 107 70q51 99 110 430l136 764h-136l13 55q97 26 120 55q20 26 48 105q46 125 125 204q106 109 303 109q79 0 125 -16q45 -15 45 -50q0 -60 -48 -178h-14q-34 172 -125 172q-78 0 -119 -96q-24 -59 -45 -186l-10 -72
h234q59 0 84 25q21 21 47 98q58 154 141 231q115 109 319 109q72 0 136 -23q45 -20 45 -53q0 -57 -49 -194h-15q-46 196 -155 196q-74 0 -115 -65q-38 -53 -62 -260l-8 -64h199l-19 -102h-198l-90 -512q-57 -323 -131 -482q-65 -146 -175 -225.5t-241 -79.5q-91 0 -135 23
q-33 17 -33 57q0 58 27 141h14q46 -149 149 -149q65 0 109 72q55 96 113 430l127 725h-334l-99 -551q-57 -323 -131 -482q-65 -144 -179 -224.5t-245 -80.5q-86 0 -127 21q-30 15 -30 55q0 62 28 168z" />
    <glyph glyph-name="fi" unicode="fi" horiz-adv-x="1216" 
d="M-293 -215h12q46 -168 150 -168q81 0 121 70q51 92 110 428l136 766h-136l13 55q96 27 116 53q11 14 60 133q62 152 155 224q126 100 365 100q137 0 217 -27q43 -12 43 -51q0 -71 -47 -223h-31q-43 225 -209 225q-112 0 -170 -67q-58 -64 -88 -277l-6 -43h328
q130 31 180 31q41 0 55.5 -14.5t14.5 -51.5q0 -31 -37 -213l-80 -393q-33 -156 -33 -207q0 -53 64 -53q10 0 71 6l2 -12q-66 -40 -153 -66q-88 -26 -164 -26q-100 0 -100 94q0 42 34 196l76 342q35 161 35 220q0 26 -16 36q-15 9 -60 9h-233l-99 -547q-59 -325 -131 -484
q-65 -144 -180 -225.5t-246 -81.5q-89 0 -137 25q-33 17 -33 57q0 84 31 160z" />
    <glyph glyph-name="fl" unicode="fl" horiz-adv-x="1226" 
d="M-293 -215h12q46 -168 150 -168q81 0 121 70q51 91 110 430l136 764h-136l13 55q96 27 116 53q13 13 52 119q52 148 151 231q125 107 361 107q97 0 161 -31q108 31 185 31q36 0 47.5 -12.5t11.5 -49.5q0 -38 -35 -210l-172 -836q-30 -153 -30 -203q0 -53 61 -53
q12 0 74 6l2 -12q-65 -38 -155.5 -65t-160.5 -27q-100 0 -100 92q0 77 27 209l133 608q61 277 61 367q0 112 -141 112q-97 0 -154 -69q-53 -71 -80 -246l-10 -74h207l-18 -102h-205l-96 -545q-59 -323 -134 -490q-65 -144 -179.5 -223.5t-246.5 -79.5q-89 0 -137 25
q-33 17 -33 57q0 84 31 160z" />
    <glyph glyph-name="f_f_i" unicode="ffi" horiz-adv-x="1816" 
d="M-281 -213h15q19 -79 61.5 -124.5t87.5 -45.5q70 0 107 70q51 99 110 430l136 764h-136l13 55q97 26 120 55q20 26 48 105q49 128 125 204q106 109 303 109q79 0 125 -16q45 -15 45 -50q0 -60 -48 -178h-14q-37 172 -125 172q-89 0 -119 -96q-29 -92 -43 -184l-12 -74
h234q59 0 84 25q19 19 49 96q65 173 162 242q135 100 364 100q137 0 217 -27q43 -12 43 -51q0 -71 -47 -223h-31q-43 225 -209 225q-109 0 -170 -67q-58 -67 -88 -277l-6 -43h328q114 21 178 21q41 0 55 -17q15 -15 15 -47q0 -34 -37 -213l-80 -383q-31 -155 -31 -209
q0 -53 62 -53q11 0 73 6l3 -12q-70 -41 -156 -66q-85 -26 -162 -26q-102 0 -102 94q0 23 37 196l73 340q37 167 37 222q0 29 -20 38q-17 7 -56 7h-235l-90 -512q-57 -323 -131 -482q-66 -145 -176.5 -225t-241.5 -80q-94 0 -135 23q-31 19 -31 61q0 54 27 137h14
q46 -149 149 -149q65 0 109 72q55 96 113 430l127 725h-334l-99 -551q-56 -317 -131 -480q-65 -144 -179.5 -225.5t-244.5 -81.5q-86 0 -127 21q-30 15 -30 55q0 65 28 168z" />
    <glyph glyph-name="f_f_l" unicode="ffl" horiz-adv-x="1828" 
d="M-281 -213h15q19 -79 61.5 -124.5t87.5 -45.5q66 0 107 68q51 100 110 432l136 764h-136l13 55q97 26 120 55q20 26 48 105q46 125 125 204q103 109 303 109q76 0 122 -16q48 -15 48 -50q0 -60 -48 -178h-14q-20 92 -50 132t-75 40q-84 0 -119 -96q-30 -90 -45 -186
l-10 -72h234q59 0 84 25q21 21 47 98q61 162 151 235q126 105 350 105q105 0 172 -31q105 31 185 31q36 0 47.5 -12.5t11.5 -49.5q0 -43 -37 -210l-172 -836q-28 -149 -28 -203q0 -53 59 -53q18 0 74 6l2 -12q-63 -38 -153.5 -65t-160.5 -27q-102 0 -102 92q0 57 29 205
l133 612q61 277 61 367q0 112 -141 112q-103 0 -154 -69q-53 -65 -80 -246l-10 -74h207l-18 -102h-207l-90 -512q-57 -317 -131 -482q-65 -146 -175 -225.5t-241 -79.5q-96 0 -137 23q-31 19 -31 61q0 54 27 137h14q46 -149 149 -149q69 0 109 70q55 96 113 432l127 725
h-334l-99 -551q-57 -323 -131 -482q-65 -141 -180 -223t-244 -82q-86 0 -127 21q-30 15 -30 55q0 65 28 168z" />
    <glyph glyph-name="f_b" unicode="fb" horiz-adv-x="1753" 
d="M-281 -213h15q20 -79 61.5 -124.5t87.5 -45.5q70 0 107 70q57 106 110 430l133 764h-133l11 55q99 28 118 53q21 29 52 119q53 153 151 231q122 107 359 107q97 0 161 -31q112 31 181 31q38 0 49.5 -12t11.5 -48q0 -49 -33 -192q-64 -280 -121 -502q71 148 195 234
t233 86q105 0 147 -55.5t42 -200.5q0 -147 -62 -336q-59 -189 -163 -293q-72 -72 -175.5 -113t-209.5 -41q-234 0 -408 82q26 42 39 99q16 66 67 297l95 444q59 278 59 369q0 108 -137 108q-105 0 -154 -67q-54 -69 -82 -248l-10 -74h207l-16 -100h-207l-97 -547
q-56 -323 -131 -486q-65 -144 -179.5 -225.5t-244.5 -81.5q-86 0 -127 21q-30 15 -30 55q0 65 28 168zM938 119q0 -27 25 -43q32 -19 94 -19q104 0 172 109q49 76 96 268q47 193 47 283q0 74 -20.5 101.5t-61.5 27.5q-62 0 -136 -71.5t-116 -192.5q-26 -66 -43 -154
l-37 -164q-20 -81 -20 -145z" />
    <glyph glyph-name="f_f_b" unicode="ffb" horiz-adv-x="2353" 
d="M1540 119q0 -27 25 -43q32 -19 94 -19q105 0 170 109q49 76 96 268q49 189 49 283q0 74 -20.5 101.5t-61.5 27.5q-62 0 -135.5 -71t-118.5 -193q-28 -82 -41 -154l-36 -164q-21 -85 -21 -145zM-281 -213h15q19 -79 61.5 -124.5t87.5 -45.5q70 0 107 70q51 99 110 430
l136 764h-136l13 55q97 26 120 55q20 26 48 105q46 125 125 204q106 109 303 109q79 0 125 -16q45 -15 45 -50q0 -60 -48 -178h-14q-20 91 -50 131.5t-75 40.5q-89 0 -119 -96q-27 -75 -45 -186l-10 -72h234q59 0 84 25q21 21 47 98q60 159 151 233q125 107 359 107
q96 0 163 -31q108 31 181 31q37 0 49 -12t12 -48q0 -31 -35 -192q-70 -306 -121 -502q72 146 195 232q122 88 234 88q106 0 147 -55t41 -201q0 -150 -61 -336q-58 -187 -164 -293q-69 -72 -172.5 -113t-212.5 -41q-231 0 -408 82q28 46 41 99q26 105 68 297l94 444
q59 281 59 367q0 61 -34 85.5t-105 24.5q-101 0 -152 -69q-55 -70 -82 -246l-10 -74h207l-18 -102h-207l-90 -512q-57 -323 -131 -482q-66 -145 -176.5 -225t-241.5 -80q-94 0 -135 23q-31 19 -31 61q0 54 27 137h14q46 -149 149 -149q65 0 109 72q55 96 113 430l127 725
h-334l-99 -551q-57 -323 -131 -482q-65 -141 -180 -223t-244 -82q-86 0 -127 21q-30 15 -30 55q0 65 28 168z" />
    <glyph glyph-name="f_f_h" unicode="ffh" horiz-adv-x="2344" 
d="M-281 -213h15q19 -79 61.5 -124.5t87.5 -45.5q70 0 107 70q51 99 110 430l136 764h-136l13 55q97 26 120 55q20 26 48 105q46 125 125 204q106 109 303 109q79 0 125 -16q45 -15 45 -50q0 -60 -48 -178h-14q-20 92 -50 132t-75 40q-89 0 -119 -96q-27 -75 -45 -186
l-10 -72h234q59 0 84 25q21 21 47 98q60 159 151 233q125 107 359 107q96 0 163 -31q108 31 179 31q38 0 50.5 -11t12.5 -44q0 -38 -33 -187q-78 -348 -123 -520q58 125 175 227q119 101 251 101q77 0 111.5 -30.5t34.5 -107.5q0 -83 -98 -536q-33 -135 -33 -201
q0 -55 67 -55q6 0 68 6l2 -12q-64 -39 -154.5 -65.5t-162.5 -26.5q-91 0 -91 92q0 56 33 194q103 468 103 516q0 62 -54 62q-47 0 -108 -47t-103 -113q-48 -80 -73 -205l-103 -483h-254l191 897q59 287 59 365q0 60 -34.5 85t-104.5 25q-101 0 -152 -69q-55 -70 -82 -246
l-10 -74h207l-18 -102h-207l-90 -512q-57 -323 -131 -482q-66 -145 -176.5 -225t-241.5 -80q-94 0 -135 23q-31 19 -31 61q0 54 27 137h14q46 -149 149 -149q65 0 109 72q55 96 113 430l127 725h-334l-99 -551q-56 -317 -131 -480q-65 -144 -179.5 -225.5t-244.5 -81.5
q-86 0 -127 21q-30 15 -30 55q0 65 28 168z" />
    <glyph glyph-name="f_f_j" unicode="ffj" horiz-adv-x="1777" 
d="M-281 -213h15q19 -79 61.5 -124.5t87.5 -45.5q70 0 107 70q51 99 110 430l136 764h-136l13 55q97 26 120 55q20 26 48 105q46 125 125 204q106 109 303 109q79 0 125 -16q45 -15 45 -50q0 -60 -48 -178h-14q-34 172 -125 172q-89 0 -119 -96q-27 -75 -45 -186l-10 -72
h234q59 0 84 25q21 21 47 98q62 164 164 244q131 96 364 96q137 0 217 -27q43 -12 43 -51q0 -71 -47 -223h-31q-43 225 -209 225q-109 0 -170 -67q-58 -67 -88 -277l-6 -43h324q120 21 180 21q42 0 57 -15t15 -49q0 -7 -97 -537q-56 -301 -98 -421q-44 -132 -98 -197
q-129 -170 -338 -170q-63 0 -107 23q-34 18 -34 53t28 141h15q22 -79 50 -110t68 -31q61 0 95 57q52 88 141 559l57 297q33 174 33 223q0 32 -22 45q-15 9 -60 9h-227l-94 -525q-59 -327 -129 -481q-66 -145 -176.5 -225t-241.5 -80q-96 0 -135 22q-33 17 -33 62
q0 49 31 147h14q46 -159 145 -159q65 0 109 71q55 96 113 430l131 738h-334l-99 -551q-56 -317 -131 -480q-65 -144 -179.5 -225.5t-244.5 -81.5q-86 0 -127 21q-30 15 -30 55q0 65 28 168z" />
    <glyph glyph-name="f_f_k" unicode="ffk" horiz-adv-x="2316" 
d="M-281 -213h15q19 -79 61.5 -124.5t87.5 -45.5q70 0 107 70q51 99 110 430l136 764h-136l13 55q97 26 120 55q20 26 48 105q46 125 125 204q106 109 303 109q79 0 125 -16q45 -15 45 -50q0 -60 -48 -178h-14q-34 172 -125 172q-89 0 -119 -96q-27 -75 -45 -186l-10 -72
h234q59 0 84 25q21 21 47 100q56 151 151 231q125 107 359 107q96 0 163 -31q108 31 179 31q38 0 50.5 -12.5t12.5 -49.5q0 -44 -39 -210q-102 -434 -117 -488q46 112 162 219q117 105 248 105q193 0 193 -176q0 -99 -84.5 -184.5t-243.5 -145.5q120 -253 151 -305
q31 -57 58 -84q33 -39 80 -39q36 0 51 6l4 -10q-45 -38 -125 -68.5t-154 -30.5q-94 0 -141 86q-24 46 -155 381q-68 -10 -87 -10l-94 -430h-254l193 897q59 278 59 369q0 106 -139 106q-101 0 -152 -69q-55 -70 -82 -246l-10 -74h207l-18 -102h-207l-90 -512
q-57 -323 -131 -482q-66 -145 -176.5 -225t-241.5 -80q-94 0 -135 23q-31 19 -31 61q0 54 27 137h14q46 -149 149 -149q65 0 109 72q55 96 113 430l127 725h-334l-99 -551q-56 -317 -131 -480q-65 -144 -179.5 -225.5t-244.5 -81.5q-86 0 -127 21q-30 15 -30 55q0 65 28 168
zM1618 539l-14 -68q217 24 313 111q94 88 94 196q0 40 -25 64t-63 24q-98 0 -188 -106q-91 -108 -117 -221z" />
    <glyph glyph-name="f_h" unicode="fh" horiz-adv-x="1744" 
d="M-279 -213h15q18 -79 59.5 -124.5t87.5 -45.5q69 0 109 70q54 105 110 430l134 764h-136l13 55q96 27 116 53q13 13 52 119q52 148 151 231q125 107 361 107q94 0 161 -31q108 31 181 31q38 0 49.5 -10t11.5 -45q0 -57 -33 -189q-78 -341 -123 -518q57 122 177 227
q119 101 249 101q77 0 111.5 -30.5t34.5 -107.5q0 -91 -99 -536q-30 -150 -30 -201q0 -55 65 -55q9 0 70 6l2 -12q-157 -92 -320 -92q-90 0 -90 92q0 39 35 194q101 450 101 516q0 62 -52 62q-49 0 -111 -47t-100 -113q-49 -77 -75 -205l-101 -483h-256l191 897
q59 287 59 367q0 108 -139 108q-101 0 -152 -69q-55 -70 -82 -246l-10 -74h207l-18 -102h-205l-96 -545q-62 -335 -132 -488q-65 -141 -180 -223t-244 -82q-86 0 -126 21q-31 16 -31 55q0 79 28 168z" />
    <glyph glyph-name="f_j" unicode="fj" horiz-adv-x="1173" 
d="M-293 -215h12q46 -168 150 -168q81 0 121 70q51 91 110 430l136 764h-136l13 55q96 27 116 53q11 14 60 133q62 152 155 224q126 100 365 100q137 0 217 -27q43 -12 43 -51q0 -71 -47 -223h-31q-43 225 -209 225q-112 0 -170 -67q-58 -64 -88 -277l-6 -43h322
q120 21 180 21q42 0 57 -15t15 -49q0 -7 -97 -537q-56 -301 -98 -421q-44 -132 -98 -197q-129 -170 -336 -170q-63 0 -107 23q-34 18 -34 53t28 141h15q30 -141 114 -141q62 0 96 57q54 91 142 559l57 297q33 174 33 223q0 32 -23 45q-15 9 -55 9h-227l-99 -547
q-59 -325 -131 -484q-65 -144 -180 -225.5t-246 -81.5q-89 0 -137 25q-33 17 -33 57q0 84 31 160z" />
    <glyph glyph-name="f_k" unicode="fk" horiz-adv-x="1712" 
d="M-281 -213h15q20 -79 61.5 -124.5t87.5 -45.5q70 0 107 70q52 100 110 428l136 766h-136l13 55q96 27 116 53q13 13 52 119q52 148 151 231q125 107 361 107q97 0 161 -31q108 31 181 31q38 0 49.5 -12.5t11.5 -51.5q0 -50 -41 -219l-115 -479q46 112 162 219
q113 107 246 107q192 0 192 -176q0 -99 -84 -184.5t-243 -145.5q120 -253 151 -305q31 -57 58 -84q33 -39 80 -39q36 0 51 6l4 -10q-45 -38 -125 -68.5t-154 -30.5q-94 0 -141 86q-28 55 -156 381q-68 -10 -86 -10l-92 -430h-254l193 897q59 278 59 367q0 108 -139 108
q-101 0 -152 -69q-55 -70 -82 -246l-10 -74h207l-16 -102h-207l-96 -545q-57 -315 -134 -486q-65 -144 -179.5 -225.5t-244.5 -81.5q-86 0 -127 21q-30 15 -30 55q0 65 28 168zM1016 537l-15 -66q206 24 306 107t100 200q0 40 -25 64t-63 24q-99 0 -189 -106
q-91 -111 -114 -223z" />
    <glyph glyph-name=".notdef" horiz-adv-x="999" 
d="M993 0h-987v1382h987v-1382zM164 1284l336 -504l336 504h-672zM895 1194l-338 -502l338 -504v1006zM500 602l-336 -504h672zM440 692l-336 502v-1006z" />
    <glyph glyph-name=".null" horiz-adv-x="0" 
 />
    <glyph glyph-name="nonmarkingreturn" horiz-adv-x="682" 
 />
    <glyph glyph-name="NULL" horiz-adv-x="0" 
 />
    <glyph glyph-name="NULL" horiz-adv-x="0" 
 />
    <glyph glyph-name="CR" unicode="&#xd;" horiz-adv-x="413" 
 />
    <glyph glyph-name="space" unicode=" " horiz-adv-x="473" 
 />
    <glyph glyph-name="exclam" unicode="!" horiz-adv-x="565" 
d="M332 461h-27q6 117 6 250q0 141 -2 241t-2 191q0 124 39.5 186t138.5 62q140 0 140 -123q0 -59 -33 -144l-105 -264q-81 -203 -155 -399zM428 143q0 -71 -45.5 -118.5t-118.5 -47.5q-62 0 -102.5 41.5t-40.5 106.5q0 73 46 122.5t118 49.5q66 0 104.5 -42.5t38.5 -111.5z
" />
    <glyph glyph-name="quotedbl" unicode="&#x22;" horiz-adv-x="722" 
d="M408 1270l-168 -393h-31q2 53 2 225q2 98 2 194q0 71 18 121q24 58 107 58q102 0 102 -97q0 -40 -32 -108zM686 1106l-98 -229h-29q2 80 2 419q-2 85 22 128.5t103 50.5q102 0 102 -97q0 -28 -30 -108z" />
    <glyph glyph-name="numbersign" unicode="#" horiz-adv-x="1259" 
d="M403 387l-131 -422h-88l133 422h-233l31 195h264l65 206h-239l31 195h270l123 389h86l-123 -389h307l123 389h88l-123 -389h225l-30 -195h-256l-66 -206h232l-33 -195h-260l-131 -422h-88l133 422h-310zM838 788h-308l-65 -206h309z" />
    <glyph glyph-name="dollar" unicode="$" horiz-adv-x="1099" 
d="M471 -12l-35 -181h-78l33 177q-203 3 -301 67q-45 29 -45 80q0 108 33 229h14q34 -128 120 -202t198 -82l90 461l-101 63q-215 138 -215 336q0 178 125.5 284.5t347.5 125.5l39 200h78l-39 -196h17q146 0 233 -35q55 -21 55 -64q0 -23 -18 -100q-14 -69 -37 -131h-14
q-19 115 -79 172.5t-175 64.5l-84 -440l57 -37q149 -98 211 -174q66 -78 66 -200q0 -179 -136 -291t-360 -127zM711 285q0 64 -29 107.5t-113 99.5l-82 -416q112 12 168 66.5t56 142.5zM424 1065q0 -60 30 -104t109 -99l76 395q-103 -7 -159 -58t-56 -134z" />
    <glyph glyph-name="percent" unicode="%" horiz-adv-x="1732" 
d="M793 1102q0 -137 -43 -273q-43 -137 -134 -225q-94 -88 -235 -88q-254 0 -254 256q0 296 154 467q103 109 258 109q254 0 254 -246zM598 1163q0 63 -16 90t-56 27q-58 0 -102 -84q-38 -78 -74 -233q-31 -155 -31 -248q0 -67 18.5 -96t59.5 -29q30 0 51 20.5t48 73.5
q33 67 69 238q33 156 33 241zM371 -20l958 1427l78 -51l-954 -1422zM1655 569q0 -136 -43 -272q-44 -139 -133 -225q-94 -88 -236 -88q-254 0 -254 256q0 296 154 467q102 108 258 108q254 0 254 -246zM1460 631q0 62 -16.5 89.5t-57.5 27.5q-59 0 -100 -84
q-38 -81 -74 -236q-30 -147 -30 -246q0 -67 18.5 -96t59.5 -29q30 0 50 21t48 74q33 68 69 237q33 156 33 242z" />
    <glyph glyph-name="ampersand" unicode="&#x26;" horiz-adv-x="1452" 
d="M1395 160l8 -10q-97 -97 -168.5 -136t-142.5 -39q-118 0 -228 119q-157 -121 -379 -121q-231 0 -346 109q-110 107 -110 260q0 147 96.5 247t265.5 152q-84 153 -84 275q0 179 121.5 278t333.5 99q159 0 260 -37q59 -21 59 -70q0 -75 -47 -227h-12q-30 126 -86 181.5
t-162 55.5q-95 0 -151 -52.5t-56 -145.5q0 -97 90 -246q78 -125 168 -250q131 -179 187 -242q37 46 65 113q31 67 31 105q0 53 -45 79q-54 28 -88 35l2 13h463l-2 -13q-34 -5 -80 -37q-44 -36 -98 -114q-110 -164 -183 -240q134 -162 228 -162q49 0 90 21zM795 166
q-81 87 -199 254q-114 164 -166 256q-111 -70 -111 -227q0 -152 87 -242q88 -88 215 -88q97 0 174 47z" />
    <glyph glyph-name="quotesingle" unicode="'" horiz-adv-x="372" 
d="M408 1270l-170 -393h-29q2 78 2 419q0 92 26 135.5t99 43.5q102 0 102 -97q0 -28 -30 -108z" />
    <glyph glyph-name="parenleft" unicode="(" horiz-adv-x="616" 
d="M438 -248l-8 -12q-187 84 -282 263.5t-95 422.5q0 377 178 655q182 280 529 400l10 -17q-259 -134 -383 -434q-121 -301 -121 -651q0 -192 41 -373q41 -176 131 -254z" />
    <glyph glyph-name="parenright" unicode=")" horiz-adv-x="616" 
d="M193 1470l8 11q186 -83 281.5 -261.5t95.5 -422.5q0 -378 -181 -656q-177 -277 -526 -401l-10 16q176 90 295 275q114 175 162.5 375t48.5 438q0 192 -43 368q-40 179 -131 258z" />
    <glyph glyph-name="asterisk" unicode="*" horiz-adv-x="788" 
d="M471 764q-34 0 -59 19t-25 53t27 82q5 9 36.5 67t45.5 86q-21 -15 -136 -113q-43 -40 -90 -40q-37 0 -58.5 22t-21.5 55q0 72 82 84l97 6q29 1 70 5t48 4q-52 20 -110 39l-82 28q-66 28 -66 82q0 34 25.5 61t62.5 27q42 0 76 -51q1 -1 5.5 -8.5t14 -22.5t19.5 -32
q28 -44 72 -103q-1 12 -10.5 59t-10.5 60q0 5 -6 44.5t-6 55.5q0 86 80 86q86 0 86 -69q0 -26 -14 -54q-17 -39 -45 -86l-52 -102q33 24 138 113q49 45 90 45q36 0 56.5 -24t20.5 -58q0 -38 -22.5 -58t-73.5 -26q-9 -3 -198 -15q46 -19 100 -36l80 -27q80 -35 80 -82
q0 -38 -23.5 -64t-56.5 -26q-35 0 -53 12t-43 51q-5 6 -43.5 66t-59.5 88q7 -38 17.5 -92.5t16 -84.5t5.5 -42q0 -84 -86 -84z" />
    <glyph glyph-name="plus" unicode="+" horiz-adv-x="1302" 
d="M721 477l-78 -403h-162l78 403h-397l31 160h399l78 403h161l-77 -403h399l-33 -160h-399z" />
    <glyph glyph-name="comma" unicode="," horiz-adv-x="534" 
d="M-80 -342l-8 16q136 83 199 147t63 134q0 51 -53 98q-49 40 -49 103q0 67 43.5 106t115.5 39q73 0 115.5 -48t42.5 -132q0 -267 -469 -463z" />
    <glyph glyph-name="hyphen" unicode="-" horiz-adv-x="696" 
d="M623 643l-43 -205h-504l41 205h506z" />
    <glyph glyph-name="period" unicode="." horiz-adv-x="516" 
d="M334 141q0 -69 -46.5 -116.5t-119.5 -47.5q-62 0 -102.5 41.5t-40.5 104.5q0 75 45.5 123.5t119.5 48.5q67 0 105.5 -42t38.5 -112z" />
    <glyph glyph-name="slash" unicode="/" horiz-adv-x="708" 
d="M879 1464l-891 -1622l-94 45l890 1620z" />
    <glyph glyph-name="zero" unicode="0" horiz-adv-x="1140" 
d="M1116 948q0 -217 -72 -456q-70 -232 -215 -371q-154 -148 -372 -148q-208 0 -297.5 106.5t-89.5 319.5q0 229 61.5 434.5t185.5 342.5q163 184 412 184q208 0 297.5 -103t89.5 -309zM831 1073q0 105 -29 151t-97 46q-98 0 -175 -148q-68 -129 -124 -407
q-54 -281 -54 -443q0 -106 31 -156t98 -50q111 0 181 153q62 136 116 412q53 273 53 442z" />
    <glyph glyph-name="one" unicode="1" horiz-adv-x="1140" 
d="M760 14l-2 -14h-606l2 14q58 6 108 33q68 35 98 193l148 770q18 92 18 145q0 59 -73 59q-64 0 -84 -2l-2 29l489 125l12 -12q-3 -11 -13.5 -64t-37 -182.5t-51.5 -251.5l-121 -614q-16 -91 -16 -119q0 -49 33 -72q39 -28 98 -37z" />
    <glyph glyph-name="two" unicode="2" horiz-adv-x="1140" 
d="M797 0h-848l20 119q41 27 137 94q45 30 140 102q93 71 141 119q157 145 229 271q93 168 93 325q0 236 -195 236q-101 0 -169.5 -53.5t-135.5 -178.5h-14q0 132 8 187q9 58 88 88q125 51 319 51q199 0 299.5 -90t100.5 -240q0 -66 -29 -145q-32 -79 -70 -137.5
t-106 -122.5q-55 -53 -127 -113q-39 -35 -148 -109l-141 -92l-141 -84q290 0 495 9q86 3 117 28q40 31 101 121h12q-40 -262 -62 -326q-12 -33 -36 -46t-78 -13z" />
    <glyph glyph-name="three" unicode="3" horiz-adv-x="1140" 
d="M43 324h14q18 -101 90 -179q71 -77 199 -77q148 0 225 108q76 107 76 268q0 95 -50 148t-155 53h-59l23 94h73q125 0 199 80q63 69 63 254q0 193 -180 193q-108 0 -178 -51.5t-133 -176.5h-14q0 131 8 183q6 49 71 79q135 60 340 60q183 0 283 -81t100 -206
q0 -317 -381 -375q301 -37 301 -266q0 -92 -33.5 -169t-91.5 -130t-137 -89.5t-167.5 -53.5t-184.5 -17q-210 0 -317 66q-35 21 -35 65q0 68 51 220z" />
    <glyph glyph-name="four" unicode="4" horiz-adv-x="1140" 
d="M958 14l-2 -14h-600l2 14q79 15 117 41q55 37 82 160l25 127h-580l31 152l798 866h236l-88 -426l-78 -404h197l-37 -188h-199l-20 -109q-15 -67 -15 -106q0 -52 35 -76q24 -17 96 -37zM176 530h445l122 623q-115 -135 -567 -623z" />
    <glyph glyph-name="five" unicode="5" horiz-adv-x="1140" 
d="M80 324h14q9 -93 84 -177q73 -79 201 -79q147 0 220 102t73 279q0 237 -203 237q-140 0 -256 -72l-14 9l194 710h686l-47 -241h-352q-158 2 -277 2l-79 -293q85 67 282 67q173 0 277 -96.5t104 -267.5q0 -246 -168 -389q-171 -142 -436 -142q-214 0 -317 68
q-39 23 -39 61q0 77 53 222z" />
    <glyph glyph-name="six" unicode="6" horiz-adv-x="1140" 
d="M416 649q42 86 133 137.5t192 51.5q153 0 234.5 -76.5t81.5 -222.5q0 -239 -144 -402q-144 -164 -395 -164q-196 0 -300.5 112t-104.5 316q0 223 82 447q81 223 237 364q165 148 410 148q133 0 215 -31q78 -28 78 -78q0 -76 -52 -213h-14q-4 107 -63.5 168.5t-151.5 61.5
q-171 0 -281 -168q-92 -137 -157 -451zM385 475q-18 -102 -18 -186q0 -117 39 -170t129 -53q67 0 116.5 46t75.5 124q47 142 47 294q0 83 -39.5 131t-113.5 48q-127 0 -197 -119q-24 -43 -39 -115z" />
    <glyph glyph-name="seven" unicode="7" horiz-adv-x="1140" 
d="M1139 1198l-690 -1241l-197 37q272 496 711 1104q-136 0 -265 -2t-301 -2q-91 0 -131 -43q-38 -39 -73 -109h-13l21 168q18 129 24 158q7 41 29 53t80 12h827z" />
    <glyph glyph-name="eight" unicode="8" horiz-adv-x="1140" 
d="M788 754q113 -56 176.5 -148t63.5 -200q0 -201 -158 -316q-157 -115 -395 -115q-205 0 -311.5 90.5t-106.5 233.5q0 265 342 354q-80 51 -120.5 133t-40.5 170q0 187 135 295q139 109 352 109q183 0 277 -73.5t94 -196.5q0 -121 -74 -201.5t-234 -134.5zM453 618
q-185 -108 -185 -315q0 -116 62.5 -176.5t169.5 -60.5q123 0 185.5 64.5t62.5 184.5q0 85 -60 154q-58 70 -235 149zM731 788q84 55 131 134.5t47 154.5q0 89 -51.5 141t-144.5 52q-107 0 -163 -57t-56 -154q0 -154 237 -271z" />
    <glyph glyph-name="nine" unicode="9" horiz-adv-x="1140" 
d="M778 684q-111 -184 -327 -184q-146 0 -228 82.5t-82 224.5q0 239 138 395q140 158 389 158q202 0 306.5 -105.5t104.5 -304.5q0 -235 -75 -461q-73 -229 -224 -368q-160 -148 -415 -148q-131 0 -232 39q-80 35 -80 88q0 69 53 211h15q40 -245 252 -245q164 0 258 172
q88 153 147 446zM811 885q16 94 16 170q0 215 -161 215q-68 0 -119.5 -46.5t-78.5 -119t-39.5 -143t-12.5 -134.5q0 -85 40.5 -133.5t112.5 -48.5q133 0 197 111q30 58 45 129z" />
    <glyph glyph-name="colon" unicode=":" horiz-adv-x="557" 
d="M373 141q0 -70 -44.5 -117t-117.5 -47q-63 0 -104 41.5t-41 104.5q0 75 45.5 123.5t119.5 48.5q67 0 104.5 -42t37.5 -112zM510 829q0 -71 -45 -118t-119 -47q-62 0 -102.5 41t-40.5 106q0 73 46 122.5t118 49.5q66 0 104.5 -42.5t38.5 -111.5z" />
    <glyph glyph-name="semicolon" unicode=";" horiz-adv-x="557" 
d="M510 829q0 -71 -45 -118t-119 -47q-62 0 -102.5 41t-40.5 106q0 73 46 122.5t118 49.5q66 0 104.5 -42.5t38.5 -111.5zM-39 -342l-8 16q136 83 199 147t63 134q0 51 -53 98q-49 40 -49 105q0 67 43 105t116 38t115.5 -48t42.5 -132q0 -267 -469 -463z" />
    <glyph glyph-name="less" unicode="&#x3c;" horiz-adv-x="1302" 
d="M991 254l-33 -178l-739 399l33 164l893 397l-39 -188l-698 -299z" />
    <glyph glyph-name="equal" unicode="=" horiz-adv-x="1302" 
d="M1081 459l-30 -162h-938l30 162h938zM1153 817l-31 -160h-938l31 160h938z" />
    <glyph glyph-name="greater" unicode="&#x3e;" horiz-adv-x="1302" 
d="M285 862l34 174l734 -393l-31 -168l-889 -399l37 194l698 297z" />
    <glyph glyph-name="question" unicode="?" horiz-adv-x="786" 
d="M319 459h-28q0 33 4 127q9 88 39 141q36 54 139 139q123 99 123 256q0 187 -162 187t-239 -197h-15q0 117 8 180q6 34 23 51t55 29q107 35 244 35q201 0 293 -67t92 -210q0 -63 -18.5 -113t-61 -94.5t-96.5 -81.5t-139 -83q-157 -85 -193.5 -126.5t-61.5 -149.5
q-4 -15 -6 -23zM444 141q0 -69 -45 -116.5t-118 -47.5q-62 0 -103 41.5t-41 104.5q0 75 45 123.5t119 48.5q67 0 105 -42t38 -112z" />
    <glyph glyph-name="at" unicode="@" horiz-adv-x="1509" 
d="M1229 -23l28 -51q-238 -143 -526 -143q-292 0 -465 170q-170 170 -170 444q0 326 215 555q215 228 555 228q261 0 407 -134.5t146 -383.5q0 -125 -57 -248q-60 -130 -152 -207q-124 -103 -243 -103q-131 0 -131 115q0 83 30 160q-67 -124 -155 -196t-164 -72
q-78 0 -114 41t-36 129q0 121 70 270q73 154 174 237q101 84 254 84q157 0 270 -43q-40 -66 -145 -458q-21 -79 -21 -133q0 -52 50 -52q61 0 135 80q68 69 110.5 177t42.5 212q0 217 -123 340t-354 123q-281 0 -475 -203q-190 -202 -190 -514q0 -258 151 -403t412 -145
q142 0 245.5 29t225.5 95zM975 762q0 27 -37 39q-31 8 -70 8q-68 0 -127 -59q-59 -62 -116 -201q-54 -139 -54 -236q0 -75 54 -75q64 0 135 73t127 199q43 85 78 203q10 42 10 49z" />
    <glyph glyph-name="A" unicode="A" horiz-adv-x="1384" 
d="M293 14l-4 -14h-387l4 14q37 6 74 31q44 25 86 96l524 910l180 315h188q0 -5 46 -303l122 -852q11 -72 21.5 -102.5t32.5 -53.5q27 -27 88 -41l-2 -14h-555l2 14q62 14 94 35q39 20 39 74q0 44 -8 96l-33 246h-438l-156 -281q-37 -64 -37 -102q0 -29 27 -41
q35 -15 92 -27zM418 561h375q-52 395 -68 559q-57 -112 -307 -559z" />
    <glyph glyph-name="B" unicode="B" horiz-adv-x="1296" 
d="M580 0h-570l4 14q79 15 117 56q30 34 57 170l174 888q11 56 14 86.5t1 56t-17 39t-37 23t-63 19.5l2 14h522q206 0 312 -47q139 -65 139 -219q0 -151 -92 -240.5t-285 -132.5q162 -13 247 -91.5t85 -209.5q0 -283 -275 -383q-122 -43 -335 -43zM659 1198l-84 -434h70
q83 0 150 24q71 28 109 106.5t38 180.5q0 127 -57 166q-44 33 -127 33h-33q-31 0 -45 -16t-21 -60zM616 672h-61l-84 -443q-12 -61 -12 -94q0 -36 28 -39q46 -4 109 -4q136 0 209.5 96.5t73.5 260.5q0 155 -121 202q-50 21 -142 21z" />
    <glyph glyph-name="C" unicode="C" horiz-adv-x="1288" 
d="M1149 289l14 -2q-25 -135 -51 -197q-20 -43 -86 -65q-155 -52 -350 -52q-284 0 -431 144.5t-147 406.5t104 463.5t302 308.5q182 99 442 99q175 0 293 -47q53 -21 53 -62q0 -65 -57 -242h-14q-24 139 -78 193q-63 63 -207 63q-190 0 -318 -122q-102 -99 -155 -277
q-51 -170 -51 -354q0 -220 92 -349.5t262 -129.5q140 0 240 69q72 52 143 152z" />
    <glyph glyph-name="D" unicode="D" horiz-adv-x="1513" 
d="M651 0h-641l2 14q103 24 131 72q25 43 60 221l145 746q27 132 27 198q0 42 -24 63t-93 38l2 14h574q336 0 477 -117q162 -128 162 -381q0 -369 -191 -612q-95 -123 -257 -189.5t-374 -66.5zM637 1083l-160 -807q-16 -94 -16 -120q0 -38 28 -50q35 -18 164 -18
q107 0 194 43.5t145.5 117t98.5 174.5t58 212t18 233q0 172 -51 258q-82 150 -289 150h-30q-82 0 -111 -29q-22 -19 -49 -164z" />
    <glyph glyph-name="E" unicode="E" horiz-adv-x="1177" 
d="M952 0h-942l2 14q74 16 111 47q37 34 61 154l178 913q15 76 15 125q0 41 -25 60q-21 18 -94 39l2 14h883q47 0 47 -33q0 -41 -62 -254h-14q-21 138 -65 168q-29 19 -134 19h-182q-37 0 -52.5 -17.5t-23.5 -62.5l-86 -424h138q124 0 182 10q44 10 70 38t59 97h16l-78 -391
h-16q-5 67 -26 97t-74 40q-60 11 -152 11h-133l-84 -431q-12 -65 -12 -92q0 -43 90 -43h199q126 0 188 45q52 37 135 164h12q-20 -128 -53 -258q-7 -30 -23.5 -39.5t-56.5 -9.5z" />
    <glyph glyph-name="F" unicode="F" horiz-adv-x="1091" 
d="M608 14l-4 -14h-594l2 14q88 21 125 64q28 28 58 194l163 834q19 108 19 141q0 28 -8 47q-15 34 -111 58l2 14h875q47 0 47 -33q0 -50 -62 -254h-14q-15 149 -70 176q-33 11 -139 11h-168q-36 0 -50 -16t-22 -64l-88 -441h138q103 0 170 13q47 10 78.5 40.5t62.5 92.5h14
l-76 -389h-14q-5 64 -28 95.5t-78 41.5q-40 6 -148 6h-137l-72 -381q-18 -92 -18 -141q0 -36 32.5 -61t114.5 -48z" />
    <glyph glyph-name="G" unicode="G" horiz-adv-x="1447" 
d="M1186 23q-22 -2 -252 -31q-120 -19 -256 -19q-283 0 -431.5 146.5t-148.5 402.5q0 270 117 475q119 209 326 303q207 95 448 95q183 0 305 -43q66 -25 66 -70q0 -61 -57 -238h-15q-12 92 -55 156q-69 100 -256 100t-322 -106q-241 -186 -241 -666q0 -205 88 -333
q89 -127 254 -127q91 0 127 28q28 21 43 94l30 154q17 107 17 143q0 44 -24.5 68t-90.5 43l2 12h526l-2 -12q-53 -18 -86 -51q-28 -28 -63 -195l-29 -149q-20 -90 -20 -180z" />
    <glyph glyph-name="H" unicode="H" horiz-adv-x="1572" 
d="M1364 14l-2 -14h-565l2 14q82 18 123 62q24 31 59 192l78 396h-504l-78 -398q-20 -97 -20 -162q0 -56 118 -90l-2 -14h-563l4 14q85 22 119 62q25 32 60 192l163 824q21 105 21 163q0 42 -23 61t-94 36l2 14h561l-4 -14q-80 -20 -114 -54q-29 -26 -64 -194l-68 -342h506
l66 330q20 100 20 163q0 41 -23 60.5t-95 36.5l2 14h561l-4 -14q-80 -21 -113 -54q-37 -37 -66 -194l-161 -838q-21 -102 -21 -162q0 -56 119 -90z" />
    <glyph glyph-name="I" unicode="I" horiz-adv-x="788" 
d="M575 14l-2 -14h-563l4 14q85 22 119 62q25 32 60 192l163 826q21 105 21 161q0 42 -23 61t-94 36l2 14h563l-4 -14q-82 -20 -116 -54q-34 -30 -64 -192l-164 -840q-18 -92 -18 -155q0 -36 25.5 -58t90.5 -39z" />
    <glyph glyph-name="J" unicode="J" horiz-adv-x="780" 
d="M-156 -49h13q33 -176 139 -176q71 0 98 49q25 43 78 307l14 80l172 889q19 97 19 145q0 41 -28.5 64t-102.5 43l2 14h573l-2 -14q-82 -24 -112 -54q-30 -34 -64 -192l-164 -877q-28 -151 -61 -229q-30 -82 -88 -152q-138 -170 -355 -170q-81 0 -125 15q-40 12 -40 53
q0 102 34 205z" />
    <glyph glyph-name="K" unicode="K" horiz-adv-x="1452" 
d="M575 14l-2 -14h-563l4 14q78 14 121 64q28 36 58 190l163 826q21 105 21 161q0 38 -25 59t-94 38l2 14h565l-4 -14q-83 -21 -119 -54q-32 -32 -61 -192l-84 -422q214 183 436 399q119 116 119 177q0 65 -108 92l2 14h495l-2 -14q-81 -25 -131 -64q-50 -36 -151 -129
l-359 -336q80 -167 148 -315q56 -116 112 -217q69 -121 117 -189q34 -49 135 -79l-2 -15q-101 -14 -317 -14q-67 0 -98 20t-58 76q-9 18 -145 311l-113 252q-47 -42 -102 -80l-58 -307q-20 -97 -20 -160q0 -58 118 -92z" />
    <glyph glyph-name="L" unicode="L" horiz-adv-x="1159" 
d="M954 0h-944l2 14q80 18 111 49q39 36 59 152l170 856q25 131 25 178q0 42 -25 64t-92 39l2 14h563l-2 -14q-90 -23 -118 -54q-30 -36 -66 -211l-166 -843q-12 -71 -12 -101q0 -45 84 -45h203q120 0 184 43q63 38 141 168h14q-24 -153 -53 -260q-7 -29 -24 -39t-56 -10z
" />
    <glyph glyph-name="M" unicode="M" horiz-adv-x="1763" 
d="M383 14l-2 -14h-391v14q82 18 123 62q27 27 65 188l191 832q24 111 24 161q0 45 -35 66q-25 18 -79 29l4 14h393q38 0 51.5 -9t17.5 -40q121 -750 134 -854q153 306 456 858q14 27 28 36t46 9h389l-2 -14q-62 -14 -88 -37q-34 -29 -49 -119l-160 -936q-16 -109 -16 -147
q0 -42 41 -66q38 -21 82 -33v-14h-576l2 14q51 8 96 35q29 17 42.5 46.5t25.5 99.5q99 554 164 976l-567 -1065h-144q-150 1001 -160 1084q-18 -95 -71 -336l-88 -399q-39 -171 -43 -203q-21 -108 -21 -135q0 -35 27 -59t90 -44z" />
    <glyph glyph-name="N" unicode="N" horiz-adv-x="1519" 
d="M424 14l-2 -14h-412l4 14q86 21 121 62q31 34 60 186q46 219 151 787q29 155 29 194q0 49 -27 70q-38 27 -92 39l2 14h387q41 0 57 -31q355 -761 433 -946q67 343 131 725q12 71 12 127q0 46 -28 69.5t-97 41.5l2 14h401l-2 -14q-65 -15 -110 -56q-44 -41 -70 -192
l-217 -1118h-153l-533 1208l-162 -924q-18 -120 -18 -151q0 -38 26 -58t107 -47z" />
    <glyph glyph-name="O" unicode="O" horiz-adv-x="1425" 
d="M1384 918q0 -211 -75 -424q-78 -222 -226 -355q-86 -80 -210.5 -123t-256.5 -43q-249 0 -383.5 138.5t-134.5 386.5q0 189 72 399q73 204 221 334q89 78 218 121t261 43q514 0 514 -477zM1075 987q0 166 -52 241t-167 75q-145 0 -248 -140q-86 -116 -145 -334
q-57 -206 -57 -411q0 -180 53.5 -265t171.5 -85q154 0 243 133q95 143 146 374q55 235 55 412z" />
    <glyph glyph-name="P" unicode="P" horiz-adv-x="1288" 
d="M598 14l-2 -14h-584l2 14q91 22 121 62q25 25 60 192l163 836q19 100 19 151q0 49 -33 66q-29 19 -86 31l2 14h496q178 0 291 -25q245 -52 245 -288q0 -100 -32.5 -180.5t-88.5 -133.5t-135 -88.5t-167 -51t-189 -15.5q-68 0 -139 6l-66 -332q-18 -91 -18 -149
q0 -39 35 -60q21 -12 106 -35zM659 1194l-100 -512q54 -4 117 -4q156 0 236.5 100t80.5 275q0 138 -82 190q-50 33 -143 33h-35q-36 0 -51 -18t-23 -64z" />
    <glyph glyph-name="Q" unicode="Q" horiz-adv-x="1425" 
d="M1384 918q0 -211 -75 -424q-78 -222 -226 -355q-92 -82 -206 -121q174 -127 260 -168q98 -49 211 -49q60 0 84 9l6 -11q-177 -155 -322 -155q-117 0 -229 65q-107 64 -352 268q-210 23 -323.5 160t-113.5 361q0 189 72 399q73 204 221 334q89 78 218 121t261 43
q514 0 514 -477zM1075 987q0 166 -52 241t-167 75q-145 0 -248 -140q-86 -116 -145 -334q-57 -206 -57 -411q0 -180 53.5 -265t171.5 -85q154 0 243 133q95 143 146 374q55 235 55 412z" />
    <glyph glyph-name="R" unicode="R" horiz-adv-x="1413" 
d="M578 14l-5 -14h-563l2 14q93 21 123 62q25 28 60 192l161 836q21 102 21 151q0 38 -28 60.5t-91 36.5l4 14h494q146 0 284 -25q115 -23 179.5 -100t64.5 -190q0 -152 -97 -255t-272 -145q54 -28 103 -110q27 -46 61 -140q14 -32 37 -96l43 -106q31 -73 73 -113t114 -63
l-5 -15q-122 -16 -227 -16q-133 0 -184 39q-48 37 -101 196q-25 79 -48 149t-37.5 112.5t-16.5 50.5q-24 59 -102 59h-82l-66 -330q-20 -100 -20 -151q0 -28 12 -49q20 -33 109 -54zM657 1190l-94 -496h70q134 0 205 45q141 88 141 338q0 118 -76 164q-59 33 -137 33h-33
q-36 0 -52 -19t-24 -65z" />
    <glyph glyph-name="S" unicode="S" horiz-adv-x="1042" 
d="M80 360h16q73 -292 348 -292q137 0 204 60t67 163q0 68 -47.5 122.5t-173.5 135.5l-93 59q-217 141 -217 353q0 209 148 321.5t413 112.5q140 0 238 -39q55 -21 55 -64q0 -71 -51 -223h-14q-20 126 -82 180t-191 54q-131 0 -203.5 -56.5t-72.5 -152.5q0 -62 37 -111
t135 -115l94 -65q150 -104 211 -182q64 -82 64 -215q0 -199 -152 -318q-151 -115 -397 -115q-207 0 -316 68q-49 30 -49 86q0 57 29 233z" />
    <glyph glyph-name="T" unicode="T" horiz-adv-x="1230" 
d="M803 14l-2 -14h-570l5 14q84 20 120 62q28 36 62 205l174 876q8 36 8 68q0 41 -53 41h-60q-83 0 -139 -21q-90 -35 -188 -203h-15q20 179 43 279q6 26 17.5 35.5t36.5 9.5h1036q51 0 51 -31q0 -64 -63 -293h-15q-24 179 -110 209q-43 15 -129 15h-68q-31 0 -43.5 -11.5
t-19.5 -48.5l-181 -948q-20 -97 -20 -154q0 -34 30 -55t93 -35z" />
    <glyph glyph-name="U" unicode="U" horiz-adv-x="1497" 
d="M246 1352l2 14h565l-2 -14q-86 -19 -119 -52q-29 -29 -53 -149l-121 -619q-26 -127 -26 -235q0 -219 258 -219q178 0 278 112q82 88 123 304l119 606q18 88 18 141q0 50 -25.5 71.5t-99.5 39.5l4 14h402l-2 -14q-40 -8 -82 -27q-65 -35 -92 -180l-117 -613
q-52 -278 -141 -380q-156 -179 -482 -179q-123 0 -217 27q-100 31 -163.5 111.5t-63.5 201.5q0 81 31 256l108 553q14 71 14 138q0 37 -24 55.5t-92 36.5z" />
    <glyph glyph-name="V" unicode="V" horiz-adv-x="1341" 
d="M831 324l-176 -324h-184q-7 65 -47 303l-137 852q-21 121 -51 158q-23 23 -78 39l4 14h547l-2 -14q-57 -8 -105 -33q-39 -20 -39 -78q0 -9 10 -94q91 -601 129 -887q9 21 457 893q43 82 43 127q0 31 -28 47q-44 18 -82 25l2 14h387l-2 -14q-19 -4 -68 -29
q-29 -17 -50.5 -45.5t-64.5 -106.5z" />
    <glyph glyph-name="W" unicode="W" horiz-adv-x="1937" 
d="M571 0h-192l-21 317l-63 867q-9 99 -41 131q-21 21 -76 37l4 14h523l-3 -14q-77 -27 -92 -39q-26 -20 -26 -84q0 -13 10 -228q2 -44 9.5 -185t10.5 -224l15 -277q98 226 458 1016h183q127 -865 145 -1022q158 398 342 846q27 65 27 111q0 38 -37 59q-31 15 -76 27l2 14
h375l-2 -14q-29 -6 -64 -27q-44 -21 -90 -129l-391 -899l-129 -297h-190q-73 555 -78 590l-43 323q-4 34 -9 72.5t-5 40.5q-25 -58 -476 -1026z" />
    <glyph glyph-name="X" unicode="X" horiz-adv-x="1372" 
d="M311 14l-2 -14h-405l2 14q22 2 59 21q59 29 144 117l469 507l-250 547q-44 93 -72 115q-28 25 -70 31l2 14h537l-2 -14q-48 -14 -78 -27q-27 -15 -27 -37q0 -26 27 -90q35 -78 75.5 -164.5t62 -132t26.5 -59.5l291 346q59 68 59 102q0 26 -22 35q-29 18 -78 27l2 14h383
l-2 -14q-26 -6 -70 -33q-52 -40 -117 -113l-407 -444l287 -610q43 -96 79 -115q24 -17 54 -23l-4 -14h-541l4 14q42 6 80 27q24 12 24 41q0 35 -26 88l-187 410q-60 -65 -348 -398q-59 -71 -59 -104q0 -21 20 -35q21 -13 80 -29z" />
    <glyph glyph-name="Y" unicode="Y" horiz-adv-x="1271" 
d="M829 14l-4 -14h-575l2 14q101 21 127 64q27 35 57 203l60 325l-236 602q-35 86 -70 117q-25 19 -57 27l2 14h527l-3 -14q-77 -15 -92 -27q-18 -9 -18 -33q0 -28 24 -92q135 -361 179 -487l55 80l123 168l170 235q43 61 43 92q0 21 -25 37q-35 21 -76 27l2 14h381l-2 -14
q-22 -7 -69 -31q-46 -25 -117 -115l-442 -559l-70 -375q-20 -97 -20 -157q0 -33 27 -55.5t97 -45.5z" />
    <glyph glyph-name="Z" unicode="Z" horiz-adv-x="1232" 
d="M1028 0h-1134l2 14l428 523l290 356q110 133 166 203l99 118l45 54q-236 0 -467 -6q-107 -3 -156 -58q-42 -56 -82 -133h-14q14 151 31 240q5 32 16 43.5t41 11.5h1055l-2 -14l-1041 -1254q85 0 516 6q131 0 180 46q52 46 123 167h15q-15 -156 -49 -276q-12 -41 -62 -41z
" />
    <glyph glyph-name="bracketleft" unicode="[" horiz-adv-x="645" 
d="M412 -219l-2 -12h-408l328 1679h407l-2 -14q-160 -35 -188 -68q-20 -20 -41 -113l-250 -1288q-10 -62 -10 -78q0 -45 39 -65q38 -16 127 -41z" />
    <glyph glyph-name="backslash" unicode="\" horiz-adv-x="870" 
d="M279 1503l497 -1620l-100 -28l-502 1620z" />
    <glyph glyph-name="bracketright" unicode="]" horiz-adv-x="645" 
d="M233 1436l3 12h407l-328 -1679h-405l2 14q158 35 186 67q23 23 41 111l250 1290q10 58 10 78q0 49 -39 66q-31 16 -127 41z" />
    <glyph glyph-name="asciicircum" unicode="^" horiz-adv-x="1302" 
d="M891 1309l219 -779h-178l-160 613l-391 -613h-193l514 779h189z" />
    <glyph glyph-name="underscore" unicode="_" horiz-adv-x="1021" 
d="M-104 -252l18 105h1020l-19 -105h-1019z" />
    <glyph glyph-name="grave" unicode="`" horiz-adv-x="411" 
d="M227 1442l160 -305l-10 -11l-285 191q-74 50 -74 106q0 43 29.5 71t71.5 28q64 0 108 -80z" />
    <glyph glyph-name="a" unicode="a" horiz-adv-x="1146" 
d="M1040 86l2 -10q-59 -38 -145.5 -65t-159.5 -27q-104 0 -104 106q0 107 33 248q-181 -365 -433 -365q-87 0 -143 50q-53 53 -53 200q0 168 84 371q85 201 211 303q145 115 366 115q93 0 213 -19q114 -18 160 -43q-65 -77 -153 -594q-21 -117 -21 -202q0 -35 18 -54.5
t46 -19.5q35 0 79 6zM766 883q0 25 -21 37q-15 12 -71 12q-86 0 -152 -66q-74 -80 -141 -282q-68 -201 -67.5 -324t73.5 -123q61 0 133 68.5t117 167.5q62 124 119 424q10 65 10 86z" />
    <glyph glyph-name="b" unicode="b" horiz-adv-x="1138" 
d="M25 55q27 43 41 99q5 19 65 288l98 471q60 277 60 373q0 49 -15 64q-20 26 -94 32v15q195 49 344 49q56 0 56 -47q0 -42 -37 -203l-113 -496q75 144 191 226q121 86 231 86q105 0 147.5 -56.5t42.5 -201.5q0 -147 -59 -336q-59 -185 -162 -291q-72 -72 -175.5 -113
t-209.5 -41q-225 0 -411 82zM330 119q0 -28 24 -43q32 -19 95 -19q101 0 169 109q46 75 93 266q47 193 47 285q0 74 -20.5 101.5t-61.5 27.5q-62 0 -135.5 -71.5t-118.5 -194.5q-27 -83 -39 -154l-33 -162q-20 -103 -20 -145z" />
    <glyph glyph-name="c" unicode="c" horiz-adv-x="872" 
d="M739 219l6 -4q0 -26 -10 -49q-18 -37 -47 -66q-133 -127 -350 -127q-142 0 -218.5 76.5t-76.5 218.5q0 174 61 342q62 170 156 264q132 138 358 138q107 0 183 -29q45 -17 45 -53q0 -78 -55 -203h-15q-32 119 -68 164t-94 45q-83 0 -143 -78q-60 -80 -106 -244
q-41 -158 -41 -309q0 -184 157 -184q151 0 258 98z" />
    <glyph glyph-name="d" unicode="d" horiz-adv-x="1165" 
d="M1042 86l2 -10q-151 -92 -303 -92q-106 0 -106 116q0 77 29 222q-84 -167 -198 -258t-226 -91q-49 0 -84 11t-63 38t-42 76t-14 121q0 174 80 375q82 199 205 301q138 117 350 117q70 0 123 -17l10 49q33 149 33 242q0 52 -19 68q-29 22 -90 28v15q192 49 342 49
q32 0 44.5 -11t12.5 -40q0 -28 -41 -221l-124 -590q-64 -296 -64 -426q0 -78 66 -78q33 0 77 6zM645 377q50 114 113 430q8 39 8 76q0 25 -21 37q-24 12 -86 12q-84 0 -143 -68q-74 -83 -139 -278q-64 -192 -64 -332q0 -117 72 -117q65 0 135.5 63.5t124.5 176.5z" />
    <glyph glyph-name="e" unicode="e" horiz-adv-x="901" 
d="M750 221l6 -4q0 -18 -6 -39q-8 -21 -33 -57q-53 -61 -153.5 -104.5t-211.5 -43.5q-153 0 -231 71t-78 235q0 141 61 315q61 173 154 274q138 144 350 144q135 0 202 -45.5t67 -151.5q0 -70 -62 -156q-54 -79 -174 -132t-307 -54q-15 -89 -15 -166q3 -186 173 -186
q67 0 140 29t118 71zM340 514q163 30 250.5 121t87.5 217q0 90 -84 90q-155 0 -254 -428z" />
    <glyph glyph-name="f" unicode="f" horiz-adv-x="677" 
d="M-281 -213h15q19 -79 61.5 -124.5t87.5 -45.5q70 0 107 70q53 103 112 434l134 760h-136l13 55q96 27 116 53q18 21 52 119q50 146 139 229q121 109 313 109q93 0 146 -21q45 -15 45 -53q0 -46 -47 -192h-17q-29 104 -66 148t-94 44q-71 0 -112 -65q-33 -56 -60 -250
l-10 -74h199l-17 -102h-198l-99 -549q-56 -323 -131 -486q-62 -143 -176 -223t-246 -80q-86 0 -129 21q-30 15 -30 55q0 65 28 168z" />
    <glyph glyph-name="g" unicode="g" horiz-adv-x="1136" 
d="M18 -127h15q18 -120 82.5 -189t146.5 -69q107 0 176 72q32 34 74.5 128t73.5 208l86 327q-89 -174 -206 -268t-226 -94q-99 0 -150 53t-51 192q0 167 84 367q82 199 207 295q77 63 163 90t222 27q107 0 209 -21q99 -17 145 -43q-24 -30 -65 -188q-6 -29 -17 -74.5
t-16 -69.5l-15 -75l-16 -76l-14 -72q-67 -341 -113 -483q-42 -130 -121 -209q-76 -76 -209 -117q-131 -41 -241 -41q-154 0 -230 43q-41 21 -41 62q0 82 47 225zM766 883q0 25 -21 37q-24 12 -73 12q-84 0 -148 -64q-73 -76 -143 -274q-68 -198 -68 -324q0 -65 18 -91.5
t60 -26.5q58 0 135 71q79 73 125 185q46 116 107 395q8 36 8 80z" />
    <glyph glyph-name="h" unicode="h" horiz-adv-x="1150" 
d="M399 483l-100 -483h-256l190 899q64 290 64 389q0 48 -14 62q-20 26 -95 32v15q195 49 347 49q34 0 43 -12q12 -12 12 -45q0 -31 -35 -189q-79 -350 -123 -516q55 119 180 225q121 103 252 103q82 0 117 -30t35 -108q0 -93 -96 -536q-33 -152 -33 -201q0 -55 65 -55
q9 0 70 6l2 -12q-64 -39 -154.5 -65.5t-162.5 -26.5q-93 0 -93 90q0 41 35 196q103 468 103 516q0 62 -64 62q-48 0 -111.5 -47.5t-101.5 -112.5q-50 -80 -76 -205z" />
    <glyph glyph-name="i" unicode="i" horiz-adv-x="628" 
d="M496 88l2 -12q-70 -41 -156 -66q-88 -26 -164 -26q-100 0 -100 94q0 47 37 201l75 335q35 161 35 232q0 47 -22 63q-27 21 -86 27v12q154 56 313 56q43 0 60.5 -15.5t17.5 -48.5q0 -32 -37 -211l-80 -387q-34 -154 -30.5 -207t61.5 -53q12 0 74 6zM559 1325
q0 -79 -41 -126.5t-112 -47.5q-57 0 -91 35t-34 92q0 70 42 117t113 47q58 0 90.5 -32t32.5 -85z" />
    <glyph glyph-name="j" unicode="j" horiz-adv-x="595" 
d="M-242 -219h15q16 -80 51 -122t74 -42q58 0 88 59q40 80 120 531l74 409q35 184 35 236q0 37 -20 57q-30 23 -91 29v10q162 58 330 58q37 0 51.5 -14t14.5 -46q0 -41 -117 -653q-60 -309 -92 -424q-29 -105 -80 -168q-128 -158 -342 -158q-77 0 -113 25q-32 19 -32 55
q0 71 34 158zM545 1325q0 -79 -41.5 -126.5t-112.5 -47.5q-57 0 -91 35t-34 92q0 70 42.5 117t113.5 47q56 0 89.5 -32.5t33.5 -84.5z" />
    <glyph glyph-name="k" unicode="k" horiz-adv-x="1103" 
d="M391 430l-92 -430h-256l197 909q59 275 59 379q0 46 -18 64q-24 24 -91 30v15q195 49 347 49q31 0 42 -13.5t11 -48.5q0 -55 -33 -190q-89 -390 -121 -510q46 112 162 219q113 107 246 107q190 0 190 -176q0 -99 -83 -184.5t-240 -145.5q73 -165 149 -305q31 -57 58 -84
q33 -39 79 -39q37 0 52 6l6 -10q-38 -33 -123 -68q-82 -31 -160 -31q-96 0 -137 86q-31 58 -158 381q-68 -10 -86 -10zM412 535l-15 -64q105 12 184.5 41t126.5 70.5t70 90.5t23 105q0 41 -24.5 64.5t-63.5 23.5q-95 0 -187 -108q-91 -111 -114 -223z" />
    <glyph glyph-name="l" unicode="l" horiz-adv-x="626" 
d="M489 88l3 -12q-157 -92 -312 -92q-54 0 -74 22.5t-20 69.5q0 56 31 205l129 614q63 294 63 389q0 49 -18 70q-25 25 -90 28v15q195 49 336 49q38 0 49.5 -11.5t11.5 -48.5q0 -31 -39 -212l-174 -834q-31 -155 -31 -205q0 -53 62 -53q12 0 73 6z" />
    <glyph glyph-name="m" unicode="m" horiz-adv-x="1681" 
d="M412 477l-101 -477h-256l115 539q43 191 43 309q0 45 -14 59q-23 23 -93 29v12q142 56 314 56q42 0 55.5 -15t13.5 -59q0 -65 -49 -260q50 127 168 233q121 109 246 109q77 0 112 -31.5t35 -110.5q0 -63 -30 -198q49 128 166 233q119 107 247 107q82 0 121 -29.5
t39 -105.5q0 -79 -94 -519q-35 -152 -35 -219q0 -57 64 -57q21 0 71 6l2 -12q-63 -40 -153 -66q-91 -26 -150 -26q-102 0 -102 84q0 72 33 215q102 458 102 495q0 70 -57 70q-51 0 -111.5 -48t-99.5 -118q-47 -87 -74 -209l-100 -473h-252l117 535q43 197 43 243
q0 38 -14 54t-46 16q-43 0 -106 -51q-61 -49 -101 -119q-40 -74 -69 -201z" />
    <glyph glyph-name="n" unicode="n" horiz-adv-x="1165" 
d="M412 483l-101 -483h-256l117 549q41 196 41 301q0 43 -14 57q-26 26 -93 29v12q133 56 304 56q43 0 61 -14t18 -50q0 -84 -51 -272q55 131 176 235q127 109 263 109q80 0 115.5 -30.5t35.5 -107.5q0 -96 -96 -536q-36 -141 -32.5 -198.5t65.5 -57.5q7 0 69 6l2 -12
q-62 -38 -153 -65t-160 -27q-96 0 -96 86q0 28 35 200q102 473 102 512q0 36 -13 51t-44 15q-51 0 -116.5 -47t-103.5 -113q-47 -73 -75 -205z" />
    <glyph glyph-name="o" unicode="o" horiz-adv-x="1044" 
d="M973 666q0 -151 -45 -293q-44 -147 -131 -248q-134 -152 -379 -152q-171 0 -266 100.5t-95 278.5q0 327 189 525q129 135 366 135q172 0 266.5 -88.5t94.5 -257.5zM719 788q0 152 -123 152q-85 0 -143 -104q-54 -105 -101 -301q-43 -191 -43 -322q0 -168 123 -168
q109 0 164 131q47 121 84 313q39 186 39 299z" />
    <glyph glyph-name="p" unicode="p" horiz-adv-x="1144" 
d="M401 -440l-2 -11h-546l2 11q79 28 104 65q27 42 47 133l146 697q63 286 63 395q0 45 -20 59q-31 24 -89 27v12q133 56 306 56q43 0 59 -13.5t16 -50.5q0 -78 -47 -268q68 150 189 246q122 94 237 94q107 0 151 -56.5t44 -201.5t-62 -334q-61 -186 -165 -293
q-151 -154 -390 -154q-75 0 -137 19l-45 -219q-12 -59 -12 -105q0 -36 29.5 -57.5t121.5 -50.5zM340 117q0 -32 22 -41q27 -21 97 -21q105 0 172 111q49 76 96 268q49 192 49 285q0 127 -84 127q-61 0 -133 -71t-119 -197q-24 -60 -43 -158l-32 -158q-25 -103 -25 -145z" />
    <glyph glyph-name="q" unicode="q" horiz-adv-x="1144" 
d="M887 -440l-2 -11h-549l2 11q92 26 133 67q43 50 66 152l127 543q-94 -177 -204 -263t-220 -86q-94 0 -150 50q-53 50 -53 200q0 165 84 371q81 200 207 301q150 117 352 117q232 0 377 -68q-22 -36 -62 -225l-200 -916q-21 -95 -21 -137q0 -35 21.5 -55t91.5 -51z
M764 883q0 27 -23 37q-35 12 -67 12q-90 0 -150 -66q-70 -76 -141 -282q-70 -204 -70 -310q0 -75 16 -106t58 -31q60 0 133.5 69t124.5 173q40 73 111 424q8 36 8 80z" />
    <glyph glyph-name="r" unicode="r" horiz-adv-x="880" 
d="M408 465l-97 -465h-256l117 547q41 196 41 303q0 35 -14 55q-25 28 -95 31v12q139 56 308 56q43 0 60 -14.5t17 -55.5q0 -74 -51 -268q47 124 142 237q95 109 206 109q44 0 66 -11q25 -16 25 -49q0 -57 -66 -217h-14q-24 103 -107 103q-117 0 -207 -158q-50 -85 -75 -215
z" />
    <glyph glyph-name="s" unicode="s" horiz-adv-x="825" 
d="M51 289h15q20 -106 93 -174t165 -68q172 0 172 143q0 49 -33.5 92t-124.5 101l-62 39q-84 57 -123.5 116.5t-39.5 143.5q0 155 117.5 242.5t320.5 87.5q98 0 180 -29q41 -15 41 -57q0 -15 -16 -84q-13 -57 -37 -113h-14q-35 209 -203 209q-88 0 -133 -38.5t-45 -106.5
q0 -81 118 -156l64 -43q81 -56 112 -84q42 -35 70.5 -88.5t28.5 -112.5q0 -155 -113 -245.5t-303 -90.5q-172 0 -248 58q-35 24 -35 63q0 80 33 195z" />
    <glyph glyph-name="t" unicode="t" horiz-adv-x="686" 
d="M567 111l6 -5q0 -23 -18 -47q-9 -15 -43 -36q-76 -46 -188 -46q-222 0 -222 201q0 48 25 176l111 527h-129l14 55q81 18 133 45q55 28 90 88q53 94 78 158h133l-45 -242h197l-19 -104h-196l-117 -559q-23 -115 -23 -172q0 -36 23.5 -58t60.5 -22q64 0 129 41z" />
    <glyph glyph-name="u" unicode="u" horiz-adv-x="1161" 
d="M1051 86l2 -10q-142 -92 -295 -92q-107 0 -107 118q0 79 37 224q-67 -137 -188 -246q-119 -107 -250 -107q-79 0 -117.5 36.5t-38.5 123.5q0 104 88 483q33 132 33 236q0 51 -35 66q-38 15 -78 18v10q63 27 154 41q112 17 164 17q48 0 65 -17q19 -16 19 -51
q0 -34 -41 -215q-105 -443 -105 -510q0 -59 56 -59q94 0 202 141q63 84 101 258l88 434h256l-111 -539q-45 -213 -45 -278q0 -86 76 -86q16 0 70 4z" />
    <glyph glyph-name="v" unicode="v" horiz-adv-x="1001" 
d="M340 -2h-160l-10 786q0 99 -31 121q-40 24 -84 27l-2 10q51 24 156 45q118 23 164 23q43 0 49 -45q2 -20 2 -115q-3 -592 -6 -674l65 88q85 111 176 254q71 116 111.5 215t40.5 146q0 42 -37 51q-52 10 -63 10l-2 10q50 29 116 43q80 17 109 17q55 0 55 -37
q0 -108 -168 -361q-115 -176 -481 -614z" />
    <glyph glyph-name="w" unicode="w" horiz-adv-x="1472" 
d="M354 -2h-164l-22 774q-3 109 -31 131q-22 15 -84 27v12q51 24 156 45q118 23 164 23q48 0 51 -49q4 -98 4 -113q0 -114 -8 -625q253 514 325 682h183q72 -655 76 -708q125 224 170 317q124 245 124 363q0 42 -43 51q-46 12 -67 12v10q53 27 117 41q74 19 100 19
q53 0 53 -37q0 -95 -127 -334q-106 -202 -391 -641h-162l-67 645q-191 -372 -357 -645z" />
    <glyph glyph-name="x" unicode="x" horiz-adv-x="1054" 
d="M-45 207h14q15 -76 70 -76q59 0 113 57q89 89 231 277l-107 278q-50 123 -77 144q-22 14 -47 14q-23 0 -50 -6l-4 12q47 30 142 68q93 37 149 37q50 0 68 -37q7 -12 65 -160l76 -201q74 116 201 271q100 127 190 127q68 0 68 -62q0 -43 -35 -162h-16q-21 62 -72 62
q-55 0 -115 -66q-118 -134 -194 -231l118 -299q42 -105 74 -148q21 -30 57 -30q35 0 56 6l4 -12q-38 -27 -139 -66q-91 -31 -144 -31q-71 0 -98 58q-27 53 -59 137l-86 229q-138 -212 -226 -313q-94 -111 -176 -111q-37 0 -57.5 17.5t-20.5 44.5q0 70 27 172z" />
    <glyph glyph-name="y" unicode="y" horiz-adv-x="1003" 
d="M-193 -258h19q7 -48 30.5 -76t53.5 -28q63 0 127 55q138 119 280 309h-122l-37 780q-3 98 -33 121q-27 21 -86 27v12q56 27 158 47q118 23 165 23q39 0 48 -45q6 -35 6 -129l8 -365l8 -346q82 135 165.5 275t84.5 141q123 215 123 327q0 39 -41 54q-39 12 -66 14l-2 12
q49 25 127 43q87 19 115 19q31 0 43 -8.5t12 -32.5q0 -78 -155 -340q-128 -218 -430 -639q-183 -257 -330 -398q-108 -102 -211 -102q-90 0 -90 72q0 76 30 178z" />
    <glyph glyph-name="z" unicode="z" horiz-adv-x="925" 
d="M25 51l-54 -57l-51 43q301 320 744 739q-290 0 -373 -6q-86 -3 -121 -53q-19 -28 -35 -64l-16 2q8 163 26 260q8 43 22 56.5t56 13.5h719l4 -18q-347 -353 -749 -729q56 -2 272 -21q155 -14 190 -14q59 0 97 25t69 91l17 -2q-21 -216 -51 -286q-23 -51 -121 -51
q-52 0 -297 34q-246 37 -348 37z" />
    <glyph glyph-name="braceleft" unicode="{" horiz-adv-x="694" 
d="M473 -223l-4 -15q-197 0 -285 46.5t-88 164.5q0 56 13 123l38 205q21 117 21 154q0 77 -31.5 116t-103.5 43l4 15q113 9 158 76q41 60 77 233l41 221q29 160 138 226.5t342 66.5l-2 -14q-119 -12 -179 -72q-59 -59 -86 -215l-49 -260q-24 -122 -98 -186.5t-207 -88.5
q201 -41 201 -210q0 -44 -8 -91l-37 -194q-19 -100 -19 -152q0 -174 164 -192z" />
    <glyph glyph-name="bar" unicode="|" horiz-adv-x="589" 
d="M559 1485l-334 -1706h-172l332 1706h174z" />
    <glyph glyph-name="braceright" unicode="}" horiz-adv-x="694" 
d="M238 1438l4 14q198 0 285 -45.5t87 -163.5q0 -59 -12 -121l-39 -209q-20 -114 -20 -153q0 -151 135 -160l-4 -14q-110 -9 -158 -78q-42 -61 -78 -232l-41 -223q-30 -160 -139 -225q-111 -66 -340 -66l2 17q122 12 178 71q58 58 88 213l50 261q24 122 97 186t206 88
q-201 41 -201 211q0 40 10 92l37 193q16 91 16 151q0 175 -163 193z" />
    <glyph glyph-name="asciitilde" unicode="~" horiz-adv-x="1302" 
d="M236 410l-107 106q163 199 328 199q81 0 221 -88q101 -64 170 -64q96 0 211 142l108 -105q-151 -201 -329 -201q-93 0 -197 64q-69 42 -121 65q-39 17 -71 17q-108 0 -213 -135z" />
    <glyph glyph-name="exclamdown" unicode="&#xa1;" horiz-adv-x="565" 
d="M229 537h27q-2 -41 -2 -682q0 -121 -40.5 -184.5t-139.5 -63.5q-137 0 -137 123q0 57 32 145l101 250q97 243 159 412zM131 856q0 69 46.5 116.5t119.5 47.5q63 0 103 -41t40 -107q0 -75 -46 -123.5t-120 -48.5q-66 0 -104.5 43t-38.5 113z" />
    <glyph glyph-name="cent" unicode="&#xa2;" horiz-adv-x="1083" 
d="M596 6l-39 -199h-76l37 191q-6 -2 -31 -2q-163 0 -254.5 90.5t-91.5 245.5q0 344 246 581q130 127 336 142l37 188h76l-37 -186q90 -3 174 -29q41 -15 41 -47q0 -70 -53 -203h-19q-27 194 -158 203l-161 -831q142 0 270 96l6 -2q-3 -40 -10 -54q-13 -30 -53 -67
q-104 -90 -240 -117zM442 362q0 -160 107 -200l158 807q-66 -28 -111 -84q-69 -91 -111.5 -233.5t-42.5 -289.5z" />
    <glyph glyph-name="sterling" unicode="&#xa3;" horiz-adv-x="1239" 
d="M944 664l-26 -119h-254q-40 -208 -340 -316q173 4 323.5 7t214 4.5t64.5 1.5q96 3 141 51q43 43 66 88h12q-33 -236 -64 -318q-14 -37 -39 -50t-90 -13h-962l30 156q57 8 119 37q189 85 230 307q4 32 4 45h-199l27 119h178q3 238 10 270q33 210 171 318t401 108
q133 0 221 -31q55 -18 55 -72q0 -74 -55 -223h-15q-37 143 -71 185q-37 49 -140 49q-113 0 -173 -82t-85 -275l-12 -125l-8 -122h266z" />
    <glyph glyph-name="currency" unicode="&#xa4;" horiz-adv-x="1206" 
d="M1092 287l-123 -121l-119 119q-89 -68 -225 -68q-141 0 -230 68l-119 -121l-118 121l125 121q-72 97 -72 227q0 124 70 225l-125 119l123 121l118 -117q101 70 226 70q119 0 229 -72l119 117l119 -115l-123 -121q71 -83 71 -227q0 -136 -71 -225zM885 633q0 118 -76 194
q-74 80 -186 80q-109 0 -187 -78q-74 -77 -74 -192q0 -123 73 -202t188 -79t188.5 79t73.5 198z" />
    <glyph glyph-name="yen" unicode="&#xa5;" horiz-adv-x="1359" 
d="M1116 492l-16 -89h-303l-27 -145q-18 -95 -18 -152q0 -37 28 -57.5t88 -34.5l-4 -14h-557l2 14q95 15 123 60q23 29 53 186l27 143h-297l18 89h297l21 104l-35 86h-248l21 88h190l-164 406q-36 87 -65 112q-29 23 -70 31l2 14h555l-2 -14q-64 -18 -84 -31
q-22 -13 -22 -39q0 -39 26 -98q103 -246 160 -422q5 8 51 70q56 72 275 364q45 60 45 94q0 21 -25 37q-26 15 -65 25l2 14h370l-2 -14q-32 -6 -73 -33q-41 -21 -113 -115l-328 -401h219l-18 -88h-272l-39 -49l-27 -141h301z" />
    <glyph glyph-name="brokenbar" unicode="&#xa6;" horiz-adv-x="593" 
d="M559 1382l-125 -643h-201l125 643h201zM383 477l-125 -639h-201l125 639h201z" />
    <glyph glyph-name="section" unicode="&#xa7;" horiz-adv-x="1052" 
d="M53 -12h13q13 -115 89.5 -184.5t182.5 -69.5q96 0 156.5 52.5t60.5 141.5q0 95 -111 187l-223 182q-129 108 -129 240q0 125 81.5 200t227.5 82q-125 101 -125 260q0 177 140 267q139 92 344 92q149 0 219 -33q55 -27 55 -74q0 -63 -61 -215h-15q-14 104 -73 168t-154 64
q-96 0 -155.5 -46.5t-59.5 -134.5q0 -82 129 -190l125 -103q114 -94 161.5 -160.5t47.5 -142.5q0 -123 -87 -200t-224 -82q133 -121 133 -248q0 -182 -139 -291q-138 -108 -343 -108q-78 0 -157 19t-115 44q-41 27 -41 64q0 80 47 219zM387 524l160 -131q39 -39 86 -39
q36 0 63 21q54 42 54 96q0 63 -88 133l-136 113q-59 47 -90 47q-37 0 -76 -31q-47 -38 -47 -94q0 -50 74 -115z" />
    <glyph glyph-name="dieresis" unicode="&#xa8;" horiz-adv-x="407" 
d="M147 1303q0 -59 -37.5 -100.5t-97.5 -41.5q-47 0 -77.5 31t-30.5 80q0 61 39 103t96 42q50 0 79 -31t29 -83zM506 1303q0 -59 -37.5 -100.5t-95.5 -41.5q-49 0 -80 30.5t-31 80.5q0 61 40 103t97 42q49 0 78 -31.5t29 -82.5z" />
    <glyph glyph-name="copyright" unicode="&#xa9;" horiz-adv-x="1673" 
d="M860 -27q-310 0 -516 203q-203 206 -203 512q0 309 205 514q207 207 512 207q313 0 520 -207q205 -205 205 -514q0 -310 -205 -512q-203 -203 -518 -203zM1487 688q0 277 -176 459t-453 182q-270 0 -448 -184q-177 -183 -177 -457q0 -272 177 -455q174 -180 450 -180
q277 0 451 180q176 182 176 455zM1126 467h15q-15 -112 -29 -137q-16 -25 -47 -39q-70 -33 -221 -33q-189 0 -289 93.5t-100 266.5q0 272 166 410q133 109 352 109q117 0 188 -27q43 -15 43 -49q0 -48 -39 -152h-14q-9 69 -35 105q-37 55 -147 55q-141 0 -217 -104
q-90 -125 -90 -332q0 -309 229 -309q87 0 145 38q54 37 90 105z" />
    <glyph glyph-name="ordfeminine" unicode="&#xaa;" horiz-adv-x="729" 
d="M750 588l4 -10q-86 -56 -185 -56q-80 0 -80 74q0 48 21 139q-109 -219 -277 -219q-61 0 -92.5 33.5t-31.5 116.5q0 98 55 217q53 115 133 182q89 74 246 74q57 0 133 -13q71 -9 98 -24q-43 -46 -96 -344q-14 -74 -14 -133q0 -41 41 -41q3 0 8.5 0.5t16 1.5t20.5 2z
M569 1059q0 14 -14 20q-15 6 -37 6q-47 0 -82 -38q-48 -48 -94 -168q-43 -113 -43 -193q0 -65 41 -65q77 0 154 139q27 53 69 250q6 27 6 49z" />
    <glyph glyph-name="guillemotleft" unicode="&#xab;" horiz-adv-x="905" 
d="M96 567l430 340l11 -8l-277 -393l121 -412l-12 -6l-293 361q-19 29 -19 49q0 36 39 69zM475 567l430 340l10 -8l-276 -393l119 -412l-13 -6l-292 361q-17 24 -17 49q0 36 39 69z" />
    <glyph glyph-name="logicalnot" unicode="&#xac;" horiz-adv-x="1302" 
d="M1141 668l-107 -549h-157l77 391h-778l29 158h936z" />
    <glyph glyph-name="uni00AD" unicode="&#xad;" horiz-adv-x="696" 
d="M623 643l-43 -205h-504l41 205h506z" />
    <glyph glyph-name="registered" unicode="&#xae;" horiz-adv-x="1673" 
d="M860 -27q-310 0 -516 203q-203 206 -203 512q0 309 205 514q207 207 512 207q313 0 520 -207q205 -205 205 -514q0 -310 -205 -512q-203 -203 -518 -203zM1487 688q0 277 -176 459t-453 182q-270 0 -448 -184q-177 -183 -177 -457q0 -272 177 -455q174 -180 450 -180
q277 0 451 180q176 182 176 455zM797 299l-2 -10h-371l2 10q56 11 82 41q19 22 39 127l96 481q10 58 10 90q0 22 -18 37q-20 17 -53 27l4 10h297q127 0 196 -16q154 -44 154 -181q0 -95 -62 -154.5t-176 -78.5q50 -11 82 -72q22 -37 29 -55q18 -42 29 -74l28 -75
q20 -49 42 -69t69 -32l-2 -10q-102 -10 -144 -10q-90 0 -124 34q-29 29 -56 111l-61 182q-18 35 -70 35h-51l-39 -184q-12 -53 -12 -92q0 -30 18 -45q27 -19 64 -27zM836 993l-58 -286h49q86 0 129 32q84 60 84 191q0 62 -41 92q-37 27 -90 27h-26q-20 0 -30.5 -12.5
t-16.5 -43.5z" />
    <glyph glyph-name="overscore" unicode="&#xaf;" horiz-adv-x="407" 
d="M479 1358l-35 -144h-520l35 144h520z" />
    <glyph glyph-name="degree" unicode="&#xb0;" horiz-adv-x="645" 
d="M166 1120q0 122 84 209q82 88 213 88q109 0 178.5 -72t69.5 -184q0 -126 -84 -213q-84 -84 -207 -84q-110 0 -182 73t-72 183zM457 1337q-83 0 -143 -61.5t-60 -153.5q0 -78 48.5 -129t123.5 -51q86 0 143.5 60.5t57.5 152.5q0 80 -46.5 131t-123.5 51z" />
    <glyph glyph-name="plusminus" unicode="&#xb1;" horiz-adv-x="1302" 
d="M752 668l-74 -377h-164l72 377h-387l32 155h387l72 383h166l-74 -383h387l-30 -155h-387zM1038 160l-30 -160h-938l30 160h938z" />
    <glyph glyph-name="twosuperior" unicode="&#xb2;" 
d="M629 881h-535l15 67q60 39 149 107q55 45 137 123q156 153 156 327q0 59 -30 95t-85 36q-61 0 -103.5 -32t-84.5 -107h-12q0 12 -0.5 38.5t0 34.5t2 26t5.5 24.5t10.5 17t17.5 16.5t26 11q95 31 205 31q124 0 189 -53.5t65 -139.5q0 -57 -33.5 -119t-81.5 -112
q-40 -43 -125 -103q-73 -51 -123 -82l-125 -71q136 4 320 4q56 0 80 18q20 14 57 78h12q-3 -24 -18 -102q-16 -84 -23 -99q-6 -20 -19 -27t-48 -7z" />
    <glyph glyph-name="threesuperior" unicode="&#xb3;" 
d="M152 1075h10q8 -63 57.5 -104t128.5 -41q90 0 135 57.5t45 157.5q0 121 -133 121h-41l13 59h49q84 0 126 52t42 143q0 116 -109 116q-122 0 -199 -139h-10q3 66 10 109q9 37 48 57q67 33 202 33q123 0 187.5 -45.5t64.5 -120.5q0 -190 -243 -227q202 -21 202 -166
q0 -136 -112 -205q-115 -68 -277 -68q-134 0 -205 41q-22 13 -22 41q0 50 31 129z" />
    <glyph glyph-name="acute" unicode="&#xb4;" horiz-adv-x="407" 
d="M328 1307l-328 -181l-8 11l209 297q32 45 56 62t60 17q45 0 73 -26t28 -68q0 -65 -90 -112z" />
    <glyph glyph-name="mu" unicode="&#xb5;" horiz-adv-x="1282" 
d="M371 39l-23 -129q-10 -56 -24 -156q-6 -65 -15 -108q-8 -44 -28 -60q-42 -22 -258 -22l-7 6l234 1044q39 160 39 242q0 47 -37 62q-41 15 -76 18v10q62 27 152 41q107 17 161 17q51 0 68.5 -14.5t17.5 -55.5q0 -45 -43 -213q-104 -423 -104 -518q0 -58 61 -58
q95 0 189 129q57 72 92 242l100 469h252l-110 -549q-39 -186 -39 -270t76 -84q15 0 69 4l2 -10q-61 -40 -139 -64q-92 -28 -158 -28q-104 0 -104 118q0 95 26 205q-59 -151 -136 -230t-160 -79q-63 0 -78 41z" />
    <glyph glyph-name="paragraph" unicode="&#xb6;" horiz-adv-x="1122" 
d="M358 -213l-4 14q107 30 166 113q64 81 117 365l37 196q-215 6 -332 102.5t-117 268.5q0 173 91 302t255 183q116 35 359 35h198l-4 -14q-98 -25 -127 -58q-31 -40 -51 -151l-170 -867l-12 -63l-12 -59q-3 -38 -23 -97q-20 -76 -76 -141q-102 -108 -295 -129z" />
    <glyph glyph-name="middot" unicode="&#xb7;" horiz-adv-x="516" 
d="M397 549q0 -71 -44 -117.5t-117 -46.5q-64 0 -105 40t-41 105q0 75 46 123.5t120 48.5q66 0 103.5 -42t37.5 -111z" />
    <glyph glyph-name="cedilla" unicode="&#xb8;" horiz-adv-x="407" 
d="M12 -401v8l8 4q25 -25 93 -25q50 0 83 28t33 81q0 42 -25 67t-63 25q-9 0 -41 -4l-8 6l111 229h51l-59 -139q101 0 151.5 -42t50.5 -116q0 -94 -73.5 -150t-182.5 -56q-95 0 -116 34q-13 16 -13 50z" />
    <glyph glyph-name="onesuperior" unicode="&#xb9;" 
d="M608 893l-4 -12h-393l4 12q42 11 68 22q39 17 57 113l86 457q12 73 12 82q0 39 -47 39q-39 0 -53 -2v22l317 74l11 -10q-13 -52 -19 -82q-7 -35 -21.5 -113.5t-19.5 -99.5l-71 -363q-7 -35 -7 -69q0 -30 21 -45q23 -16 59 -25z" />
    <glyph glyph-name="ordmasculine" unicode="&#xba;" horiz-adv-x="684" 
d="M715 934q0 -88 -31 -178t-86 -150q-84 -90 -236 -90q-111 0 -176 63.5t-65 168.5q0 194 121 309q85 82 235 82q111 0 174 -53t64 -152zM537 1006q0 84 -66 84q-45 0 -84 -54q-34 -48 -61 -170q-27 -120 -27 -202q0 -101 66 -101q62 0 92 74q31 74 55 186q25 119 25 183z
" />
    <glyph glyph-name="guillemotright" unicode="&#xbb;" horiz-adv-x="905" 
d="M793 430l-431 -342l-10 10l277 391l-119 412l12 6l293 -360q16 -22 16 -47q0 -45 -38 -70zM414 430l-428 -342l-11 10l277 391l-119 412l12 6l293 -360q17 -24 17 -47q0 -35 -41 -70z" />
    <glyph glyph-name="onequarter" unicode="&#xbc;" horiz-adv-x="1695" 
d="M317 -20l959 1425l72 -47l-957 -1424zM543 545l-4 -13h-394l5 13q58 18 67 22q38 14 57 113l86 457q13 80 13 82q0 38 -47 38q-40 0 -54 -2l-2 23l320 74l8 -11q-10 -42 -59 -294l-70 -363q-6 -34 -6 -68q0 -31 20 -45q26 -17 60 -26zM1427 14l-4 -14h-393l4 14
q40 8 76 27q44 27 53 102l11 64h-361l18 88l494 520h158q-17 -77 -51 -254l-50 -244h127l-22 -110h-123l-10 -55q-11 -68 -11 -76q0 -27 17 -37.5t67 -24.5zM930 317h266q47 256 76 367q-36 -43 -342 -367z" />
    <glyph glyph-name="onehalf" unicode="&#xbd;" horiz-adv-x="1695" 
d="M305 -20l959 1425l71 -47l-956 -1424zM530 545l-4 -13h-393l4 13q61 18 68 22q38 14 57 113l86 457q12 73 12 82q0 38 -47 38q-39 0 -53 -2l-2 23l320 74l8 -11q-17 -78 -60 -294l-69 -363q-6 -34 -6 -68q0 -31 20 -45q26 -17 59 -26zM1421 0h-534l14 68q78 52 150 106
q55 45 137 123q155 152 155 328q0 59 -29.5 95t-84.5 36q-61 0 -104 -32.5t-85 -107.5h-12q0 11 -0.5 34t0 31.5t1.5 24.5t3 22.5t6.5 17.5t11.5 16t17 11t23 11q95 31 204 31q124 0 189 -53t65 -139q0 -57 -33 -120t-81 -112q-37 -40 -125 -102q-73 -51 -123 -82l-125 -72
q136 4 319 4q55 0 80 19q22 15 58 78h12q-2 -14 -19 -103q-17 -86 -22 -98q-6 -21 -19.5 -28t-48.5 -7z" />
    <glyph glyph-name="threequarters" unicode="&#xbe;" horiz-adv-x="1695" 
d="M397 -20l959 1425l71 -47l-956 -1424zM152 727h10q8 -63 57.5 -104t128.5 -41q90 0 135 57.5t45 157.5q0 121 -133 121h-41l13 59h49q84 0 126 51.5t42 142.5q0 117 -109 117q-122 0 -199 -139h-10q3 65 10 108q9 38 48 58q67 33 202 33q123 0 187.5 -45.5t64.5 -120.5
q0 -190 -243 -228q202 -21 202 -166q0 -135 -112 -204q-115 -68 -277 -68q-134 0 -205 41q-22 13 -22 41q0 50 31 129zM1479 14l-4 -14h-394l4 14q40 8 76 27q44 27 53 102l11 64h-361l19 88l493 520h158q-17 -77 -51 -254l-49 -244h127l-23 -110h-123l-10 -55
q-10 -62 -10 -76q0 -27 17 -37.5t67 -24.5zM981 317h266q47 256 76 367q-36 -43 -342 -367z" />
    <glyph glyph-name="questiondown" unicode="&#xbf;" horiz-adv-x="786" 
d="M522 539h29q0 -33 -4 -127q-10 -94 -41 -142q-29 -50 -137 -139q-123 -102 -123 -256q0 -90 43 -138t121 -48q90 0 144.5 47t92.5 147h15q0 -107 -9 -178q-6 -34 -23 -51t-55 -29q-119 -35 -243 -35q-202 0 -293.5 66t-91.5 209q0 129 78 207q77 77 237 166
q116 63 163 100t64 80q24 52 33 121zM397 856q0 69 45.5 116.5t118.5 47.5q62 0 103 -41.5t41 -106.5q0 -74 -45.5 -123t-118.5 -49q-67 0 -105.5 43t-38.5 113z" />
    <glyph glyph-name="Agrave" unicode="&#xc0;" horiz-adv-x="1384" 
d="M293 14l-4 -14h-387l4 14q37 6 74 31q44 25 86 96l524 910l180 315h188q0 -5 46 -303l122 -852q11 -72 21.5 -102.5t32.5 -53.5q27 -27 88 -41l-2 -14h-555l2 14q62 14 94 35q39 20 39 74q0 44 -8 96l-33 246h-438l-156 -281q-37 -64 -37 -102q0 -29 27 -41
q35 -15 92 -27zM418 561h375q-52 395 -68 559q-57 -112 -307 -559zM778 1767l209 -292l-8 -11l-328 183q-88 52 -88 114q0 41 28 66.5t68 25.5q57 0 119 -86z" />
    <glyph glyph-name="Aacute" unicode="&#xc1;" horiz-adv-x="1384" 
d="M293 14l-4 -14h-387l4 14q37 6 74 31q44 25 86 96l524 910l180 315h188q0 -5 46 -303l122 -852q11 -72 21.5 -102.5t32.5 -53.5q27 -27 88 -41l-2 -14h-555l2 14q62 14 94 35q39 20 39 74q0 44 -8 96l-33 246h-438l-156 -281q-37 -64 -37 -102q0 -29 27 -41
q35 -15 92 -27zM418 561h375q-52 395 -68 559q-57 -112 -307 -559zM1100 1597l-357 -133l-8 13l260 266q57 63 115 63q43 0 70.5 -27.5t27.5 -74.5q0 -67 -108 -107z" />
    <glyph glyph-name="Acircumflex" unicode="&#xc2;" horiz-adv-x="1384" 
d="M293 14l-4 -14h-387l4 14q37 6 74 31q44 25 86 96l524 910l180 315h188q0 -5 46 -303l122 -852q11 -72 21.5 -102.5t32.5 -53.5q27 -27 88 -41l-2 -14h-555l2 14q62 14 94 35q39 20 39 74q0 44 -8 96l-33 246h-438l-156 -281q-37 -64 -37 -102q0 -29 27 -41
q35 -15 92 -27zM418 561h375q-52 395 -68 559q-57 -112 -307 -559zM1001 1718l168 -256l-12 -10l-268 147l-334 -145l-10 12l278 260q41 41 90 41q54 0 88 -49z" />
    <glyph glyph-name="Atilde" unicode="&#xc3;" horiz-adv-x="1384" 
d="M293 14l-4 -14h-387l4 14q37 6 74 31q44 25 86 96l524 910l180 315h188q0 -5 46 -303l122 -852q11 -72 21.5 -102.5t32.5 -53.5q27 -27 88 -41l-2 -14h-555l2 14q62 14 94 35q39 20 39 74q0 44 -8 96l-33 246h-438l-156 -281q-37 -64 -37 -102q0 -29 27 -41
q35 -15 92 -27zM418 561h375q-52 395 -68 559q-57 -112 -307 -559zM1182 1729l14 -7q-18 -56 -49 -114q-57 -115 -156 -115q-52 0 -137 39q-87 43 -133 43q-73 0 -135 -96l-19 6q33 77 78 151q27 43 64 66q39 22 77 22q40 0 140 -47q78 -37 116 -37q44 0 75.5 20.5
t64.5 68.5z" />
    <glyph glyph-name="Adieresis" unicode="&#xc4;" horiz-adv-x="1384" 
d="M293 14l-4 -14h-387l4 14q37 6 74 31q44 25 86 96l524 910l180 315h188q0 -5 46 -303l122 -852q11 -72 21.5 -102.5t32.5 -53.5q27 -27 88 -41l-2 -14h-555l2 14q62 14 94 35q39 20 39 74q0 44 -8 96l-33 246h-438l-156 -281q-37 -64 -37 -102q0 -29 27 -41
q35 -15 92 -27zM418 561h375q-52 395 -68 559q-57 -112 -307 -559zM815 1620q0 -61 -37 -101t-98 -40q-48 0 -79.5 30t-31.5 80q0 61 40.5 103.5t97.5 42.5q50 0 79 -32t29 -83zM1200 1620q0 -61 -37 -101t-98 -40q-48 0 -79.5 30t-31.5 80q0 61 40.5 103.5t97.5 42.5
q50 0 79 -32t29 -83z" />
    <glyph glyph-name="Aring" unicode="&#xc5;" horiz-adv-x="1384" 
d="M293 14l-4 -14h-387l4 14q37 6 74 31q44 25 86 96l524 910l180 315h188q0 -5 46 -303l122 -852q11 -72 21.5 -102.5t32.5 -53.5q27 -27 88 -41l-2 -14h-555l2 14q62 14 94 35q39 20 39 74q0 44 -8 96l-33 246h-438l-156 -281q-37 -64 -37 -102q0 -29 27 -41
q35 -15 92 -27zM418 561h375q-52 395 -68 559q-57 -112 -307 -559zM1053 1626q0 -75 -49 -127.5t-127 -52.5q-67 0 -110.5 44t-43.5 112q0 79 50.5 128.5t129.5 49.5q67 0 108.5 -43t41.5 -111zM993 1622q0 45 -27.5 74.5t-70.5 29.5q-50 0 -81.5 -33t-31.5 -87
q0 -46 27.5 -75.5t75.5 -29.5q47 0 77.5 35t30.5 86z" />
    <glyph glyph-name="AE" unicode="&#xc6;" horiz-adv-x="1986" 
d="M346 14l-2 -14h-424l2 14q65 15 115 56q67 51 135 131l815 954q80 95 80 133q0 23 -24.5 34.5t-102.5 29.5l2 14h1008q47 0 47 -33q0 -49 -60 -254h-14q-12 89 -29.5 126.5t-50.5 49.5q-33 11 -129 11h-176q-34 0 -48 -17.5t-22 -62.5l-86 -424h138q126 0 178 10
q47 10 74.5 38.5t58.5 96.5h14l-78 -391h-14q-5 68 -26.5 98.5t-75.5 40.5q-52 9 -148 9h-137l-82 -426q-14 -71 -14 -95q0 -45 86 -45h192q133 0 197 43q23 14 57 52q22 25 80 114h14q-19 -106 -55 -260q-7 -29 -23 -38t-55 -9h-948l2 14q86 24 117 52q34 27 61 149l49 250
h-520l-196 -244q-86 -109 -86 -145q0 -20 24 -35q49 -19 80 -27zM606 561h457l139 719q-137 -181 -596 -719z" />
    <glyph glyph-name="Ccedilla" unicode="&#xc7;" horiz-adv-x="1288" 
d="M416 -412v9l8 6q25 -25 94 -25q54 0 87.5 27t33.5 84q0 44 -25 68t-67 24q-21 0 -41 -4l-6 8l92 192q-243 20 -368.5 163t-125.5 384q0 262 104 463.5t302 308.5q182 99 442 99q175 0 293 -47q53 -21 53 -62q0 -65 -57 -242h-14q-24 139 -78 193q-63 63 -207 63
q-190 0 -318 -122q-102 -99 -155 -277q-51 -170 -51 -354q0 -220 92 -349.5t262 -129.5q140 0 240 69q72 52 143 152l14 -2q-25 -135 -51 -197q-20 -43 -86 -65q-155 -52 -350 -52h-31l-43 -96q105 0 158 -44t53 -120q0 -96 -76 -153.5t-188 -57.5q-97 0 -121 35
q-12 15 -12 51z" />
    <glyph glyph-name="Egrave" unicode="&#xc8;" horiz-adv-x="1177" 
d="M952 0h-942l2 14q74 16 111 47q37 34 61 154l178 913q15 76 15 125q0 41 -25 60q-21 18 -94 39l2 14h883q47 0 47 -33q0 -41 -62 -254h-14q-21 138 -65 168q-29 19 -134 19h-182q-37 0 -52.5 -17.5t-23.5 -62.5l-86 -424h138q124 0 182 10q44 10 70 38t59 97h16l-78 -391
h-16q-5 67 -26 97t-74 40q-60 11 -152 11h-133l-84 -431q-12 -65 -12 -92q0 -43 90 -43h199q126 0 188 45q52 37 135 164h12q-20 -128 -53 -258q-7 -30 -23.5 -39.5t-56.5 -9.5zM682 1767l209 -292l-8 -11l-328 183q-88 52 -88 114q0 41 28 66.5t68 25.5q57 0 119 -86z" />
    <glyph glyph-name="Eacute" unicode="&#xc9;" horiz-adv-x="1177" 
d="M952 0h-942l2 14q74 16 111 47q37 34 61 154l178 913q15 76 15 125q0 41 -25 60q-21 18 -94 39l2 14h883q47 0 47 -33q0 -41 -62 -254h-14q-21 138 -65 168q-29 19 -134 19h-182q-37 0 -52.5 -17.5t-23.5 -62.5l-86 -424h138q124 0 182 10q44 10 70 38t59 97h16l-78 -391
h-16q-5 67 -26 97t-74 40q-60 11 -152 11h-133l-84 -431q-12 -65 -12 -92q0 -43 90 -43h199q126 0 188 45q52 37 135 164h12q-20 -128 -53 -258q-7 -30 -23.5 -39.5t-56.5 -9.5zM993 1597l-356 -133l-8 13l260 266q57 63 115 63q43 0 70.5 -27.5t27.5 -74.5q0 -66 -109 -107
z" />
    <glyph glyph-name="Ecircumflex" unicode="&#xca;" horiz-adv-x="1177" 
d="M952 0h-942l2 14q74 16 111 47q37 34 61 154l178 913q15 76 15 125q0 41 -25 60q-21 18 -94 39l2 14h883q47 0 47 -33q0 -41 -62 -254h-14q-21 138 -65 168q-29 19 -134 19h-182q-37 0 -52.5 -17.5t-23.5 -62.5l-86 -424h138q124 0 182 10q44 10 70 38t59 97h16l-78 -391
h-16q-5 67 -26 97t-74 40q-60 11 -152 11h-133l-84 -431q-12 -65 -12 -92q0 -43 90 -43h199q126 0 188 45q52 37 135 164h12q-20 -128 -53 -258q-7 -30 -23.5 -39.5t-56.5 -9.5zM918 1718l167 -256l-12 -10l-268 147l-334 -145l-10 12l278 260q41 41 90 41q55 0 89 -49z" />
    <glyph glyph-name="Edieresis" unicode="&#xcb;" horiz-adv-x="1177" 
d="M952 0h-942l2 14q74 16 111 47q37 34 61 154l178 913q15 76 15 125q0 41 -25 60q-21 18 -94 39l2 14h883q47 0 47 -33q0 -41 -62 -254h-14q-21 138 -65 168q-29 19 -134 19h-182q-37 0 -52.5 -17.5t-23.5 -62.5l-86 -424h138q124 0 182 10q44 10 70 38t59 97h16l-78 -391
h-16q-5 67 -26 97t-74 40q-60 11 -152 11h-133l-84 -431q-12 -65 -12 -92q0 -43 90 -43h199q126 0 188 45q52 37 135 164h12q-20 -128 -53 -258q-7 -30 -23.5 -39.5t-56.5 -9.5zM729 1620q0 -61 -37 -101t-98 -40q-48 0 -79.5 30t-31.5 80q0 61 40.5 103.5t97.5 42.5
q50 0 79 -32t29 -83zM1114 1620q0 -61 -37 -101t-98 -40q-48 0 -79.5 30t-31.5 80q0 61 40.5 103.5t97.5 42.5q50 0 79 -32t29 -83z" />
    <glyph glyph-name="Igrave" unicode="&#xcc;" horiz-adv-x="788" 
d="M575 14l-2 -14h-563l4 14q85 22 119 62q25 32 60 192l163 826q21 105 21 161q0 42 -23 61t-94 36l2 14h563l-4 -14q-82 -20 -116 -54q-34 -30 -64 -192l-164 -840q-18 -92 -18 -155q0 -36 25.5 -58t90.5 -39zM481 1767l209 -292l-8 -11l-328 183q-88 52 -88 114
q0 41 28 66.5t68 25.5q57 0 119 -86z" />
    <glyph glyph-name="Iacute" unicode="&#xcd;" horiz-adv-x="788" 
d="M575 14l-2 -14h-563l4 14q85 22 119 62q25 32 60 192l163 826q21 105 21 161q0 42 -23 61t-94 36l2 14h563l-4 -14q-82 -20 -116 -54q-34 -30 -64 -192l-164 -840q-18 -92 -18 -155q0 -36 25.5 -58t90.5 -39zM784 1597l-356 -133l-8 13l260 266q57 63 115 63
q43 0 70.5 -27.5t27.5 -74.5q0 -66 -109 -107z" />
    <glyph glyph-name="Icircumflex" unicode="&#xce;" horiz-adv-x="788" 
d="M575 14l-2 -14h-563l4 14q85 22 119 62q25 32 60 192l163 826q21 105 21 161q0 42 -23 61t-94 36l2 14h563l-4 -14q-82 -20 -116 -54q-34 -30 -64 -192l-164 -840q-18 -92 -18 -155q0 -36 25.5 -58t90.5 -39zM700 1718l168 -256l-12 -10l-268 147l-334 -145l-10 12
l278 260q41 41 90 41q54 0 88 -49z" />
    <glyph glyph-name="Idieresis" unicode="&#xcf;" horiz-adv-x="788" 
d="M575 14l-2 -14h-563l4 14q85 22 119 62q25 32 60 192l163 826q21 105 21 161q0 42 -23 61t-94 36l2 14h563l-4 -14q-82 -20 -116 -54q-34 -30 -64 -192l-164 -840q-18 -92 -18 -155q0 -36 25.5 -58t90.5 -39zM516 1620q0 -61 -37 -101t-98 -40q-48 0 -79.5 30t-31.5 80
q0 61 40.5 103.5t97.5 42.5q50 0 79 -32t29 -83zM901 1620q0 -61 -37 -101t-98 -40q-48 0 -79.5 30t-31.5 80q0 61 40.5 103.5t97.5 42.5q50 0 79 -32t29 -83z" />
    <glyph glyph-name="Eth" unicode="&#xd0;" horiz-adv-x="1513" 
d="M651 0h-641l2 14q103 24 131 72q25 43 60 221l67 355h-188l24 114h187l55 277q27 132 27 198q0 42 -24 63t-93 38l2 14h574q336 0 477 -117q162 -128 162 -381q0 -369 -191 -612q-95 -123 -257 -189.5t-374 -66.5zM553 662l-76 -386q-16 -94 -16 -120q0 -38 28 -50
q35 -18 164 -18q107 0 194 43.5t145.5 117t98.5 174.5t58 212t18 233q0 172 -51 258q-82 150 -289 150h-30q-82 0 -111 -29q-22 -19 -49 -164l-62 -307h316l-23 -114h-315z" />
    <glyph glyph-name="Ntilde" unicode="&#xd1;" horiz-adv-x="1519" 
d="M424 14l-2 -14h-412l4 14q86 21 121 62q31 34 60 186q46 219 151 787q29 155 29 194q0 49 -27 70q-38 27 -92 39l2 14h387q41 0 57 -31q355 -761 433 -946q67 343 131 725q12 71 12 127q0 46 -28 69.5t-97 41.5l2 14h401l-2 -14q-65 -15 -110 -56q-44 -41 -70 -192
l-217 -1118h-153l-533 1208l-162 -924q-18 -120 -18 -151q0 -38 26 -58t107 -47zM1270 1729l14 -7q-18 -56 -49 -114q-57 -115 -156 -115q-52 0 -137 39q-87 43 -133 43q-73 0 -135 -96l-19 6q33 77 78 151q27 43 64 66q39 22 77 22q40 0 140 -47q78 -37 116 -37
q44 0 75.5 20.5t64.5 68.5z" />
    <glyph glyph-name="Ograve" unicode="&#xd2;" horiz-adv-x="1425" 
d="M1384 918q0 -211 -75 -424q-78 -222 -226 -355q-86 -80 -210.5 -123t-256.5 -43q-249 0 -383.5 138.5t-134.5 386.5q0 189 72 399q73 204 221 334q89 78 218 121t261 43q514 0 514 -477zM1075 987q0 166 -52 241t-167 75q-145 0 -248 -140q-86 -116 -145 -334
q-57 -206 -57 -411q0 -180 53.5 -265t171.5 -85q154 0 243 133q95 143 146 374q55 235 55 412zM797 1767l209 -292l-9 -11l-327 183q-88 52 -88 114q0 41 28 66.5t68 25.5q57 0 119 -86z" />
    <glyph glyph-name="Oacute" unicode="&#xd3;" horiz-adv-x="1425" 
d="M1384 918q0 -211 -75 -424q-78 -222 -226 -355q-86 -80 -210.5 -123t-256.5 -43q-249 0 -383.5 138.5t-134.5 386.5q0 189 72 399q73 204 221 334q89 78 218 121t261 43q514 0 514 -477zM1075 987q0 166 -52 241t-167 75q-145 0 -248 -140q-86 -116 -145 -334
q-57 -206 -57 -411q0 -180 53.5 -265t171.5 -85q154 0 243 133q95 143 146 374q55 235 55 412zM1130 1597l-356 -133l-8 13l260 266q57 63 115 63q43 0 70.5 -27.5t27.5 -74.5q0 -66 -109 -107z" />
    <glyph glyph-name="Ocircumflex" unicode="&#xd4;" horiz-adv-x="1425" 
d="M1384 918q0 -211 -75 -424q-78 -222 -226 -355q-86 -80 -210.5 -123t-256.5 -43q-249 0 -383.5 138.5t-134.5 386.5q0 189 72 399q73 204 221 334q89 78 218 121t261 43q514 0 514 -477zM1075 987q0 166 -52 241t-167 75q-145 0 -248 -140q-86 -116 -145 -334
q-57 -206 -57 -411q0 -180 53.5 -265t171.5 -85q154 0 243 133q95 143 146 374q55 235 55 412zM1030 1718l168 -256l-12 -10l-268 147l-334 -145l-11 12l279 260q41 41 90 41q54 0 88 -49z" />
    <glyph glyph-name="Otilde" unicode="&#xd5;" horiz-adv-x="1425" 
d="M1384 918q0 -211 -75 -424q-78 -222 -226 -355q-86 -80 -210.5 -123t-256.5 -43q-249 0 -383.5 138.5t-134.5 386.5q0 189 72 399q73 204 221 334q89 78 218 121t261 43q514 0 514 -477zM1075 987q0 166 -52 241t-167 75q-145 0 -248 -140q-86 -116 -145 -334
q-57 -206 -57 -411q0 -180 53.5 -265t171.5 -85q154 0 243 133q95 143 146 374q55 235 55 412zM1204 1729l15 -7q-17 -51 -50 -114q-57 -115 -155 -115q-52 0 -137 39q-87 43 -134 43q-73 0 -135 -96l-18 6q33 77 78 151q28 44 63 66q39 22 78 22t139 -47q78 -37 117 -37
q44 0 75 20.5t64 68.5z" />
    <glyph glyph-name="Odieresis" unicode="&#xd6;" horiz-adv-x="1425" 
d="M1384 918q0 -211 -75 -424q-78 -222 -226 -355q-86 -80 -210.5 -123t-256.5 -43q-249 0 -383.5 138.5t-134.5 386.5q0 189 72 399q73 204 221 334q89 78 218 121t261 43q514 0 514 -477zM1075 987q0 166 -52 241t-167 75q-145 0 -248 -140q-86 -116 -145 -334
q-57 -206 -57 -411q0 -180 53.5 -265t171.5 -85q154 0 243 133q95 143 146 374q55 235 55 412zM872 1620q0 -61 -37 -101t-98 -40q-48 0 -79 30t-31 80q0 61 40 103.5t97 42.5q50 0 79 -32t29 -83zM1257 1620q0 -61 -37 -101t-98 -40q-48 0 -79 30t-31 80q0 61 40 103.5
t97 42.5q50 0 79 -32t29 -83z" />
    <glyph glyph-name="multiply" unicode="&#xd7;" horiz-adv-x="1302" 
d="M645 446l-311 -278l-96 113l305 282l-246 277l119 110l248 -276l307 278l96 -116l-305 -277l248 -274l-119 -113z" />
    <glyph glyph-name="Oslash" unicode="&#xd8;" horiz-adv-x="1425" 
d="M283 68l-95 -119l-65 47l100 127q-125 137 -125 375q0 189 72 399q73 204 221 334q89 78 218 121t261 43q180 0 299 -64l119 152l68 -49l-117 -148q145 -121 145 -368q0 -211 -75 -424q-78 -222 -226 -355q-86 -80 -210.5 -123t-256.5 -43q-203 0 -333 95zM1075 987
q0 18 -4 84l-649 -825q43 -178 209 -178q154 0 243 133q95 143 146 374q55 235 55 412zM406 418q0 -48 2 -60l641 818q-47 127 -193 127q-145 0 -248 -140q-86 -116 -145 -334q-57 -206 -57 -411z" />
    <glyph glyph-name="Ugrave" unicode="&#xd9;" horiz-adv-x="1497" 
d="M246 1352l2 14h565l-2 -14q-86 -19 -119 -52q-29 -29 -53 -149l-121 -619q-26 -127 -26 -235q0 -219 258 -219q178 0 278 112q82 88 123 304l119 606q18 88 18 141q0 50 -25.5 71.5t-99.5 39.5l4 14h402l-2 -14q-40 -8 -82 -27q-65 -35 -92 -180l-117 -613
q-52 -278 -141 -380q-156 -179 -482 -179q-123 0 -217 27q-100 31 -163.5 111.5t-63.5 201.5q0 81 31 256l108 553q14 71 14 138q0 37 -24 55.5t-92 36.5zM868 1767l209 -292l-8 -11l-328 183q-88 52 -88 114q0 41 28.5 66.5t68.5 25.5q56 0 118 -86z" />
    <glyph glyph-name="Uacute" unicode="&#xda;" horiz-adv-x="1497" 
d="M246 1352l2 14h565l-2 -14q-86 -19 -119 -52q-29 -29 -53 -149l-121 -619q-26 -127 -26 -235q0 -219 258 -219q178 0 278 112q82 88 123 304l119 606q18 88 18 141q0 50 -25.5 71.5t-99.5 39.5l4 14h402l-2 -14q-40 -8 -82 -27q-65 -35 -92 -180l-117 -613
q-52 -278 -141 -380q-156 -179 -482 -179q-123 0 -217 27q-100 31 -163.5 111.5t-63.5 201.5q0 81 31 256l108 553q14 71 14 138q0 37 -24 55.5t-92 36.5zM1174 1597l-357 -133l-8 13l260 266q57 63 115 63q43 0 70.5 -27.5t27.5 -74.5q0 -67 -108 -107z" />
    <glyph glyph-name="Ucircumflex" unicode="&#xdb;" horiz-adv-x="1497" 
d="M246 1352l2 14h565l-2 -14q-86 -19 -119 -52q-29 -29 -53 -149l-121 -619q-26 -127 -26 -235q0 -219 258 -219q178 0 278 112q82 88 123 304l119 606q18 88 18 141q0 50 -25.5 71.5t-99.5 39.5l4 14h402l-2 -14q-40 -8 -82 -27q-65 -35 -92 -180l-117 -613
q-52 -278 -141 -380q-156 -179 -482 -179q-123 0 -217 27q-100 31 -163.5 111.5t-63.5 201.5q0 81 31 256l108 553q14 71 14 138q0 37 -24 55.5t-92 36.5zM1077 1718l168 -256l-12 -10l-268 147l-334 -145l-10 12l278 260q41 41 90 41q54 0 88 -49z" />
    <glyph glyph-name="Udieresis" unicode="&#xdc;" horiz-adv-x="1497" 
d="M246 1352l2 14h565l-2 -14q-86 -19 -119 -52q-29 -29 -53 -149l-121 -619q-26 -127 -26 -235q0 -219 258 -219q178 0 278 112q82 88 123 304l119 606q18 88 18 141q0 50 -25.5 71.5t-99.5 39.5l4 14h402l-2 -14q-40 -8 -82 -27q-65 -35 -92 -180l-117 -613
q-52 -278 -141 -380q-156 -179 -482 -179q-123 0 -217 27q-100 31 -163.5 111.5t-63.5 201.5q0 81 31 256l108 553q14 71 14 138q0 37 -24 55.5t-92 36.5zM881 1620q0 -61 -37.5 -101t-98.5 -40q-48 0 -79 30t-31 80q0 61 40 103.5t97 42.5q50 0 79.5 -32t29.5 -83z
M1266 1620q0 -61 -37.5 -101t-98.5 -40q-48 0 -79 30t-31 80q0 61 40 103.5t97 42.5q50 0 79.5 -32t29.5 -83z" />
    <glyph glyph-name="Yacute" unicode="&#xdd;" horiz-adv-x="1271" 
d="M829 14l-4 -14h-575l2 14q101 21 127 64q27 35 57 203l60 325l-236 602q-35 86 -70 117q-25 19 -57 27l2 14h527l-3 -14q-77 -15 -92 -27q-18 -9 -18 -33q0 -28 24 -92q135 -361 179 -487l55 80l123 168l170 235q43 61 43 92q0 21 -25 37q-35 21 -76 27l2 14h381l-2 -14
q-22 -7 -69 -31q-46 -25 -117 -115l-442 -559l-70 -375q-20 -97 -20 -157q0 -33 27 -55.5t97 -45.5zM1092 1597l-357 -133l-8 13l260 266q57 63 115 63q43 0 70.5 -27.5t27.5 -74.5q0 -67 -108 -107z" />
    <glyph glyph-name="Thorn" unicode="&#xde;" horiz-adv-x="1288" 
d="M584 14l-2 -14h-572l2 14q88 21 123 62q26 33 60 194l159 813q23 118 23 170q0 40 -27 64q-30 24 -92 35l2 14h565l-4 -14q-93 -18 -121 -54q-30 -38 -59 -196l-4 -25q43 6 127 6q475 0 475 -311q0 -238 -172 -352q-169 -111 -440 -111q-40 0 -142 4l-12 -73
q-16 -106 -16 -127q0 -34 28 -56q36 -28 99 -43zM602 909l-98 -503q40 -3 110 -3q158 0 241 101.5t83 277.5q0 58 -23 108.5t-61 70.5q-56 30 -164 30q-43 0 -60 -16.5t-28 -65.5z" />
    <glyph glyph-name="germandbls" unicode="&#xdf;" horiz-adv-x="1220" 
d="M-295 -215h14q47 -170 152 -170q84 0 127 88q37 77 100 416l133 717q46 246 88 358q45 114 148 195q126 102 344 102q352 0 352 -246q0 -90 -47 -155q-48 -66 -158 -154l-110 -88q-57 -45 -57 -88q0 -19 15 -38t66 -63l76 -65q92 -79 127 -141t35 -142q0 -135 -117 -237
q-116 -101 -323 -101q-121 0 -191 37q-33 17 -33 66q0 73 25 176h14q24 -95 78.5 -151t128.5 -56q187 0 187 174q0 94 -127 197l-54 43q-147 120 -147 198q0 51 34.5 99.5t135.5 134.5l102 88q129 114 129 276q0 74 -43.5 119t-117.5 45q-113 0 -166 -92q-45 -74 -86 -291
l-138 -719q-60 -306 -127 -473q-53 -140 -176 -219q-119 -82 -256 -82q-93 0 -137 27q-29 16 -29 55q0 65 29 160z" />
    <glyph glyph-name="agrave" unicode="&#xe0;" horiz-adv-x="1146" 
d="M1040 86l2 -10q-59 -38 -145.5 -65t-159.5 -27q-104 0 -104 106q0 107 33 248q-181 -365 -433 -365q-87 0 -143 50q-53 53 -53 200q0 168 84 371q85 201 211 303q145 115 366 115q93 0 213 -19q114 -18 160 -43q-65 -77 -153 -594q-21 -117 -21 -202q0 -35 18 -54.5
t46 -19.5q35 0 79 6zM766 883q0 25 -21 37q-15 12 -71 12q-86 0 -152 -66q-74 -80 -141 -282q-68 -201 -67.5 -324t73.5 -123q61 0 133 68.5t117 167.5q62 124 119 424q10 65 10 86zM647 1442l160 -305l-10 -11l-285 191q-74 50 -74 106q0 43 29.5 71t71.5 28q64 0 108 -80z
" />
    <glyph glyph-name="aacute" unicode="&#xe1;" horiz-adv-x="1146" 
d="M1040 86l2 -10q-59 -38 -145.5 -65t-159.5 -27q-104 0 -104 106q0 107 33 248q-181 -365 -433 -365q-87 0 -143 50q-53 53 -53 200q0 168 84 371q85 201 211 303q145 115 366 115q93 0 213 -19q114 -18 160 -43q-65 -77 -153 -594q-21 -117 -21 -202q0 -35 18 -54.5
t46 -19.5q35 0 79 6zM766 883q0 25 -21 37q-15 12 -71 12q-86 0 -152 -66q-74 -80 -141 -282q-68 -201 -67.5 -324t73.5 -123q61 0 133 68.5t117 167.5q62 124 119 424q10 65 10 86zM963 1307l-328 -181l-8 11l209 297q32 45 56 62t60 17q45 0 73 -26t28 -68q0 -65 -90 -112
z" />
    <glyph glyph-name="acircumflex" unicode="&#xe2;" horiz-adv-x="1146" 
d="M1040 86l2 -10q-59 -38 -145.5 -65t-159.5 -27q-104 0 -104 106q0 107 33 248q-181 -365 -433 -365q-87 0 -143 50q-53 53 -53 200q0 168 84 371q85 201 211 303q145 115 366 115q93 0 213 -19q114 -18 160 -43q-65 -77 -153 -594q-21 -117 -21 -202q0 -35 18 -54.5
t46 -19.5q35 0 79 6zM766 883q0 25 -21 37q-15 12 -71 12q-86 0 -152 -66q-74 -80 -141 -282q-68 -201 -67.5 -324t73.5 -123q61 0 133 68.5t117 167.5q62 124 119 424q10 65 10 86zM872 1425l140 -290l-13 -11l-239 179l-309 -179l-11 11l254 297q44 55 98 53.5t80 -60.5z
" />
    <glyph glyph-name="atilde" unicode="&#xe3;" horiz-adv-x="1146" 
d="M1040 86l2 -10q-59 -38 -145.5 -65t-159.5 -27q-104 0 -104 106q0 107 33 248q-181 -365 -433 -365q-87 0 -143 50q-53 53 -53 200q0 168 84 371q85 201 211 303q145 115 366 115q93 0 213 -19q114 -18 160 -43q-65 -77 -153 -594q-21 -117 -21 -202q0 -35 18 -54.5
t46 -19.5q35 0 79 6zM766 883q0 25 -21 37q-15 12 -71 12q-86 0 -152 -66q-74 -80 -141 -282q-68 -201 -67.5 -324t73.5 -123q61 0 133 68.5t117 167.5q62 124 119 424q10 65 10 86zM1028 1407l14 -6q-76 -230 -194 -230q-47 0 -137 41q-78 37 -115 37q-78 0 -137 -92l-17 4
q31 78 45 109q23 50 69 92.5t91 42.5q47 0 123 -43q82 -43 123 -43q42 0 69.5 18.5t65.5 69.5z" />
    <glyph glyph-name="adieresis" unicode="&#xe4;" horiz-adv-x="1146" 
d="M1040 86l2 -10q-59 -38 -145.5 -65t-159.5 -27q-104 0 -104 106q0 107 33 248q-181 -365 -433 -365q-87 0 -143 50q-53 53 -53 200q0 168 84 371q85 201 211 303q145 115 366 115q93 0 213 -19q114 -18 160 -43q-65 -77 -153 -594q-21 -117 -21 -202q0 -35 18 -54.5
t46 -19.5q35 0 79 6zM766 883q0 25 -21 37q-15 12 -71 12q-86 0 -152 -66q-74 -80 -141 -282q-68 -201 -67.5 -324t73.5 -123q61 0 133 68.5t117 167.5q62 124 119 424q10 65 10 86zM686 1303q0 -59 -37.5 -100.5t-97.5 -41.5q-48 0 -78.5 31t-30.5 80q0 61 39.5 103
t96.5 42q50 0 79 -31t29 -83zM1044 1303q0 -59 -37.5 -100.5t-95.5 -41.5q-49 0 -79.5 30.5t-30.5 80.5q0 61 40 103t97 42q49 0 77.5 -31t28.5 -83z" />
    <glyph glyph-name="aring" unicode="&#xe5;" horiz-adv-x="1146" 
d="M1040 86l2 -10q-59 -38 -145.5 -65t-159.5 -27q-104 0 -104 106q0 107 33 248q-181 -365 -433 -365q-87 0 -143 50q-53 53 -53 200q0 168 84 371q85 201 211 303q145 115 366 115q93 0 213 -19q114 -18 160 -43q-65 -77 -153 -594q-21 -117 -21 -202q0 -35 18 -54.5
t46 -19.5q35 0 79 6zM766 883q0 25 -21 37q-15 12 -71 12q-86 0 -152 -66q-74 -80 -141 -282q-68 -201 -67.5 -324t73.5 -123q61 0 133 68.5t117 167.5q62 124 119 424q10 65 10 86zM920 1325q0 -83 -53 -136.5t-138 -53.5q-73 0 -119.5 45.5t-46.5 117.5q0 82 54.5 135.5
t138.5 53.5q75 0 119.5 -44t44.5 -118zM858 1319q0 49 -31.5 81t-78.5 32q-54 0 -87.5 -37.5t-33.5 -94.5q0 -49 29 -79.5t81 -30.5q51 0 86 37t35 92z" />
    <glyph glyph-name="ae" unicode="&#xe6;" horiz-adv-x="1425" 
d="M608 156q-121 -183 -332 -183q-119 0 -185 72t-66 182q0 102 62 170.5t175 94.5q143 31 359 34l12 72q10 85 10 115q0 69 -49.5 103t-132.5 34q-176 0 -283 -88l-8 4q3 30 6 33q21 87 129 150t281 63q204 0 256 -119q51 52 128.5 85.5t155.5 33.5q277 0 277 -205
q0 -310 -524 -328q-17 -80 -17 -170q0 -188 168 -188q141 0 248 98l12 -6q0 -13 -8 -37q-7 -28 -35 -59q-53 -61 -150.5 -102.5t-209.5 -41.5q-226 0 -279 183zM596 219q-6 62 -6 72q0 70 18 184q-159 -16 -223 -47q-96 -47 -96 -156q0 -71 34 -108t93 -37q91 0 180 92z
M891 530q71 8 126.5 33t89 57t55.5 73t30 78.5t8 76.5q0 49 -18.5 68.5t-57.5 19.5q-75 0 -133 -88q-55 -81 -100 -318z" />
    <glyph glyph-name="ccedilla" unicode="&#xe7;" horiz-adv-x="872" 
d="M125 -401v8l8 4q25 -25 92 -25q50 0 83.5 28t33.5 81q0 42 -25 67t-63 25q-9 0 -41 -4l-8 6l90 186q-252 24 -252 293q0 174 61 342q62 170 156 264q132 138 358 138q107 0 183 -29q45 -17 45 -53q0 -78 -55 -203h-15q-32 119 -68 164t-94 45q-83 0 -143 -78
q-60 -80 -106 -244q-41 -158 -41 -309q0 -184 157 -184q151 0 258 98l6 -4q0 -26 -10 -49q-18 -37 -47 -66q-130 -124 -342 -127l-39 -94q101 0 152 -42t51 -116q0 -94 -73.5 -150t-182.5 -56q-96 0 -117 34q-12 15 -12 50z" />
    <glyph glyph-name="egrave" unicode="&#xe8;" horiz-adv-x="901" 
d="M750 221l6 -4q0 -18 -6 -39q-8 -21 -33 -57q-53 -61 -153.5 -104.5t-211.5 -43.5q-153 0 -231 71t-78 235q0 141 61 315q61 173 154 274q138 144 350 144q135 0 202 -45.5t67 -151.5q0 -70 -62 -156q-54 -79 -174 -132t-307 -54q-15 -89 -15 -166q3 -186 173 -186
q67 0 140 29t118 71zM340 514q163 30 250.5 121t87.5 217q0 90 -84 90q-155 0 -254 -428zM518 1442l160 -305l-10 -11l-285 191q-74 50 -74 106q0 43 29.5 71t71.5 28q64 0 108 -80z" />
    <glyph glyph-name="eacute" unicode="&#xe9;" horiz-adv-x="901" 
d="M750 221l6 -4q0 -18 -6 -39q-8 -21 -33 -57q-53 -61 -153.5 -104.5t-211.5 -43.5q-153 0 -231 71t-78 235q0 141 61 315q61 173 154 274q138 144 350 144q135 0 202 -45.5t67 -151.5q0 -70 -62 -156q-54 -79 -174 -132t-307 -54q-15 -89 -15 -166q3 -186 173 -186
q67 0 140 29t118 71zM340 514q163 30 250.5 121t87.5 217q0 90 -84 90q-155 0 -254 -428zM852 1307l-328 -181l-8 11l209 297q32 44 56.5 61.5t60.5 17.5q45 0 72.5 -26t27.5 -68q0 -65 -90 -112z" />
    <glyph glyph-name="ecircumflex" unicode="&#xea;" horiz-adv-x="901" 
d="M750 221l6 -4q0 -18 -6 -39q-8 -21 -33 -57q-53 -61 -153.5 -104.5t-211.5 -43.5q-153 0 -231 71t-78 235q0 141 61 315q61 173 154 274q138 144 350 144q135 0 202 -45.5t67 -151.5q0 -70 -62 -156q-54 -79 -174 -132t-307 -54q-15 -89 -15 -166q3 -186 173 -186
q67 0 140 29t118 71zM340 514q163 30 250.5 121t87.5 217q0 90 -84 90q-155 0 -254 -428zM776 1425l139 -290l-12 -11l-239 179l-310 -179l-10 11l254 297q44 55 98 53.5t80 -60.5z" />
    <glyph glyph-name="edieresis" unicode="&#xeb;" horiz-adv-x="901" 
d="M750 221l6 -4q0 -18 -6 -39q-8 -21 -33 -57q-53 -61 -153.5 -104.5t-211.5 -43.5q-153 0 -231 71t-78 235q0 141 61 315q61 173 154 274q138 144 350 144q135 0 202 -45.5t67 -151.5q0 -70 -62 -156q-54 -79 -174 -132t-307 -54q-15 -89 -15 -166q3 -186 173 -186
q67 0 140 29t118 71zM340 514q163 30 250.5 121t87.5 217q0 90 -84 90q-155 0 -254 -428zM594 1303q0 -59 -37.5 -100.5t-97.5 -41.5q-48 0 -78.5 31t-30.5 80q0 61 39 103t96 42q50 0 79.5 -31t29.5 -83zM952 1303q0 -59 -37.5 -100.5t-95.5 -41.5q-49 0 -79.5 30.5
t-30.5 80.5q0 61 40 103t97 42q49 0 77.5 -31t28.5 -83z" />
    <glyph glyph-name="igrave" unicode="&#xec;" horiz-adv-x="628" 
d="M293 1442l160 -305l-11 -11l-284 191q-74 50 -74 106q0 43 29 71t71 28q65 0 109 -80zM496 88l2 -12q-70 -41 -156 -66q-88 -26 -164 -26q-100 0 -100 94q0 42 37 196l75 342q35 161 35 232q0 47 -22 63q-35 27 -86 27v10q154 56 313 56q43 0 59.5 -15t16.5 -49
q0 -41 -35 -213l-80 -385q-34 -154 -30.5 -207t61.5 -53q12 0 74 6z" />
    <glyph glyph-name="iacute" unicode="&#xed;" horiz-adv-x="628" 
d="M532 1307l-327 -181l-8 11l209 297q32 45 56 62t60 17q45 0 73 -26t28 -68q0 -64 -91 -112zM430 88l2 -12q-70 -41 -156 -66q-88 -26 -163 -26q-101 0 -101 94q0 42 37 196l76 342q35 161 35 232q0 47 -23 63q-34 27 -86 27v10q154 56 314 56q43 0 59 -15t16 -49
q0 -46 -34 -213l-80 -385q-34 -154 -31 -207t61 -53q12 0 74 6z" />
    <glyph glyph-name="icircumflex" unicode="&#xee;" horiz-adv-x="628" 
d="M496 88l2 -12q-70 -41 -156 -66q-88 -26 -164 -26q-100 0 -100 94q0 42 37 196l75 342q35 161 35 232q0 47 -22 63q-35 27 -86 27v10q154 56 313 56q43 0 59.5 -15t16.5 -49q0 -41 -35 -213l-80 -385q-34 -154 -30.5 -207t61.5 -53q12 0 74 6zM512 1425l139 -290l-12 -11
l-240 179l-309 -179l-10 11l254 297q44 55 98 53.5t80 -60.5z" />
    <glyph glyph-name="idieresis" unicode="&#xef;" horiz-adv-x="628" 
d="M336 1303q0 -59 -37.5 -100.5t-97.5 -41.5q-48 0 -78.5 31t-30.5 80q0 61 39 103t96 42q50 0 79.5 -31t29.5 -83zM694 1303q0 -59 -37.5 -100.5t-95.5 -41.5q-49 0 -79.5 30.5t-30.5 80.5q0 61 40 103t97 42q49 0 77.5 -31t28.5 -83zM496 88l2 -12q-70 -41 -156 -66
q-88 -26 -164 -26q-100 0 -100 94q0 42 37 196l75 342q35 161 35 232q0 47 -22 63q-35 27 -86 27v10q154 56 313 56q43 0 59.5 -15t16.5 -49q0 -41 -35 -213l-80 -385q-34 -154 -30.5 -207t61.5 -53q12 0 74 6z" />
    <glyph glyph-name="eth" unicode="&#xf0;" horiz-adv-x="1052" 
d="M954 1415l52 -88l-162 -90q133 -207 133 -459q0 -445 -186 -655q-129 -150 -363 -150q-176 0 -272.5 103.5t-96.5 279.5q0 308 179 502q121 133 313 133q128 0 174 -67q-3 115 -39 227l-174 -96l-49 86l186 102q-76 155 -180 211l29 51q165 -49 284 -186zM711 764
q0 147 -123 147q-90 0 -142 -98q-54 -108 -94 -293q-41 -190 -41 -307q0 -166 123 -166q104 0 156 123q50 120 84 307q37 185 37 287z" />
    <glyph glyph-name="ntilde" unicode="&#xf1;" horiz-adv-x="1165" 
d="M412 483l-101 -483h-256l117 549q41 196 41 301q0 43 -14 57q-26 26 -93 29v12q133 56 304 56q43 0 61 -14t18 -50q0 -84 -51 -272q55 131 176 235q127 109 263 109q80 0 115.5 -30.5t35.5 -107.5q0 -96 -96 -536q-36 -141 -32.5 -198.5t65.5 -57.5q7 0 69 6l2 -12
q-62 -38 -153 -65t-160 -27q-96 0 -96 86q0 28 35 200q102 473 102 512q0 36 -13 51t-44 15q-51 0 -116.5 -47t-103.5 -113q-47 -73 -75 -205zM967 1407l14 -6q-76 -230 -195 -230q-47 0 -137 41q-78 37 -114 37q-79 0 -138 -92l-16 4q31 78 45 109q23 50 69 92.5t91 42.5
q47 0 123 -43q82 -43 122 -43q42 0 70 18.5t66 69.5z" />
    <glyph glyph-name="ograve" unicode="&#xf2;" horiz-adv-x="1044" 
d="M973 666q0 -151 -45 -293q-44 -147 -131 -248q-134 -152 -379 -152q-171 0 -266 100.5t-95 278.5q0 327 189 525q129 135 366 135q172 0 266.5 -88.5t94.5 -257.5zM719 788q0 152 -123 152q-85 0 -143 -104q-54 -105 -101 -301q-43 -191 -43 -322q0 -168 123 -168
q109 0 164 131q47 121 84 313q39 186 39 299zM573 1442l160 -305l-10 -11l-285 191q-73 49 -73 106q0 43 29 71t71 28q64 0 108 -80z" />
    <glyph glyph-name="oacute" unicode="&#xf3;" horiz-adv-x="1044" 
d="M973 666q0 -151 -45 -293q-44 -147 -131 -248q-134 -152 -379 -152q-171 0 -266 100.5t-95 278.5q0 327 189 525q129 135 366 135q172 0 266.5 -88.5t94.5 -257.5zM719 788q0 152 -123 152q-85 0 -143 -104q-54 -105 -101 -301q-43 -191 -43 -322q0 -168 123 -168
q109 0 164 131q47 121 84 313q39 186 39 299zM829 1307l-327 -181l-8 11l208 297q32 44 56.5 61.5t60.5 17.5q45 0 73 -26t28 -68q0 -64 -91 -112z" />
    <glyph glyph-name="ocircumflex" unicode="&#xf4;" horiz-adv-x="1044" 
d="M973 666q0 -151 -45 -293q-44 -147 -131 -248q-134 -152 -379 -152q-171 0 -266 100.5t-95 278.5q0 327 189 525q129 135 366 135q172 0 266.5 -88.5t94.5 -257.5zM719 788q0 152 -123 152q-85 0 -143 -104q-54 -105 -101 -301q-43 -191 -43 -322q0 -168 123 -168
q109 0 164 131q47 121 84 313q39 186 39 299zM774 1425l139 -290l-12 -11l-239 179l-310 -179l-10 11l254 297q44 55 98 53.5t80 -60.5z" />
    <glyph glyph-name="otilde" unicode="&#xf5;" horiz-adv-x="1044" 
d="M973 666q0 -151 -45 -293q-44 -147 -131 -248q-134 -152 -379 -152q-171 0 -266 100.5t-95 278.5q0 327 189 525q129 135 366 135q172 0 266.5 -88.5t94.5 -257.5zM719 788q0 152 -123 152q-85 0 -143 -104q-54 -105 -101 -301q-43 -191 -43 -322q0 -168 123 -168
q109 0 164 131q47 121 84 313q39 186 39 299zM946 1407l15 -6q-76 -230 -195 -230q-47 0 -137 41q-78 37 -115 37q-78 0 -137 -92l-17 4q22 55 46 109q24 50 69 92.5t90 42.5q47 0 123 -43q82 -43 123 -43q42 0 69.5 18.5t65.5 69.5z" />
    <glyph glyph-name="odieresis" unicode="&#xf6;" horiz-adv-x="1044" 
d="M973 666q0 -151 -45 -293q-44 -147 -131 -248q-134 -152 -379 -152q-171 0 -266 100.5t-95 278.5q0 327 189 525q129 135 366 135q172 0 266.5 -88.5t94.5 -257.5zM719 788q0 152 -123 152q-85 0 -143 -104q-54 -105 -101 -301q-43 -191 -43 -322q0 -168 123 -168
q109 0 164 131q47 121 84 313q39 186 39 299zM600 1303q0 -59 -37.5 -100.5t-97.5 -41.5q-48 0 -78.5 31t-30.5 80q0 61 39.5 103t96.5 42q50 0 79 -31t29 -83zM958 1303q0 -59 -37.5 -100.5t-95.5 -41.5q-49 0 -79.5 30.5t-30.5 80.5q0 61 40 103t97 42q49 0 77.5 -31
t28.5 -83z" />
    <glyph glyph-name="divide" unicode="&#xf7;" horiz-adv-x="1302" 
d="M811 879q0 -55 -34.5 -92t-90.5 -37q-45 0 -73.5 27.5t-28.5 74.5q0 57 36.5 95t90.5 38q47 0 73.5 -29t26.5 -77zM176 635h952l-30 -158h-951zM690 260q0 -55 -35 -91t-90 -36q-45 0 -73.5 27t-28.5 73q0 57 36.5 95.5t90.5 38.5q47 0 73.5 -29.5t26.5 -77.5z" />
    <glyph glyph-name="oslash" unicode="&#xf8;" horiz-adv-x="1044" 
d="M217 29l-80 -113l-53 37l82 115q-109 106 -109 288q0 323 189 518q132 138 368 138q110 0 197 -41l88 123l59 -39l-88 -121q109 -89 109 -266q0 -150 -46 -298.5t-130 -244.5q-61 -69 -160 -110.5t-209 -41.5q-128 0 -217 56zM602 174q39 100 74 268q37 174 45 285
l-408 -567q18 -115 121 -115q116 0 168 129zM453 836q-53 -92 -93 -261q-40 -168 -49 -305l408 574q-21 96 -115 96q-93 0 -151 -104z" />
    <glyph glyph-name="ugrave" unicode="&#xf9;" horiz-adv-x="1161" 
d="M1051 86l2 -10q-142 -92 -295 -92q-107 0 -107 118q0 79 37 224q-67 -137 -188 -246q-119 -107 -250 -107q-79 0 -117.5 36.5t-38.5 123.5q0 104 88 483q33 132 33 236q0 51 -35 66q-38 15 -78 18v10q63 27 154 41q112 17 164 17q48 0 65 -17q19 -16 19 -51
q0 -34 -41 -215q-105 -443 -105 -510q0 -59 56 -59q94 0 202 141q63 84 101 258l88 434h256l-111 -539q-45 -213 -45 -278q0 -86 76 -86q16 0 70 4zM573 1446l160 -305l-10 -11l-285 191q-73 49 -73 106q0 43 29 71t71 28q64 0 108 -80z" />
    <glyph glyph-name="uacute" unicode="&#xfa;" horiz-adv-x="1161" 
d="M1051 86l2 -10q-142 -92 -295 -92q-107 0 -107 118q0 79 37 224q-67 -137 -188 -246q-119 -107 -250 -107q-79 0 -117.5 36.5t-38.5 123.5q0 104 88 483q33 132 33 236q0 51 -35 66q-38 15 -78 18v10q63 27 154 41q112 17 164 17q48 0 65 -17q19 -16 19 -51
q0 -34 -41 -215q-105 -443 -105 -510q0 -59 56 -59q94 0 202 141q63 84 101 258l88 434h256l-111 -539q-45 -213 -45 -278q0 -86 76 -86q16 0 70 4zM893 1307l-328 -181l-8 11l209 297q32 44 56.5 61.5t60.5 17.5q45 0 72.5 -26t27.5 -68q0 -65 -90 -112z" />
    <glyph glyph-name="ucircumflex" unicode="&#xfb;" horiz-adv-x="1161" 
d="M1051 86l2 -10q-142 -92 -295 -92q-107 0 -107 118q0 79 37 224q-67 -137 -188 -246q-119 -107 -250 -107q-79 0 -117.5 36.5t-38.5 123.5q0 104 88 483q33 132 33 236q0 51 -35 66q-38 15 -78 18v10q63 27 154 41q112 17 164 17q48 0 65 -17q19 -16 19 -51
q0 -34 -41 -215q-105 -443 -105 -510q0 -59 56 -59q94 0 202 141q63 84 101 258l88 434h256l-111 -539q-45 -213 -45 -278q0 -86 76 -86q16 0 70 4zM819 1425l139 -290l-12 -11l-239 179l-310 -179l-10 11l254 297q44 55 98 53.5t80 -60.5z" />
    <glyph glyph-name="udieresis" unicode="&#xfc;" horiz-adv-x="1161" 
d="M1051 86l2 -10q-142 -92 -295 -92q-107 0 -107 118q0 79 37 224q-67 -137 -188 -246q-119 -107 -250 -107q-79 0 -117.5 36.5t-38.5 123.5q0 104 88 483q33 132 33 236q0 51 -35 66q-38 15 -78 18v10q63 27 154 41q112 17 164 17q48 0 65 -17q19 -16 19 -51
q0 -34 -41 -215q-105 -443 -105 -510q0 -59 56 -59q94 0 202 141q63 84 101 258l88 434h256l-111 -539q-45 -213 -45 -278q0 -86 76 -86q16 0 70 4zM631 1303q0 -59 -37.5 -100.5t-97.5 -41.5q-48 0 -78.5 31t-30.5 80q0 61 39 103t96 42q50 0 79.5 -31t29.5 -83zM989 1303
q0 -59 -37.5 -100.5t-95.5 -41.5q-50 0 -80.5 30.5t-30.5 80.5q0 61 40.5 103t97.5 42q49 0 77.5 -31t28.5 -83z" />
    <glyph glyph-name="yacute" unicode="&#xfd;" horiz-adv-x="1003" 
d="M-193 -258h19q7 -48 30.5 -76t53.5 -28q63 0 127 55q138 119 280 309h-122l-37 780q-3 98 -33 121q-27 21 -86 27v12q56 27 158 47q118 23 165 23q39 0 48 -45q6 -35 6 -129l8 -365l8 -346q82 135 165.5 275t84.5 141q123 215 123 327q0 39 -41 54q-39 12 -66 14l-2 12
q49 25 127 43q87 19 115 19q31 0 43 -8.5t12 -32.5q0 -78 -155 -340q-128 -218 -430 -639q-183 -257 -330 -398q-108 -102 -211 -102q-90 0 -90 72q0 76 30 178zM858 1307l-328 -181l-8 11l209 297q32 44 56.5 61.5t60.5 17.5q45 0 72.5 -26t27.5 -68q0 -65 -90 -112z" />
    <glyph glyph-name="thorn" unicode="&#xfe;" horiz-adv-x="1144" 
d="M399 -440l-2 -11h-544l2 11q79 28 104 63q30 45 47 135l250 1203q59 281 59 378q0 41 -10 58q-18 30 -94 39v12q180 49 336 49q32 0 45.5 -12t13.5 -43q0 -45 -33 -197q-90 -411 -133 -573q71 155 191 246q122 94 235 94q107 0 151 -56.5t44 -201.5q0 -148 -64 -334
q-62 -188 -163 -295q-149 -152 -383 -152q-76 0 -144 19l-45 -219q-12 -61 -12 -105q0 -36 29 -57.5t120 -50.5zM365 264l-25 -147q0 -27 22 -43q32 -19 97 -19q103 0 170 107q48 77 98 272q49 192 49 285q0 127 -84 127q-62 0 -134.5 -72.5t-117.5 -198.5q-24 -72 -43 -155
z" />
    <glyph glyph-name="ydieresis" unicode="&#xff;" horiz-adv-x="1003" 
d="M-193 -258h19q7 -48 30.5 -76t53.5 -28q63 0 127 55q138 119 280 309h-122l-37 780q-3 98 -33 121q-27 21 -86 27v12q56 27 158 47q118 23 165 23q39 0 48 -45q6 -35 6 -129l8 -365l8 -346q82 135 165.5 275t84.5 141q123 215 123 327q0 39 -41 54q-39 12 -66 14l-2 12
q49 25 127 43q87 19 115 19q31 0 43 -8.5t12 -32.5q0 -78 -155 -340q-128 -218 -430 -639q-183 -257 -330 -398q-108 -102 -211 -102q-90 0 -90 72q0 76 30 178zM567 1303q0 -59 -37.5 -100.5t-97.5 -41.5q-47 0 -77.5 31t-30.5 80q0 61 39 103t96 42q50 0 79 -31t29 -83z
M926 1303q0 -59 -37.5 -100.5t-95.5 -41.5q-49 0 -80 30.5t-31 80.5q0 61 40 103t97 42q49 0 78 -31.5t29 -82.5z" />
    <glyph glyph-name="Amacron" unicode="&#x100;" horiz-adv-x="1384" 
d="M293 14l-4 -14h-387l4 14q37 6 74 31q44 25 86 96l524 910l180 315h188q0 -5 46 -303l122 -852q11 -72 21.5 -102.5t32.5 -53.5q27 -27 88 -41l-2 -14h-555l2 14q62 14 94 35q39 20 39 74q0 44 -8 96l-33 246h-438l-156 -281q-37 -64 -37 -102q0 -29 27 -41
q35 -15 92 -27zM418 561h375q-52 395 -68 559q-57 -112 -307 -559zM1176 1645l-27 -140h-567l26 140h568z" />
    <glyph glyph-name="amacron" unicode="&#x101;" horiz-adv-x="1146" 
d="M1040 86l2 -10q-59 -38 -145.5 -65t-159.5 -27q-104 0 -104 106q0 107 33 248q-181 -365 -433 -365q-87 0 -143 50q-53 53 -53 200q0 168 84 371q85 201 211 303q145 115 366 115q93 0 213 -19q114 -18 160 -43q-65 -77 -153 -594q-21 -117 -21 -202q0 -35 18 -54.5
t46 -19.5q35 0 79 6zM766 883q0 25 -21 37q-15 12 -71 12q-86 0 -152 -66q-74 -80 -141 -282q-68 -201 -67.5 -324t73.5 -123q61 0 133 68.5t117 167.5q62 124 119 424q10 65 10 86zM1020 1358l-35 -144h-520l35 144h520z" />
    <glyph glyph-name="Abreve" unicode="&#x102;" horiz-adv-x="1384" 
d="M293 14l-4 -14h-387l4 14q37 6 74 31q44 25 86 96l524 910l180 315h188q0 -5 46 -303l122 -852q11 -72 21.5 -102.5t32.5 -53.5q27 -27 88 -41l-2 -14h-555l2 14q62 14 94 35q39 20 39 74q0 44 -8 96l-33 246h-438l-156 -281q-37 -64 -37 -102q0 -29 27 -41
q35 -15 92 -27zM418 561h375q-52 395 -68 559q-57 -112 -307 -559zM1145 1753l16 -2q-46 -297 -305 -297q-225 0 -225 240q0 39 4 59h14q18 -147 228 -147q108 0 170.5 34.5t97.5 112.5z" />
    <glyph glyph-name="abreve" unicode="&#x103;" horiz-adv-x="1146" 
d="M1040 86l2 -10q-59 -38 -145.5 -65t-159.5 -27q-104 0 -104 106q0 107 33 248q-181 -365 -433 -365q-87 0 -143 50q-53 53 -53 200q0 168 84 371q85 201 211 303q145 115 366 115q93 0 213 -19q114 -18 160 -43q-65 -77 -153 -594q-21 -117 -21 -202q0 -35 18 -54.5
t46 -19.5q35 0 79 6zM766 883q0 25 -21 37q-15 12 -71 12q-86 0 -152 -66q-74 -80 -141 -282q-68 -201 -67.5 -324t73.5 -123q61 0 133 68.5t117 167.5q62 124 119 424q10 65 10 86zM1008 1468l14 -4q-52 -309 -301 -309q-221 0 -221 246q0 40 6 67l14 2q14 -82 64.5 -121.5
t152.5 -39.5q103 0 165 37.5t106 121.5z" />
    <glyph glyph-name="Aogonek" unicode="&#x104;" horiz-adv-x="1384" 
d="M1001 -360l7 -7l-2 -8q-7 -25 -21 -39q-41 -47 -139 -47q-100 0 -152.5 46t-52.5 124q0 186 283 291h-213l2 14q62 14 94 35q39 20 39 74q0 44 -8 96l-33 246h-438l-156 -281q-37 -64 -37 -102q0 -29 27 -41q35 -15 92 -27l-4 -14h-387l4 14q37 6 74 31q44 25 86 96
l524 910l180 315h188q0 -5 46 -303l122 -852q11 -72 21.5 -102.5t32.5 -53.5q27 -27 88 -41l-2 -14h-293q-83 -66 -123.5 -126t-40.5 -136q0 -113 106 -113q59 0 86 15zM418 561h375q-52 395 -68 559q-57 -112 -307 -559z" />
    <glyph glyph-name="aogonek" unicode="&#x105;" horiz-adv-x="1146" 
d="M872 -348l7 -4l-2 -10q-10 -30 -21 -41q-37 -46 -135 -46q-97 0 -148 44t-51 120q0 174 232 269h-17q-104 0 -104 106q0 107 33 248q-181 -365 -433 -365q-87 0 -143 50q-53 53 -53 200q0 168 84 371q85 201 211 303q145 115 366 115q93 0 213 -19q114 -18 160 -43
q-65 -77 -153 -594q-21 -117 -21 -202q0 -35 18 -54.5t46 -19.5q35 0 79 6l2 -10q-92 -59 -206 -80q-150 -123 -150 -250q0 -108 100 -108q61 0 86 14zM766 883q0 25 -21 37q-15 12 -71 12q-86 0 -152 -66q-74 -80 -141 -282q-68 -201 -67.5 -324t73.5 -123q61 0 133 68.5
t117 167.5q62 124 119 424q10 65 10 86z" />
    <glyph glyph-name="Cacute" unicode="&#x106;" horiz-adv-x="1288" 
d="M1149 289l14 -2q-25 -135 -51 -197q-20 -43 -86 -65q-155 -52 -350 -52q-284 0 -431 144.5t-147 406.5t104 463.5t302 308.5q182 99 442 99q175 0 293 -47q53 -21 53 -62q0 -65 -57 -242h-14q-24 139 -78 193q-63 63 -207 63q-190 0 -318 -122q-102 -99 -155 -277
q-51 -170 -51 -354q0 -220 92 -349.5t262 -129.5q140 0 240 69q72 52 143 152zM1128 1597l-356 -133l-8 13l260 266q57 63 115 63q43 0 70.5 -27.5t27.5 -74.5q0 -66 -109 -107z" />
    <glyph glyph-name="cacute" unicode="&#x107;" horiz-adv-x="872" 
d="M739 219l6 -4q0 -26 -10 -49q-18 -37 -47 -66q-133 -127 -350 -127q-142 0 -218.5 76.5t-76.5 218.5q0 174 61 342q62 170 156 264q132 138 358 138q107 0 183 -29q45 -17 45 -53q0 -78 -55 -203h-15q-32 119 -68 164t-94 45q-83 0 -143 -78q-60 -80 -106 -244
q-41 -158 -41 -309q0 -184 157 -184q151 0 258 98zM864 1307l-327 -181l-9 11l209 297q32 44 56.5 61.5t60.5 17.5q45 0 72.5 -26t27.5 -68q0 -65 -90 -112z" />
    <glyph glyph-name="Ccircumflex" unicode="&#x108;" horiz-adv-x="1288" 
d="M1149 289l14 -2q-25 -135 -51 -197q-20 -43 -86 -65q-155 -52 -350 -52q-284 0 -431 144.5t-147 406.5t104 463.5t302 308.5q182 99 442 99q175 0 293 -47q53 -21 53 -62q0 -65 -57 -242h-14q-24 139 -78 193q-63 63 -207 63q-190 0 -318 -122q-102 -99 -155 -277
q-51 -170 -51 -354q0 -220 92 -349.5t262 -129.5q140 0 240 69q72 52 143 152zM1049 1718l168 -256l-13 -10l-268 147l-334 -145l-10 12l278 260q41 41 91 41q54 0 88 -49z" />
    <glyph glyph-name="ccircumflex" unicode="&#x109;" horiz-adv-x="872" 
d="M739 219l6 -4q0 -26 -10 -49q-18 -37 -47 -66q-133 -127 -350 -127q-142 0 -218.5 76.5t-76.5 218.5q0 174 61 342q62 170 156 264q132 138 358 138q107 0 183 -29q45 -17 45 -53q0 -78 -55 -203h-15q-32 119 -68 164t-94 45q-83 0 -143 -78q-60 -80 -106 -244
q-41 -158 -41 -309q0 -184 157 -184q151 0 258 98zM762 1425l139 -290l-12 -11l-240 179l-309 -179l-10 11l254 297q44 55 98 53.5t80 -60.5z" />
    <glyph glyph-name="Cdotaccent" unicode="&#x10a;" horiz-adv-x="1288" 
d="M1149 289l14 -2q-25 -135 -51 -197q-20 -43 -86 -65q-155 -52 -350 -52q-284 0 -431 144.5t-147 406.5t104 463.5t302 308.5q182 99 442 99q175 0 293 -47q53 -21 53 -62q0 -65 -57 -242h-14q-24 139 -78 193q-63 63 -207 63q-190 0 -318 -122q-102 -99 -155 -277
q-51 -170 -51 -354q0 -220 92 -349.5t262 -129.5q140 0 240 69q72 52 143 152zM1042 1599q0 -61 -38 -101t-97 -40q-50 0 -80 30t-30 81q0 61 40 103t97 42q50 0 79 -32t29 -83z" />
    <glyph glyph-name="cdotaccent" unicode="&#x10b;" horiz-adv-x="872" 
d="M739 219l6 -4q0 -26 -10 -49q-18 -37 -47 -66q-133 -127 -350 -127q-142 0 -218.5 76.5t-76.5 218.5q0 174 61 342q62 170 156 264q132 138 358 138q107 0 183 -29q45 -17 45 -53q0 -78 -55 -203h-15q-32 119 -68 164t-94 45q-83 0 -143 -78q-60 -80 -106 -244
q-41 -158 -41 -309q0 -184 157 -184q151 0 258 98zM770 1303q0 -59 -38.5 -100.5t-98.5 -41.5q-48 0 -79.5 31t-31.5 80q0 61 40 103t97 42q51 0 81 -31.5t30 -82.5z" />
    <glyph glyph-name="Ccaron" unicode="&#x10c;" horiz-adv-x="1288" 
d="M1149 289l14 -2q-25 -135 -51 -197q-20 -43 -86 -65q-155 -52 -350 -52q-284 0 -431 144.5t-147 406.5t104 463.5t302 308.5q182 99 442 99q175 0 293 -47q53 -21 53 -62q0 -65 -57 -242h-14q-24 139 -78 193q-63 63 -207 63q-190 0 -318 -122q-102 -99 -155 -277
q-51 -170 -51 -354q0 -220 92 -349.5t262 -129.5q140 0 240 69q72 52 143 152zM776 1497l-168 256l10 10l271 -147l334 145l8 -12l-279 -258q-46 -43 -92 -43q-54 0 -84 49z" />
    <glyph glyph-name="ccaron" unicode="&#x10d;" horiz-adv-x="872" 
d="M739 219l6 -4q0 -26 -10 -49q-18 -37 -47 -66q-133 -127 -350 -127q-142 0 -218.5 76.5t-76.5 218.5q0 174 61 342q62 170 156 264q132 138 358 138q107 0 183 -29q45 -17 45 -53q0 -78 -55 -203h-15q-32 119 -68 164t-94 45q-83 0 -143 -78q-60 -80 -106 -244
q-41 -158 -41 -309q0 -184 157 -184q151 0 258 98zM535 1182l-136 291l11 10l239 -178l309 178l11 -10l-254 -297q-48 -54 -99 -54q-50 0 -81 60z" />
    <glyph glyph-name="Dcaron" unicode="&#x10e;" horiz-adv-x="1513" 
d="M651 0h-641l2 14q103 24 131 72q25 43 60 221l145 746q27 132 27 198q0 42 -24 63t-93 38l2 14h574q336 0 477 -117q162 -128 162 -381q0 -369 -191 -612q-95 -123 -257 -189.5t-374 -66.5zM637 1083l-160 -807q-16 -94 -16 -120q0 -38 28 -50q35 -18 164 -18
q107 0 194 43.5t145.5 117t98.5 174.5t58 212t18 233q0 172 -51 258q-82 150 -289 150h-30q-82 0 -111 -29q-22 -19 -49 -164zM739 1497l-168 256l11 10l270 -147l334 145l8 -12l-279 -258q-46 -43 -92 -43q-54 0 -84 49z" />
    <glyph glyph-name="dcaron" unicode="&#x10f;" horiz-adv-x="1165" 
d="M1053 86l2 -10q-151 -92 -303 -92q-107 0 -107 116q0 77 29 222q-84 -167 -198 -258t-226 -91q-49 0 -84 11t-63 38t-42 76t-14 121q0 174 80 375q82 199 205 301q138 117 350 117q70 0 123 -17l10 49q33 149 33 242q0 52 -19 68q-29 22 -90 28v15q192 49 342 49
q33 0 45.5 -11t12.5 -40q0 -28 -41 -221l-125 -590q-64 -296 -64 -426q0 -78 66 -78q35 0 78 6zM655 377q50 114 113 430q8 39 8 76q0 26 -20 37q-24 12 -86 12q-85 0 -144 -68q-74 -83 -139 -278q-63 -189 -63 -332q0 -117 71 -117q65 0 135.5 63.5t124.5 176.5zM1151 985
l-6 16q188 99 188 187q0 39 -37 76q-34 30 -34 77q0 49 31 77t81 28q60 0 95.5 -37t35.5 -100q0 -121 -104 -203q-98 -79 -250 -121z" />
    <glyph glyph-name="Dcroat" unicode="&#x110;" horiz-adv-x="1513" 
d="M651 0h-641l2 14q103 24 131 72q25 43 60 221l67 355h-188l24 114h187l55 277q27 132 27 198q0 42 -24 63t-93 38l2 14h574q336 0 477 -117q162 -128 162 -381q0 -369 -191 -612q-95 -123 -257 -189.5t-374 -66.5zM553 662l-76 -386q-16 -94 -16 -120q0 -38 28 -50
q35 -18 164 -18q107 0 194 43.5t145.5 117t98.5 174.5t58 212t18 233q0 172 -51 258q-82 150 -289 150h-30q-82 0 -111 -29q-22 -19 -49 -164l-62 -307h316l-23 -114h-315z" />
    <glyph glyph-name="dslash" unicode="&#x111;" horiz-adv-x="1165" 
d="M1042 86l2 -10q-151 -92 -303 -92q-106 0 -106 116q0 77 29 222q-84 -167 -198 -258t-226 -91q-49 0 -84 11t-63 38t-42 76t-14 121q0 174 80 375q82 199 205 301q138 117 350 117q70 0 123 -17l10 49q14 73 16 97h-221l21 92h213q1 14 2 27t1.5 19t0.5 7q0 52 -19 68
q-29 22 -90 28v15q192 49 342 49q32 0 44.5 -11t12.5 -40q0 -22 -28 -162h147l-18 -92h-150l-116 -557q-64 -296 -64 -426q0 -78 66 -78q33 0 77 6zM645 377q50 114 113 430q8 39 8 76q0 25 -21 37q-24 12 -86 12q-84 0 -143 -68q-74 -83 -139 -278q-64 -192 -64 -332
q0 -117 72 -117q65 0 135.5 63.5t124.5 176.5z" />
    <glyph glyph-name="Emacron" unicode="&#x112;" horiz-adv-x="1177" 
d="M952 0h-942l2 14q74 16 111 47q37 34 61 154l178 913q15 76 15 125q0 41 -25 60q-21 18 -94 39l2 14h883q47 0 47 -33q0 -41 -62 -254h-14q-21 138 -65 168q-29 19 -134 19h-182q-37 0 -52.5 -17.5t-23.5 -62.5l-86 -424h138q124 0 182 10q44 10 70 38t59 97h16l-78 -391
h-16q-5 67 -26 97t-74 40q-60 11 -152 11h-133l-84 -431q-12 -65 -12 -92q0 -43 90 -43h199q126 0 188 45q52 37 135 164h12q-20 -128 -53 -258q-7 -30 -23.5 -39.5t-56.5 -9.5zM1083 1645l-26 -140h-568l27 140h567z" />
    <glyph glyph-name="emacron" unicode="&#x113;" horiz-adv-x="901" 
d="M750 221l6 -4q0 -18 -6 -39q-8 -21 -33 -57q-53 -61 -153.5 -104.5t-211.5 -43.5q-153 0 -231 71t-78 235q0 141 61 315q61 173 154 274q138 144 350 144q135 0 202 -45.5t67 -151.5q0 -70 -62 -156q-54 -79 -174 -132t-307 -54q-15 -89 -15 -166q3 -186 173 -186
q67 0 140 29t118 71zM340 514q163 30 250.5 121t87.5 217q0 90 -84 90q-155 0 -254 -428zM936 1358l-35 -144h-520l35 144h520z" />
    <glyph glyph-name="Ebreve" unicode="&#x114;" horiz-adv-x="1177" 
d="M952 0h-942l2 14q74 16 111 47q37 34 61 154l178 913q15 76 15 125q0 41 -25 60q-21 18 -94 39l2 14h883q47 0 47 -33q0 -41 -62 -254h-14q-21 138 -65 168q-29 19 -134 19h-182q-37 0 -52.5 -17.5t-23.5 -62.5l-86 -424h138q124 0 182 10q44 10 70 38t59 97h16l-78 -391
h-16q-5 67 -26 97t-74 40q-60 11 -152 11h-133l-84 -431q-12 -65 -12 -92q0 -43 90 -43h199q126 0 188 45q52 37 135 164h12q-20 -128 -53 -258q-7 -30 -23.5 -39.5t-56.5 -9.5zM1059 1753l16 -2q-46 -297 -305 -297q-225 0 -225 240q0 39 4 59h14q18 -147 228 -147
q108 0 170.5 34.5t97.5 112.5z" />
    <glyph glyph-name="ebreve" unicode="&#x115;" horiz-adv-x="901" 
d="M750 221l6 -4q0 -18 -6 -39q-8 -21 -33 -57q-53 -61 -153.5 -104.5t-211.5 -43.5q-153 0 -231 71t-78 235q0 141 61 315q61 173 154 274q138 144 350 144q135 0 202 -45.5t67 -151.5q0 -70 -62 -156q-54 -79 -174 -132t-307 -54q-15 -89 -15 -166q3 -186 173 -186
q67 0 140 29t118 71zM340 514q163 30 250.5 121t87.5 217q0 90 -84 90q-155 0 -254 -428zM909 1468l15 -4q-52 -309 -301 -309q-222 0 -222 246q0 35 7 67l14 2q14 -82 64.5 -121.5t152.5 -39.5q103 0 164.5 37.5t105.5 121.5z" />
    <glyph glyph-name="Edotaccent" unicode="&#x116;" horiz-adv-x="1177" 
d="M952 0h-942l2 14q74 16 111 47q37 34 61 154l178 913q15 76 15 125q0 41 -25 60q-21 18 -94 39l2 14h883q47 0 47 -33q0 -41 -62 -254h-14q-21 138 -65 168q-29 19 -134 19h-182q-37 0 -52.5 -17.5t-23.5 -62.5l-86 -424h138q124 0 182 10q44 10 70 38t59 97h16l-78 -391
h-16q-5 67 -26 97t-74 40q-60 11 -152 11h-133l-84 -431q-12 -65 -12 -92q0 -43 90 -43h199q126 0 188 45q52 37 135 164h12q-20 -128 -53 -258q-7 -30 -23.5 -39.5t-56.5 -9.5zM913 1599q0 -61 -38 -101t-97 -40q-50 0 -80 30t-30 81q0 61 40 103t97 42q50 0 79 -32t29 -83
z" />
    <glyph glyph-name="edotaccent" unicode="&#x117;" horiz-adv-x="901" 
d="M750 221l6 -4q0 -18 -6 -39q-8 -21 -33 -57q-53 -61 -153.5 -104.5t-211.5 -43.5q-153 0 -231 71t-78 235q0 141 61 315q61 173 154 274q138 144 350 144q135 0 202 -45.5t67 -151.5q0 -70 -62 -156q-54 -79 -174 -132t-307 -54q-15 -89 -15 -166q3 -186 173 -186
q67 0 140 29t118 71zM340 514q163 30 250.5 121t87.5 217q0 90 -84 90q-155 0 -254 -428zM774 1303q0 -59 -38.5 -100.5t-98.5 -41.5q-48 0 -79.5 31t-31.5 80q0 61 40.5 103t97.5 42q51 0 80.5 -31.5t29.5 -82.5z" />
    <glyph glyph-name="Eogonek" unicode="&#x118;" horiz-adv-x="1177" 
d="M905 0h-895l2 14q74 16 111 47q37 34 61 154l178 913q15 76 15 125q0 41 -25 60q-21 18 -94 39l2 14h883q47 0 47 -33q0 -41 -62 -254h-14q-21 138 -65 168q-29 19 -134 19h-182q-37 0 -52.5 -17.5t-23.5 -62.5l-86 -424h138q124 0 182 10q44 10 70 38t59 97h16l-78 -391
h-16q-5 67 -26 97t-74 40q-60 11 -152 11h-133l-84 -431q-12 -65 -12 -92q0 -43 90 -43h199q126 0 188 45q52 37 135 164h12q-20 -128 -53 -258q-7 -30 -23.5 -39.5t-54.5 -9.5q-157 -127 -157 -254q0 -108 100 -108q61 0 86 14l6 -4l-2 -10q-11 -31 -20 -41
q-37 -46 -136 -46q-97 0 -147.5 44t-50.5 120q0 183 272 285z" />
    <glyph glyph-name="eogonek" unicode="&#x119;" horiz-adv-x="901" 
d="M502 -348l6 -4l-2 -10q-10 -30 -21 -41q-37 -46 -135 -46q-97 0 -147.5 44t-50.5 120q0 164 208 258h-8q-153 0 -231 71t-78 235q0 141 61 315q61 173 154 274q138 144 350 144q135 0 202 -45.5t67 -151.5q0 -70 -62 -156q-54 -79 -174 -132t-307 -54q-15 -89 -15 -166
q3 -186 173 -186q67 0 140 29t118 71l6 -4q0 -18 -6 -39q-8 -21 -33 -57q-94 -110 -266 -137q-136 -121 -136 -238q0 -108 101 -108q61 0 86 14zM340 514q163 30 250.5 121t87.5 217q0 90 -84 90q-155 0 -254 -428z" />
    <glyph glyph-name="Ecaron" unicode="&#x11a;" horiz-adv-x="1177" 
d="M952 0h-942l2 14q74 16 111 47q37 34 61 154l178 913q15 76 15 125q0 41 -25 60q-21 18 -94 39l2 14h883q47 0 47 -33q0 -41 -62 -254h-14q-21 138 -65 168q-29 19 -134 19h-182q-37 0 -52.5 -17.5t-23.5 -62.5l-86 -424h138q124 0 182 10q44 10 70 38t59 97h16l-78 -391
h-16q-5 67 -26 97t-74 40q-60 11 -152 11h-133l-84 -431q-12 -65 -12 -92q0 -43 90 -43h199q126 0 188 45q52 37 135 164h12q-20 -128 -53 -258q-7 -30 -23.5 -39.5t-56.5 -9.5zM678 1497l-168 256l10 10l271 -147l333 145l9 -12l-279 -258q-46 -43 -92 -43q-54 0 -84 49z
" />
    <glyph glyph-name="ecaron" unicode="&#x11b;" horiz-adv-x="901" 
d="M750 221l6 -4q0 -18 -6 -39q-8 -21 -33 -57q-53 -61 -153.5 -104.5t-211.5 -43.5q-153 0 -231 71t-78 235q0 141 61 315q61 173 154 274q138 144 350 144q135 0 202 -45.5t67 -151.5q0 -70 -62 -156q-54 -79 -174 -132t-307 -54q-15 -89 -15 -166q3 -186 173 -186
q67 0 140 29t118 71zM340 514q163 30 250.5 121t87.5 217q0 90 -84 90q-155 0 -254 -428zM530 1182l-135 291l11 10l239 -178l309 178l11 -10l-254 -297q-48 -54 -99 -54t-82 60z" />
    <glyph glyph-name="Gcircumflex" unicode="&#x11c;" horiz-adv-x="1447" 
d="M1186 23q-22 -2 -252 -31q-120 -19 -256 -19q-283 0 -431.5 146.5t-148.5 402.5q0 270 117 475q119 209 326 303q207 95 448 95q183 0 305 -43q66 -25 66 -70q0 -61 -57 -238h-15q-12 92 -55 156q-69 100 -256 100t-322 -106q-241 -186 -241 -666q0 -205 88 -333
q89 -127 254 -127q91 0 127 28q28 21 43 94l30 154q17 107 17 143q0 44 -24.5 68t-90.5 43l2 12h526l-2 -12q-53 -18 -86 -51q-28 -28 -63 -195l-29 -149q-20 -90 -20 -180zM1069 1718l168 -256l-12 -10l-269 147l-333 -145l-11 12l279 260q41 41 90 41q54 0 88 -49z" />
    <glyph glyph-name="gcircumflex" unicode="&#x11d;" horiz-adv-x="1136" 
d="M190 -127h15q18 -120 82.5 -189t146.5 -69q107 0 176 72q32 34 74.5 128t73.5 208l86 327q-89 -174 -206 -268t-226 -94q-99 0 -150 53t-51 192q0 167 84 367q82 199 207 295q77 63 163 90t222 27q107 0 209 -21q99 -17 145 -43q-24 -30 -65 -188q-6 -29 -17 -74.5
t-16 -69.5l-15 -75l-16 -76l-14 -72q-67 -341 -113 -483q-42 -130 -121 -209q-76 -76 -209 -117q-131 -41 -241 -41q-154 0 -230 43q-41 21 -41 62q0 82 47 225zM938 883q0 26 -20 37q-24 12 -74 12q-84 0 -148 -64q-73 -76 -143 -274q-68 -198 -68 -324q0 -65 18 -91.5
t60 -26.5q58 0 135 71q79 73 125 185q46 116 107 395q8 36 8 80zM1028 1425l139 -290l-12 -11l-240 179l-309 -179l-10 11l254 297q44 55 98 53.5t80 -60.5z" />
    <glyph glyph-name="Gbreve" unicode="&#x11e;" horiz-adv-x="1447" 
d="M1186 23q-22 -2 -252 -31q-120 -19 -256 -19q-283 0 -431.5 146.5t-148.5 402.5q0 270 117 475q119 209 326 303q207 95 448 95q183 0 305 -43q66 -25 66 -70q0 -61 -57 -238h-15q-12 92 -55 156q-69 100 -256 100t-322 -106q-241 -186 -241 -666q0 -205 88 -333
q89 -127 254 -127q91 0 127 28q28 21 43 94l30 154q17 107 17 143q0 44 -24.5 68t-90.5 43l2 12h526l-2 -12q-53 -18 -86 -51q-28 -28 -63 -195l-29 -149q-20 -90 -20 -180zM1214 1753l17 -2q-46 -297 -305 -297q-226 0 -226 240q0 34 5 59h14q18 -147 227 -147
q108 0 170.5 34.5t97.5 112.5z" />
    <glyph glyph-name="gbreve" unicode="&#x11f;" horiz-adv-x="1136" 
d="M190 -127h15q18 -120 82.5 -189t146.5 -69q107 0 176 72q32 34 74.5 128t73.5 208l86 327q-89 -174 -206 -268t-226 -94q-99 0 -150 53t-51 192q0 167 84 367q82 199 207 295q77 63 163 90t222 27q107 0 209 -21q99 -17 145 -43q-24 -30 -65 -188q-6 -29 -17 -74.5
t-16 -69.5l-15 -75l-16 -76l-14 -72q-67 -341 -113 -483q-42 -130 -121 -209q-76 -76 -209 -117q-131 -41 -241 -41q-154 0 -230 43q-41 21 -41 62q0 82 47 225zM938 883q0 26 -20 37q-24 12 -74 12q-84 0 -148 -64q-73 -76 -143 -274q-68 -198 -68 -324q0 -65 18 -91.5
t60 -26.5q58 0 135 71q79 73 125 185q46 116 107 395q8 36 8 80zM1161 1468l15 -4q-52 -309 -302 -309q-221 0 -221 246q0 40 6 67l15 2q14 -82 64.5 -121.5t152.5 -39.5q103 0 164.5 37.5t105.5 121.5z" />
    <glyph glyph-name="Gdotaccent" unicode="&#x120;" horiz-adv-x="1447" 
d="M1186 23q-22 -2 -252 -31q-120 -19 -256 -19q-283 0 -431.5 146.5t-148.5 402.5q0 270 117 475q119 209 326 303q207 95 448 95q183 0 305 -43q66 -25 66 -70q0 -61 -57 -238h-15q-12 92 -55 156q-69 100 -256 100t-322 -106q-241 -186 -241 -666q0 -205 88 -333
q89 -127 254 -127q91 0 127 28q28 21 43 94l30 154q17 107 17 143q0 44 -24.5 68t-90.5 43l2 12h526l-2 -12q-53 -18 -86 -51q-28 -28 -63 -195l-29 -149q-20 -90 -20 -180zM1036 1599q0 -61 -38 -101t-97 -40q-50 0 -80 30t-30 81q0 61 40 103t97 42q50 0 79 -32t29 -83z
" />
    <glyph glyph-name="gdotaccent" unicode="&#x121;" horiz-adv-x="1136" 
d="M190 -127h15q18 -120 82.5 -189t146.5 -69q107 0 176 72q32 34 74.5 128t73.5 208l86 327q-89 -174 -206 -268t-226 -94q-99 0 -150 53t-51 192q0 167 84 367q82 199 207 295q77 63 163 90t222 27q107 0 209 -21q99 -17 145 -43q-24 -30 -65 -188q-6 -29 -17 -74.5
t-16 -69.5l-15 -75l-16 -76l-14 -72q-67 -341 -113 -483q-42 -130 -121 -209q-76 -76 -209 -117q-131 -41 -241 -41q-154 0 -230 43q-41 21 -41 62q0 82 47 225zM938 883q0 26 -20 37q-24 12 -74 12q-84 0 -148 -64q-73 -76 -143 -274q-68 -198 -68 -324q0 -65 18 -91.5
t60 -26.5q58 0 135 71q79 73 125 185q46 116 107 395q8 36 8 80zM1038 1303q0 -59 -38.5 -100.5t-98.5 -41.5q-48 0 -79 31t-31 80q0 61 40 103t97 42q51 0 80.5 -31.5t29.5 -82.5z" />
    <glyph glyph-name="Gcommaaccent" unicode="&#x122;" horiz-adv-x="1447" 
d="M1186 23q-22 -2 -252 -31q-120 -19 -256 -19q-283 0 -431.5 146.5t-148.5 402.5q0 270 117 475q119 209 326 303q207 95 448 95q183 0 305 -43q66 -25 66 -70q0 -61 -57 -238h-15q-12 92 -55 156q-69 100 -256 100t-322 -106q-241 -186 -241 -666q0 -205 88 -333
q89 -127 254 -127q91 0 127 28q28 21 43 94l30 154q17 107 17 143q0 44 -24.5 68t-90.5 43l2 12h526l-2 -12q-53 -18 -86 -51q-28 -28 -63 -195l-29 -149q-20 -90 -20 -180zM418 -547l-6 17q188 99 188 186q0 39 -37 76q-26 24 -32 57.5t5.5 61.5t39.5 46.5t65 14.5
q60 0 95.5 -36t35.5 -99q0 -121 -104 -203q-98 -79 -250 -121z" />
    <glyph glyph-name="gcommaaccent" unicode="&#x123;" horiz-adv-x="1136" 
d="M944 1608l8 -19q-186 -94 -186 -186q0 -42 37 -76q35 -35 35 -80q0 -49 -30.5 -75.5t-82.5 -26.5q-60 0 -95.5 36t-35.5 99q0 124 102 207q103 83 248 121zM18 -127h15q18 -120 82.5 -189t146.5 -69q107 0 176 72q32 34 74.5 128t73.5 208l86 327q-89 -174 -206 -268
t-226 -94q-99 0 -150 53t-51 192q0 167 84 367q82 199 207 295q77 63 163 90t222 27q107 0 209 -21q99 -17 145 -43q-24 -30 -65 -188q-6 -29 -17 -74.5t-16 -69.5l-15 -75l-16 -76l-14 -72q-67 -341 -113 -483q-42 -130 -121 -209q-76 -76 -209 -117q-131 -41 -241 -41
q-154 0 -230 43q-41 21 -41 62q0 82 47 225zM766 883q0 25 -21 37q-24 12 -73 12q-84 0 -148 -64q-73 -76 -143 -274q-68 -198 -68 -324q0 -65 18 -91.5t60 -26.5q58 0 135 71q79 73 125 185q46 116 107 395q8 36 8 80z" />
    <glyph glyph-name="Hcircumflex" unicode="&#x124;" horiz-adv-x="1572" 
d="M1364 14l-2 -14h-565l2 14q82 18 123 62q24 31 59 192l78 396h-504l-78 -398q-20 -97 -20 -162q0 -56 118 -90l-2 -14h-563l4 14q85 22 119 62q25 32 60 192l163 824q21 105 21 163q0 42 -23 61t-94 36l2 14h561l-4 -14q-80 -20 -114 -54q-29 -26 -64 -194l-68 -342h506
l66 330q20 100 20 163q0 41 -23 60.5t-95 36.5l2 14h561l-4 -14q-80 -21 -113 -54q-37 -37 -66 -194l-161 -838q-21 -102 -21 -162q0 -56 119 -90zM1108 1718l168 -256l-12 -10l-269 147l-333 -145l-11 12l279 260q41 41 90 41q54 0 88 -49z" />
    <glyph glyph-name="hcircumflex" unicode="&#x125;" horiz-adv-x="1150" 
d="M399 483l-100 -483h-256l190 899q64 290 64 389q0 48 -14 62q-20 26 -95 32v15q195 49 347 49q34 0 43 -12q12 -12 12 -45q0 -31 -35 -189q-79 -350 -123 -516q55 119 180 225q121 103 252 103q82 0 117 -30t35 -108q0 -93 -96 -536q-33 -152 -33 -201q0 -55 65 -55
q9 0 70 6l2 -12q-64 -39 -154.5 -65.5t-162.5 -26.5q-93 0 -93 90q0 41 35 196q103 468 103 516q0 62 -64 62q-48 0 -111.5 -47.5t-101.5 -112.5q-50 -80 -76 -205zM635 1733l168 -256l-12 -11l-269 148l-334 -146l-10 13l279 260q41 41 90 41q54 0 88 -49z" />
    <glyph glyph-name="Hbar" unicode="&#x126;" horiz-adv-x="1572" 
d="M575 14l-2 -14h-563l4 14q85 22 119 62q25 32 60 192l135 684h-170l24 119h170l4 21q21 105 21 163q0 42 -23 61t-94 36l2 14h561l-4 -14q-80 -20 -114 -54q-29 -26 -64 -194l-6 -33h506l4 21q20 100 20 163q0 41 -23 60.5t-95 36.5l2 14h561l-4 -14q-80 -21 -113 -54
q-37 -37 -66 -194l-6 -33h172l-24 -119h-172l-131 -686q-21 -102 -21 -162q0 -56 119 -90l-2 -14h-565l2 14q82 18 123 62q24 31 59 192l78 396h-504l-78 -398q-20 -97 -20 -162q0 -56 118 -90zM1116 952h-506l-37 -190h506z" />
    <glyph glyph-name="hbar" unicode="&#x127;" horiz-adv-x="1150" 
d="M399 483l-100 -483h-256l190 899q41 191 48 242h-140l21 92h131q1 14 2 27.5t1.5 19.5t0.5 8q0 48 -14 62q-20 26 -95 32v15q195 49 347 49q34 0 43 -12q12 -12 12 -45q0 -24 -29 -156h227l-20 -92h-227q-8 -35 -27.5 -118.5t-40 -169t-41.5 -169.5q55 119 180 225
q121 103 252 103q82 0 117 -30t35 -108q0 -93 -96 -536q-33 -152 -33 -201q0 -55 65 -55q9 0 70 6l2 -12q-64 -39 -154.5 -65.5t-162.5 -26.5q-93 0 -93 90q0 41 35 196q103 468 103 516q0 62 -64 62q-48 0 -111.5 -47.5t-101.5 -112.5q-50 -80 -76 -205z" />
    <glyph glyph-name="Itilde" unicode="&#x128;" horiz-adv-x="788" 
d="M575 14l-2 -14h-563l4 14q85 22 119 62q25 32 60 192l163 826q21 105 21 161q0 42 -23 61t-94 36l2 14h563l-4 -14q-82 -20 -116 -54q-34 -30 -64 -192l-164 -840q-18 -92 -18 -155q0 -36 25.5 -58t90.5 -39zM881 1729l14 -7q-18 -56 -49 -114q-57 -115 -156 -115
q-52 0 -137 39q-87 43 -133 43q-73 0 -135 -96l-19 6q33 77 78 151q27 43 64 66q39 22 77 22q40 0 140 -47q78 -37 116 -37q44 0 75.5 20.5t64.5 68.5z" />
    <glyph glyph-name="itilde" unicode="&#x129;" horiz-adv-x="628" 
d="M690 1407l15 -6q-76 -230 -195 -230q-47 0 -137 41q-78 37 -115 37q-78 0 -137 -92l-17 4q22 55 46 109q24 50 69 92.5t90 42.5q44 0 123 -43q82 -43 123 -43q42 0 69.5 18.5t65.5 69.5zM496 88l2 -12q-70 -41 -156 -66q-88 -26 -164 -26q-100 0 -100 94q0 42 37 196
l75 342q35 161 35 232q0 47 -22 63q-35 27 -86 27v10q154 56 313 56q43 0 59.5 -15t16.5 -49q0 -41 -35 -213l-80 -385q-34 -154 -30.5 -207t61.5 -53q12 0 74 6z" />
    <glyph glyph-name="Imacron" unicode="&#x12a;" horiz-adv-x="788" 
d="M575 14l-2 -14h-563l4 14q85 22 119 62q25 32 60 192l163 826q21 105 21 161q0 42 -23 61t-94 36l2 14h563l-4 -14q-82 -20 -116 -54q-34 -30 -64 -192l-164 -840q-18 -92 -18 -155q0 -36 25.5 -58t90.5 -39zM879 1645l-27 -140h-567l26 140h568z" />
    <glyph glyph-name="imacron" unicode="&#x12b;" horiz-adv-x="628" 
d="M678 1358l-35 -144h-520l35 144h520zM496 88l2 -12q-70 -41 -156 -66q-88 -26 -164 -26q-100 0 -100 94q0 42 37 196l75 342q35 161 35 232q0 47 -22 63q-35 27 -86 27v10q154 56 313 56q43 0 59.5 -15t16.5 -49q0 -41 -35 -213l-80 -385q-34 -154 -30.5 -207t61.5 -53
q12 0 74 6z" />
    <glyph glyph-name="Ibreve" unicode="&#x12c;" horiz-adv-x="788" 
d="M575 14l-2 -14h-563l4 14q85 22 119 62q25 32 60 192l163 826q21 105 21 161q0 42 -23 61t-94 36l2 14h563l-4 -14q-82 -20 -116 -54q-34 -30 -64 -192l-164 -840q-18 -92 -18 -155q0 -36 25.5 -58t90.5 -39zM858 1753l16 -2q-46 -297 -305 -297q-225 0 -225 240
q0 39 4 59h14q18 -147 228 -147q108 0 170.5 34.5t97.5 112.5z" />
    <glyph glyph-name="ibreve" unicode="&#x12d;" horiz-adv-x="628" 
d="M670 1468l14 -4q-52 -309 -301 -309q-221 0 -221 246q0 40 6 67l14 2q14 -82 64.5 -121.5t152.5 -39.5q103 0 165 37.5t106 121.5zM496 88l2 -12q-70 -41 -156 -66q-88 -26 -164 -26q-100 0 -100 94q0 42 37 196l75 342q35 161 35 232q0 47 -22 63q-35 27 -86 27v10
q154 56 313 56q43 0 59.5 -15t16.5 -49q0 -41 -35 -213l-80 -385q-34 -154 -30.5 -207t61.5 -53q12 0 74 6z" />
    <glyph glyph-name="Iogonek" unicode="&#x12e;" horiz-adv-x="788" 
d="M322 -360l6 -7l-2 -8q-7 -25 -21 -39q-41 -47 -139 -47q-100 0 -152.5 46t-52.5 124q0 186 283 291h-224l5 14q83 21 118 62q25 32 60 192l164 826q20 100 20 161q0 42 -23 61t-94 36l2 14h564l-5 -14q-82 -20 -116 -54q-34 -30 -64 -192l-164 -840q-18 -92 -18 -155
q0 -36 26 -58t91 -39l-2 -14h-291q-83 -66 -123.5 -126t-40.5 -136q0 -113 107 -113q59 0 86 15z" />
    <glyph glyph-name="iogonek" unicode="&#x12f;" horiz-adv-x="628" 
d="M291 -348l6 -4l-2 -10q-10 -30 -21 -41q-37 -46 -135 -46q-97 0 -147.5 44t-50.5 120q0 175 231 269q-94 3 -94 94q0 47 37 201l75 335q35 161 35 232q0 47 -22 63q-27 21 -86 27v12q154 56 313 56q43 0 60.5 -15.5t17.5 -48.5q0 -32 -37 -211l-80 -387
q-34 -154 -30.5 -207t61.5 -53q12 0 74 6l2 -12q-118 -68 -250 -86q-144 -117 -144 -244q0 -108 101 -108q61 0 86 14zM559 1325q0 -79 -41 -126.5t-112 -47.5q-57 0 -91 35t-34 92q0 70 42 117t113 47q58 0 90.5 -32t32.5 -85z" />
    <glyph glyph-name="Idot" unicode="&#x130;" horiz-adv-x="788" 
d="M575 14l-2 -14h-563l4 14q85 22 119 62q25 32 60 192l163 826q21 105 21 161q0 42 -23 61t-94 36l2 14h563l-4 -14q-82 -20 -116 -54q-34 -30 -64 -192l-164 -840q-18 -92 -18 -155q0 -36 25.5 -58t90.5 -39zM700 1599q0 -61 -38 -101t-97 -40q-50 0 -80 30t-30 81
q0 61 40 103t97 42q50 0 79 -32t29 -83z" />
    <glyph glyph-name="dotlessi" unicode="&#x131;" horiz-adv-x="628" 
d="M496 88l2 -12q-70 -41 -156 -66q-88 -26 -164 -26q-100 0 -100 94q0 42 37 196l75 342q35 161 35 232q0 47 -22 63q-35 27 -86 27v10q154 56 313 56q43 0 59.5 -15t16.5 -49q0 -41 -35 -213l-80 -385q-34 -154 -30.5 -207t61.5 -53q12 0 74 6z" />
    <glyph glyph-name="IJ" unicode="&#x132;" horiz-adv-x="1581" 
d="M575 14l-2 -14h-563l4 14q85 22 119 62q25 32 60 192l163 826q21 105 21 161q0 42 -23 61t-94 36l2 14h563l-4 -14q-82 -20 -116 -54q-34 -30 -64 -192l-164 -840q-18 -92 -18 -155q0 -36 25.5 -58t90.5 -39zM637 -49h12q33 -176 139 -176q72 0 99 49q25 43 78 307l14 80
l172 889q18 92 18 145q0 41 -28.5 64t-102.5 43l2 14h574l-2 -14q-83 -24 -113 -54q-28 -33 -63 -192l-164 -877q-27 -146 -62 -229q-30 -82 -88 -152q-138 -170 -354 -170q-82 0 -125 15q-41 12 -41 53q0 98 35 205z" />
    <glyph glyph-name="ij" unicode="&#x133;" horiz-adv-x="1210" 
d="M496 88l2 -12q-70 -41 -156 -66q-88 -26 -164 -26q-100 0 -100 94q0 47 37 201l75 335q35 161 35 232q0 47 -22 63q-27 21 -86 27v12q154 56 313 56q43 0 60.5 -15.5t17.5 -48.5q0 -32 -37 -211l-80 -387q-34 -154 -30.5 -207t61.5 -53q12 0 74 6zM559 1325
q0 -79 -41 -126.5t-112 -47.5q-57 0 -91 35t-34 92q0 70 42 117t113 47q58 0 90.5 -32t32.5 -85zM371 -219h14q16 -81 50 -122.5t75 -41.5q61 0 88 59q42 82 121 531l74 409q34 179 34 236q0 37 -20 57q-30 23 -90 29v10q162 58 330 58q37 0 51 -14t14 -46q0 -41 -117 -653
q-60 -309 -92 -424q-29 -105 -80 -168q-128 -158 -342 -158q-76 0 -112 25q-33 20 -33 55q0 68 35 158zM1157 1325q0 -79 -41 -126.5t-112 -47.5q-57 0 -91 35t-34 92q0 70 42 117t113 47q58 0 90.5 -32t32.5 -85z" />
    <glyph glyph-name="Jcircumflex" unicode="&#x134;" horiz-adv-x="780" 
d="M-156 -49h13q33 -176 139 -176q71 0 98 49q25 43 78 307l14 80l172 889q19 97 19 145q0 41 -28.5 64t-102.5 43l2 14h573l-2 -14q-82 -24 -112 -54q-30 -34 -64 -192l-164 -877q-28 -151 -61 -229q-30 -82 -88 -152q-138 -170 -355 -170q-81 0 -125 15q-40 12 -40 53
q0 102 34 205zM692 1718l168 -256l-12 -10l-268 147l-334 -145l-10 12l278 260q41 41 90 41q54 0 88 -49z" />
    <glyph glyph-name="jcircumflex" unicode="&#x135;" horiz-adv-x="595" 
d="M-242 -219h15q13 -78 48.5 -121t76.5 -43q58 0 88 59q44 89 120 533l74 407q35 184 35 236q0 42 -20 59q-21 21 -91 27v10q162 58 330 58q37 0 51.5 -14t14.5 -46q0 -54 -39 -246l-53 -276q-39 -215 -68 -348q-35 -173 -61 -246q-22 -70 -66 -127q-133 -160 -344 -160
q-77 0 -113 25q-32 19 -32 55q0 71 34 158zM494 1409l139 -291l-12 -8l-240 178l-309 -178l-11 10l254 297q44 55 98.5 54t80.5 -62z" />
    <glyph glyph-name="Kcommaaccent" unicode="&#x136;" horiz-adv-x="1452" 
d="M575 14l-2 -14h-563l4 14q78 14 121 64q28 36 58 190l163 826q21 105 21 161q0 38 -25 59t-94 38l2 14h565l-4 -14q-83 -21 -119 -54q-32 -32 -61 -192l-84 -422q214 183 436 399q119 116 119 177q0 65 -108 92l2 14h495l-2 -14q-81 -25 -131 -64q-50 -36 -151 -129
l-359 -336q80 -167 148 -315q56 -116 112 -217q69 -121 117 -189q34 -49 135 -79l-2 -15q-101 -14 -317 -14q-67 0 -98 20t-58 76q-9 18 -145 311l-113 252q-47 -42 -102 -80l-58 -307q-20 -97 -20 -160q0 -58 118 -92zM455 -547l-6 17q188 99 188 186q0 39 -37 76
q-26 24 -32 57.5t5.5 61.5t39.5 46.5t65 14.5q60 0 95.5 -36t35.5 -99q0 -121 -104 -203q-98 -79 -250 -121z" />
    <glyph glyph-name="kcommaaccent" unicode="&#x137;" horiz-adv-x="1103" 
d="M391 430l-92 -430h-256l197 909q59 275 59 379q0 46 -18 64q-24 24 -91 30v15q195 49 347 49q31 0 42 -13.5t11 -48.5q0 -55 -33 -190q-89 -390 -121 -510q46 112 162 219q113 107 246 107q190 0 190 -176q0 -99 -83 -184.5t-240 -145.5q73 -165 149 -305q31 -57 58 -84
q33 -39 79 -39q37 0 52 6l6 -10q-38 -33 -123 -68q-82 -31 -160 -31q-96 0 -137 86q-31 58 -158 381q-68 -10 -86 -10zM412 535l-15 -64q105 12 184.5 41t126.5 70.5t70 90.5t23 105q0 41 -24.5 64.5t-63.5 23.5q-95 0 -187 -108q-91 -111 -114 -223zM229 -547l-6 17
q189 100 189 186q0 39 -37 76q-26 24 -32 57.5t5.5 61.5t39.5 46.5t65 14.5q60 0 95.5 -36t35.5 -99q0 -120 -105 -203q-98 -79 -250 -121z" />
    <glyph glyph-name="kgreenlandic" unicode="&#x138;" horiz-adv-x="1095" 
d="M348 225l-49 -225h-256l102 467q62 281 62 379q0 46 -17 63q-22 22 -90 31v12q195 49 342 49q31 0 41.5 -12t10.5 -47q0 -46 -35 -186q-23 -110 -72 -289q81 175 275 369q170 176 294 176q74 0 74 -66q0 -69 -47 -184h-16q-20 60 -41.5 84t-53.5 24q-99 0 -243 -159
q132 -347 190 -453q55 -107 105 -154q28 -28 71 -28q15 0 52 6l4 -10q-33 -30 -131 -66q-88 -33 -166 -33q-53 0 -82.5 26.5t-61.5 96.5q-72 153 -155 385q-72 -89 -107 -256z" />
    <glyph glyph-name="Lacute" unicode="&#x139;" horiz-adv-x="1159" 
d="M954 0h-944l2 14q80 18 111 49q39 36 59 152l170 856q25 131 25 178q0 42 -25 64t-92 39l2 14h563l-2 -14q-90 -23 -118 -54q-30 -36 -66 -211l-166 -843q-12 -71 -12 -101q0 -45 84 -45h203q120 0 184 43q63 38 141 168h14q-24 -153 -53 -260q-7 -29 -24 -39t-56 -10z
M788 1597l-356 -133l-8 13l260 266q57 63 115 63q43 0 70.5 -27.5t27.5 -74.5q0 -66 -109 -107z" />
    <glyph glyph-name="lacute" unicode="&#x13a;" horiz-adv-x="626" 
d="M489 88l3 -12q-157 -92 -312 -92q-54 0 -74 22.5t-20 69.5q0 56 31 205l129 614q63 294 63 389q0 49 -18 70q-25 25 -90 28v15q195 49 336 49q38 0 49.5 -11.5t11.5 -48.5q0 -31 -39 -212l-174 -834q-31 -155 -31 -205q0 -53 62 -53q12 0 73 6zM709 1681l-357 -133l-8 13
l260 266q57 63 115 63q43 0 70.5 -27.5t27.5 -74.5q0 -67 -108 -107z" />
    <glyph glyph-name="Lcommaaccent" unicode="&#x13b;" horiz-adv-x="1159" 
d="M954 0h-944l2 14q80 18 111 49q39 36 59 152l170 856q25 131 25 178q0 42 -25 64t-92 39l2 14h563l-2 -14q-90 -23 -118 -54q-30 -36 -66 -211l-166 -843q-12 -71 -12 -101q0 -45 84 -45h203q120 0 184 43q63 38 141 168h14q-24 -153 -53 -260q-7 -29 -24 -39t-56 -10z
M281 -547l-7 17q189 100 189 186q0 39 -37 76q-26 24 -32 57.5t5.5 61.5t39.5 46.5t65 14.5q60 0 95.5 -36t35.5 -99q0 -120 -105 -203q-98 -79 -249 -121z" />
    <glyph glyph-name="lcommaaccent" unicode="&#x13c;" horiz-adv-x="626" 
d="M489 88l3 -12q-157 -92 -312 -92q-54 0 -74 22.5t-20 69.5q0 56 31 205l129 614q63 294 63 389q0 49 -18 70q-25 25 -90 28v15q195 49 336 49q38 0 49.5 -11.5t11.5 -48.5q0 -31 -39 -212l-174 -834q-31 -155 -31 -205q0 -53 62 -53q12 0 73 6zM-14 -547l-6 17
q188 99 188 186q0 39 -37 76q-26 24 -32 57.5t5.5 61.5t39.5 46.5t65 14.5q60 0 95.5 -36t35.5 -99q0 -121 -104 -203q-98 -79 -250 -121z" />
    <glyph glyph-name="Lcaron" unicode="&#x13d;" horiz-adv-x="1159" 
d="M954 0h-944l2 14q80 18 111 49q39 36 59 152l170 856q25 131 25 178q0 42 -25 64t-92 39l2 14h563l-2 -14q-90 -23 -118 -54q-30 -36 -66 -211l-166 -843q-12 -71 -12 -101q0 -45 84 -45h203q120 0 184 43q63 38 141 168h14q-24 -153 -53 -260q-7 -29 -24 -39t-56 -10z
M829 938l-6 16q189 100 189 187q0 39 -37 76q-35 30 -35 77q0 49 31.5 77t81.5 28q59 0 95 -36.5t36 -100.5q0 -120 -105 -203q-98 -79 -250 -121z" />
    <glyph glyph-name="lcaron" unicode="&#x13e;" horiz-adv-x="626" 
d="M489 88l3 -12q-157 -92 -312 -92q-54 0 -74 22.5t-20 69.5q0 56 31 205l129 614q63 294 63 389q0 49 -18 70q-25 25 -90 28v15q195 49 336 49q38 0 49.5 -11.5t11.5 -48.5q0 -31 -39 -212l-174 -834q-31 -155 -31 -205q0 -53 62 -53q12 0 73 6zM614 985l-6 16
q189 100 189 187q0 39 -37 76q-35 30 -35 77q0 49 31.5 77t81.5 28q60 0 95.5 -37t35.5 -100q0 -121 -105 -203q-98 -79 -250 -121z" />
    <glyph glyph-name="Ldot" unicode="&#x13f;" horiz-adv-x="1159" 
d="M1153 674q0 -71 -44.5 -117.5t-117.5 -46.5q-66 0 -105.5 39.5t-39.5 105.5q0 74 45.5 123t118.5 49q66 0 104.5 -42t38.5 -111zM954 0h-944l2 14q80 18 111 49q39 36 59 152l170 856q25 131 25 178q0 42 -25 64t-92 39l2 14h563l-2 -14q-90 -23 -118 -54
q-30 -36 -66 -211l-166 -843q-12 -71 -12 -101q0 -45 84 -45h203q120 0 184 43q63 38 141 168h14q-24 -153 -53 -260q-7 -29 -24 -39t-56 -10z" />
    <glyph glyph-name="ldot" unicode="&#x140;" horiz-adv-x="856" 
d="M901 676q0 -69 -42 -114.5t-114 -45.5q-58 0 -101.5 40.5t-43.5 100.5q0 75 44 123.5t116 48.5q68 0 104.5 -41.5t36.5 -111.5zM489 88l3 -12q-157 -92 -312 -92q-54 0 -74 22.5t-20 69.5q0 56 31 205l129 614q63 294 63 389q0 49 -18 70q-25 25 -90 28v15q195 49 336 49
q38 0 49.5 -11.5t11.5 -48.5q0 -31 -39 -212l-174 -834q-31 -155 -31 -205q0 -53 62 -53q12 0 73 6z" />
    <glyph glyph-name="Lslash" unicode="&#x141;" horiz-adv-x="1159" 
d="M246 539l-158 -84l-55 96l241 129l78 391q25 131 25 178q0 42 -25 64t-92 39l2 14h563l-2 -14q-90 -23 -118 -54q-30 -36 -66 -211l-47 -239l215 115l51 -97l-295 -157l-90 -465q-12 -71 -12 -101q0 -45 84 -45h203q120 0 184 43q63 38 141 168h14q-24 -153 -53 -260
q-7 -29 -24 -39t-56 -10h-944l2 14q80 18 111 49q39 36 59 152z" />
    <glyph glyph-name="lslash" unicode="&#x142;" horiz-adv-x="626" 
d="M178 573l-112 -57l-41 86l178 94l43 199q63 294 63 389q0 49 -18 70q-25 25 -90 28v15q195 49 336 49q38 0 49.5 -11.5t11.5 -48.5q0 -31 -39 -212l-70 -328l115 59l43 -88l-182 -94l-80 -383q-31 -155 -31 -205q0 -53 62 -53q12 0 73 6l3 -12q-157 -92 -312 -92
q-54 0 -74 22.5t-20 69.5q0 56 31 205z" />
    <glyph glyph-name="Nacute" unicode="&#x143;" horiz-adv-x="1519" 
d="M424 14l-2 -14h-412l4 14q86 21 121 62q31 34 60 186q46 219 151 787q29 155 29 194q0 49 -27 70q-38 27 -92 39l2 14h387q41 0 57 -31q355 -761 433 -946q67 343 131 725q12 71 12 127q0 46 -28 69.5t-97 41.5l2 14h401l-2 -14q-65 -15 -110 -56q-44 -41 -70 -192
l-217 -1118h-153l-533 1208l-162 -924q-18 -120 -18 -151q0 -38 26 -58t107 -47zM1180 1620l-357 -133l-8 12l260 266q58 64 115 64q43 0 70.5 -28t27.5 -75q0 -66 -108 -106z" />
    <glyph glyph-name="nacute" unicode="&#x144;" horiz-adv-x="1165" 
d="M412 483l-101 -483h-256l117 549q41 196 41 301q0 43 -14 57q-26 26 -93 29v12q133 56 304 56q43 0 61 -14t18 -50q0 -84 -51 -272q55 131 176 235q127 109 263 109q80 0 115.5 -30.5t35.5 -107.5q0 -96 -96 -536q-36 -141 -32.5 -198.5t65.5 -57.5q7 0 69 6l2 -12
q-62 -38 -153 -65t-160 -27q-96 0 -96 86q0 28 35 200q102 473 102 512q0 36 -13 51t-44 15q-51 0 -116.5 -47t-103.5 -113q-47 -73 -75 -205zM885 1307l-328 -181l-8 11l209 297q32 45 56 62t60 17q45 0 73 -26t28 -68q0 -65 -90 -112z" />
    <glyph glyph-name="Ncommaaccent" unicode="&#x145;" horiz-adv-x="1519" 
d="M424 14l-2 -14h-412l4 14q86 21 121 62q31 34 60 186q46 219 151 787q29 155 29 194q0 49 -27 70q-38 27 -92 39l2 14h387q41 0 57 -31q355 -761 433 -946q67 343 131 725q12 71 12 127q0 46 -28 69.5t-97 41.5l2 14h401l-2 -14q-65 -15 -110 -56q-44 -41 -70 -192
l-217 -1118h-153l-533 1208l-162 -924q-18 -120 -18 -151q0 -38 26 -58t107 -47zM422 -547l-6 17q188 99 188 186q0 39 -37 76q-26 24 -32 57.5t5.5 61.5t39.5 46.5t65 14.5q60 0 95.5 -36t35.5 -99q0 -121 -104 -203q-98 -79 -250 -121z" />
    <glyph glyph-name="ncommaaccent" unicode="&#x146;" horiz-adv-x="1165" 
d="M412 483l-101 -483h-256l117 549q41 196 41 301q0 43 -14 57q-26 26 -93 29v12q133 56 304 56q43 0 61 -14t18 -50q0 -84 -51 -272q55 131 176 235q127 109 263 109q80 0 115.5 -30.5t35.5 -107.5q0 -96 -96 -536q-36 -141 -32.5 -198.5t65.5 -57.5q7 0 69 6l2 -12
q-62 -38 -153 -65t-160 -27q-96 0 -96 86q0 28 35 200q102 473 102 512q0 36 -13 51t-44 15q-51 0 -116.5 -47t-103.5 -113q-47 -73 -75 -205zM229 -547l-6 17q189 100 189 186q0 39 -37 76q-26 24 -32 57.5t5.5 61.5t39.5 46.5t65 14.5q60 0 95.5 -36t35.5 -99
q0 -120 -105 -203q-98 -79 -250 -121z" />
    <glyph glyph-name="Ncaron" unicode="&#x147;" horiz-adv-x="1519" 
d="M424 14l-2 -14h-412l4 14q86 21 121 62q31 34 60 186q46 219 151 787q29 155 29 194q0 49 -27 70q-38 27 -92 39l2 14h387q41 0 57 -31q355 -761 433 -946q67 343 131 725q12 71 12 127q0 46 -28 69.5t-97 41.5l2 14h401l-2 -14q-65 -15 -110 -56q-44 -41 -70 -192
l-217 -1118h-153l-533 1208l-162 -924q-18 -120 -18 -151q0 -38 26 -58t107 -47zM842 1497l-168 256l10 10l270 -147l334 145l8 -12l-278 -258q-46 -43 -92 -43q-54 0 -84 49z" />
    <glyph glyph-name="ncaron" unicode="&#x148;" horiz-adv-x="1165" 
d="M412 483l-101 -483h-256l117 549q41 196 41 301q0 43 -14 57q-26 26 -93 29v12q133 56 304 56q43 0 61 -14t18 -50q0 -84 -51 -272q55 131 176 235q127 109 263 109q80 0 115.5 -30.5t35.5 -107.5q0 -96 -96 -536q-36 -141 -32.5 -198.5t65.5 -57.5q7 0 69 6l2 -12
q-62 -38 -153 -65t-160 -27q-96 0 -96 86q0 28 35 200q102 473 102 512q0 36 -13 51t-44 15q-51 0 -116.5 -47t-103.5 -113q-47 -73 -75 -205zM526 1182l-135 291l10 10l240 -178l309 178l11 -10l-254 -297q-48 -54 -99 -54t-82 60z" />
    <glyph glyph-name="napostrophe" unicode="&#x149;" horiz-adv-x="1165" 
d="M412 483l-101 -483h-256l117 549q41 196 41 301q0 43 -14 57q-26 26 -93 29v12q133 56 304 56q43 0 61 -14t18 -50q0 -84 -51 -272q55 131 176 235q127 109 263 109q80 0 115.5 -30.5t35.5 -107.5q0 -96 -96 -536q-36 -141 -32.5 -198.5t65.5 -57.5q7 0 69 6l2 -12
q-62 -38 -153 -65t-160 -27q-96 0 -96 86q0 28 35 200q102 473 102 512q0 36 -13 51t-44 15q-51 0 -116.5 -47t-103.5 -113q-47 -73 -75 -205zM143 1081l-6 17q189 100 189 186q0 39 -37 76q-26 24 -32 57.5t5.5 61.5t39.5 46.5t65 14.5q60 0 95.5 -36t35.5 -99
q0 -121 -105 -203q-98 -79 -250 -121z" />
    <glyph glyph-name="Eng" unicode="&#x14a;" horiz-adv-x="1519" 
d="M426 14l-2 -14h-414l4 14q86 21 121 62q31 39 60 186q10 49 151 785q29 171 29 196q0 49 -27 70q-38 27 -92 39l2 14h387q40 0 55 -35q366 -772 437 -934l127 715q12 70 12 129q0 46 -28 69.5t-97 41.5l2 14h403l-2 -14q-69 -14 -110 -58q-37 -34 -72 -192l-201 -1047
q-16 -87 -34 -172q-29 -136 -86 -219q-98 -137 -285 -137q-51 0 -94 16q-37 12 -37 54q0 70 37 194h14q24 -166 131 -166q69 0 111 51q57 61 84 236l8 51l-549 1227l-162 -920q-18 -120 -18 -151q0 -38 28.5 -60t106.5 -45z" />
    <glyph glyph-name="eng" unicode="&#x14b;" horiz-adv-x="1165" 
d="M412 477l-101 -477h-256l115 537q43 197 43 315q0 31 -10 51q-23 30 -97 33v12q133 56 295 56q44 0 62 -14.5t18 -51.5q0 -97 -43 -268q57 129 178 235q119 107 252 107q77 0 112.5 -31.5t35.5 -108.5q0 -64 -43 -301q-45 -249 -101 -481q-73 -317 -165 -438
q-125 -162 -369 -162q-55 0 -92 16q-35 18 -35 50q0 55 39 168h16q1 -72 31.5 -115t75.5 -43q57 0 98 53q48 68 125 397q156 698 156 768q3 63 -52 63q-60 0 -135 -64q-55 -47 -84 -103q-41 -72 -69 -203z" />
    <glyph glyph-name="Omacron" unicode="&#x14c;" horiz-adv-x="1425" 
d="M1384 918q0 -211 -75 -424q-78 -222 -226 -355q-86 -80 -210.5 -123t-256.5 -43q-249 0 -383.5 138.5t-134.5 386.5q0 189 72 399q73 204 221 334q89 78 218 121t261 43q514 0 514 -477zM1075 987q0 166 -52 241t-167 75q-145 0 -248 -140q-86 -116 -145 -334
q-57 -206 -57 -411q0 -180 53.5 -265t171.5 -85q154 0 243 133q95 143 146 374q55 235 55 412zM1204 1645l-26 -140h-568l27 140h567z" />
    <glyph glyph-name="omacron" unicode="&#x14d;" horiz-adv-x="1044" 
d="M973 666q0 -151 -45 -293q-44 -147 -131 -248q-134 -152 -379 -152q-171 0 -266 100.5t-95 278.5q0 327 189 525q129 135 366 135q172 0 266.5 -88.5t94.5 -257.5zM719 788q0 152 -123 152q-85 0 -143 -104q-54 -105 -101 -301q-43 -191 -43 -322q0 -168 123 -168
q109 0 164 131q47 121 84 313q39 186 39 299zM944 1358l-35 -144h-520l35 144h520z" />
    <glyph glyph-name="Obreve" unicode="&#x14e;" horiz-adv-x="1425" 
d="M1384 918q0 -211 -75 -424q-78 -222 -226 -355q-86 -80 -210.5 -123t-256.5 -43q-249 0 -383.5 138.5t-134.5 386.5q0 189 72 399q73 204 221 334q89 78 218 121t261 43q514 0 514 -477zM1075 987q0 166 -52 241t-167 75q-145 0 -248 -140q-86 -116 -145 -334
q-57 -206 -57 -411q0 -180 53.5 -265t171.5 -85q154 0 243 133q95 143 146 374q55 235 55 412zM1174 1753l16 -2q-46 -297 -305 -297q-226 0 -226 240q0 34 5 59h14q18 -147 227 -147q108 0 171 34.5t98 112.5z" />
    <glyph glyph-name="obreve" unicode="&#x14f;" horiz-adv-x="1044" 
d="M973 666q0 -151 -45 -293q-44 -147 -131 -248q-134 -152 -379 -152q-171 0 -266 100.5t-95 278.5q0 327 189 525q129 135 366 135q172 0 266.5 -88.5t94.5 -257.5zM719 788q0 152 -123 152q-85 0 -143 -104q-54 -105 -101 -301q-43 -191 -43 -322q0 -168 123 -168
q109 0 164 131q47 121 84 313q39 186 39 299zM928 1468l14 -4q-52 -309 -301 -309q-221 0 -221 246q0 40 6 67l14 2q14 -82 64.5 -121.5t152.5 -39.5q103 0 165 37.5t106 121.5z" />
    <glyph glyph-name="Ohungarumlaut" unicode="&#x150;" horiz-adv-x="1425" 
d="M1384 918q0 -211 -75 -424q-78 -222 -226 -355q-86 -80 -210.5 -123t-256.5 -43q-249 0 -383.5 138.5t-134.5 386.5q0 189 72 399q73 204 221 334q89 78 218 121t261 43q514 0 514 -477zM1075 987q0 166 -52 241t-167 75q-145 0 -248 -140q-86 -116 -145 -334
q-57 -206 -57 -411q0 -180 53.5 -265t171.5 -85q154 0 243 133q95 143 146 374q55 235 55 412zM952 1616l-350 -152l-8 13l256 264q67 67 117 67q39 0 65.5 -23.5t26.5 -60.5q0 -62 -107 -108zM1325 1616l-350 -152l-8 13l256 264q67 67 116 67q39 0 65 -23t26 -61
q0 -64 -105 -108z" />
    <glyph glyph-name="ohungarumlaut" unicode="&#x151;" horiz-adv-x="1044" 
d="M973 666q0 -151 -45 -293q-44 -147 -131 -248q-134 -152 -379 -152q-171 0 -266 100.5t-95 278.5q0 327 189 525q129 135 366 135q172 0 266.5 -88.5t94.5 -257.5zM719 788q0 152 -123 152q-85 0 -143 -104q-54 -105 -101 -301q-43 -191 -43 -322q0 -168 123 -168
q109 0 164 131q47 121 84 313q39 186 39 299zM709 1317l-306 -193l-10 13l205 293q33 45 55.5 62t57.5 17q90 0 90 -79q0 -54 -92 -113zM1042 1317l-305 -193l-10 13l205 293q33 46 55 62.5t57 16.5q91 0 91 -79q0 -54 -93 -113z" />
    <glyph glyph-name="OE" unicode="&#x152;" horiz-adv-x="1908" 
d="M1806 313h13q-22 -136 -58 -270q-7 -29 -20 -36t-55 -7h-658q-68 0 -209 -6q-123 -8 -209 -8q-250 0 -381 126.5t-131 368.5q0 231 88.5 432t259.5 326q194 141 463 141q74 0 181 -8q120 -6 192 -6h592q47 0 47 -35q0 -42 -61 -252h-15q-21 166 -88 178q-47 9 -127 9
h-170q-34 0 -48.5 -17t-22.5 -63l-86 -424h141q120 0 178 10q43 10 69 38t62 99h14l-75 -385h-13q-8 63 -30 93.5t-72 37.5q-41 9 -150 9h-141l-82 -431q-12 -65 -12 -92q0 -25 17.5 -34t64.5 -9h205q112 0 180 39q67 43 147 176zM920 236l176 905q8 44 8 59q0 25 -17 49
q-39 39 -151 39q-192 0 -318 -153q-102 -123 -155 -330t-53 -397q0 -153 71.5 -240.5t208.5 -87.5q125 0 176 39q39 28 54 117z" />
    <glyph glyph-name="oe" unicode="&#x153;" horiz-adv-x="1513" 
d="M729 98q-110 -125 -309 -125q-170 0 -266.5 104.5t-96.5 278.5q0 319 187 518q132 138 364 138q101 0 178.5 -38t108.5 -110q52 64 141 106t176 42q139 0 209 -45.5t70 -147.5q0 -33 -11 -71t-46.5 -88.5t-91.5 -89.5t-157.5 -68t-232.5 -31q-16 -66 -16 -162
q0 -103 39 -145.5t123 -42.5q149 0 264 100l6 -4q0 -16 -6 -37q-5 -19 -31 -57q-53 -62 -154 -106t-202 -44q-197 0 -246 125zM713 797q0 143 -113 143q-86 0 -139 -84q-62 -97 -109 -301q-43 -194 -43 -350q0 -160 115 -160q109 0 164 125q55 126 88 311q37 191 37 316z
M961 514q169 34 249 133q82 101 82 199q0 96 -78 96q-71 0 -133 -92q-61 -91 -120 -336z" />
    <glyph glyph-name="Racute" unicode="&#x154;" horiz-adv-x="1413" 
d="M578 14l-5 -14h-563l2 14q93 21 123 62q25 28 60 192l161 836q21 102 21 151q0 38 -28 60.5t-91 36.5l4 14h494q146 0 284 -25q115 -23 179.5 -100t64.5 -190q0 -152 -97 -255t-272 -145q54 -28 103 -110q27 -46 61 -140q14 -32 37 -96l43 -106q31 -73 73 -113t114 -63
l-5 -15q-122 -16 -227 -16q-133 0 -184 39q-48 37 -101 196q-25 79 -48 149t-37.5 112.5t-16.5 50.5q-24 59 -102 59h-82l-66 -330q-20 -100 -20 -151q0 -28 12 -49q20 -33 109 -54zM657 1190l-94 -496h70q134 0 205 45q141 88 141 338q0 118 -76 164q-59 33 -137 33h-33
q-36 0 -52 -19t-24 -65zM1034 1620l-356 -133l-8 12l260 266q58 64 114 64q43 0 71 -28t28 -75q0 -65 -109 -106z" />
    <glyph glyph-name="racute" unicode="&#x155;" horiz-adv-x="880" 
d="M408 465l-97 -465h-256l117 547q41 196 41 303q0 35 -14 55q-25 28 -95 31v12q139 56 308 56q43 0 60 -14.5t17 -55.5q0 -74 -51 -268q47 124 142 237q95 109 206 109q44 0 66 -11q25 -16 25 -49q0 -57 -66 -217h-14q-24 103 -107 103q-117 0 -207 -158q-50 -85 -75 -215
zM801 1307l-328 -181l-8 11l209 297q32 44 56.5 61.5t60.5 17.5q45 0 72.5 -26t27.5 -68q0 -65 -90 -112z" />
    <glyph glyph-name="Rcommaaccent" unicode="&#x156;" horiz-adv-x="1413" 
d="M578 14l-5 -14h-563l2 14q93 21 123 62q25 28 60 192l161 836q21 102 21 151q0 38 -28 60.5t-91 36.5l4 14h494q146 0 284 -25q115 -23 179.5 -100t64.5 -190q0 -152 -97 -255t-272 -145q54 -28 103 -110q27 -46 61 -140q14 -32 37 -96l43 -106q31 -73 73 -113t114 -63
l-5 -15q-122 -16 -227 -16q-133 0 -184 39q-48 37 -101 196q-25 79 -48 149t-37.5 112.5t-16.5 50.5q-24 59 -102 59h-82l-66 -330q-20 -100 -20 -151q0 -28 12 -49q20 -33 109 -54zM657 1190l-94 -496h70q134 0 205 45q141 88 141 338q0 118 -76 164q-59 33 -137 33h-33
q-36 0 -52 -19t-24 -65zM430 -547l-6 17q188 99 188 186q0 39 -37 76q-26 24 -32 57.5t5.5 61.5t39.5 46.5t65 14.5q60 0 95.5 -36t35.5 -99q0 -121 -104 -203q-98 -79 -250 -121z" />
    <glyph glyph-name="rcommaaccent" unicode="&#x157;" horiz-adv-x="880" 
d="M408 465l-97 -465h-256l117 547q41 196 41 303q0 35 -14 55q-25 28 -95 31v12q139 56 308 56q43 0 60 -14.5t17 -55.5q0 -74 -51 -268q47 124 142 237q95 109 206 109q44 0 66 -11q25 -16 25 -49q0 -57 -66 -217h-14q-24 103 -107 103q-117 0 -207 -158q-50 -85 -75 -215
zM-70 -547l-6 17q189 100 189 186q0 39 -37 76q-26 24 -32 57.5t5.5 61.5t39.5 46.5t65 14.5q60 0 95.5 -36t35.5 -99q0 -120 -105 -203q-98 -79 -250 -121z" />
    <glyph glyph-name="Rcaron" unicode="&#x158;" horiz-adv-x="1413" 
d="M578 14l-5 -14h-563l2 14q93 21 123 62q25 28 60 192l161 836q21 102 21 151q0 38 -28 60.5t-91 36.5l4 14h494q146 0 284 -25q115 -23 179.5 -100t64.5 -190q0 -152 -97 -255t-272 -145q54 -28 103 -110q27 -46 61 -140q14 -32 37 -96l43 -106q31 -73 73 -113t114 -63
l-5 -15q-122 -16 -227 -16q-133 0 -184 39q-48 37 -101 196q-25 79 -48 149t-37.5 112.5t-16.5 50.5q-24 59 -102 59h-82l-66 -330q-20 -100 -20 -151q0 -28 12 -49q20 -33 109 -54zM657 1190l-94 -496h70q134 0 205 45q141 88 141 338q0 118 -76 164q-59 33 -137 33h-33
q-36 0 -52 -19t-24 -65zM680 1497l-168 256l10 10l271 -147l333 145l9 -12l-279 -258q-46 -43 -92 -43q-54 0 -84 49z" />
    <glyph glyph-name="rcaron" unicode="&#x159;" horiz-adv-x="880" 
d="M408 465l-97 -465h-256l117 547q41 196 41 303q0 35 -14 55q-25 28 -95 31v12q139 56 308 56q43 0 60 -14.5t17 -55.5q0 -74 -51 -268q47 124 142 237q95 109 206 109q44 0 66 -11q25 -16 25 -49q0 -57 -66 -217h-14q-24 103 -107 103q-117 0 -207 -158q-50 -85 -75 -215
zM422 1182l-135 291l10 10l240 -178l309 178l10 -10l-254 -297q-44 -55 -97.5 -54t-82.5 60z" />
    <glyph glyph-name="Sacute" unicode="&#x15a;" horiz-adv-x="1042" 
d="M80 360h16q73 -292 348 -292q137 0 204 60t67 163q0 68 -47.5 122.5t-173.5 135.5l-93 59q-217 141 -217 353q0 209 148 321.5t413 112.5q140 0 238 -39q55 -21 55 -64q0 -71 -51 -223h-14q-20 126 -82 180t-191 54q-131 0 -203.5 -56.5t-72.5 -152.5q0 -62 37 -111
t135 -115l94 -65q150 -104 211 -182q64 -82 64 -215q0 -199 -152 -318q-151 -115 -397 -115q-207 0 -316 68q-49 30 -49 86q0 57 29 233zM930 1597l-357 -133l-8 13l260 266q57 63 115 63q43 0 70.5 -27.5t27.5 -74.5q0 -67 -108 -107z" />
    <glyph glyph-name="sacute" unicode="&#x15b;" horiz-adv-x="825" 
d="M51 289h15q20 -106 93 -174t165 -68q172 0 172 143q0 49 -33.5 92t-124.5 101l-62 39q-84 57 -123.5 116.5t-39.5 143.5q0 155 117.5 242.5t320.5 87.5q98 0 180 -29q41 -15 41 -57q0 -15 -16 -84q-13 -57 -37 -113h-14q-35 209 -203 209q-88 0 -133 -38.5t-45 -106.5
q0 -81 118 -156l64 -43q81 -56 112 -84q42 -35 70.5 -88.5t28.5 -112.5q0 -155 -113 -245.5t-303 -90.5q-172 0 -248 58q-35 24 -35 63q0 80 33 195zM750 1307l-328 -181l-8 11l209 297q32 45 56 62t60 17q45 0 73 -26t28 -68q0 -65 -90 -112z" />
    <glyph glyph-name="Scircumflex" unicode="&#x15c;" horiz-adv-x="1042" 
d="M80 360h16q73 -292 348 -292q137 0 204 60t67 163q0 68 -47.5 122.5t-173.5 135.5l-93 59q-217 141 -217 353q0 209 148 321.5t413 112.5q140 0 238 -39q55 -21 55 -64q0 -71 -51 -223h-14q-20 126 -82 180t-191 54q-131 0 -203.5 -56.5t-72.5 -152.5q0 -62 37 -111
t135 -115l94 -65q150 -104 211 -182q64 -82 64 -215q0 -199 -152 -318q-151 -115 -397 -115q-207 0 -316 68q-49 30 -49 86q0 57 29 233zM858 1718l168 -256l-12 -10l-269 147l-333 -145l-11 12l279 260q41 41 90 41q54 0 88 -49z" />
    <glyph glyph-name="scircumflex" unicode="&#x15d;" horiz-adv-x="825" 
d="M51 289h15q20 -106 93 -174t165 -68q172 0 172 143q0 49 -33.5 92t-124.5 101l-62 39q-84 57 -123.5 116.5t-39.5 143.5q0 155 117.5 242.5t320.5 87.5q98 0 180 -29q41 -15 41 -57q0 -15 -16 -84q-13 -57 -37 -113h-14q-35 209 -203 209q-88 0 -133 -38.5t-45 -106.5
q0 -81 118 -156l64 -43q81 -56 112 -84q42 -35 70.5 -88.5t28.5 -112.5q0 -155 -113 -245.5t-303 -90.5q-172 0 -248 58q-35 24 -35 63q0 80 33 195zM682 1425l139 -290l-12 -11l-240 179l-309 -179l-10 11l254 297q44 55 98 53.5t80 -60.5z" />
    <glyph glyph-name="Scedilla" unicode="&#x15e;" horiz-adv-x="1042" 
d="M217 -412v9l8 6q25 -25 94 -25q54 0 87.5 27t33.5 84q0 44 -25 68t-67 24q-21 0 -41 -4l-6 8l90 188q-196 6 -291 68q-49 30 -49 86q0 57 29 233h16q73 -292 348 -292q137 0 204 60t67 163q0 68 -47.5 122.5t-173.5 135.5l-93 59q-217 141 -217 353q0 209 148 321.5
t413 112.5q140 0 238 -39q55 -21 55 -64q0 -71 -51 -223h-14q-20 126 -82 180t-191 54q-131 0 -203.5 -56.5t-72.5 -152.5q0 -62 37 -111t135 -115l94 -65q150 -104 211 -182q64 -82 64 -215q0 -195 -142 -310q-141 -114 -377 -123l-43 -96q105 0 158 -44t53 -120
q0 -96 -76 -153.5t-188 -57.5q-97 0 -121 35q-12 15 -12 51z" />
    <glyph glyph-name="scedilla" unicode="&#x15f;" horiz-adv-x="825" 
d="M88 -401v8l8 4q25 -25 92 -25q50 0 83.5 28t33.5 81q0 42 -25 67t-63 25q-9 0 -41 -4l-8 6l88 186q-141 9 -203 56q-35 24 -35 63q0 80 33 195h15q20 -106 93 -174t165 -68q172 0 172 143q0 49 -33.5 92t-124.5 101l-62 39q-84 57 -123.5 116.5t-39.5 143.5
q0 155 117.5 242.5t320.5 87.5q98 0 180 -29q41 -15 41 -57q0 -15 -16 -84q-13 -57 -37 -113h-14q-35 209 -203 209q-88 0 -133 -38.5t-45 -106.5q0 -81 118 -156l64 -43q81 -56 112 -84q42 -35 70.5 -88.5t28.5 -112.5q0 -153 -110 -242t-298 -94l-39 -94q101 0 152 -42
t51 -116q0 -94 -73.5 -150t-182.5 -56q-96 0 -117 34q-12 15 -12 50z" />
    <glyph glyph-name="Scaron" unicode="&#x160;" horiz-adv-x="1042" 
d="M80 360h16q73 -292 348 -292q137 0 204 60t67 163q0 68 -47.5 122.5t-173.5 135.5l-93 59q-217 141 -217 353q0 209 148 321.5t413 112.5q140 0 238 -39q55 -21 55 -64q0 -71 -51 -223h-14q-20 126 -82 180t-191 54q-131 0 -203.5 -56.5t-72.5 -152.5q0 -62 37 -111
t135 -115l94 -65q150 -104 211 -182q64 -82 64 -215q0 -199 -152 -318q-151 -115 -397 -115q-207 0 -316 68q-49 30 -49 86q0 57 29 233zM631 1497l-168 256l10 10l270 -147l334 145l8 -12l-278 -258q-46 -43 -92 -43q-54 0 -84 49z" />
    <glyph glyph-name="scaron" unicode="&#x161;" horiz-adv-x="825" 
d="M51 289h15q20 -106 93 -174t165 -68q172 0 172 143q0 49 -33.5 92t-124.5 101l-62 39q-84 57 -123.5 116.5t-39.5 143.5q0 155 117.5 242.5t320.5 87.5q98 0 180 -29q41 -15 41 -57q0 -15 -16 -84q-13 -57 -37 -113h-14q-35 209 -203 209q-88 0 -133 -38.5t-45 -106.5
q0 -81 118 -156l64 -43q81 -56 112 -84q42 -35 70.5 -88.5t28.5 -112.5q0 -155 -113 -245.5t-303 -90.5q-172 0 -248 58q-35 24 -35 63q0 80 33 195zM420 1182l-135 291l10 10l240 -178l309 178l10 -10l-254 -297q-48 -54 -98 -54q-51 0 -82 60z" />
    <glyph glyph-name="uni0162" unicode="&#x162;" horiz-adv-x="1230" 
d="M299 -412v9l8 6q25 -25 94 -25q54 0 87.5 27t33.5 84q0 44 -25 68t-67 24q-21 0 -41 -4l-6 8l102 215h-254l5 14q84 20 120 62q28 36 62 205l174 876q8 36 8 68q0 41 -53 41h-60q-83 0 -139 -21q-90 -35 -188 -203h-15q20 179 43 279q6 26 17.5 35.5t36.5 9.5h1036
q51 0 51 -31q0 -64 -63 -293h-15q-24 179 -110 209q-43 15 -129 15h-68q-31 0 -43.5 -11.5t-19.5 -48.5l-181 -948q-20 -97 -20 -154q0 -34 30 -55t93 -35l-2 -14h-260l-56 -123q105 0 158 -44t53 -120q0 -96 -76 -153.5t-188 -57.5q-97 0 -121 35q-12 15 -12 51z" />
    <glyph glyph-name="uni0163" unicode="&#x163;" horiz-adv-x="686" 
d="M70 -401v8l8 4q25 -25 92 -25q50 0 83.5 28t33.5 81q0 42 -25 67t-63 25q-9 0 -41 -4l-8 6l94 197q-142 35 -142 192q0 48 25 176l111 527h-129l14 55q81 18 133 45q55 28 90 88q53 94 78 158h133l-45 -242h197l-19 -104h-196l-117 -559q-23 -115 -23 -172
q0 -36 23.5 -58t60.5 -22q64 0 129 41l6 -5q0 -23 -18 -47q-9 -15 -43 -36q-76 -46 -188 -46q-22 0 -31 3l-41 -101q101 0 152 -42t51 -116q0 -94 -73.5 -150t-182.5 -56q-96 0 -117 34q-12 15 -12 50z" />
    <glyph glyph-name="Tcaron" unicode="&#x164;" horiz-adv-x="1230" 
d="M791 14l-3 -14h-569l4 14q85 20 121 62q28 36 62 205l174 876q8 36 8 68q0 41 -53 41h-60q-83 0 -139 -21q-91 -36 -189 -203h-14q20 179 43 279q6 26 17 35.5t36 9.5h1037q51 0 51 -31q0 -61 -64 -293h-14q-24 178 -111 209q-44 15 -129 15h-67q-31 0 -44 -12t-20 -48
l-180 -948q-20 -97 -20 -154q0 -34 30 -55t93 -35zM666 1497l-168 256l10 10l270 -147l334 145l8 -12l-278 -258q-46 -43 -92 -43q-54 0 -84 49z" />
    <glyph glyph-name="tcaron" unicode="&#x165;" horiz-adv-x="686" 
d="M567 111l6 -5q0 -23 -18 -47q-9 -15 -43 -36q-76 -46 -188 -46q-222 0 -222 201q0 48 25 176l111 527h-129l14 55q81 18 133 45q55 28 90 88q53 94 78 158h133l-45 -242h197l-19 -104h-196l-117 -559q-23 -115 -23 -172q0 -36 23.5 -58t60.5 -22q64 0 129 41zM639 1065
l-6 16q188 99 188 187q0 38 -37 75q-34 30 -34 78q0 49 31 77t81 28q61 0 96 -36t35 -101q0 -121 -104 -203q-98 -79 -250 -121z" />
    <glyph glyph-name="Tbar" unicode="&#x166;" horiz-adv-x="1230" 
d="M803 14l-2 -14h-570l5 14q84 20 120 62q28 36 62 205l80 401h-269l27 123h266l70 352q8 36 8 68q0 41 -53 41h-60q-83 0 -139 -21q-90 -35 -188 -203h-15q20 179 43 279q6 26 17.5 35.5t36.5 9.5h1036q51 0 51 -31q0 -64 -63 -293h-15q-24 179 -110 209q-43 15 -129 15
h-68q-31 0 -43.5 -11.5t-19.5 -48.5l-76 -401h278l-28 -123h-275l-80 -424q-20 -97 -20 -154q0 -34 30 -55t93 -35z" />
    <glyph glyph-name="tbar" unicode="&#x167;" horiz-adv-x="686" 
d="M567 111l6 -5q0 -23 -18 -47q-9 -15 -43 -36q-76 -46 -188 -46q-222 0 -222 201q0 48 25 176l45 219h-113l23 103h113l43 205h-129l14 55q81 18 133 45q55 28 90 88q53 94 78 158h133l-45 -242h197l-19 -104h-196l-43 -205h196l-22 -103h-197l-51 -251q-23 -115 -23 -172
q0 -36 23.5 -58t60.5 -22q64 0 129 41z" />
    <glyph glyph-name="Utilde" unicode="&#x168;" horiz-adv-x="1497" 
d="M246 1352l2 14h565l-2 -14q-86 -19 -119 -52q-29 -29 -53 -149l-121 -619q-26 -127 -26 -235q0 -219 258 -219q178 0 278 112q82 88 123 304l119 606q18 88 18 141q0 50 -25.5 71.5t-99.5 39.5l4 14h402l-2 -14q-40 -8 -82 -27q-65 -35 -92 -180l-117 -613
q-52 -278 -141 -380q-156 -179 -482 -179q-123 0 -217 27q-100 31 -163.5 111.5t-63.5 201.5q0 81 31 256l108 553q14 71 14 138q0 37 -24 55.5t-92 36.5zM1272 1729l14 -7q-18 -56 -49 -114q-57 -115 -156 -115q-52 0 -137 39q-87 43 -133 43q-73 0 -135 -96l-19 6
q33 77 78 151q27 43 64 66q39 22 78 22t139 -47q78 -37 117 -37q44 0 75 20.5t64 68.5z" />
    <glyph glyph-name="utilde" unicode="&#x169;" horiz-adv-x="1161" 
d="M1051 86l2 -10q-142 -92 -295 -92q-107 0 -107 118q0 79 37 224q-67 -137 -188 -246q-119 -107 -250 -107q-79 0 -117.5 36.5t-38.5 123.5q0 104 88 483q33 132 33 236q0 51 -35 66q-38 15 -78 18v10q63 27 154 41q112 17 164 17q48 0 65 -17q19 -16 19 -51
q0 -34 -41 -215q-105 -443 -105 -510q0 -59 56 -59q94 0 202 141q63 84 101 258l88 434h256l-111 -539q-45 -213 -45 -278q0 -86 76 -86q16 0 70 4zM979 1407l14 -6q-76 -230 -194 -230q-47 0 -137 41q-78 37 -115 37q-78 0 -137 -92l-17 4q31 78 45 109q23 50 69 92.5
t91 42.5q47 0 123 -43q82 -43 123 -43q42 0 69.5 18.5t65.5 69.5z" />
    <glyph glyph-name="Umacron" unicode="&#x16a;" horiz-adv-x="1497" 
d="M246 1352l2 14h565l-2 -14q-86 -19 -119 -52q-29 -29 -53 -149l-121 -619q-26 -127 -26 -235q0 -219 258 -219q178 0 278 112q82 88 123 304l119 606q18 88 18 141q0 50 -25.5 71.5t-99.5 39.5l4 14h402l-2 -14q-40 -8 -82 -27q-65 -35 -92 -180l-117 -613
q-52 -278 -141 -380q-156 -179 -482 -179q-123 0 -217 27q-100 31 -163.5 111.5t-63.5 201.5q0 81 31 256l108 553q14 71 14 138q0 37 -24 55.5t-92 36.5zM1253 1645l-26 -140h-568l27 140h567z" />
    <glyph glyph-name="umacron" unicode="&#x16b;" horiz-adv-x="1161" 
d="M1051 86l2 -10q-142 -92 -295 -92q-107 0 -107 118q0 79 37 224q-67 -137 -188 -246q-119 -107 -250 -107q-79 0 -117.5 36.5t-38.5 123.5q0 104 88 483q33 132 33 236q0 51 -35 66q-38 15 -78 18v10q63 27 154 41q112 17 164 17q48 0 65 -17q19 -16 19 -51
q0 -34 -41 -215q-105 -443 -105 -510q0 -59 56 -59q94 0 202 141q63 84 101 258l88 434h256l-111 -539q-45 -213 -45 -278q0 -86 76 -86q16 0 70 4zM958 1358l-34 -144h-521l35 144h520z" />
    <glyph glyph-name="Ubreve" unicode="&#x16c;" horiz-adv-x="1497" 
d="M246 1352l2 14h565l-2 -14q-86 -19 -119 -52q-29 -29 -53 -149l-121 -619q-26 -127 -26 -235q0 -219 258 -219q178 0 278 112q82 88 123 304l119 606q18 88 18 141q0 50 -25.5 71.5t-99.5 39.5l4 14h402l-2 -14q-40 -8 -82 -27q-65 -35 -92 -180l-117 -613
q-52 -278 -141 -380q-156 -179 -482 -179q-123 0 -217 27q-100 31 -163.5 111.5t-63.5 201.5q0 81 31 256l108 553q14 71 14 138q0 37 -24 55.5t-92 36.5zM1239 1753l16 -2q-46 -297 -305 -297q-225 0 -225 240q0 39 4 59h14q18 -147 228 -147q108 0 170.5 34.5t97.5 112.5z
" />
    <glyph glyph-name="ubreve" unicode="&#x16d;" horiz-adv-x="1161" 
d="M1051 86l2 -10q-142 -92 -295 -92q-107 0 -107 118q0 79 37 224q-67 -137 -188 -246q-119 -107 -250 -107q-79 0 -117.5 36.5t-38.5 123.5q0 104 88 483q33 132 33 236q0 51 -35 66q-38 15 -78 18v10q63 27 154 41q112 17 164 17q48 0 65 -17q19 -16 19 -51
q0 -34 -41 -215q-105 -443 -105 -510q0 -59 56 -59q94 0 202 141q63 84 101 258l88 434h256l-111 -539q-45 -213 -45 -278q0 -86 76 -86q16 0 70 4zM954 1468l15 -4q-52 -309 -301 -309q-222 0 -222 246q0 35 7 67l14 2q14 -82 64.5 -121.5t152.5 -39.5q103 0 164.5 37.5
t105.5 121.5z" />
    <glyph glyph-name="Uring" unicode="&#x16e;" horiz-adv-x="1497" 
d="M246 1352l2 14h565l-2 -14q-86 -19 -119 -52q-29 -29 -53 -149l-121 -619q-26 -127 -26 -235q0 -219 258 -219q178 0 278 112q82 88 123 304l119 606q18 88 18 141q0 50 -25.5 71.5t-99.5 39.5l4 14h402l-2 -14q-40 -8 -82 -27q-65 -35 -92 -180l-117 -613
q-52 -278 -141 -380q-156 -179 -482 -179q-123 0 -217 27q-100 31 -163.5 111.5t-63.5 201.5q0 81 31 256l108 553q14 71 14 138q0 37 -24 55.5t-92 36.5zM1147 1626q0 -75 -49 -127.5t-127 -52.5q-67 0 -110.5 44t-43.5 112q0 79 50.5 128.5t129.5 49.5q67 0 108.5 -43
t41.5 -111zM1087 1622q0 45 -27.5 74.5t-70.5 29.5q-50 0 -81 -33t-31 -87q0 -46 27 -75.5t75 -29.5q47 0 77.5 35t30.5 86z" />
    <glyph glyph-name="uring" unicode="&#x16f;" horiz-adv-x="1161" 
d="M1051 86l2 -10q-142 -92 -295 -92q-107 0 -107 118q0 79 37 224q-67 -137 -188 -246q-119 -107 -250 -107q-79 0 -117.5 36.5t-38.5 123.5q0 104 88 483q33 132 33 236q0 51 -35 66q-38 15 -78 18v10q63 27 154 41q112 17 164 17q48 0 65 -17q19 -16 19 -51
q0 -34 -41 -215q-105 -443 -105 -510q0 -59 56 -59q94 0 202 141q63 84 101 258l88 434h256l-111 -539q-45 -213 -45 -278q0 -86 76 -86q16 0 70 4zM848 1325q0 -83 -53 -136.5t-138 -53.5q-73 0 -119 45.5t-46 117.5q0 82 54 135.5t138 53.5q75 0 119.5 -44t44.5 -118z
M786 1319q0 50 -30.5 81.5t-79.5 31.5q-54 0 -87.5 -37.5t-33.5 -94.5q0 -49 29 -79.5t82 -30.5q51 0 85.5 37t34.5 92z" />
    <glyph glyph-name="Uhungarumlaut" unicode="&#x170;" horiz-adv-x="1497" 
d="M246 1352l2 14h565l-2 -14q-86 -19 -119 -52q-29 -29 -53 -149l-121 -619q-26 -127 -26 -235q0 -219 258 -219q178 0 278 112q82 88 123 304l119 606q18 88 18 141q0 50 -25.5 71.5t-99.5 39.5l4 14h402l-2 -14q-40 -8 -82 -27q-65 -35 -92 -180l-117 -613
q-52 -278 -141 -380q-156 -179 -482 -179q-123 0 -217 27q-100 31 -163.5 111.5t-63.5 201.5q0 81 31 256l108 553q14 71 14 138q0 37 -24 55.5t-92 36.5zM1024 1616l-350 -152l-8 13l256 264q67 67 116 67q39 0 65.5 -23.5t26.5 -60.5q0 -62 -106 -108zM1397 1616
l-350 -152l-9 13l256 264q67 67 117 67q39 0 64.5 -23t25.5 -61q0 -65 -104 -108z" />
    <glyph glyph-name="uhungarumlaut" unicode="&#x171;" horiz-adv-x="1161" 
d="M1051 86l2 -10q-142 -92 -295 -92q-107 0 -107 118q0 79 37 224q-67 -137 -188 -246q-119 -107 -250 -107q-79 0 -117.5 36.5t-38.5 123.5q0 104 88 483q33 132 33 236q0 51 -35 66q-38 15 -78 18v10q63 27 154 41q112 17 164 17q48 0 65 -17q19 -16 19 -51
q0 -34 -41 -215q-105 -443 -105 -510q0 -59 56 -59q94 0 202 141q63 84 101 258l88 434h256l-111 -539q-45 -213 -45 -278q0 -86 76 -86q16 0 70 4zM711 1317l-305 -193l-11 13l205 293q33 45 55.5 62t57.5 17q90 0 90 -79q0 -54 -92 -113zM1044 1317l-305 -193l-10 13
l205 293q33 45 55.5 62t57.5 17q90 0 90 -79q0 -54 -93 -113z" />
    <glyph glyph-name="Uogonek" unicode="&#x172;" horiz-adv-x="1497" 
d="M801 -360l6 -7l-2 -8q-7 -25 -21 -39q-41 -47 -139 -47q-100 0 -152.5 46t-52.5 124q0 170 217 264h-4q-123 0 -217 27q-100 31 -163.5 111.5t-63.5 201.5q0 81 31 256l108 553q14 71 14 138q0 37 -24 55.5t-92 36.5l2 14h565l-2 -14q-86 -19 -119 -52q-29 -29 -53 -149
l-121 -619q-26 -127 -26 -235q0 -219 258 -219q178 0 278 112q82 88 123 304l119 606q18 88 18 141q0 50 -25.5 71.5t-99.5 39.5l4 14h402l-2 -14q-40 -8 -82 -27q-65 -35 -92 -180l-117 -613q-52 -278 -141 -380q-139 -157 -394 -175q-133 -115 -133 -239q0 -113 107 -113
q59 0 86 15z" />
    <glyph glyph-name="uogonek" unicode="&#x173;" horiz-adv-x="1161" 
d="M836 -348l6 -4l-2 -10q-10 -30 -21 -41q-37 -46 -135 -46q-97 0 -148 44t-51 120q0 174 238 273q-72 15 -72 114q0 79 37 224q-67 -137 -188 -246q-119 -107 -250 -107q-79 0 -117.5 36.5t-38.5 123.5q0 104 88 483q33 132 33 236q0 51 -35 66q-38 15 -78 18v10
q63 27 154 41q112 17 164 17q48 0 65 -17q19 -16 19 -51q0 -34 -41 -215q-105 -443 -105 -510q0 -59 56 -59q94 0 202 141q63 84 101 258l88 434h256l-111 -539q-45 -213 -45 -278q0 -86 76 -86q16 0 70 4l2 -10q-123 -78 -267 -90q-137 -116 -137 -240q0 -108 101 -108
q61 0 86 14z" />
    <glyph glyph-name="Wcircumflex" unicode="&#x174;" horiz-adv-x="1937" 
d="M571 0h-192l-21 317l-63 867q-9 99 -41 131q-21 21 -76 37l4 14h523l-3 -14q-77 -27 -92 -39q-26 -20 -26 -84q0 -13 10 -228q2 -44 9.5 -185t10.5 -224l15 -277q98 226 458 1016h183q127 -865 145 -1022q158 398 342 846q27 65 27 111q0 38 -37 59q-31 15 -76 27l2 14
h375l-2 -14q-29 -6 -64 -27q-44 -21 -90 -129l-391 -899l-129 -297h-190q-73 555 -78 590l-43 323q-4 34 -9 72.5t-5 40.5q-25 -58 -476 -1026zM1323 1718l168 -256l-12 -10l-269 147l-333 -145l-11 12l279 260q41 41 90 41q54 0 88 -49z" />
    <glyph glyph-name="wcircumflex" unicode="&#x175;" horiz-adv-x="1472" 
d="M354 -2h-164l-22 774q-3 109 -31 131q-22 15 -84 27v12q51 24 156 45q118 23 164 23q48 0 51 -49q4 -98 4 -113q0 -114 -8 -625q253 514 325 682h183q72 -655 76 -708q125 224 170 317q124 245 124 363q0 42 -43 51q-46 12 -67 12v10q53 27 117 41q74 19 100 19
q53 0 53 -37q0 -95 -127 -334q-106 -202 -391 -641h-162l-67 645q-191 -372 -357 -645zM1004 1425l139 -290l-13 -11l-239 179l-309 -179l-11 11l254 297q44 55 98.5 53.5t80.5 -60.5z" />
    <glyph glyph-name="Ycircumflex" unicode="&#x176;" horiz-adv-x="1271" 
d="M829 14l-4 -14h-575l2 14q101 21 127 64q27 35 57 203l60 325l-236 602q-35 86 -70 117q-25 19 -57 27l2 14h527l-3 -14q-77 -15 -92 -27q-18 -9 -18 -33q0 -28 24 -92q135 -361 179 -487l55 80l123 168l170 235q43 61 43 92q0 21 -25 37q-35 21 -76 27l2 14h381l-2 -14
q-22 -7 -69 -31q-46 -25 -117 -115l-442 -559l-70 -375q-20 -97 -20 -157q0 -33 27 -55.5t97 -45.5zM967 1718l168 -256l-13 -10l-268 147l-334 -145l-10 12l278 260q41 41 91 41q54 0 88 -49z" />
    <glyph glyph-name="ycircumflex" unicode="&#x177;" horiz-adv-x="1003" 
d="M-193 -258h19q7 -48 30.5 -76t53.5 -28q63 0 127 55q138 119 280 309h-122l-37 780q-3 98 -33 121q-27 21 -86 27v12q56 27 158 47q118 23 165 23q39 0 48 -45q6 -35 6 -129l8 -365l8 -346q82 135 165.5 275t84.5 141q123 215 123 327q0 39 -41 54q-39 12 -66 14l-2 12
q49 25 127 43q87 19 115 19q31 0 43 -8.5t12 -32.5q0 -78 -155 -340q-128 -218 -430 -639q-183 -257 -330 -398q-108 -102 -211 -102q-90 0 -90 72q0 76 30 178zM764 1425l139 -290l-12 -11l-240 179l-309 -179l-10 11l254 297q44 55 98 53.5t80 -60.5z" />
    <glyph glyph-name="Ydieresis" unicode="&#x178;" horiz-adv-x="1271" 
d="M829 14l-4 -14h-575l2 14q101 21 127 64q27 35 57 203l60 325l-236 602q-35 86 -70 117q-25 19 -57 27l2 14h527l-3 -14q-77 -15 -92 -27q-18 -9 -18 -33q0 -28 24 -92q135 -361 179 -487l55 80l123 168l170 235q43 61 43 92q0 21 -25 37q-35 21 -76 27l2 14h381l-2 -14
q-22 -7 -69 -31q-46 -25 -117 -115l-442 -559l-70 -375q-20 -97 -20 -157q0 -33 27 -55.5t97 -45.5zM780 1620q0 -61 -37 -101t-98 -40q-48 0 -79 30t-31 80q0 61 40 103.5t97 42.5q50 0 79 -32t29 -83zM1165 1620q0 -61 -37 -101t-98 -40q-48 0 -79 30t-31 80
q0 61 40 103.5t97 42.5q50 0 79 -32t29 -83z" />
    <glyph glyph-name="Zacute" unicode="&#x179;" horiz-adv-x="1232" 
d="M1028 0h-1134l2 14l428 523l290 356q110 133 166 203l99 118l45 54q-236 0 -467 -6q-107 -3 -156 -58q-42 -56 -82 -133h-14q14 151 31 240q5 32 16 43.5t41 11.5h1055l-2 -14l-1041 -1254q85 0 516 6q131 0 180 46q52 46 123 167h15q-15 -156 -49 -276q-12 -41 -62 -41z
M954 1597l-356 -133l-8 13l260 266q57 63 115 63q43 0 70.5 -27.5t27.5 -74.5q0 -66 -109 -107z" />
    <glyph glyph-name="zacute" unicode="&#x17a;" horiz-adv-x="925" 
d="M25 51l-54 -57l-51 43q301 320 744 739q-290 0 -373 -6q-86 -3 -121 -53q-19 -28 -35 -64l-16 2q8 163 26 260q8 43 22 56.5t56 13.5h719l4 -18q-347 -353 -749 -729q56 -2 272 -21q155 -14 190 -14q59 0 97 25t69 91l17 -2q-21 -216 -51 -286q-23 -51 -121 -51
q-52 0 -297 34q-246 37 -348 37zM786 1307l-327 -181l-8 11l208 297q32 44 56.5 61.5t60.5 17.5q45 0 73 -26t28 -68q0 -64 -91 -112z" />
    <glyph glyph-name="Zdotaccent" unicode="&#x17b;" horiz-adv-x="1232" 
d="M1028 0h-1134l2 14l428 523l290 356q110 133 166 203l99 118l45 54q-236 0 -467 -6q-107 -3 -156 -58q-42 -56 -82 -133h-14q14 151 31 240q5 32 16 43.5t41 11.5h1055l-2 -14l-1041 -1254q85 0 516 6q131 0 180 46q52 46 123 167h15q-15 -156 -49 -276q-12 -41 -62 -41z
M913 1599q0 -61 -38 -101t-97 -40q-50 0 -80 30t-30 81q0 61 40 103t97 42q50 0 79 -32t29 -83z" />
    <glyph glyph-name="zdotaccent" unicode="&#x17c;" horiz-adv-x="925" 
d="M25 51l-54 -57l-51 43q301 320 744 739q-290 0 -373 -6q-86 -3 -121 -53q-19 -28 -35 -64l-16 2q8 163 26 260q8 43 22 56.5t56 13.5h719l4 -18q-347 -353 -749 -729q56 -2 272 -21q155 -14 190 -14q59 0 97 25t69 91l17 -2q-21 -216 -51 -286q-23 -51 -121 -51
q-52 0 -297 34q-246 37 -348 37zM692 1303q0 -59 -38.5 -100.5t-98.5 -41.5q-48 0 -79.5 31t-31.5 80q0 61 40.5 103t97.5 42q51 0 80.5 -31.5t29.5 -82.5z" />
    <glyph glyph-name="Zcaron" unicode="&#x17d;" horiz-adv-x="1232" 
d="M1028 0h-1134l2 14l428 523l290 356q110 133 166 203l99 118l45 54q-236 0 -467 -6q-107 -3 -156 -58q-42 -56 -82 -133h-14q14 151 31 240q5 32 16 43.5t41 11.5h1055l-2 -14l-1041 -1254q85 0 516 6q131 0 180 46q52 46 123 167h15q-15 -156 -49 -276q-12 -41 -62 -41z
M680 1497l-168 256l10 10l271 -147l333 145l9 -12l-279 -258q-46 -43 -92 -43q-54 0 -84 49z" />
    <glyph glyph-name="zcaron" unicode="&#x17e;" horiz-adv-x="925" 
d="M25 51l-54 -57l-51 43q301 320 744 739q-290 0 -373 -6q-86 -3 -121 -53q-19 -28 -35 -64l-16 2q8 163 26 260q8 43 22 56.5t56 13.5h719l4 -18q-347 -353 -749 -729q56 -2 272 -21q155 -14 190 -14q59 0 97 25t69 91l17 -2q-21 -216 -51 -286q-23 -51 -121 -51
q-52 0 -297 34q-246 37 -348 37zM444 1182l-135 291l10 10l240 -178l309 178l11 -10l-254 -297q-48 -54 -99 -54t-82 60z" />
    <glyph glyph-name="longs" unicode="&#x17f;" horiz-adv-x="589" 
d="M-324 -217h13q40 -166 145 -166q88 0 123 66q58 114 111 419l122 758q26 166 66 275q50 137 158 219q119 90 327 90q90 0 142 -21q43 -12 43 -51q0 -38 -47 -190h-15q-27 103 -62.5 145.5t-101.5 42.5q-75 0 -120 -63q-50 -66 -91 -303l-124 -711q-53 -299 -127 -457
q-67 -138 -179 -215.5t-241 -77.5q-92 0 -140 25q-32 17 -32 55q0 52 30 160z" />
    <glyph glyph-name="uni018F" unicode="&#x18f;" horiz-adv-x="1456" 
d="M1016 539h-586q-33 -100 -33 -252q0 -111 60.5 -165t167.5 -54q289 0 391 471zM248 637h790q25 109 25 215q0 103 -34.5 177.5t-96.5 111.5q-106 65 -254 65q-222 0 -420 -149l-10 4l2 14q2 27 26 66q68 108 208.5 176.5t342.5 68.5q282 0 414 -147q133 -148 133 -385
q0 -366 -184 -614q-92 -125 -243.5 -196t-340.5 -71q-235 0 -367.5 112t-132.5 300q0 127 44 217q18 35 98 35z" />
    <glyph glyph-name="florin" unicode="&#x192;" horiz-adv-x="1124" 
d="M958 825l-20 -118h-225l-115 -529q-56 -257 -199 -379q-139 -118 -307 -118q-86 0 -153 28q-45 20 -45 62q0 64 47 182h12q35 -182 133 -182q87 0 133 82q41 68 96 337l107 517h-189l19 118h194q67 306 185 418q130 127 356 127q129 0 191 -33q43 -18 43 -65
q0 -60 -64 -209h-14q-22 122 -60 168.5t-98 46.5q-79 0 -129 -59q-50 -69 -76 -199l-43 -195h221z" />
    <glyph glyph-name="Aringacute" unicode="&#x1fa;" horiz-adv-x="1384" 
d="M1042 1505q0 -104 -86 -157l27 -160l21 -125l122 -852q11 -72 21.5 -102.5t32.5 -53.5q27 -27 88 -41l-2 -14h-555l2 14q64 16 94 35q39 20 39 74q0 44 -8 96l-33 246h-438l-156 -281q-37 -70 -37 -102q0 -29 27 -41q35 -15 92 -27l-4 -14h-387l4 14q37 6 74 31
q47 28 86 96l524 910l176 307q-53 44 -53 123q0 78 51 127t129 49q67 0 108 -42t41 -110zM418 561h375q-61 487 -68 559q-64 -125 -307 -559zM1128 1806l-301 -120l-10 14l221 235q62 62 105 62q37 0 60.5 -25t23.5 -67q0 -59 -99 -99zM981 1501q0 45 -27 74t-69 29
q-48 0 -79.5 -34t-31.5 -87q0 -46 26 -75.5t74 -29.5q47 0 77 34.5t30 88.5z" />
    <glyph glyph-name="aringacute" unicode="&#x1fb;" horiz-adv-x="1146" 
d="M1040 86l2 -10q-139 -92 -305 -92q-104 0 -104 114q0 99 33 240q-181 -365 -433 -365q-87 0 -143 50q-53 53 -53 200q0 168 84 371q85 201 211 303q145 115 366 115q93 0 213 -19q114 -18 160 -43q-65 -77 -153 -594q-21 -117 -21 -202q0 -35 18 -54.5t46 -19.5
q35 0 79 6zM766 883q0 25 -21 37q-15 12 -71 12q-92 0 -152 -66q-74 -83 -141 -284q-68 -201 -68 -322q0 -123 74 -123q61 0 133 68.5t117 167.5q62 124 119 424q10 65 10 86zM922 1319q0 -79 -50 -131.5t-131 -52.5q-69 0 -112 45t-43 114q0 79 52 129t132 50
q67 0 109.5 -43t42.5 -111zM860 1315q0 45 -27.5 74.5t-70.5 29.5q-51 0 -83 -35t-32 -90q0 -45 28.5 -74.5t76.5 -29.5q47 0 77.5 35.5t30.5 89.5zM1030 1731l-325 -181l-11 11l209 297q32 44 56.5 61.5t60.5 17.5q45 0 72.5 -26t27.5 -70q0 -63 -90 -110z" />
    <glyph glyph-name="AEacute" unicode="&#x1fc;" horiz-adv-x="1986" 
d="M346 14l-2 -14h-424l2 14q65 15 115 56q67 51 135 131l815 954q80 95 80 133q0 23 -24.5 34.5t-102.5 29.5l2 14h1008q47 0 47 -33q0 -49 -60 -254h-14q-12 89 -29.5 126.5t-50.5 49.5q-33 11 -129 11h-176q-34 0 -48 -17.5t-22 -62.5l-86 -424h138q126 0 178 10
q47 10 74.5 38.5t58.5 96.5h14l-78 -391h-14q-5 68 -26.5 98.5t-75.5 40.5q-52 9 -148 9h-137l-82 -426q-14 -71 -14 -95q0 -45 86 -45h192q133 0 197 43q23 14 57 52q22 25 80 114h14q-19 -106 -55 -260q-7 -29 -23 -38t-55 -9h-948l2 14q86 24 117 52q34 27 61 149l49 250
h-520l-196 -244q-86 -109 -86 -145q0 -20 24 -35q49 -19 80 -27zM606 561h457l139 719q-137 -181 -596 -719zM1737 1597l-357 -133l-8 13l260 266q57 63 115 63q43 0 70.5 -27.5t27.5 -74.5q0 -67 -108 -107z" />
    <glyph glyph-name="aeacute" unicode="&#x1fd;" horiz-adv-x="1425" 
d="M608 156q-121 -183 -332 -183q-119 0 -185 72t-66 182q0 102 62 170.5t175 94.5q143 31 359 34l12 72q10 85 10 115q0 69 -49.5 103t-132.5 34q-176 0 -283 -88l-8 4q3 30 6 33q21 87 129 150t281 63q204 0 256 -119q51 52 128.5 85.5t155.5 33.5q277 0 277 -205
q0 -310 -524 -328q-17 -80 -17 -170q0 -188 168 -188q141 0 248 98l12 -6q0 -13 -8 -37q-7 -28 -35 -59q-53 -61 -150.5 -102.5t-209.5 -41.5q-226 0 -279 183zM596 219q-6 62 -6 72q0 70 18 184q-159 -16 -223 -47q-96 -47 -96 -156q0 -71 34 -108t93 -37q91 0 180 92z
M891 530q71 8 126.5 33t89 57t55.5 73t30 78.5t8 76.5q0 49 -18.5 68.5t-57.5 19.5q-75 0 -133 -88q-55 -81 -100 -318zM1085 1307l-327 -181l-8 11l208 297q32 44 56.5 61.5t60.5 17.5q45 0 73 -26t28 -68q0 -64 -91 -112z" />
    <glyph glyph-name="Oslashacute" unicode="&#x1fe;" horiz-adv-x="1425" 
d="M283 68l-95 -119l-65 47l100 127q-125 137 -125 375q0 189 72 399q73 204 221 334q89 78 218 121t261 43q180 0 299 -64l119 152l68 -49l-117 -148q145 -121 145 -368q0 -211 -75 -424q-78 -222 -226 -355q-86 -80 -210.5 -123t-256.5 -43q-203 0 -333 95zM1075 987
q0 18 -4 84l-649 -825q43 -178 209 -178q154 0 243 133q95 143 146 374q55 235 55 412zM406 418q0 -48 2 -60l641 818q-47 127 -193 127q-145 0 -248 -140q-86 -116 -145 -334q-57 -206 -57 -411zM1108 1597l-356 -133l-9 13l261 266q57 63 114 63q44 0 71.5 -28t27.5 -74
q0 -66 -109 -107z" />
    <glyph glyph-name="oslashacute" unicode="&#x1ff;" horiz-adv-x="1044" 
d="M217 29l-80 -113l-53 37l82 115q-109 106 -109 288q0 323 189 518q132 138 368 138q110 0 197 -41l88 123l59 -39l-88 -121q109 -89 109 -266q0 -150 -46 -298.5t-130 -244.5q-61 -69 -160 -110.5t-209 -41.5q-128 0 -217 56zM602 174q39 100 74 268q37 174 45 285
l-408 -567q18 -115 121 -115q116 0 168 129zM453 836q-53 -92 -93 -261q-40 -168 -49 -305l408 574q-21 96 -115 96q-93 0 -151 -104zM866 1307l-327 -181l-9 11l209 297q32 44 56.5 61.5t60.5 17.5q45 0 72.5 -26t27.5 -68q0 -65 -90 -112z" />
    <glyph glyph-name="uni0218" unicode="&#x218;" horiz-adv-x="1042" 
d="M80 360h16q73 -292 348 -292q137 0 204 60t67 163q0 68 -47.5 122.5t-173.5 135.5l-93 59q-217 141 -217 353q0 209 148 321.5t413 112.5q140 0 238 -39q55 -21 55 -64q0 -71 -51 -223h-14q-20 126 -82 180t-191 54q-131 0 -203.5 -56.5t-72.5 -152.5q0 -62 37 -111
t135 -115l94 -65q150 -104 211 -182q64 -82 64 -215q0 -199 -152 -318q-151 -115 -397 -115q-207 0 -316 68q-49 30 -49 86q0 57 29 233zM143 -547l-6 17q189 100 189 186q0 39 -37 76q-26 24 -32 57.5t5.5 61.5t39.5 46.5t65 14.5q60 0 95.5 -36t35.5 -99q0 -120 -105 -203
q-98 -79 -250 -121z" />
    <glyph glyph-name="uni0219" unicode="&#x219;" horiz-adv-x="825" 
d="M51 289h15q20 -106 93 -174t165 -68q172 0 172 143q0 49 -33.5 92t-124.5 101l-62 39q-84 57 -123.5 116.5t-39.5 143.5q0 155 117.5 242.5t320.5 87.5q98 0 180 -29q41 -15 41 -57q0 -15 -16 -84q-13 -57 -37 -113h-14q-35 209 -203 209q-88 0 -133 -38.5t-45 -106.5
q0 -81 118 -156l64 -43q81 -56 112 -84q42 -35 70.5 -88.5t28.5 -112.5q0 -155 -113 -245.5t-303 -90.5q-172 0 -248 58q-35 24 -35 63q0 80 33 195zM55 -547l-6 17q189 100 189 186q0 39 -37 76q-26 24 -32 57.5t5.5 61.5t39.5 46.5t65 14.5q60 0 95.5 -36t35.5 -99
q0 -120 -105 -203q-98 -79 -250 -121z" />
    <glyph glyph-name="uni021A" unicode="&#x21a;" horiz-adv-x="1230" 
d="M791 14l-3 -14h-569l4 14q85 20 121 62q28 36 62 205l174 876q8 36 8 68q0 41 -53 41h-60q-83 0 -139 -21q-91 -36 -189 -203h-14q20 179 43 279q6 26 17 35.5t36 9.5h1037q51 0 51 -31q0 -61 -64 -293h-14q-24 178 -111 209q-44 15 -129 15h-67q-31 0 -44 -12t-20 -48
l-180 -948q-20 -97 -20 -154q0 -34 30 -55t93 -35zM246 -547l-6 17q188 99 188 186q0 39 -37 76q-26 24 -32 57.5t5.5 61.5t39.5 46.5t65 14.5q60 0 95.5 -36t35.5 -99q0 -121 -104 -203q-98 -79 -250 -121z" />
    <glyph glyph-name="uni021B" unicode="&#x21b;" horiz-adv-x="686" 
d="M567 111l6 -5q0 -23 -18 -47q-9 -15 -43 -36q-76 -46 -188 -46q-222 0 -222 201q0 48 25 176l111 527h-129l14 55q81 18 133 45q55 28 90 88q53 94 78 158h133l-45 -242h197l-19 -104h-196l-117 -559q-23 -115 -23 -172q0 -36 23.5 -58t60.5 -22q64 0 129 41zM18 -547
l-6 17q189 100 189 186q0 39 -37 76q-26 24 -32 57.5t5.5 61.5t39.5 46.5t65 14.5q60 0 95.5 -36t35.5 -99q0 -120 -105 -203q-98 -79 -250 -121z" />
    <glyph glyph-name="uni0259" unicode="&#x259;" horiz-adv-x="901" 
d="M127 766l-6 4q0 16 6 37q10 25 35 57q46 63 141.5 105.5t206.5 42.5q315 0 315 -324q0 -154 -51 -313q-50 -165 -143 -258q-138 -144 -359 -144q-272 0 -272 207q0 118 106 215q58 52 171.5 82.5t263.5 30.5q16 88 16 170q0 186 -172 186q-148 0 -258 -98zM535 477
q-166 -28 -253 -117.5t-87 -216.5q0 -100 86 -100q159 0 254 434z" />
    <glyph glyph-name="circumflex" unicode="&#x2c6;" horiz-adv-x="407" 
d="M348 1425l139 -290l-12 -11l-239 179l-310 -179l-10 11l254 297q44 55 98 53.5t80 -60.5z" />
    <glyph glyph-name="caron" unicode="&#x2c7;" horiz-adv-x="407" 
d="M55 1182l-135 291l10 10l240 -178l309 178l10 -10l-253 -297q-48 -54 -99 -54t-82 60z" />
    <glyph glyph-name="breve" unicode="&#x2d8;" horiz-adv-x="407" 
d="M451 1468l14 -4q-52 -309 -301 -309q-221 0 -221 246q0 40 6 67l14 2q14 -82 64.5 -121.5t152.5 -39.5q103 0 165 37.5t106 121.5z" />
    <glyph glyph-name="dotaccent" unicode="&#x2d9;" horiz-adv-x="407" 
d="M330 1303q0 -59 -38.5 -100.5t-98.5 -41.5q-48 0 -79.5 31t-31.5 80q0 61 40 103t97 42q51 0 81 -31.5t30 -82.5z" />
    <glyph glyph-name="ring" unicode="&#x2da;" horiz-adv-x="407" 
d="M381 1325q0 -83 -53 -136.5t-138 -53.5q-73 0 -119 45.5t-46 117.5q0 82 54 135.5t138 53.5q75 0 119.5 -44t44.5 -118zM319 1319q0 50 -30.5 81.5t-79.5 31.5q-54 0 -87.5 -37.5t-33.5 -94.5q0 -49 29 -79.5t82 -30.5q51 0 85.5 37t34.5 92z" />
    <glyph glyph-name="ogonek" unicode="&#x2db;" horiz-adv-x="407" 
d="M375 -348l6 -4l-2 -10q-10 -30 -21 -41q-37 -46 -135 -46q-97 0 -147.5 44t-50.5 120q0 198 327 303l4 -10q-168 -131 -168 -262q0 -108 101 -108q61 0 86 14z" />
    <glyph glyph-name="tilde" unicode="&#x2dc;" horiz-adv-x="407" 
d="M489 1407l15 -6q-76 -230 -195 -230q-47 0 -137 41q-78 37 -115 37q-78 0 -137 -92l-16 4q32 80 47 109q21 49 66.5 92t91.5 43q43 0 122 -43q82 -43 123 -43q42 0 69.5 18.5t65.5 69.5z" />
    <glyph glyph-name="hungarumlaut" unicode="&#x2dd;" horiz-adv-x="407" 
d="M143 1317l-305 -193l-10 13l205 293q33 46 55 62.5t57 16.5q91 0 91 -79q0 -54 -93 -113zM477 1317l-305 -193l-10 13l205 293q33 46 55 62.5t57 16.5q90 0 90 -79q0 -54 -92 -113z" />
    <glyph glyph-name="uni0394" unicode="&#x394;" horiz-adv-x="1490" 
d="M1016 1366l309 -1366h-1374l842 1366h223zM780 1169q-84 -150 -559 -940h754q-158 737 -195 940z" />
    <glyph glyph-name="uni03A9" unicode="&#x3a9;" horiz-adv-x="1556" 
d="M662 184l-27 -184h-477q-41 0 -56.5 10.5t-15.5 36.5q0 137 20 268h15q35 -77 86 -92q62 -16 336 -16q-155 55 -242.5 182.5t-87.5 294.5q0 313 219 526q194 185 486 185q240 0 372.5 -119.5t132.5 -360.5q0 -283 -151 -469q-131 -162 -361 -239q311 6 365 20
q64 15 115 88h16q-27 -157 -59 -268q-15 -47 -95 -47h-487l27 184q122 53 198 203q61 125 90 297q33 174 33 320q0 158 -51 228.5t-164 70.5q-174 0 -266 -185q-121 -242 -121 -602q0 -268 150 -332z" />
    <glyph glyph-name="uni03BC" unicode="&#x3bc;" horiz-adv-x="1327" 
d="M371 39l-23 -129q-10 -56 -24 -156q-6 -65 -15 -108q-8 -44 -28 -60q-42 -22 -258 -22l-7 6l234 1044q39 160 39 242q0 47 -37 62q-41 15 -76 18v10q62 27 152 41q107 17 161 17q51 0 68.5 -14.5t17.5 -55.5q0 -45 -43 -213q-104 -423 -104 -518q0 -58 61 -58
q95 0 189 129q57 72 92 242l100 469h252l-110 -549q-39 -186 -39 -270t76 -84q15 0 69 4l2 -10q-61 -40 -139 -64q-92 -28 -158 -28q-104 0 -104 118q0 95 26 205q-59 -151 -136 -230t-160 -79q-63 0 -78 41z" />
    <glyph glyph-name="pi" unicode="&#x3c0;" horiz-adv-x="1394" 
d="M154 4v8q168 204 282 754h-30q-78 0 -131 -24t-107 -93l-10 4q42 171 127 262q64 70 209 70h862l-45 -219h-156l-98 -520q-8 -36 -8 -90q0 -82 71 -82q53 0 74 6l4 -10q-43 -34 -117 -61t-153 -27q-152 0 -152 143q0 29 23 160l92 481h-248q-120 -617 -192 -723
q-19 -29 -52 -43q-37 -18 -104 -18q-110 0 -141 22z" />
    <glyph glyph-name="Wgrave" unicode="&#x1e80;" horiz-adv-x="1937" 
d="M571 0h-192l-21 317l-63 867q-9 99 -41 131q-21 21 -76 37l4 14h523l-3 -14q-77 -27 -92 -39q-26 -20 -26 -84q0 -13 10 -228q2 -44 9.5 -185t10.5 -224l15 -277q98 226 458 1016h183q127 -865 145 -1022q158 398 342 846q27 65 27 111q0 38 -37 59q-31 15 -76 27l2 14
h375l-2 -14q-29 -6 -64 -27q-44 -21 -90 -129l-391 -899l-129 -297h-190q-73 555 -78 590l-43 323q-4 34 -9 72.5t-5 40.5q-25 -58 -476 -1026zM1053 1767l209 -292l-9 -11l-327 183q-88 52 -88 114q0 41 28 66.5t68 25.5q57 0 119 -86z" />
    <glyph glyph-name="wgrave" unicode="&#x1e81;" horiz-adv-x="1472" 
d="M354 -2h-164l-22 774q-3 109 -31 131q-22 15 -84 27v12q51 24 156 45q118 23 164 23q48 0 51 -49q4 -98 4 -113q0 -114 -8 -625q253 514 325 682h183q72 -655 76 -708q125 224 170 317q124 245 124 363q0 42 -43 51q-46 12 -67 12v10q53 27 117 41q74 19 100 19
q53 0 53 -37q0 -95 -127 -334q-106 -202 -391 -641h-162l-67 645q-191 -372 -357 -645zM776 1442l160 -305l-10 -11l-285 191q-74 50 -74 106q0 43 29.5 71t71.5 28q64 0 108 -80z" />
    <glyph glyph-name="Wacute" unicode="&#x1e82;" horiz-adv-x="1937" 
d="M571 0h-192l-21 317l-63 867q-9 99 -41 131q-21 21 -76 37l4 14h523l-3 -14q-77 -27 -92 -39q-26 -20 -26 -84q0 -13 10 -228q2 -44 9.5 -185t10.5 -224l15 -277q98 226 458 1016h183q127 -865 145 -1022q158 398 342 846q27 65 27 111q0 38 -37 59q-31 15 -76 27l2 14
h375l-2 -14q-29 -6 -64 -27q-44 -21 -90 -129l-391 -899l-129 -297h-190q-73 555 -78 590l-43 323q-4 34 -9 72.5t-5 40.5q-25 -58 -476 -1026zM1405 1597l-356 -133l-9 13l260 266q57 63 115 63q43 0 70.5 -27.5t27.5 -74.5q0 -67 -108 -107z" />
    <glyph glyph-name="wacute" unicode="&#x1e83;" horiz-adv-x="1472" 
d="M354 -2h-164l-22 774q-3 109 -31 131q-22 15 -84 27v12q51 24 156 45q118 23 164 23q48 0 51 -49q4 -98 4 -113q0 -114 -8 -625q253 514 325 682h183q72 -655 76 -708q125 224 170 317q124 245 124 363q0 42 -43 51q-46 12 -67 12v10q53 27 117 41q74 19 100 19
q53 0 53 -37q0 -95 -127 -334q-106 -202 -391 -641h-162l-67 645q-191 -372 -357 -645zM1077 1307l-327 -181l-9 11l209 297q32 44 56.5 61.5t60.5 17.5q45 0 72.5 -26t27.5 -68q0 -65 -90 -112z" />
    <glyph glyph-name="Wdieresis" unicode="&#x1e84;" horiz-adv-x="1937" 
d="M571 0h-192l-21 317l-63 867q-9 99 -41 131q-21 21 -76 37l4 14h523l-3 -14q-77 -27 -92 -39q-26 -20 -26 -84q0 -13 10 -228q2 -44 9.5 -185t10.5 -224l15 -277q98 226 458 1016h183q127 -865 145 -1022q158 398 342 846q27 65 27 111q0 38 -37 59q-31 15 -76 27l2 14
h375l-2 -14q-29 -6 -64 -27q-44 -21 -90 -129l-391 -899l-129 -297h-190q-73 555 -78 590l-43 323q-4 34 -9 72.5t-5 40.5q-25 -58 -476 -1026zM1130 1620q0 -61 -37 -101t-98 -40q-48 0 -79 30t-31 80q0 61 40 103.5t97 42.5q50 0 79 -32t29 -83zM1516 1620
q0 -61 -37.5 -101t-98.5 -40q-48 0 -79 30t-31 80q0 61 40 103.5t97 42.5q50 0 79.5 -32t29.5 -83z" />
    <glyph glyph-name="wdieresis" unicode="&#x1e85;" horiz-adv-x="1472" 
d="M354 -2h-164l-22 774q-3 109 -31 131q-22 15 -84 27v12q51 24 156 45q118 23 164 23q48 0 51 -49q4 -98 4 -113q0 -114 -8 -625q253 514 325 682h183q72 -655 76 -708q125 224 170 317q124 245 124 363q0 42 -43 51q-46 12 -67 12v10q53 27 117 41q74 19 100 19
q53 0 53 -37q0 -95 -127 -334q-106 -202 -391 -641h-162l-67 645q-191 -372 -357 -645zM823 1303q0 -59 -37.5 -100.5t-97.5 -41.5q-47 0 -77.5 31t-30.5 80q0 61 39 103t96 42q50 0 79 -31t29 -83zM1182 1303q0 -59 -37.5 -100.5t-95.5 -41.5q-49 0 -80 30.5t-31 80.5
q0 61 40 103t97 42q49 0 78 -31.5t29 -82.5z" />
    <glyph glyph-name="Ygrave" unicode="&#x1ef2;" horiz-adv-x="1271" 
d="M829 14l-4 -14h-575l2 14q101 21 127 64q27 35 57 203l60 325l-236 602q-35 86 -70 117q-25 19 -57 27l2 14h527l-3 -14q-77 -15 -92 -27q-18 -9 -18 -33q0 -28 24 -92q135 -361 179 -487l55 80l123 168l170 235q43 61 43 92q0 21 -25 37q-35 21 -76 27l2 14h381l-2 -14
q-22 -7 -69 -31q-46 -25 -117 -115l-442 -559l-70 -375q-20 -97 -20 -157q0 -33 27 -55.5t97 -45.5zM717 1767l209 -292l-8 -11l-328 183q-88 52 -88 114q0 41 28 66.5t68 25.5q57 0 119 -86z" />
    <glyph glyph-name="ygrave" unicode="&#x1ef3;" horiz-adv-x="1003" 
d="M-193 -258h19q7 -48 30.5 -76t53.5 -28q63 0 127 55q138 119 280 309h-122l-37 780q-3 98 -33 121q-27 21 -86 27v12q56 27 158 47q118 23 165 23q39 0 48 -45q6 -35 6 -129l8 -365l8 -346q82 135 165.5 275t84.5 141q123 215 123 327q0 39 -41 54q-39 12 -66 14l-2 12
q49 25 127 43q87 19 115 19q31 0 43 -8.5t12 -32.5q0 -78 -155 -340q-128 -218 -430 -639q-183 -257 -330 -398q-108 -102 -211 -102q-90 0 -90 72q0 76 30 178zM498 1442l159 -305l-10 -11l-285 191q-73 49 -73 106q0 43 29 71t71 28q65 0 109 -80z" />
    <glyph glyph-name="endash" unicode="&#x2013;" horiz-adv-x="1169" 
d="M1096 637l-41 -197h-981l41 197h981z" />
    <glyph glyph-name="emdash" unicode="&#x2014;" horiz-adv-x="1982" 
d="M1907 637l-43 -197h-1792l43 197h1792z" />
    <glyph glyph-name="quoteleft" unicode="&#x2018;" horiz-adv-x="448" 
d="M608 1524l8 -15q-227 -137 -227 -266q0 -46 49 -92q45 -39 45 -96q0 -53 -36.5 -89t-96.5 -36q-74 0 -115.5 46t-41.5 122q0 160 137 266q64 51 125.5 86t152.5 74z" />
    <glyph glyph-name="quoteright" unicode="&#x2019;" horiz-adv-x="446" 
d="M98 930l-8 14q227 137 227 266q0 47 -49 93q-45 39 -45 96q0 55 36 90t97 35q74 0 116 -45.5t42 -120.5q0 -160 -139 -271q-109 -83 -277 -157z" />
    <glyph glyph-name="quotesinglbase" unicode="&#x201a;" horiz-adv-x="448" 
d="M-152 -307l-8 14q228 138 228 266q0 46 -50 93q-45 36 -45 96q0 55 36 90t97 35q74 0 115 -45t41 -121q0 -163 -139 -268q-62 -51 -121.5 -84.5t-153.5 -75.5z" />
    <glyph glyph-name="quotedblleft" unicode="&#x201c;" horiz-adv-x="862" 
d="M1020 1524l8 -15q-227 -137 -227 -266q0 -46 49 -92q45 -36 45 -96q0 -53 -36.5 -89t-96.5 -36q-74 0 -116 46t-42 122q0 160 137 266q64 51 125.5 85.5t153.5 74.5zM608 1524l8 -15q-227 -137 -227 -266q0 -46 49 -92q45 -39 45 -96q0 -53 -36.5 -89t-96.5 -36
q-74 0 -115.5 46t-41.5 122q0 160 137 266q64 51 125.5 86t152.5 74z" />
    <glyph glyph-name="quotedblright" unicode="&#x201d;" horiz-adv-x="862" 
d="M98 930l-8 14q227 137 227 266q0 47 -49 93q-45 39 -45 96q0 55 36 90t97 35q74 0 116 -45.5t42 -120.5q0 -160 -139 -271q-109 -83 -277 -157zM510 930l-8 14q227 137 227 266q0 48 -51 93q-43 43 -44 96t37 89t97 36q74 0 116 -45.5t42 -120.5q0 -159 -140 -271
q-111 -84 -276 -157z" />
    <glyph glyph-name="quotedblbase" unicode="&#x201e;" horiz-adv-x="862" 
d="M-152 -307l-8 14q228 138 228 266q0 46 -50 93q-45 36 -45 96q0 55 36 90t97 35q74 0 115 -45t41 -121q0 -163 -139 -268q-62 -51 -121.5 -84.5t-153.5 -75.5zM260 -307l-8 14q227 137 227 266q0 48 -51 93q-45 43 -45.5 96t38 89t97.5 36q74 0 115 -45t41 -121
q0 -163 -139 -268q-64 -51 -123.5 -85t-151.5 -75z" />
    <glyph glyph-name="dagger" unicode="&#x2020;" horiz-adv-x="1126" 
d="M657 905q-32 -270 -55 -522q-28 -301 -29 -307q-5 -48 -33.5 -76.5t-72.5 -28.5q-92 0 -92 78q0 37 18 92q51 178 53 185q90 286 164 579q-43 -9 -121 -34.5t-90 -28.5q-39 -8 -76.5 -8.5t-64.5 22.5t-27 66q0 118 119 118q48 0 127 -39q88 -39 144 -53q0 109 -9 217
q-6 108 -6 127q0 125 113 125q102 0 102 -86q0 -44 -26 -100l-56 -115q-46 -101 -71 -168q39 10 147 53q103 41 150 41q94 0 94 -92q0 -53 -30.5 -86t-84.5 -33q-33 0 -131 29q-91 30 -156 45z" />
    <glyph glyph-name="daggerdbl" unicode="&#x2021;" horiz-adv-x="1126" 
d="M453 303l71 154q-54 -12 -155 -54q-85 -36 -136 -36q-40 0 -65 26t-25 74q0 52 28.5 83.5t78.5 31.5q28 3 71.5 -9t106 -33.5t107.5 -31.5l77 395q-70 -16 -157 -45q-95 -29 -129 -29q-44 0 -70.5 25.5t-26.5 71.5q0 52 28 84t77 32q55 0 141 -38q85 -36 143 -54
q0 78 -8 185t-8 137q1 35 4.5 56t15.5 42.5t36.5 32.5t64.5 14q96 0 96 -84q0 -37 -28 -110q-26 -61 -60 -129l-63 -144q46 15 108 39q135 53 185 53q100 0 100 -94q0 -53 -31.5 -86t-89.5 -33q-40 0 -131 31q-96 33 -147 43l-78 -395q52 12 155 43q91 31 131 31
q46 0 71.5 -25.5t25.5 -69.5q0 -55 -29.5 -87.5t-85.5 -32.5q-40 0 -80 12q-26 9 -97.5 39t-101.5 39q0 -38 7 -185q8 -112 8 -135q0 -162 -121 -162q-98 0 -98 88q0 31 24 105q20 53 60 135z" />
    <glyph glyph-name="bullet" unicode="&#x2022;" horiz-adv-x="901" 
d="M774 616q0 -145 -92 -245q-94 -97 -244 -97q-125 0 -205.5 80t-80.5 207q0 150 94 244q96 96 246 96q129 0 205.5 -78t76.5 -207z" />
    <glyph glyph-name="ellipsis" unicode="&#x2026;" horiz-adv-x="2234" 
d="M465 141q0 -69 -45.5 -116.5t-118.5 -47.5q-63 0 -104 41.5t-41 104.5q0 75 46 123.5t120 48.5q67 0 105 -42t38 -112zM1174 141q0 -70 -44.5 -117t-117.5 -47q-63 0 -104.5 41.5t-41.5 104.5q0 75 46 123.5t120 48.5q68 0 105 -42t37 -112zM1890 141q0 -69 -45.5 -116.5
t-118.5 -47.5q-63 0 -104 41.5t-41 104.5q0 75 46 123.5t120 48.5q67 0 105 -42t38 -112z" />
    <glyph glyph-name="perthousand" unicode="&#x2030;" horiz-adv-x="2492" 
d="M793 1102q0 -137 -43 -273q-43 -137 -134 -225q-94 -88 -235 -88q-254 0 -254 256q0 296 154 467q103 109 258 109q254 0 254 -246zM598 1163q0 62 -16.5 89.5t-57.5 27.5q-56 0 -100 -84q-38 -78 -74 -233q-31 -155 -31 -248q0 -67 18.5 -96t59.5 -29q30 0 51 20.5
t48 73.5q33 67 69 238q33 156 33 241zM371 -20l958 1427l78 -51l-954 -1422zM1655 569q0 -136 -43 -272q-44 -139 -133 -225q-94 -88 -236 -88q-254 0 -254 256q0 296 154 467q102 108 258 108q254 0 254 -246zM1460 631q0 62 -16.5 89.5t-57.5 27.5q-59 0 -100 -84
q-38 -81 -74 -236q-30 -147 -30 -246q0 -67 18.5 -96t59.5 -29q30 0 50 21t48 74q33 68 69 237q33 156 33 242zM2415 569q0 -136 -43 -272q-43 -137 -134 -225q-94 -88 -235 -88q-254 0 -254 256q0 296 154 467q95 108 258 108q254 0 254 -246zM2220 631q0 62 -16.5 89.5
t-57.5 27.5q-56 0 -100 -84q-38 -81 -74 -236q-30 -147 -30 -246q0 -67 18 -96t59 -29q30 0 52 21.5t47 73.5q33 65 69 235q33 156 33 244z" />
    <glyph glyph-name="guilsinglleft" unicode="&#x2039;" horiz-adv-x="528" 
d="M96 567l430 340l11 -8l-277 -393l121 -412l-12 -6l-293 361q-19 29 -19 49q0 36 39 69z" />
    <glyph glyph-name="guilsinglright" unicode="&#x203a;" horiz-adv-x="528" 
d="M414 430l-428 -342l-11 10l277 391l-119 412l12 6l293 -360q17 -24 17 -47q0 -35 -41 -70z" />
    <glyph glyph-name="fraction" unicode="&#x2044;" horiz-adv-x="182" 
d="M-408 -20l959 1425l72 -47l-957 -1424z" />
    <glyph glyph-name="zero.superior" unicode="&#x2070;" 
d="M823 1450q0 -138 -43 -274q-45 -142 -133 -224q-94 -88 -235 -88q-252 0 -252 256q0 298 153 467q95 109 256 109q254 0 254 -246zM635 1511q0 67 -17 96t-59 29q-62 0 -106 -90q-39 -86 -74 -243q-33 -146 -33 -250q0 -123 80 -123q63 0 109 94q37 81 67 246
q33 156 33 241z" />
    <glyph glyph-name="four.superior" unicode="&#x2074;" 
d="M735 895l-4 -14h-393l4 14q40 8 76 27q44 27 53 102l10 63h-360l18 89l494 520h158q-24 -109 -52 -254l-49 -244h127l-22 -111h-123l-10 -55q-11 -72 -11 -76q0 -19 11 -30.5t24 -16t49 -14.5zM238 1198h266q47 256 76 367q-36 -43 -342 -367z" />
    <glyph glyph-name="five.superior" unicode="&#x2075;" 
d="M162 1087h10q8 -66 55 -111.5t121 -45.5q88 0 137.5 60t49.5 157q0 156 -125 156q-83 0 -166 -50l-8 7l112 421h449l-31 -145h-223q-100 2 -178 2l-52 -182q57 45 187 45q108 0 176.5 -58t68.5 -159q0 -146 -105.5 -233t-277.5 -87q-133 0 -204 41q-23 16 -23 41
q0 42 27 141z" />
    <glyph glyph-name="six.superior" unicode="&#x2076;" 
d="M375 1274q71 115 211 115q91 0 142.5 -54t51.5 -143q0 -146 -87.5 -237t-243.5 -91q-126 0 -193.5 69t-67.5 193q0 137 52.5 266.5t144.5 213.5q96 90 256 90q71 0 131 -17q53 -21 53 -51q0 -50 -30 -133h-13q-7 73 -40 106t-95 33q-103 0 -172 -100q-52 -71 -100 -260z
M356 1149q-6 -24 -6 -96q0 -123 103 -123q54 0 91.5 41.5t49.5 97.5q13 56 12 108.5t-26.5 88t-67.5 30.5q-81 0 -127 -67q-21 -31 -29 -80z" />
    <glyph glyph-name="seven.superior" unicode="&#x2077;" 
d="M834 1604l-431 -758l-118 31q184 317 432 661q-76 0 -156 -2h-199q-52 0 -81 -29l-41 -65h-11q0 88 23 196q6 25 20.5 34t46.5 9h525z" />
    <glyph glyph-name="eight.superior" unicode="&#x2078;" 
d="M616 1337q154 -71 154 -215q0 -117 -96.5 -187.5t-247.5 -70.5q-131 0 -200.5 55.5t-69.5 141.5q0 152 217 207q-109 68 -109 184q0 111 85 177.5t220 66.5q115 0 177.5 -44.5t62.5 -115.5q0 -132 -193 -199zM401 1247q-108 -71 -108 -180q0 -64 41.5 -101.5t101.5 -37.5
q73 0 115.5 38.5t42.5 104.5q0 97 -193 176zM582 1356q100 63 100 170q0 51 -32 81.5t-87 30.5q-65 0 -100 -34t-35 -91q0 -86 154 -157z" />
    <glyph glyph-name="nine.superior" unicode="&#x2079;" 
d="M604 1280q-67 -104 -201 -104q-92 0 -148 54t-56 142q0 143 89 233.5t244 90.5q131 0 201 -64t70 -182q0 -151 -45 -285.5t-133 -212.5q-101 -88 -273 -88q-88 0 -147 27q-30 12 -39.5 21.5t-9.5 27.5q0 45 28 137h13q14 -69 55 -108t102 -39q108 0 164 86q42 68 86 264z
M618 1419q9 59 9 94q0 123 -92 123q-52 -2 -88 -46.5t-49 -100.5t-11 -111q0 -110 88 -110q82 0 117 65q18 36 26 86z" />
    <glyph glyph-name="parenleft.superior" unicode="&#x207d;" horiz-adv-x="411" 
d="M430 737l-8 -12q-246 102 -246 408q0 230 113 396.5t327 239.5l7 -14q-167 -83 -240 -258q-72 -179 -72 -391q0 -115 32.5 -217.5t86.5 -151.5z" />
    <glyph glyph-name="parenright.superior" unicode="&#x207e;" horiz-adv-x="411" 
d="M213 1757l10 12q248 -102 248 -407q0 -229 -113.5 -396.5t-326.5 -240.5l-8 14q114 58 184 166q70 104 98.5 221t28.5 265q0 115 -33 215q-35 107 -88 151z" />
    <glyph glyph-name="n.superior" unicode="&#x207f;" horiz-adv-x="747" 
d="M360 819l-63 -287h-178l74 318q28 124 28 182q0 30 -14 41q-20 14 -60 17l3 10q90 33 208 33q52 0 52 -37q0 -58 -31 -156q40 75 117 137t163 62q50 0 72 -19q25 -16 25 -63q0 -45 -68 -320q-18 -83 -18 -116q0 -35 45 -35q31 0 41 2l2 -10q-51 -27 -107 -39
q-77 -17 -110 -17q-64 0 -64 51q0 24 23 121q65 263 65 303q0 39 -30 39q-29 0 -64.5 -26.5t-60.5 -67.5q-33 -48 -50 -123z" />
    <glyph glyph-name="zero.inferior" unicode="&#x2080;" 
d="M612 254q0 -138 -43 -274q-45 -142 -133 -224q-94 -88 -235 -88q-252 0 -252 256q0 298 153 467q95 109 256 109q254 0 254 -246zM424 315q0 67 -17 96t-59 29q-62 0 -106 -90q-39 -85 -74 -244q-33 -146 -33 -249q0 -123 80 -123q63 0 109 94q37 81 67 246
q33 156 33 241z" />
    <glyph glyph-name="one.inferior" unicode="&#x2081;" 
d="M397 -303l-4 -12h-393l4 12q42 11 68 22q39 17 57 113l86 457q12 73 12 82q0 39 -47 39q-39 0 -53 -2v22l317 74l11 -10q-13 -52 -19 -82q-7 -35 -21.5 -113.5t-19.5 -99.5l-71 -363q-7 -35 -7 -69q0 -31 21 -46t59 -24z" />
    <glyph glyph-name="two.inferior" unicode="&#x2082;" 
d="M418 -315h-535l15 67q76 50 149 109q52 39 137 121q156 153 156 327q0 59 -30 95t-85 36q-61 0 -103.5 -32t-84.5 -107h-12q0 12 -0.5 38.5t0 34.5t2 26t5.5 24.5t10.5 17t17.5 16.5t26 11q95 31 205 31q124 0 189 -53.5t65 -139.5q0 -57 -33.5 -119t-81.5 -112
q-43 -46 -125 -101q-71 -53 -123 -81q-34 -23 -125 -74q136 4 320 4q56 0 80 18q20 14 57 78h12q-3 -24 -18 -102q-16 -84 -23 -99q-6 -20 -19 -27t-48 -7z" />
    <glyph glyph-name="three.inferior" unicode="&#x2083;" 
d="M-59 -121h10q8 -63 57.5 -104t128.5 -41q90 0 135 57.5t45 157.5q0 121 -133 121h-41l13 59h49q84 0 126 52t42 143q0 116 -109 116q-121 0 -198 -139h-11q2 59 11 109q9 37 47 57q67 33 202 33q123 0 187.5 -45.5t64.5 -120.5q0 -190 -243 -228q202 -21 202 -165
q0 -137 -112 -203q-113 -70 -277 -70q-134 0 -205 41q-22 13 -22 41q0 50 31 129z" />
    <glyph glyph-name="four.inferior" unicode="&#x2084;" 
d="M524 -301l-4 -14h-393l4 14q40 8 76 27q44 27 53 102l10 63h-360l18 89l494 520h158q-24 -109 -52 -254l-49 -244h127l-22 -111h-123l-10 -55q-11 -71 -11 -76q0 -19 11 -30.5t24 -16t49 -14.5zM27 2h266q47 256 76 367q-36 -43 -342 -367z" />
    <glyph glyph-name="five.inferior" unicode="&#x2085;" 
d="M-49 -109h10q8 -66 55 -111.5t121 -45.5q88 0 137.5 60t49.5 157q0 155 -125 155q-84 0 -166 -49l-8 6l112 422h449l-31 -145h-223q-100 2 -178 2l-52 -182q57 45 187 45q108 0 177 -58t69 -159q0 -146 -105.5 -233t-277.5 -87q-134 0 -205 41q-23 16 -23 41q0 42 27 141
z" />
    <glyph glyph-name="six.inferior" unicode="&#x2086;" 
d="M164 78q71 115 211 115q91 0 142.5 -54t51.5 -143q0 -146 -87.5 -237t-243.5 -91q-126 0 -193.5 69t-67.5 193q0 137 52.5 266.5t144.5 213.5q96 90 256 90q72 0 131 -17q53 -21 53 -51q0 -50 -30 -133h-13q-7 73 -40 106t-95 33q-103 0 -172 -100q-52 -71 -100 -260z
M145 -47q-6 -24 -6 -96q0 -123 103 -123q54 0 91.5 41.5t49.5 97.5q13 56 12 108.5t-26.5 88t-67.5 30.5q-81 0 -127 -67q-21 -31 -29 -80z" />
    <glyph glyph-name="seven.inferior" unicode="&#x2087;" 
d="M623 408l-430 -758l-119 31q184 317 432 661q-76 0 -156 -2h-198q-53 0 -82 -29l-41 -65h-11q0 88 23 196q6 25 21 34t47 9h524z" />
    <glyph glyph-name="eight.inferior" unicode="&#x2088;" 
d="M406 141q153 -71 153 -215q0 -117 -96.5 -187.5t-247.5 -70.5q-131 0 -200.5 55.5t-69.5 141.5q0 152 217 207q-109 68 -109 184q0 111 85 177.5t220 66.5q115 0 177.5 -44.5t62.5 -115.5q0 -132 -192 -199zM190 51q-108 -71 -108 -180q0 -64 41.5 -101.5t101.5 -37.5
q73 0 115.5 38.5t42.5 104.5q0 97 -193 176zM371 160q100 63 100 170q0 51 -32 81.5t-87 30.5q-65 0 -100 -34t-35 -91q0 -86 154 -157z" />
    <glyph glyph-name="nine.inferior" unicode="&#x2089;" 
d="M393 84q-67 -104 -200 -104q-92 0 -148.5 54t-56.5 142q0 143 89.5 233.5t244.5 90.5q130 0 200 -63.5t70 -182.5q0 -151 -45 -285.5t-133 -212.5q-101 -88 -273 -88q-89 0 -147 27q-30 12 -39.5 21.5t-9.5 27.5q0 45 28 137h13q14 -69 55 -108t102 -39q108 0 164 86
q42 68 86 264zM408 223q8 52 8 94q0 123 -92 123q-52 -2 -88 -46.5t-49 -100.5t-11 -111q0 -110 88 -110q82 0 117 65q19 39 27 86z" />
    <glyph glyph-name="parenleft.inferior" unicode="&#x208d;" horiz-adv-x="411" 
d="M219 -459l-8 -12q-246 102 -246 408q0 230 113.5 396.5t327.5 239.5l6 -14q-166 -83 -240 -258q-72 -179 -72 -391q0 -115 32.5 -217.5t86.5 -151.5z" />
    <glyph glyph-name="parenright.inferior" unicode="&#x208e;" horiz-adv-x="411" 
d="M2 561l10 12q248 -102 248 -407q0 -229 -113.5 -396.5t-326.5 -240.5l-8 14q112 58 186 166q69 104 97 221t28 265q0 115 -33 215q-35 107 -88 151z" />
    <glyph glyph-name="Euro" unicode="&#x20ac;" horiz-adv-x="1368" 
d="M1034 590l-20 -88h-377v-58q0 -378 250 -378q140 0 227 81q60 57 119 140l10 -2q-8 -108 -35 -193q-9 -37 -73 -67q-113 -52 -314 -52q-235 0 -363 133.5t-128 380.5v15h-172l20 88h156q6 82 33 190h-160l20 88h166q88 240 285 373q180 119 422 119q158 0 254 -41
q47 -21 47 -68q0 -64 -62 -235h-14q-14 112 -45 162q-56 90 -188 90q-158 0 -273 -142q-78 -96 -127 -258h391l-20 -88h-395q-21 -113 -27 -190h393z" />
    <glyph glyph-name="afii61289" unicode="&#x2113;" horiz-adv-x="976" 
d="M475 637q170 95 291 252q121 154 121 303q0 96 -88 96q-74 0 -131 -78q-93 -129 -193 -573zM791 170l8 -4q-2 -12 -19 -57q-15 -44 -51 -66q-104 -70 -258 -70q-135 0 -218 72.5t-83 208.5q0 61 10 166q-94 -43 -147 -62l-27 64q109 43 184 84q67 308 138 479
q67 157 157 258q131 137 326 137q105 0 165 -51t60 -143q0 -194 -190 -375q-150 -144 -393 -270q-33 -146 -33 -285q0 -79 32.5 -121.5t92.5 -42.5q136 0 246 78z" />
    <glyph glyph-name="trademark" unicode="&#x2122;" horiz-adv-x="1779" 
d="M616 715l-2 -10h-321l2 10q42 8 67 33q13 19 29 92l80 403q0 5 1.5 17t3 21.5t1.5 10.5q0 21 -24 21h-35q-59 0 -78 -8q-34 -11 -88 -105h-8q11 104 16 127q6 39 41 39h551q31 0 31 -27q0 -40 -27 -139h-8q-15 103 -60 109q-54 4 -67 4h-39q-18 0 -24 -6.5t-11 -26.5
l-88 -442q-8 -41 -8 -66q0 -32 18 -41q17 -10 47 -16zM1012 715l-2 -10h-224l2 10q49 8 70 26q21 21 33 72l90 393q20 90 20 101q0 18 -10 28q-23 20 -55 23l2 8h225q21 0 27 -29q82 -346 92 -401q59 104 242 405q16 25 37 25h213l-2 -8q-44 -10 -58.5 -24.5t-25.5 -57.5
q-15 -69 -76 -447q-6 -43 -6 -51q0 -27 12 -39q9 -9 61 -24l-2 -10h-331l2 10q42 7 60.5 26t29.5 62l75 430l-305 -504h-55l-117 524q-50 -272 -92 -446q-4 -36 -4 -43q0 -21 21 -33q17 -13 51 -16z" />
    <glyph glyph-name="Omega" unicode="&#x2126;" horiz-adv-x="1540" 
d="M662 184l-27 -184h-477q-41 0 -56.5 10.5t-15.5 36.5q0 137 20 268h15q35 -77 86 -92q62 -16 336 -16q-155 55 -242.5 182.5t-87.5 294.5q0 313 219 526q194 185 486 185q240 0 372.5 -119.5t132.5 -360.5q0 -283 -151 -469q-131 -162 -361 -239q311 6 365 20
q64 15 115 88h16q-27 -157 -59 -268q-15 -47 -95 -47h-487l27 184q122 53 198 203q61 125 90 297q33 174 33 320q0 158 -51 228.5t-164 70.5q-174 0 -266 -185q-121 -242 -121 -602q0 -268 150 -332z" />
    <glyph glyph-name="estimated" unicode="&#x212e;" horiz-adv-x="1742" 
d="M1688 686v-18h-1274q-8 0 -8 -11v-387q0 -22 18 -43q194 -209 481 -209q147 0 279 62t225 172h117q-111 -129 -275 -202t-348 -73q-324 0 -557 207q-229 207 -229 502q0 296 229 500q232 209 557 209q323 0 555 -209q230 -205 230 -500zM1403 719v387q0 24 -23 47
q-207 201 -475 201q-279 0 -479 -209q-20 -17 -20 -49v-377q0 -12 8 -12h977q12 0 12 12z" />
    <glyph glyph-name="onethird" unicode="&#x2153;" horiz-adv-x="1695" 
d="M315 -20l959 1425l72 -47l-957 -1424zM541 545l-4 -13h-394l4 13q61 18 68 22q38 14 57 113l86 457q13 80 13 82q0 38 -47 38q-40 0 -54 -2l-2 23l320 74l8 -11q-10 -42 -59 -294l-70 -363q-6 -34 -6 -68q0 -31 20 -45q25 -17 60 -26zM932 195h10q8 -63 57.5 -104.5
t128.5 -41.5q90 0 135.5 57.5t45.5 157.5q0 121 -133 121h-41l12 59h49q84 0 126 52t42 143q0 117 -109 117q-120 0 -198 -140h-10q3 66 10 109q9 37 47 57q67 33 203 33q123 0 187.5 -45.5t64.5 -120.5q0 -189 -244 -227q203 -21 203 -166q0 -135 -113 -205
q-113 -67 -277 -67q-133 0 -204 41q-23 13 -23 41q0 50 31 129z" />
    <glyph glyph-name="twothirds" unicode="&#x2154;" horiz-adv-x="1695" 
d="M403 -20l959 1425l72 -47l-957 -1424zM610 532h-532l12 68q125 80 236 176q99 89 152 180t57 201q0 59 -30 95t-85 36q-65 0 -105.5 -30t-85.5 -109h-10q0 63 4 113q6 40 56 55q95 31 206 31q124 0 189 -53.5t65 -139.5q0 -58 -33.5 -120t-82.5 -111q-40 -43 -125 -103
q-77 -57 -123 -82l-125 -71q136 4 321 4q54 0 78 18q33 26 60 78h10q-9 -79 -39 -201q-12 -35 -70 -35zM1004 195h10q8 -63 57.5 -104.5t128.5 -41.5q90 0 135 57.5t45 157.5q0 121 -133 121h-41l13 59h49q84 0 126 52t42 143q0 117 -109 117q-121 0 -199 -140h-10
q3 66 10 109q9 37 48 57q67 33 202 33q123 0 187.5 -45.5t64.5 -120.5q0 -189 -244 -227q203 -21 203 -166q0 -136 -112 -205q-113 -67 -277 -67q-134 0 -205 41q-22 13 -22 41q0 50 31 129z" />
    <glyph glyph-name="oneeighth" unicode="&#x215b;" horiz-adv-x="1695" 
d="M336 -20l958 1425l72 -47l-956 -1424zM567 545l-4 -13h-393l4 13q61 18 68 22q38 14 57 113l86 457q12 73 12 82q0 38 -47 38q-39 0 -53 -2l-2 23l319 74l9 -11q-17 -78 -60 -294l-69 -363q-7 -40 -7 -68q0 -30 21 -45q26 -17 59 -26zM1391 457q153 -71 153 -215
q0 -117 -96.5 -187.5t-247.5 -70.5q-131 0 -200.5 55t-69.5 141q0 152 217 207q-109 68 -109 184q0 111 85 177.5t220 66.5q115 0 177.5 -44.5t62.5 -115.5q0 -131 -192 -198zM1176 367q-109 -71 -109 -181q0 -64 41.5 -101.5t101.5 -37.5q73 0 115.5 38.5t42.5 104.5
q0 98 -192 177zM1356 475q100 63 100 170q0 51 -32 82t-87 31q-65 0 -100 -34t-35 -91q0 -87 154 -158z" />
    <glyph glyph-name="threeeighths" unicode="&#x215c;" horiz-adv-x="1695" 
d="M358 -20l959 1425l72 -47l-957 -1424zM119 727h10q8 -63 57.5 -104t128.5 -41q90 0 135.5 57.5t45.5 157.5q0 121 -134 121h-40l12 59h49q84 0 126 51.5t42 142.5q0 117 -109 117q-121 0 -198 -139h-11q2 58 11 108q9 38 47 58q67 33 203 33q123 0 187 -45.5t64 -120.5
q0 -190 -243 -228q203 -21 203 -166q0 -134 -113 -204q-115 -68 -277 -68q-133 0 -204 41q-23 13 -23 41q0 50 31 129zM1411 457q154 -71 154 -215q0 -117 -96.5 -187.5t-247.5 -70.5q-131 0 -201 55t-70 141q0 152 217 207q-108 67 -108 184q0 111 85 177.5t220 66.5
q115 0 177.5 -44.5t62.5 -115.5q0 -131 -193 -198zM1196 367q-109 -71 -109 -181q0 -64 42 -101.5t102 -37.5q73 0 115.5 38.5t42.5 104.5q0 98 -193 177zM1376 475q101 64 101 170q0 51 -32 82t-87 31q-65 0 -100 -34t-35 -91q0 -87 153 -158z" />
    <glyph glyph-name="fiveeighths" unicode="&#x215d;" horiz-adv-x="1695" 
d="M365 -20l958 1425l72 -47l-957 -1424zM143 739h11q8 -66 55 -111.5t121 -45.5q88 0 136 60t48 157q0 155 -123 155q-87 0 -166 -49l-8 6l113 422h446l-28 -145h-226q-100 2 -178 2l-49 -182q51 45 186 45q108 0 176 -58t68 -159q0 -146 -105.5 -233t-277.5 -87
q-132 0 -203 41q-24 15 -24 41q0 29 28 141zM1417 457q154 -71 154 -215q0 -117 -96.5 -187.5t-247.5 -70.5q-131 0 -201 55t-70 141q0 151 218 207q-109 68 -109 184q0 111 85 177.5t220 66.5q115 0 177.5 -44.5t62.5 -115.5q0 -131 -193 -198zM1202 367
q-108 -71 -108 -181q0 -64 41.5 -101.5t101.5 -37.5q73 0 115.5 38.5t42.5 104.5q0 98 -193 177zM1382 475q101 64 101 170q0 51 -32 82t-87 31q-65 0 -100 -34t-35 -91q0 -87 153 -158z" />
    <glyph glyph-name="seveneighths" unicode="&#x215e;" horiz-adv-x="1695" 
d="M285 -20l958 1425l72 -47l-957 -1424zM797 1255l-428 -757l-119 30q187 322 432 662q-76 0 -156 -2h-198q-57 0 -82 -31q-17 -20 -39 -63h-12q0 92 22 196q4 24 19.5 33.5t48.5 9.5h524zM1337 457q154 -71 154 -215q0 -117 -96.5 -187.5t-247.5 -70.5q-131 0 -200.5 55
t-69.5 141q0 152 217 207q-109 68 -109 184q0 111 85 177.5t220 66.5q115 0 177.5 -44.5t62.5 -115.5q0 -131 -193 -198zM1122 367q-108 -71 -108 -181q0 -64 41.5 -101.5t101.5 -37.5q73 0 115.5 38.5t42.5 104.5q0 98 -193 177zM1303 475q100 63 100 170q0 51 -32 82
t-87 31q-65 0 -100 -34t-35 -91q0 -87 154 -158z" />
    <glyph glyph-name="arrowleft" unicode="&#x2190;" horiz-adv-x="1515" 
d="M1475 782v-204q-943 0 -1047 2q86 -78 455 -447l-135 -137l-695 684l699 690l133 -131q-221 -225 -457 -461q212 4 1047 4z" />
    <glyph glyph-name="arrowup" unicode="&#x2191;" horiz-adv-x="1515" 
d="M887 0h-207q0 835 4 1047l-461 -457l-131 133l690 698l684 -692l-137 -137q-358 358 -446 455q4 -422 4 -1047z" />
    <glyph glyph-name="arrowright" unicode="&#x2192;" horiz-adv-x="1515" 
d="M84 578v204q838 0 1046 -4q-6 5 -67 66q-33 35 -164 166l-225 229l135 131l696 -690l-694 -684l-135 137q379 379 454 447q-104 -2 -1046 -2z" />
    <glyph glyph-name="arrowdown" unicode="&#x2193;" horiz-adv-x="1515" 
d="M680 1378h207q0 -622 -4 -1044l446 452l137 -135l-684 -692l-690 696l131 136l461 -457q-4 208 -4 1044z" />
    <glyph glyph-name="uni2196" unicode="&#x2196;" horiz-adv-x="1515" 
d="M618 995l760 -743l-147 -148l-744 744q2 -41 2 -641h-194v973h983v-187q-266 2 -660 2z" />
    <glyph glyph-name="uni2197" unicode="&#x2197;" horiz-adv-x="1515" 
d="M1075 848l-743 -744l-146 148l758 743q-393 0 -657 -2v187h981v-973h-195q0 600 2 641z" />
    <glyph glyph-name="uni2198" unicode="&#x2198;" horiz-adv-x="1515" 
d="M944 369l-758 743l146 148l743 -744q0 41 -2 92v549h195v-973h-981v187q223 0 323 -2h334z" />
    <glyph glyph-name="uni2199" unicode="&#x2199;" horiz-adv-x="1515" 
d="M485 516l744 744l147 -148l-760 -743h39.5t98 0.5t139 1t180.5 0.5h203v-187h-983v973h194q0 -600 -2 -641z" />
    <glyph glyph-name="partialdiff" unicode="&#x2202;" horiz-adv-x="1226" 
d="M829 799q33 143 33 274q0 128 -51.5 186t-153.5 58q-191 0 -286 -197h-15q0 120 9 166q10 44 57 64q117 57 291 57q415 0 415 -401q0 -197 -73 -465q-70 -269 -189 -406q-137 -162 -383 -162q-167 0 -262.5 93.5t-95.5 240.5q0 282 188 441q118 100 301 100
q139 0 215 -49zM803 719q-39 51 -123 51q-101 0 -158 -78q-52 -74 -94 -231q-37 -148 -37 -256q0 -160 115 -160q107 0 153 119q86 226 144 555z" />
    <glyph glyph-name="increment" unicode="&#x2206;" horiz-adv-x="1476" 
d="M1016 1366l309 -1366h-1374l842 1366h223zM780 1169q-84 -150 -559 -940h754q-158 737 -195 940z" />
    <glyph glyph-name="product" unicode="&#x220f;" horiz-adv-x="1517" 
d="M514 -193l-2 -14h-559l2 14q89 21 123 64q26 37 55 190l203 1039q22 123 22 155q0 48 -36 68q-32 16 -80 29l4 14h1341l-2 -12q-93 -24 -121 -62q-31 -36 -59 -180l-205 -1053q-20 -103 -20 -151q0 -49 37 -70q31 -15 79 -31l-2 -12h-559l2 12q92 21 121 64q27 35 57 190
l220 1117q6 38 6 45q0 24 -15 32.5t-53 8.5h-356q-38 0 -53 -14.5t-25 -63.5l-219 -1127q-21 -102 -21 -147q0 -49 35 -70q30 -19 80 -35z" />
    <glyph glyph-name="summation" unicode="&#x2211;" horiz-adv-x="1292" 
d="M975 -207h-1059l4 31q585 561 746 725q-61 110 -414 801l4 16h918q45 0 61 -9t16 -38q0 -76 -37 -209h-18q-27 111 -66 133q-38 21 -120 21q-294 4 -412 4l322 -633l-619 -596h528q127 0 164 12q59 21 121 121h16q-1 -13 -26 -162q-19 -114 -31 -160q-15 -57 -98 -57z
" />
    <glyph glyph-name="minus" unicode="&#x2212;" horiz-adv-x="1302" 
d="M1155 635l-33 -160h-960l33 160h960z" />
    <glyph glyph-name="uni2215" unicode="&#x2215;" horiz-adv-x="182" 
d="M-408 -20l959 1425l72 -47l-957 -1424z" />
    <glyph glyph-name="uni2219" unicode="&#x2219;" horiz-adv-x="516" 
d="M397 549q0 -71 -44 -117.5t-117 -46.5q-64 0 -105 40t-41 105q0 75 46 123.5t120 48.5q66 0 103.5 -42t37.5 -111z" />
    </font>
</defs>
</svg>
