<?xml version="1.0" standalone="no"?>
<!DOCTYPE svg PUBLIC "-//W3C//DTD SVG 1.1//EN" "http://www.w3.org/Graphics/SVG/1.1/DTD/svg11.dtd" >
<svg xmlns="http://www.w3.org/2000/svg" xmlns:xlink="http://www.w3.org/1999/xlink" version="1.1">
<metadata>
Created by FontForge 20201107 at Mon Jun 16 13:58:37 2025
 By 
Copyright (c) 2018 by Dieter Hofrichter. Alle Rechte vorbehalten. |DCNT
</metadata>
<defs>
<font id="Candide-Bold" horiz-adv-x="743" >
  <font-face 
    font-family="Candide"
    font-weight="700"
    font-stretch="normal"
    units-per-em="2048"
    panose-1="2 0 8 3 8 0 0 2 0 4"
    ascent="1538"
    descent="-510"
    x-height="995"
    cap-height="1366"
    bbox="-293 -586 2490 2044"
    underline-thickness="102"
    underline-position="-204"
    unicode-range="U+000D-FB06"
  />
<missing-glyph horiz-adv-x="1077" 
d="M1077 0h-1073v1503h1073v-1503zM176 1395l365 -547l364 547h-729zM971 1298l-367 -546l367 -547v1093zM541 655l-365 -549h729zM477 752l-366 546v-1093z" />
    <glyph glyph-name="f_f" unicode="ff" horiz-adv-x="1314" 
d="M582 10v-10h-521v10q70 28 91 62q24 43 24 178v633h-135v51q71 30 109 74q19 22 38 98q37 169 138.5 239t289.5 70q54 0 123 -16q54 -15 54 -62q0 -68 -33 -180h-12q-24 77 -70 129q-36 39 -86 39q-91 0 -125 -70q-25 -55 -25 -143q0 -59 7 -117h192q93 0 133 37
q27 27 51 119q40 162 145 228.5t290 66.5q68 0 124 -16q32 -7 44 -21t12 -41q0 -68 -33 -180h-12q-21 73 -74 129q-36 39 -102 39q-75 0 -105 -56q-33 -50 -33 -198q0 -13 4 -107h195v-112h-195v-621q0 -146 19 -182q22 -32 141 -70v-10h-547v10q72 28 90 62q25 45 25 178
v633h-364v-621q0 -155 18 -182q17 -30 115 -70z" />
    <glyph glyph-name="fi" unicode="fi" horiz-adv-x="1249" 
d="M584 10v-10h-523v10q75 29 91 60q24 40 24 178v635h-135v51q87 43 109 74q19 30 47 135q43 160 165 231.5t330 71.5q126 0 221 -27q66 -21 66 -71q0 -79 -37 -215h-18q-29 104 -86 161q-59 62 -166 62q-112 0 -172 -66q-54 -57 -54 -178v-65q3 -47 3 -52h350
q156 17 233 17q35 0 45 -13t10 -51q0 -3 -0.5 -21.5t-1.5 -58t-2 -82.5q-2 -100 -2 -184v-395q0 -103 21 -137q22 -36 102 -60v-10h-510v10q75 29 94 66q21 40 21 133v522q0 107 -31 129q-30 23 -100 23h-229v-621q0 -154 18 -184q15 -31 117 -68z" />
    <glyph glyph-name="fl" unicode="fl" horiz-adv-x="1253" 
d="M573 10v-10h-512v10q75 29 91 60q24 40 24 178v635h-135v51q72 34 106 74q23 29 37 102q34 178 147 257t304 79q132 0 207 -37q110 37 200 37q31 0 41.5 -13t10.5 -51q0 -6 -0.5 -26.5t-1.5 -62.5t-2 -85q-3 -150 -3 -182v-793q0 -144 21 -165q27 -34 100 -58v-10h-510
v10q73 27 95 66q20 39 20 149v930q0 133 -47 168q-39 33 -113 33q-108 0 -161 -68q-48 -63 -48 -207q0 -59 2 -86h234v-112h-231v-621q0 -151 20 -184q27 -38 104 -68z" />
    <glyph glyph-name="f_f_i" unicode="ffi" horiz-adv-x="1886" 
d="M582 10v-10h-521v10q70 28 91 62q24 43 24 178v633h-135v51q71 30 109 74q24 30 36 94q36 171 138.5 242t287.5 71q76 0 125 -14q56 -15 56 -62q0 -70 -33 -182h-15q-21 77 -69 131q-37 37 -90 37q-83 0 -117 -63q-27 -52 -27 -150q0 -59 7 -117h194q93 0 133 37
q21 21 51 115q54 164 170 231.5t324 67.5q122 0 213 -31q65 -27 65 -69q0 -94 -32 -230h-27q-34 98 -90 166q-59 74 -160 74q-116 0 -168 -64q-41 -53 -41 -166q0 -70 6 -131h349q156 17 233 17q35 0 46 -13.5t11 -50.5q0 -3 -0.5 -21.5t-1.5 -58t-2 -82.5q-2 -100 -2 -184
v-395q0 -101 19 -137q17 -34 102 -60v-10h-506v10q61 23 90 66q19 29 19 133v522q0 100 -29 129q-26 23 -102 23h-228v-621q0 -148 21 -182q23 -30 111 -70v-10h-519v10q72 28 90 62q25 45 25 178v633h-364v-623q0 -153 22 -184q19 -28 111 -66z" />
    <glyph glyph-name="f_f_l" unicode="ffl" horiz-adv-x="1892" 
d="M582 10v-10h-521v10q70 28 91 62q24 43 24 178v633h-135v51q71 30 109 74q23 28 38 100q40 168 140 237.5t282 69.5q86 0 129 -14q54 -15 54 -62q0 -70 -33 -182h-15q-21 76 -67 131q-34 37 -90 37q-87 0 -121 -70q-25 -52 -25 -143q0 -59 7 -117h192q93 0 133 37
q25 25 53 119q43 155 155.5 225t301.5 70q116 0 197 -37q98 37 198 37q30 0 40 -12t10 -50q0 -24 -2 -94.5t-3 -105.5q-2 -90 -2 -158v-793q0 -139 25 -167q30 -38 100 -58v-8h-512v8q79 36 95 66q20 39 20 151v934q0 133 -47 168q-44 29 -111 29q-111 0 -164 -68
q-45 -57 -45 -205q0 -18 4 -88h228v-112h-230v-621q0 -146 19 -182q17 -28 115 -70v-10h-521v10q72 28 90 62q25 45 25 178v633h-364v-621q0 -149 20 -182q21 -34 113 -70z" />
    <glyph glyph-name="f_b" unicode="fb" horiz-adv-x="1849" 
d="M573 10v-10h-512v10q68 25 91 58q24 34 24 180v635h-135v51q72 34 106 74q26 37 37 102q32 182 142.5 259t318.5 77q118 0 189 -39q98 39 202 39q29 0 38 -12.5t9 -51.5q0 -48 -6 -254l-6 -315q30 94 114.5 151.5t200.5 57.5q390 0 390 -504q0 -256 -130 -397t-356 -141
q-114 0 -209 32q-136 47 -157 47q-69 0 -113 -108l-16 2q6 73 6 305v901q0 76 -8.5 110t-36.5 56q-42 31 -113 31q-107 0 -154 -68q-45 -65 -45 -188q0 -48 5 -105h231v-112h-231v-621q0 -155 20 -188q20 -34 104 -64zM1075 657v-411q0 -75 21 -105q44 -65 159 -65
q226 0 226 375q0 228 -53 327t-160 99q-78 0 -138 -48q-29 -20 -45 -63q-10 -33 -10 -109z" />
    <glyph glyph-name="f_f_b" unicode="ffb" horiz-adv-x="2486" 
d="M582 10v-10h-521v10q70 28 91 62q24 43 24 178v633h-135v51q82 40 109 74q24 27 40 98q34 171 137 240t291 69q53 0 119 -16q56 -15 56 -60q0 -70 -33 -182h-12q-34 90 -72 131q-37 37 -88 37q-87 0 -121 -70q-25 -52 -25 -141q0 -19 7 -119h194q96 0 133 37
q25 25 49 119q37 158 149.5 226.5t313.5 68.5q112 0 176 -37q118 37 211 37q27 0 35 -11.5t8 -52.5q0 -11 -0.5 -42.5t-1.5 -91.5t-2 -118q-1 -53 -2 -165t-2 -152q30 94 114 151.5t199 57.5q390 0 390 -504q0 -256 -130 -397t-356 -141q-105 0 -211 34q-10 4 -37 13.5
t-43.5 15.5t-38.5 11t-36 5q-69 0 -113 -108l-16 2q6 73 6 305v901q0 131 -49 168q-43 29 -103 29q-113 0 -164 -66q-41 -59 -41 -190q0 -7 4 -105h230v-112h-230v-623q0 -150 19 -178q24 -34 141 -72v-10h-547v10q68 26 90 62q25 48 25 180v631h-364v-621q0 -158 20 -184
q21 -27 113 -68zM1712 657v-411q0 -69 19 -105q41 -65 161 -65q226 0 226 375q0 228 -53.5 328t-159.5 100q-85 0 -138 -50q-34 -30 -43 -63q-12 -40 -12 -109z" />
    <glyph glyph-name="f_f_h" unicode="ffh" horiz-adv-x="2529" 
d="M582 10v-10h-521v10q70 28 91 62q24 43 24 178v633h-135v51q82 40 109 74q31 42 40 98q58 309 410 309q83 0 139 -16q33 -12 43.5 -24t10.5 -36q0 -70 -33 -182h-12q-27 81 -72 131q-34 37 -88 37q-83 0 -121 -68q-25 -55 -25 -143q0 -65 7 -119h194q96 0 133 37
q13 13 49 119q43 157 157 226t308 69q105 0 189 -37q107 37 200 37q30 0 41 -13t11 -51q0 -106 -2 -235l-5 -330q37 88 133.5 146.5t208.5 58.5q225 0 271 -166q18 -68 18 -276v-324q0 -160 33 -193q24 -30 94 -53v-10h-510v10q76 27 92 66q19 43 19 184v309q0 121 -9.5 171
t-39.5 79q-41 41 -117 41q-85 0 -141 -39q-26 -17 -41 -55q-11 -33 -11 -94v-436q0 -138 23 -168q30 -37 100 -58v-10h-512v10q73 27 95 66q20 39 20 151v932q0 131 -47 166q-42 31 -111 31q-117 0 -164 -56q-47 -53 -47 -217q0 -6 4 -88h230v-112h-230v-621q0 -146 19 -182
q20 -30 113 -70v-10h-519v10q72 28 90 62q25 45 25 178v633h-364v-621q0 -156 20 -182q18 -30 113 -70z" />
    <glyph glyph-name="f_f_j" unicode="ffj" horiz-adv-x="1867" 
d="M582 10v-10h-521v10q70 28 91 62q24 43 24 178v633h-135v51q70 27 111 74q18 20 34 96q40 173 141 242t285 69q76 0 125 -14q56 -15 56 -62q0 -70 -33 -182h-15q-21 77 -69 131q-37 37 -92 37q-87 0 -113 -63q-29 -63 -29 -150q0 -59 7 -117h194q93 0 133 37
q19 16 49 115q54 164 170 231.5t324 67.5q130 0 215 -31q63 -23 63 -69q0 -94 -32 -230h-27q-37 98 -90 166q-59 74 -158 74q-116 0 -168 -64q-41 -50 -41 -170q0 -34 2 -69q2 -33 2 -58h340q163 17 236 17q34 0 44.5 -13.5t10.5 -50.5v-12q-1 -12 -1.5 -33t-1.5 -49t-2 -63
t-1.5 -72t-1 -79t-0.5 -81v-223q2 -104 2 -256q0 -306 -65 -418q-43 -69 -126.5 -114.5t-185.5 -45.5q-84 0 -135 23q-35 15 -35 51q0 66 27 152h14q24 -136 123 -136q60 0 82 48q27 58 27 518v573q0 101 -31 129q-26 23 -100 23h-220v-621q0 -148 21 -182q23 -30 111 -70
v-10h-519v10q72 28 90 62q25 45 25 178v633h-364v-623q0 -153 22 -184q19 -28 111 -66z" />
    <glyph glyph-name="f_f_k" unicode="ffk" horiz-adv-x="2494" 
d="M582 10v-10h-521v10q70 28 91 62q24 43 24 178v633h-135v51q70 33 106 72q30 39 41 102q58 307 410 307q85 0 141 -16q33 -12 43.5 -24t10.5 -36q0 -70 -33 -182h-12q-27 81 -72 131q-34 37 -90 37q-82 0 -117 -68q-27 -53 -27 -137q0 -60 7 -125h194q98 0 137 39
q19 19 49 117q47 158 156.5 226.5t302.5 68.5q101 0 191 -35q125 35 204 35q29 0 39.5 -13t10.5 -51v-12.5t-0.5 -35t-1 -54t-1 -77.5t-1.5 -97q-1 -77 -2 -149t-2 -110t-1 -48v-279q166 153 242 242q82 94 82 141q0 55 -109 82v10h453v-10q-65 -21 -108 -53
q-37 -29 -125 -111l-179 -172l64 -98l82 -125l74 -111q103 -145 178 -223q46 -49 112 -69v-9q-132 -22 -290 -22q-106 0 -156 71q-140 194 -258 416l-62 -55v-205q0 -119 23 -149q38 -38 100 -60v-10h-512v10q70 29 95 64q20 33 20 133v952q0 131 -47 166q-42 31 -111 31
q-112 0 -164 -58q-47 -56 -47 -211q0 -46 4 -92h230v-112h-230v-621q0 -146 19 -182q20 -30 113 -70v-10h-519v10q72 28 90 62q25 45 25 178v633h-364v-621q0 -156 20 -182q18 -30 113 -70z" />
    <glyph glyph-name="f_h" unicode="fh" horiz-adv-x="1892" 
d="M573 10v-10h-512v10q75 29 91 60q24 40 24 178v635h-135v51q86 49 106 74q23 29 37 102q31 180 145 258t318 78q116 0 197 -37q112 37 203 37q29 0 38 -12.5t9 -51.5q0 -106 -2 -235l-5 -330q36 85 134 146q100 59 213 59q220 0 266 -168q20 -76 20 -266v-332
q0 -154 31 -193q36 -36 92 -53v-10h-508v10q72 28 92 66q17 39 17 184v309q0 119 -9 169.5t-38 80.5q-41 41 -117 41q-90 0 -141 -39q-29 -19 -43 -55q-9 -18 -9 -94v-441q0 -138 21 -165q27 -30 100 -56v-10h-510v10q73 27 95 66q20 33 20 151v922q0 80 -9 116t-38 58
q-39 33 -119 33q-102 0 -155 -68q-48 -67 -48 -207q0 -59 2 -86h234v-112h-231v-627q0 -145 20 -178q21 -30 104 -68z" />
    <glyph glyph-name="f_j" unicode="fj" horiz-adv-x="1228" 
d="M573 10v-10h-512v10q66 25 91 60q24 38 24 178v635h-135v51q87 36 109 74q19 27 38 127q36 169 157.5 240t352.5 71q100 0 191 -31q65 -27 65 -76q0 -69 -34 -223h-27q-31 101 -88 176q-46 64 -146 64q-113 0 -167 -66q-46 -58 -46 -164q0 -110 3 -131h337q163 17 236 17
q34 0 44.5 -13.5t10.5 -50.5q0 -3 -0.5 -21.5t-1.5 -57t-2 -81.5q-2 -96 -2 -186v-268q2 -121 2 -258q0 -304 -69 -416q-44 -70 -126 -114t-186 -44q-82 0 -133 23q-35 15 -35 51q0 66 27 152h14q35 -136 123 -136q60 0 82 48q27 58 27 364v727q0 106 -29 129
q-38 23 -102 23h-217v-621q0 -154 18 -184q14 -32 106 -68z" />
    <glyph glyph-name="f_k" unicode="fk" horiz-adv-x="1855" 
d="M573 10v-10h-512v10q66 25 91 60q24 40 24 178v635h-135v51q81 40 106 74q22 29 37 100q31 180 146 259t323 79q43 0 103.5 -12.5t85.5 -26.5q91 39 205 39q29 0 38 -12.5t9 -51.5v-12.5t-0.5 -35t-1 -54t-1 -77.5t-1.5 -97q-3 -267 -3 -307v-279q165 152 242 242
q80 89 80 141q0 55 -104 82v10h448v-10q-65 -22 -104 -53q-29 -20 -125 -109l-181 -174l64 -100q56 -81 80 -123l76 -113q90 -129 176 -221q40 -43 114 -69v-9q-110 -22 -292 -22q-107 0 -154 71q-132 191 -258 416l-62 -55v-205q0 -128 25 -156q22 -32 100 -53v-10h-514v10
q80 31 95 66q20 41 20 151v932q0 76 -8.5 109t-38.5 55q-44 33 -123 33q-97 0 -151 -66q-48 -67 -48 -209q0 -59 2 -86h234v-112h-231v-621q0 -148 20 -184q18 -38 104 -68z" />
    <glyph glyph-name=".notdef" horiz-adv-x="1077" 
d="M1077 0h-1073v1503h1073v-1503zM176 1395l365 -547l364 547h-729zM971 1298l-367 -546l367 -547v1093zM541 655l-365 -549h729zM477 752l-366 546v-1093z" />
    <glyph glyph-name=".null" horiz-adv-x="0" 
 />
    <glyph glyph-name="nonmarkingreturn" horiz-adv-x="682" 
 />
    <glyph glyph-name="NULL" horiz-adv-x="0" 
 />
    <glyph glyph-name="NULL" horiz-adv-x="0" 
 />
    <glyph glyph-name="CR" unicode="&#xd;" horiz-adv-x="450" 
 />
    <glyph glyph-name="space" unicode=" " horiz-adv-x="475" 
 />
    <glyph glyph-name="exclam" unicode="!" horiz-adv-x="565" 
d="M328 457h-25q-28 162 -63 305q-71 307 -80 385q-4 32 -4 57q0 180 163 180q160 0 160 -176q0 -53 -22 -166q-9 -44 -64 -276q-41 -173 -65 -309zM473 139q0 -72 -44 -117t-116 -45q-69 0 -114 45t-45 117q0 69 45.5 114.5t117.5 45.5t114 -43t42 -117z" />
    <glyph glyph-name="quotedbl" unicode="&#x22;" horiz-adv-x="724" 
d="M233 1042l-43 -176h-28q-6 48 -35 178q-59 280 -59 293q0 129 116 129q119 0 119 -133q0 -26 -20 -102zM588 1042l-43 -176h-29q-6 42 -35 178q-57 254 -57 293q0 129 115 129q120 0 120 -133q0 -26 -20 -102z" />
    <glyph glyph-name="numbersign" unicode="#" horiz-adv-x="1259" 
d="M430 383l-61 -418h-84l61 418h-233v199h264l31 202h-240v199h268l60 389h84l-60 -389h314l59 389h84l-59 -389h229v-199h-258l-31 -202h234v-199h-265l-61 -418h-84l61 418h-313zM805 784h-313l-31 -202h313z" />
    <glyph glyph-name="dollar" unicode="$" horiz-adv-x="1091" 
d="M608 -8v-182h-78v176q-10 -2 -49 -2q-86 0 -175 19.5t-132 41.5q-63 34 -63 86q0 109 18 217h18q34 -98 99 -166q94 -104 284 -104v426l-122 65q-149 80 -209 167t-60 212q0 152 99.5 255t291.5 128v197h78v-189h39q169 0 260 -30q42 -13 56 -29.5t14 -52.5
q0 -40 -14 -117q-9 -59 -23 -113h-16q-28 123 -86 181q-69 69 -211 69h-19v-420l101 -49q164 -84 229.5 -171.5t65.5 -217.5q0 -169 -99 -271t-297 -126zM766 258q0 68 -33 109.5t-125 93.5v-377q81 16 119.5 62.5t38.5 111.5zM377 1069q0 -64 26 -106q27 -41 127 -97v371
q-76 -18 -114.5 -63.5t-38.5 -104.5z" />
    <glyph glyph-name="percent" unicode="%" horiz-adv-x="1736" 
d="M721 930q0 -197 -85 -305.5t-247 -108.5q-323 0 -323 422q0 198 87 304t248 106q172 0 246 -105.5t74 -312.5zM516 924q0 200 -24 276t-91 76q-66 0 -95.5 -76t-29.5 -248q0 -202 25 -282q24 -78 96 -78q62 0 90.5 77t28.5 255zM483 -27l688 1428l84 -35l-686 -1427z
M1669 397q0 -197 -85 -305t-247 -108q-325 0 -325 422q0 196 88 302.5t248 106.5q173 0 247 -105t74 -313zM1462 399q0 203 -24 273q-24 71 -95 71q-64 0 -92 -74t-28 -249q0 -204 25.5 -282.5t94.5 -78.5q62 0 90.5 79.5t28.5 260.5z" />
    <glyph glyph-name="ampersand" unicode="&#x26;" horiz-adv-x="1540" 
d="M1522 180l10 -10q-164 -197 -307 -197q-127 0 -254 121q-151 -121 -375 -121q-111 0 -201 25.5t-146.5 66t-94 94.5t-53 107.5t-15.5 108.5q0 273 330 375q-86 145 -86 278q0 53 13 102t45.5 98t81.5 84.5t128 58t178 22.5q141 0 223 -29q44 -18 59 -35.5t15 -54.5
q0 -40 -14 -111q-17 -85 -23 -104h-14q-39 116 -84 170q-65 71 -158 71q-86 0 -136 -48.5t-50 -135.5q0 -114 119 -285q62 -91 178 -223q120 -138 221 -235q25 41 42 106.5t17 112.5q0 57 -59 92q-32 18 -84 31v14h477v-14q-39 -10 -80 -35q-55 -42 -84 -105
q-89 -181 -153 -258q150 -159 254 -159q31 0 80 22zM889 174q-103 93 -234 248q-127 154 -190 254q-90 -53 -90 -180q0 -164 98 -265q100 -100 252 -100q100 0 164 43z" />
    <glyph glyph-name="quotesingle" unicode="'" horiz-adv-x="370" 
d="M233 1044l-43 -178h-28q-6 48 -35 178q-59 280 -59 293q0 129 116 129q119 0 119 -129q0 -26 -20 -102z" />
    <glyph glyph-name="parenleft" unicode="(" horiz-adv-x="616" 
d="M608 -242l-8 -12q-518 181 -518 891q0 289 131.5 506t390.5 327l6 -12q-301 -205 -301 -817q0 -695 299 -883z" />
    <glyph glyph-name="parenright" unicode=")" horiz-adv-x="616" 
d="M8 1458l6 12q518 -181 518 -890q0 -291 -130.5 -507.5t-389.5 -326.5l-6 12q299 206 299 817q0 693 -297 883z" />
    <glyph glyph-name="asterisk" unicode="*" horiz-adv-x="788" 
d="M399 756q-86 0 -86 73q0 21 9 48q4 15 14.5 45t25 72t23.5 67q-30 -30 -68 -78q-40 -46 -57 -63.5t-39 -30.5q-24 -17 -51 -17q-35 0 -57.5 28t-22.5 63q0 43 39 63q14 9 47 16.5t88.5 19t100.5 23.5q-17 4 -146 33q-46 10 -80 25q-45 20 -45 67q0 33 25 59.5t59 26.5
q27 0 49 -16q19 -14 33 -31q6 -6 49 -54.5t76 -82.5q-15 50 -39 109q-3 9 -8.5 24.5t-7.5 21t-5.5 16t-4.5 14.5t-3 11.5t-2.5 11.5t-1 9t-0.5 10q0 78 88 78q82 0 82 -76q0 -25 -10 -59q-7 -26 -14 -39l-47 -131q21 21 73 82q62 70 80 83q5 4 10 7q21 12 46 12
q35 0 58 -25.5t23 -58.5q0 -45 -40 -69q-13 -11 -45.5 -18.5t-89.5 -17.5t-101 -22q44 -11 98 -22t89 -18.5t49 -12.5q43 -21 43 -61q0 -37 -24 -65.5t-56 -28.5q-30 0 -50 14l-40 33q-8 8 -30.5 34t-47.5 53.5t-47 49.5q13 -45 36 -103q37 -93 37 -127q0 -36 -23 -55.5
t-61 -19.5z" />
    <glyph glyph-name="plus" unicode="+" horiz-adv-x="1302" 
d="M735 471v-399h-168v399h-397v168h397v399h168v-399h398v-168h-398z" />
    <glyph glyph-name="comma" unicode="," horiz-adv-x="534" 
d="M61 -348l-10 18q197 150 197 285q0 53 -64 96q-61 43 -61 107q0 61 40 99t105 38q74 0 118 -53t44 -146q0 -133 -106 -248q-103 -117 -263 -196z" />
    <glyph glyph-name="hyphen" unicode="-" horiz-adv-x="696" 
d="M612 633v-201h-528v201h528z" />
    <glyph glyph-name="period" unicode="." horiz-adv-x="520" 
d="M420 139q0 -72 -45 -117t-117 -45q-69 0 -114.5 45t-45.5 117q0 69 46 114.5t118 45.5t115 -43.5t43 -116.5z" />
    <glyph glyph-name="slash" unicode="/" horiz-adv-x="870" 
d="M823 1473l-696 -1620l-98 36l698 1618z" />
    <glyph glyph-name="zero" unicode="0" horiz-adv-x="1130" 
d="M1067 655q0 -327 -128.5 -504.5t-381.5 -177.5q-281 0 -391 197q-100 182 -100 500q0 328 129.5 500.5t379.5 172.5q287 0 396 -198q52 -94 74 -210t22 -280zM752 643q0 355 -37 479q-35 129 -148 129q-100 0 -145 -129t-45 -428q0 -363 37 -493q40 -131 153 -131
q102 0 142 125q43 125 43 448z" />
    <glyph glyph-name="one" unicode="1" horiz-adv-x="1130" 
d="M866 12v-12h-600v12q58 11 105 35q32 18 45.5 59t13.5 134v768q0 124 -20 157q-22 31 -74 31q-59 0 -82 -2l-6 31l465 125l14 -15q-6 -126 -6 -489v-606q0 -100 10.5 -136t40.5 -55q32 -23 94 -37z" />
    <glyph glyph-name="two" unicode="2" horiz-adv-x="1130" 
d="M928 0h-848v129q298 227 438 412q56 76 94 159q33 74 43.5 125.5t10.5 114.5q0 313 -207 313q-192 0 -293 -241h-12q-23 161 -23 202q0 56 72 84q113 45 325 45q225 0 336 -100t111 -274q0 -331 -643 -731q5 0 518 10q65 0 98 33q23 20 74 116h14q0 -50 -8 -178
q-6 -136 -10 -166q-7 -35 -23 -44t-67 -9z" />
    <glyph glyph-name="three" unicode="3" horiz-adv-x="1130" 
d="M102 322h13q37 -102 116 -175q81 -75 218 -75q227 0 227 309q0 258 -230 258h-45v80h45q113 0 160 66t47 227q0 237 -200 237q-103 0 -170.5 -54t-116.5 -175h-12q-19 111 -19 182q0 57 47 84q99 57 342 57q220 0 327 -86t107 -235q0 -60 -10 -100.5t-39 -87.5
q-59 -95 -266 -136q199 -21 270 -104q74 -83 74 -217q0 -191 -138.5 -297.5t-385.5 -106.5q-212 0 -326 66q-51 26 -51 86q0 66 16 197z" />
    <glyph glyph-name="four" unicode="4" horiz-adv-x="1130" 
d="M1038 12v-12h-596v12q73 14 113 43q51 39 51 162v129h-569v146l629 851h233q-4 -410 -4 -419v-398h192v-180h-192v-133q0 -128 51 -162q24 -18 92 -39zM176 526h430q0 245 4 609z" />
    <glyph glyph-name="five" unicode="5" horiz-adv-x="1130" 
d="M115 322h12q28 -89 109 -158q84 -72 206 -72q240 0 240 297q0 291 -225 291q-146 0 -262 -70l-11 6l74 701h672v-248h-387q-133 2 -228 2l-26 -283q85 64 268 64q191 0 315 -100q125 -98 125 -314q0 -224 -137 -344.5t-385 -120.5q-220 0 -332 68q-51 29 -51 82
q4 66 23 199z" />
    <glyph glyph-name="six" unicode="6" horiz-adv-x="1130" 
d="M379 643q35 85 117.5 134.5t183.5 49.5q362 0 362 -397q0 -196 -118 -326q-119 -131 -330 -131q-243 0 -366.5 157t-123.5 458q0 129 19 239t63 206.5t110.5 164t167 106.5t226.5 39q153 0 240 -34q65 -27 65 -68q0 -53 -37 -207h-12q-50 221 -252 221q-303 0 -315 -612z
M393 426q0 -179 45 -265.5t144 -86.5q94 0 134 77.5t40 262.5q0 264 -166 264q-99 0 -158 -74q-39 -51 -39 -178z" />
    <glyph glyph-name="seven" unicode="7" horiz-adv-x="1130" 
d="M1024 1178l-483 -1217l-207 31q191 485 534 1077q-102 0 -227 -2l-307 -4q-114 -3 -146 -35t-53 -108h-14q-21 184 -21 335q0 36 16.5 49t55.5 13h852v-139z" />
    <glyph glyph-name="eight" unicode="8" horiz-adv-x="1130" 
d="M731 768q309 -125 309 -399q0 -182 -137 -289q-134 -107 -356 -107q-221 0 -337 89t-116 241q0 108 71 194t208 121q-230 128 -230 351q0 172 118.5 273t322.5 101q200 0 301.5 -73.5t101.5 -206.5q0 -97 -67 -174t-189 -121zM430 588q-131 -107 -131 -277
q0 -114 70 -177.5t178 -63.5q105 0 164 59t59 150q0 102 -74 170q-71 68 -266 139zM676 795q117 102 117 252q0 95 -51.5 148.5t-149.5 53.5q-96 0 -149.5 -50t-53.5 -136q0 -82 57 -139q59 -56 230 -129z" />
    <glyph glyph-name="nine" unicode="9" horiz-adv-x="1130" 
d="M750 678q-38 -89 -116 -139t-173 -50q-369 0 -369 398q0 192 125 323t344 131q465 0 465 -612q0 -756 -586 -756q-149 0 -247 39q-66 25 -66 70q0 64 39 221h12q55 -233 266 -233q153 0 227 153t79 455zM739 901q0 181 -41.5 266.5t-136.5 85.5q-94 0 -140 -78t-46 -262
q0 -278 172 -278q97 0 153 74q39 45 39 192z" />
    <glyph glyph-name="colon" unicode=":" horiz-adv-x="559" 
d="M459 143q0 -75 -44 -120.5t-116 -45.5q-68 0 -112 45t-44 117q0 74 44 119t116 45q69 0 112.5 -44t43.5 -116zM459 823q0 -75 -44 -120.5t-116 -45.5q-68 0 -112 45.5t-44 118.5q0 72 44 117t116 45q69 0 112.5 -44t43.5 -116z" />
    <glyph glyph-name="semicolon" unicode=";" horiz-adv-x="559" 
d="M102 -348l-8 18q195 154 195 285q0 55 -62 96q-61 43 -61 107q0 60 39.5 98.5t101.5 38.5q76 0 120 -53t44 -146q0 -133 -106 -248q-103 -117 -263 -196zM459 823q0 -75 -44 -120.5t-116 -45.5q-68 0 -112 45.5t-44 118.5q0 72 44 117t116 45q69 0 112.5 -44t43.5 -116z
" />
    <glyph glyph-name="less" unicode="&#x3c;" horiz-adv-x="1302" 
d="M1036 254v-191l-815 398v170l815 395v-182l-641 -295z" />
    <glyph glyph-name="equal" unicode="=" horiz-adv-x="1302" 
d="M182 291v166h938v-166h-938zM182 653v162h938v-162h-938z" />
    <glyph glyph-name="greater" unicode="&#x3e;" horiz-adv-x="1302" 
d="M270 838v188l811 -393v-174l-811 -396v187l637 295z" />
    <glyph glyph-name="question" unicode="?" horiz-adv-x="917" 
d="M338 451h-23q-26 98 -26 141q0 72 24 119q22 38 123 139q96 93 96 242q0 204 -165 204q-90 0 -143 -48.5t-83 -151.5h-14q-21 123 -21 172q0 58 78 86q110 35 240 35q214 0 316 -72.5t102 -216.5q0 -107 -66 -185q-70 -83 -227 -174q-104 -62 -145.5 -98.5t-51.5 -77.5
q-14 -55 -14 -114zM510 139q0 -72 -44 -117t-116 -45q-69 0 -114.5 45t-45.5 117q0 69 46 114.5t118 45.5t114 -43t42 -117z" />
    <glyph glyph-name="at" unicode="@" horiz-adv-x="1511" 
d="M1253 -20l25 -54q-232 -143 -516 -143q-301 0 -483 176q-179 176 -179 461q0 330 209 545q212 215 541 215q268 0 415.5 -141t147.5 -392q0 -212 -137 -377q-138 -166 -289 -166q-139 0 -139 121q0 85 24 156q-67 -130 -150.5 -200t-160.5 -70q-80 0 -116.5 44t-36.5 142
q0 119 63 266q64 148 160 232q95 77 250 77q156 0 272 -43q-45 -83 -127 -460q-16 -78 -16 -131q0 -54 51 -54q74 0 174 140q98 140 98 315q0 227 -127.5 353t-361.5 126q-275 0 -461 -192t-186 -502q0 -272 157 -421.5t430 -149.5q155 0 250 32q100 29 219 95zM965 762
q0 27 -37 39q-31 8 -74 8q-68 0 -121 -59q-58 -63 -108 -201q-47 -136 -47 -230q0 -83 55 -83q67 0 136 74t120 200q28 66 67 203q9 27 9 49z" />
    <glyph glyph-name="A" unicode="A" horiz-adv-x="1411" 
d="M403 12v-12h-391v12q41 9 64 29q47 33 94 154l313 847q46 123 115 324h215l109 -307l311 -852q43 -113 84 -154q23 -26 82 -41v-12h-586v12q64 12 94 35q27 21 27 55q0 38 -33 123l-84 236h-428l-82 -248q-24 -77 -24 -119q0 -27 26 -47q30 -23 94 -35zM424 565h364
l-182 545q-14 -49 -182 -545z" />
    <glyph glyph-name="B" unicode="B" horiz-adv-x="1333" 
d="M709 0h-617v12q80 25 113 58q26 33 26 163v910q0 128 -32 160q-33 33 -107 51v12h598q214 0 307 -41q185 -80 185 -278q0 -245 -283 -316q169 -13 262.5 -107t93.5 -237q0 -256 -239 -344q-122 -43 -307 -43zM532 1192v-428h58q106 0 155 22q121 53 121 240
q0 160 -86 213q-54 31 -137 31h-53q-31 0 -44.5 -17t-13.5 -61zM592 672h-60v-506q0 -60 39 -66q36 -8 119 -8q120 0 175 74t55 229q0 109 -35.5 168t-120.5 88q-58 21 -172 21z" />
    <glyph glyph-name="C" unicode="C" horiz-adv-x="1318" 
d="M1227 297h12q-3 -158 -18 -205q-12 -33 -72 -61q-131 -58 -358 -58q-345 0 -524 182t-179 529q0 345 188 527t553 182q225 0 349 -50q40 -18 53.5 -32.5t13.5 -44.5q0 -65 -41 -226h-12q-25 95 -82 158q-94 98 -272 98q-196 0 -304 -144t-108 -441q0 -308 112.5 -473.5
t342.5 -165.5q143 0 227 69q70 58 119 156z" />
    <glyph glyph-name="D" unicode="D" horiz-adv-x="1527" 
d="M705 0h-613v12q101 27 123 72q16 37 16 221v778q0 164 -20 203q-21 41 -119 68v12h633q307 0 459 -96q260 -166 260 -547q0 -351 -189 -537t-550 -186zM532 1077v-792q0 -98 9 -125q15 -39 32 -47q37 -21 117 -21q232 0 326 137t94 480q0 285 -109 430q-94 131 -309 131
q-113 0 -139 -33q-21 -21 -21 -160z" />
    <glyph glyph-name="E" unicode="E" horiz-adv-x="1177" 
d="M1049 0h-957v12q79 22 111 54q28 28 28 145v917q0 144 -26 170q-35 41 -113 56v12h924q30 0 40.5 -11t10.5 -42q0 -53 -16 -223h-13q-50 141 -123 159q-49 15 -129 15h-194q-35 0 -47.5 -13t-12.5 -49v-438h148q100 0 166 16q49 12 68 36t44 97h13v-393h-13
q-18 68 -43 95.5t-84 37.5q-53 9 -149 9h-150v-455q0 -59 20 -82t79 -23h215q120 0 170 41q45 39 100 176h12q0 -178 -10 -266q-4 -34 -17 -43.5t-52 -9.5z" />
    <glyph glyph-name="F" unicode="F" horiz-adv-x="1114" 
d="M692 12v-12h-600v12q89 21 117 66q22 36 22 188v860q0 135 -28 174q-25 32 -111 54v12h918q35 0 46 -9.5t11 -39.5q0 -57 -16 -227h-13q-24 85 -49.5 120t-64.5 43q-53 11 -127 11h-205q-35 0 -47.5 -13t-12.5 -49v-452h168q98 0 156 12q51 12 73.5 38t41.5 93h12v-385
h-12q-19 65 -46 94t-83 39q-40 6 -140 6h-170v-383q0 -157 33 -190q30 -34 127 -62z" />
    <glyph glyph-name="G" unicode="G" horiz-adv-x="1441" 
d="M1307 23q-74 -9 -86 -11q-47 -5 -107 -12t-67 -8q-97 -19 -240 -19q-349 0 -536 187t-187 532q0 336 205 518.5t579 182.5q227 0 355 -45q48 -19 66 -35t18 -49q0 -78 -41 -224h-13q-26 99 -75 154q-94 102 -295 102q-457 0 -457 -585q0 -303 106.5 -470t317.5 -167
q92 0 121 26q20 14 20 95v151q0 154 -24 191q-27 37 -109 61v12h541v-12q-63 -18 -84 -55q-23 -44 -23 -195v-145q0 -119 15 -180z" />
    <glyph glyph-name="H" unicode="H" horiz-adv-x="1585" 
d="M676 12v-12h-584v12q94 25 117 64q22 36 22 190v840q0 146 -22 188q-25 36 -117 60v12h584v-12q-95 -24 -117 -56q-27 -38 -27 -190v-342h517v340q0 158 -23 188q-28 36 -117 60v12h584v-12q-93 -24 -119 -58q-22 -28 -22 -188v-844q0 -156 24 -190q24 -38 117 -62v-12
h-584v12q97 28 117 64q23 38 23 190v396h-517v-398q0 -150 27 -190q24 -38 117 -62z" />
    <glyph glyph-name="I" unicode="I" horiz-adv-x="768" 
d="M676 12v-12h-584v12q94 25 117 64q22 36 22 190v840q0 147 -22 186q-21 38 -117 62v12h584v-12q-95 -24 -117 -56q-27 -34 -27 -190v-844q0 -150 27 -190q24 -38 117 -62z" />
    <glyph glyph-name="J" unicode="J" horiz-adv-x="796" 
d="M16 -55h13q44 -170 155 -170q67 0 88 49q31 73 31 371v913q0 146 -24 180q-31 42 -123 66v12h585v-12q-87 -21 -112 -56q-25 -39 -25 -190q0 -219 2 -422q4 -406 4 -453q0 -151 -16 -234t-59 -149q-111 -172 -340 -172q-105 0 -160 19q-47 15 -47 55q0 81 28 193z" />
    <glyph glyph-name="K" unicode="K" horiz-adv-x="1486" 
d="M676 12v-12h-584v12q85 21 117 64q22 39 22 190v840q0 146 -22 188q-22 36 -117 60v12h584v-12q-95 -24 -117 -56q-27 -38 -27 -190v-428q139 133 379 414q95 109 95 172q0 53 -121 88v12h497v-12q-64 -20 -118 -60.5t-131 -124.5l-295 -315l225 -367q162 -253 301 -389
q39 -39 125 -78v-12q-88 -14 -348 -14q-114 0 -183 96q-60 87 -335 561l-43 -41l-48 -49v-303q0 -140 27 -184q21 -38 117 -62z" />
    <glyph glyph-name="L" unicode="L" horiz-adv-x="1173" 
d="M1055 0h-963v12q54 17 109 56q30 21 30 143v895q0 150 -24 188q-22 36 -115 60v12h594v-12q-99 -27 -123 -54q-20 -23 -25.5 -58.5t-5.5 -133.5v-903q0 -59 19.5 -81t79.5 -22h207q129 0 176 41q43 37 102 176h12q0 -30 -2 -69q-2 -88 -8 -182q-4 -44 -15.5 -56
t-47.5 -12z" />
    <glyph glyph-name="M" unicode="M" horiz-adv-x="1832" 
d="M483 12v-12h-397v12q87 27 115 68q24 41 30 188l29 840q1 20 2 43.5t1.5 36t0.5 18.5q0 53 -18 80q-27 44 -119 68v12h405q44 0 61.5 -8.5t27.5 -38.5q238 -665 303 -883q68 225 307 875q11 32 24.5 43.5t47.5 11.5h421v-12q-88 -21 -116 -49q-29 -29 -29 -115
q0 -91 23 -1036q3 -79 55 -113q37 -19 80 -29v-12h-580v12q80 19 107 43q34 27 34 133q0 243 -10 986q-38 -126 -389 -1117h-141l-387 1121l-9 -336q-2 -172 -10 -391q-1 -49 -2 -96t-1.5 -71t-0.5 -30q0 -143 23 -176q29 -45 112 -66z" />
    <glyph glyph-name="N" unicode="N" horiz-adv-x="1503" 
d="M506 12v-12h-422v12q90 24 117 62q30 34 30 190v410q2 162 2 370q0 206 -22 242q-27 40 -121 68v12h434q45 0 80 -53q492 -724 574 -860q-3 392 -11 665q-3 134 -28 170q-31 45 -115 66v12h410v-12q-86 -24 -113 -62q-31 -42 -31 -188v-1118h-170q-744 1124 -778 1181
q0 -25 0.5 -71t1.5 -131.5t2 -153.5q4 -181 8 -547q0 -141 35 -188q34 -37 117 -64z" />
    <glyph glyph-name="O" unicode="O" horiz-adv-x="1503" 
d="M1415 702q0 -350 -176.5 -539.5t-497.5 -189.5q-314 0 -483.5 174.5t-169.5 518.5q0 357 191 542t489 185q319 0 483 -176t164 -515zM1087 676q0 150 -16 260.5t-43.5 179t-69.5 110t-88.5 57t-107.5 15.5q-336 0 -336 -606q0 -344 80 -483q83 -139 246 -139
q173 0 254 142.5t81 463.5z" />
    <glyph glyph-name="P" unicode="P" horiz-adv-x="1306" 
d="M682 12v-12h-590v12q97 25 117 64q22 42 22 192v848q0 147 -22 178q-28 36 -117 60v12h508q212 0 315 -20q312 -59 312 -355q0 -148 -86 -243q-83 -90 -202.5 -128t-283.5 -38q-69 0 -123 4v-328q0 -157 27 -184q27 -35 123 -62zM532 1188v-506q27 -2 95 -2
q141 0 206.5 75t65.5 226q0 208 -113 260q-63 29 -149 29h-43q-36 0 -49 -18.5t-13 -63.5z" />
    <glyph glyph-name="Q" unicode="Q" horiz-adv-x="1503" 
d="M1415 702q0 -270 -108 -447t-312 -245q164 -108 277 -153q107 -43 221 -43q65 0 84 8l4 -10q-192 -168 -330 -168q-131 0 -252 65t-401 275q-248 37 -379 208.5t-131 473.5q0 357 191 542t489 185q319 0 483 -176t164 -515zM1087 676q0 150 -16 260.5t-43.5 179
t-69.5 110t-88.5 57t-107.5 15.5q-336 0 -336 -606q0 -344 80 -483q83 -139 246 -139q173 0 254 142.5t81 463.5z" />
    <glyph glyph-name="R" unicode="R" horiz-adv-x="1460" 
d="M682 12v-12h-590v12q85 21 117 64q22 39 22 190v840q0 152 -22 188q-20 32 -117 60v12h506q193 0 307 -18q154 -27 230.5 -112t76.5 -237q0 -128 -76.5 -217t-203.5 -129q51 -28 106 -112q29 -39 58 -88l75 -125l89 -142q50 -80 90.5 -118t91.5 -50v-10
q-154 -16 -234 -16q-145 0 -196 39q-65 50 -135 196l-154 308q-35 59 -115 59h-76v-336q0 -150 27 -184q30 -35 123 -62zM532 1196v-502h68q126 0 191 47q92 71 92 238q0 210 -113 262q-72 29 -145 29h-33q-36 0 -48 -15.5t-12 -58.5z" />
    <glyph glyph-name="S" unicode="S" horiz-adv-x="1093" 
d="M106 360h11q39 -112 119 -186q113 -104 276 -104q124 0 190 53t66 137q0 82 -53 135q-61 61 -226 144l-104 55q-154 79 -219.5 174t-65.5 219q0 176 131 289q132 117 402 117q167 0 262 -33q43 -14 58.5 -31t15.5 -53q0 -69 -41 -221h-10q-37 113 -93 166q-77 77 -219 77
q-138 0 -203 -53.5t-65 -138.5q0 -69 49 -127q50 -59 215 -141l96 -47q170 -85 243 -177.5t73 -216.5q0 -195 -138.5 -309.5t-392.5 -114.5q-217 0 -336 70q-65 38 -65 90q0 89 24 227z" />
    <glyph glyph-name="T" unicode="T" horiz-adv-x="1255" 
d="M924 12v-12h-586v12q95 24 119 64q22 28 22 190v938q0 36 -11.5 49t-45.5 13h-60q-112 0 -155 -19q-72 -31 -139 -198h-13q-10 160 -10 266q0 31 8 41t37 10h1077q30 0 38.5 -8.5t8.5 -38.5q0 -88 -10 -270h-12q-35 98 -65 141t-72 57q-49 19 -160 19h-57
q-35 0 -47.5 -13t-12.5 -49v-938q0 -148 29 -192q27 -41 117 -62z" />
    <glyph glyph-name="U" unicode="U" horiz-adv-x="1472" 
d="M74 1354v12h583v-12q-90 -21 -118 -60q-25 -36 -25 -141v-664q0 -161 29 -243q59 -160 288 -160q163 0 244 96q72 90 72 297v658q0 82 -11.5 117t-39.5 57q-46 32 -92 43v12h401v-12q-46 -11 -84 -41q-55 -40 -55 -176v-621q0 -251 -80 -360q-130 -183 -441 -183
q-369 0 -477 205q-55 107 -55 342v621q0 131 -33 164q-28 31 -106 49z" />
    <glyph glyph-name="V" unicode="V" horiz-adv-x="1398" 
d="M922 322l-115 -322h-211q-76 236 -102 303l-318 854q-45 119 -82 156q-26 26 -82 41v12h584v-12q-63 -15 -92 -37q-27 -18 -27 -51q0 -40 27 -119q256 -718 301 -873q78 243 285 875q22 71 22 113q0 32 -27 53q-37 27 -84 39v12h385v-12q-62 -17 -86 -41
q-34 -27 -75 -142z" />
    <glyph glyph-name="W" unicode="W" horiz-adv-x="1964" 
d="M674 0h-211l-78 313l-221 867q-27 108 -74 143q-20 16 -65 31v12h563v-12q-59 -16 -80 -29q-37 -21 -37 -63q0 -46 14 -101q158 -650 191 -821q43 174 285 993h217q257 -802 305 -995l178 799q16 78 16 108q0 53 -53 80q-38 20 -74 29v12h389v-12l-61 -27
q-50 -27 -80 -143l-221 -879l-76 -305h-211q-295 1008 -307 1053q-46 -193 -309 -1053z" />
    <glyph glyph-name="X" unicode="X" horiz-adv-x="1464" 
d="M436 12v-12h-418v12q44 9 68 27q59 35 119 115l370 505l-350 545q-56 87 -90 113q-37 29 -78 37v12h598v-12q-34 -7 -77 -29q-23 -13 -23 -37q0 -31 39 -90q211 -325 217 -336l213 316q49 73 49 106q0 26 -24 41q-33 18 -80 29v12h395v-12q-47 -15 -64 -29
q-42 -25 -112 -119l-320 -428l402 -624q60 -92 106 -115q10 -4 34.5 -14t35.5 -13v-12h-625v12q39 9 74 27q29 16 29 43q0 33 -33 86q-215 344 -252 399l-41 -59l-104 -150l-134 -194q-35 -49 -35 -77t33 -46q31 -16 78 -29z" />
    <glyph glyph-name="Y" unicode="Y" horiz-adv-x="1353" 
d="M973 12v-12h-584v12q88 21 117 64q22 39 22 182v348l-364 604q-47 78 -90 115q-32 26 -60 29v12h586v-12q-56 -12 -80 -27q-24 -18 -24 -39q0 -34 32 -88q200 -340 258 -444l39 69q89 151 205 353q37 61 37 102q0 25 -27 43q-43 24 -69 31v12h368v-12q-29 -7 -69 -39
q-38 -38 -84 -109l-355 -565v-383q0 -157 27 -184q27 -34 115 -62z" />
    <glyph glyph-name="Z" unicode="Z" horiz-adv-x="1284" 
d="M1157 0h-1134v14l772 1256q-295 -2 -461 -8q-116 -3 -154 -62q-28 -42 -55 -133h-12q-19 146 -19 248q0 30 8.5 40.5t34.5 10.5h1053v-16l-762 -1248q294 0 520 4q124 3 168 50q32 35 94 149h13q0 -152 -13 -266q-3 -39 -53 -39z" />
    <glyph glyph-name="bracketleft" unicode="[" horiz-adv-x="647" 
d="M604 -219v-12h-403v1677h403v-12q-142 -34 -170 -70q-20 -29 -20 -115v-1284q0 -86 20 -115q20 -28 170 -69z" />
    <glyph glyph-name="backslash" unicode="\" horiz-adv-x="870" 
d="M145 1505l701 -1620l-98 -41l-699 1622z" />
    <glyph glyph-name="bracketright" unicode="]" horiz-adv-x="647" 
d="M43 1434v12h406v-1677h-406v12q152 41 172 74q18 27 18 110v1284q0 82 -18 109q-25 35 -172 76z" />
    <glyph glyph-name="asciicircum" unicode="^" horiz-adv-x="1302" 
d="M741 1333l301 -669h-172l-215 489l-221 -491h-174l315 671h166z" />
    <glyph glyph-name="underscore" unicode="_" horiz-adv-x="1067" 
d="M0 -270v112h1067v-112h-1067z" />
    <glyph glyph-name="grave" unicode="`" horiz-adv-x="425" 
d="M242 1462l159 -325l-8 -7l-297 226q-71 53 -71 104q0 43 30 69.5t74 26.5q70 0 113 -94z" />
    <glyph glyph-name="a" unicode="a" horiz-adv-x="1067" 
d="M639 147q-30 -77 -101.5 -124.5t-168.5 -47.5q-141 0 -223.5 77t-82.5 202q0 176 195 229q139 37 262 54q76 12 88 24q13 16 13 55v62q0 104 -39 143q-45 45 -160 45q-91 0 -163 -25t-105 -67l-7 2q-6 21 -6 41q0 84 104 144.5t285 60.5q184 0 276.5 -75t92.5 -242
q0 -97 -2 -222v-274q0 -76 20.5 -103.5t67.5 -27.5q40 0 64 6l4 -8q-38 -41 -103 -68.5t-125 -27.5q-171 0 -186 167zM621 240v241q-18 -9 -64 -18q-113 -25 -160 -51q-59 -41 -59 -133q0 -79 40 -122.5t105 -43.5q88 0 125 61q13 16 13 66z" />
    <glyph glyph-name="b" unicode="b" horiz-adv-x="1198" 
d="M156 -51l-17 4q6 73 6 305v901q0 121 -12 156q-21 59 -106 80v10q149 41 346 41q29 0 40 -12.5t11 -44.5q0 -328 -8 -576q32 93 116.5 151t198.5 58q389 0 389 -504q0 -257 -129 -397.5t-354 -140.5q-114 0 -209 32q-131 45 -156 45q-63 0 -116 -108zM420 645v-399
q0 -77 18 -107q40 -63 164 -63q225 0 225 375q0 231 -51.5 327t-159.5 96q-88 0 -141 -47q-30 -30 -43 -65q-12 -40 -12 -117z" />
    <glyph glyph-name="c" unicode="c" horiz-adv-x="964" 
d="M913 205l7 -2v-10q0 -22 -19 -58q-85 -162 -348 -162q-225 0 -352 131.5t-127 378.5q0 259 146.5 399t397.5 140q143 0 216 -33q55 -24 55 -67q0 -65 -31 -195h-12q-38 95 -90 147q-57 54 -138 54q-247 0 -247 -406q0 -401 293 -401q136 0 249 84z" />
    <glyph glyph-name="d" unicode="d" horiz-adv-x="1245" 
d="M793 184q-27 -98 -107 -153.5t-203 -55.5q-194 0 -301.5 127.5t-107.5 376.5q0 265 139 404q142 139 360 139q145 0 207 -45v186q0 103 -12 150q-21 61 -109 82v10q172 41 349 41q51 0 51 -55q0 -9 -0.5 -45.5t-1.5 -110t-2 -150.5q-2 -180 -2 -321v-543q0 -143 102 -143
q27 0 57 6l7 -10q-37 -38 -107 -65t-133 -27q-90 0 -137.5 47.5t-48.5 154.5zM780 336v399q0 63 -8 94q-7 30 -27 50q-46 49 -137 49q-124 0 -180.5 -102.5t-56.5 -319.5q0 -207 55.5 -298t163.5 -91q84 0 135 45q33 29 49 90q6 34 6 84z" />
    <glyph glyph-name="e" unicode="e" horiz-adv-x="1042" 
d="M371 614h327q4 32 4 70q0 142 -33 196t-110 54q-176 0 -188 -320zM905 524h-538v-20q0 -383 309 -383q150 0 287 96l8 -2v-12q0 -20 -10 -47q-32 -75 -133 -129t-242 -54q-512 0 -512 514q0 247 139 392q137 143 369 143q194 0 295.5 -101t101.5 -282q0 -78 -12 -96
q-9 -19 -62 -19z" />
    <glyph glyph-name="f" unicode="f" horiz-adv-x="677" 
d="M606 10v-10h-545v10q66 25 91 60q24 38 24 178v635h-135v51q79 31 109 74q29 43 40 120q31 174 131.5 246t288.5 72q88 0 144 -21q30 -11 39.5 -22t9.5 -35q0 -52 -35 -180h-12q-21 71 -78 131q-34 37 -96 37q-74 0 -109 -53q-27 -47 -27 -199q0 -13 1.5 -57t1.5 -52h196
v-112h-196v-619q0 -154 20 -180q20 -34 137 -74z" />
    <glyph glyph-name="g" unicode="g" horiz-adv-x="1030" 
d="M309 365q-117 24 -183.5 108t-66.5 199q0 162 111.5 256t318.5 94q142 0 234 -47q202 15 276 72l11 -3q-5 -94 -20.5 -127.5t-61.5 -33.5q-28 0 -103 10q60 -82 60 -201q0 -162 -112.5 -253t-305.5 -91q-4 0 -36 2t-42 2q-31 0 -45 -14q-18 -18 -18 -45q0 -39 59 -51
l115 -23q161 -25 280 -59q124 -34 175 -94.5t51 -161.5q0 -165 -146.5 -264t-398.5 -99q-220 0 -336.5 64.5t-116.5 181.5q0 169 285 221q-141 44 -141 154q0 132 157 203zM377 -16q-60 0 -129 -60q-45 -45 -45 -123q0 -76 80 -123q83 -47 186 -47q146 0 216.5 46t70.5 124
q0 79 -97 117q-183 66 -282 66zM610 684q0 138 -31 192t-100 54q-145 0 -145 -246q0 -141 33 -196.5t104 -55.5t105 55.5t34 196.5z" />
    <glyph glyph-name="h" unicode="h" horiz-adv-x="1241" 
d="M561 10v-10h-510v10q71 27 94 66q21 40 21 151v930q0 119 -14 154q-26 62 -105 84v10q146 41 348 41q29 0 39 -13.5t10 -54.5q0 -104 -2 -233l-4 -328q39 88 135.5 146.5t208.5 58.5q213 0 271 -162q18 -52 18 -235v-369q0 -154 33 -193q36 -36 92 -53v-10h-508v10
q74 29 90 66q21 40 21 184v309q0 122 -8.5 172.5t-36.5 75.5q-43 43 -121 43q-81 0 -139 -37q-36 -22 -45 -57q-11 -33 -11 -94v-436q0 -138 23 -168q30 -38 100 -58z" />
    <glyph glyph-name="i" unicode="i" horiz-adv-x="614" 
d="M569 10v-10h-510v10q79 28 93 66q20 39 20 133v528q0 144 -29 176q-28 32 -90 45v13q40 10 156 26q111 15 186 15q21 0 33 -4t17.5 -14.5t6.5 -19.5t1 -26q0 -7 -0.5 -27.5l-1.5 -61.5t-2 -81q-3 -144 -3 -176v-393q0 -95 21 -135q21 -37 102 -64zM440 1298
q0 -68 -40 -108.5t-107 -40.5q-62 0 -103 41t-41 106.5t41 106.5q40 43 107 43q65 0 104 -40.5t39 -107.5z" />
    <glyph glyph-name="j" unicode="j" horiz-adv-x="604" 
d="M-74 -236h15q24 -135 129 -135q54 0 75 47q27 65 27 367v688q0 149 -33 182q-43 37 -86 45v13q36 10 158 26q114 15 184 15q34 0 46 -16t12 -50q0 -1 -0.5 -19t-1.5 -56.5t-2 -82.5q-3 -150 -3 -186v-248q3 -163 3 -239q0 -168 -15 -260.5t-53 -153.5
q-106 -160 -311 -160q-94 0 -140 21q-32 14 -32 51q0 59 28 151zM444 1303q0 -69 -41 -111.5t-110 -42.5q-63 0 -107 41q-41 43 -41 110.5t41 110.5q43 43 111 43q67 0 107 -41.5t40 -109.5z" />
    <glyph glyph-name="k" unicode="k" horiz-adv-x="1208" 
d="M561 10v-10h-512v10q78 35 94 66q21 34 21 133v958q0 149 -29 181q-36 36 -90 47v10q47 15 150 27q101 14 188 14q38 0 50.5 -13.5t12.5 -56.5v-12.5t-0.5 -34.5t-1 -53t-1 -76t-1.5 -96q-1 -75 -2 -148l-1.5 -109.5t-0.5 -47.5v-279q145 128 242 242q82 91 82 141
q0 55 -107 82v10h451v-10q-67 -22 -109 -53q-54 -40 -123 -109l-178 -174l64 -100q56 -81 80 -123l75 -113q87 -125 177 -221q50 -50 114 -69v-9q-145 -22 -286 -22q-112 0 -162 71q-135 190 -258 416l-62 -55v-205q0 -121 25 -149q25 -32 98 -60z" />
    <glyph glyph-name="l" unicode="l" horiz-adv-x="606" 
d="M561 10v-10h-512v10q79 31 94 66q21 40 21 149v938q0 112 -10 150q-22 61 -109 82v10q178 41 352 41q29 0 39 -13.5t10 -50.5q0 -10 -0.5 -42t-1.5 -94.5t-2 -125.5q-1 -64 -2 -124.5t-1.5 -90.5t-0.5 -37v-632q0 -138 23 -168q30 -38 100 -58z" />
    <glyph glyph-name="m" unicode="m" horiz-adv-x="1853" 
d="M569 10v-10h-510v10q78 30 93 66q20 39 20 133v524q0 146 -31 182q-34 34 -88 46v10q127 39 328 39q57 0 63 -43q5 -40 5 -150q37 94 128.5 149.5t215.5 55.5q113 0 181.5 -59t78.5 -168q33 98 128.5 162.5t215.5 64.5q209 0 268 -164q21 -64 21 -229v-400
q0 -125 32 -168q22 -28 90 -51v-10h-508v10q70 25 91 62q20 33 20 166v313q0 219 -35 266q-34 43 -123 43q-78 0 -125 -35q-32 -22 -47 -57q-12 -34 -12 -100v-428q0 -159 31 -187q28 -25 92 -43v-10h-512v10q72 26 94 66q21 30 21 162v313q0 220 -37 266q-37 43 -117 43
q-88 0 -139 -39q-36 -29 -45 -57q-11 -33 -11 -94v-434q0 -142 25 -170q30 -35 98 -56z" />
    <glyph glyph-name="n" unicode="n" horiz-adv-x="1249" 
d="M569 10v-10h-510v10q78 27 93 66q20 39 20 131v526q0 152 -31 180q-33 33 -88 48v10q127 39 324 39q64 0 67 -45q5 -57 5 -150q37 91 132.5 149t211.5 58q224 0 270 -168q18 -70 18 -227v-404q0 -131 33 -164q23 -26 90 -49v-10h-508v10q73 27 88 62q21 35 21 149v344
q0 123 -8.5 175.5t-32.5 76.5q-43 43 -125 43q-74 0 -133 -35q-41 -27 -49 -59q-11 -37 -11 -94v-457q0 -109 23 -147q29 -32 100 -58z" />
    <glyph glyph-name="o" unicode="o" horiz-adv-x="1185" 
d="M1114 510q0 -255 -138.5 -396t-381.5 -141q-241 0 -380.5 131t-139.5 383q0 263 153 398q152 137 385 137q246 0 374 -130t128 -382zM817 494q0 255 -55 346q-56 92 -162 92q-229 0 -229 -428q0 -249 59 -344q60 -97 168 -97q110 0 164.5 99.5t54.5 331.5z" />
    <glyph glyph-name="p" unicode="p" horiz-adv-x="1187" 
d="M575 -440v-11h-544v11q72 30 94 65q20 33 20 129v977q0 152 -32 184q-31 31 -86 46v10q133 39 311 39q64 0 76 -45q6 -27 6 -146q31 92 119.5 147.5t201.5 55.5q379 0 379 -502q0 -252 -139 -391q-138 -135 -358 -135q-144 0 -203 35v-273q0 -96 20 -129q22 -32 135 -67z
M420 659v-391q0 -70 18 -108q38 -68 164 -68q223 0 223 365q0 227 -50 322t-159 95q-94 0 -147 -53q-27 -27 -37 -57q-12 -34 -12 -105z" />
    <glyph glyph-name="q" unicode="q" horiz-adv-x="1232" 
d="M1169 -440v-11h-546v11q108 38 133 69q24 27 24 129v422q-76 -184 -311 -184q-182 0 -288.5 131t-106.5 362q0 256 135 394q139 139 348 139q124 0 219 -33q121 -47 156 -47q68 0 115 109l16 -2q-6 -74 -6 -336v-955q0 -103 18 -133q15 -30 94 -65zM780 383v356
q0 95 -30 135q-49 52 -148 52q-231 0 -231 -385q0 -406 219 -406q95 0 147 55q30 38 35 70q5 27 8 123z" />
    <glyph glyph-name="r" unicode="r" horiz-adv-x="882" 
d="M604 10v-10h-545v10q76 31 93 64q20 29 20 139v516q0 145 -31 184q-28 36 -88 48v10q127 39 328 39q52 0 61 -41q4 -36 4 -176q29 103 105 166t172 63q47 0 88 -12q41 -15 41 -64q0 -70 -37 -203h-14q-46 107 -162 107q-61 0 -109.5 -32.5t-68.5 -88.5q-15 -43 -15 -119
v-395q0 -116 27 -143q25 -28 131 -62z" />
    <glyph glyph-name="s" unicode="s" horiz-adv-x="886" 
d="M109 303h14q43 -121 127 -184q74 -53 178 -53q73 0 116.5 33t43.5 89q0 58 -39 91q-38 38 -154 96l-82 41q-209 108 -209 286q0 45 10.5 86.5t39.5 85t74.5 75.5t121.5 52.5t174 20.5q109 0 201 -29q57 -20 57 -63q0 -61 -37 -191h-14q-27 98 -82.5 144.5t-152.5 46.5
q-174 0 -174 -123q0 -51 36 -87t138 -87l71 -37q142 -72 195 -141q53 -65 53 -172q0 -35 -9.5 -72.5t-36.5 -81.5t-69.5 -77.5t-116 -56t-167.5 -22.5q-145 0 -240 39q-49 20 -66.5 44t-17.5 67q0 100 17 180z" />
    <glyph glyph-name="t" unicode="t" horiz-adv-x="694" 
d="M698 123l7 -8q-108 -135 -293 -135q-204 0 -228 163q-8 60 -8 168v572h-133v57q82 25 139 51q60 28 127 103.5t115 185.5h29v-285h192v-112h-192v-576q0 -81 4 -121q8 -50 31.5 -71t76.5 -21q67 0 133 29z" />
    <glyph glyph-name="u" unicode="u" horiz-adv-x="1234" 
d="M797 168q-46 -95 -131 -145t-187 -50q-242 0 -303 168q-24 67 -24 211v367q0 148 -15 178q-19 45 -104 72v14q132 27 329 27q45 0 58.5 -10t13.5 -46q0 -2 -0.5 -18t-1.5 -49t-2 -70q-4 -168 -4 -203v-211q0 -183 49 -229q39 -39 125 -39q85 0 131 43q33 30 41 60
q12 40 12 149v320q0 151 -18 186q-16 29 -38 44.5t-62 31.5v14q138 27 342 27q36 0 47.5 -10t11.5 -44q0 -1 -0.5 -18t-1.5 -54.5t-2 -80.5q-4 -196 -4 -223v-353q0 -149 98 -149q36 0 60 4l4 -8q-36 -38 -106 -65t-136 -27q-173 0 -182 186z" />
    <glyph glyph-name="v" unicode="v" horiz-adv-x="1167" 
d="M680 0h-199q-81 229 -340 829q-41 99 -75 129q-15 15 -50 27v10h537v-10l-43 -16q-34 -11 -51 -21q-29 -19 -29 -43q0 -31 21 -84q171 -452 221 -600q11 34 213 594q20 53 20 84t-37 49q-62 28 -88 37v10h371v-10q-31 -11 -51 -24q-42 -24 -88 -132q-274 -672 -332 -829z
" />
    <glyph glyph-name="w" unicode="w" horiz-adv-x="1636" 
d="M582 0h-201q-23 96 -236 831q-26 95 -69 132q-4 4 -13.5 8t-19.5 8.5t-12 5.5v10h530v-10q-54 -14 -80 -31q-41 -19 -45 -65.5t17 -110.5q87 -347 120 -518q56 175 230 692h194q211 -614 230 -692q20 91 22 98q29 100 113 437q16 75 16 100q0 36 -37 57q-29 18 -75 33v10
h342v-10q-56 -26 -80 -53q-20 -23 -45 -111l-228 -821h-198q-195 589 -232 727q-78 -245 -243 -727z" />
    <glyph glyph-name="x" unicode="x" horiz-adv-x="1193" 
d="M389 10v-10h-373v10q31 6 52 21q7 3 13.5 7.5t11.5 8t12 10.5l12 12t14.5 16t15 18t19 23.5l22.5 27.5l273 329l-246 353q-63 93 -98 120q-29 22 -51 29v10h557v-10q-57 -14 -88 -31q-19 -13 -19 -34q0 -31 41 -93l125 -180l133 187q37 52 37 84q0 22 -18 34
q-25 20 -70 33v10h362v-10q-23 -8 -55 -29q-39 -24 -117 -120l-215 -263l287 -419q65 -97 104 -121q9 -6 50 -23v-10h-543v10q41 6 68 27q18 9 18 35q0 31 -39 90l-164 241l-192 -249q-39 -53 -39 -82q0 -21 28 -37q30 -14 72 -25z" />
    <glyph glyph-name="y" unicode="y" horiz-adv-x="1169" 
d="M176 -231h14q31 -97 117 -97q74 0 127 62q73 98 133 266h-78q-70 182 -346 829q-46 101 -75 127q-24 18 -52 29v10h535v-10q-47 -14 -90 -37q-29 -19 -29 -45q0 -35 21 -88q179 -466 219 -592l215 586q18 53 18 90q0 28 -26 45q-59 30 -95 41v10h369v-10q-30 -9 -51 -24
q-48 -36 -94 -148l-322 -811q-113 -292 -188 -389q-88 -111 -224 -111q-50 0 -88 15q-41 15 -41 63q0 68 31 189z" />
    <glyph glyph-name="z" unicode="z" horiz-adv-x="1034" 
d="M913 0h-882v20q554 838 592 889q-202 0 -312 -4q-103 -3 -131 -63q-25 -50 -47 -131h-14q-23 108 -23 225q0 36 10.5 47.5t43.5 11.5h825v-20l-596 -883q115 0 315 4q147 3 187 37q42 36 100 170h14q0 -126 -10 -256q-1 -26 -17.5 -36.5t-54.5 -10.5z" />
    <glyph glyph-name="braceleft" unicode="{" horiz-adv-x="696" 
d="M645 -223v-15q-222 0 -325 69t-103 235v215q0 152 -49 230.5t-170 84.5v16q136 9 174 84q39 74 39 246v178q0 330 434 330v-14q-123 -15 -170 -86q-43 -70 -43 -236v-223q0 -127 -62 -193t-202 -92q135 -24 200.5 -94t65.5 -199v-217q0 -151 47.5 -226t163.5 -93z" />
    <glyph glyph-name="bar" unicode="|" horiz-adv-x="593" 
d="M389 1475v-1741h-182v1741h182z" />
    <glyph glyph-name="braceright" unicode="}" horiz-adv-x="696" 
d="M72 1436v14q222 0 325 -68.5t103 -234.5v-215q0 -152 49 -231t170 -85v-16q-111 -8 -162 -63q-24 -27 -35 -70q-16 -67 -16 -197v-176q0 -332 -434 -332v15q124 15 168 86q43 70 43 237v222q0 126 62.5 191.5t203.5 92.5q-137 24 -202.5 94t-65.5 199v217
q0 152 -46.5 227t-162.5 93z" />
    <glyph glyph-name="asciitilde" unicode="~" horiz-adv-x="1302" 
d="M244 406l-115 108q153 199 313 199q46 0 99 -17q51 -17 149 -71q115 -62 162 -62q99 0 203 137l119 -106q-141 -199 -318 -199q-91 0 -203 62q-143 82 -207 82q-107 0 -202 -133z" />
    <glyph glyph-name="exclamdown" unicode="&#xa1;" horiz-adv-x="561" 
d="M240 602h20q25 -146 64 -307q35 -149 47 -202t24.5 -125.5t12.5 -112.5q0 -183 -162 -183t-162 176q0 55 22 168q7 37 64 279q42 165 70 307zM90 918q0 73 45 118t117 45q68 0 113 -44t45 -115q0 -73 -45 -117.5t-117 -44.5q-71 0 -114.5 44t-43.5 114z" />
    <glyph glyph-name="cent" unicode="&#xa2;" horiz-adv-x="1085" 
d="M715 0v-193h-84v187q-232 5 -361 135.5t-129 374.5q0 243 132.5 387t357.5 162v190h84v-188q114 -3 184 -31q55 -21 55 -72q0 -78 -34 -190h-19q-23 102 -74 153q-46 46 -112 52v-826h24q115 0 234 84l10 -4v-8q0 -25 -18 -55q-87 -137 -250 -158zM442 541
q0 -329 189 -385v807q-189 -44 -189 -422z" />
    <glyph glyph-name="sterling" unicode="&#xa3;" horiz-adv-x="1228" 
d="M922 696v-116h-246v-27q0 -200 -303 -322q70 6 618 23q82 3 115 45q30 38 49 86h16q0 -50 -8 -162q-10 -135 -14 -160q-6 -39 -27.5 -51t-89.5 -12h-944v162q59 8 115 37q176 86 176 309q0 32 -6 72h-195v116h180q-24 170 -24 217q0 211 119 320.5t381 109.5
q145 0 243 -28q58 -18 58 -74q0 -83 -33 -221h-17q-43 134 -90.5 183.5t-134.5 49.5q-105 0 -155 -73.5t-50 -237.5q0 -28 15 -246h252z" />
    <glyph glyph-name="currency" unicode="&#xa4;" horiz-adv-x="1210" 
d="M1077 285l-123 -125l-120 121q-88 -70 -226 -70t-229 70l-119 -119l-121 121l125 120q-71 95 -71 226q0 127 69 227l-125 121l125 125l119 -121q100 69 228 69t227 -71l120 121l119 -121l-121 -119q70 -85 70 -231q0 -138 -70 -223zM868 629q0 121 -75 196
q-74 80 -185 80q-112 0 -186 -77.5t-74 -194.5q0 -122 72.5 -200.5t187.5 -78.5q112 0 186 79t74 196z" />
    <glyph glyph-name="yen" unicode="&#xa5;" horiz-adv-x="1347" 
d="M1120 457v-86h-299v-117q0 -140 27 -180q24 -35 110 -62v-12h-563v12q79 21 113 64q22 31 22 186v109h-303v86h303v118l-45 72h-258v84h207l-231 375q-57 91 -86 111q-28 22 -60 28v15h568v-15q-49 -13 -76 -26q-25 -9 -25 -35q0 -24 39 -86q153 -267 217 -387l205 366
q39 65 39 103q0 27 -33 41q-26 14 -63 24v15h362v-11q-55 -16 -84 -49q-29 -29 -71 -96l-228 -373h213v-84h-264l-35 -57v-133h299z" />
    <glyph glyph-name="brokenbar" unicode="&#xa6;" horiz-adv-x="600" 
d="M395 1382v-643h-198v643h198zM395 477v-639h-198v639h198z" />
    <glyph glyph-name="section" unicode="&#xa7;" horiz-adv-x="1054" 
d="M156 -6h12q18 -112 106 -182t197 -70q193 0 193 139q0 55 -30.5 96t-121.5 107l-254 182q-178 129 -178 297q0 106 74 178t194 78q-172 111 -172 287q0 114 88 215q48 54 137 84q85 33 213 33q122 0 215 -35q66 -28 66 -80q0 -93 -37 -211h-12q-64 234 -258 234
q-97 0 -142 -42t-45 -106q0 -54 37 -94q34 -37 146 -113l141 -98q153 -106 201 -168q55 -67 55 -172q0 -102 -76.5 -178.5t-193.5 -83.5q184 -135 184 -299q0 -125 -82 -228q-45 -58 -135.5 -90t-216.5 -32q-78 0 -161.5 20t-125.5 47q-53 35 -53 86q0 83 35 199zM391 520
l176 -125q46 -37 88 -37q33 0 60 21q43 34 43 90q0 34 -23 65t-88 76l-147 103q-58 43 -92 43q-46 0 -74 -31q-33 -36 -33 -82q0 -57 90 -123z" />
    <glyph glyph-name="dieresis" unicode="&#xa8;" horiz-adv-x="430" 
d="M150 1286q0 -56 -33.5 -90.5t-87.5 -34.5q-51 0 -85 35t-34 90q0 54 34.5 87.5t88.5 33.5t85.5 -33.5t31.5 -87.5zM520 1286q0 -56 -33.5 -90.5t-87.5 -34.5q-51 0 -84.5 35t-33.5 90q0 54 33 87.5t87 33.5t86.5 -33.5t32.5 -87.5z" />
    <glyph glyph-name="copyright" unicode="&#xa9;" horiz-adv-x="1679" 
d="M838 -29q-300 0 -500 203q-199 205 -199 508t199 508q201 207 498 207q302 0 501 -205q203 -206 203 -510t-201 -508q-200 -203 -501 -203zM1479 682q0 281 -185 469q-182 188 -458 188q-269 0 -451 -188q-180 -186 -180 -469q0 -281 180 -467t453 -186q278 0 458 186
q183 189 183 467zM1149 440h14q0 -74 -14 -137q-6 -32 -43 -47q-87 -35 -223 -35q-223 0 -338 113t-115 334t124.5 344t350.5 123q139 0 221 -33q43 -18 43 -58q0 -41 -22 -145h-14q-32 95 -58 121q-58 49 -162 49q-126 0 -197 -94t-71 -285q0 -188 73 -293.5t208 -105.5
q96 0 149 41q32 25 74 108z" />
    <glyph glyph-name="ordfeminine" unicode="&#xaa;" horiz-adv-x="686" 
d="M408 625q-46 -107 -177 -107q-86 0 -136 46t-50 120q0 111 119 141q97 23 174 33q44 6 53 21q6 12 6 28v29q0 59 -24 80q-26 26 -88 26q-117 0 -176 -53l-7 2q-2 6 -2 27q0 48 68 87.5t180 39.5q230 0 230 -207q0 -22 -3 -117v-149q0 -84 62 -84q19 0 35 4l4 -8
q-59 -62 -144 -62q-112 0 -124 103zM397 713v102q-1 -1 -6 -2t-17 -3.5t-22 -4.5q-67 -14 -94 -31q-33 -20 -33 -72q0 -88 84 -88q63 0 82 48q6 15 6 51z" />
    <glyph glyph-name="guillemotleft" unicode="&#xab;" horiz-adv-x="905" 
d="M86 559l358 361l13 -9l-189 -401l185 -420l-13 -6l-352 358q-32 32 -32.5 59t30.5 58zM461 559l358 361l12 -9l-188 -401l184 -420l-12 -6l-352 358q-32 32 -32.5 59t30.5 58z" />
    <glyph glyph-name="logicalnot" unicode="&#xac;" horiz-adv-x="1302" 
d="M1090 668v-551h-162v387h-772v164h934z" />
    <glyph glyph-name="uni00AD" unicode="&#xad;" horiz-adv-x="696" 
d="M612 633v-201h-528v201h528z" />
    <glyph glyph-name="registered" unicode="&#xae;" horiz-adv-x="1679" 
d="M842 -29q-302 0 -502 203q-201 207 -201 508t201 508t500 207q302 0 501 -205q203 -206 203 -510t-201 -508q-200 -203 -501 -203zM1481 682q0 280 -183 469q-182 188 -458 188q-271 0 -453 -188q-180 -186 -180 -469q0 -281 180 -467t455 -186q276 0 456 186
q183 189 183 467zM848 309v-12h-381v12q43 8 70 35q20 17 20 119v483q0 95 -18 113q-16 23 -72 37v16h315q104 0 187 -12q202 -27 202 -207q0 -75 -50 -129.5t-138 -77.5q55 -13 104 -96l48 -90q32 -67 51 -97q27 -46 50.5 -62.5t72.5 -31.5v-10q-73 -6 -144 -6
q-97 0 -133 22q-49 34 -86 119q-56 124 -88 182q-18 35 -70 35h-36v-196q0 -89 16 -111q14 -20 80 -35zM752 1004v-295h30q80 0 121 30q55 40 55 142q0 126 -65 153q-37 15 -82 15h-23q-20 0 -28 -9.5t-8 -35.5z" />
    <glyph glyph-name="overscore" unicode="&#xaf;" horiz-adv-x="434" 
d="M483 1364v-150h-546v150h546z" />
    <glyph glyph-name="degree" unicode="&#xb0;" horiz-adv-x="645" 
d="M51 1139q0 120 78 198q80 80 199 80q117 0 192.5 -77.5t75.5 -200.5q0 -117 -77.5 -196t-194.5 -79t-195 79t-78 196zM518 1139q0 88 -54 145t-138 57t-138.5 -57.5t-54.5 -144.5t54.5 -144t138.5 -57t138 57t54 144z" />
    <glyph glyph-name="plusminus" unicode="&#xb1;" horiz-adv-x="1302" 
d="M735 666v-373h-168v373h-385v163h385v377h168v-377h385v-163h-385zM1120 164v-164h-938v164h938z" />
    <glyph glyph-name="twosuperior" unicode="&#xb2;" 
d="M592 881h-531v84q120 87 200.5 167t113.5 144q31 64 42 104.5t11 89.5q0 158 -127 158q-64 0 -105.5 -35t-74.5 -112h-12q-13 73 -13 127q0 42 45 57q85 31 207 31q149 0 221 -61.5t72 -166.5q0 -205 -399 -442l143 4q28 1 63 1.5t58.5 1t38.5 1.5q39 0 63 17
q25 19 49 71h13q0 -136 -11 -207q-6 -34 -67 -34z" />
    <glyph glyph-name="threesuperior" unicode="&#xb3;" 
d="M78 1092h12q22 -63 77 -108.5t128 -45.5q141 0 141 174q0 152 -141 152h-29v59h31q69 0 97 38.5t28 131.5q0 135 -121 135q-115 0 -180 -147h-12q-13 89 -13 131q0 31 37 49q65 35 211 35q143 0 214 -52.5t71 -142.5q0 -74 -45 -122.5t-156 -73.5q119 -13 169 -62
t50 -133q0 -115 -90.5 -180.5t-249.5 -65.5q-135 0 -209 39q-32 19 -32 55q0 57 12 134z" />
    <glyph glyph-name="acute" unicode="&#xb4;" horiz-adv-x="430" 
d="M330 1356l-297 -226l-8 7l157 321q46 98 113 98q46 0 75 -24.5t29 -67.5q0 -51 -69 -108z" />
    <glyph glyph-name="mu" unicode="&#xb5;" horiz-adv-x="1361" 
d="M526 39v-45q0 -71 6 -203q2 -38 3.5 -74t2.5 -52.5t1 -18.5q0 -49 -15 -58q-38 -24 -280 -24l-6 10q14 399 14 799v346q0 136 -14 164q-27 65 -121 86v14q141 27 346 27q42 0 57 -12.5t15 -47.5q0 -2 -1 -19.5t-2 -52t-2 -73.5q-2 -88 -2 -207v-195q0 -102 10 -148.5
t40 -76.5q39 -45 124 -45q91 0 136 45q30 30 39 66q8 39 8 162v301q0 137 -19 180q-19 33 -42 51t-70 31v14q138 27 350 27q37 0 50 -10t13 -44q0 -1 -0.5 -18t-1.5 -54.5t-2 -80.5q-4 -196 -4 -223v-340q0 -92 26 -125t81 -33q35 0 55 4l6 -10q-38 -38 -106.5 -66
t-133.5 -28q-83 0 -126 39.5t-60 144.5q-64 -193 -237 -193q-103 0 -138 66z" />
    <glyph glyph-name="paragraph" unicode="&#xb6;" horiz-adv-x="1132" 
d="M526 -223l-4 12q109 44 150 127q39 82 39 336v262q-43 -6 -107 -6q-208 0 -327 109.5t-119 304.5q0 155 72 259t202 148q107 37 365 37h198v-16q-94 -24 -116 -60q-23 -41 -23 -151v-873q0 -148 -10 -223q-9 -67 -49 -125q-82 -114 -271 -141z" />
    <glyph glyph-name="middot" unicode="&#xb7;" horiz-adv-x="518" 
d="M420 543q0 -73 -44 -117.5t-116 -44.5q-69 0 -114.5 44.5t-45.5 115.5t46 116t116 45q72 0 115 -43.5t43 -115.5z" />
    <glyph glyph-name="cedilla" unicode="&#xb8;" horiz-adv-x="434" 
d="M31 -403v10l6 2q21 -27 86 -27q110 0 110 103q0 102 -96 102q-19 0 -39 -4l-6 6l92 229h56l-50 -139q216 0 216 -176q0 -87 -61.5 -139.5t-160.5 -52.5q-111 0 -141 47q-12 18 -12 39z" />
    <glyph glyph-name="onesuperior" unicode="&#xb9;" 
d="M573 891v-10h-397v10q34 5 64 22q39 20 39 113v461q0 77 -15 98q-14 17 -49 17q-31 0 -49 -3l-2 25l307 76l10 -10q-4 -102 -4 -295v-369q0 -92 35 -113q30 -17 61 -22z" />
    <glyph glyph-name="ordmasculine" unicode="&#xba;" horiz-adv-x="761" 
d="M717 838q0 -151 -90 -236.5t-244 -85.5q-156 0 -246 79.5t-90 229.5q0 157 100 238q101 82 246 82q156 0 240 -79t84 -228zM516 829q0 147 -30.5 201.5t-100.5 54.5q-68 0 -103.5 -54.5t-35.5 -194.5q0 -148 33.5 -206.5t105.5 -58.5q70 0 100.5 56.5t30.5 201.5z" />
    <glyph glyph-name="guillemotright" unicode="&#xbb;" horiz-adv-x="905" 
d="M819 444l-358 -360l-12 8l188 404l-184 417l12 7l352 -359q33 -33 33 -57q0 -29 -31 -60zM444 444l-358 -360l-12 8l188 404l-184 417l12 7l352 -359q33 -33 33 -57q0 -29 -31 -60z" />
    <glyph glyph-name="onequarter" unicode="&#xbc;" horiz-adv-x="1697" 
d="M434 -27l688 1428l82 -35l-686 -1427zM555 543v-11h-397v11q20 3 63 22q23 11 31 33.5t8 79.5v461q0 54 -7 78.5t-18 30t-38 5.5q-38 0 -50 -2l-2 25l308 76l10 -11q-4 -102 -4 -294v-369q0 -92 35 -113q24 -14 61 -22zM1522 10v-10h-392v10q44 9 70 27q33 20 33 96v68
h-361v98l398 516h162q-5 -152 -5 -254v-239h125v-121h-125v-68q0 -79 37 -100q12 -7 58 -23zM979 322h254q0 46 6 354z" />
    <glyph glyph-name="onehalf" unicode="&#xbd;" horiz-adv-x="1697" 
d="M428 -27l688 1428l82 -35l-686 -1427zM553 543v-11h-397v11q20 3 63 22q23 11 31 33.5t8 79.5v461q0 54 -7 78.5t-18 30t-38 5.5q-38 0 -50 -2l-2 25l308 76l10 -11q-4 -102 -4 -294v-369q0 -92 35 -113q24 -14 61 -22zM1507 0h-530v84q244 176 313 311q31 64 42 105
t11 90q0 158 -126 158q-64 0 -106 -35.5t-75 -112.5h-12q-12 68 -12 127q0 42 45 57q85 31 207 31q149 0 220.5 -61t71.5 -166q0 -206 -399 -443q17 2 143 5q28 1 63 1.5t58.5 1t38.5 1.5q42 0 64 16q24 18 49 72h12q0 -145 -10 -207q-6 -35 -68 -35z" />
    <glyph glyph-name="threequarters" unicode="&#xbe;" horiz-adv-x="1697" 
d="M512 -27l688 1428l82 -35l-686 -1427zM141 743h13q22 -63 76.5 -108t127.5 -45q142 0 142 174q0 151 -142 151h-28v60h30q69 0 97 38.5t28 131.5q0 135 -120 135q-117 0 -181 -147h-12q-12 82 -12 131q0 31 37 49q65 35 211 35q143 0 213.5 -52.5t70.5 -142.5
q0 -74 -44.5 -123t-155.5 -74q119 -13 169 -61.5t50 -132.5q0 -115 -90.5 -180.5t-249.5 -65.5q-135 0 -209 39q-33 20 -33 55q0 56 12 133zM1563 10v-10h-392v10q44 9 70 27q33 20 33 96v68h-361v98l398 516h162q-5 -152 -5 -254v-239h125v-121h-125v-68q0 -79 37 -100
q12 -7 58 -23zM1020 322h254q0 46 6 354z" />
    <glyph glyph-name="questiondown" unicode="&#xbf;" horiz-adv-x="917" 
d="M580 606h22q21 -64 21 -141q0 -75 -25 -123q-17 -39 -115 -133q-100 -93 -100 -242q0 -205 170 -205q164 0 223 201h15q20 -97 20 -172q0 -62 -78 -86q-110 -35 -239 -35q-418 0 -418 287q0 109 65 186q69 82 228 174q103 62 147 99q42 36 51 76q13 54 13 114zM408 918
q0 74 43.5 118.5t115.5 44.5q69 0 114.5 -44.5t45.5 -116.5q0 -71 -46 -115.5t-116 -44.5q-72 0 -114.5 43t-42.5 115z" />
    <glyph glyph-name="Agrave" unicode="&#xc0;" horiz-adv-x="1411" 
d="M403 12v-12h-391v12q41 9 64 29q47 33 94 154l313 847q46 123 115 324h215l109 -307l311 -852q43 -113 84 -154q23 -26 82 -41v-12h-586v12q64 12 94 35q27 21 27 55q0 38 -33 123l-84 236h-428l-82 -248q-24 -77 -24 -119q0 -27 26 -47q30 -23 94 -35zM424 565h364
l-182 545q-14 -49 -182 -545zM596 1769l229 -288l-8 -13l-342 166q-98 46 -98 111q0 43 30 70.5t74 27.5q59 0 115 -74z" />
    <glyph glyph-name="Aacute" unicode="&#xc1;" horiz-adv-x="1411" 
d="M403 12v-12h-391v12q41 9 64 29q47 33 94 154l313 847q46 123 115 324h215l109 -307l311 -852q43 -113 84 -154q23 -26 82 -41v-12h-586v12q64 12 94 35q27 21 27 55q0 38 -33 123l-84 236h-428l-82 -248q-24 -77 -24 -119q0 -27 26 -47q30 -23 94 -35zM424 565h364
l-182 545q-14 -49 -182 -545zM952 1634l-344 -166l-8 13l227 286q58 76 117 76q44 0 74.5 -27.5t30.5 -70.5q0 -63 -97 -111z" />
    <glyph glyph-name="Acircumflex" unicode="&#xc2;" horiz-adv-x="1411" 
d="M403 12v-12h-391v12q41 9 64 29q47 33 94 154l313 847q46 123 115 324h215l109 -307l311 -852q43 -113 84 -154q23 -26 82 -41v-12h-586v12q64 12 94 35q27 21 27 55q0 38 -33 123l-84 236h-428l-82 -248q-24 -77 -24 -119q0 -27 26 -47q30 -23 94 -35zM424 565h364
l-182 545q-14 -49 -182 -545zM801 1722l221 -249l-8 -9l-312 135l-303 -137l-8 8l227 256q40 46 93 46q43 0 90 -50z" />
    <glyph glyph-name="Atilde" unicode="&#xc3;" horiz-adv-x="1411" 
d="M403 12v-12h-391v12q41 9 64 29q47 33 94 154l313 847q46 123 115 324h215l109 -307l311 -852q43 -113 84 -154q23 -26 82 -41v-12h-586v12q64 12 94 35q27 21 27 55q0 38 -33 123l-84 236h-428l-82 -248q-24 -77 -24 -119q0 -27 26 -47q30 -23 94 -35zM424 565h364
l-182 545q-14 -49 -182 -545zM1018 1743l12 -4q-56 -238 -182 -238q-67 0 -160 37q-87 37 -143 37q-98 0 -139 -90l-13 4q65 250 187 250q37 0 75 -17q11 -4 43 -16.5t35 -13.5q91 -39 148 -39q84 0 137 90z" />
    <glyph glyph-name="Adieresis" unicode="&#xc4;" horiz-adv-x="1411" 
d="M403 12v-12h-391v12q41 9 64 29q47 33 94 154l313 847q46 123 115 324h215l109 -307l311 -852q43 -113 84 -154q23 -26 82 -41v-12h-586v12q64 12 94 35q27 21 27 55q0 38 -33 123l-84 236h-428l-82 -248q-24 -77 -24 -119q0 -27 26 -47q30 -23 94 -35zM424 565h364
l-182 545q-14 -49 -182 -545zM508 1473q-54 0 -88.5 34.5t-34.5 89.5q0 54 35.5 90.5t89.5 36.5q55 0 88 -35.5t33 -91.5t-34 -90t-89 -34zM903 1473q-54 0 -88.5 34.5t-34.5 89.5q0 54 35.5 90.5t89.5 36.5q55 0 88 -35.5t33 -91.5t-34 -90t-89 -34z" />
    <glyph glyph-name="Aring" unicode="&#xc5;" horiz-adv-x="1411" 
d="M403 12v-12h-391v12q41 9 64 29q47 33 94 154l313 847q46 123 115 324h215l109 -307l311 -852q43 -113 84 -154q23 -26 82 -41v-12h-586v12q64 12 94 35q27 21 27 55q0 38 -33 123l-84 236h-428l-82 -248q-24 -77 -24 -119q0 -27 26 -47q30 -23 94 -35zM424 565h364
l-182 545q-14 -49 -182 -545zM872 1620q0 -71 -47 -121q-47 -47 -118 -47q-74 0 -121 47q-45 45 -45 121q0 73 47.5 118.5t122.5 45.5q72 0 116.5 -45.5t44.5 -118.5zM817 1618q0 54 -30 86.5t-80 32.5q-49 0 -80 -33t-31 -84t31 -85t84 -34q48 0 77 33t29 84z" />
    <glyph glyph-name="AE" unicode="&#xc6;" horiz-adv-x="1998" 
d="M459 12v-12h-449v12q66 15 113 62q45 48 98 127l641 954q45 65 45 113q0 51 -121 86v12h1047q30 0 40.5 -11t10.5 -42q0 -122 -12 -242h-12q-31 93 -55.5 131.5t-59.5 48.5q-44 13 -129 13h-205q-37 0 -50 -13t-13 -49v-438h149q97 0 166 16q51 12 73.5 38t41.5 93h12
v-389h-12q-20 66 -45.5 94.5t-83.5 38.5q-52 9 -150 9h-151v-463q0 -57 20 -78t80 -21h215q128 0 172 41q42 36 102 176h11q0 -127 -9 -253q-5 -38 -19.5 -52t-51.5 -14h-957v12q80 23 111 54q29 29 29 145v250h-514l-150 -244q-59 -95 -59 -127t34 -47q59 -24 97 -31z
M1051 1247l-445 -684h445v684z" />
    <glyph glyph-name="Ccedilla" unicode="&#xc7;" horiz-adv-x="1318" 
d="M539 -416v13l8 2q27 -27 86 -27q115 0 115 106q0 103 -101 103q-19 0 -39 -4l-6 6l76 197q-292 26 -441 205.5t-149 498.5q0 345 188 527t553 182q225 0 349 -50q40 -18 53.5 -32.5t13.5 -44.5q0 -65 -41 -226h-12q-25 95 -82 158q-94 98 -272 98q-196 0 -304 -144
t-108 -441q0 -308 112.5 -473.5t342.5 -165.5q143 0 227 69q70 58 119 156h12q-3 -158 -18 -205q-12 -33 -72 -61q-131 -58 -358 -58q-42 0 -54 2l-35 -100q224 0 224 -180q0 -90 -66.5 -144.5t-171.5 -54.5q-101 0 -135 49q-14 14 -14 39z" />
    <glyph glyph-name="Egrave" unicode="&#xc8;" horiz-adv-x="1177" 
d="M1049 0h-957v12q79 22 111 54q28 28 28 145v917q0 144 -26 170q-35 41 -113 56v12h924q30 0 40.5 -11t10.5 -42q0 -53 -16 -223h-13q-50 141 -123 159q-49 15 -129 15h-194q-35 0 -47.5 -13t-12.5 -49v-438h148q100 0 166 16q49 12 68 36t44 97h13v-393h-13
q-18 68 -43 95.5t-84 37.5q-53 9 -149 9h-150v-455q0 -59 20 -82t79 -23h215q120 0 170 41q45 39 100 176h12q0 -178 -10 -266q-4 -34 -17 -43.5t-52 -9.5zM514 1769l229 -288l-8 -13l-342 166q-98 46 -98 111q0 43 30 70.5t74 27.5q59 0 115 -74z" />
    <glyph glyph-name="Eacute" unicode="&#xc9;" horiz-adv-x="1177" 
d="M1049 0h-957v12q79 22 111 54q28 28 28 145v917q0 144 -26 170q-35 41 -113 56v12h924q30 0 40.5 -11t10.5 -42q0 -53 -16 -223h-13q-50 141 -123 159q-49 15 -129 15h-194q-35 0 -47.5 -13t-12.5 -49v-438h148q100 0 166 16q49 12 68 36t44 97h13v-393h-13
q-18 68 -43 95.5t-84 37.5q-53 9 -149 9h-150v-455q0 -59 20 -82t79 -23h215q120 0 170 41q45 39 100 176h12q0 -178 -10 -266q-4 -34 -17 -43.5t-52 -9.5zM836 1634l-344 -166l-9 13l228 286q58 76 116 76q44 0 74.5 -27.5t30.5 -70.5q0 -64 -96 -111z" />
    <glyph glyph-name="Ecircumflex" unicode="&#xca;" horiz-adv-x="1177" 
d="M1049 0h-957v12q79 22 111 54q28 28 28 145v917q0 144 -26 170q-35 41 -113 56v12h924q30 0 40.5 -11t10.5 -42q0 -53 -16 -223h-13q-50 141 -123 159q-49 15 -129 15h-194q-35 0 -47.5 -13t-12.5 -49v-438h148q100 0 166 16q49 12 68 36t44 97h13v-393h-13
q-18 68 -43 95.5t-84 37.5q-53 9 -149 9h-150v-455q0 -59 20 -82t79 -23h215q120 0 170 41q45 39 100 176h12q0 -178 -10 -266q-4 -34 -17 -43.5t-52 -9.5zM731 1722l221 -249l-8 -9l-311 135l-303 -137l-8 8l227 256q40 46 92 46q43 0 90 -50z" />
    <glyph glyph-name="Edieresis" unicode="&#xcb;" horiz-adv-x="1177" 
d="M1049 0h-957v12q79 22 111 54q28 28 28 145v917q0 144 -26 170q-35 41 -113 56v12h924q30 0 40.5 -11t10.5 -42q0 -53 -16 -223h-13q-50 141 -123 159q-49 15 -129 15h-194q-35 0 -47.5 -13t-12.5 -49v-438h148q100 0 166 16q49 12 68 36t44 97h13v-393h-13
q-18 68 -43 95.5t-84 37.5q-53 9 -149 9h-150v-455q0 -59 20 -82t79 -23h215q120 0 170 41q45 39 100 176h12q0 -178 -10 -266q-4 -34 -17 -43.5t-52 -9.5zM424 1473q-54 0 -88.5 34.5t-34.5 89.5q0 54 35.5 90.5t89.5 36.5q55 0 88 -35.5t33 -91.5t-34 -90t-89 -34z
M819 1473q-54 0 -88.5 34.5t-34.5 89.5q0 54 35.5 90.5t89.5 36.5q55 0 88 -35.5t33 -91.5t-34 -90t-89 -34z" />
    <glyph glyph-name="Igrave" unicode="&#xcc;" horiz-adv-x="768" 
d="M676 12v-12h-584v12q94 25 117 64q22 36 22 190v840q0 147 -22 186q-21 38 -117 62v12h584v-12q-95 -24 -117 -56q-27 -34 -27 -190v-844q0 -150 27 -190q24 -38 117 -62zM246 1769l229 -288l-8 -13l-342 166q-98 46 -98 111q0 43 30 70.5t74 27.5q59 0 115 -74z" />
    <glyph glyph-name="Iacute" unicode="&#xcd;" horiz-adv-x="768" 
d="M676 12v-12h-584v12q94 25 117 64q22 36 22 190v840q0 147 -22 186q-21 38 -117 62v12h584v-12q-95 -24 -117 -56q-27 -34 -27 -190v-844q0 -150 27 -190q24 -38 117 -62zM592 1634l-344 -166l-8 13l227 286q58 76 117 76q44 0 74 -27.5t30 -70.5q0 -64 -96 -111z" />
    <glyph glyph-name="Icircumflex" unicode="&#xce;" horiz-adv-x="768" 
d="M676 12v-12h-584v12q94 25 117 64q22 36 22 190v840q0 147 -22 186q-21 38 -117 62v12h584v-12q-95 -24 -117 -56q-27 -34 -27 -190v-844q0 -150 27 -190q24 -38 117 -62zM469 1722l221 -249l-8 -9l-311 135l-303 -137l-9 8l228 256q40 46 92 46q43 0 90 -50z" />
    <glyph glyph-name="Idieresis" unicode="&#xcf;" horiz-adv-x="768" 
d="M676 12v-12h-584v12q94 25 117 64q22 36 22 190v840q0 147 -22 186q-21 38 -117 62v12h584v-12q-95 -24 -117 -56q-27 -34 -27 -190v-844q0 -150 27 -190q24 -38 117 -62zM182 1473q-54 0 -88.5 34.5t-34.5 89.5q0 54 35.5 90.5t89.5 36.5q55 0 88 -35.5t33 -91.5
t-34 -90t-89 -34zM578 1473q-54 0 -88.5 34.5t-34.5 89.5q0 54 35.5 90.5t89.5 36.5q55 0 87.5 -35.5t32.5 -91.5t-33.5 -90t-88.5 -34z" />
    <glyph glyph-name="Eth" unicode="&#xd0;" horiz-adv-x="1527" 
d="M705 0h-613v12q101 27 123 72q16 37 16 221v354h-161v107h161v317q0 164 -20 203q-21 41 -119 68v12h633q307 0 459 -96q260 -166 260 -547q0 -351 -189 -537t-550 -186zM532 659v-374q0 -98 9 -125q15 -39 32 -47q37 -21 117 -21q232 0 326 137t94 480q0 285 -109 430
q-94 131 -309 131q-113 0 -139 -33q-21 -21 -21 -160v-311h345v-107h-345z" />
    <glyph glyph-name="Ntilde" unicode="&#xd1;" horiz-adv-x="1503" 
d="M506 12v-12h-422v12q90 24 117 62q30 34 30 190v410q2 162 2 370q0 206 -22 242q-27 40 -121 68v12h434q45 0 80 -53q492 -724 574 -860q-3 392 -11 665q-3 134 -28 170q-31 45 -115 66v12h410v-12q-86 -24 -113 -62q-31 -42 -31 -188v-1118h-170q-744 1124 -778 1181
q0 -25 0.5 -71t1.5 -131.5t2 -153.5q4 -181 8 -547q0 -141 35 -188q34 -37 117 -64zM1083 1743l13 -4q-56 -238 -183 -238q-66 0 -159 37q-87 37 -144 37q-98 0 -139 -90l-12 4q65 250 186 250q38 0 76 -17q11 -4 43 -16.5t35 -13.5q91 -39 147 -39q84 0 137 90z" />
    <glyph glyph-name="Ograve" unicode="&#xd2;" horiz-adv-x="1503" 
d="M1415 702q0 -350 -176.5 -539.5t-497.5 -189.5q-314 0 -483.5 174.5t-169.5 518.5q0 357 191 542t489 185q319 0 483 -176t164 -515zM1087 676q0 150 -16 260.5t-43.5 179t-69.5 110t-88.5 57t-107.5 15.5q-336 0 -336 -606q0 -344 80 -483q83 -139 246 -139
q173 0 254 142.5t81 463.5zM659 1769l230 -288l-8 -13l-342 166q-99 46 -99 111q0 43 30.5 70.5t74.5 27.5q58 0 114 -74z" />
    <glyph glyph-name="Oacute" unicode="&#xd3;" horiz-adv-x="1503" 
d="M1415 702q0 -350 -176.5 -539.5t-497.5 -189.5q-314 0 -483.5 174.5t-169.5 518.5q0 357 191 542t489 185q319 0 483 -176t164 -515zM1087 676q0 150 -16 260.5t-43.5 179t-69.5 110t-88.5 57t-107.5 15.5q-336 0 -336 -606q0 -344 80 -483q83 -139 246 -139
q173 0 254 142.5t81 463.5zM971 1634l-344 -166l-9 13l228 286q58 76 117 76q44 0 74 -27.5t30 -70.5q0 -64 -96 -111z" />
    <glyph glyph-name="Ocircumflex" unicode="&#xd4;" horiz-adv-x="1503" 
d="M1415 702q0 -350 -176.5 -539.5t-497.5 -189.5q-314 0 -483.5 174.5t-169.5 518.5q0 357 191 542t489 185q319 0 483 -176t164 -515zM1087 676q0 150 -16 260.5t-43.5 179t-69.5 110t-88.5 57t-107.5 15.5q-336 0 -336 -606q0 -344 80 -483q83 -139 246 -139
q173 0 254 142.5t81 463.5zM850 1722l221 -249l-8 -9l-311 135l-303 -137l-9 8l228 256q40 46 92 46q43 0 90 -50z" />
    <glyph glyph-name="Otilde" unicode="&#xd5;" horiz-adv-x="1503" 
d="M1415 702q0 -350 -176.5 -539.5t-497.5 -189.5q-314 0 -483.5 174.5t-169.5 518.5q0 357 191 542t489 185q319 0 483 -176t164 -515zM1087 676q0 150 -16 260.5t-43.5 179t-69.5 110t-88.5 57t-107.5 15.5q-336 0 -336 -606q0 -344 80 -483q83 -139 246 -139
q173 0 254 142.5t81 463.5zM1059 1743l12 -4q-56 -238 -182 -238q-67 0 -160 37q-87 37 -143 37q-99 0 -140 -90l-12 4q65 250 187 250q37 0 75 -17q11 -4 43 -16.5t35 -13.5q91 -39 148 -39q84 0 137 90z" />
    <glyph glyph-name="Odieresis" unicode="&#xd6;" horiz-adv-x="1503" 
d="M1415 702q0 -350 -176.5 -539.5t-497.5 -189.5q-314 0 -483.5 174.5t-169.5 518.5q0 357 191 542t489 185q319 0 483 -176t164 -515zM1087 676q0 150 -16 260.5t-43.5 179t-69.5 110t-88.5 57t-107.5 15.5q-336 0 -336 -606q0 -344 80 -483q83 -139 246 -139
q173 0 254 142.5t81 463.5zM557 1473q-54 0 -88.5 34.5t-34.5 89.5q0 54 35.5 90.5t89.5 36.5q55 0 88 -35.5t33 -91.5t-34 -90t-89 -34zM952 1473q-54 0 -88.5 34.5t-34.5 89.5q0 54 35.5 90.5t89.5 36.5q55 0 88 -35.5t33 -91.5t-34 -90t-89 -34z" />
    <glyph glyph-name="multiply" unicode="&#xd7;" horiz-adv-x="1302" 
d="M651 442l-276 -272l-107 111l273 276l-279 274l115 121l276 -274l271 274l110 -114l-270 -273l276 -274l-110 -121z" />
    <glyph glyph-name="Oslash" unicode="&#xd8;" horiz-adv-x="1503" 
d="M344 74l-106 -146l-72 54l108 147q-188 176 -188 535q0 358 190 542q191 185 490 185q219 0 367 -86l118 161l72 -53l-117 -158q209 -176 209 -553q0 -350 -177 -539.5t-497 -189.5q-243 0 -397 101zM1085 676q0 228 -34 364l-570 -780q70 -190 277 -190q169 0 248 142
t79 464zM426 692q0 -187 25 -321l563 772q-76 155 -252 155q-70 0 -122.5 -23t-104.5 -81q-109 -128 -109 -502z" />
    <glyph glyph-name="Ugrave" unicode="&#xd9;" horiz-adv-x="1472" 
d="M74 1354v12h583v-12q-90 -21 -118 -60q-25 -36 -25 -141v-664q0 -161 29 -243q59 -160 288 -160q163 0 244 96q72 90 72 297v658q0 82 -11.5 117t-39.5 57q-46 32 -92 43v12h401v-12q-46 -11 -84 -41q-55 -40 -55 -176v-621q0 -251 -80 -360q-130 -183 -441 -183
q-369 0 -477 205q-55 107 -55 342v621q0 131 -33 164q-28 31 -106 49zM686 1769l229 -288l-8 -13l-342 166q-98 46 -98 111q0 43 30 70.5t74 27.5q59 0 115 -74z" />
    <glyph glyph-name="Uacute" unicode="&#xda;" horiz-adv-x="1472" 
d="M74 1354v12h583v-12q-90 -21 -118 -60q-25 -36 -25 -141v-664q0 -161 29 -243q59 -160 288 -160q163 0 244 96q72 90 72 297v658q0 82 -11.5 117t-39.5 57q-46 32 -92 43v12h401v-12q-46 -11 -84 -41q-55 -40 -55 -176v-621q0 -251 -80 -360q-130 -183 -441 -183
q-369 0 -477 205q-55 107 -55 342v621q0 131 -33 164q-28 31 -106 49zM983 1634l-344 -166l-8 13l227 286q58 76 117 76q44 0 74 -27.5t30 -70.5q0 -64 -96 -111z" />
    <glyph glyph-name="Ucircumflex" unicode="&#xdb;" horiz-adv-x="1472" 
d="M74 1354v12h583v-12q-90 -21 -118 -60q-25 -36 -25 -141v-664q0 -161 29 -243q59 -160 288 -160q163 0 244 96q72 90 72 297v658q0 82 -11.5 117t-39.5 57q-46 32 -92 43v12h401v-12q-46 -11 -84 -41q-55 -40 -55 -176v-621q0 -251 -80 -360q-130 -183 -441 -183
q-369 0 -477 205q-55 107 -55 342v621q0 131 -33 164q-28 31 -106 49zM862 1722l221 -249l-8 -9l-311 135l-303 -137l-8 8l227 256q40 46 92 46q43 0 90 -50z" />
    <glyph glyph-name="Udieresis" unicode="&#xdc;" horiz-adv-x="1472" 
d="M74 1354v12h583v-12q-90 -21 -118 -60q-25 -36 -25 -141v-664q0 -161 29 -243q59 -160 288 -160q163 0 244 96q72 90 72 297v658q0 82 -11.5 117t-39.5 57q-46 32 -92 43v12h401v-12q-46 -11 -84 -41q-55 -40 -55 -176v-621q0 -251 -80 -360q-130 -183 -441 -183
q-369 0 -477 205q-55 107 -55 342v621q0 131 -33 164q-28 31 -106 49zM573 1473q-54 0 -88 34.5t-34 89.5q0 54 35 90.5t89 36.5q55 0 88 -35.5t33 -91.5t-34 -90t-89 -34zM969 1473q-54 0 -88.5 34.5t-34.5 89.5q0 54 35.5 90.5t89.5 36.5q55 0 88 -35.5t33 -91.5t-34 -90
t-89 -34z" />
    <glyph glyph-name="Yacute" unicode="&#xdd;" horiz-adv-x="1353" 
d="M973 12v-12h-584v12q88 21 117 64q22 39 22 182v348l-364 604q-47 78 -90 115q-32 26 -60 29v12h586v-12q-56 -12 -80 -27q-24 -18 -24 -39q0 -34 32 -88q200 -340 258 -444l39 69q89 151 205 353q37 61 37 102q0 25 -27 43q-43 24 -69 31v12h368v-12q-29 -7 -69 -39
q-38 -38 -84 -109l-355 -565v-383q0 -157 27 -184q27 -34 115 -62zM973 1634l-344 -166l-8 13l227 286q58 76 117 76q44 0 74 -27.5t30 -70.5q0 -64 -96 -111z" />
    <glyph glyph-name="Thorn" unicode="&#xde;" horiz-adv-x="1306" 
d="M674 12v-12h-582v12q88 21 117 64q22 39 22 192v838q0 152 -22 188t-117 60v12h584v-12q-95 -21 -119 -58q-25 -42 -25 -186v-33q46 6 140 6q256 0 397 -69q162 -78 162 -301q0 -90 -32.5 -160.5t-86.5 -115.5t-129 -74.5t-154.5 -41.5t-169.5 -12q-100 0 -127 2v-71
q0 -132 27 -166q36 -42 115 -62zM532 907v-499q27 -2 97 -2q144 0 208 76t64 227q0 191 -108 247q-63 29 -175 29q-53 0 -69.5 -16.5t-16.5 -61.5z" />
    <glyph glyph-name="germandbls" unicode="&#xdf;" horiz-adv-x="1193" 
d="M440 0h-381v12q26 3 54 25q53 30 53 131v645q0 255 31 363q37 125 142 197.5t275 72.5q187 0 279 -68t92 -194q0 -125 -129 -254l-51 -49q-62 -59 -62 -95q0 -22 20 -43t87 -75l131 -105q147 -120 147 -260q0 -88 -32 -158q-32 -74 -115 -123t-227 -49q-130 0 -189 33
q-45 20 -45 64q0 59 27 176h12q53 -185 186 -185q70 0 107 36t37 93q0 53 -25 89q-21 37 -104 102l-123 100q-73 56 -103 98t-30 91q0 83 123 209l53 57q88 94 88 248q0 85 -40.5 128.5t-113.5 43.5q-99 0 -139 -76q-43 -79 -43 -248v-713q0 -251 8 -319z" />
    <glyph glyph-name="agrave" unicode="&#xe0;" horiz-adv-x="1067" 
d="M639 147q-30 -77 -101.5 -124.5t-168.5 -47.5q-141 0 -223.5 77t-82.5 202q0 176 195 229q139 37 262 54q76 12 88 24q13 16 13 55v62q0 104 -39 143q-45 45 -160 45q-91 0 -163 -25t-105 -67l-7 2q-6 21 -6 41q0 84 104 144.5t285 60.5q184 0 276.5 -75t92.5 -242
q0 -97 -2 -222v-274q0 -76 20.5 -103.5t67.5 -27.5q40 0 64 6l4 -8q-38 -41 -103 -68.5t-125 -27.5q-171 0 -186 167zM621 240v241q-18 -9 -64 -18q-113 -25 -160 -51q-59 -41 -59 -133q0 -79 40 -122.5t105 -43.5q88 0 125 61q13 16 13 66zM485 1462l160 -325l-8 -7
l-297 226q-72 54 -72 104q0 43 30.5 69.5t74.5 26.5q69 0 112 -94z" />
    <glyph glyph-name="aacute" unicode="&#xe1;" horiz-adv-x="1067" 
d="M639 147q-30 -77 -101.5 -124.5t-168.5 -47.5q-141 0 -223.5 77t-82.5 202q0 176 195 229q139 37 262 54q76 12 88 24q13 16 13 55v62q0 104 -39 143q-45 45 -160 45q-91 0 -163 -25t-105 -67l-7 2q-6 21 -6 41q0 84 104 144.5t285 60.5q184 0 276.5 -75t92.5 -242
q0 -97 -2 -222v-274q0 -76 20.5 -103.5t67.5 -27.5q40 0 64 6l4 -8q-38 -41 -103 -68.5t-125 -27.5q-171 0 -186 167zM621 240v241q-18 -9 -64 -18q-113 -25 -160 -51q-59 -41 -59 -133q0 -79 40 -122.5t105 -43.5q88 0 125 61q13 16 13 66zM731 1356l-297 -226l-8 7
l158 321q46 98 112 98q46 0 75.5 -24.5t29.5 -67.5q0 -50 -70 -108z" />
    <glyph glyph-name="acircumflex" unicode="&#xe2;" horiz-adv-x="1067" 
d="M639 147q-30 -77 -101.5 -124.5t-168.5 -47.5q-141 0 -223.5 77t-82.5 202q0 176 195 229q139 37 262 54q76 12 88 24q13 16 13 55v62q0 104 -39 143q-45 45 -160 45q-91 0 -163 -25t-105 -67l-7 2q-6 21 -6 41q0 84 104 144.5t285 60.5q184 0 276.5 -75t92.5 -242
q0 -97 -2 -222v-274q0 -76 20.5 -103.5t67.5 -27.5q40 0 64 6l4 -8q-38 -41 -103 -68.5t-125 -27.5q-171 0 -186 167zM621 240v241q-18 -9 -64 -18q-113 -25 -160 -51q-59 -41 -59 -133q0 -79 40 -122.5t105 -43.5q88 0 125 61q13 16 13 66zM621 1425l204 -292l-6 -7
l-299 174l-287 -174l-6 7l211 299q41 53 88 53q53 0 95 -60z" />
    <glyph glyph-name="atilde" unicode="&#xe3;" horiz-adv-x="1067" 
d="M639 147q-30 -77 -101.5 -124.5t-168.5 -47.5q-141 0 -223.5 77t-82.5 202q0 176 195 229q139 37 262 54q76 12 88 24q13 16 13 55v62q0 104 -39 143q-45 45 -160 45q-91 0 -163 -25t-105 -67l-7 2q-6 21 -6 41q0 84 104 144.5t285 60.5q184 0 276.5 -75t92.5 -242
q0 -97 -2 -222v-274q0 -76 20.5 -103.5t67.5 -27.5q40 0 64 6l4 -8q-38 -41 -103 -68.5t-125 -27.5q-171 0 -186 167zM621 240v241q-18 -9 -64 -18q-113 -25 -160 -51q-59 -41 -59 -133q0 -79 40 -122.5t105 -43.5q88 0 125 61q13 16 13 66zM809 1421l12 -4
q-53 -237 -170 -237q-70 0 -149 39q-75 34 -131 34q-87 0 -131 -90l-13 4q59 250 176 250q31 0 68 -14q10 -3 39 -16t35 -15q93 -41 137 -41q80 0 127 90z" />
    <glyph glyph-name="adieresis" unicode="&#xe4;" horiz-adv-x="1067" 
d="M639 147q-30 -77 -101.5 -124.5t-168.5 -47.5q-141 0 -223.5 77t-82.5 202q0 176 195 229q139 37 262 54q76 12 88 24q13 16 13 55v62q0 104 -39 143q-45 45 -160 45q-91 0 -163 -25t-105 -67l-7 2q-6 21 -6 41q0 84 104 144.5t285 60.5q184 0 276.5 -75t92.5 -242
q0 -97 -2 -222v-274q0 -76 20.5 -103.5t67.5 -27.5q40 0 64 6l4 -8q-38 -41 -103 -68.5t-125 -27.5q-171 0 -186 167zM621 240v241q-18 -9 -64 -18q-113 -25 -160 -51q-59 -41 -59 -133q0 -79 40 -122.5t105 -43.5q88 0 125 61q13 16 13 66zM449 1288q0 -56 -33.5 -90.5
t-87.5 -34.5q-51 0 -85 35t-34 90q0 54 34.5 87.5t88.5 33.5t85.5 -33.5t31.5 -87.5zM819 1288q0 -56 -33.5 -90.5t-87.5 -34.5q-51 0 -84.5 35t-33.5 90q0 52 33.5 86.5t86.5 34.5q54 0 86.5 -33.5t32.5 -87.5z" />
    <glyph glyph-name="aring" unicode="&#xe5;" horiz-adv-x="1067" 
d="M639 147q-30 -77 -101.5 -124.5t-168.5 -47.5q-141 0 -223.5 77t-82.5 202q0 176 195 229q139 37 262 54q76 12 88 24q13 16 13 55v62q0 104 -39 143q-45 45 -160 45q-91 0 -163 -25t-105 -67l-7 2q-6 21 -6 41q0 84 104 144.5t285 60.5q184 0 276.5 -75t92.5 -242
q0 -97 -2 -222v-274q0 -76 20.5 -103.5t67.5 -27.5q40 0 64 6l4 -8q-38 -41 -103 -68.5t-125 -27.5q-171 0 -186 167zM621 240v241q-18 -9 -64 -18q-113 -25 -160 -51q-59 -41 -59 -133q0 -79 40 -122.5t105 -43.5q88 0 125 61q13 16 13 66zM698 1307q0 -76 -51 -127
q-49 -52 -129 -52q-78 0 -131 50q-49 52 -49 129q0 78 51 126t133 48q79 0 127.5 -48t48.5 -126zM641 1305q0 55 -34.5 90t-88.5 35q-55 0 -88 -33.5t-33 -89.5t33.5 -91.5t91.5 -35.5q53 0 86 35t33 90z" />
    <glyph glyph-name="ae" unicode="&#xe6;" horiz-adv-x="1574" 
d="M711 135q-67 -82 -140.5 -121t-189.5 -39q-140 0 -229 82.5t-89 206.5q0 207 226 266q129 31 329 39q3 37 3 105q0 109 -39 145q-47 47 -160 47q-189 0 -268 -94l-7 2q-6 24 -6 41q0 85 101.5 146t281.5 61q208 0 275 -123q111 123 313 123q192 0 294.5 -110t102.5 -294
q0 -99 -10 -116q-9 -19 -63 -19h-537v-10q0 -352 309 -352q150 0 287 96l8 -2v-12q0 -19 -10 -49q-33 -74 -136 -127.5t-243 -53.5q-290 0 -403 162zM670 203q-49 116 -49 276q-132 -9 -195 -47q-88 -43 -88 -145q0 -79 44 -122.5t110 -43.5q120 0 178 82zM903 573h328
q4 32 4 109q0 138 -36 195t-114 57q-81 0 -131 -91.5t-51 -269.5z" />
    <glyph glyph-name="ccedilla" unicode="&#xe7;" horiz-adv-x="964" 
d="M326 -403v10l6 2q21 -27 86 -27q110 0 110 103q0 102 -96 102q-19 0 -39 -4l-6 6l76 191q-186 25 -287.5 153t-101.5 350q0 259 146.5 399t397.5 140q143 0 216 -33q55 -24 55 -67q0 -65 -31 -195h-12q-38 95 -90 147q-57 54 -138 54q-247 0 -247 -406q0 -401 293 -401
q136 0 249 84l7 -2v-10q0 -22 -19 -58q-85 -162 -348 -162q-27 0 -35 2l-33 -96q215 0 215 -176q0 -87 -61 -139.5t-160 -52.5q-111 0 -141 47q-12 18 -12 39z" />
    <glyph glyph-name="egrave" unicode="&#xe8;" horiz-adv-x="1042" 
d="M371 614h327q4 32 4 70q0 142 -33 196t-110 54q-176 0 -188 -320zM905 524h-538v-20q0 -383 309 -383q150 0 287 96l8 -2v-12q0 -20 -10 -47q-32 -75 -133 -129t-242 -54q-512 0 -512 514q0 247 139 392q137 143 369 143q194 0 295.5 -101t101.5 -282q0 -78 -12 -96
q-9 -19 -62 -19zM512 1462l160 -325l-8 -7l-297 226q-72 54 -72 104q0 43 30 69.5t74 26.5q70 0 113 -94z" />
    <glyph glyph-name="eacute" unicode="&#xe9;" horiz-adv-x="1042" 
d="M371 614h327q4 32 4 70q0 142 -33 196t-110 54q-176 0 -188 -320zM905 524h-538v-20q0 -383 309 -383q150 0 287 96l8 -2v-12q0 -20 -10 -47q-32 -75 -133 -129t-242 -54q-512 0 -512 514q0 247 139 392q137 143 369 143q194 0 295.5 -101t101.5 -282q0 -78 -12 -96
q-9 -19 -62 -19zM770 1356l-297 -226l-8 7l158 321q46 98 112 98q46 0 75.5 -24.5t29.5 -67.5q0 -50 -70 -108z" />
    <glyph glyph-name="ecircumflex" unicode="&#xea;" horiz-adv-x="1042" 
d="M371 614h327q4 32 4 70q0 142 -33 196t-110 54q-176 0 -188 -320zM905 524h-538v-20q0 -383 309 -383q150 0 287 96l8 -2v-12q0 -20 -10 -47q-32 -75 -133 -129t-242 -54q-512 0 -512 514q0 247 139 392q137 143 369 143q194 0 295.5 -101t101.5 -282q0 -78 -12 -96
q-9 -19 -62 -19zM639 1425l205 -292l-6 -7l-299 174l-287 -174l-6 7l211 299q41 53 88 53q52 0 94 -60z" />
    <glyph glyph-name="edieresis" unicode="&#xeb;" horiz-adv-x="1042" 
d="M371 614h327q4 32 4 70q0 142 -33 196t-110 54q-176 0 -188 -320zM905 524h-538v-20q0 -383 309 -383q150 0 287 96l8 -2v-12q0 -20 -10 -47q-32 -75 -133 -129t-242 -54q-512 0 -512 514q0 247 139 392q137 143 369 143q194 0 295.5 -101t101.5 -282q0 -78 -12 -96
q-9 -19 -62 -19zM485 1286q0 -56 -33 -90.5t-87 -34.5q-51 0 -85 35t-34 90q0 54 34.5 87.5t88.5 33.5q53 0 84.5 -33t31.5 -88zM856 1286q0 -56 -33.5 -90.5t-87.5 -34.5q-51 0 -85 35t-34 90q0 54 33.5 87.5t87.5 33.5t86.5 -33.5t32.5 -87.5z" />
    <glyph glyph-name="igrave" unicode="&#xec;" horiz-adv-x="614" 
d="M252 1462l160 -325l-9 -7l-297 226q-71 53 -71 104q0 43 30 69.5t74 26.5q70 0 113 -94zM569 10v-10h-510v10q79 28 93 66q20 33 20 127v534q0 144 -29 176q-28 32 -90 45v13q40 10 156 26q111 15 186 15q21 0 33 -4t17.5 -14.5t6.5 -19.5t1 -26q0 -7 -0.5 -27.5
l-1.5 -61.5t-2 -81q-3 -144 -3 -176v-399q0 -89 21 -129q21 -37 102 -64z" />
    <glyph glyph-name="iacute" unicode="&#xed;" horiz-adv-x="614" 
d="M451 1356l-297 -226l-9 7l158 321q46 98 113 98q46 0 75 -24.5t29 -67.5q0 -51 -69 -108zM569 10v-10h-510v10q79 28 93 66q20 33 20 127v534q0 144 -29 176q-28 32 -90 45v13q40 10 156 26q111 15 186 15q21 0 33 -4t17.5 -14.5t6.5 -19.5t1 -26q0 -7 -0.5 -27.5
l-1.5 -61.5t-2 -81q-3 -144 -3 -176v-399q0 -89 21 -129q21 -37 102 -64z" />
    <glyph glyph-name="icircumflex" unicode="&#xee;" horiz-adv-x="614" 
d="M569 10v-10h-510v10q79 28 93 66q20 33 20 127v534q0 144 -29 176q-28 32 -90 45v13q40 10 156 26q111 15 186 15q21 0 33 -4t17.5 -14.5t6.5 -19.5t1 -26q0 -7 -0.5 -27.5l-1.5 -61.5t-2 -81q-3 -144 -3 -176v-399q0 -89 21 -129q21 -37 102 -64zM379 1425l205 -292
l-6 -7l-299 174l-287 -174l-6 7l211 299q41 53 88 53q52 0 94 -60z" />
    <glyph glyph-name="idieresis" unicode="&#xef;" horiz-adv-x="614" 
d="M240 1286q0 -56 -33.5 -90.5t-87.5 -34.5q-51 0 -85 35t-34 90q0 54 34.5 87.5t88.5 33.5t85.5 -33.5t31.5 -87.5zM610 1286q0 -56 -33.5 -90.5t-87.5 -34.5q-51 0 -84.5 35t-33.5 90q0 54 33.5 87.5t87.5 33.5t86 -33.5t32 -87.5zM569 10v-10h-510v10q79 28 93 66
q20 33 20 127v534q0 144 -29 176q-28 32 -90 45v13q40 10 156 26q111 15 186 15q21 0 33 -4t17.5 -14.5t6.5 -19.5t1 -26q0 -7 -0.5 -27.5l-1.5 -61.5t-2 -81q-3 -144 -3 -176v-399q0 -89 21 -129q21 -37 102 -64z" />
    <glyph glyph-name="eth" unicode="&#xf0;" horiz-adv-x="1191" 
d="M958 1464l56 -86l-166 -104q127 -133 195.5 -317.5t68.5 -393.5q0 -263 -135 -426q-132 -164 -383 -164q-240 0 -378 128t-138 370q0 254 145 381q147 129 359 129q159 0 206 -78q-23 134 -102 273l-192 -121l-56 88l191 117q-103 129 -230 176l31 71q192 -41 340 -159z
M813 463q0 249 -55 334q-52 88 -160 88q-225 0 -225 -402q0 -225 57 -322.5t168 -97.5q108 0 161.5 92t53.5 308z" />
    <glyph glyph-name="ntilde" unicode="&#xf1;" horiz-adv-x="1249" 
d="M569 10v-10h-510v10q78 27 93 66q20 39 20 131v526q0 152 -31 180q-33 33 -88 48v10q127 39 324 39q64 0 67 -45q5 -57 5 -150q37 91 132.5 149t211.5 58q224 0 270 -168q18 -70 18 -227v-404q0 -131 33 -164q23 -26 90 -49v-10h-508v10q73 27 88 62q21 35 21 149v344
q0 123 -8.5 175.5t-32.5 76.5q-43 43 -125 43q-74 0 -133 -35q-41 -27 -49 -59q-11 -37 -11 -94v-457q0 -109 23 -147q29 -32 100 -58zM915 1421l13 -4q-52 -237 -170 -237q-71 0 -150 39q-75 34 -131 34q-87 0 -131 -90l-12 4q59 250 176 250q31 0 68 -14q10 -3 38.5 -16
t34.5 -15q93 -41 137 -41q80 0 127 90z" />
    <glyph glyph-name="ograve" unicode="&#xf2;" horiz-adv-x="1185" 
d="M1114 510q0 -255 -138.5 -396t-381.5 -141q-241 0 -380.5 131t-139.5 383q0 263 153 398q152 137 385 137q246 0 374 -130t128 -382zM817 494q0 255 -55 346q-56 92 -162 92q-229 0 -229 -428q0 -249 59 -344q60 -97 168 -97q110 0 164.5 99.5t54.5 331.5zM532 1462
l160 -325l-8 -7l-297 226q-72 54 -72 104q0 43 30.5 69.5t74.5 26.5q69 0 112 -94z" />
    <glyph glyph-name="oacute" unicode="&#xf3;" horiz-adv-x="1185" 
d="M1114 510q0 -255 -138.5 -396t-381.5 -141q-241 0 -380.5 131t-139.5 383q0 263 153 398q152 137 385 137q246 0 374 -130t128 -382zM817 494q0 255 -55 346q-56 92 -162 92q-229 0 -229 -428q0 -249 59 -344q60 -97 168 -97q110 0 164.5 99.5t54.5 331.5zM778 1356
l-297 -226l-8 7l158 321q46 98 112 98q46 0 75.5 -24.5t29.5 -67.5q0 -50 -70 -108z" />
    <glyph glyph-name="ocircumflex" unicode="&#xf4;" horiz-adv-x="1185" 
d="M1114 510q0 -255 -138.5 -396t-381.5 -141q-241 0 -380.5 131t-139.5 383q0 263 153 398q152 137 385 137q246 0 374 -130t128 -382zM817 494q0 255 -55 346q-56 92 -162 92q-229 0 -229 -428q0 -249 59 -344q60 -97 168 -97q110 0 164.5 99.5t54.5 331.5zM694 1425
l205 -292l-6 -7l-299 174l-287 -174l-6 7l211 299q41 53 88 53q52 0 94 -60z" />
    <glyph glyph-name="otilde" unicode="&#xf5;" horiz-adv-x="1185" 
d="M1114 510q0 -255 -138.5 -396t-381.5 -141q-241 0 -380.5 131t-139.5 383q0 263 153 398q152 137 385 137q246 0 374 -130t128 -382zM817 494q0 255 -55 346q-56 92 -162 92q-229 0 -229 -428q0 -249 59 -344q60 -97 168 -97q110 0 164.5 99.5t54.5 331.5zM877 1421
l12 -4q-53 -237 -170 -237q-71 0 -150 39q-75 34 -131 34q-87 0 -131 -90l-12 4q59 250 176 250q31 0 68 -14q10 -3 38.5 -16t34.5 -15q93 -41 138 -41q80 0 127 90z" />
    <glyph glyph-name="odieresis" unicode="&#xf6;" horiz-adv-x="1185" 
d="M1114 510q0 -255 -138.5 -396t-381.5 -141q-241 0 -380.5 131t-139.5 383q0 263 153 398q152 137 385 137q246 0 374 -130t128 -382zM817 494q0 255 -55 346q-56 92 -162 92q-229 0 -229 -428q0 -249 59 -344q60 -97 168 -97q110 0 164.5 99.5t54.5 331.5zM520 1286
q0 -56 -33.5 -90.5t-87.5 -34.5q-51 0 -84.5 35t-33.5 90q0 54 34 87.5t88 33.5t85.5 -33.5t31.5 -87.5zM891 1286q0 -56 -33.5 -90.5t-87.5 -34.5q-51 0 -85 35t-34 90q0 53 34.5 87t86.5 34q54 0 86.5 -33.5t32.5 -87.5z" />
    <glyph glyph-name="divide" unicode="&#xf7;" horiz-adv-x="1302" 
d="M764 852q0 -51 -32 -85t-83 -34q-54 0 -85.5 33.5t-31.5 87.5q0 50 33 83.5t82 33.5q51 0 84 -32.5t33 -86.5zM1110 623v-162h-920v162h920zM764 233q0 -51 -32 -84.5t-83 -33.5q-39 -3 -68.5 19.5t-41 55t-6 69t29.5 60.5q25 25 61.5 31t68.5 -6t53.5 -42t17.5 -69z" />
    <glyph glyph-name="oslash" unicode="&#xf8;" horiz-adv-x="1185" 
d="M299 41l-88 -121l-64 45l86 119q-159 132 -159 403q0 263 153 398q152 137 385 137q153 0 265 -53l92 125l63 -45l-88 -121q170 -129 170 -418q0 -255 -138.5 -396t-381.5 -141q-171 0 -295 68zM817 494q0 142 -18 233l-385 -528q53 -136 184 -136q109 0 164 100.5
t55 330.5zM371 504q0 -115 16 -209l383 526q-50 111 -170 111q-229 0 -229 -428z" />
    <glyph glyph-name="ugrave" unicode="&#xf9;" horiz-adv-x="1234" 
d="M797 168q-46 -95 -131 -145t-187 -50q-242 0 -303 168q-24 67 -24 211v367q0 148 -15 178q-19 45 -104 72v14q132 27 329 27q45 0 58.5 -10t13.5 -46q0 -2 -0.5 -18t-1.5 -49t-2 -70q-4 -168 -4 -203v-211q0 -183 49 -229q39 -39 125 -39q85 0 131 43q33 30 41 60
q12 40 12 149v320q0 151 -18 186q-16 29 -38 44.5t-62 31.5v14q138 27 342 27q36 0 47.5 -10t11.5 -44q0 -1 -0.5 -18t-1.5 -54.5t-2 -80.5q-4 -196 -4 -223v-353q0 -149 98 -149q36 0 60 4l4 -8q-36 -38 -106 -65t-136 -27q-173 0 -182 186zM549 1466l160 -325l-9 -6
l-297 225q-71 53 -71 104q0 43 30 70t74 27q69 0 113 -95z" />
    <glyph glyph-name="uacute" unicode="&#xfa;" horiz-adv-x="1234" 
d="M797 168q-46 -95 -131 -145t-187 -50q-242 0 -303 168q-24 67 -24 211v367q0 148 -15 178q-19 45 -104 72v14q132 27 329 27q45 0 58.5 -10t13.5 -46q0 -2 -0.5 -18t-1.5 -49t-2 -70q-4 -168 -4 -203v-211q0 -183 49 -229q39 -39 125 -39q85 0 131 43q33 30 41 60
q12 40 12 149v320q0 151 -18 186q-16 29 -38 44.5t-62 31.5v14q138 27 342 27q36 0 47.5 -10t11.5 -44q0 -1 -0.5 -18t-1.5 -54.5t-2 -80.5q-4 -196 -4 -223v-353q0 -149 98 -149q36 0 60 4l4 -8q-36 -38 -106 -65t-136 -27q-173 0 -182 186zM793 1356l-297 -226l-9 7
l158 321q46 98 113 98q46 0 75 -24.5t29 -67.5q0 -51 -69 -108z" />
    <glyph glyph-name="ucircumflex" unicode="&#xfb;" horiz-adv-x="1234" 
d="M797 168q-46 -95 -131 -145t-187 -50q-242 0 -303 168q-24 67 -24 211v367q0 148 -15 178q-19 45 -104 72v14q132 27 329 27q45 0 58.5 -10t13.5 -46q0 -2 -0.5 -18t-1.5 -49t-2 -70q-4 -168 -4 -203v-211q0 -183 49 -229q39 -39 125 -39q85 0 131 43q33 30 41 60
q12 40 12 149v320q0 151 -18 186q-16 29 -38 44.5t-62 31.5v14q138 27 342 27q36 0 47.5 -10t11.5 -44q0 -1 -0.5 -18t-1.5 -54.5t-2 -80.5q-4 -196 -4 -223v-353q0 -149 98 -149q36 0 60 4l4 -8q-36 -38 -106 -65t-136 -27q-173 0 -182 186zM700 1425l205 -292l-6 -7
l-299 174l-287 -174l-6 7l211 299q41 53 88 53q52 0 94 -60z" />
    <glyph glyph-name="udieresis" unicode="&#xfc;" horiz-adv-x="1234" 
d="M797 168q-46 -95 -131 -145t-187 -50q-242 0 -303 168q-24 67 -24 211v367q0 148 -15 178q-19 45 -104 72v14q132 27 329 27q45 0 58.5 -10t13.5 -46q0 -2 -0.5 -18t-1.5 -49t-2 -70q-4 -168 -4 -203v-211q0 -183 49 -229q39 -39 125 -39q85 0 131 43q33 30 41 60
q12 40 12 149v320q0 151 -18 186q-16 29 -38 44.5t-62 31.5v14q138 27 342 27q36 0 47.5 -10t11.5 -44q0 -1 -0.5 -18t-1.5 -54.5t-2 -80.5q-4 -196 -4 -223v-353q0 -149 98 -149q36 0 60 4l4 -8q-36 -38 -106 -65t-136 -27q-173 0 -182 186zM539 1286q0 -56 -33.5 -90.5
t-87.5 -34.5q-51 0 -85 35t-34 90q0 54 34.5 87.5t88.5 33.5t85.5 -33.5t31.5 -87.5zM909 1286q0 -56 -33.5 -90.5t-87.5 -34.5q-51 0 -84.5 35t-33.5 90q0 54 33.5 87.5t87.5 33.5t86 -33.5t32 -87.5z" />
    <glyph glyph-name="yacute" unicode="&#xfd;" horiz-adv-x="1169" 
d="M176 -231h14q31 -97 117 -97q74 0 127 62q73 98 133 266h-78q-70 182 -346 829q-46 101 -75 127q-24 18 -52 29v10h535v-10q-47 -14 -90 -37q-29 -19 -29 -45q0 -35 21 -88q179 -466 219 -592l215 586q18 53 18 90q0 28 -26 45q-59 30 -95 41v10h369v-10q-30 -9 -51 -24
q-48 -36 -94 -148l-322 -811q-113 -292 -188 -389q-88 -111 -224 -111q-50 0 -88 15q-41 15 -41 63q0 68 31 189zM864 1356l-297 -226l-8 7l158 321q46 98 112 98q46 0 75.5 -24.5t29.5 -67.5q0 -50 -70 -108z" />
    <glyph glyph-name="thorn" unicode="&#xfe;" horiz-adv-x="1187" 
d="M569 -440v-11h-544v11q74 32 94 67q20 33 20 125v1409q0 117 -12 152q-21 58 -109 80v12q149 41 353 41q29 0 40 -12.5t11 -47.5q0 -110 -8 -561q35 91 126 144t205 53q182 0 275.5 -128.5t93.5 -371.5q0 -254 -137 -391t-359 -137q-139 0 -204 35v-269q0 -105 22 -133
q21 -27 133 -67zM414 657v-391q0 -75 20 -108q38 -66 160 -66q225 0 225 367q0 223 -51 319t-158 96q-95 0 -149 -51q-26 -26 -35 -55q-12 -34 -12 -111z" />
    <glyph glyph-name="ydieresis" unicode="&#xff;" horiz-adv-x="1169" 
d="M176 -231h14q31 -97 117 -97q74 0 127 62q73 98 133 266h-78q-70 182 -346 829q-46 101 -75 127q-24 18 -52 29v10h535v-10q-47 -14 -90 -37q-29 -19 -29 -45q0 -35 21 -88q179 -466 219 -592l215 586q18 53 18 90q0 28 -26 45q-59 30 -95 41v10h369v-10q-30 -9 -51 -24
q-48 -36 -94 -148l-322 -811q-113 -292 -188 -389q-88 -111 -224 -111q-50 0 -88 15q-41 15 -41 63q0 68 31 189zM551 1286q0 -56 -33.5 -90.5t-87.5 -34.5q-51 0 -85 35t-34 90q0 54 34.5 87.5t88.5 33.5t85.5 -33.5t31.5 -87.5zM922 1286q0 -56 -33.5 -90.5t-87.5 -34.5
q-51 0 -85 35t-34 90q0 54 33.5 87.5t87.5 33.5t86.5 -33.5t32.5 -87.5z" />
    <glyph glyph-name="Amacron" unicode="&#x100;" horiz-adv-x="1411" 
d="M403 12v-12h-391v12q41 9 64 29q47 33 94 154l313 847q46 123 115 324h215l109 -307l311 -852q43 -113 84 -154q23 -26 82 -41v-12h-586v12q64 12 94 35q27 21 27 55q0 38 -33 123l-84 236h-428l-82 -248q-24 -77 -24 -119q0 -27 26 -47q30 -23 94 -35zM424 565h364
l-182 545q-14 -49 -182 -545zM989 1655v-150h-569v150h569z" />
    <glyph glyph-name="amacron" unicode="&#x101;" horiz-adv-x="1067" 
d="M639 147q-30 -77 -101.5 -124.5t-168.5 -47.5q-141 0 -223.5 77t-82.5 202q0 176 195 229q139 37 262 54q76 12 88 24q13 16 13 55v62q0 104 -39 143q-45 45 -160 45q-91 0 -163 -25t-105 -67l-7 2q-6 21 -6 41q0 84 104 144.5t285 60.5q184 0 276.5 -75t92.5 -242
q0 -97 -2 -222v-274q0 -76 20.5 -103.5t67.5 -27.5q40 0 64 6l4 -8q-38 -41 -103 -68.5t-125 -27.5q-171 0 -186 167zM621 240v241q-18 -9 -64 -18q-113 -25 -160 -51q-59 -41 -59 -133q0 -79 40 -122.5t105 -43.5q88 0 125 61q13 16 13 66zM811 1364v-150h-547v150h547z
" />
    <glyph glyph-name="Abreve" unicode="&#x102;" horiz-adv-x="1411" 
d="M403 12v-12h-391v12q41 9 64 29q47 33 94 154l313 847q46 123 115 324h215l109 -307l311 -852q43 -113 84 -154q23 -26 82 -41v-12h-586v12q64 12 94 35q27 21 27 55q0 38 -33 123l-84 236h-428l-82 -248q-24 -77 -24 -119q0 -27 26 -47q30 -23 94 -35zM424 565h364
l-182 545q-14 -49 -182 -545zM967 1763l14 -2q-18 -303 -283 -303q-262 0 -262 303l13 2q24 -76 82 -110.5t167 -34.5q113 0 175.5 33.5t93.5 111.5z" />
    <glyph glyph-name="abreve" unicode="&#x103;" horiz-adv-x="1067" 
d="M639 147q-30 -77 -101.5 -124.5t-168.5 -47.5q-141 0 -223.5 77t-82.5 202q0 176 195 229q139 37 262 54q76 12 88 24q13 16 13 55v62q0 104 -39 143q-45 45 -160 45q-91 0 -163 -25t-105 -67l-7 2q-6 21 -6 41q0 84 104 144.5t285 60.5q184 0 276.5 -75t92.5 -242
q0 -97 -2 -222v-274q0 -76 20.5 -103.5t67.5 -27.5q40 0 64 6l4 -8q-38 -41 -103 -68.5t-125 -27.5q-171 0 -186 167zM621 240v241q-18 -9 -64 -18q-113 -25 -160 -51q-59 -41 -59 -133q0 -79 40 -122.5t105 -43.5q88 0 125 61q13 16 13 66zM788 1468l13 -2
q-9 -125 -70 -219q-62 -92 -205 -92q-258 0 -258 313l13 2q46 -153 245 -153q107 0 168 36t94 115z" />
    <glyph glyph-name="Aogonek" unicode="&#x104;" horiz-adv-x="1411" 
d="M1180 -356l6 -4v-9q0 -13 -17 -30q-52 -52 -151 -52q-98 0 -155.5 51t-57.5 134q0 25 4 45.5t19.5 50.5t43.5 56.5t80.5 57t124.5 56.5h-264v12q64 12 94 35q27 21 27 55q0 38 -33 123l-84 236h-428l-82 -248q-24 -77 -24 -119q0 -27 26 -47q30 -23 94 -35v-12h-391v12
q41 9 64 29q47 33 94 154l313 847q46 123 115 324h215l109 -307l311 -852q43 -113 84 -154q23 -26 82 -41v-12h-293q-129 -120 -129 -242q0 -129 113 -129q56 0 90 15zM424 565h364l-182 545q-14 -49 -182 -545z" />
    <glyph glyph-name="aogonek" unicode="&#x105;" horiz-adv-x="1067" 
d="M963 -352l6 -4v-9q0 -8 -17 -28q-49 -49 -147 -49q-95 0 -150 49.5t-55 130.5q0 151 211 242q-157 6 -172 167q-30 -77 -101.5 -124.5t-168.5 -47.5q-141 0 -223.5 77t-82.5 202q0 176 195 229q139 37 262 54q76 12 88 24q13 16 13 55v62q0 104 -39 143q-45 45 -160 45
q-91 0 -163 -25t-105 -67l-7 2q-6 21 -6 41q0 84 104 144.5t285 60.5q184 0 276.5 -75t92.5 -242q0 -97 -2 -222v-274q0 -76 20.5 -103.5t67.5 -27.5q40 0 64 6l4 -8q-63 -69 -179 -90q-108 -108 -108 -224q0 -129 108 -129q46 0 89 15zM621 240v241q-18 -9 -64 -18
q-113 -25 -160 -51q-59 -41 -59 -133q0 -79 40 -122.5t105 -43.5q88 0 125 61q13 16 13 66z" />
    <glyph glyph-name="Cacute" unicode="&#x106;" horiz-adv-x="1318" 
d="M1227 297h12q-3 -158 -18 -205q-12 -33 -72 -61q-131 -58 -358 -58q-345 0 -524 182t-179 529q0 345 188 527t553 182q225 0 349 -50q40 -18 53.5 -32.5t13.5 -44.5q0 -65 -41 -226h-12q-25 95 -82 158q-94 98 -272 98q-196 0 -304 -144t-108 -441q0 -308 112.5 -473.5
t342.5 -165.5q143 0 227 69q70 58 119 156zM973 1634l-344 -166l-8 13l227 286q58 76 117 76q44 0 74 -27.5t30 -70.5q0 -64 -96 -111z" />
    <glyph glyph-name="cacute" unicode="&#x107;" horiz-adv-x="964" 
d="M913 205l7 -2v-10q0 -22 -19 -58q-85 -162 -348 -162q-225 0 -352 131.5t-127 378.5q0 259 146.5 399t397.5 140q143 0 216 -33q55 -24 55 -67q0 -65 -31 -195h-12q-38 95 -90 147q-57 54 -138 54q-247 0 -247 -406q0 -401 293 -401q136 0 249 84zM762 1356l-297 -226
l-8 7l157 321q46 98 113 98q46 0 75 -24.5t29 -67.5q0 -51 -69 -108z" />
    <glyph glyph-name="Ccircumflex" unicode="&#x108;" horiz-adv-x="1318" 
d="M1227 297h12q-3 -158 -18 -205q-12 -33 -72 -61q-131 -58 -358 -58q-345 0 -524 182t-179 529q0 345 188 527t553 182q225 0 349 -50q40 -18 53.5 -32.5t13.5 -44.5q0 -65 -41 -226h-12q-25 95 -82 158q-94 98 -272 98q-196 0 -304 -144t-108 -441q0 -308 112.5 -473.5
t342.5 -165.5q143 0 227 69q70 58 119 156zM874 1722l222 -249l-9 -9l-311 135l-303 -137l-8 8l227 256q40 46 92 46q43 0 90 -50z" />
    <glyph glyph-name="ccircumflex" unicode="&#x109;" horiz-adv-x="964" 
d="M913 205l7 -2v-10q0 -22 -19 -58q-85 -162 -348 -162q-225 0 -352 131.5t-127 378.5q0 259 146.5 399t397.5 140q143 0 216 -33q55 -24 55 -67q0 -65 -31 -195h-12q-38 95 -90 147q-57 54 -138 54q-247 0 -247 -406q0 -401 293 -401q136 0 249 84zM651 1425l205 -292
l-6 -7l-299 174l-287 -174l-6 7l211 299q41 53 88 53q52 0 94 -60z" />
    <glyph glyph-name="Cdotaccent" unicode="&#x10a;" horiz-adv-x="1318" 
d="M1227 297h12q-3 -158 -18 -205q-12 -33 -72 -61q-131 -58 -358 -58q-345 0 -524 182t-179 529q0 345 188 527t553 182q225 0 349 -50q40 -18 53.5 -32.5t13.5 -44.5q0 -65 -41 -226h-12q-25 95 -82 158q-94 98 -272 98q-196 0 -304 -144t-108 -441q0 -308 112.5 -473.5
t342.5 -165.5q143 0 227 69q70 58 119 156zM909 1597q0 -55 -36.5 -91t-90.5 -36q-56 0 -92.5 36t-36.5 91q0 54 37.5 90.5t93.5 36.5q54 0 89.5 -36.5t35.5 -90.5z" />
    <glyph glyph-name="cdotaccent" unicode="&#x10b;" horiz-adv-x="964" 
d="M913 205l7 -2v-10q0 -22 -19 -58q-85 -162 -348 -162q-225 0 -352 131.5t-127 378.5q0 259 146.5 399t397.5 140q143 0 216 -33q55 -24 55 -67q0 -65 -31 -195h-12q-38 95 -90 147q-57 54 -138 54q-247 0 -247 -406q0 -401 293 -401q136 0 249 84zM561 1157
q-54 0 -89.5 36.5t-35.5 92.5t35 91.5t90 35.5q57 0 91 -35t34 -92t-34 -93t-91 -36z" />
    <glyph glyph-name="Ccaron" unicode="&#x10c;" horiz-adv-x="1318" 
d="M1227 297h12q-3 -158 -18 -205q-12 -33 -72 -61q-131 -58 -358 -58q-345 0 -524 182t-179 529q0 345 188 527t553 182q225 0 349 -50q40 -18 53.5 -32.5t13.5 -44.5q0 -65 -41 -226h-12q-25 95 -82 158q-94 98 -272 98q-196 0 -304 -144t-108 -441q0 -308 112.5 -473.5
t342.5 -165.5q143 0 227 69q70 58 119 156zM655 1509l-221 252l8 8l314 -135l301 138l8 -9l-227 -260q-34 -43 -88 -43q-52 0 -95 49z" />
    <glyph glyph-name="ccaron" unicode="&#x10d;" horiz-adv-x="964" 
d="M913 205l7 -2v-10q0 -22 -19 -58q-85 -162 -348 -162q-225 0 -352 131.5t-127 378.5q0 259 146.5 399t397.5 140q143 0 216 -33q55 -24 55 -67q0 -65 -31 -195h-12q-38 95 -90 147q-57 54 -138 54q-247 0 -247 -406q0 -401 293 -401q136 0 249 84zM469 1194l-205 291l6 6
l299 -172l287 172l6 -6l-211 -297q-38 -56 -88 -55.5t-94 61.5z" />
    <glyph glyph-name="Dcaron" unicode="&#x10e;" horiz-adv-x="1527" 
d="M705 0h-613v12q101 27 123 72q16 37 16 221v778q0 164 -20 203q-21 41 -119 68v12h633q307 0 459 -96q260 -166 260 -547q0 -351 -189 -537t-550 -186zM532 1077v-792q0 -98 9 -125q15 -39 32 -47q37 -21 117 -21q232 0 326 137t94 480q0 285 -109 430q-94 131 -309 131
q-113 0 -139 -33q-21 -21 -21 -160zM590 1509l-221 252l8 8l313 -135l301 138l8 -9l-227 -260q-34 -43 -88 -43q-51 0 -94 49z" />
    <glyph glyph-name="dcaron" unicode="&#x10f;" horiz-adv-x="1245" 
d="M793 184q-27 -98 -107 -153.5t-203 -55.5q-194 0 -301.5 127.5t-107.5 376.5q0 265 139 404q142 139 360 139q145 0 207 -45v186q0 103 -12 150q-21 61 -109 82v10q172 41 349 41q51 0 51 -55q0 -9 -0.5 -45.5t-1.5 -110t-2 -150.5q-2 -180 -2 -321v-543q0 -143 102 -143
q27 0 57 6l7 -10q-37 -38 -107 -65t-133 -27q-90 0 -137.5 47.5t-48.5 154.5zM780 336v399q0 63 -8 94q-7 30 -27 50q-46 49 -137 49q-124 0 -180.5 -102.5t-56.5 -319.5q0 -207 55.5 -298t163.5 -91q84 0 135 45q33 29 49 90q6 34 6 84zM1161 956l-8 13q154 103 154 211
q0 38 -50 73q-51 39 -51 90q0 46 33.5 77.5t91.5 31.5q63 0 101 -45t38 -117q0 -112 -94 -200q-89 -87 -215 -134z" />
    <glyph glyph-name="Dcroat" unicode="&#x110;" horiz-adv-x="1527" 
d="M705 0h-613v12q101 27 123 72q16 37 16 221v354h-161v107h161v317q0 164 -20 203q-21 41 -119 68v12h633q307 0 459 -96q260 -166 260 -547q0 -351 -189 -537t-550 -186zM532 659v-374q0 -98 9 -125q15 -39 32 -47q37 -21 117 -21q232 0 326 137t94 480q0 285 -109 430
q-94 131 -309 131q-113 0 -139 -33q-21 -21 -21 -160v-311h345v-107h-345z" />
    <glyph glyph-name="dslash" unicode="&#x111;" horiz-adv-x="1245" 
d="M793 184q-27 -98 -107 -153.5t-203 -55.5q-194 0 -301.5 127.5t-107.5 376.5q0 265 139 404q142 139 360 139q145 0 207 -45v172h-229v88h227q-3 56 -10 76q-21 61 -109 82v10q172 41 349 41q51 0 51 -55q0 -107 -2 -154h164v-88h-164q-1 -82 -2 -173.5t-1.5 -140.5
t-0.5 -71v-543q0 -143 102 -143q27 0 57 6l7 -10q-37 -38 -107 -65t-133 -27q-90 0 -137.5 47.5t-48.5 154.5zM780 336v399q0 63 -8 94q-7 30 -27 50q-46 49 -137 49q-124 0 -180.5 -102.5t-56.5 -319.5q0 -207 55.5 -298t163.5 -91q84 0 135 45q33 29 49 90q6 34 6 84z" />
    <glyph glyph-name="Emacron" unicode="&#x112;" horiz-adv-x="1177" 
d="M1049 0h-957v12q79 22 111 54q28 28 28 145v917q0 144 -26 170q-35 41 -113 56v12h924q30 0 40.5 -11t10.5 -42q0 -53 -16 -223h-13q-50 141 -123 159q-49 15 -129 15h-194q-35 0 -47.5 -13t-12.5 -49v-438h148q100 0 166 16q49 12 68 36t44 97h13v-393h-13
q-18 68 -43 95.5t-84 37.5q-53 9 -149 9h-150v-455q0 -59 20 -82t79 -23h215q120 0 170 41q45 39 100 176h12q0 -178 -10 -266q-4 -34 -17 -43.5t-52 -9.5zM942 1655v-150h-569v150h569z" />
    <glyph glyph-name="emacron" unicode="&#x113;" horiz-adv-x="1042" 
d="M371 614h327q4 32 4 70q0 142 -33 196t-110 54q-176 0 -188 -320zM905 524h-538v-20q0 -383 309 -383q150 0 287 96l8 -2v-12q0 -20 -10 -47q-32 -75 -133 -129t-242 -54q-512 0 -512 514q0 247 139 392q137 143 369 143q194 0 295.5 -101t101.5 -282q0 -78 -12 -96
q-9 -19 -62 -19zM842 1364v-150h-547v150h547z" />
    <glyph glyph-name="Ebreve" unicode="&#x114;" horiz-adv-x="1177" 
d="M1049 0h-957v12q79 22 111 54q28 28 28 145v917q0 144 -26 170q-35 41 -113 56v12h924q30 0 40.5 -11t10.5 -42q0 -53 -16 -223h-13q-50 141 -123 159q-49 15 -129 15h-194q-35 0 -47.5 -13t-12.5 -49v-438h148q100 0 166 16q49 12 68 36t44 97h13v-393h-13
q-18 68 -43 95.5t-84 37.5q-53 9 -149 9h-150v-455q0 -59 20 -82t79 -23h215q120 0 170 41q45 39 100 176h12q0 -178 -10 -266q-4 -34 -17 -43.5t-52 -9.5zM891 1763l14 -2q-18 -303 -282 -303q-263 0 -263 303l13 2q23 -76 82 -110.5t168 -34.5q113 0 175 33.5t93 111.5z
" />
    <glyph glyph-name="ebreve" unicode="&#x115;" horiz-adv-x="1042" 
d="M371 614h327q4 32 4 70q0 142 -33 196t-110 54q-176 0 -188 -320zM905 524h-538v-20q0 -383 309 -383q150 0 287 96l8 -2v-12q0 -20 -10 -47q-32 -75 -133 -129t-242 -54q-512 0 -512 514q0 247 139 392q137 143 369 143q194 0 295.5 -101t101.5 -282q0 -78 -12 -96
q-9 -19 -62 -19zM817 1468l12 -2q-9 -127 -69 -219q-62 -92 -205 -92q-258 0 -258 313l12 2q47 -153 246 -153q107 0 168 36t94 115z" />
    <glyph glyph-name="Edotaccent" unicode="&#x116;" horiz-adv-x="1177" 
d="M1049 0h-957v12q79 22 111 54q28 28 28 145v917q0 144 -26 170q-35 41 -113 56v12h924q30 0 40.5 -11t10.5 -42q0 -53 -16 -223h-13q-50 141 -123 159q-49 15 -129 15h-194q-35 0 -47.5 -13t-12.5 -49v-438h148q100 0 166 16q49 12 68 36t44 97h13v-393h-13
q-18 68 -43 95.5t-84 37.5q-53 9 -149 9h-150v-455q0 -59 20 -82t79 -23h215q120 0 170 41q45 39 100 176h12q0 -178 -10 -266q-4 -34 -17 -43.5t-52 -9.5zM758 1597q0 -55 -36.5 -91t-90.5 -36q-56 0 -92.5 36t-36.5 91q0 54 37.5 90.5t93.5 36.5q54 0 89.5 -36.5
t35.5 -90.5z" />
    <glyph glyph-name="edotaccent" unicode="&#x117;" horiz-adv-x="1042" 
d="M371 614h327q4 32 4 70q0 142 -33 196t-110 54q-176 0 -188 -320zM905 524h-538v-20q0 -383 309 -383q150 0 287 96l8 -2v-12q0 -20 -10 -47q-32 -75 -133 -129t-242 -54q-512 0 -512 514q0 247 139 392q137 143 369 143q194 0 295.5 -101t101.5 -282q0 -78 -12 -96
q-9 -19 -62 -19zM555 1157q-54 0 -89.5 36.5t-35.5 92.5q0 57 34.5 92t90.5 35q57 0 91 -35t34 -92t-34 -93t-91 -36z" />
    <glyph glyph-name="Eogonek" unicode="&#x118;" horiz-adv-x="1177" 
d="M997 0h-905v12q79 22 111 54q28 28 28 145v917q0 144 -26 170q-35 41 -113 56v12h924q30 0 40.5 -11t10.5 -42q0 -53 -16 -223h-13q-50 141 -123 159q-49 15 -129 15h-194q-35 0 -47.5 -13t-12.5 -49v-438h148q100 0 166 16q49 12 68 36t44 97h13v-393h-13
q-18 68 -43 95.5t-84 37.5q-53 9 -149 9h-150v-455q0 -59 20 -82t79 -23h215q120 0 170 41q45 39 100 176h12q0 -178 -10 -266q-4 -34 -17 -43.5t-52 -9.5h-23q-129 -120 -129 -242q0 -129 113 -129q56 0 90 15l6 -4v-9q0 -14 -16 -30q-52 -52 -152 -52q-98 0 -155.5 51
t-57.5 134q0 25 4 45.5t19.5 50.5t43.5 56.5t80.5 57t124.5 56.5z" />
    <glyph glyph-name="eogonek" unicode="&#x119;" horiz-adv-x="1042" 
d="M774 -352l6 -4v-9q0 -9 -16 -28q-49 -49 -148 -49q-95 0 -149.5 49.5t-54.5 130.5q0 146 198 237q-3 0 -12 -1t-12 -1q-512 0 -512 514q0 247 139 392q137 143 369 143q194 0 295.5 -101t101.5 -282q0 -78 -12 -96q-9 -19 -62 -19h-538v-20q0 -383 309 -383q150 0 287 96
l8 -2v-12q0 -20 -10 -47q-26 -60 -100 -109t-179 -65q-104 -104 -104 -220q0 -129 108 -129q44 0 88 15zM371 614h327q4 32 4 70q0 142 -33 196t-110 54q-176 0 -188 -320z" />
    <glyph glyph-name="Ecaron" unicode="&#x11a;" horiz-adv-x="1177" 
d="M1049 0h-957v12q79 22 111 54q28 28 28 145v917q0 144 -26 170q-35 41 -113 56v12h924q30 0 40.5 -11t10.5 -42q0 -53 -16 -223h-13q-50 141 -123 159q-49 15 -129 15h-194q-35 0 -47.5 -13t-12.5 -49v-438h148q100 0 166 16q49 12 68 36t44 97h13v-393h-13
q-18 68 -43 95.5t-84 37.5q-53 9 -149 9h-150v-455q0 -59 20 -82t79 -23h215q120 0 170 41q45 39 100 176h12q0 -178 -10 -266q-4 -34 -17 -43.5t-52 -9.5zM559 1509l-221 252l8 8l313 -135l302 138l8 -9l-228 -260q-36 -44 -88 -43.5t-94 49.5z" />
    <glyph glyph-name="ecaron" unicode="&#x11b;" horiz-adv-x="1042" 
d="M371 614h327q4 32 4 70q0 142 -33 196t-110 54q-176 0 -188 -320zM905 524h-538v-20q0 -383 309 -383q150 0 287 96l8 -2v-12q0 -20 -10 -47q-32 -75 -133 -129t-242 -54q-512 0 -512 514q0 247 139 392q137 143 369 143q194 0 295.5 -101t101.5 -282q0 -78 -12 -96
q-9 -19 -62 -19zM463 1194l-205 291l6 6l299 -172l287 172l6 -6l-211 -297q-38 -56 -88 -55.5t-94 61.5z" />
    <glyph glyph-name="Gcircumflex" unicode="&#x11c;" horiz-adv-x="1441" 
d="M1307 23q-74 -9 -86 -11q-47 -5 -107 -12t-67 -8q-97 -19 -240 -19q-349 0 -536 187t-187 532q0 336 205 518.5t579 182.5q227 0 355 -45q48 -19 66 -35t18 -49q0 -78 -41 -224h-13q-26 99 -75 154q-94 102 -295 102q-457 0 -457 -585q0 -303 106.5 -470t317.5 -167
q92 0 121 26q20 14 20 95v151q0 154 -24 191q-27 37 -109 61v12h541v-12q-63 -18 -84 -55q-23 -44 -23 -195v-145q0 -119 15 -180zM891 1722l221 -249l-8 -9l-311 135l-304 -137l-8 8l228 256q40 46 92 46q43 0 90 -50z" />
    <glyph glyph-name="gcircumflex" unicode="&#x11d;" horiz-adv-x="1030" 
d="M309 365q-117 24 -183.5 108t-66.5 199q0 162 111.5 256t318.5 94q142 0 234 -47q202 15 276 72l11 -3q-5 -94 -20.5 -127.5t-61.5 -33.5q-28 0 -103 10q60 -82 60 -201q0 -162 -112.5 -253t-305.5 -91q-4 0 -36 2t-42 2q-31 0 -45 -14q-18 -18 -18 -45q0 -39 59 -51
l115 -23q161 -25 280 -59q124 -34 175 -94.5t51 -161.5q0 -165 -146.5 -264t-398.5 -99q-220 0 -336.5 64.5t-116.5 181.5q0 169 285 221q-141 44 -141 154q0 132 157 203zM377 -16q-60 0 -129 -60q-45 -45 -45 -123q0 -76 80 -123q83 -47 186 -47q146 0 216.5 46t70.5 124
q0 79 -97 117q-183 66 -282 66zM610 684q0 138 -31 192t-100 54q-145 0 -145 -246q0 -141 33 -196.5t104 -55.5t105 55.5t34 196.5zM598 1425l205 -292l-6 -7l-299 174l-287 -174l-6 7l211 299q41 53 88 53q52 0 94 -60z" />
    <glyph glyph-name="Gbreve" unicode="&#x11e;" horiz-adv-x="1441" 
d="M1307 23q-74 -9 -86 -11q-47 -5 -107 -12t-67 -8q-97 -19 -240 -19q-349 0 -536 187t-187 532q0 336 205 518.5t579 182.5q227 0 355 -45q48 -19 66 -35t18 -49q0 -78 -41 -224h-13q-26 99 -75 154q-94 102 -295 102q-457 0 -457 -585q0 -303 106.5 -470t317.5 -167
q92 0 121 26q20 14 20 95v151q0 154 -24 191q-27 37 -109 61v12h541v-12q-63 -18 -84 -55q-23 -44 -23 -195v-145q0 -119 15 -180zM1061 1763l14 -2q-18 -303 -282 -303q-263 0 -263 303l13 2q23 -76 82 -110.5t168 -34.5q113 0 175 33.5t93 111.5z" />
    <glyph glyph-name="gbreve" unicode="&#x11f;" horiz-adv-x="1030" 
d="M309 365q-117 24 -183.5 108t-66.5 199q0 162 111.5 256t318.5 94q142 0 234 -47q202 15 276 72l11 -3q-5 -94 -20.5 -127.5t-61.5 -33.5q-28 0 -103 10q60 -82 60 -201q0 -162 -112.5 -253t-305.5 -91q-4 0 -36 2t-42 2q-31 0 -45 -14q-18 -18 -18 -45q0 -39 59 -51
l115 -23q161 -25 280 -59q124 -34 175 -94.5t51 -161.5q0 -165 -146.5 -264t-398.5 -99q-220 0 -336.5 64.5t-116.5 181.5q0 169 285 221q-141 44 -141 154q0 132 157 203zM377 -16q-60 0 -129 -60q-45 -45 -45 -123q0 -76 80 -123q83 -47 186 -47q146 0 216.5 46t70.5 124
q0 79 -97 117q-183 66 -282 66zM610 684q0 138 -31 192t-100 54q-145 0 -145 -246q0 -141 33 -196.5t104 -55.5t105 55.5t34 196.5zM758 1468l12 -2q-9 -125 -70 -219q-62 -92 -204 -92q-258 0 -258 313l12 2q46 -153 246 -153q107 0 168 36t94 115z" />
    <glyph glyph-name="Gdotaccent" unicode="&#x120;" horiz-adv-x="1441" 
d="M1307 23q-74 -9 -86 -11q-47 -5 -107 -12t-67 -8q-97 -19 -240 -19q-349 0 -536 187t-187 532q0 336 205 518.5t579 182.5q227 0 355 -45q48 -19 66 -35t18 -49q0 -78 -41 -224h-13q-26 99 -75 154q-94 102 -295 102q-457 0 -457 -585q0 -303 106.5 -470t317.5 -167
q92 0 121 26q20 14 20 95v151q0 154 -24 191q-27 37 -109 61v12h541v-12q-63 -18 -84 -55q-23 -44 -23 -195v-145q0 -119 15 -180zM938 1597q0 -55 -36.5 -91t-90.5 -36q-56 0 -92.5 36t-36.5 91q0 54 37.5 90.5t93.5 36.5q54 0 89.5 -36.5t35.5 -90.5z" />
    <glyph glyph-name="gdotaccent" unicode="&#x121;" horiz-adv-x="1030" 
d="M309 365q-117 24 -183.5 108t-66.5 199q0 162 111.5 256t318.5 94q142 0 234 -47q202 15 276 72l11 -3q-5 -94 -20.5 -127.5t-61.5 -33.5q-28 0 -103 10q60 -82 60 -201q0 -162 -112.5 -253t-305.5 -91q-4 0 -36 2t-42 2q-31 0 -45 -14q-18 -18 -18 -45q0 -39 59 -51
l115 -23q161 -25 280 -59q124 -34 175 -94.5t51 -161.5q0 -165 -146.5 -264t-398.5 -99q-220 0 -336.5 64.5t-116.5 181.5q0 169 285 221q-141 44 -141 154q0 132 157 203zM377 -16q-60 0 -129 -60q-45 -45 -45 -123q0 -76 80 -123q83 -47 186 -47q146 0 216.5 46t70.5 124
q0 79 -97 117q-183 66 -282 66zM610 684q0 138 -31 192t-100 54q-145 0 -145 -246q0 -141 33 -196.5t104 -55.5t105 55.5t34 196.5zM483 1157q-54 0 -89.5 36.5t-35.5 92.5t35 91.5t90 35.5q57 0 91 -35t34 -92t-34 -93t-91 -36z" />
    <glyph glyph-name="Gcommaaccent" unicode="&#x122;" horiz-adv-x="1441" 
d="M1307 23q-74 -9 -86 -11q-47 -5 -107 -12t-67 -8q-97 -19 -240 -19q-349 0 -536 187t-187 532q0 336 205 518.5t579 182.5q227 0 355 -45q48 -19 66 -35t18 -49q0 -78 -41 -224h-13q-26 99 -75 154q-94 102 -295 102q-457 0 -457 -585q0 -303 106.5 -470t317.5 -167
q92 0 121 26q20 14 20 95v151q0 154 -24 191q-27 37 -109 61v12h541v-12q-63 -18 -84 -55q-23 -44 -23 -195v-145q0 -119 15 -180zM608 -586l-8 15q154 103 154 209q0 36 -49 73q-52 37 -52 90q0 46 33.5 77.5t91.5 31.5q63 0 101.5 -44.5t38.5 -117.5q0 -110 -95 -199
q-91 -88 -215 -135z" />
    <glyph glyph-name="gcommaaccent" unicode="&#x123;" horiz-adv-x="1030" 
d="M309 365q-117 24 -183.5 108t-66.5 199q0 162 111.5 256t318.5 94q142 0 234 -47q202 15 276 72l11 -3q-5 -94 -20.5 -127.5t-61.5 -33.5q-28 0 -103 10q60 -82 60 -201q0 -162 -112.5 -253t-305.5 -91q-4 0 -36 2t-42 2q-31 0 -45 -14q-18 -18 -18 -45q0 -39 59 -51
l115 -23q161 -25 280 -59q124 -34 175 -94.5t51 -161.5q0 -165 -146.5 -264t-398.5 -99q-220 0 -336.5 64.5t-116.5 181.5q0 169 285 221q-141 44 -141 154q0 132 157 203zM377 -16q-60 0 -129 -60q-45 -45 -45 -123q0 -76 80 -123q83 -47 186 -47q146 0 216.5 46t70.5 124
q0 79 -97 117q-183 66 -282 66zM610 684q0 138 -31 192t-100 54q-145 0 -145 -246q0 -141 33 -196.5t104 -55.5t105 55.5t34 196.5zM647 1645l8 -15q-153 -102 -153 -209q0 -36 49 -73q51 -36 51 -91q0 -46 -33.5 -77t-91.5 -31q-63 0 -101 44.5t-38 117.5q0 109 92 198
q97 90 217 136z" />
    <glyph glyph-name="Hcircumflex" unicode="&#x124;" horiz-adv-x="1585" 
d="M676 12v-12h-584v12q94 25 117 64q22 36 22 190v840q0 146 -22 188q-25 36 -117 60v12h584v-12q-95 -24 -117 -56q-27 -38 -27 -190v-342h517v340q0 158 -23 188q-28 36 -117 60v12h584v-12q-93 -24 -119 -58q-22 -28 -22 -188v-844q0 -156 24 -190q24 -38 117 -62v-12
h-584v12q97 28 117 64q23 38 23 190v396h-517v-398q0 -150 27 -190q24 -38 117 -62zM893 1722l221 -249l-8 -9l-311 135l-303 -137l-9 8l228 256q40 46 92 46q43 0 90 -50z" />
    <glyph glyph-name="hcircumflex" unicode="&#x125;" horiz-adv-x="1241" 
d="M561 10v-10h-510v10q71 27 94 66q21 40 21 151v930q0 119 -14 154q-26 62 -105 84v10q146 41 348 41q29 0 39 -13.5t10 -54.5q0 -104 -2 -233l-4 -328q39 88 135.5 146.5t208.5 58.5q213 0 271 -162q18 -52 18 -235v-369q0 -154 33 -193q36 -36 92 -53v-10h-508v10
q74 29 90 66q21 40 21 184v309q0 122 -8.5 172.5t-36.5 75.5q-43 43 -121 43q-81 0 -139 -37q-36 -22 -45 -57q-11 -33 -11 -94v-436q0 -138 23 -168q30 -38 100 -58zM446 1722l222 -249l-9 -9l-311 135l-303 -137l-8 8l227 256q40 46 92 46q43 0 90 -50z" />
    <glyph glyph-name="Hbar" unicode="&#x126;" horiz-adv-x="1585" 
d="M676 12v-12h-584v12q94 25 117 64q22 36 22 190v692h-161v109h161v39q0 146 -22 188q-25 36 -117 60v12h584v-12q-95 -24 -117 -56q-27 -38 -27 -190v-41h517v39q0 158 -23 188q-28 36 -117 60v12h584v-12q-93 -24 -119 -58q-22 -28 -22 -188v-41h161v-109h-161v-694
q0 -156 24 -190q24 -38 117 -62v-12h-584v12q97 28 117 64q23 38 23 190v396h-517v-398q0 -150 27 -190q24 -38 117 -62zM532 958v-192h517v192h-517z" />
    <glyph glyph-name="hbar" unicode="&#x127;" horiz-adv-x="1241" 
d="M561 10v-10h-510v10q71 27 94 66q21 40 21 151v914h-154v102h152q-3 38 -12 68q-26 62 -105 84v10q146 41 348 41q29 0 39 -13.5t10 -54.5q0 -96 -2 -135h240v-102h-242q0 -80 -2 -152v-172q39 88 135.5 146.5t208.5 58.5q213 0 271 -162q18 -52 18 -235v-369
q0 -154 33 -193q36 -36 92 -53v-10h-508v10q74 29 90 66q21 40 21 184v309q0 122 -8.5 172.5t-36.5 75.5q-43 43 -121 43q-81 0 -139 -37q-36 -22 -45 -57q-11 -33 -11 -94v-436q0 -138 23 -168q30 -38 100 -58z" />
    <glyph glyph-name="Itilde" unicode="&#x128;" horiz-adv-x="768" 
d="M676 12v-12h-584v12q94 25 117 64q22 36 22 190v840q0 147 -22 186q-21 38 -117 62v12h584v-12q-95 -24 -117 -56q-27 -34 -27 -190v-844q0 -150 27 -190q24 -38 117 -62zM690 1743l12 -4q-56 -238 -182 -238q-67 0 -160 37q-87 37 -143 37q-98 0 -139 -90l-12 4
q65 250 186 250q38 0 76 -17q11 -4 43 -16.5t35 -13.5q91 -39 147 -39q84 0 137 90z" />
    <glyph glyph-name="itilde" unicode="&#x129;" horiz-adv-x="614" 
d="M588 1421l12 -4q-52 -237 -170 -237q-70 0 -149 39q-75 34 -131 34q-88 0 -132 -90l-12 4q59 250 176 250q31 0 68 -14q10 -3 39 -16t35 -15q93 -41 137 -41q80 0 127 90zM569 10v-10h-510v10q79 28 93 66q20 33 20 127v534q0 144 -29 176q-28 32 -90 45v13q40 10 156 26
q111 15 186 15q21 0 33 -4t17.5 -14.5t6.5 -19.5t1 -26q0 -7 -0.5 -27.5l-1.5 -61.5t-2 -81q-3 -144 -3 -176v-399q0 -89 21 -129q21 -37 102 -64z" />
    <glyph glyph-name="Imacron" unicode="&#x12a;" horiz-adv-x="768" 
d="M676 12v-12h-584v12q94 25 117 64q22 36 22 190v840q0 147 -22 186q-21 38 -117 62v12h584v-12q-95 -24 -117 -56q-27 -34 -27 -190v-844q0 -150 27 -190q24 -38 117 -62zM664 1655v-150h-570v150h570z" />
    <glyph glyph-name="imacron" unicode="&#x12b;" horiz-adv-x="614" 
d="M571 1364v-150h-546v150h546zM569 10v-10h-510v10q79 28 93 66q20 33 20 127v534q0 144 -29 176q-28 32 -90 45v13q40 10 156 26q111 15 186 15q21 0 33 -4t17.5 -14.5t6.5 -19.5t1 -26q0 -7 -0.5 -27.5l-1.5 -61.5t-2 -81q-3 -144 -3 -176v-399q0 -89 21 -129
q21 -37 102 -64z" />
    <glyph glyph-name="Ibreve" unicode="&#x12c;" horiz-adv-x="768" 
d="M676 12v-12h-584v12q94 25 117 64q22 36 22 190v840q0 147 -22 186q-21 38 -117 62v12h584v-12q-95 -24 -117 -56q-27 -34 -27 -190v-844q0 -150 27 -190q24 -38 117 -62zM641 1763l14 -2q-18 -303 -282 -303q-262 0 -262 303l12 2q23 -76 82 -110.5t168 -34.5
q113 0 175 33.5t93 111.5z" />
    <glyph glyph-name="ibreve" unicode="&#x12d;" horiz-adv-x="614" 
d="M543 1468l12 -2q-9 -125 -70 -219q-62 -92 -204 -92q-258 0 -258 313l12 2q47 -153 246 -153q107 0 168 36t94 115zM569 10v-10h-510v10q79 28 93 66q20 33 20 127v534q0 144 -29 176q-28 32 -90 45v13q40 10 156 26q111 15 186 15q21 0 33 -4t17.5 -14.5t6.5 -19.5
t1 -26q0 -7 -0.5 -27.5l-1.5 -61.5t-2 -81q-3 -144 -3 -176v-399q0 -89 21 -129q21 -37 102 -64z" />
    <glyph glyph-name="Iogonek" unicode="&#x12e;" horiz-adv-x="768" 
d="M498 -356l6 -4v-9q0 -13 -17 -30q-52 -52 -151 -52q-98 0 -155.5 51t-57.5 134q0 25 4 45.5t19.5 50.5t43.5 56.5t80.5 57t124.5 56.5h-303v12q94 25 117 64q22 36 22 190v840q0 147 -22 186q-21 38 -117 62v12h584v-12q-95 -24 -117 -56q-27 -34 -27 -190v-844
q0 -150 27 -190q24 -38 117 -62v-12h-252q-129 -120 -129 -242q0 -129 113 -129q56 0 90 15z" />
    <glyph glyph-name="iogonek" unicode="&#x12f;" horiz-adv-x="614" 
d="M426 -352l6 -4v-9q0 -9 -16 -28q-49 -49 -148 -49q-95 0 -150 49.5t-55 130.5q0 24 4 44.5t19.5 50t42 55.5t77.5 56t120 56h-267v10q79 28 93 66q20 39 20 133v528q0 144 -29 176q-28 32 -90 45v13q40 10 156 26q111 15 186 15q21 0 33 -4t17.5 -14.5t6.5 -19.5t1 -26
q0 -7 -0.5 -27.5l-1.5 -61.5t-2 -81q-3 -144 -3 -176v-393q0 -95 21 -135q21 -37 102 -64v-10h-213q-127 -115 -127 -238q0 -129 109 -129q44 0 88 15zM440 1298q0 -68 -40 -108.5t-107 -40.5q-62 0 -103 41t-41 106.5t41 106.5q40 43 107 43q65 0 104 -40.5t39 -107.5z" />
    <glyph glyph-name="Idot" unicode="&#x130;" horiz-adv-x="768" 
d="M676 12v-12h-584v12q94 25 117 64q22 36 22 190v840q0 147 -22 186q-21 38 -117 62v12h584v-12q-95 -24 -117 -56q-27 -34 -27 -190v-844q0 -150 27 -190q24 -38 117 -62zM516 1597q0 -55 -36.5 -91t-90.5 -36q-56 0 -92.5 36t-36.5 91q0 54 37.5 90.5t93.5 36.5
q54 0 89.5 -36.5t35.5 -90.5z" />
    <glyph glyph-name="dotlessi" unicode="&#x131;" horiz-adv-x="614" 
d="M569 10v-10h-510v10q79 28 93 66q20 33 20 127v534q0 144 -29 176q-28 32 -90 45v13q40 10 156 26q111 15 186 15q21 0 33 -4t17.5 -14.5t6.5 -19.5t1 -26q0 -7 -0.5 -27.5l-1.5 -61.5t-2 -81q-3 -144 -3 -176v-399q0 -89 21 -129q21 -37 102 -64z" />
    <glyph glyph-name="IJ" unicode="&#x132;" horiz-adv-x="1564" 
d="M676 12v-12h-584v12q94 25 117 64q22 36 22 190v840q0 147 -22 186q-21 38 -117 62v12h584v-12q-95 -24 -117 -56q-27 -34 -27 -190v-844q0 -150 27 -190q24 -38 117 -62zM784 -55h13q44 -170 155 -170q67 0 88 49q31 73 31 371v913q0 146 -24 180q-31 42 -123 66v12h585
v-12q-87 -21 -112 -56q-25 -39 -25 -190q0 -219 2 -422q4 -406 4 -453q0 -151 -16 -234t-59 -149q-111 -172 -340 -172q-105 0 -160 19q-47 15 -47 55q0 81 28 193z" />
    <glyph glyph-name="ij" unicode="&#x133;" horiz-adv-x="1273" 
d="M569 10v-10h-510v10q79 28 93 66q20 39 20 133v528q0 144 -29 176q-28 32 -90 45v13q40 10 156 26q111 15 186 15q21 0 33 -4t17.5 -14.5t6.5 -19.5t1 -26q0 -7 -0.5 -27.5l-1.5 -61.5t-2 -81q-3 -144 -3 -176v-393q0 -95 21 -135q21 -37 102 -64zM440 1298
q0 -68 -40 -108.5t-107 -40.5q-62 0 -103 41t-41 106.5t41 106.5q40 43 107 43q65 0 104 -40.5t39 -107.5zM569 -236h15q24 -135 129 -135q54 0 75 47q27 65 27 367v688q0 149 -33 182q-43 37 -86 45v13q36 10 158 26q114 15 184 15q34 0 46 -16t12 -50q0 -1 -0.5 -19
t-1.5 -56.5t-2 -82.5q-2 -100 -2 -186v-248q2 -109 2 -239q0 -168 -15 -260.5t-53 -153.5q-106 -160 -311 -160q-93 0 -140 21q-32 14 -32 51q0 59 28 151zM1087 1303q0 -69 -41 -111.5t-110 -42.5q-63 0 -107 41q-41 43 -41 110.5t41 110.5q43 43 111 43q67 0 107 -41.5
t40 -109.5z" />
    <glyph glyph-name="Jcircumflex" unicode="&#x134;" horiz-adv-x="796" 
d="M16 -55h13q44 -170 155 -170q67 0 88 49q31 73 31 371v913q0 146 -24 180q-31 42 -123 66v12h585v-12q-87 -21 -112 -56q-25 -39 -25 -190q0 -219 2 -422q4 -406 4 -453q0 -151 -16 -234t-59 -149q-111 -172 -340 -172q-105 0 -160 19q-47 15 -47 55q0 81 28 193z
M539 1722l221 -249l-8 -9l-312 135l-303 -137l-8 8l227 256q40 46 93 46q43 0 90 -50z" />
    <glyph glyph-name="jcircumflex" unicode="&#x135;" horiz-adv-x="604" 
d="M-74 -236h15q24 -135 129 -135q54 0 75 47q27 65 27 367v688q0 149 -33 182q-40 37 -86 45v13q36 10 158 26q114 15 184 15q34 0 46 -16t12 -50q0 -1 -0.5 -19t-1.5 -56.5t-2 -82.5q-3 -150 -3 -186v-248q3 -163 3 -239q0 -168 -15 -260.5t-53 -153.5
q-106 -160 -311 -160q-94 0 -140 21q-32 14 -32 51q0 59 28 151zM385 1425l205 -292l-6 -7l-299 174l-287 -174l-6 7l211 299q41 53 88 53q52 0 94 -60z" />
    <glyph glyph-name="Kcommaaccent" unicode="&#x136;" horiz-adv-x="1486" 
d="M676 12v-12h-584v12q85 21 117 64q22 39 22 190v840q0 146 -22 188q-22 36 -117 60v12h584v-12q-95 -24 -117 -56q-27 -38 -27 -190v-428q139 133 379 414q95 109 95 172q0 53 -121 88v12h497v-12q-64 -20 -118 -60.5t-131 -124.5l-295 -315l225 -367q162 -253 301 -389
q39 -39 125 -78v-12q-88 -14 -348 -14q-114 0 -183 96q-60 87 -335 561l-43 -41l-48 -49v-303q0 -140 27 -184q21 -38 117 -62zM594 -586l-8 15q153 102 153 209q0 36 -49 73q-51 36 -51 90q0 46 33.5 77.5t91.5 31.5q63 0 101 -44.5t38 -117.5q0 -111 -94 -199
q-91 -88 -215 -135z" />
    <glyph glyph-name="kcommaaccent" unicode="&#x137;" horiz-adv-x="1208" 
d="M561 10v-10h-512v10q78 35 94 66q21 34 21 133v958q0 149 -29 181q-36 36 -90 47v10q47 15 150 27q101 14 188 14q38 0 50.5 -13.5t12.5 -56.5v-12.5t-0.5 -34.5t-1 -53t-1 -76t-1.5 -96q-1 -75 -2 -148l-1.5 -109.5t-0.5 -47.5v-279q145 128 242 242q82 91 82 141
q0 55 -107 82v10h451v-10q-67 -22 -109 -53q-54 -40 -123 -109l-178 -174l64 -100q56 -81 80 -123l75 -113q87 -125 177 -221q50 -50 114 -69v-9q-145 -22 -286 -22q-112 0 -162 71q-135 190 -258 416l-62 -55v-205q0 -121 25 -149q25 -32 98 -60zM459 -586l-8 15
q153 102 153 209q0 36 -49 73q-51 36 -51 90q0 46 33.5 77.5t91.5 31.5q63 0 101 -44.5t38 -117.5q0 -111 -94 -199q-91 -88 -215 -135z" />
    <glyph glyph-name="kgreenlandic" unicode="&#x138;" horiz-adv-x="1208" 
d="M561 10v-10h-512v10q78 35 94 66q21 34 21 133v522q0 140 -31 182q-22 28 -88 43v13q41 13 152 26q108 15 186 15q38 0 50.5 -14t12.5 -58q0 -17 -4 -197q-1 -36 -2 -74.5t-1.5 -58.5t-0.5 -28v-60q128 117 242 242q82 91 82 141q0 55 -107 82v10h449v-10
q-71 -23 -111 -53q-48 -38 -119 -109l-178 -174l64 -100q56 -81 80 -123l75 -113q87 -125 177 -221q43 -46 114 -78v-10q-112 -8 -299 -8q-103 0 -149 67l-258 416l-62 -55v-205q0 -113 25 -149q24 -34 98 -60z" />
    <glyph glyph-name="Lacute" unicode="&#x139;" horiz-adv-x="1173" 
d="M1055 0h-963v12q54 17 109 56q30 21 30 143v895q0 150 -24 188q-22 36 -115 60v12h594v-12q-99 -27 -123 -54q-20 -23 -25.5 -58.5t-5.5 -133.5v-903q0 -59 19.5 -81t79.5 -22h207q129 0 176 41q43 37 102 176h12q0 -30 -2 -69q-2 -88 -8 -182q-4 -44 -15.5 -56
t-47.5 -12zM565 1634l-344 -166l-8 13l227 286q58 76 117 76q44 0 74.5 -27.5t30.5 -70.5q0 -63 -97 -111z" />
    <glyph glyph-name="lacute" unicode="&#x13a;" horiz-adv-x="606" 
d="M561 10v-10h-512v10q79 31 94 66q21 40 21 149v938q0 112 -10 150q-22 61 -109 82v10q178 41 352 41q29 0 39 -13.5t10 -50.5q0 -10 -0.5 -42t-1.5 -94.5t-2 -125.5q-1 -64 -2 -124.5t-1.5 -90.5t-0.5 -37v-632q0 -138 23 -168q30 -38 100 -58zM479 1655l-344 -166l-8 12
l227 287q58 76 117 76q44 0 74 -28t30 -71q0 -63 -96 -110z" />
    <glyph glyph-name="Lcommaaccent" unicode="&#x13b;" horiz-adv-x="1173" 
d="M1055 0h-963v12q54 17 109 56q30 21 30 143v895q0 150 -24 188q-22 36 -115 60v12h594v-12q-99 -27 -123 -54q-20 -23 -25.5 -58.5t-5.5 -133.5v-903q0 -59 19.5 -81t79.5 -22h207q129 0 176 41q43 37 102 176h12q0 -30 -2 -69q-2 -88 -8 -182q-4 -44 -15.5 -56
t-47.5 -12zM465 -586l-8 15q153 102 153 209q0 36 -49 73q-51 36 -51 90q0 46 33.5 77.5t91.5 31.5q63 0 101 -44.5t38 -117.5q0 -111 -94 -199q-91 -88 -215 -135z" />
    <glyph glyph-name="lcommaaccent" unicode="&#x13c;" horiz-adv-x="606" 
d="M561 10v-10h-512v10q79 31 94 66q21 40 21 149v938q0 112 -10 150q-22 61 -109 82v10q178 41 352 41q29 0 39 -13.5t10 -50.5q0 -10 -0.5 -42t-1.5 -94.5t-2 -125.5q-1 -64 -2 -124.5t-1.5 -90.5t-0.5 -37v-632q0 -138 23 -168q30 -38 100 -58zM127 -586l-8 15
q153 102 153 209q0 36 -49 73q-51 36 -51 90q0 46 33.5 77.5t91.5 31.5q63 0 101 -44.5t38 -117.5q0 -111 -94 -199q-91 -88 -215 -135z" />
    <glyph glyph-name="Lcaron" unicode="&#x13d;" horiz-adv-x="1173" 
d="M1055 0h-963v12q54 17 109 56q30 21 30 143v895q0 150 -24 188q-22 36 -115 60v12h594v-12q-99 -27 -123 -54q-20 -23 -25.5 -58.5t-5.5 -133.5v-903q0 -59 19.5 -81t79.5 -22h207q129 0 176 41q43 37 102 176h12q0 -30 -2 -69q-2 -88 -8 -182q-4 -44 -15.5 -56
t-47.5 -12zM754 969l-9 12q154 103 154 211q0 40 -49 74q-51 39 -51 90q0 46 33.5 77t91.5 31q63 0 101 -44.5t38 -116.5q0 -113 -94 -201q-88 -85 -215 -133z" />
    <glyph glyph-name="lcaron" unicode="&#x13e;" horiz-adv-x="606" 
d="M561 10v-10h-512v10q79 31 94 66q21 40 21 149v938q0 112 -10 150q-22 61 -109 82v10q178 41 352 41q29 0 39 -13.5t10 -50.5q0 -10 -0.5 -42t-1.5 -94.5t-2 -125.5q-1 -64 -2 -124.5t-1.5 -90.5t-0.5 -37v-632q0 -138 23 -168q30 -38 100 -58zM543 956l-8 13
q153 102 153 211q0 39 -49 73q-51 39 -51 90q0 46 33.5 77.5t91.5 31.5q63 0 101 -45t38 -117q0 -112 -94 -200q-89 -87 -215 -134z" />
    <glyph glyph-name="Ldot" unicode="&#x13f;" horiz-adv-x="1173" 
d="M1118 670q0 -74 -43.5 -119t-116.5 -45q-67 0 -112 45q-43 44 -43 116.5t43 116.5q45 45 117 45t113.5 -43.5t41.5 -115.5zM1055 0h-963v12q54 17 109 56q30 21 30 143v895q0 150 -24 188q-22 36 -115 60v12h594v-12q-99 -27 -123 -54q-20 -23 -25.5 -58.5t-5.5 -133.5
v-903q0 -59 19.5 -81t79.5 -22h207q129 0 176 41q43 37 102 176h12q0 -30 -2 -69q-2 -88 -8 -182q-4 -44 -15.5 -56t-47.5 -12z" />
    <glyph glyph-name="ldot" unicode="&#x140;" horiz-adv-x="849" 
d="M883 676q0 -72 -43.5 -116t-112.5 -44q-66 0 -109 43q-43 44 -43 114t43 113q42 45 113 45q69 0 110.5 -43t41.5 -112zM561 10v-10h-512v10q79 31 94 66q21 40 21 149v938q0 112 -10 150q-22 61 -109 82v10q178 41 352 41q29 0 39 -13.5t10 -50.5q0 -10 -0.5 -42
t-1.5 -94.5t-2 -125.5q-1 -64 -2 -124.5t-1.5 -90.5t-0.5 -37v-632q0 -138 23 -168q30 -38 100 -58z" />
    <glyph glyph-name="Lslash" unicode="&#x141;" horiz-adv-x="1173" 
d="M231 504l-129 -80l-57 88l186 117v477q0 150 -24 188q-22 36 -115 60v12h594v-12q-99 -27 -123 -54q-20 -23 -25.5 -58.5t-5.5 -133.5v-291l259 164l55 -90l-314 -197v-489q0 -59 19.5 -81t79.5 -22h207q129 0 176 41q43 37 102 176h12q0 -30 -2 -69q-2 -88 -8 -182
q-4 -44 -15.5 -56t-47.5 -12h-963v12q54 17 109 56q30 21 30 143v293z" />
    <glyph glyph-name="lslash" unicode="&#x142;" horiz-adv-x="606" 
d="M164 571l-117 -69l-49 84l166 98v479q0 112 -10 150q-22 61 -109 82v10q178 41 352 41q29 0 39 -13.5t10 -50.5q0 -10 -0.5 -42t-1.5 -94.5t-2 -125.5q-1 -64 -2 -124.5t-1.5 -90.5t-0.5 -37v-18l125 76l49 -86l-174 -105v-499q0 -138 23 -168q30 -38 100 -58v-10h-512
v10q79 31 94 66q21 40 21 149v346z" />
    <glyph glyph-name="Nacute" unicode="&#x143;" horiz-adv-x="1503" 
d="M506 12v-12h-422v12q90 24 117 62q30 34 30 190v410q2 162 2 370q0 206 -22 242q-27 40 -121 68v12h434q45 0 80 -53q492 -724 574 -860q-3 392 -11 665q-3 134 -28 170q-31 45 -115 66v12h410v-12q-86 -24 -113 -62q-31 -42 -31 -188v-1118h-170q-744 1124 -778 1181
q0 -25 0.5 -71t1.5 -131.5t2 -153.5q4 -181 8 -547q0 -141 35 -188q34 -37 117 -64zM997 1634l-344 -166l-8 13l227 286q58 76 117 76q44 0 74.5 -27.5t30.5 -70.5q0 -63 -97 -111z" />
    <glyph glyph-name="nacute" unicode="&#x144;" horiz-adv-x="1249" 
d="M569 10v-10h-510v10q78 27 93 66q20 39 20 131v526q0 152 -31 180q-33 33 -88 48v10q127 39 324 39q64 0 67 -45q5 -57 5 -150q37 91 132.5 149t211.5 58q224 0 270 -168q18 -70 18 -227v-404q0 -131 33 -164q23 -26 90 -49v-10h-508v10q73 27 88 62q21 35 21 149v344
q0 123 -8.5 175.5t-32.5 76.5q-43 43 -125 43q-74 0 -133 -35q-41 -27 -49 -59q-11 -37 -11 -94v-457q0 -109 23 -147q29 -32 100 -58zM838 1356l-297 -226l-9 7l158 321q46 98 113 98q46 0 75 -24.5t29 -67.5q0 -51 -69 -108z" />
    <glyph glyph-name="Ncommaaccent" unicode="&#x145;" horiz-adv-x="1503" 
d="M506 12v-12h-422v12q90 24 117 62q30 34 30 190v410q2 162 2 370q0 206 -22 242q-27 40 -121 68v12h434q45 0 80 -53q492 -724 574 -860q-3 392 -11 665q-3 134 -28 170q-31 45 -115 66v12h410v-12q-86 -24 -113 -62q-31 -42 -31 -188v-1118h-170q-744 1124 -778 1181
q0 -25 0.5 -71t1.5 -131.5t2 -153.5q4 -181 8 -547q0 -141 35 -188q34 -37 117 -64zM594 -586l-8 15q153 102 153 209q0 36 -49 73q-51 36 -51 90q0 46 33.5 77.5t91.5 31.5q63 0 101 -44.5t38 -117.5q0 -111 -94 -199q-91 -88 -215 -135z" />
    <glyph glyph-name="ncommaaccent" unicode="&#x146;" horiz-adv-x="1249" 
d="M569 10v-10h-510v10q78 27 93 66q20 39 20 131v526q0 152 -31 180q-33 33 -88 48v10q127 39 324 39q64 0 67 -45q5 -57 5 -150q37 91 132.5 149t211.5 58q224 0 270 -168q18 -70 18 -227v-404q0 -131 33 -164q23 -26 90 -49v-10h-508v10q73 27 88 62q21 35 21 149v344
q0 123 -8.5 175.5t-32.5 76.5q-43 43 -125 43q-74 0 -133 -35q-41 -27 -49 -59q-11 -37 -11 -94v-457q0 -109 23 -147q29 -32 100 -58zM459 -586l-8 15q153 102 153 209q0 36 -49 73q-51 36 -51 90q0 46 33.5 77.5t91.5 31.5q63 0 101 -44.5t38 -117.5q0 -111 -94 -199
q-91 -88 -215 -135z" />
    <glyph glyph-name="Ncaron" unicode="&#x147;" horiz-adv-x="1503" 
d="M506 12v-12h-422v12q90 24 117 62q30 34 30 190v410q2 162 2 370q0 206 -22 242q-27 40 -121 68v12h434q45 0 80 -53q492 -724 574 -860q-3 392 -11 665q-3 134 -28 170q-31 45 -115 66v12h410v-12q-86 -24 -113 -62q-31 -42 -31 -188v-1118h-170q-744 1124 -778 1181
q0 -25 0.5 -71t1.5 -131.5t2 -153.5q4 -181 8 -547q0 -141 35 -188q34 -37 117 -64zM666 1509l-222 252l9 8l313 -135l301 138l8 -9l-227 -260q-36 -44 -88 -43.5t-94 49.5z" />
    <glyph glyph-name="ncaron" unicode="&#x148;" horiz-adv-x="1249" 
d="M569 10v-10h-510v10q78 27 93 66q20 39 20 131v526q0 152 -31 180q-33 33 -88 48v10q127 39 324 39q64 0 67 -45q5 -57 5 -150q37 91 132.5 149t211.5 58q224 0 270 -168q18 -70 18 -227v-404q0 -131 33 -164q23 -26 90 -49v-10h-508v10q73 27 88 62q21 35 21 149v344
q0 123 -8.5 175.5t-32.5 76.5q-43 43 -125 43q-74 0 -133 -35q-41 -27 -49 -59q-11 -37 -11 -94v-457q0 -109 23 -147q29 -32 100 -58zM500 1194l-205 291l6 6l299 -172l287 172l6 -6l-211 -297q-38 -56 -88 -55.5t-94 61.5z" />
    <glyph glyph-name="napostrophe" unicode="&#x149;" horiz-adv-x="1249" 
d="M569 10v-10h-510v10q78 27 93 66q20 39 20 131v526q0 152 -31 180q-33 33 -88 48v10q127 39 324 39q64 0 67 -45q5 -57 5 -150q37 91 132.5 149t211.5 58q224 0 270 -168q18 -70 18 -227v-404q0 -131 33 -164q23 -26 90 -49v-10h-508v10q73 27 88 62q21 35 21 149v344
q0 123 -8.5 175.5t-32.5 76.5q-43 43 -125 43q-74 0 -133 -35q-41 -27 -49 -59q-11 -37 -11 -94v-457q0 -109 23 -147q29 -32 100 -58zM70 1067l-9 14q154 103 154 209q0 37 -49 74q-51 36 -51 90q0 46 33.5 77.5t91.5 31.5q63 0 101 -44.5t38 -117.5q0 -113 -94 -201
q-88 -85 -215 -133z" />
    <glyph glyph-name="Eng" unicode="&#x14a;" horiz-adv-x="1503" 
d="M506 12v-12h-426v12q83 20 121 64q30 41 30 188q2 215 2 780q0 203 -22 242q-21 41 -121 68v12h442q23 0 33 -6t27 -31q429 -620 579 -866l-6 659q0 132 -28 174q-32 37 -115 58v12h412v-12q-83 -21 -113 -62q-31 -45 -31 -188v-1045q0 -284 -57 -389q-73 -135 -275 -135
q-53 0 -86 10q-45 12 -45 52q0 79 21 202h12q13 -78 50.5 -123t88.5 -45q75 0 105 52q37 70 37 235v43q-664 992 -801 1206q6 -853 14 -907q3 -146 33 -184q26 -37 119 -64z" />
    <glyph glyph-name="eng" unicode="&#x14b;" horiz-adv-x="1249" 
d="M569 10v-10h-510v10q78 27 93 66q20 39 20 131v526q0 144 -31 180q-27 30 -88 45v13q127 39 324 39q64 0 67 -45q5 -57 5 -150q37 91 133 149t211 58q107 0 178.5 -42.5t89.5 -125.5q20 -73 20 -274v-480q0 -327 -63 -430q-101 -168 -340 -168q-56 0 -105 21
q-38 14 -38 53q0 60 24 152h14q27 -136 127 -136q61 0 80 54q25 70 25 356v551q0 124 -8.5 178t-34.5 84q-42 45 -121 45q-114 0 -156 -51q-20 -17 -30 -47q-9 -35 -9 -90v-457q0 -109 23 -147q25 -32 100 -58z" />
    <glyph glyph-name="Omacron" unicode="&#x14c;" horiz-adv-x="1503" 
d="M1415 702q0 -350 -176.5 -539.5t-497.5 -189.5q-314 0 -483.5 174.5t-169.5 518.5q0 357 191 542t489 185q319 0 483 -176t164 -515zM1087 676q0 150 -16 260.5t-43.5 179t-69.5 110t-88.5 57t-107.5 15.5q-336 0 -336 -606q0 -344 80 -483q83 -139 246 -139
q173 0 254 142.5t81 463.5zM1049 1655v-150h-570v150h570z" />
    <glyph glyph-name="omacron" unicode="&#x14d;" horiz-adv-x="1185" 
d="M1114 510q0 -255 -138.5 -396t-381.5 -141q-241 0 -380.5 131t-139.5 383q0 263 153 398q152 137 385 137q246 0 374 -130t128 -382zM817 494q0 255 -55 346q-56 92 -162 92q-229 0 -229 -428q0 -249 59 -344q60 -97 168 -97q110 0 164.5 99.5t54.5 331.5zM874 1364v-150
h-546v150h546z" />
    <glyph glyph-name="Obreve" unicode="&#x14e;" horiz-adv-x="1503" 
d="M1415 702q0 -350 -176.5 -539.5t-497.5 -189.5q-314 0 -483.5 174.5t-169.5 518.5q0 357 191 542t489 185q319 0 483 -176t164 -515zM1087 676q0 150 -16 260.5t-43.5 179t-69.5 110t-88.5 57t-107.5 15.5q-336 0 -336 -606q0 -344 80 -483q83 -139 246 -139
q173 0 254 142.5t81 463.5zM1016 1763l14 -2q-18 -303 -282 -303q-263 0 -263 303l13 2q23 -76 82 -110.5t168 -34.5q113 0 175 33.5t93 111.5z" />
    <glyph glyph-name="obreve" unicode="&#x14f;" horiz-adv-x="1185" 
d="M1114 510q0 -255 -138.5 -396t-381.5 -141q-241 0 -380.5 131t-139.5 383q0 263 153 398q152 137 385 137q246 0 374 -130t128 -382zM817 494q0 255 -55 346q-56 92 -162 92q-229 0 -229 -428q0 -249 59 -344q60 -97 168 -97q110 0 164.5 99.5t54.5 331.5zM852 1468
l12 -2q-9 -127 -69 -219q-62 -92 -205 -92q-258 0 -258 313l12 2q46 -153 246 -153q107 0 168 36t94 115z" />
    <glyph glyph-name="Ohungarumlaut" unicode="&#x150;" horiz-adv-x="1503" 
d="M1415 702q0 -350 -176.5 -539.5t-497.5 -189.5q-314 0 -483.5 174.5t-169.5 518.5q0 357 191 542t489 185q319 0 483 -176t164 -515zM1087 676q0 150 -16 260.5t-43.5 179t-69.5 110t-88.5 57t-107.5 15.5q-336 0 -336 -606q0 -344 80 -483q83 -139 246 -139
q173 0 254 142.5t81 463.5zM817 1640l-340 -170l-8 11l231 293q59 71 119 71q41 0 67.5 -21.5t26.5 -62.5q0 -74 -96 -121zM1171 1640l-340 -170l-8 11l232 293q56 71 116 71q41 0 69 -21.5t28 -62.5q0 -73 -97 -121z" />
    <glyph glyph-name="ohungarumlaut" unicode="&#x151;" horiz-adv-x="1185" 
d="M1114 510q0 -255 -138.5 -396t-381.5 -141q-241 0 -380.5 131t-139.5 383q0 263 153 398q152 137 385 137q246 0 374 -130t128 -382zM817 494q0 255 -55 346q-56 92 -162 92q-229 0 -229 -428q0 -249 59 -344q60 -97 168 -97q110 0 164.5 99.5t54.5 331.5zM662 1364
l-275 -234l-10 7l145 333q41 89 115 89q42 0 68 -22t26 -60q0 -56 -69 -113zM967 1364l-275 -234l-10 7l145 333q41 89 115 89q42 0 68 -22t26 -60q0 -56 -69 -113z" />
    <glyph glyph-name="OE" unicode="&#x152;" horiz-adv-x="1925" 
d="M1864 319h12q0 -80 -10 -243q-5 -50 -15 -63t-45 -13h-678q-67 0 -208 -6q-123 -8 -211 -8q-623 0 -623 690q0 336 178 520t479 184q77 0 181 -8q117 -6 188 -6h641q33 0 44 -10t11 -41q0 -115 -14 -244h-12q-30 93 -51 129t-56 49q-41 15 -135 15h-209q-32 0 -42.5 -13
t-10.5 -49v-438h143q98 0 164 14q50 12 72 35t47 90h12v-373h-12q-17 61 -45.5 88t-87.5 37q-41 9 -148 9h-145v-457q0 -59 19 -82t77 -23h213q118 0 172 48q50 50 105 169zM975 227v926q0 68 -29 94q-46 37 -158 37q-362 0 -362 -579q0 -161 13.5 -265t47.5 -188
q72 -166 277 -166q141 0 180 39q31 28 31 102z" />
    <glyph glyph-name="oe" unicode="&#x153;" horiz-adv-x="1773" 
d="M944 106q-133 -133 -356 -133q-241 0 -377.5 131t-136.5 383q0 263 153 398q152 137 385 137q245 0 355 -137q113 137 344 137q194 0 294.5 -101t100.5 -282q0 -79 -10 -96q-10 -19 -62 -19h-532v-30q0 -116 30 -196t85 -116q93 -61 198 -61q152 0 277 96l8 -2v-12
q0 -20 -10 -47q-33 -75 -135 -129t-242 -54q-254 0 -369 133zM817 516q0 238 -55 326q-53 90 -160 90q-231 0 -231 -428q0 -251 59 -346t168 -95q110 0 164 97q55 94 55 356zM1106 614h319q5 45 5 58q0 142 -31.5 202t-108.5 60q-175 0 -184 -320z" />
    <glyph glyph-name="Racute" unicode="&#x154;" horiz-adv-x="1460" 
d="M682 12v-12h-590v12q85 21 117 64q22 39 22 190v840q0 152 -22 188q-20 32 -117 60v12h506q193 0 307 -18q154 -27 230.5 -112t76.5 -237q0 -128 -76.5 -217t-203.5 -129q51 -28 106 -112q29 -39 58 -88l75 -125l89 -142q50 -80 90.5 -118t91.5 -50v-10
q-154 -16 -234 -16q-145 0 -196 39q-65 50 -135 196l-154 308q-35 59 -115 59h-76v-336q0 -150 27 -184q30 -35 123 -62zM532 1196v-502h68q126 0 191 47q92 71 92 238q0 210 -113 262q-72 29 -145 29h-33q-36 0 -48 -15.5t-12 -58.5zM905 1634l-344 -166l-8 13l227 286
q58 76 117 76q44 0 74 -27.5t30 -70.5q0 -64 -96 -111z" />
    <glyph glyph-name="racute" unicode="&#x155;" horiz-adv-x="882" 
d="M604 10v-10h-545v10q76 31 93 64q20 29 20 139v516q0 145 -31 184q-28 36 -88 48v10q127 39 328 39q52 0 61 -41q4 -36 4 -176q29 103 105 166t172 63q47 0 88 -12q41 -15 41 -64q0 -70 -37 -203h-14q-46 107 -162 107q-61 0 -109.5 -32.5t-68.5 -88.5q-15 -43 -15 -119
v-395q0 -116 27 -143q25 -28 131 -62zM715 1356l-297 -226l-8 7l157 321q46 98 113 98q46 0 75 -24.5t29 -67.5q0 -51 -69 -108z" />
    <glyph glyph-name="Rcommaaccent" unicode="&#x156;" horiz-adv-x="1460" 
d="M682 12v-12h-590v12q85 21 117 64q22 39 22 190v840q0 152 -22 188q-20 32 -117 60v12h506q193 0 307 -18q154 -27 230.5 -112t76.5 -237q0 -128 -76.5 -217t-203.5 -129q51 -28 106 -112q29 -39 58 -88l75 -125l89 -142q50 -80 90.5 -118t91.5 -50v-10
q-154 -16 -234 -16q-145 0 -196 39q-65 50 -135 196l-154 308q-35 59 -115 59h-76v-336q0 -150 27 -184q30 -35 123 -62zM532 1196v-502h68q126 0 191 47q92 71 92 238q0 210 -113 262q-72 29 -145 29h-33q-36 0 -48 -15.5t-12 -58.5zM598 -586l-8 15q153 102 153 209
q0 36 -49 73q-51 36 -51 90q0 46 33.5 77.5t91.5 31.5q63 0 101 -44.5t38 -117.5q0 -111 -94 -199q-91 -88 -215 -135z" />
    <glyph glyph-name="rcommaaccent" unicode="&#x157;" horiz-adv-x="882" 
d="M604 10v-10h-545v10q76 31 93 64q20 29 20 139v516q0 145 -31 184q-28 36 -88 48v10q127 39 328 39q52 0 61 -41q4 -36 4 -176q29 103 105 166t172 63q47 0 88 -12q41 -15 41 -64q0 -70 -37 -203h-14q-46 107 -162 107q-61 0 -109.5 -32.5t-68.5 -88.5q-15 -43 -15 -119
v-395q0 -116 27 -143q25 -28 131 -62zM147 -586l-8 15q154 103 154 209q0 36 -49 73q-51 36 -51 90q0 46 33 77.5t91 31.5q63 0 101.5 -44.5t38.5 -117.5q0 -110 -95 -199q-91 -88 -215 -135z" />
    <glyph glyph-name="Rcaron" unicode="&#x158;" horiz-adv-x="1460" 
d="M682 12v-12h-590v12q85 21 117 64q22 39 22 190v840q0 152 -22 188q-20 32 -117 60v12h506q193 0 307 -18q154 -27 230.5 -112t76.5 -237q0 -128 -76.5 -217t-203.5 -129q51 -28 106 -112q29 -39 58 -88l75 -125l89 -142q50 -80 90.5 -118t91.5 -50v-10
q-154 -16 -234 -16q-145 0 -196 39q-65 50 -135 196l-154 308q-35 59 -115 59h-76v-336q0 -150 27 -184q30 -35 123 -62zM532 1196v-502h68q126 0 191 47q92 71 92 238q0 210 -113 262q-72 29 -145 29h-33q-36 0 -48 -15.5t-12 -58.5zM545 1509l-221 252l8 8l313 -135
l301 138l8 -9l-227 -260q-34 -43 -88 -43q-51 0 -94 49z" />
    <glyph glyph-name="rcaron" unicode="&#x159;" horiz-adv-x="882" 
d="M604 10v-10h-545v10q76 31 93 64q20 29 20 139v516q0 145 -31 184q-28 36 -88 48v10q127 39 328 39q52 0 61 -41q4 -36 4 -176q29 103 105 166t172 63q47 0 88 -12q41 -15 41 -64q0 -70 -37 -203h-14q-46 107 -162 107q-61 0 -109.5 -32.5t-68.5 -88.5q-15 -43 -15 -119
v-395q0 -116 27 -143q25 -28 131 -62zM352 1194l-205 291l7 6l299 -172l286 172l6 -6l-210 -297q-38 -56 -88.5 -55.5t-94.5 61.5z" />
    <glyph glyph-name="Sacute" unicode="&#x15a;" horiz-adv-x="1093" 
d="M106 360h11q39 -112 119 -186q113 -104 276 -104q124 0 190 53t66 137q0 82 -53 135q-61 61 -226 144l-104 55q-154 79 -219.5 174t-65.5 219q0 176 131 289q132 117 402 117q167 0 262 -33q43 -14 58.5 -31t15.5 -53q0 -69 -41 -221h-10q-37 113 -93 166q-77 77 -219 77
q-138 0 -203 -53.5t-65 -138.5q0 -69 49 -127q50 -59 215 -141l96 -47q170 -85 243 -177.5t73 -216.5q0 -195 -138.5 -309.5t-392.5 -114.5q-217 0 -336 70q-65 38 -65 90q0 89 24 227zM791 1634l-345 -166l-8 13l228 286q58 76 116 76q44 0 74.5 -27.5t30.5 -70.5
q0 -64 -96 -111z" />
    <glyph glyph-name="sacute" unicode="&#x15b;" horiz-adv-x="886" 
d="M109 303h14q43 -121 127 -184q74 -53 178 -53q73 0 116.5 33t43.5 89q0 58 -39 91q-38 38 -154 96l-82 41q-209 108 -209 286q0 45 10.5 86.5t39.5 85t74.5 75.5t121.5 52.5t174 20.5q109 0 201 -29q57 -20 57 -63q0 -61 -37 -191h-14q-27 98 -82.5 144.5t-152.5 46.5
q-174 0 -174 -123q0 -51 36 -87t138 -87l71 -37q142 -72 195 -141q53 -65 53 -172q0 -35 -9.5 -72.5t-36.5 -81.5t-69.5 -77.5t-116 -56t-167.5 -22.5q-145 0 -240 39q-49 20 -66.5 44t-17.5 67q0 100 17 180zM668 1356l-297 -226l-9 7l158 321q46 98 113 98q46 0 75 -24.5
t29 -67.5q0 -51 -69 -108z" />
    <glyph glyph-name="Scircumflex" unicode="&#x15c;" horiz-adv-x="1093" 
d="M106 360h11q39 -112 119 -186q113 -104 276 -104q124 0 190 53t66 137q0 82 -53 135q-61 61 -226 144l-104 55q-154 79 -219.5 174t-65.5 219q0 176 131 289q132 117 402 117q167 0 262 -33q43 -14 58.5 -31t15.5 -53q0 -69 -41 -221h-10q-37 113 -93 166q-77 77 -219 77
q-138 0 -203 -53.5t-65 -138.5q0 -69 49 -127q50 -59 215 -141l96 -47q170 -85 243 -177.5t73 -216.5q0 -195 -138.5 -309.5t-392.5 -114.5q-217 0 -336 70q-65 38 -65 90q0 89 24 227zM655 1722l222 -249l-9 -9l-311 135l-303 -137l-8 8l227 256q40 46 92 46q43 0 90 -50z
" />
    <glyph glyph-name="scircumflex" unicode="&#x15d;" horiz-adv-x="886" 
d="M109 303h14q43 -121 127 -184q74 -53 178 -53q73 0 116.5 33t43.5 89q0 58 -39 91q-38 38 -154 96l-82 41q-209 108 -209 286q0 45 10.5 86.5t39.5 85t74.5 75.5t121.5 52.5t174 20.5q109 0 201 -29q57 -20 57 -63q0 -61 -37 -191h-14q-27 98 -82.5 144.5t-152.5 46.5
q-174 0 -174 -123q0 -51 36 -87t138 -87l71 -37q142 -72 195 -141q53 -65 53 -172q0 -35 -9.5 -72.5t-36.5 -81.5t-69.5 -77.5t-116 -56t-167.5 -22.5q-145 0 -240 39q-49 20 -66.5 44t-17.5 67q0 100 17 180zM555 1425l205 -292l-6 -7l-299 174l-287 -174l-6 7l211 299
q41 53 88 53q52 0 94 -60z" />
    <glyph glyph-name="Scedilla" unicode="&#x15e;" horiz-adv-x="1093" 
d="M313 -416v13l9 2q27 -27 86 -27q114 0 114 106q0 103 -100 103q-19 0 -39 -4l-6 6l74 190q-200 9 -304 70q-65 38 -65 90q0 89 24 227h11q39 -112 119 -186q113 -104 276 -104q124 0 190 53t66 137q0 82 -53 135q-61 61 -226 144l-104 55q-154 79 -219.5 174t-65.5 219
q0 176 131 289q132 117 402 117q167 0 262 -33q43 -14 58.5 -31t15.5 -53q0 -69 -41 -221h-10q-37 113 -93 166q-77 77 -219 77q-138 0 -203 -53.5t-65 -138.5q0 -69 49 -127q50 -59 215 -141l96 -47q170 -85 243 -177.5t73 -216.5q0 -190 -130 -303.5t-372 -120.5l-35 -98
q223 0 223 -180q0 -90 -66 -144.5t-171 -54.5q-101 0 -135 49q-15 15 -15 39z" />
    <glyph glyph-name="scedilla" unicode="&#x15f;" horiz-adv-x="886" 
d="M240 -403v10l6 2q21 -27 86 -27q110 0 110 103q0 102 -96 102q-19 0 -39 -4l-6 6l74 186q-112 3 -199 37q-49 20 -66.5 44t-17.5 67q0 100 17 180h14q43 -121 127 -184q74 -53 178 -53q73 0 116.5 33t43.5 89q0 58 -39 91q-38 38 -154 96l-82 41q-209 108 -209 286
q0 45 10.5 86.5t39.5 85t74.5 75.5t121.5 52.5t174 20.5q109 0 201 -29q57 -20 57 -63q0 -61 -37 -191h-14q-27 98 -82.5 144.5t-152.5 46.5q-174 0 -174 -123q0 -51 36 -87t138 -87l71 -37q142 -72 195 -141q53 -65 53 -172q0 -35 -9 -72t-35.5 -80t-67 -76.5t-111 -56.5
t-160.5 -25l-33 -94q215 0 215 -176q0 -87 -61 -139.5t-160 -52.5q-111 0 -141 47q-12 18 -12 39z" />
    <glyph glyph-name="Scaron" unicode="&#x160;" horiz-adv-x="1093" 
d="M106 360h11q39 -112 119 -186q113 -104 276 -104q124 0 190 53t66 137q0 82 -53 135q-61 61 -226 144l-104 55q-154 79 -219.5 174t-65.5 219q0 176 131 289q132 117 402 117q167 0 262 -33q43 -14 58.5 -31t15.5 -53q0 -69 -41 -221h-10q-37 113 -93 166q-77 77 -219 77
q-138 0 -203 -53.5t-65 -138.5q0 -69 49 -127q50 -59 215 -141l96 -47q170 -85 243 -177.5t73 -216.5q0 -195 -138.5 -309.5t-392.5 -114.5q-217 0 -336 70q-65 38 -65 90q0 89 24 227zM463 1509l-221 252l8 8l313 -135l301 138l8 -9l-227 -260q-34 -43 -88 -43
q-51 0 -94 49z" />
    <glyph glyph-name="scaron" unicode="&#x161;" horiz-adv-x="886" 
d="M109 303h14q43 -121 127 -184q74 -53 178 -53q73 0 116.5 33t43.5 89q0 58 -39 91q-38 38 -154 96l-82 41q-209 108 -209 286q0 45 10.5 86.5t39.5 85t74.5 75.5t121.5 52.5t174 20.5q109 0 201 -29q57 -20 57 -63q0 -61 -37 -191h-14q-27 98 -82.5 144.5t-152.5 46.5
q-174 0 -174 -123q0 -51 36 -87t138 -87l71 -37q142 -72 195 -141q53 -65 53 -172q0 -35 -9.5 -72.5t-36.5 -81.5t-69.5 -77.5t-116 -56t-167.5 -22.5q-145 0 -240 39q-49 20 -66.5 44t-17.5 67q0 100 17 180zM373 1194l-205 291l6 6l299 -172l287 172l6 -6l-211 -297
q-38 -56 -88 -55.5t-94 61.5z" />
    <glyph glyph-name="uni0162" unicode="&#x162;" horiz-adv-x="1255" 
d="M436 -416v13l8 2q27 -27 86 -27q115 0 115 106q0 103 -100 103q-19 0 -39 -4l-6 6l84 217h-258v12q94 24 118 64q23 30 23 190v938q0 36 -11.5 49t-45.5 13h-60q-112 0 -155 -19q-74 -31 -140 -198h-12q-10 160 -10 266q0 31 8 41t37 10h1077q30 0 38.5 -8.5t8.5 -38.5
q0 -88 -10 -270h-12q-35 98 -65.5 141t-72.5 57q-49 19 -159 19h-58q-35 0 -47 -13t-12 -49v-938q0 -148 29 -192q27 -41 116 -62v-12h-266l-45 -125q223 0 223 -180q0 -90 -66 -144.5t-171 -54.5q-101 0 -135 49q-15 15 -15 39z" />
    <glyph glyph-name="uni0163" unicode="&#x163;" horiz-adv-x="694" 
d="M227 -403v10l6 2q21 -27 86 -27q111 0 111 103q0 102 -96 102q-19 0 -39 -4l-6 6l78 193q-162 15 -183 161q-8 60 -8 168v572h-133v57q82 25 139 51q60 28 127 103.5t115 185.5h29v-285h192v-112h-192v-576q0 -81 4 -121q8 -50 31.5 -71t76.5 -21q67 0 133 29l7 -8
q-102 -126 -283 -135l-35 -101q215 0 215 -176q0 -87 -61 -139.5t-160 -52.5q-111 0 -141 47q-13 20 -13 39z" />
    <glyph glyph-name="Tcaron" unicode="&#x164;" horiz-adv-x="1255" 
d="M911 12v-12h-585v12q94 24 118 64q23 30 23 190v938q0 36 -11.5 49t-45.5 13h-60q-112 0 -155 -19q-74 -31 -140 -198h-12q-10 160 -10 266q0 31 8 41t37 10h1077q30 0 38.5 -8.5t8.5 -38.5q0 -88 -10 -270h-12q-35 98 -65.5 141t-72.5 57q-49 19 -159 19h-58
q-35 0 -47 -13t-12 -49v-938q0 -148 29 -192q27 -41 116 -62zM524 1509l-221 252l8 8l314 -135l301 138l8 -9l-227 -260q-34 -43 -89 -43q-51 0 -94 49z" />
    <glyph glyph-name="tcaron" unicode="&#x165;" horiz-adv-x="694" 
d="M698 123l7 -8q-108 -135 -293 -135q-204 0 -228 163q-8 60 -8 168v572h-133v57q82 25 139 51q60 28 127 103.5t115 185.5h29v-285h192v-112h-192v-576q0 -81 4 -121q8 -50 31.5 -71t76.5 -21q67 0 133 29zM565 1087l-8 13q154 103 154 211q0 39 -49 73q-52 40 -52 91
q0 46 33.5 77t91.5 31q63 0 101 -45t38 -117q0 -112 -94 -200q-89 -87 -215 -134z" />
    <glyph glyph-name="Tbar" unicode="&#x166;" horiz-adv-x="1255" 
d="M924 12v-12h-586v12q95 24 119 64q22 28 22 190v424h-272v107h272v407q0 36 -11.5 49t-45.5 13h-60q-112 0 -155 -19q-72 -31 -139 -198h-13q-10 160 -10 266q0 31 8 41t37 10h1077q30 0 38.5 -8.5t8.5 -38.5q0 -88 -10 -270h-12q-35 98 -65 141t-72 57q-49 19 -160 19
h-57q-35 0 -47.5 -13t-12.5 -49v-407h291v-107h-291v-424q0 -148 29 -192q27 -41 117 -62z" />
    <glyph glyph-name="tbar" unicode="&#x167;" horiz-adv-x="694" 
d="M698 123l7 -8q-108 -135 -293 -135q-204 0 -228 163q-8 60 -8 168v262h-129v101h129v209h-133v57q82 25 139 51q60 28 127 103.5t115 185.5h29v-285h192v-112h-192v-209h186v-101h-186v-266q0 -81 4 -121q8 -50 31.5 -71t76.5 -21q67 0 133 29z" />
    <glyph glyph-name="Utilde" unicode="&#x168;" horiz-adv-x="1472" 
d="M74 1354v12h583v-12q-90 -21 -118 -60q-25 -36 -25 -141v-664q0 -161 29 -243q59 -160 288 -160q163 0 244 96q72 90 72 297v658q0 82 -11.5 117t-39.5 57q-46 32 -92 43v12h401v-12q-46 -11 -84 -41q-55 -40 -55 -176v-621q0 -251 -80 -360q-130 -183 -441 -183
q-369 0 -477 205q-55 107 -55 342v621q0 131 -33 164q-28 31 -106 49zM1104 1743l12 -4q-56 -238 -182 -238q-67 0 -160 37q-87 37 -143 37q-98 0 -139 -90l-13 4q65 250 187 250q37 0 75 -17q11 -4 43 -16.5t35 -13.5q91 -39 148 -39q84 0 137 90z" />
    <glyph glyph-name="utilde" unicode="&#x169;" horiz-adv-x="1234" 
d="M797 168q-46 -95 -131 -145t-187 -50q-242 0 -303 168q-24 67 -24 211v367q0 148 -15 178q-19 45 -104 72v14q132 27 329 27q45 0 58.5 -10t13.5 -46q0 -2 -0.5 -18t-1.5 -49t-2 -70q-4 -168 -4 -203v-211q0 -183 49 -229q39 -39 125 -39q85 0 131 43q33 30 41 60
q12 40 12 149v320q0 151 -18 186q-16 29 -38 44.5t-62 31.5v14q138 27 342 27q36 0 47.5 -10t11.5 -44q0 -1 -0.5 -18t-1.5 -54.5t-2 -80.5q-4 -196 -4 -223v-353q0 -149 98 -149q36 0 60 4l4 -8q-36 -38 -106 -65t-136 -27q-173 0 -182 186zM915 1421l13 -4
q-52 -237 -170 -237q-71 0 -150 39q-75 34 -131 34q-87 0 -131 -90l-12 4q59 250 176 250q31 0 68 -14q10 -3 38.5 -16t34.5 -15q93 -41 137 -41q80 0 127 90z" />
    <glyph glyph-name="Umacron" unicode="&#x16a;" horiz-adv-x="1472" 
d="M74 1354v12h583v-12q-90 -21 -118 -60q-25 -36 -25 -141v-664q0 -161 29 -243q59 -160 288 -160q163 0 244 96q72 90 72 297v658q0 82 -11.5 117t-39.5 57q-46 32 -92 43v12h401v-12q-46 -11 -84 -41q-55 -40 -55 -176v-621q0 -251 -80 -360q-130 -183 -441 -183
q-369 0 -477 205q-55 107 -55 342v621q0 131 -33 164q-28 31 -106 49zM1053 1655v-150h-570v150h570z" />
    <glyph glyph-name="umacron" unicode="&#x16b;" horiz-adv-x="1234" 
d="M797 168q-46 -95 -131 -145t-187 -50q-242 0 -303 168q-24 67 -24 211v367q0 148 -15 178q-19 45 -104 72v14q132 27 329 27q45 0 58.5 -10t13.5 -46q0 -2 -0.5 -18t-1.5 -49t-2 -70q-4 -168 -4 -203v-211q0 -183 49 -229q39 -39 125 -39q85 0 131 43q33 30 41 60
q12 40 12 149v320q0 151 -18 186q-16 29 -38 44.5t-62 31.5v14q138 27 342 27q36 0 47.5 -10t11.5 -44q0 -1 -0.5 -18t-1.5 -54.5t-2 -80.5q-4 -196 -4 -223v-353q0 -149 98 -149q36 0 60 4l4 -8q-36 -38 -106 -65t-136 -27q-173 0 -182 186zM879 1364v-150h-547v150h547z
" />
    <glyph glyph-name="Ubreve" unicode="&#x16c;" horiz-adv-x="1472" 
d="M74 1354v12h583v-12q-90 -21 -118 -60q-25 -36 -25 -141v-664q0 -161 29 -243q59 -160 288 -160q163 0 244 96q72 90 72 297v658q0 82 -11.5 117t-39.5 57q-46 32 -92 43v12h401v-12q-46 -11 -84 -41q-55 -40 -55 -176v-621q0 -251 -80 -360q-130 -183 -441 -183
q-369 0 -477 205q-55 107 -55 342v621q0 131 -33 164q-28 31 -106 49zM1038 1763l15 -2q-18 -303 -283 -303q-262 0 -262 303l12 2q23 -76 82 -110.5t168 -34.5q113 0 175 33.5t93 111.5z" />
    <glyph glyph-name="ubreve" unicode="&#x16d;" horiz-adv-x="1234" 
d="M797 168q-46 -95 -131 -145t-187 -50q-242 0 -303 168q-24 67 -24 211v367q0 148 -15 178q-19 45 -104 72v14q132 27 329 27q45 0 58.5 -10t13.5 -46q0 -2 -0.5 -18t-1.5 -49t-2 -70q-4 -168 -4 -203v-211q0 -183 49 -229q39 -39 125 -39q85 0 131 43q33 30 41 60
q12 40 12 149v320q0 151 -18 186q-16 29 -38 44.5t-62 31.5v14q138 27 342 27q36 0 47.5 -10t11.5 -44q0 -1 -0.5 -18t-1.5 -54.5t-2 -80.5q-4 -196 -4 -223v-353q0 -149 98 -149q36 0 60 4l4 -8q-36 -38 -106 -65t-136 -27q-173 0 -182 186zM850 1468l12 -2
q-9 -127 -69 -219q-62 -92 -205 -92q-258 0 -258 313l12 2q46 -153 246 -153q107 0 168 36t94 115z" />
    <glyph glyph-name="Uring" unicode="&#x16e;" horiz-adv-x="1472" 
d="M74 1354v12h583v-12q-90 -21 -118 -60q-25 -36 -25 -141v-664q0 -161 29 -243q59 -160 288 -160q163 0 244 96q72 90 72 297v658q0 82 -11.5 117t-39.5 57q-46 32 -92 43v12h401v-12q-46 -11 -84 -41q-55 -40 -55 -176v-621q0 -251 -80 -360q-130 -183 -441 -183
q-369 0 -477 205q-55 107 -55 342v621q0 131 -33 164q-28 31 -106 49zM946 1620q0 -71 -47 -121q-47 -47 -119 -47q-74 0 -121 47q-45 45 -45 121q0 73 47.5 118.5t122.5 45.5q72 0 117 -45.5t45 -118.5zM891 1618q0 54 -30.5 86.5t-80.5 32.5q-49 0 -79.5 -33t-30.5 -84
t31 -85t83 -34q49 0 78 33t29 84z" />
    <glyph glyph-name="uring" unicode="&#x16f;" horiz-adv-x="1234" 
d="M797 168q-46 -95 -131 -145t-187 -50q-242 0 -303 168q-24 67 -24 211v367q0 148 -15 178q-19 45 -104 72v14q132 27 329 27q45 0 58.5 -10t13.5 -46q0 -2 -0.5 -18t-1.5 -49t-2 -70q-4 -168 -4 -203v-211q0 -183 49 -229q39 -39 125 -39q85 0 131 43q33 30 41 60
q12 40 12 149v320q0 151 -18 186q-16 29 -38 44.5t-62 31.5v14q138 27 342 27q36 0 47.5 -10t11.5 -44q0 -1 -0.5 -18t-1.5 -54.5t-2 -80.5q-4 -196 -4 -223v-353q0 -149 98 -149q36 0 60 4l4 -8q-36 -38 -106 -65t-136 -27q-173 0 -182 186zM774 1307q0 -76 -51 -127
q-49 -52 -129 -52q-78 0 -131 50q-49 52 -49 129q0 78 51 126t133 48q79 0 127.5 -48t48.5 -126zM717 1305q0 55 -34.5 90t-88.5 35q-55 0 -88 -33.5t-33 -89.5t33.5 -91.5t91.5 -35.5q53 0 86 35t33 90z" />
    <glyph glyph-name="Uhungarumlaut" unicode="&#x170;" horiz-adv-x="1472" 
d="M74 1354v12h583v-12q-90 -21 -118 -60q-25 -36 -25 -141v-664q0 -161 29 -243q59 -160 288 -160q163 0 244 96q72 90 72 297v658q0 82 -11.5 117t-39.5 57q-46 32 -92 43v12h401v-12q-46 -11 -84 -41q-55 -40 -55 -176v-621q0 -251 -80 -360q-130 -183 -441 -183
q-369 0 -477 205q-55 107 -55 342v621q0 131 -33 164q-28 31 -106 49zM815 1640l-340 -170l-8 11l231 293q59 71 119 71q41 0 67.5 -21.5t26.5 -62.5q0 -74 -96 -121zM1169 1640l-340 -170l-8 11l232 293q56 71 116 71q41 0 69 -21.5t28 -62.5q0 -73 -97 -121z" />
    <glyph glyph-name="uhungarumlaut" unicode="&#x171;" horiz-adv-x="1234" 
d="M797 168q-46 -95 -131 -145t-187 -50q-242 0 -303 168q-24 67 -24 211v367q0 148 -15 178q-19 45 -104 72v14q132 27 329 27q45 0 58.5 -10t13.5 -46q0 -2 -0.5 -18t-1.5 -49t-2 -70q-4 -168 -4 -203v-211q0 -183 49 -229q39 -39 125 -39q85 0 131 43q33 30 41 60
q12 40 12 149v320q0 151 -18 186q-16 29 -38 44.5t-62 31.5v14q138 27 342 27q36 0 47.5 -10t11.5 -44q0 -1 -0.5 -18t-1.5 -54.5t-2 -80.5q-4 -196 -4 -223v-353q0 -149 98 -149q36 0 60 4l4 -8q-36 -38 -106 -65t-136 -27q-173 0 -182 186zM655 1364l-274 -234l-10 7
l145 333q41 89 115 89q42 0 68 -22t26 -60q0 -55 -70 -113zM961 1364l-275 -234l-10 7l145 333q41 89 115 89q42 0 68 -22t26 -60q0 -56 -69 -113z" />
    <glyph glyph-name="Uogonek" unicode="&#x172;" horiz-adv-x="1472" 
d="M899 -356l6 -4v-9q0 -14 -16 -30q-52 -52 -152 -52q-98 0 -155.5 51t-57.5 134q0 148 205 239q-355 3 -461 205q-55 107 -55 342v621q0 131 -33 164q-28 31 -106 49v12h583v-12q-90 -21 -118 -60q-25 -36 -25 -141v-664q0 -161 29 -243q59 -160 288 -160q163 0 244 96
q72 90 72 297v658q0 82 -11.5 117t-39.5 57q-46 32 -92 43v12h401v-12q-46 -11 -84 -41q-55 -40 -55 -176v-621q0 -251 -80 -360q-114 -166 -385 -181q-105 -105 -105 -217q0 -129 113 -129q55 0 90 15z" />
    <glyph glyph-name="uogonek" unicode="&#x173;" horiz-adv-x="1234" 
d="M1085 -352l7 -4v-9q0 -8 -17 -28q-49 -49 -147 -49q-95 0 -150 49.5t-55 130.5q0 151 219 246q-139 18 -145 184q-46 -95 -131 -145t-187 -50q-242 0 -303 168q-24 67 -24 211v367q0 148 -15 178q-19 45 -104 72v14q132 27 329 27q45 0 58.5 -10t13.5 -46q0 -2 -0.5 -18
t-1.5 -49t-2 -70q-4 -168 -4 -203v-211q0 -183 49 -229q39 -39 125 -39q85 0 131 43q33 30 41 60q12 40 12 149v320q0 151 -18 186q-16 29 -38 44.5t-62 31.5v14q138 27 342 27q36 0 47.5 -10t11.5 -44q0 -1 -0.5 -18t-1.5 -54.5t-2 -80.5q-4 -196 -4 -223v-353
q0 -149 98 -149q36 0 60 4l4 -8q-32 -35 -96 -61.5t-130 -30.5q-106 -103 -106 -220q0 -129 108 -129q45 0 88 15z" />
    <glyph glyph-name="Wcircumflex" unicode="&#x174;" horiz-adv-x="1964" 
d="M674 0h-211l-78 313l-221 867q-27 108 -74 143q-20 16 -65 31v12h563v-12q-59 -16 -80 -29q-37 -21 -37 -63q0 -46 14 -101q158 -650 191 -821q43 174 285 993h217q257 -802 305 -995l178 799q16 78 16 108q0 53 -53 80q-38 20 -74 29v12h389v-12l-61 -27
q-50 -27 -80 -143l-221 -879l-76 -305h-211q-295 1008 -307 1053q-46 -193 -309 -1053zM1135 1722l221 -249l-8 -9l-312 135l-303 -137l-8 8l227 256q40 46 92 46q44 0 91 -50z" />
    <glyph glyph-name="wcircumflex" unicode="&#x175;" horiz-adv-x="1636" 
d="M582 0h-201q-23 96 -236 831q-26 95 -69 132q-4 4 -13.5 8t-19.5 8.5t-12 5.5v10h530v-10q-54 -14 -80 -31q-41 -19 -45 -65.5t17 -110.5q87 -347 120 -518q56 175 230 692h194q211 -614 230 -692q20 91 22 98q29 100 113 437q16 75 16 100q0 36 -37 57q-29 18 -75 33v10
h342v-10q-56 -26 -80 -53q-20 -23 -45 -111l-228 -821h-198q-195 589 -232 727q-78 -245 -243 -727zM961 1425l204 -292l-6 -7l-299 174l-287 -174l-6 7l211 299q41 53 88 53q53 0 95 -60z" />
    <glyph glyph-name="Ycircumflex" unicode="&#x176;" horiz-adv-x="1353" 
d="M973 12v-12h-584v12q88 21 117 64q22 39 22 182v348l-364 604q-47 78 -90 115q-32 26 -60 29v12h586v-12q-56 -12 -80 -27q-24 -18 -24 -39q0 -34 32 -88q200 -340 258 -444l39 69q89 151 205 353q37 61 37 102q0 25 -27 43q-43 24 -69 31v12h368v-12q-29 -7 -69 -39
q-38 -38 -84 -109l-355 -565v-383q0 -157 27 -184q27 -34 115 -62zM852 1722l221 -249l-8 -9l-311 135l-303 -137l-9 8l228 256q40 46 92 46q43 0 90 -50z" />
    <glyph glyph-name="ycircumflex" unicode="&#x177;" horiz-adv-x="1169" 
d="M176 -231h14q31 -97 117 -97q74 0 127 62q73 98 133 266h-78q-70 182 -346 829q-46 101 -75 127q-24 18 -52 29v10h535v-10q-47 -14 -90 -37q-29 -19 -29 -45q0 -35 21 -88q179 -466 219 -592l215 586q18 53 18 90q0 28 -26 45q-59 30 -95 41v10h369v-10q-30 -9 -51 -24
q-48 -36 -94 -148l-322 -811q-113 -292 -188 -389q-88 -111 -224 -111q-50 0 -88 15q-41 15 -41 63q0 68 31 189zM733 1425l205 -292l-6 -7l-299 174l-287 -174l-6 7l211 299q41 53 88 53q52 0 94 -60z" />
    <glyph glyph-name="Ydieresis" unicode="&#x178;" horiz-adv-x="1353" 
d="M973 12v-12h-584v12q88 21 117 64q22 39 22 182v348l-364 604q-47 78 -90 115q-32 26 -60 29v12h586v-12q-56 -12 -80 -27q-24 -18 -24 -39q0 -34 32 -88q200 -340 258 -444l39 69q89 151 205 353q37 61 37 102q0 25 -27 43q-43 24 -69 31v12h368v-12q-29 -7 -69 -39
q-38 -38 -84 -109l-355 -565v-383q0 -157 27 -184q27 -34 115 -62zM528 1473q-54 0 -88 34.5t-34 89.5q0 54 35 90.5t89 36.5q55 0 88 -35.5t33 -91.5t-34 -90t-89 -34zM924 1473q-54 0 -88.5 34.5t-34.5 89.5q0 54 35.5 90.5t89.5 36.5q55 0 88 -35.5t33 -91.5t-34 -90
t-89 -34z" />
    <glyph glyph-name="Zacute" unicode="&#x179;" horiz-adv-x="1284" 
d="M1157 0h-1134v14l772 1256q-295 -2 -461 -8q-116 -3 -154 -62q-28 -42 -55 -133h-12q-19 146 -19 248q0 30 8.5 40.5t34.5 10.5h1053v-16l-762 -1248q294 0 520 4q124 3 168 50q32 35 94 149h13q0 -152 -13 -266q-3 -39 -53 -39zM842 1634l-344 -166l-9 13l228 286
q58 76 117 76q44 0 74 -27.5t30 -70.5q0 -64 -96 -111z" />
    <glyph glyph-name="zacute" unicode="&#x17a;" horiz-adv-x="1034" 
d="M913 0h-882v20q554 838 592 889q-202 0 -312 -4q-103 -3 -131 -63q-25 -50 -47 -131h-14q-23 108 -23 225q0 36 10.5 47.5t43.5 11.5h825v-20l-596 -883q115 0 315 4q147 3 187 37q42 36 100 170h14q0 -126 -10 -256q-1 -26 -17.5 -36.5t-54.5 -10.5zM764 1356l-297 -226
l-8 7l157 321q46 98 113 98q46 0 75.5 -24.5t29.5 -67.5q0 -50 -70 -108z" />
    <glyph glyph-name="Zdotaccent" unicode="&#x17b;" horiz-adv-x="1284" 
d="M1157 0h-1134v14l772 1256q-295 -2 -461 -8q-116 -3 -154 -62q-28 -42 -55 -133h-12q-19 146 -19 248q0 30 8.5 40.5t34.5 10.5h1053v-16l-762 -1248q294 0 520 4q124 3 168 50q32 35 94 149h13q0 -152 -13 -266q-3 -39 -53 -39zM778 1597q0 -55 -36.5 -91t-90.5 -36
q-56 0 -92.5 36t-36.5 91q0 54 37.5 90.5t93.5 36.5q54 0 89.5 -36.5t35.5 -90.5z" />
    <glyph glyph-name="zdotaccent" unicode="&#x17c;" horiz-adv-x="1034" 
d="M913 0h-882v20q554 838 592 889q-202 0 -312 -4q-103 -3 -131 -63q-25 -50 -47 -131h-14q-23 108 -23 225q0 36 10.5 47.5t43.5 11.5h825v-20l-596 -883q115 0 315 4q147 3 187 37q42 36 100 170h14q0 -126 -10 -256q-1 -26 -17.5 -36.5t-54.5 -10.5zM535 1157
q-54 0 -89.5 36.5t-35.5 92.5q0 57 34.5 92t90.5 35q57 0 90.5 -35t33.5 -92q0 -58 -34 -93.5t-90 -35.5z" />
    <glyph glyph-name="Zcaron" unicode="&#x17d;" horiz-adv-x="1284" 
d="M1157 0h-1134v14l772 1256q-295 -2 -461 -8q-116 -3 -154 -62q-28 -42 -55 -133h-12q-19 146 -19 248q0 30 8.5 40.5t34.5 10.5h1053v-16l-762 -1248q294 0 520 4q124 3 168 50q32 35 94 149h13q0 -152 -13 -266q-3 -39 -53 -39zM553 1509l-221 252l8 8l313 -135l301 138
l9 -9l-228 -260q-34 -43 -88 -43q-51 0 -94 49z" />
    <glyph glyph-name="zcaron" unicode="&#x17e;" horiz-adv-x="1034" 
d="M913 0h-882v20q554 838 592 889q-202 0 -312 -4q-103 -3 -131 -63q-25 -50 -47 -131h-14q-23 108 -23 225q0 36 10.5 47.5t43.5 11.5h825v-20l-596 -883q115 0 315 4q147 3 187 37q42 36 100 170h14q0 -126 -10 -256q-1 -26 -17.5 -36.5t-54.5 -10.5zM444 1194l-204 291
l6 6l299 -172l286 172l7 -6l-211 -297q-38 -56 -88.5 -55.5t-94.5 61.5z" />
    <glyph glyph-name="longs" unicode="&#x17f;" horiz-adv-x="661" 
d="M608 10v-10h-545v10q69 28 89 60q24 40 24 178v688q0 196 31 281q85 229 397 229q94 0 144 -16q30 -10 40.5 -23.5t10.5 -40.5q0 -53 -35 -178h-14q-21 93 -76 139q-37 29 -90 29q-67 0 -103 -51q-30 -49 -30 -224v-819q0 -162 16 -184q23 -33 141 -68z" />
    <glyph glyph-name="uni018F" unicode="&#x18f;" horiz-adv-x="1429" 
d="M1006 524h-580q-4 -36 -4 -94q0 -360 283 -360q139 0 215 98q77 100 86 356zM195 641h817v47q0 318 -133 426q-60 52 -128.5 72t-164.5 20q-257 0 -428 -151l-11 4v14q0 23 17 62q48 106 184.5 177.5t341.5 71.5q355 0 502 -182q149 -180 149 -512q0 -345 -167.5 -531
t-485.5 -186q-288 0 -444 144q-154 145 -154 381q0 94 16 116q15 27 89 27z" />
    <glyph glyph-name="florin" unicode="&#x192;" horiz-adv-x="1116" 
d="M889 817v-115h-234l-57 -526q-27 -260 -160 -381q-122 -110 -295 -110q-115 0 -174 26q-41 18 -41 72q0 67 33 162h14q35 -164 158 -164q86 0 127 84q36 77 57 299l50 538h-193v115h203q35 293 145 412q119 125 334 125q137 0 199 -33q47 -24 47 -70t-51 -192h-11
q-30 119 -69 162t-109 43q-78 0 -121 -64q-37 -57 -49 -174l-24 -209h221z" />
    <glyph glyph-name="Aringacute" unicode="&#x1fa;" horiz-adv-x="1411" 
d="M877 1499q0 -82 -60 -133q10 -30 107 -305l311 -854q48 -121 84 -154q26 -26 82 -41v-12h-586v12q64 12 94 35q27 21 27 55t-31 125l-86 236h-430l-80 -248q-24 -71 -24 -121q0 -32 24 -47q25 -20 94 -35v-12h-391v12q42 10 66 29q45 34 92 154l315 849l115 324
q-55 49 -55 131q0 73 47.5 118.5t122.5 45.5q72 0 117 -45.5t45 -118.5zM424 565h364l-180 547q-3 -10 -7 -22.5t-9.5 -29.5t-9.5 -28l-62 -180q-17 -47 -48.5 -144t-47.5 -143zM928 1853l-314 -149l-6 10l207 262q59 68 105 68q39 0 66.5 -25t27.5 -65q0 -60 -86 -101z
M821 1497q0 52 -30 84.5t-80 32.5q-51 0 -81 -32t-30 -83t31 -84t84 -33q49 0 77.5 32t28.5 83z" />
    <glyph glyph-name="aringacute" unicode="&#x1fb;" horiz-adv-x="1067" 
d="M645 147q-30 -78 -101 -125t-171 -47q-139 0 -221 77t-82 202q0 178 194 231q116 33 262 52q79 12 88 24q13 16 13 55v60q0 105 -39 141q-47 47 -160 47q-185 0 -268 -92h-8q-7 28 -7 41q0 87 103.5 148t286.5 61q188 0 278 -77.5t90 -252.5q0 -94 -2 -215v-266
q0 -76 20.5 -103.5t69.5 -27.5q45 0 64 8l4 -8q-38 -43 -103 -70.5t-125 -27.5q-90 0 -132 38t-54 127zM627 244v237q-15 -9 -62 -18q-122 -28 -162 -51q-59 -41 -59 -133q0 -79 40 -121.5t105 -42.5q84 0 125 59q13 16 13 70zM713 1290q0 -76 -51 -127t-130 -51
q-77 0 -127.5 51t-50.5 127q0 78 51.5 127t131.5 49q79 0 127.5 -49t48.5 -127zM657 1288q0 55 -35.5 91t-89.5 36q-55 0 -86.5 -34t-31.5 -91q0 -55 33.5 -91t89.5 -36q53 0 86.5 35t33.5 90zM762 1751l-297 -225l-10 6l157 321q50 99 115 99q46 0 75 -24.5t29 -67.5
q0 -61 -69 -109z" />
    <glyph glyph-name="AEacute" unicode="&#x1fc;" horiz-adv-x="1998" 
d="M459 12v-12h-449v12q66 15 113 62q45 48 98 127l641 954q45 65 45 113q0 51 -121 86v12h1047q30 0 40.5 -11t10.5 -42q0 -122 -12 -242h-12q-31 93 -55.5 131.5t-59.5 48.5q-44 13 -129 13h-205q-37 0 -50 -13t-13 -49v-438h149q97 0 166 16q51 12 73.5 38t41.5 93h12
v-389h-12q-20 66 -45.5 94.5t-83.5 38.5q-52 9 -150 9h-151v-463q0 -57 20 -78t80 -21h215q128 0 172 41q42 36 102 176h11q0 -127 -9 -253q-5 -38 -19.5 -52t-51.5 -14h-957v12q80 23 111 54q29 29 29 145v250h-514l-150 -244q-59 -95 -59 -127t34 -47q59 -24 97 -31z
M1051 1247l-445 -684h445v684zM1602 1634l-345 -166l-8 13l228 286q58 76 116 76q44 0 74.5 -27.5t30.5 -70.5q0 -64 -96 -111z" />
    <glyph glyph-name="aeacute" unicode="&#x1fd;" horiz-adv-x="1574" 
d="M711 135q-67 -82 -140.5 -121t-189.5 -39q-140 0 -229 82.5t-89 206.5q0 207 226 266q129 31 329 39q3 37 3 105q0 109 -39 145q-47 47 -160 47q-189 0 -268 -94l-7 2q-6 24 -6 41q0 85 101.5 146t281.5 61q208 0 275 -123q111 123 313 123q192 0 294.5 -110t102.5 -294
q0 -99 -10 -116q-9 -19 -63 -19h-537v-10q0 -352 309 -352q150 0 287 96l8 -2v-12q0 -19 -10 -49q-33 -74 -136 -127.5t-243 -53.5q-290 0 -403 162zM670 203q-49 116 -49 276q-132 -9 -195 -47q-88 -43 -88 -145q0 -79 44 -122.5t110 -43.5q120 0 178 82zM903 573h328
q4 32 4 109q0 138 -36 195t-114 57q-81 0 -131 -91.5t-51 -269.5zM1085 1356l-297 -226l-8 7l158 321q46 98 113 98q46 0 75 -24.5t29 -67.5q0 -50 -70 -108z" />
    <glyph glyph-name="Oslashacute" unicode="&#x1fe;" horiz-adv-x="1503" 
d="M344 74l-106 -146l-72 54l108 147q-188 176 -188 535q0 358 190 542q191 185 490 185q219 0 367 -86l118 161l72 -53l-117 -158q209 -176 209 -553q0 -350 -177 -539.5t-497 -189.5q-243 0 -397 101zM1085 676q0 228 -34 364l-570 -780q70 -190 277 -190q169 0 248 142
t79 464zM426 692q0 -187 25 -321l563 772q-76 155 -252 155q-70 0 -122.5 -23t-104.5 -81q-109 -128 -109 -502zM999 1634l-344 -166l-8 13l227 286q58 76 117 76q44 0 74.5 -27.5t30.5 -70.5q0 -63 -97 -111z" />
    <glyph glyph-name="oslashacute" unicode="&#x1ff;" horiz-adv-x="1185" 
d="M299 41l-88 -121l-64 45l86 119q-159 132 -159 403q0 263 153 398q152 137 385 137q153 0 265 -53l92 125l63 -45l-88 -121q170 -129 170 -418q0 -255 -138.5 -396t-381.5 -141q-171 0 -295 68zM817 494q0 142 -18 233l-385 -528q53 -136 184 -136q109 0 164 100.5
t55 330.5zM371 504q0 -115 16 -209l383 526q-50 111 -170 111q-229 0 -229 -428zM803 1356l-297 -226l-8 7l157 321q46 98 113 98q46 0 75 -24.5t29 -67.5q0 -51 -69 -108z" />
    <glyph glyph-name="uni0218" unicode="&#x218;" horiz-adv-x="1093" 
d="M106 360h11q39 -112 119 -186q113 -104 276 -104q124 0 190 53t66 137q0 82 -53 135q-61 61 -226 144l-104 55q-154 79 -219.5 174t-65.5 219q0 176 131 289q132 117 402 117q167 0 262 -33q43 -14 58.5 -31t15.5 -53q0 -69 -41 -221h-10q-37 113 -93 166q-77 77 -219 77
q-138 0 -203 -53.5t-65 -138.5q0 -69 49 -127q50 -59 215 -141l96 -47q170 -85 243 -177.5t73 -216.5q0 -195 -138.5 -309.5t-392.5 -114.5q-217 0 -336 70q-65 38 -65 90q0 89 24 227zM346 -586l-8 15q154 103 154 209q0 35 -50 73q-51 36 -51 90q0 46 33.5 77.5t91.5 31.5
q63 0 101 -44.5t38 -117.5q0 -111 -94 -199q-91 -88 -215 -135z" />
    <glyph glyph-name="uni0219" unicode="&#x219;" horiz-adv-x="886" 
d="M109 303h14q43 -121 127 -184q74 -53 178 -53q73 0 116.5 33t43.5 89q0 58 -39 91q-38 38 -154 96l-82 41q-209 108 -209 286q0 45 10.5 86.5t39.5 85t74.5 75.5t121.5 52.5t174 20.5q109 0 201 -29q57 -20 57 -63q0 -61 -37 -191h-14q-27 98 -82.5 144.5t-152.5 46.5
q-174 0 -174 -123q0 -51 36 -87t138 -87l71 -37q142 -72 195 -141q53 -65 53 -172q0 -35 -9.5 -72.5t-36.5 -81.5t-69.5 -77.5t-116 -56t-167.5 -22.5q-145 0 -240 39q-49 20 -66.5 44t-17.5 67q0 100 17 180zM281 -586l-9 15q154 103 154 209q0 36 -49 73q-51 36 -51 90
q0 46 33.5 77.5t91.5 31.5q63 0 101 -44.5t38 -117.5q0 -111 -94 -199q-91 -88 -215 -135z" />
    <glyph glyph-name="uni021A" unicode="&#x21a;" horiz-adv-x="1255" 
d="M911 12v-12h-585v12q94 24 118 64q23 30 23 190v938q0 36 -11.5 49t-45.5 13h-60q-112 0 -155 -19q-74 -31 -140 -198h-12q-10 160 -10 266q0 31 8 41t37 10h1077q30 0 38.5 -8.5t8.5 -38.5q0 -88 -10 -270h-12q-35 98 -65.5 141t-72.5 57q-49 19 -159 19h-58
q-35 0 -47 -13t-12 -49v-938q0 -148 29 -192q27 -41 116 -62zM451 -586l-9 15q154 103 154 209q0 36 -49 73q-51 36 -51 90q0 46 33.5 77.5t91.5 31.5q63 0 101 -44.5t38 -117.5q0 -111 -94 -199q-91 -88 -215 -135z" />
    <glyph glyph-name="uni021B" unicode="&#x21b;" horiz-adv-x="694" 
d="M698 123l7 -8q-108 -135 -293 -135q-204 0 -228 163q-8 60 -8 168v572h-133v57q82 25 139 51q60 28 127 103.5t115 185.5h29v-285h192v-112h-192v-576q0 -81 4 -121q8 -50 31.5 -71t76.5 -21q67 0 133 29zM236 -586l-9 15q154 103 154 209q0 36 -49 73q-51 36 -51 90
q0 46 33.5 77.5t91.5 31.5q63 0 101 -44.5t38 -117.5q0 -111 -94 -199q-91 -88 -215 -135z" />
    <glyph glyph-name="uni0259" unicode="&#x259;" horiz-adv-x="1042" 
d="M674 381h-326q-4 -32 -4 -70q0 -138 38.5 -195t119.5 -57q82 0 123.5 73.5t48.5 248.5zM141 469h537v20q0 80 -11.5 142.5t-32.5 103.5t-47 69t-60.5 42.5t-66.5 20t-71 5.5q-177 0 -293 -94l-8 2v11q0 19 10 49q33 77 137 129.5t254 52.5q251 0 366.5 -131t115.5 -385
q0 -250 -131 -391.5t-359 -141.5q-198 0 -305.5 103.5t-107.5 279.5q0 78 10 95q12 18 63 18z" />
    <glyph glyph-name="circumflex" unicode="&#x2c6;" horiz-adv-x="434" 
d="M309 1425l205 -292l-6 -7l-299 174l-287 -174l-6 7l211 299q41 53 88 53q52 0 94 -60z" />
    <glyph glyph-name="caron" unicode="&#x2c7;" horiz-adv-x="434" 
d="M121 1194l-205 291l6 6l299 -172l287 172l6 -6l-211 -297q-38 -56 -88 -55.5t-94 61.5z" />
    <glyph glyph-name="breve" unicode="&#x2d8;" horiz-adv-x="434" 
d="M473 1468l12 -2q-9 -127 -69 -219q-62 -92 -205 -92q-258 0 -258 313l12 2q47 -153 246 -153q107 0 168 36t94 115z" />
    <glyph glyph-name="dotaccent" unicode="&#x2d9;" horiz-adv-x="430" 
d="M215 1157q-54 0 -89.5 36.5t-35.5 92.5q0 57 34.5 92t90.5 35q57 0 91 -35t34 -92t-34 -93t-91 -36z" />
    <glyph glyph-name="ring" unicode="&#x2da;" horiz-adv-x="434" 
d="M406 1307q0 -75 -52 -127q-49 -52 -129 -52q-78 0 -131 50q-49 52 -49 129q0 78 51 126t133 48q79 0 128 -48t49 -126zM348 1305q0 55 -34.5 90t-88.5 35q-55 0 -88 -33.5t-33 -89.5t33.5 -91.5t91.5 -35.5q53 0 86 35t33 90z" />
    <glyph glyph-name="ogonek" unicode="&#x2db;" horiz-adv-x="430" 
d="M399 -352l7 -4v-9q0 -8 -17 -28q-49 -49 -147 -49q-95 0 -150 49.5t-55 130.5q0 46 14 84q15 42 88.5 95t188.5 93l6 -6q-70 -64 -100.5 -119t-30.5 -123q0 -129 108 -129q45 0 88 15z" />
    <glyph glyph-name="tilde" unicode="&#x2dc;" horiz-adv-x="434" 
d="M502 1421l12 -4q-52 -237 -170 -237q-70 0 -149 39q-75 34 -132 34q-87 0 -131 -90l-12 4q59 250 176 250q31 0 68 -14q10 -3 39 -16t35 -15q93 -41 137 -41q80 0 127 90z" />
    <glyph glyph-name="hungarumlaut" unicode="&#x2dd;" horiz-adv-x="430" 
d="M172 1364l-274 -234l-11 7l146 333q41 89 114 89q42 0 68.5 -22t26.5 -60q0 -55 -70 -113zM477 1364l-274 -234l-10 7l145 333q41 89 115 89q42 0 68 -22t26 -60q0 -55 -70 -113z" />
    <glyph glyph-name="uni0394" unicode="&#x394;" horiz-adv-x="1482" 
d="M864 1366l570 -1366h-1381l570 1366h241zM645 1137q-93 -257 -354 -904h723q-310 746 -369 904z" />
    <glyph glyph-name="uni03A9" unicode="&#x3a9;" horiz-adv-x="1542" 
d="M696 193v-193h-491q-41 0 -57 10t-21 37q-12 65 -12 279h12q38 -88 94 -99q63 -14 344 -14q-170 58 -286 201q-113 143 -113 348q0 169 53.5 298.5t147.5 199.5q178 133 415 133q582 0 582 -598q0 -207 -110 -354t-306 -228q307 3 379 23q49 16 88 90h12
q-6 -184 -18 -279q-6 -47 -84 -47h-498v193q106 52 158.5 202.5t52.5 366.5q0 295 -59 416q-59 120 -207 120q-276 0 -276 -540q0 -470 200 -565z" />
    <glyph glyph-name="uni03BC" unicode="&#x3bc;" horiz-adv-x="1361" 
d="M526 39v-45q0 -71 6 -203q2 -38 3.5 -74t2.5 -52.5t1 -18.5q0 -49 -15 -58q-38 -24 -280 -24l-6 10q14 399 14 799v346q0 136 -14 164q-27 65 -121 86v14q141 27 346 27q42 0 57 -12.5t15 -47.5q0 -2 -1 -19.5t-2 -52t-2 -73.5q-2 -88 -2 -207v-195q0 -102 10 -148.5
t40 -76.5q39 -45 124 -45q91 0 136 45q30 30 39 66q8 39 8 162v301q0 137 -19 180q-19 33 -42 51t-70 31v14q138 27 350 27q37 0 50 -10t13 -44q0 -1 -0.5 -18t-1.5 -54.5t-2 -80.5q-4 -196 -4 -223v-340q0 -92 26 -125t81 -33q35 0 55 4l6 -10q-38 -38 -106.5 -66
t-133.5 -28q-83 0 -126 39.5t-60 144.5q-64 -193 -237 -193q-103 0 -138 66z" />
    <glyph glyph-name="pi" unicode="&#x3c0;" horiz-adv-x="1400" 
d="M283 2l-4 12q135 209 141 764h-31q-78 0 -125 -24.5t-88 -94.5l-16 5q6 169 78 262q51 69 196 69h866v-217h-153v-530q0 -172 94 -172q32 0 74 10l6 -10q-101 -94 -262 -94q-142 0 -172 116q-15 58 -15 189v491h-235q0 -636 -55 -737q-10 -26 -43 -43q-40 -16 -107 -16
q-110 0 -149 20z" />
    <glyph glyph-name="Wgrave" unicode="&#x1e80;" horiz-adv-x="1964" 
d="M674 0h-211l-78 313l-221 867q-27 108 -74 143q-20 16 -65 31v12h563v-12q-59 -16 -80 -29q-37 -21 -37 -63q0 -46 14 -101q158 -650 191 -821q43 174 285 993h217q257 -802 305 -995l178 799q16 78 16 108q0 53 -53 80q-38 20 -74 29v12h389v-12l-61 -27
q-50 -27 -80 -143l-221 -879l-76 -305h-211q-295 1008 -307 1053q-46 -193 -309 -1053zM944 1769l230 -288l-9 -13l-342 166q-98 46 -98 111q0 43 30 70.5t74 27.5q59 0 115 -74z" />
    <glyph glyph-name="wgrave" unicode="&#x1e81;" horiz-adv-x="1636" 
d="M582 0h-201q-23 96 -236 831q-26 95 -69 132q-4 4 -13.5 8t-19.5 8.5t-12 5.5v10h530v-10q-54 -14 -80 -31q-41 -19 -45 -65.5t17 -110.5q87 -347 120 -518q56 175 230 692h194q211 -614 230 -692q20 91 22 98q29 100 113 437q16 75 16 100q0 36 -37 57q-29 18 -75 33v10
h342v-10q-56 -26 -80 -53q-20 -23 -45 -111l-228 -821h-198q-195 589 -232 727q-78 -245 -243 -727zM805 1462l160 -325l-9 -7l-297 226q-71 53 -71 104q0 43 30 69.5t74 26.5q70 0 113 -94z" />
    <glyph glyph-name="Wacute" unicode="&#x1e82;" horiz-adv-x="1964" 
d="M674 0h-211l-78 313l-221 867q-27 108 -74 143q-20 16 -65 31v12h563v-12q-59 -16 -80 -29q-37 -21 -37 -63q0 -46 14 -101q158 -650 191 -821q43 174 285 993h217q257 -802 305 -995l178 799q16 78 16 108q0 53 -53 80q-38 20 -74 29v12h389v-12l-61 -27
q-50 -27 -80 -143l-221 -879l-76 -305h-211q-295 1008 -307 1053q-46 -193 -309 -1053zM1276 1634l-344 -166l-8 13l227 286q58 76 117 76q44 0 74 -27.5t30 -70.5q0 -64 -96 -111z" />
    <glyph glyph-name="wacute" unicode="&#x1e83;" horiz-adv-x="1636" 
d="M582 0h-201q-23 96 -236 831q-26 95 -69 132q-4 4 -13.5 8t-19.5 8.5t-12 5.5v10h530v-10q-54 -14 -80 -31q-41 -19 -45 -65.5t17 -110.5q87 -347 120 -518q56 175 230 692h194q211 -614 230 -692q20 91 22 98q29 100 113 437q16 75 16 100q0 36 -37 57q-29 18 -75 33v10
h342v-10q-56 -26 -80 -53q-20 -23 -45 -111l-228 -821h-198q-195 589 -232 727q-78 -245 -243 -727zM1061 1356l-297 -226l-8 7l157 321q46 98 113 98q46 0 75 -24.5t29 -67.5q0 -51 -69 -108z" />
    <glyph glyph-name="Wdieresis" unicode="&#x1e84;" horiz-adv-x="1964" 
d="M674 0h-211l-78 313l-221 867q-27 108 -74 143q-20 16 -65 31v12h563v-12q-59 -16 -80 -29q-37 -21 -37 -63q0 -46 14 -101q158 -650 191 -821q43 174 285 993h217q257 -802 305 -995l178 799q16 78 16 108q0 53 -53 80q-38 20 -74 29v12h389v-12l-61 -27
q-50 -27 -80 -143l-221 -879l-76 -305h-211q-295 1008 -307 1053q-46 -193 -309 -1053zM852 1473q-54 0 -88.5 34.5t-34.5 89.5q0 54 35.5 90.5t89.5 36.5q55 0 88 -35.5t33 -91.5t-34 -90t-89 -34zM1247 1473q-54 0 -88.5 34.5t-34.5 89.5q0 54 35.5 90.5t89.5 36.5
q55 0 88 -35.5t33 -91.5t-34 -90t-89 -34z" />
    <glyph glyph-name="wdieresis" unicode="&#x1e85;" horiz-adv-x="1636" 
d="M582 0h-201q-23 96 -236 831q-26 95 -69 132q-4 4 -13.5 8t-19.5 8.5t-12 5.5v10h530v-10q-54 -14 -80 -31q-41 -19 -45 -65.5t17 -110.5q87 -347 120 -518q56 175 230 692h194q211 -614 230 -692q20 91 22 98q29 100 113 437q16 75 16 100q0 36 -37 57q-29 18 -75 33v10
h342v-10q-56 -26 -80 -53q-20 -23 -45 -111l-228 -821h-198q-195 589 -232 727q-78 -245 -243 -727zM809 1286q0 -56 -33.5 -90.5t-87.5 -34.5q-51 0 -85 35t-34 90q0 54 34.5 87.5t88.5 33.5t85.5 -33.5t31.5 -87.5zM1180 1286q0 -56 -33.5 -90.5t-87.5 -34.5q-51 0 -85 35
t-34 90q0 54 33.5 87.5t87.5 33.5t86.5 -33.5t32.5 -87.5z" />
    <glyph glyph-name="Ygrave" unicode="&#x1ef2;" horiz-adv-x="1353" 
d="M973 12v-12h-584v12q88 21 117 64q22 39 22 182v348l-364 604q-47 78 -90 115q-32 26 -60 29v12h586v-12q-56 -12 -80 -27q-24 -18 -24 -39q0 -34 32 -88q200 -340 258 -444l39 69q89 151 205 353q37 61 37 102q0 25 -27 43q-43 24 -69 31v12h368v-12q-29 -7 -69 -39
q-38 -38 -84 -109l-355 -565v-383q0 -157 27 -184q27 -34 115 -62zM621 1769l229 -288l-8 -13l-342 166q-99 46 -99 111q0 43 30.5 70.5t74.5 27.5q59 0 115 -74z" />
    <glyph glyph-name="ygrave" unicode="&#x1ef3;" horiz-adv-x="1169" 
d="M176 -231h14q31 -97 117 -97q74 0 127 62q73 98 133 266h-78q-70 182 -346 829q-46 101 -75 127q-24 18 -52 29v10h535v-10q-47 -14 -90 -37q-29 -19 -29 -45q0 -35 21 -88q179 -466 219 -592l215 586q18 53 18 90q0 28 -26 45q-59 30 -95 41v10h369v-10q-30 -9 -51 -24
q-48 -36 -94 -148l-322 -811q-113 -292 -188 -389q-88 -111 -224 -111q-50 0 -88 15q-41 15 -41 63q0 68 31 189zM553 1462l160 -325l-8 -7l-297 226q-72 54 -72 104q0 43 30 69.5t74 26.5q70 0 113 -94z" />
    <glyph glyph-name="endash" unicode="&#x2013;" horiz-adv-x="1171" 
d="M1092 631v-197h-1008v197h1008z" />
    <glyph glyph-name="emdash" unicode="&#x2014;" horiz-adv-x="1988" 
d="M1905 631v-197h-1821v197h1821z" />
    <glyph glyph-name="quoteleft" unicode="&#x2018;" horiz-adv-x="454" 
d="M422 1509l8 -14q-184 -144 -184 -276q0 -56 57 -95t57 -98q0 -60 -37.5 -96.5t-97.5 -36.5q-73 0 -115 50t-42 140q0 126 102 240q107 117 252 186z" />
    <glyph glyph-name="quoteright" unicode="&#x2019;" horiz-adv-x="452" 
d="M37 907l-8 15q186 143 186 276q0 55 -57 94q-60 42 -60 99q0 60 37.5 96.5t97.5 36.5q73 0 115.5 -49.5t42.5 -139.5q0 -130 -104 -243q-102 -114 -250 -185z" />
    <glyph glyph-name="quotesinglbase" unicode="&#x201a;" horiz-adv-x="454" 
d="M37 -326l-8 15q186 143 186 278q0 58 -57 92q-60 42 -60 101q0 57 37.5 94t97.5 37q73 0 115.5 -49.5t42.5 -139.5q0 -127 -102 -241q-101 -113 -252 -187z" />
    <glyph glyph-name="quotedblleft" unicode="&#x201c;" horiz-adv-x="849" 
d="M811 1509l8 -14q-184 -141 -184 -276q0 -55 55 -95q60 -42 60 -98q0 -60 -38 -96.5t-100 -36.5q-70 0 -112.5 50.5t-42.5 139.5q0 126 102 240q107 117 252 186zM422 1509l8 -14q-184 -144 -184 -276q0 -55 55 -95q59 -41 59 -98q0 -60 -37.5 -96.5t-97.5 -36.5
q-73 0 -115 50t-42 140q0 126 102 240q107 117 252 186z" />
    <glyph glyph-name="quotedblright" unicode="&#x201d;" horiz-adv-x="849" 
d="M39 893l-8 14q186 143 186 277q0 55 -57 94q-57 41 -60 98.5t38.5 97t99.5 35.5q70 0 112.5 -50.5t42.5 -137.5q0 -131 -104 -244q-100 -112 -250 -184zM428 893l-8 14q184 144 184 277q0 54 -55 94q-43 31 -54.5 73.5t3.5 77.5t50 59t77 21q73 0 115 -49t42 -139
q0 -131 -104 -244q-100 -112 -250 -184z" />
    <glyph glyph-name="quotedblbase" unicode="&#x201e;" horiz-adv-x="849" 
d="M39 -328l-8 15q186 143 186 276q0 55 -57 94q-57 41 -60 98.5t38.5 97.5t99.5 36q70 0 112.5 -51t42.5 -138q0 -128 -104 -241q-105 -118 -250 -187zM428 -328l-8 15q184 144 184 276q0 54 -55 94q-43 31 -54.5 73.5t3.5 78t50 59.5t77 21q73 0 115 -49.5t42 -139.5
q0 -128 -104 -241q-105 -118 -250 -187z" />
    <glyph glyph-name="dagger" unicode="&#x2020;" horiz-adv-x="1130" 
d="M150 934q0 49 30 79.5t70 30.5q55 0 141 -38q86 -37 146 -54q-14 60 -37 144q-6 22 -15 57.5t-13.5 52.5t-9.5 39t-7 36.5t-2 25.5q0 110 106 110q111 0 111 -108q0 -22 -13 -76q-7 -38 -34 -133q-23 -79 -39 -148q35 12 104 39q124 53 184 53q99 0 99 -100
q0 -117 -101 -117q-38 0 -133 31q-73 27 -153 47q16 -202 45 -475q33 -267 33 -354q0 -47 -28 -76t-71 -29q-102 0 -102 105q0 70 31 358q31 255 45 471q-80 -21 -148 -47q-91 -31 -139 -31q-40 0 -70 29.5t-30 77.5z" />
    <glyph glyph-name="daggerdbl" unicode="&#x2021;" horiz-adv-x="1130" 
d="M532 459q-55 -16 -143 -56q-83 -38 -139 -38q-44 0 -72 29.5t-28 82.5q0 48 28 76.5t72 28.5q30 3 71.5 -8.5t103.5 -34t107 -33.5v397q-67 -15 -143 -45q-85 -33 -139 -33q-40 0 -70 30t-30 79t30 78.5t70 29.5q56 0 139 -38q84 -37 143 -54q-27 122 -34 148
q-5 19 -15 58.5t-13 53.5t-8.5 37.5t-7 37t-1.5 24.5q0 108 106 108q109 0 109 -110q0 -26 -13 -80q-8 -42 -34 -131l-37 -146q35 12 104 39q124 53 184 53q99 0 99 -104q0 -113 -101 -113q-37 0 -135 31q-69 26 -151 47v-397q63 16 151 45q95 31 135 31q101 0 101 -107
q0 -110 -99 -110q-40 0 -81 14q-28 9 -103.5 40t-103.5 40l37 -152q47 -175 47 -217q0 -113 -109 -113q-106 0 -106 111q0 29 12 84q59 241 67 287z" />
    <glyph glyph-name="bullet" unicode="&#x2022;" horiz-adv-x="909" 
d="M772 594q0 -144 -87 -233t-232 -89q-138 0 -226 88q-90 90 -90 228q0 137 90 227t234 90q142 0 226.5 -85.5t84.5 -225.5z" />
    <glyph glyph-name="ellipsis" unicode="&#x2026;" horiz-adv-x="2240" 
d="M567 139q0 -72 -43.5 -117t-115.5 -45q-69 0 -114.5 45t-45.5 117q0 69 46 114.5t118 45.5t113.5 -43t41.5 -117zM1280 139q0 -72 -44 -117t-116 -45q-69 0 -114 45t-45 117q0 69 46 114.5t115 45.5q72 0 115 -43.5t43 -116.5zM1993 139q0 -72 -44.5 -117t-117.5 -45
q-69 0 -113.5 44.5t-44.5 117.5q0 69 45.5 114.5t116.5 45.5q72 0 115 -43.5t43 -116.5z" />
    <glyph glyph-name="perthousand" unicode="&#x2030;" horiz-adv-x="2512" 
d="M721 930q0 -197 -85 -305.5t-247 -108.5q-323 0 -323 422q0 198 87 304t248 106q172 0 246 -105.5t74 -312.5zM516 924q0 200 -24 276t-91 76q-66 0 -95.5 -76t-29.5 -248q0 -202 25 -282q24 -78 96 -78q62 0 90.5 77t28.5 255zM483 -27l688 1428l84 -35l-686 -1427z
M1669 397q0 -197 -85 -305t-247 -108q-325 0 -325 422q0 196 88 302.5t248 106.5q173 0 247 -105t74 -313zM1462 399q0 203 -24 273q-24 71 -95 71q-64 0 -92 -74t-28 -249q0 -204 25.5 -282.5t94.5 -78.5q62 0 90.5 79.5t28.5 260.5zM2447 397q0 -194 -86 -303.5
t-245 -109.5q-326 0 -326 422q0 196 88 302.5t248 106.5q172 0 246.5 -105.5t74.5 -312.5zM2241 399q0 200 -25 273q-24 71 -94 71q-64 0 -92.5 -74t-28.5 -249q0 -203 26 -282t95 -79q62 0 90.5 79.5t28.5 260.5z" />
    <glyph glyph-name="guilsinglleft" unicode="&#x2039;" horiz-adv-x="530" 
d="M86 559l358 361l13 -9l-189 -401l185 -420l-13 -6l-352 358q-32 37 -32.5 59.5t30.5 57.5z" />
    <glyph glyph-name="guilsinglright" unicode="&#x203a;" horiz-adv-x="530" 
d="M446 444l-358 -360l-12 8l188 404l-184 417l12 7l352 -357q35 -35 35 -59t-33 -60z" />
    <glyph glyph-name="fraction" unicode="&#x2044;" horiz-adv-x="190" 
d="M-293 -27l688 1428l82 -35l-686 -1427z" />
    <glyph glyph-name="zero.superior" unicode="&#x2070;" 
d="M698 1278q0 -197 -85.5 -305.5t-247.5 -108.5q-324 0 -324 422q0 198 87.5 304t248.5 106q172 0 246.5 -105.5t74.5 -312.5zM492 1272q0 205 -25 278q-24 74 -94 74q-63 0 -92 -75t-29 -249q0 -210 24 -286q27 -74 97 -74q64 0 91.5 73t27.5 259z" />
    <glyph glyph-name="four.superior" unicode="&#x2074;" 
d="M682 891v-10h-391v10q43 8 69 27q33 20 33 96v67h-360v99l397 516h162q-4 -122 -4 -254v-240h125v-121h-125v-67q0 -80 37 -101q9 -6 57 -22zM139 1202h254q0 46 6 354z" />
    <glyph glyph-name="five.superior" unicode="&#x2075;" 
d="M82 1081h12q14 -58 66.5 -101.5t122.5 -43.5q157 0 157 182q0 83 -39.5 126.5t-103.5 43.5q-80 0 -162 -43l-8 6l49 430h440v-155h-221q-100 2 -176 2l-18 -168q53 35 164 35q132 0 210 -61t78 -189q0 -133 -91.5 -207t-248.5 -74q-140 0 -211 41q-32 17 -32 51
q0 70 12 125z" />
    <glyph glyph-name="six.superior" unicode="&#x2076;" 
d="M268 1270q23 50 74.5 81t112.5 31q114 0 175.5 -61t61.5 -182q0 -122 -82.5 -198.5t-218.5 -76.5q-155 0 -239 97t-84 276q0 211 99 335t290 124q98 0 153 -19q41 -15 41 -43q0 -49 -22 -139h-13q-38 133 -159 133q-97 0 -142.5 -84.5t-46.5 -273.5zM274 1143
q0 -203 111 -203q56 0 80 44t24 146q0 156 -98 156q-54 0 -88 -43q-29 -37 -29 -100z" />
    <glyph glyph-name="seven.superior" unicode="&#x2077;" 
d="M664 1593l-310 -735l-131 19q132 318 336 653q-67 0 -143 -2q-23 0 -60 0.5t-57.5 0.5t-48 -0.5t-44 -2t-34 -4.5t-27.5 -8.5t-16 -12.5q-21 -21 -35 -69h-12q-12 62 -12 202q0 26 14 36.5t47 10.5h533v-88z" />
    <glyph glyph-name="eight.superior" unicode="&#x2078;" 
d="M477 1352q197 -77 197 -246q0 -110 -86.5 -176t-227.5 -66q-143 0 -216.5 55t-73.5 150q0 130 178 182q-146 78 -146 213q0 106 75.5 169t205.5 63q126 0 191 -47t65 -131q0 -114 -162 -166zM287 1231q-86 -62 -86 -156q0 -69 45 -104t112 -35q61 0 100.5 34t39.5 85
q0 62 -43 96q-42 34 -168 80zM442 1370q74 62 74 148q0 54 -36 82t-95 28q-55 0 -88 -28.5t-33 -71.5q0 -46 38 -81.5t140 -76.5z" />
    <glyph glyph-name="nine.superior" unicode="&#x2079;" 
d="M481 1294q-53 -123 -184 -123q-112 0 -174 63.5t-62 184.5t82 199t219 78q316 0 316 -373q0 -212 -97.5 -335.5t-289.5 -123.5q-102 0 -160 25q-37 15 -37 45q0 52 23 139h14q13 -71 57.5 -108t106.5 -37q186 0 186 366zM475 1436q0 104 -25.5 148t-82.5 44
q-109 0 -109 -190q0 -164 98 -164q57 0 90 45q29 40 29 117z" />
    <glyph glyph-name="parenleft.superior" unicode="&#x207d;" horiz-adv-x="411" 
d="M401 743l-8 -18q-325 114 -325 539q0 177 82 308t245 197l8 -16q-190 -123 -190 -487q0 -415 188 -523z" />
    <glyph glyph-name="parenright.superior" unicode="&#x207e;" horiz-adv-x="411" 
d="M10 1753l8 16q324 -115 324 -538q0 -177 -82 -309.5t-244 -196.5l-6 14q189 121 189 490q0 412 -189 524z" />
    <glyph glyph-name="n.superior" unicode="&#x207f;" horiz-adv-x="808" 
d="M367 543v-11h-334v11q52 18 61 39q12 24 12 86v301q0 91 -20 108q-21 21 -53 29v8q77 23 211 23q42 0 45 -29q4 -28 4 -84q25 56 82.5 88.5t132.5 32.5q142 0 172 -103q12 -47 12 -161v-211q0 -79 23 -99q16 -16 57 -28v-11h-334v11q45 14 60 39q10 27 10 88v215
q0 108 -27 135q-22 22 -71 22q-57 0 -93 -28q-14 -14 -20 -35q-4 -28 -4 -57v-256q0 -71 12 -86q13 -19 62 -37z" />
    <glyph glyph-name="zero.inferior" unicode="&#x2080;" 
d="M698 397q0 -197 -85 -305t-248 -108q-324 0 -324 422q0 198 87 303.5t249 105.5q172 0 246.5 -105.5t74.5 -312.5zM492 391q0 206 -25 279q-24 73 -94 73q-63 0 -92 -74.5t-29 -248.5q0 -211 24 -287q27 -74 97 -74q64 0 91.5 73t27.5 259z" />
    <glyph glyph-name="one.inferior" unicode="&#x2081;" 
d="M573 10v-10h-397v10q33 6 64 23q39 20 39 112v461q0 78 -15 99q-13 16 -49 16q-37 0 -49 -2l-2 24l307 76l10 -10q-4 -102 -4 -295v-369q0 -91 35 -112q32 -18 61 -23z" />
    <glyph glyph-name="two.inferior" unicode="&#x2082;" 
d="M592 0h-531v84q120 87 200.5 167t113.5 144q31 64 42 105t11 90q0 158 -127 158q-64 0 -105.5 -35.5t-74.5 -112.5h-12q-13 73 -13 127q0 42 45 57q85 31 207 31q149 0 221 -61t72 -166q0 -206 -399 -443q17 2 143 5q28 1 63 1.5t58.5 1t38.5 1.5q41 0 63 16q24 18 49 72
h13q0 -139 -11 -207q-6 -35 -67 -35z" />
    <glyph glyph-name="three.inferior" unicode="&#x2083;" 
d="M78 211h12q22 -63 77 -108.5t128 -45.5q141 0 141 174q0 152 -141 152h-29v59h31q69 0 97 38.5t28 131.5q0 136 -121 136q-115 0 -180 -148h-12q-13 89 -13 131q0 31 37 49q65 35 211 35q143 0 214 -52t71 -142q0 -74 -45 -123t-156 -74q119 -13 169 -62t50 -133
q0 -115 -90.5 -180t-249.5 -65q-135 0 -209 39q-32 19 -32 55q0 56 12 133z" />
    <glyph glyph-name="four.inferior" unicode="&#x2084;" 
d="M682 10v-10h-391v10q43 8 69 27q33 20 33 96v68h-360v98l397 516h162q-4 -122 -4 -254v-239h125v-121h-125v-68q0 -79 37 -100q13 -8 57 -23zM139 322h254q0 46 6 354z" />
    <glyph glyph-name="five.inferior" unicode="&#x2085;" 
d="M82 201h12q15 -58 67 -102t122 -44q157 0 157 183q0 83 -39.5 126.5t-103.5 43.5q-80 0 -162 -43l-8 6l49 430h440v-156h-221q-100 2 -176 2l-18 -168q53 35 164 35q132 0 210 -61t78 -189q0 -133 -91.5 -206.5t-248.5 -73.5q-140 0 -211 41q-32 17 -32 51q0 70 12 125z
" />
    <glyph glyph-name="six.inferior" unicode="&#x2086;" 
d="M268 389q24 50 75 81.5t112 31.5q114 0 175.5 -61.5t61.5 -182.5q0 -122 -82.5 -198t-218.5 -76q-155 0 -239 96.5t-84 275.5q0 211 99 335t290 124q101 0 153 -18q41 -15 41 -43q0 -50 -22 -140h-13q-38 134 -159 134q-97 0 -142.5 -85t-46.5 -274zM274 262
q0 -203 111 -203q56 0 80 44t24 147q0 156 -98 156q-53 0 -88 -44q-29 -37 -29 -100z" />
    <glyph glyph-name="seven.inferior" unicode="&#x2087;" 
d="M664 713l-310 -736l-131 19q132 318 336 653q-67 0 -143 -2q-25 0 -60.5 0.5t-56.5 0.5t-48.5 -0.5t-44 -2t-33.5 -4t-27.5 -8t-16.5 -12.5q-21 -21 -35 -70h-12q-12 61 -12 203q0 26 14 36.5t47 10.5h533v-88z" />
    <glyph glyph-name="eight.inferior" unicode="&#x2088;" 
d="M477 471q197 -77 197 -246q0 -110 -86 -175.5t-228 -65.5q-143 0 -216.5 54.5t-73.5 149.5q0 131 178 183q-146 78 -146 213q0 106 75.5 168.5t205.5 62.5q126 0 191 -47t65 -131q0 -114 -162 -166zM287 350q-86 -62 -86 -155q0 -69 45 -104.5t112 -35.5q61 0 100.5 34
t39.5 85q0 62 -43 96q-42 34 -168 80zM442 489q74 62 74 148q0 54 -36 82.5t-95 28.5q-55 0 -88 -28.5t-33 -72.5q0 -46 38 -81.5t140 -76.5z" />
    <glyph glyph-name="nine.inferior" unicode="&#x2089;" 
d="M481 414q-53 -123 -184 -123q-112 0 -174 63.5t-62 184.5t82 198.5t219 77.5q316 0 316 -373q0 -212 -97.5 -335t-289.5 -123q-105 0 -160 24q-37 15 -37 45q0 53 23 140h14q13 -71 57.5 -108.5t106.5 -37.5q186 0 186 367zM475 555q0 104 -26 148.5t-82 44.5
q-109 0 -109 -191q0 -164 98 -164q57 0 90 45q29 40 29 117z" />
    <glyph glyph-name="parenleft.inferior" unicode="&#x208d;" horiz-adv-x="411" 
d="M401 -137l-8 -19q-325 114 -325 539q0 177 82 308.5t245 197.5l8 -17q-190 -123 -190 -487q0 -414 188 -522z" />
    <glyph glyph-name="parenright.inferior" unicode="&#x208e;" horiz-adv-x="411" 
d="M10 872l8 17q324 -115 324 -539q0 -177 -82 -309.5t-244 -196.5l-6 15q189 121 189 489q0 412 -189 524z" />
    <glyph glyph-name="Euro" unicode="&#x20ac;" horiz-adv-x="1353" 
d="M981 569v-84h-365q47 -415 318 -415q128 0 205 71q50 50 96 144h14q-3 -125 -18 -193q-9 -44 -57 -69q-100 -50 -283 -50q-243 0 -395 131t-193 381h-170v84h160q-4 82 -4 99q0 10 4 92h-160v86h170q41 241 198 369t410 128q189 0 275 -38q59 -27 59 -74q0 -61 -31 -219
h-14q-24 90 -76 159q-63 78 -200 78q-263 0 -310 -403h367v-86h-373q-2 -18 -2 -80q0 -88 2 -111h373z" />
    <glyph glyph-name="afii61289" unicode="&#x2113;" horiz-adv-x="983" 
d="M469 643q297 207 297 502q0 66 -32.5 106.5t-80.5 40.5q-82 0 -123 -78q-58 -107 -61 -571zM891 164l6 -2q0 -37 -7.5 -63t-35.5 -50q-85 -76 -252 -76q-246 0 -328 156q-63 117 -63 295q-85 -43 -137 -64l-31 72q86 35 164 76q0 320 29 481q30 148 102 250
q106 145 315 145q271 0 271 -274q0 -148 -125 -297q-120 -147 -328 -268q0 -175 21 -283q35 -176 182 -176q113 0 217 78z" />
    <glyph glyph-name="trademark" unicode="&#x2122;" horiz-adv-x="1787" 
d="M588 713v-8h-324v8q42 9 62 35q12 15 12 94v436q0 19 -6 25t-25 6h-31q-63 0 -81 -9q-44 -15 -72 -100h-8q-6 64 -6 129q0 37 26 37h572q32 0 32 -31q0 -65 -4 -135h-10q-28 90 -82 105q-32 4 -72 4h-30q-19 0 -25 -6t-6 -25v-442q0 -73 12 -88q10 -21 66 -35zM1014 713
v-8h-232v8q59 22 66 32q13 16 16 74l15 379q2 31 2 90q0 28 -17 45q-19 16 -59 25v8h237q24 0 33 -20q141 -332 164 -398q46 120 156 395q10 23 30 23h230v-8q-50 -15 -62 -27q-14 -14 -14 -53v-33q1 -25 12 -448q0 -42 25 -58q16 -14 61 -26v-8h-336v8q43 9 60 26
q18 18 18 64q0 153 -6 448q-44 -126 -203 -522h-63q-178 429 -211 522q0 -13 -0.5 -43t-1.5 -86t-2 -108q-2 -127 -2 -203q0 -52 16 -68q15 -15 68 -30z" />
    <glyph glyph-name="Omega" unicode="&#x2126;" horiz-adv-x="1542" 
d="M696 193v-193h-491q-41 0 -57 10t-21 37q-12 65 -12 279h12q38 -88 94 -99q63 -14 344 -14q-170 58 -286 201q-113 143 -113 348q0 169 53.5 298.5t147.5 199.5q178 133 415 133q582 0 582 -598q0 -207 -110 -354t-306 -228q307 3 379 23q49 16 88 90h12
q-6 -184 -18 -279q-6 -47 -84 -47h-498v193q106 52 158.5 202.5t52.5 366.5q0 295 -59 416q-59 120 -207 120q-276 0 -276 -540q0 -470 200 -565z" />
    <glyph glyph-name="estimated" unicode="&#x212e;" horiz-adv-x="1769" 
d="M1665 684v-18h-1262q-8 0 -8 -11v-387q0 -21 19 -43q194 -209 475 -209q146 0 277.5 62t224.5 172h114q-112 -129 -273.5 -202t-344.5 -73q-318 0 -551 207q-227 205 -227 502q0 295 227 500q233 207 551 207q321 0 551 -207q227 -205 227 -500zM1382 715v389
q0 25 -22 47q-199 199 -471 199q-275 0 -473 -207q-21 -18 -21 -49v-379q0 -10 8 -10h967q12 0 12 10z" />
    <glyph glyph-name="onethird" unicode="&#x2153;" horiz-adv-x="1697" 
d="M434 -27l688 1428l82 -35l-686 -1427zM565 543v-11h-397v11q20 3 63 22q23 11 31 33.5t8 79.5v461q0 54 -7 78.5t-18 30t-38 5.5q-37 0 -49 -2l-2 25l307 76l10 -11q-4 -102 -4 -294v-369q0 -92 35 -113q24 -14 61 -22zM1006 211h12q22 -63 77 -108.5t128 -45.5
q141 0 141 174q0 152 -141 152h-29v59h31q69 0 97 38.5t28 131.5q0 136 -121 136q-115 0 -180 -148h-13q-12 82 -12 131q0 31 37 49q65 35 211 35q143 0 213.5 -52t70.5 -142q0 -74 -44.5 -123t-155.5 -74q119 -13 169 -62t50 -133q0 -115 -90.5 -180t-249.5 -65
q-135 0 -209 39q-33 20 -33 55q0 50 13 133z" />
    <glyph glyph-name="twothirds" unicode="&#x2154;" horiz-adv-x="1697" 
d="M629 532h-531v84q245 177 314 312q31 64 42 104.5t11 89.5q0 158 -127 158q-64 0 -105.5 -35t-74.5 -112h-13q-12 67 -12 127q0 42 45 57q85 31 207 31q149 0 221 -61.5t72 -166.5q0 -205 -399 -442l307 8q41 0 63 16q19 15 45 72h13q0 -139 -11 -207q-6 -35 -67 -35z
M1092 211h12q22 -63 77 -108.5t128 -45.5q141 0 141 174q0 152 -141 152h-29v59h31q69 0 97 38.5t28 131.5q0 136 -121 136q-115 0 -180 -148h-13q-12 82 -12 131q0 31 37 49q65 35 211 35q143 0 213.5 -52t70.5 -142q0 -74 -44.5 -123t-155.5 -74q119 -13 169 -62t50 -133
q0 -115 -90.5 -180t-249.5 -65q-135 0 -209 39q-33 20 -33 55q0 50 13 133zM520 -27l688 1428l82 -35l-686 -1427z" />
    <glyph glyph-name="oneeighth" unicode="&#x215b;" horiz-adv-x="1697" 
d="M455 -27l688 1428l82 -35l-686 -1427zM592 543v-11h-397v11q20 3 63 22q23 11 31 33.5t8 79.5v461q0 77 -12.5 95.5t-51.5 18.5q-37 0 -49 -2l-2 25l307 76l11 -11q-4 -102 -4 -294v-369q0 -92 34 -113q24 -13 62 -22zM1395 471q196 -76 196 -246q0 -110 -85.5 -175.5
t-227.5 -65.5q-143 0 -217 54.5t-74 149.5q0 131 178 183q-145 77 -145 213q0 106 75 168.5t205 62.5q126 0 191 -47t65 -131q0 -114 -161 -166zM1204 350q-86 -62 -86 -155q0 -69 45.5 -104.5t112.5 -35.5q61 0 100 34t39 85q0 62 -43 96q-42 34 -168 80zM1360 489
q74 62 74 148q0 54 -36 82.5t-95 28.5q-55 0 -88 -28.5t-33 -72.5q0 -46 38 -81.5t140 -76.5z" />
    <glyph glyph-name="threeeighths" unicode="&#x215c;" horiz-adv-x="1697" 
d="M469 -27l688 1428l82 -35l-686 -1427zM115 743h12q22 -63 77 -108t128 -45q141 0 141 174q0 151 -141 151h-29v60h31q69 0 97 38.5t28 131.5q0 135 -121 135q-116 0 -180 -147h-13q-12 82 -12 131q0 31 37 49q65 35 211 35q143 0 214 -52.5t71 -142.5q0 -74 -45 -123
t-156 -74q119 -13 169 -61.5t50 -132.5q0 -115 -90.5 -180.5t-249.5 -65.5q-135 0 -209 39q-33 20 -33 55q0 50 13 133zM1409 471q197 -77 197 -246q0 -110 -86 -175.5t-228 -65.5q-143 0 -217 54.5t-74 149.5q0 130 179 183q-146 78 -146 213q0 106 75.5 168.5t205.5 62.5
q126 0 191 -47t65 -131q0 -114 -162 -166zM1219 350q-86 -62 -86 -155q0 -69 45 -104.5t112 -35.5q61 0 100.5 34t39.5 85q0 61 -44 96q-43 34 -167 80zM1374 489q74 62 74 148q0 54 -36 82.5t-95 28.5q-55 0 -88 -28.5t-33 -72.5q0 -46 38 -81.5t140 -76.5z" />
    <glyph glyph-name="fiveeighths" unicode="&#x215d;" horiz-adv-x="1697" 
d="M473 -27l688 1428l82 -35l-686 -1427zM109 733h12q14 -58 66 -101.5t122 -43.5q158 0 158 182q0 83 -39.5 126.5t-103.5 43.5q-80 0 -162 -43l-8 8l49 428h440v-155h-221q-100 2 -176 2l-19 -168q53 35 164 35q132 0 210.5 -61.5t78.5 -188.5q0 -133 -91.5 -207
t-248.5 -74q-140 0 -211 41q-33 17 -33 51q0 65 13 125zM1417 471q197 -77 197 -246q0 -110 -86 -175.5t-228 -65.5q-143 0 -216.5 54.5t-73.5 149.5q0 131 178 183q-146 78 -146 213q0 106 75.5 168.5t205.5 62.5q126 0 191 -47t65 -131q0 -114 -162 -166zM1227 350
q-86 -62 -86 -155q0 -69 45 -104.5t112 -35.5q61 0 100.5 34t39.5 85q0 62 -43 96q-42 34 -168 80zM1382 489q74 62 74 148q0 54 -36 82.5t-95 28.5q-55 0 -88 -28.5t-33 -72.5q0 -46 38 -81.5t140 -76.5z" />
    <glyph glyph-name="seveneighths" unicode="&#x215e;" horiz-adv-x="1697" 
d="M391 -27l688 1428l82 -35l-686 -1427zM702 1245l-309 -735l-131 18q133 321 336 654q-67 0 -143 -2q-25 0 -81 1t-78 0.5t-55 -3t-49.5 -9.5t-25.5 -18q-21 -21 -33 -68h-12q-12 61 -12 203q0 26 14 36.5t47 10.5h532v-88zM1376 471q197 -77 197 -246
q0 -110 -85.5 -175.5t-227.5 -65.5q-143 0 -217 54.5t-74 149.5q0 131 178 183q-146 78 -146 213q0 106 75.5 168.5t205.5 62.5q126 0 191 -47t65 -131q0 -114 -162 -166zM1186 350q-86 -62 -86 -155q0 -69 45 -104.5t112 -35.5q61 0 100.5 34t39.5 85q0 62 -43 96
q-42 34 -168 80zM1341 489q74 62 74 148q0 54 -36 82.5t-95 28.5q-55 0 -88 -28.5t-33 -72.5q0 -46 38 -81.5t140 -76.5z" />
    <glyph glyph-name="arrowleft" unicode="&#x2190;" horiz-adv-x="1515" 
d="M1448 797v-224q-918 0 -1024 2q96 -86 442 -423l-139 -152l-688 684l692 690l139 -141l-448 -440q212 4 1026 4z" />
    <glyph glyph-name="arrowup" unicode="&#x2191;" horiz-adv-x="1515" 
d="M872 0h-225q0 812 4 1020q-105 -117 -442 -442l-137 135l688 696l686 -690l-146 -141l-430 442q2 -104 2 -1020z" />
    <glyph glyph-name="arrowright" unicode="&#x2192;" horiz-adv-x="1515" 
d="M70 618v226q814 0 1022 -4l-451 440l150 141l684 -690l-689 -686l-139 156l447 420q-164 -3 -1024 -3z" />
    <glyph glyph-name="arrowdown" unicode="&#x2193;" horiz-adv-x="1515" 
d="M647 1380h225q0 -596 -4 -1018q99 110 430 441l144 -141l-682 -691l-690 691l151 141q360 -352 428 -438q-2 106 -2 1015z" />
    <glyph glyph-name="uni2196" unicode="&#x2196;" horiz-adv-x="1515" 
d="M612 989l738 -721l-158 -162l-391 396q-210 210 -230 229l-90 94q4 -160 4 -612h-209v971h975v-199q-104 0 -206.5 0.5t-176 1t-131 1t-90 1t-35.5 0.5z" />
    <glyph glyph-name="uni2197" unicode="&#x2197;" horiz-adv-x="1515" 
d="M1040 834l-714 -728l-154 162q703 690 735 719h-36t-90.5 -0.5t-131 -1t-176.5 -0.5h-207v199h977v-971h-207q0 539 4 621z" />
    <glyph glyph-name="uni2198" unicode="&#x2198;" horiz-adv-x="1515" 
d="M172 1100l152 160l718 -719q-4 78 -4 614h203v-971h-975v201h205.5t174.5 -0.5t129.5 -1t89.5 -0.5h36q-188 176 -729 717z" />
    <glyph glyph-name="uni2199" unicode="&#x2199;" horiz-adv-x="1515" 
d="M479 543l713 719l158 -158q-655 -644 -736 -719h35.5t89.5 0.5t130 1t175.5 0.5h206.5v-201h-975v969h207q0 -452 -4 -612z" />
    <glyph glyph-name="partialdiff" unicode="&#x2202;" horiz-adv-x="1228" 
d="M762 797q2 14 2 96q0 407 -248 407q-196 0 -260 -161h-14q-9 47 -9 141q0 44 50 68q121 59 280 59q257 0 376.5 -148t119.5 -483q0 -404 -117 -603.5t-377 -199.5q-194 0 -303.5 115.5t-109.5 304.5q0 222 118 334q121 115 301 115q129 0 191 -45zM758 711
q-34 49 -125 49q-178 0 -178 -365q0 -332 145 -332q124 0 139 205q13 160 19 443z" />
    <glyph glyph-name="increment" unicode="&#x2206;" horiz-adv-x="1484" 
d="M864 1366l570 -1366h-1381l570 1366h241zM645 1137q-93 -257 -354 -904h723q-310 746 -369 904z" />
    <glyph glyph-name="product" unicode="&#x220f;" horiz-adv-x="1523" 
d="M1436 -195v-12h-568v12q95 25 115 64q23 41 23 190v1133q0 44 -15.5 58t-62.5 14h-346q-41 0 -52.5 -14t-11.5 -64v-1129q0 -159 23 -192q22 -37 114 -60v-12h-567v12q89 22 115 64q22 39 22 190v1047q0 154 -22 190q-22 37 -115 58v12h1348v-12q-90 -21 -113 -60
q-23 -44 -23 -186v-1051q0 -150 25 -192q22 -39 111 -60z" />
    <glyph glyph-name="summation" unicode="&#x2211;" horiz-adv-x="1296" 
d="M1098 -207h-1063v21l649 721l-553 813v18h940q50 0 67 -12t17 -43q0 -46 -22 -203h-13q-30 88 -78 127q-35 27 -112 27q-141 2 -400 2l408 -602l-555 -613h543q118 0 157 17q26 12 45.5 34.5t57.5 85.5h14v-10q-1 -10 -2 -31t-2 -45q-4 -193 -14 -250q-5 -32 -22.5 -44.5
t-61.5 -12.5z" />
    <glyph glyph-name="minus" unicode="&#x2212;" horiz-adv-x="1302" 
d="M1120 641v-168h-938v168h938z" />
    <glyph glyph-name="uni2215" unicode="&#x2215;" horiz-adv-x="190" 
d="M-293 -27l688 1428l82 -35l-686 -1427z" />
    <glyph glyph-name="uni2219" unicode="&#x2219;" horiz-adv-x="518" 
d="M420 543q0 -73 -44 -117.5t-116 -44.5q-69 0 -114.5 44.5t-45.5 115.5t46 116t116 45q72 0 115 -43.5t43 -115.5z" />
    <glyph glyph-name="radical" unicode="&#x221a;" horiz-adv-x="1353" 
d="M1313 1409l-561 -1710h-181l-342 629l-104 -60l-43 82l362 197l293 -555l439 1446z" />
    <glyph glyph-name="infinity" unicode="&#x221e;" horiz-adv-x="1372" 
d="M690 672q81 98 150.5 138t156.5 40q128 0 208.5 -82.5t80.5 -216.5q0 -130 -86 -219q-82 -88 -217 -88q-86 0 -155 40.5t-146 139.5q-81 -96 -149.5 -138t-153.5 -42q-135 0 -213 84t-78 213q0 136 84.5 224.5t218.5 88.5q87 0 150 -40t149 -142zM592 547
q-63 89 -107.5 124.5t-99.5 35.5q-70 0 -109.5 -44t-39.5 -112q0 -71 38.5 -117.5t104.5 -46.5q56 0 103 36t110 124zM776 549q67 -92 113 -129t96 -37q92 -5 130.5 79.5t3 167.5t-121.5 75q-107 0 -221 -156z" />
    <glyph glyph-name="integral" unicode="&#x222b;" horiz-adv-x="841" 
d="M51 -178h12q41 -115 132 -115q61 0 89.5 44.5t28.5 146.5q0 73 -6 208l-39 756q-4 144 -4 160q0 164 82 274q82 111 266 111q105 0 148 -14q47 -12 47 -47q0 -80 -14 -154h-15q-25 61 -61.5 93t-73.5 32q-65 0 -93 -40.5t-28 -129.5q0 -54 4 -148l43 -823q4 -152 4 -194
q0 -157 -94 -261q-93 -106 -282 -106q-74 0 -115 14q-25 8 -35 23t-10 51q0 62 14 119z" />
    <glyph glyph-name="approxequal" unicode="&#x2248;" horiz-adv-x="1302" 
d="M248 580l-119 112q157 201 313 201q49 0 99 -16q38 -12 149 -74q108 -60 162 -60q92 0 199 140l123 -113q-141 -197 -318 -197q-90 0 -203 64q-140 82 -207 82q-106 0 -198 -139zM248 219l-119 113q149 198 313 198q58 0 101 -14q41 -13 147 -74q101 -61 162 -61
q91 0 199 141l123 -110q-141 -199 -318 -199q-92 0 -203 63q-146 82 -207 82q-106 0 -198 -139z" />
    <glyph glyph-name="notequal" unicode="&#x2260;" horiz-adv-x="1302" 
d="M594 291l-127 -258h-137l129 258h-277v166h357l92 196h-449v162h527l127 260h133l-125 -260h276v-162h-354l-94 -196h448v-166h-526z" />
    <glyph glyph-name="lessequal" unicode="&#x2264;" horiz-adv-x="1302" 
d="M1051 451v-193l-811 379v168l809 383v-189l-635 -276zM1051 164v-164h-811v164h811z" />
    <glyph glyph-name="greaterequal" unicode="&#x2265;" horiz-adv-x="1302" 
d="M248 995v193l815 -373v-174l-815 -383v188l637 279zM1063 164v-164h-815v164h815z" />
    <glyph glyph-name="lozenge" unicode="&#x25ca;" horiz-adv-x="1302" 
d="M246 664l319 669h183l309 -667l-314 -666h-180zM653 1157l-223 -493l221 -492l226 492z" />
    <glyph glyph-name="commaaccent" unicode="&#xf6c3;" horiz-adv-x="413" 
d="M59 -586l-8 15q154 103 154 209q0 36 -49 73q-52 37 -52 90q0 46 33.5 77.5t91.5 31.5q63 0 101.5 -44.5t38.5 -117.5q0 -110 -95 -199q-91 -88 -215 -135z" />
    <glyph glyph-name="s_t" unicode="&#xfb06;" horiz-adv-x="1501" 
d="M96 295h17q34 -102 125 -172q75 -57 172 -57q84 0 127 35t43 94q0 52 -35.5 84.5t-151.5 95.5l-98 51q-107 55 -152 123.5t-45 159.5q0 43 12 84.5t42 84t76 73.5t121 51t169 20q106 0 152 -14q-44 30 -69.5 78t-25.5 96q0 125 88.5 186.5t284.5 61.5q83 0 189 -29
q87 -24 143 -60v-346h193v-112h-193v-576q0 -73 4 -119q15 -94 94 -94q64 0 127 29l6 -8q-102 -135 -276 -135q-90 0 -150 40.5t-71 122.5q-10 78 -10 168v572h-127v57q131 27 196 92q40 40 69.5 120t35.5 171q-98 25 -234 25q-260 0 -260 -209q0 -87 41 -146q8 -2 33 -14
q26 -14 26 -57q0 -59 -39 -189h-14q-21 94 -65 141q-53 56 -174 56q-80 0 -125 -33t-45 -88q0 -50 30.5 -82.5t126.5 -81.5l88 -45q134 -68 188 -137.5t54 -173.5q0 -38 -8.5 -75.5t-35 -82.5t-69 -78.5t-119 -56.5t-176.5 -23q-148 0 -241 41q-48 20 -64 39t-16 53
q0 67 16 189z" />
    <glyph glyph-name="CR.001" horiz-adv-x="681" 
 />
    <glyph glyph-name="Dotlessi" horiz-adv-x="677" 
d="M676 12v-12h-584v12q94 25 117 64q22 36 22 190v840q0 147 -22 186q-21 38 -117 62v12h584v-12q-95 -24 -117 -56q-27 -34 -27 -190v-844q0 -150 27 -190q24 -38 117 -62z" />
    <glyph glyph-name="Euro.denominator" horiz-adv-x="884" 
d="M639 348v-57h-231q14 -123 63 -181.5t141 -58.5q86 0 133 47q32 36 54 84h12q0 -83 -10 -125q-6 -25 -41 -43q-68 -30 -185 -30q-155 0 -252.5 78t-123.5 229h-103v57h97q-3 15 -3 55q0 38 3 56h-97v55h105q26 145 129 223t264 78q110 0 174 -24q39 -17 39 -46
q0 -51 -21 -139h-12q-14 62 -43 94q-34 43 -129 43q-165 0 -192 -229h229v-55h-236v-47q0 -43 3 -64h233z" />
    <glyph glyph-name="Euro.numerator" horiz-adv-x="884" 
d="M639 881v-58h-231q14 -123 63 -181t141 -58q86 0 133 47q37 48 56 84h10q0 -85 -10 -123q-6 -27 -41 -45q-70 -31 -185 -31q-155 0 -252.5 78t-123.5 229h-103v58h97q-3 15 -3 55q0 37 3 55h-97v56h105q26 145 129 223t264 78q107 0 174 -25q39 -17 39 -45
q0 -50 -21 -139h-12q-14 62 -43 94q-37 43 -129 43q-165 0 -192 -229h229v-56h-236v-47q0 -42 3 -63h233z" />
    <glyph glyph-name="Euro.oldstyle" horiz-adv-x="1349" 
d="M983 539v-82h-371q50 -391 328 -391q123 0 201 75q52 46 100 138h14q-3 -117 -22 -193q-9 -44 -57 -66q-109 -47 -293 -47q-509 0 -586 484h-170v82h162q-4 78 -4 92q0 10 4 88h-162v82h172q43 226 201 344.5t415 118.5q190 0 275 -39q61 -27 61 -72q0 -79 -32 -213h-15
q-24 88 -69 145q-71 86 -209 86q-270 0 -316 -370h373v-82h-379q-2 -16 -2 -78q0 -79 2 -102h379z" />
    <glyph glyph-name="Kgreenlandic" horiz-adv-x="1656" 
d="M1755 1509l10 -16q-188 -141 -188 -274q0 -56 57 -95q60 -42 60 -98q0 -60 -38 -96.5t-100 -36.5q-70 0 -112.5 50.5t-42.5 139.5q0 126 102 240q107 117 252 186zM676 12v-12h-584v12q85 21 117 64q22 39 22 190v840q0 146 -22 188q-22 36 -117 60v12h584v-12
q-95 -24 -117 -56q-27 -38 -27 -190v-428q139 133 379 414q95 109 95 172q0 53 -121 88v12h497v-12q-64 -20 -118 -60.5t-131 -124.5l-295 -315l225 -367q162 -253 301 -389q39 -39 125 -78v-12q-88 -14 -348 -14q-114 0 -183 96q-60 87 -335 561l-43 -41l-48 -49v-303
q0 -140 27 -184q21 -38 117 -62z" />
    <glyph glyph-name="S_S" horiz-adv-x="2144" 
d="M1176 360h10q39 -112 119 -186q113 -104 276 -104q124 0 190 53t66 137q0 82 -53 135q-62 62 -225 144l-105 55q-154 79 -219.5 174t-65.5 219q0 176 131 289q132 117 402 117q167 0 262 -33q43 -14 58.5 -31t15.5 -53q0 -69 -41 -221h-10q-37 113 -93 166
q-77 77 -219 77q-138 0 -203 -53.5t-65 -138.5q0 -69 49 -127q50 -59 215 -141l96 -47q170 -85 243 -177.5t73 -216.5q0 -195 -138.5 -309.5t-392.5 -114.5q-216 0 -335 70q-66 38 -66 90q0 83 25 227zM106 360h11q39 -112 119 -186q113 -104 276 -104q124 0 190 53t66 137
q0 82 -53 135q-61 61 -226 144l-104 55q-154 79 -219.5 174t-65.5 219q0 176 131 289q132 117 402 117q167 0 262 -33q43 -14 58.5 -31t15.5 -53q0 -69 -41 -221h-10q-37 113 -93 166q-77 77 -219 77q-138 0 -203 -53.5t-65 -138.5q0 -69 49 -127q50 -59 215 -141l96 -47
q170 -85 243 -177.5t73 -216.5q0 -195 -138.5 -309.5t-392.5 -114.5q-217 0 -336 70q-65 38 -65 90q0 89 24 227z" />
    <glyph glyph-name="T_h" horiz-adv-x="2410" 
d="M924 12v-12h-586v12q91 22 119 64q22 36 22 190v938q0 36 -11.5 49t-45.5 13h-53q-95 0 -154 -19q-84 -28 -143 -213h-17q-10 160 -10 281q0 31 8 41t37 10h1219q182 78 260 78q26 0 34.5 -11.5t8.5 -48.5q0 -111 -8 -567q37 88 135.5 146.5t210.5 58.5q222 0 268 -168
q20 -73 20 -266v-332q0 -160 33 -193q27 -35 92 -53v-10h-508v10q71 27 93 66q16 37 16 184v309q0 119 -9.5 169.5t-39.5 80.5q-41 41 -117 41q-92 0 -143 -39q-26 -20 -41 -55q-10 -27 -10 -94v-441q0 -129 22 -165q27 -30 100 -56v-10h-509v10q73 27 92 64q22 39 22 151
v926q0 70 -28 92q-33 23 -168 23h-297q-35 0 -47.5 -13t-12.5 -49v-946q0 -140 29 -184q35 -41 117 -62z" />
    <glyph glyph-name="Tcaron_h" horiz-adv-x="2410" 
d="M924 12v-12h-586v12q91 22 119 64q22 36 22 190v938q0 36 -11.5 49t-45.5 13h-53q-95 0 -154 -19q-84 -28 -143 -213h-17q-10 160 -10 281q0 31 8 41t37 10h1219q182 78 260 78q26 0 34.5 -11.5t8.5 -48.5q0 -111 -8 -567q37 88 135.5 146.5t210.5 58.5q222 0 268 -168
q20 -73 20 -266v-332q0 -160 33 -193q27 -35 92 -53v-10h-508v10q71 27 93 66q16 37 16 184v309q0 119 -9.5 169.5t-39.5 80.5q-41 41 -117 41q-92 0 -143 -39q-26 -20 -41 -55q-10 -27 -10 -94v-441q0 -129 22 -165q27 -30 100 -56v-10h-509v10q73 27 92 64q22 39 22 151
v926q0 70 -28 92q-33 23 -168 23h-297q-35 0 -47.5 -13t-12.5 -49v-946q0 -140 29 -184q35 -41 117 -62zM530 1509l-221 252l8 8l314 -135l301 138l8 -9l-227 -260q-36 -44 -88.5 -43.5t-94.5 49.5z" />
    <glyph glyph-name="a.sc" horiz-adv-x="1167" 
d="M348 12v-12h-344v12q12 0 59 29q50 41 80 123l246 639l94 252h201q30 -88 51 -140q39 -99 41 -108l236 -633q30 -82 67 -119q36 -31 84 -43v-12h-524v12q55 13 84 33q20 14 20 41t-22 88l-70 180h-327l-62 -184q-18 -58 -18 -88q0 -23 20 -37q27 -24 84 -33zM489 836
l-139 -396h273z" />
    <glyph glyph-name="a.superior" horiz-adv-x="692" 
d="M408 625q-46 -107 -177 -107q-86 0 -136 46t-50 120q0 111 119 141q97 23 174 33q44 6 53 21q6 12 6 28v29q0 59 -24 80q-26 26 -88 26q-117 0 -176 -53l-7 2q-2 6 -2 27q0 48 68 87.5t180 39.5q230 0 230 -207q0 -22 -3 -117v-149q0 -84 62 -84q19 0 35 4l4 -8
q-59 -62 -144 -62q-112 0 -124 103zM397 713v102q-1 -1 -6 -2t-17 -3.5t-22 -4.5q-67 -14 -94 -31q-33 -20 -33 -72q0 -88 84 -88q63 0 82 48q6 15 6 51z" />
    <glyph glyph-name="aacute.sc" horiz-adv-x="1167" 
d="M348 12v-12h-344v12q12 0 59 29q50 41 80 123l246 639l94 252h201q30 -88 51 -140q39 -99 41 -108l236 -633q30 -82 67 -119q36 -31 84 -43v-12h-524v12q55 13 84 33q20 14 20 41t-22 88l-70 180h-327l-62 -184q-18 -58 -18 -88q0 -23 20 -37q27 -24 84 -33zM489 836
l-139 -396h273zM813 1395l-297 -226l-8 9l158 323q43 94 112 94q107 0 107 -92q0 -51 -72 -108z" />
    <glyph glyph-name="abreve.sc" horiz-adv-x="1167" 
d="M348 12v-12h-344v12q12 0 59 29q50 41 80 123l246 639l94 252h201q30 -88 51 -140q39 -99 41 -108l236 -633q30 -82 67 -119q36 -31 84 -43v-12h-524v12q55 13 84 33q20 14 20 41t-22 88l-70 180h-327l-62 -184q-18 -58 -18 -88q0 -23 20 -37q27 -24 84 -33zM489 836
l-139 -396h273zM838 1511l12 -2q-9 -125 -70 -219q-62 -92 -205 -92q-258 0 -258 313l13 2q47 -153 245 -153q107 0 168.5 36t94.5 115z" />
    <glyph glyph-name="acircumflex.sc" horiz-adv-x="1167" 
d="M348 12v-12h-344v12q12 0 59 29q50 41 80 123l246 639l94 252h201q30 -88 51 -140q39 -99 41 -108l236 -633q30 -82 67 -119q36 -31 84 -43v-12h-524v12q55 13 84 33q20 14 20 41t-22 88l-70 180h-327l-62 -184q-18 -58 -18 -88q0 -23 20 -37q27 -24 84 -33zM489 836
l-139 -396h273zM680 1470l205 -294l-6 -7l-299 177l-287 -177l-6 7l211 299q41 53 88 53q54 0 94 -58z" />
    <glyph glyph-name="acute.cap" horiz-adv-x="434" 
d="M344 1634l-344 -166l-8 13l227 286q58 76 117 76q44 0 74 -27.5t30 -70.5q0 -64 -96 -111z" />
    <glyph glyph-name="acute.sc" horiz-adv-x="430" 
d="M330 1395l-297 -226l-8 9l157 323q43 94 113 94q106 0 106 -92q0 -52 -71 -108z" />
    </font>
</defs>
</svg>
