<?xml version="1.0" standalone="no"?>
<!DOCTYPE svg PUBLIC "-//W3C//DTD SVG 1.1//EN" "http://www.w3.org/Graphics/SVG/1.1/DTD/svg11.dtd" >
<svg xmlns="http://www.w3.org/2000/svg" xmlns:xlink="http://www.w3.org/1999/xlink" version="1.1">
<metadata>
Created by FontForge 20201107 at Mon Jun 16 13:58:42 2025
 By 
Copyright (c) 2018 by Dieter Hofrichter. Alle Rechte vorbehalten. |DCNT
</metadata>
<defs>
<font id="Candide-Light" horiz-adv-x="714" >
  <font-face 
    font-family="Candide Light"
    font-weight="300"
    font-stretch="normal"
    units-per-em="2048"
    panose-1="2 0 5 3 7 0 0 2 0 4"
    ascent="1538"
    descent="-510"
    x-height="981"
    cap-height="1366"
    bbox="-279 -518 2386 1999"
    underline-thickness="102"
    underline-position="-204"
    unicode-range="U+000D-FB06"
  />
<missing-glyph horiz-adv-x="1091" 
d="M1083 0h-1073v1503h1073v-1503zM182 1395l365 -547l364 547h-729zM977 1298l-367 -546l367 -547v1093zM547 655l-365 -549h729zM483 752l-366 546v-1093z" />
    <glyph glyph-name="f_f" unicode="ff" horiz-adv-x="1269" 
d="M520 10v-10h-414v10q72 22 97 60q24 38 24 188v649h-153v29q92 28 121 61q22 28 32 97q24 179 117 253t262 74q71 0 127 -16q45 -15 45 -49q0 -50 -26 -148h-13q-19 77 -56.5 115.5t-98.5 38.5q-134 0 -187 -96q-35 -59 -35 -199q0 -46 5 -86h344q73 0 102 29
q27 24 39 118q19 175 111.5 246.5t257.5 71.5q79 0 129 -16q25 -8 34 -18t9 -30q0 -47 -27 -149h-14q-15 70 -62 117q-34 34 -102 34q-122 0 -172 -96q-31 -57 -31 -223q0 -61 2 -84h225v-74h-225v-643q0 -152 27 -192q21 -35 135 -62v-10h-420v10q71 21 96 60t25 188v649
h-483v-643q0 -152 24 -192q23 -32 129 -62z" />
    <glyph glyph-name="fi" unicode="fi" horiz-adv-x="1212" 
d="M520 10v-10h-414v10q74 22 97 58q24 34 24 190v649h-153v29q99 27 123 61q27 37 39 121q29 173 140.5 250.5t311.5 77.5q114 0 191 -25q53 -15 53 -53q0 -63 -35 -176h-18q-18 104 -74 151q-50 41 -133 41q-174 0 -250 -102q-57 -77 -57 -219q0 -3 1 -36t1 -46h438
q92 18 145 18q23 0 32 -11t9 -42q0 -3 -0.5 -22t-1.5 -59t-2 -83q-2 -100 -2 -211v-325q0 -132 25 -174q27 -44 104 -62v-10h-387v10q77 27 98 62q23 38 23 174v471q0 133 -19 162q-22 28 -81 28h-381v-643q0 -148 24 -192q21 -35 129 -62z" />
    <glyph glyph-name="fl" unicode="fl" horiz-adv-x="1214" 
d="M516 10v-10h-410v10q74 22 97 58q24 34 24 190v649h-153v29q98 28 121 61q24 30 36 123q35 201 156 266q114 60 262 60q117 0 199 -33q62 33 115 33q28 0 28 -49q0 -5 -0.5 -32.5t-1.5 -85t-2 -120.5q-2 -145 -2 -248v-655q0 -155 25 -186q31 -45 102 -60v-10h-385v10
q68 23 96 62q23 38 23 180v922q0 122 -35 157q-53 53 -160 53q-143 0 -221 -81q-68 -71 -68 -259q0 -39 3 -63h258v-74h-256v-643q0 -153 26 -192q21 -35 123 -62z" />
    <glyph glyph-name="f_f_i" unicode="ffi" horiz-adv-x="1835" 
d="M520 10v-10h-414v10q72 22 97 60q24 38 24 188v649h-153v29q90 27 116 61q29 32 35 95q22 180 116 254.5t269 74.5q81 0 127 -18q41 -15 41 -47q0 -50 -26 -148h-13q-15 67 -57 115q-36 39 -111 39q-131 0 -178 -102q-31 -64 -31 -193q0 -41 5 -86h344q65 0 102 29
q31 31 43 104q30 175 140 253.5t311 78.5q115 0 192 -27q49 -15 49 -53q0 -74 -32 -180h-21q-21 104 -78 155q-46 43 -133 43q-176 0 -246 -102q-53 -77 -53 -213q0 -22 4 -88h436q91 18 146 18q25 0 34 -10.5t9 -42.5q0 -3 -0.5 -22t-1.5 -59t-2 -83q-2 -100 -2 -211v-325
q0 -128 24 -174q24 -44 105 -62v-10h-387v10q74 23 96 62q22 36 22 174v471q0 136 -16 162q-19 28 -82 28h-383v-643q0 -148 29 -192q21 -34 125 -62v-10h-412v10q71 21 96 60t25 188v649h-483v-645q0 -153 26 -192q23 -33 127 -60z" />
    <glyph glyph-name="f_f_l" unicode="ffl" horiz-adv-x="1837" 
d="M520 10v-10h-414v10q72 22 97 60q24 38 24 188v649h-153v29q90 24 119 61q25 32 34 97q24 179 118 253t263 74q82 0 129 -18q41 -15 41 -47q0 -50 -26 -148h-13q-19 76 -55 115q-39 39 -102 39q-132 0 -185 -96q-32 -54 -32 -197q0 -70 2 -88h344q73 0 102 29
q26 26 41 116q15 88 50.5 151t90.5 99.5t123 53t156 16.5q126 0 196 -33q62 33 113 33q31 0 31 -47q0 -10 -0.5 -40.5t-1.5 -89.5l-2 -118q-2 -141 -2 -240v-655q0 -156 24 -186q31 -45 103 -60v-10h-387v10q78 28 96 62q24 34 24 180v922q0 125 -34 159q-51 51 -160 51
q-153 0 -223 -79q-64 -64 -64 -252q0 -58 2 -72h256v-74h-258v-643q0 -152 27 -192q22 -36 127 -62v-10h-412v10q71 21 96 60t25 188v649h-483v-643q0 -153 26 -192q22 -36 127 -62z" />
    <glyph glyph-name="f_b" unicode="fb" horiz-adv-x="1781" 
d="M516 10v-10h-410v10q74 22 97 58q24 34 24 190v649h-153v29q95 28 121 61q21 27 36 123q27 197 152 264q60 34 122.5 48t149.5 14q108 0 181 -33q73 33 114 33q29 0 29 -49q0 -68 -2 -131q0 -140 -2 -232q-2 -90 -2 -227q26 83 123 143t209 60q381 0 381 -502
q0 -250 -124.5 -389t-338.5 -139q-117 0 -209 30q-73 25 -90 25q-41 0 -82 -90l-13 2q5 82 5 309v918q0 124 -33 157q-50 53 -158 53q-141 0 -213 -81q-68 -77 -68 -248q0 -34 5 -74h256v-74h-256v-643q0 -155 26 -194q20 -33 123 -60zM973 647v-426q0 -77 24 -104
q25 -31 88.5 -52.5t131.5 -21.5q148 0 229.5 113.5t81.5 328.5q0 437 -281 437q-59 0 -117 -23t-90 -57q-44 -44 -53 -74q-14 -38 -14 -121z" />
    <glyph glyph-name="f_f_b" unicode="ffb" horiz-adv-x="2404" 
d="M520 10v-10h-414v10q72 22 97 60q24 38 24 188v649h-153v29q97 28 123 61q27 30 36 97q19 182 111 254.5t268 72.5q64 0 123 -18q43 -15 43 -47q0 -50 -26 -148h-13q-18 76 -57 115q-36 39 -100 39q-132 0 -185 -96q-32 -54 -32 -211q0 -68 2 -74h346q65 0 102 29
q21 21 41 120q38 189 156 256q112 60 266 60q105 0 178 -33q67 33 117 33q29 0 29 -49q0 -35 -3 -129q0 -140 -2 -232q-2 -90 -2 -229q26 83 123 143t207 60q381 0 381 -502q0 -250 -124.5 -389t-336.5 -139q-116 0 -211 32q-84 23 -88 23q-43 0 -84 -90l-10 2q4 66 4 309
v918q0 122 -37 159q-51 51 -145 51q-145 0 -221 -79q-68 -68 -68 -258l1 -31q1 -30 1 -35h258v-74h-258v-645q0 -150 27 -190q21 -35 135 -62v-10h-420v10q71 21 96 60t25 188v649h-483v-643q0 -153 26 -192q22 -36 127 -62zM1595 647v-426q0 -74 23 -104q25 -31 88.5 -52.5
t132.5 -21.5q145 0 227 114t82 328q0 437 -280 437q-125 0 -207 -82q-37 -34 -51 -72q-15 -44 -15 -121z" />
    <glyph glyph-name="f_f_h" unicode="ffh" horiz-adv-x="2461" 
d="M520 10v-10h-414v10q72 22 97 60q24 38 24 188v649h-153v29q97 28 123 61q27 35 36 97q18 177 111.5 252t261.5 75q72 0 131 -18q41 -15 41 -47q0 -50 -26 -148h-13q-18 76 -57 115q-36 39 -100 39q-132 0 -185 -96q-32 -54 -32 -211q0 -68 2 -74h346q65 0 102 29
q21 21 25 49l14 69q34 172 139.5 245t282.5 73q116 0 192 -33q62 33 115 33q31 0 31 -49q0 -1 -0.5 -29.5t-1.5 -92.5t-2 -138q-2 -166 -2 -330q44 94 140.5 147.5t219.5 53.5q220 0 266 -166q23 -84 23 -232v-350q0 -152 24 -192q25 -39 105 -60v-8h-387v8q73 22 94 62
q25 42 25 190v328q0 200 -52 258q-52 67 -170 67q-117 0 -206 -63q-56 -43 -70 -100q-12 -44 -12 -123v-373q0 -144 24 -184t103 -62v-8h-387v8q75 24 96 62q24 41 24 180v924q0 123 -34 157q-59 53 -160 53q-152 0 -223 -77q-66 -66 -66 -267l1 -27q1 -27 1 -32h258v-74
h-258v-643q0 -152 27 -192q22 -36 127 -62v-10h-412v10q71 21 96 60t25 188v649h-483v-643q0 -153 26 -192q22 -36 127 -62z" />
    <glyph glyph-name="f_f_j" unicode="ffj" horiz-adv-x="1812" 
d="M520 10v-10h-414v10q72 22 97 60q24 38 24 188v649h-153v29q92 28 121 61q23 30 32 99q24 181 116 253t267 72q70 0 125 -18q43 -15 43 -47q0 -50 -26 -148h-13q-15 67 -57 115q-36 39 -104 39q-137 0 -183 -98q-33 -70 -33 -199q0 -44 5 -84h344q65 0 102 29
q24 24 39 104q30 174 141 253t312 79q129 0 194 -27q45 -15 45 -53q0 -71 -33 -180h-20q-21 94 -78 151q-47 47 -129 47q-176 0 -246 -98q-55 -73 -55 -225q0 -18 4 -80h436q91 18 148 18q25 0 34 -10.5t9 -42.5q0 -53 -2 -151q-2 -96 -2 -238v-252q2 -113 2 -260
q0 -153 -15 -235q-13 -88 -49 -150q-73 -131 -245 -131q-73 0 -105 14q-37 15 -37 47q0 57 19 138h12q27 -134 127 -134q80 0 111 66q36 68 36 436v621q0 135 -18 162q-19 28 -82 28h-379v-643q0 -148 29 -192q21 -34 125 -62v-10h-412v10q71 21 96 60t25 188v649h-483v-645
q0 -153 26 -192q23 -33 127 -60z" />
    <glyph glyph-name="f_f_k" unicode="ffk" horiz-adv-x="2334" 
d="M520 10v-10h-414v10q72 22 97 60q24 38 24 188v649h-153v29q83 24 119 57q25 22 34 105q22 176 116 249.5t259 73.5q76 0 135 -18q41 -15 41 -47q0 -50 -26 -148h-13q-18 76 -57 115q-36 39 -109 39q-121 0 -174 -96q-37 -58 -37 -193q0 -42 5 -92h346q65 0 102 29
q27 24 39 116q18 126 82 199q63 70 140.5 95.5t197.5 25.5q109 0 194 -33q70 33 117 33q29 0 29 -45q0 -3 -0.5 -31t-1.5 -87t-2 -124q-2 -150 -2 -262v-399q162 140 276 264q92 100 92 139q0 49 -100 70v10h365v-10q-25 -6 -84 -39q-5 -3 -26 -21.5t-28 -23.5l-69 -68
l-226 -215q292 -438 408 -536q46 -36 111 -48v-8q-67 -18 -168 -18q-90 0 -152 80q-163 213 -299 444l-100 -88v-166q0 -160 24 -194q27 -40 103 -62v-8h-387v8q75 24 96 62q24 34 24 190v914q0 123 -34 157q-53 53 -160 53q-146 0 -223 -77q-68 -68 -68 -252q0 -38 4 -74
h258v-74h-258v-643q0 -152 27 -192q22 -36 127 -62v-10h-412v10q71 21 96 60t25 188v649h-483v-643q0 -153 26 -192q22 -36 127 -62z" />
    <glyph glyph-name="f_h" unicode="fh" horiz-adv-x="1841" 
d="M516 10v-10h-410v10q74 22 97 58q24 34 24 190v649h-153v29q97 31 121 61t36 123q29 178 134.5 252t287.5 74q116 0 195 -33q73 33 115 33q28 0 28 -49q0 -1 -0.5 -29.5t-1.5 -92.5t-2 -138q-2 -166 -2 -330q44 94 141 147.5t220 53.5q217 0 266 -166q22 -74 22 -228
v-354q0 -154 27 -192q22 -39 104 -60v-8h-389v8q69 21 97 62q22 42 22 190v328q0 195 -51 258q-55 67 -168 67q-126 0 -207 -63q-55 -39 -72 -100q-12 -40 -12 -123v-375q0 -148 25 -184q25 -39 102 -60v-8h-385v8q75 24 96 62q23 38 23 180v921q0 125 -35 160
q-59 53 -162 53q-144 0 -219 -81q-68 -74 -68 -256q0 -39 3 -66h258v-74h-256v-645q0 -151 26 -190q21 -35 123 -62z" />
    <glyph glyph-name="f_j" unicode="fj" horiz-adv-x="1183" 
d="M516 10v-10h-410v10q74 22 97 58q24 34 24 190v649h-153v29q102 27 123 61q21 27 36 117q28 178 141 255t318 77q107 0 180 -25q52 -15 52 -55q0 -71 -33 -180h-21q-21 106 -75 157q-47 41 -129 41q-164 0 -242 -96q-59 -77 -59 -225q0 -72 2 -82h430q92 18 145 18
q25 0 34 -10.5t9 -42.5q0 -2 -0.5 -19t-1.5 -53.5t-2 -78.5q-2 -96 -2 -224q0 -151 2 -272t2 -254q0 -159 -12 -238q-12 -84 -49 -147q-73 -131 -246 -131q-73 0 -105 14q-36 14 -36 51q0 58 18 134h12q27 -134 127 -134q80 0 111 66q37 70 37 385v672q0 137 -19 162
q-19 28 -80 28h-374v-643q0 -152 24 -192q21 -34 125 -62z" />
    <glyph glyph-name="f_k" unicode="fk" horiz-adv-x="1712" 
d="M516 10v-10h-410v10q74 22 97 58q24 34 24 190v649h-153v29q101 27 121 61q22 37 34 117q31 181 137.5 256.5t288.5 75.5q120 0 193 -33q62 33 115 33q28 0 28 -49q0 -3 -0.5 -30.5t-1.5 -86t-2 -123.5q-2 -150 -2 -260v-399q149 129 277 262q92 100 92 141q0 49 -99 70
v10h363v-10q-31 -8 -70 -31q-33 -23 -53 -43l-84 -78l-223 -215q162 -243 250 -360.5t157 -175.5q32 -32 109 -48v-8q-64 -18 -168 -18q-90 0 -152 80q-168 223 -297 444l-102 -88v-166q0 -154 25 -196t104 -60v-8h-387v8q78 28 96 62q23 41 23 196v908q0 122 -35 157
q-53 53 -162 53q-146 0 -219 -79q-68 -71 -68 -261q0 -39 3 -63h258v-74h-256v-643q0 -153 26 -192q21 -35 123 -62z" />
    <glyph glyph-name=".notdef" horiz-adv-x="1091" 
d="M1083 0h-1073v1503h1073v-1503zM182 1395l365 -547l364 547h-729zM977 1298l-367 -546l367 -547v1093zM547 655l-365 -549h729zM483 752l-366 546v-1093z" />
    <glyph glyph-name=".null" horiz-adv-x="0" 
 />
    <glyph glyph-name="nonmarkingreturn" horiz-adv-x="682" 
 />
    <glyph glyph-name="NULL" horiz-adv-x="0" 
 />
    <glyph glyph-name="NULL" horiz-adv-x="0" 
 />
    <glyph glyph-name="CR" unicode="&#xd;" horiz-adv-x="450" 
 />
    <glyph glyph-name="space" unicode=" " horiz-adv-x="477" 
 />
    <glyph glyph-name="exclam" unicode="!" horiz-adv-x="569" 
d="M334 414h-31q-8 112 -31 377q-43 468 -43 485q0 115 93 115q96 0 96 -113q0 -30 -15 -156l-36 -329q-21 -210 -33 -379zM319 -23q-45 0 -75.5 30t-30.5 79t30.5 79t78.5 30q47 0 75.5 -29.5t28.5 -79.5q0 -49 -29.5 -79t-77.5 -30z" />
    <glyph glyph-name="quotedbl" unicode="&#x22;" horiz-adv-x="694" 
d="M193 918h-25q-2 23 -23 174q-39 246 -39 280q0 94 80 94t80 -94q0 -25 -14 -96q-12 -74 -33 -184q-11 -63 -26 -174zM543 1090l-29 -172h-27q-4 43 -22 174q-7 59 -17 128t-15 105.5t-5 46.5q0 94 80 94q82 0 82 -94q0 -20 -15 -96q-17 -111 -32 -186z" />
    <glyph glyph-name="numbersign" unicode="#" horiz-adv-x="1273" 
d="M449 426l-70 -461h-55l67 461h-246v119h265l43 282h-252v119h268l66 426h55l-66 -426h310l65 426h55l-65 -426h237v-119h-254l-43 -282h242v-119h-258l-70 -461h-55l68 461h-307zM817 827h-309l-43 -282h309z" />
    <glyph glyph-name="dollar" unicode="$" horiz-adv-x="1060" 
d="M594 -10v-183h-62v177h-28q-176 0 -295 61q-59 35 -59 80q0 95 12 172h18q25 -99 101 -168q98 -82 251 -82v553l-102 49q-133 66 -187.5 150.5t-54.5 199.5q0 133 88 225.5t256 114.5v201h62v-197q12 3 41 3q149 0 237 -31q36 -12 49 -26.5t13 -39.5q0 -47 -27 -176h-18
q-27 108 -86 158q-65 53 -193 53h-16v-532l68 -33q173 -81 233 -166q59 -83 59 -201q0 -151 -92.5 -247.5t-267.5 -114.5zM821 293q0 90 -45 147q-48 61 -182 129v-518q110 18 168.5 86.5t58.5 155.5zM319 1044q0 -80 41 -139q44 -59 172 -123v496q-213 -35 -213 -234z" />
    <glyph glyph-name="percent" unicode="%" horiz-adv-x="1675" 
d="M684 930q0 -195 -77.5 -304.5t-223.5 -109.5q-162 0 -232.5 105.5t-70.5 314.5q0 196 82 304t229 108q158 0 225.5 -105t67.5 -313zM563 926q0 205 -37 288.5t-135 83.5q-188 0 -188 -348q0 -199 43 -291t141 -92q176 0 176 359zM465 -33l692 1428l60 -27l-689 -1427z
M1595 397q0 -194 -78 -303.5t-223 -109.5q-162 0 -233.5 105t-71.5 314q0 195 83.5 303.5t230.5 108.5q158 0 225 -105t67 -313zM1473 397q0 206 -37 287.5t-138 81.5q-184 0 -184 -348q0 -199 43 -291t141 -92q175 0 175 362z" />
    <glyph glyph-name="ampersand" unicode="&#x26;" horiz-adv-x="1470" 
d="M1446 129l10 -10q-121 -142 -221 -142q-60 0 -113.5 32t-140.5 116q-166 -152 -401 -152q-224 0 -351 115q-123 114 -123 293q0 266 334 389q-104 155 -104 297q0 148 101.5 237t279.5 89q129 0 205 -29q63 -26 63 -74q0 -54 -27 -174h-14q-27 99 -80 158q-52 55 -151 55
q-103 0 -168.5 -58.5t-65.5 -164.5q0 -122 121 -299q58 -84 207 -264q121 -146 237 -267q46 55 86 156q39 98 39 170q0 55 -47 76q-45 24 -84 31v12h385v-12q-20 -7 -67 -31q-52 -30 -82 -100q-105 -252 -182 -338q90 -87 133 -115q51 -36 110.5 -35t110.5 39zM934 172
q-99 96 -250 274q-136 166 -211 275q-209 -89 -209 -295q0 -155 103 -258q104 -98 272 -98q181 0 295 102z" />
    <glyph glyph-name="quotesingle" unicode="'" horiz-adv-x="372" 
d="M193 918h-25q-2 23 -23 174q-39 246 -39 280q0 94 80 94t80 -92q0 -25 -14 -96q-13 -84 -33 -186q-11 -63 -26 -174z" />
    <glyph glyph-name="parenleft" unicode="(" horiz-adv-x="593" 
d="M580 -238l-5 -12q-135 47 -234 141t-151 220q-94 242 -94 528q0 104 15 200.5t50.5 193.5t89 177.5t136.5 149.5t188 113l7 -13q-355 -218 -355 -817q0 -301 82 -537q82 -235 271 -344z" />
    <glyph glyph-name="parenright" unicode=")" horiz-adv-x="593" 
d="M14 1460l4 13q135 -47 234 -142t149 -221q97 -237 97 -528q0 -275 -115 -502q-115 -223 -365 -330l-6 10q355 218 355 818q0 176 -29 352q-26 158 -111 309q-84 149 -213 221z" />
    <glyph glyph-name="asterisk" unicode="*" horiz-adv-x="790" 
d="M397 780q-61 0 -61 60q0 11 7 44t22 96.5t22 96.5q-36 -31 -102 -94q-56 -56 -74 -68q-20 -14 -43 -14q-26 0 -41.5 19t-15.5 49q0 34 30 49q36 15 101 35q75 22 133 45q-49 20 -133 45q-83 25 -99 33q-32 17 -32 51q0 26 17.5 45.5t43.5 19.5q23 0 45 -16
q20 -16 170 -158q-9 43 -22.5 101t-21 91t-7.5 44q0 63 65 63q60 0 60 -61q0 -13 -7 -46.5t-21 -92t-23 -99.5q44 39 104 99l72 65q21 12 39 12q28 0 44.5 -19t16.5 -46q0 -34 -31 -53q-12 -8 -46 -19t-91 -28.5t-96 -30.5l131 -43q58 -16 98 -33q33 -14 33 -49
q0 -27 -16.5 -48.5t-40.5 -21.5q-23 0 -41 12q-36 30 -74 66q-57 57 -104 96q9 -47 24 -102q29 -116 29 -133q0 -62 -64 -62z" />
    <glyph glyph-name="plus" unicode="+" horiz-adv-x="1302" 
d="M702 504v-436h-104v436h-418v104h418v434h104v-434h418v-104h-418z" />
    <glyph glyph-name="comma" unicode="," horiz-adv-x="489" 
d="M88 -309l-12 18q176 129 176 244q0 45 -45 74q-60 38 -60 86q0 41 28 67.5t71 26.5q123 0 123 -156q0 -98 -77 -194.5t-204 -165.5z" />
    <glyph glyph-name="hyphen" unicode="-" horiz-adv-x="692" 
d="M592 586v-109h-494v109h494z" />
    <glyph glyph-name="period" unicode="." horiz-adv-x="475" 
d="M246 -23q-45 0 -76 30.5t-31 78.5q0 49 30.5 79t78.5 30q47 0 75.5 -29.5t28.5 -79.5q0 -49 -29.5 -79t-76.5 -30z" />
    <glyph glyph-name="slash" unicode="/" horiz-adv-x="831" 
d="M793 1483l-707 -1628l-68 24l711 1628z" />
    <glyph glyph-name="zero" unicode="0" horiz-adv-x="1085" 
d="M1010 662q0 -325 -119.5 -507t-343.5 -182q-110 0 -193 34.5t-135 94.5t-84.5 150.5t-45.5 191.5t-13 228q0 325 127 503.5t354 178.5q209 0 315 -129q75 -93 106.5 -231.5t31.5 -331.5zM846 653q0 340 -62 488q-61 149 -231 149q-311 0 -311 -598q0 -340 69.5 -496.5
t237.5 -156.5q297 0 297 614z" />
    <glyph glyph-name="one" unicode="1" horiz-adv-x="1085" 
d="M770 10v-10h-442v10q37 7 90 31q63 26 63 147v846q0 132 -12 170q-15 43 -80 43q-64 0 -78 -2l-4 21l316 94l14 -14q-6 -132 -6 -488v-670q0 -70 13.5 -100.5t47.5 -48.5q23 -10 78 -29z" />
    <glyph glyph-name="two" unicode="2" horiz-adv-x="1085" 
d="M877 0h-820v76q429 329 566 540q67 105 92.5 185t25.5 170q0 317 -282 317q-119 0 -187 -54.5t-106 -170.5h-12q-23 128 -23 158q0 49 68 79q114 54 299 54q206 0 307.5 -96.5t101.5 -272.5q0 -199 -162 -397q-165 -201 -522 -457q103 0 232 2q131 2 319 2q72 0 105 33
q29 29 75 123h15q0 -101 -19 -244q-5 -27 -19 -37t-54 -10z" />
    <glyph glyph-name="three" unicode="3" horiz-adv-x="1085" 
d="M104 279h13q26 -108 111.5 -174t222.5 -66q148 0 226.5 93.5t78.5 248.5q0 139 -87.5 217t-240.5 78h-51v55h53q139 0 216 75t77 222q0 123 -65.5 190.5t-192.5 67.5q-121 0 -188.5 -49t-108.5 -166h-12q-19 93 -19 146q0 52 66 83q114 54 297 54q188 0 286.5 -82
t98.5 -232q0 -132 -68 -212.5t-223 -116.5q326 -47 326 -328q0 -195 -125.5 -302.5t-348.5 -107.5q-196 0 -303 64q-51 29 -51 78q0 73 12 164z" />
    <glyph glyph-name="four" unicode="4" horiz-adv-x="1085" 
d="M969 10v-10h-443v10q64 12 105 39q49 34 49 139v185h-623v76l670 905h104q-4 -410 -4 -424v-449h213v-108h-213v-189q0 -64 12 -93t44 -48q20 -12 86 -33zM166 481h514q0 623 2 715q-147 -210 -516 -715z" />
    <glyph glyph-name="five" unicode="5" horiz-adv-x="1085" 
d="M133 276h14q21 -105 108 -167t224 -62q151 0 230 97t79 266q0 338 -299 338q-147 0 -288 -78l-11 10l70 647h641v-137h-395q-127 2 -197 2l-43 -404q112 62 260 62q203 0 315.5 -104t112.5 -318q0 -210 -128 -332.5t-349 -122.5q-205 0 -311 68q-47 30 -47 80
q0 54 14 155z" />
    <glyph glyph-name="six" unicode="6" horiz-adv-x="1085" 
d="M266 614q39 96 132 154.5t214 58.5q179 0 278 -104.5t99 -298.5q0 -197 -112 -324q-115 -127 -306 -127q-226 0 -338 162.5t-112 458.5q0 288 106 506q61 120 175.5 187t269.5 67q134 0 213 -33q59 -24 59 -61q0 -51 -26 -164h-13q-25 100 -83.5 146t-168.5 46
q-192 0 -286 -184q-95 -182 -101 -490zM281 459q0 -94 22 -187q24 -88 92 -159q72 -72 176 -72q118 0 189 95t71 280q0 160 -69.5 240.5t-194.5 80.5q-165 0 -248 -127q-38 -55 -38 -151z" />
    <glyph glyph-name="seven" unicode="7" horiz-adv-x="1085" 
d="M461 -33l-123 21q190 510 532 1206q-1 0 -63.5 -0.5t-202.5 -1.5t-303 -2q-94 0 -123 -29q-26 -26 -57 -121h-12q-15 132 -15 238q0 27 13.5 38t48.5 11h815v-74q-253 -606 -510 -1286z" />
    <glyph glyph-name="eight" unicode="8" horiz-adv-x="1085" 
d="M649 727q162 -64 245 -155t83 -222q0 -173 -121 -275t-324 -102q-198 0 -309.5 96.5t-111.5 249.5q0 119 79 214t218 139q-242 125 -242 342q0 148 108 243q111 97 285 97q183 0 275 -77.5t92 -219.5q0 -213 -277 -330zM451 647q-213 -121 -213 -321q0 -132 84 -208.5
t215 -76.5q130 0 211 73.5t81 190.5q0 114 -81 189q-80 76 -297 153zM604 750q203 123 203 299q0 114 -62.5 175.5t-183.5 61.5q-120 0 -187 -63.5t-67 -165.5q0 -94 60 -166q61 -71 237 -141z" />
    <glyph glyph-name="nine" unicode="9" horiz-adv-x="1085" 
d="M817 713q-42 -99 -131.5 -156t-210.5 -57q-178 0 -277.5 106t-99.5 297q0 197 119 322q120 129 315 129q433 0 433 -619q0 -125 -14.5 -231.5t-52.5 -206.5t-97 -170t-153.5 -112t-217.5 -42q-148 0 -235 37q-58 27 -58 66q0 50 27 164h12q46 -199 266 -199
q366 0 375 672zM807 870q0 422 -275 422q-124 0 -201 -94.5t-77 -282.5q0 -160 71.5 -242.5t194.5 -82.5q77 0 143.5 36t104.5 93q39 56 39 151z" />
    <glyph glyph-name="colon" unicode=":" horiz-adv-x="514" 
d="M287 -23q-45 0 -75 30t-30 79t30 80t77 31t74.5 -30.5t27.5 -80.5t-28.5 -79.5t-75.5 -29.5zM391 854q0 -48 -28.5 -78.5t-75.5 -30.5q-33 -4 -59 16t-37 50t-6.5 64.5t26.5 56.5q24 23 57 28.5t61.5 -5t47 -37.5t14.5 -64z" />
    <glyph glyph-name="semicolon" unicode=";" horiz-adv-x="514" 
d="M127 -309l-10 18q78 59 126 124.5t48 119.5q0 44 -43 74q-60 38 -60 86q0 41 27.5 67.5t69.5 26.5q123 0 123 -156q0 -98 -77 -194.5t-204 -165.5zM391 854q0 -48 -28.5 -78.5t-75.5 -30.5q-33 -4 -59 16t-37 50t-6.5 64.5t26.5 56.5q24 23 57 28.5t61.5 -5t47 -37.5
t14.5 -64z" />
    <glyph glyph-name="less" unicode="&#x3c;" horiz-adv-x="1302" 
d="M1051 223v-123l-832 404v98l832 412v-119l-713 -340z" />
    <glyph glyph-name="equal" unicode="=" horiz-adv-x="1302" 
d="M186 315v105h932v-105h-932zM186 692v103h932v-103h-932z" />
    <glyph glyph-name="greater" unicode="&#x3e;" horiz-adv-x="1302" 
d="M256 891v123l829 -404v-100l-829 -410v119l711 340z" />
    <glyph glyph-name="question" unicode="?" horiz-adv-x="878" 
d="M346 543l-10 -131h-27q-18 114 -18 141q0 76 28 127q24 45 134 137q139 115 139 275q0 108 -51.5 170.5t-157.5 62.5q-95 0 -148.5 -47.5t-80.5 -144.5h-11q-16 75 -16 149q0 45 55 72q87 37 226 37q170 0 259 -75.5t89 -213.5q0 -98 -49 -174q-42 -69 -187 -176
q-92 -66 -127.5 -109t-46.5 -100zM340 -23q-45 0 -74.5 30t-29.5 79t30 79t78 30q47 0 74.5 -29.5t27.5 -79.5q0 -49 -29.5 -79t-76.5 -30z" />
    <glyph glyph-name="at" unicode="@" horiz-adv-x="1560" 
d="M1303 -35l18 -39q-232 -143 -516 -143q-301 0 -483 176q-179 176 -179 461q0 330 209 545q212 215 541 215q267 0 414 -141t147 -394q0 -209 -129 -373q-126 -163 -274 -163q-119 0 -119 122q0 87 22 164q-74 -145 -158.5 -214.5t-164.5 -69.5q-152 0 -152 188
q0 117 64 266q65 151 159 230q95 77 232 77q135 0 237 -45q-47 -69 -124 -448q-15 -77 -15 -139q0 -72 58 -72q88 0 190 147q102 150 102 324q0 231 -129 360t-366 129q-284 0 -473 -198q-189 -201 -189 -508q0 -278 164 -428q169 -152 436 -152q145 0 254 31q101 26 224 92
zM1042 774q0 30 -36 39q-52 10 -93 10q-79 0 -147 -59q-74 -68 -125 -201q-51 -134 -51 -237q0 -73 18.5 -104.5t61.5 -31.5q78 0 161 89q86 92 138 229q28 74 65 215q8 24 8 51z" />
    <glyph glyph-name="A" unicode="A" horiz-adv-x="1320" 
d="M375 10v-10h-365v10q63 15 88 47q41 47 78 140l324 866q1 3 9 23.5t19 49.5t23 62q43 114 61 168h105l106 -291l318 -874q42 -114 73 -148q27 -27 95 -43v-10h-437v10q54 11 93 35q28 19 28 55q0 26 -24 103l-101 286h-495l-101 -282q-27 -73 -24 -112.5t45 -57.5
q25 -14 82 -27zM621 1190l-226 -635h447l-113 317l-74 211z" />
    <glyph glyph-name="B" unicode="B" horiz-adv-x="1220" 
d="M594 0h-471v10q91 28 113 56q26 33 26 165v926q0 109 -31 148q-28 32 -108 51v10h446q183 0 289 -41q87 -33 136.5 -107t49.5 -176q0 -123 -70 -207t-212 -114q168 -13 260 -103t92 -229q0 -265 -231 -348q-118 -41 -289 -41zM418 1223v-480h110q106 0 183 23
q166 52 166 260q0 185 -127 244q-68 30 -183 30h-84q-38 0 -51.5 -16t-13.5 -61zM524 682h-106v-547q0 -59 55 -65q58 -7 141 -7q159 0 242.5 85t83.5 241q0 215 -211 273q-73 20 -205 20z" />
    <glyph glyph-name="C" unicode="C" horiz-adv-x="1284" 
d="M1186 252h12q-3 -112 -18 -162q-9 -37 -80 -67q-121 -50 -324 -50q-323 0 -494 186t-171 523q0 341 180 526t520 185q197 0 315 -47q66 -28 66 -74q0 -59 -35 -193h-12q-21 98 -70 156q-87 90 -280 90q-243 0 -375.5 -162t-132.5 -467q0 -310 138.5 -482.5t395.5 -172.5
q158 0 250 65q68 50 115 146z" />
    <glyph glyph-name="D" unicode="D" horiz-adv-x="1460" 
d="M608 0h-485v10q64 19 88.5 34.5t34.5 45.5q16 56 16 195v788q0 164 -16 207q-18 52 -123 76v10h526q296 0 447 -92q256 -164 256 -553q0 -721 -744 -721zM418 1145v-881q0 -108 10 -141q9 -33 41 -43q56 -17 152 -17q557 0 557 644q0 313 -148 464q-123 129 -436 129
q-130 0 -156 -26q-20 -20 -20 -129z" />
    <glyph glyph-name="E" unicode="E" horiz-adv-x="1107" 
d="M958 0h-835v10q76 21 108 53q31 28 31 179v905q0 127 -26 153q-27 34 -113 56v10h803q27 0 36 -8.5t9 -34.5t-19 -205h-12q-44 152 -117 170q-47 12 -135 12h-211q-34 0 -46.5 -14.5t-12.5 -50.5v-492h164q97 0 157 13q53 10 76.5 36t40.5 93h12v-342h-12
q-12 63 -40.5 92t-90.5 39q-41 6 -141 6h-166v-512q0 -58 19 -79t79 -21h229q130 0 181 45q44 35 100 166h12q0 -118 -16 -230q-4 -31 -16.5 -40t-47.5 -9z" />
    <glyph glyph-name="F" unicode="F" horiz-adv-x="1046" 
d="M580 10v-10h-457v10q89 21 117 66q22 39 22 188v893q0 120 -26 146q-33 33 -113 53v10h801q30 0 38.5 -8.5t8.5 -38.5q0 -53 -19 -199h-12q-24 87 -49.5 123t-65.5 47q-48 10 -137 10h-211q-35 0 -47 -12.5t-12 -48.5v-514h184q112 0 148 8q53 12 75.5 38t40.5 91h13
v-338h-13q-12 63 -39 90t-90 37q-38 6 -133 6h-186v-397q0 -97 7 -135t26 -57q25 -25 129 -58z" />
    <glyph glyph-name="G" unicode="G" horiz-adv-x="1419" 
d="M1247 25q-78 -9 -184 -27q-141 -25 -258 -25q-322 0 -510 185q-186 183 -186 524q0 339 189 525t540 186q203 0 342 -47q39 -14 53 -28t14 -40q0 -84 -33 -199h-12q-22 96 -53 135q-77 111 -311 111q-269 0 -410 -158.5t-141 -474.5q0 -304 142 -475.5t409 -171.5
q68 0 134 13t89 32q16 16 16 82v166q0 160 -22 199q-28 42 -127 63v10h420v-10q-75 -29 -91 -59q-24 -40 -24 -199v-137q0 -125 14 -180z" />
    <glyph glyph-name="H" unicode="H" horiz-adv-x="1542" 
d="M559 10v-10h-436v10q92 21 117 64q22 39 22 190v844q0 152 -22 188q-25 39 -117 60v10h436v-10q-92 -20 -115 -58q-26 -39 -26 -188v-365h706v363q0 152 -22 188q-28 39 -117 60v10h434v-10q-91 -22 -114 -58q-25 -36 -25 -188v-848q0 -148 25 -190q24 -38 114 -62v-10
h-434v10q92 21 117 64q22 39 22 190v416h-706v-418q0 -148 26 -190q21 -38 115 -62z" />
    <glyph glyph-name="I" unicode="I" horiz-adv-x="679" 
d="M559 10v-10h-436v10q92 21 117 64q22 39 22 190v844q0 150 -22 186q-24 38 -117 62v10h436v-10q-94 -22 -115 -56q-26 -39 -26 -190v-848q0 -148 26 -190q21 -38 115 -62z" />
    <glyph glyph-name="J" unicode="J" horiz-adv-x="675" 
d="M-25 -102h15q27 -152 143 -152q84 0 115 66q37 84 37 415v883q0 146 -23 184q-24 38 -129 62v10h445v-10q-86 -21 -113 -56q-25 -42 -25 -190q0 -158 4 -580q1 -93 2 -173.5t2 -119.5t1 -42q0 -155 -15 -234q-13 -84 -51 -145q-39 -65 -111.5 -103.5t-162.5 -38.5
q-69 0 -113 13q-41 12 -41 49q0 72 20 162z" />
    <glyph glyph-name="K" unicode="K" horiz-adv-x="1333" 
d="M559 10v-10h-436v10q88 21 117 64q22 39 22 190v844q0 152 -22 188t-117 60v10h436v-10q-94 -22 -115 -56q-26 -39 -26 -190v-444q119 113 413 450q99 114 99 166q0 50 -113 74v10h402v-10q-66 -19 -103 -51q-44 -38 -117 -119l-366 -400q281 -395 377 -514
q117 -145 186 -198q43 -35 121 -60v-12q-85 -6 -182 -6q-69 0 -109.5 20t-89.5 80q-155 199 -418 588l-100 -100v-324q0 -146 26 -188q21 -38 115 -62z" />
    <glyph glyph-name="L" unicode="L" horiz-adv-x="1095" 
d="M961 0h-838v10q79 21 108 53q31 36 31 179v866q0 150 -24 188q-29 37 -115 60v10h442v-10q-95 -22 -121 -58q-26 -33 -26 -188v-942q0 -58 19 -79t79 -21h223q134 0 181 41q53 44 106 172h12q-5 -113 -16 -220q-4 -41 -14.5 -51t-46.5 -10z" />
    <glyph glyph-name="M" unicode="M" horiz-adv-x="1787" 
d="M494 10v-10h-381v10q81 21 110 58t35 168l41 913q2 16 2 84q-3 42 -35 74q-40 34 -100 49v10h262q27 0 38.5 -6.5t18.5 -28.5q388 -1001 414 -1073q20 58 430 1065q11 27 21 35t34 8h271v-10q-100 -30 -115 -58q-22 -36 -22 -114q0 -94 24 -1000q3 -101 41 -133
q30 -27 100 -41v-10h-438v10q76 18 107 49q32 32 32 144q0 63 -2 135l-8 371q-8 352 -10 510q-10 -28 -26 -67.5t-40.5 -100.5t-44.5 -111l-137 -336l-223 -553h-76l-444 1157q-1 -16 -3 -89.5t-6 -189.5t-8 -243q-14 -405 -14 -467q0 -115 31 -151q34 -37 121 -58z" />
    <glyph glyph-name="N" unicode="N" horiz-adv-x="1492" 
d="M500 10v-10h-379v10q91 22 119 70q22 31 22 199q0 227 2 397q2 172 2 385q0 189 -20 225q-26 42 -123 70v10h258q37 0 59 -31q659 -937 746 -1079l-8 838q0 150 -21 188q-27 53 -123 74v10h367v-10q-91 -28 -117 -70q-22 -39 -22 -201v-1099h-82l-842 1220
q10 -570 10 -925q0 -155 23 -199q28 -45 129 -72z" />
    <glyph glyph-name="O" unicode="O" horiz-adv-x="1472" 
d="M1362 700q0 -348 -165 -537.5t-462 -189.5q-294 0 -459 178.5t-165 518.5q0 146 33.5 266.5t92 204.5t139 141.5t173 84t196.5 26.5q297 0 457 -178.5t160 -514.5zM1192 676q0 365 -137 514q-120 137 -310 137q-52 0 -101 -11t-103 -36.5t-98 -73.5t-80 -115t-56 -169.5
t-20 -229.5q0 -329 118 -491t332 -162q210 0 332.5 163.5t122.5 473.5z" />
    <glyph glyph-name="P" unicode="P" horiz-adv-x="1198" 
d="M567 10v-10h-444v10q98 30 117 62q22 39 22 186v856q0 138 -18 176q-25 45 -121 66v10h409q197 0 281 -20q289 -61 289 -355q0 -202 -140.5 -306.5t-388.5 -104.5q-81 0 -155 4v-326q0 -155 26 -188q25 -36 123 -60zM418 1219v-568q62 -4 145 -4q367 0 367 334
q0 229 -164 291q-73 28 -199 28h-88q-36 0 -48.5 -17.5t-12.5 -63.5z" />
    <glyph glyph-name="Q" unicode="Q" horiz-adv-x="1472" 
d="M1362 700q0 -288 -114 -468t-326 -236q139 -96 188 -125q62 -38 184 -88q113 -45 215 -45q57 0 70 8l4 -10q-109 -92 -231 -92q-133 0 -256 69q-127 68 -383 260q-283 6 -442.5 184.5t-159.5 512.5q0 146 33.5 266.5t92 204.5t139 141.5t173 84t196.5 26.5
q297 0 457 -178.5t160 -514.5zM1192 676q0 365 -137 514q-120 137 -310 137q-52 0 -101 -11t-103 -36.5t-98 -73.5t-80 -115t-56 -169.5t-20 -229.5q0 -329 118 -491t332 -162q210 0 332.5 163.5t122.5 473.5z" />
    <glyph glyph-name="R" unicode="R" horiz-adv-x="1327" 
d="M561 10v-10h-438v10q93 24 117 62q22 39 22 190v850q0 148 -22 184q-26 38 -117 60v10h424q180 0 289 -33q110 -31 168.5 -117.5t58.5 -214.5q0 -134 -73.5 -226.5t-209.5 -135.5q24 -11 43.5 -30.5t48.5 -61.5q6 -9 17.5 -25t20 -29t14.5 -24l75 -121l95 -149
q110 -172 229 -187v-10q-85 -10 -139 -10q-120 0 -162 39q-56 53 -137 194l-185 320q-26 37 -55.5 50t-83.5 13h-143v-348q0 -156 26 -192q25 -31 117 -58zM418 1227v-555h119q133 0 198 30q156 68 156 295q0 189 -109 254q-82 49 -233 49h-64q-41 0 -54 -14.5t-13 -58.5z
" />
    <glyph glyph-name="S" unicode="S" horiz-adv-x="1060" 
d="M137 293h15q24 -106 108 -178q94 -76 242 -76q149 0 227 78q76 76 76 178q0 101 -60 170q-59 71 -243 158l-101 47q-254 120 -254 358q0 149 115 258q116 107 348 107q147 0 238 -31q38 -13 50.5 -26t12.5 -38q0 -43 -28 -180h-13q-35 114 -88 156q-65 53 -198 53
q-140 0 -219.5 -69.5t-79.5 -184.5q0 -87 49 -151q52 -64 207 -140l96 -45q171 -82 239 -170.5t68 -208.5q0 -174 -121.5 -279.5t-337.5 -105.5q-187 0 -299 62q-63 37 -63 82q0 84 14 176z" />
    <glyph glyph-name="T" unicode="T" horiz-adv-x="1202" 
d="M821 10v-10h-438v10q92 21 117 64q22 39 22 190v975q0 35 -11.5 48t-43.5 13h-123q-87 0 -139 -10q-44 -11 -74.5 -53t-62.5 -139h-11q-10 163 -10 223q0 28 7.5 36.5t35.5 8.5h1020q30 0 37.5 -8t7.5 -35q0 -92 -10 -225h-10q-25 98 -57.5 139.5t-82.5 52.5
q-68 10 -141 10h-115q-35 0 -47 -12.5t-12 -48.5v-975q0 -156 25 -192q24 -41 116 -62z" />
    <glyph glyph-name="U" unicode="U" horiz-adv-x="1495" 
d="M106 1356v10h437v-10q-95 -24 -119 -68q-23 -44 -23 -145v-596q0 -210 41 -316q73 -186 336 -186q115 0 202 38t126 101q63 100 63 365v549q0 154 -28 196q-27 41 -119 62v10h377v-10q-84 -22 -109 -60q-35 -41 -35 -198v-523q0 -170 -20 -269t-70 -165
q-122 -168 -420 -168q-327 0 -436 189q-63 108 -63 399v578q0 114 -23 155q-24 38 -117 62z" />
    <glyph glyph-name="V" unicode="V" horiz-adv-x="1308" 
d="M707 0h-109q-67 212 -100 299l-316 864q-45 124 -73 152q-25 25 -99 41v10h445v-10q-74 -22 -95 -37q-32 -14 -32 -51q0 -32 24 -103q296 -827 344 -981q53 165 332 959q25 73 25 119q0 39 -39 59q-32 20 -86 35v10h370v-10q-71 -18 -102 -49q-32 -35 -70 -138l-313 -862
q-54 -149 -106 -307z" />
    <glyph glyph-name="W" unicode="W" horiz-adv-x="1947" 
d="M604 0h-110q-11 59 -78 315l-215 844q-35 131 -80 160q-32 22 -86 37v10h440v-10q-62 -19 -94 -37q-33 -14 -33 -53q0 -40 12 -92q216 -860 238 -969q54 188 352 1128h107q309 -913 375 -1130l227 956q12 59 12 101q0 35 -41 59q-48 21 -102 37v10h385v-10l-80 -33
q-34 -18 -49.5 -48.5t-36.5 -113.5l-215 -842q-59 -233 -78 -319h-111q-354 1085 -378 1149q-42 -158 -361 -1149z" />
    <glyph glyph-name="X" unicode="X" horiz-adv-x="1353" 
d="M420 10v-10h-395v10q59 18 90 43q44 30 88 88l387 539l-350 524q-69 101 -90 113q-34 27 -78 39v10h452v-10q-48 -11 -98 -33q-31 -10 -29.5 -38.5t41.5 -92.5l273 -404l123 183q91 136 108 157q78 116 78 154q0 28 -25 37q-53 23 -94 37v10h361v-10q-36 -14 -78 -43
q-26 -20 -78 -90l-352 -488l397 -594q45 -64 86 -92q41 -24 90 -39v-10h-483v10q37 11 92 39q31 12 31 39q0 32 -33 82l-299 453l-62 -91q-90 -127 -131 -188l-92 -133q-59 -83 -59 -119q0 -33 28 -45q33 -20 101 -37z" />
    <glyph glyph-name="Y" unicode="Y" horiz-adv-x="1263" 
d="M846 10v-10h-434v10q94 25 114 64q25 42 25 184v324l-365 600q-65 105 -102 137q-40 29 -72 37v10h447v-10q-57 -12 -94 -31q-29 -16 -29 -43q0 -36 41 -104l299 -510q54 98 285 491q40 70 40 119q0 34 -38 51q-26 11 -74 27v10h362v-10q-60 -14 -106 -66
q-35 -41 -74 -106l-364 -590v-338q0 -145 26 -184q21 -34 113 -62z" />
    <glyph glyph-name="Z" unicode="Z" horiz-adv-x="1208" 
d="M1073 0h-1032v16l858 1284q-349 0 -561 -4q-121 -3 -154 -53q-22 -32 -49 -133h-12q-19 136 -19 211q0 27 7.5 36t31.5 9h971v-18l-858 -1280q143 0 573 4q157 3 203 49q44 41 101 155h10q0 -116 -21 -239q-1 -20 -12.5 -28.5t-36.5 -8.5z" />
    <glyph glyph-name="bracketleft" unicode="[" horiz-adv-x="593" 
d="M526 -221v-10h-319v1677h319v-10q-150 -30 -174 -70q-16 -26 -16 -106v-1305q0 -84 18 -111t172 -65z" />
    <glyph glyph-name="backslash" unicode="\" horiz-adv-x="831" 
d="M98 1507l709 -1628l-66 -29l-706 1631z" />
    <glyph glyph-name="bracketright" unicode="]" horiz-adv-x="593" 
d="M68 1436v10h319v-1677h-319v10q152 35 174 69q16 26 16 107v1305q0 81 -18 108q-21 30 -172 68z" />
    <glyph glyph-name="asciicircum" unicode="^" horiz-adv-x="1302" 
d="M707 1331l352 -741h-115l-293 622l-293 -624h-112l354 743h107z" />
    <glyph glyph-name="underscore" unicode="_" horiz-adv-x="1081" 
d="M0 -270v112h1081v-112h-1081z" />
    <glyph glyph-name="grave" unicode="`" horiz-adv-x="442" 
d="M203 1468l188 -321l-10 -10l-279 245q-47 41 -47 80q0 29 21 46.5t51 17.5q42 0 76 -58z" />
    <glyph glyph-name="a" unicode="a" horiz-adv-x="1032" 
d="M688 147q-88 -172 -303 -172q-135 0 -217 75t-82 198q0 157 178 215q77 24 316 59q74 9 90 25q12 15 12 63v52q0 143 -51 194q-52 55 -180 55q-104 0 -178.5 -30t-104.5 -80l-6 2q-4 12 -4 28q0 78 100 127q103 50 238 50q166 0 246.5 -70.5t80.5 -230.5q0 -99 -2 -226
v-276q0 -93 23.5 -124.5t81.5 -31.5q35 0 65 10l4 -8q-71 -74 -161 -74q-140 0 -146 170zM682 276v216q-26 -13 -66 -19q-234 -43 -264 -53q-119 -40 -119 -170q0 -91 56.5 -140t146.5 -49q81 0 145 34t89 98q12 30 12 83z" />
    <glyph glyph-name="b" unicode="b" horiz-adv-x="1157" 
d="M215 -55l-12 2q4 66 4 309v913q0 115 -14 158q-18 63 -107 78v10q118 31 225 31q24 0 32.5 -11t8.5 -42q0 -64 -2 -123q0 -135 -2 -223t-2 -240q31 88 124.5 145.5t205.5 57.5q383 0 383 -502q0 -253 -122.5 -390.5t-336.5 -137.5q-112 0 -211 30q-74 23 -90 23
q-44 0 -84 -88zM346 643v-422q0 -68 25 -104q24 -31 88 -52.5t137 -21.5q145 0 227 114t82 328q0 435 -282 435q-131 0 -209 -78q-41 -41 -52 -76q-16 -46 -16 -123z" />
    <glyph glyph-name="c" unicode="c" horiz-adv-x="925" 
d="M866 158l6 -2v-13q0 -14 -16 -43q-34 -57 -112 -92t-191 -35q-215 0 -335 132t-120 372q0 254 133 392.5t355 138.5q137 0 215 -35q45 -20 45 -58q0 -49 -29 -159h-10q-26 100 -86 147q-51 39 -150 39q-145 0 -232 -107.5t-87 -324.5q0 -231 96 -338q98 -104 252 -104
q150 0 266 90z" />
    <glyph glyph-name="d" unicode="d" horiz-adv-x="1198" 
d="M819 152q-36 -79 -118 -128t-181 -49q-199 0 -310.5 127.5t-111.5 362.5q0 255 128.5 399t361.5 144q144 0 227 -62v223q0 104 -16 154q-21 66 -107 82v10q130 31 228 31q41 0 41 -49q0 -5 -1 -43.5t-2 -114.5t-2 -160q-2 -193 -2 -374v-482q0 -166 97 -166q38 0 65 6
l6 -8q-76 -73 -180 -73q-63 0 -91 38t-32 132zM815 279v452q0 52 -8 96q-6 33 -31 58q-61 61 -196 61q-161 0 -244.5 -119.5t-83.5 -322.5q0 -232 90 -336q92 -102 223 -102q135 0 207 81q29 29 37 66q6 24 6 66z" />
    <glyph glyph-name="e" unicode="e" horiz-adv-x="995" 
d="M256 598h502q4 36 4 64q0 286 -219 286q-128 0 -203.5 -93.5t-83.5 -256.5zM844 537h-592v-27q0 -104 21 -184t54.5 -127.5t81.5 -78t95.5 -41.5t101.5 -11q169 0 295 102l6 -4v-10q0 -16 -10 -33q-38 -65 -124.5 -107.5t-209.5 -42.5q-228 0 -346.5 134.5t-118.5 373.5
q0 250 125 387q128 140 330 140q177 0 267.5 -97t90.5 -274q0 -69 -8 -82q-9 -18 -59 -18z" />
    <glyph glyph-name="f" unicode="f" horiz-adv-x="649" 
d="M528 10v-10h-422v10q74 22 97 58q24 34 24 190v649h-153v29q93 25 119 61q27 30 36 129q19 172 110.5 246t254.5 74q76 0 135 -19q43 -15 43 -45q0 -36 -29 -149h-12q-21 79 -63 121q-34 30 -101 30q-122 0 -172 -84q-35 -59 -35 -215q0 -53 7 -104h225v-74h-225v-643
q0 -151 26 -190q23 -37 135 -64z" />
    <glyph glyph-name="g" unicode="g" horiz-adv-x="1013" 
d="M332 350q-219 77 -219 312q0 156 103.5 251t283.5 95q117 0 200 -45q213 3 275 51l6 -2q-4 -73 -20.5 -98t-57.5 -25q-58 0 -125 12q76 -85 76 -227q0 -158 -104 -250t-273 -92q-9 0 -45.5 2t-40.5 2q-19 0 -41 -19q-31 -31 -31 -63q0 -58 89 -76q254 -47 354 -72
q213 -53 213 -225q0 -159 -130 -249.5t-362 -90.5q-209 0 -319.5 71t-110.5 193q0 88 70 155.5t221 100.5q-125 34 -125 132q0 93 113 157zM426 39q-101 0 -195 -82q-59 -53 -59 -145q0 -93 92 -152q89 -57 225 -57q166 0 257.5 59.5t91.5 163.5q0 107 -127 154
q-48 18 -152 38q-94 21 -133 21zM707 670q0 276 -213 276q-108 0 -171 -69t-63 -207q0 -279 221 -279q226 0 226 279z" />
    <glyph glyph-name="h" unicode="h" horiz-adv-x="1230" 
d="M485 8v-8h-387v8q78 24 99 62q22 39 22 180v893q0 141 -16 184q-25 66 -105 78v10q130 31 221 31q27 0 36.5 -10.5t9.5 -40.5l-1 -29q-1 -30 -2 -93t-2 -136q-2 -166 -2 -330q48 93 144 147t217 54q213 0 266 -164q23 -74 23 -217v-367q0 -156 26 -192q22 -38 103 -60v-8
h-387v8q68 20 96 62q22 42 22 190v328q0 199 -47 258q-55 67 -172 67q-119 0 -207 -61q-56 -41 -71 -102q-13 -57 -13 -123v-373q0 -148 25 -184q24 -41 102 -62z" />
    <glyph glyph-name="i" unicode="i" horiz-adv-x="591" 
d="M494 8v-8h-388v8q76 25 97 62q22 39 22 176v461q0 135 -18 176q-28 66 -103 75v11q123 30 224 30q25 0 34 -10.5t9 -42.5q0 -5 -0.5 -24.5t-1.5 -60t-2 -83.5q-2 -98 -2 -207v-325q0 -134 24 -174q26 -46 105 -64zM276 1225q-44 0 -72 28t-28 74q0 47 28 76t75 29
q61 7 86.5 -48.5t-1 -110.5t-88.5 -48z" />
    <glyph glyph-name="j" unicode="j" horiz-adv-x="575" 
d="M-59 -260h10q27 -133 129 -133q81 0 110 63q35 72 35 387v645q0 134 -18 181q-31 66 -103 75v11q123 30 224 30q25 0 34 -11t9 -42q0 -3 -0.5 -22t-1.5 -59t-2 -83q-2 -100 -2 -211q0 -147 2 -260t2 -256q0 -146 -11 -239q-9 -79 -49 -142q-74 -133 -250 -133
q-67 0 -102 15q-37 15 -37 47q0 51 21 137zM276 1225q-44 0 -72 28t-28 74q0 47 28 76t75 29q61 7 86.5 -48.5t-1 -110.5t-88.5 -48z" />
    <glyph glyph-name="k" unicode="k" horiz-adv-x="1089" 
d="M492 8v-8h-390v8q78 24 99 62q22 36 22 190v893q0 137 -18 178q-30 65 -103 74v10q118 31 222 31q27 0 36 -10.5t9 -44.5q0 -3 -0.5 -30.5t-1.5 -85.5t-2 -122q-3 -218 -3 -256v-399q177 153 275 262q92 100 92 141q0 49 -94 70v10h358v-10q-38 -12 -84 -43
q-31 -22 -121 -109l-223 -215q280 -426 406 -536q46 -37 110 -48v-8q-67 -18 -166 -18q-91 0 -153 80q-124 161 -299 444l-101 -88v-166q0 -158 25 -194q27 -41 105 -62z" />
    <glyph glyph-name="l" unicode="l" horiz-adv-x="589" 
d="M487 8v-8h-387v8q76 25 97 62q24 40 24 180v907q0 119 -14 162q-21 74 -109 86v10q124 31 230 31q23 0 31 -11t8 -46q0 -6 -1 -38.5t-2 -95t-2 -131.5q-2 -158 -2 -266v-602q0 -148 23 -186q35 -47 104 -62z" />
    <glyph glyph-name="m" unicode="m" horiz-adv-x="1847" 
d="M494 8v-8h-388v8q76 25 97 62q22 39 22 174v467q0 138 -22 180q-27 58 -99 67v11q120 30 218 30q24 0 32.5 -7t12.5 -31q2 -16 2 -150q38 91 132 144t214 53q224 0 268 -220q43 104 137 162t223 58q206 0 261 -166q20 -61 20 -219v-371q0 -144 27 -184q19 -39 104 -60v-8
h-387v8q68 21 92 62q27 35 27 182v326q0 211 -47 270q-53 65 -164 65q-113 0 -195 -61q-54 -45 -71 -100q-15 -46 -15 -129v-369q0 -154 27 -191q21 -34 102 -55v-8h-387v8q69 21 97 62q22 42 22 182v326q0 216 -45 270q-59 65 -164 65q-116 0 -198 -61q-56 -43 -70 -102
q-14 -41 -14 -119v-377q0 -152 24 -186q23 -38 105 -60z" />
    <glyph glyph-name="n" unicode="n" horiz-adv-x="1239" 
d="M494 8v-8h-388v8q73 22 97 62q22 39 22 174v467q0 136 -22 178q-28 60 -99 69v11q123 30 213 30q44 0 50 -36q2 -16 2 -154q41 92 137 145.5t219 53.5q219 0 268 -168q21 -64 21 -215v-375q0 -145 26 -184q20 -33 105 -58v-8h-387v8q70 21 94 62q22 42 22 178v332
q0 208 -49 266q-55 67 -170 67q-116 0 -204 -61q-57 -42 -72 -102q-14 -43 -14 -119v-385q0 -138 24 -176q24 -41 105 -62z" />
    <glyph glyph-name="o" unicode="o" horiz-adv-x="1132" 
d="M1034 504q0 -253 -123.5 -392t-345.5 -139q-220 0 -343.5 128.5t-123.5 379.5q0 259 138 391q139 136 348 136q221 0 335.5 -128t114.5 -376zM881 487q0 459 -303 459q-45 0 -87.5 -11.5t-86.5 -42.5t-76.5 -79.5t-53 -129.5t-20.5 -185q0 -231 84.5 -347t230.5 -116
t229 115t83 337z" />
    <glyph glyph-name="p" unicode="p" horiz-adv-x="1153" 
d="M508 -440v-11h-420v11q75 21 96 59q23 38 23 174v918q0 134 -23 178q-34 60 -98 69v11q120 30 211 30q43 0 49 -36q4 -28 4 -146q29 81 125 137q95 56 205 56q379 0 379 -492q0 -252 -127.5 -391t-341.5 -139q-162 0 -244 49v-242q0 -133 27 -174q21 -34 135 -61z
M346 647v-416q0 -67 25 -106q24 -31 85 -52.5t132 -21.5q144 0 228.5 116t84.5 318q0 225 -69.5 330t-208.5 105q-61 0 -121 -23.5t-92 -56.5q-38 -44 -48 -74q-16 -43 -16 -119z" />
    <glyph glyph-name="q" unicode="q" horiz-adv-x="1169" 
d="M1073 -440v-11h-420v11q113 27 135 65q27 41 27 174v353q-41 -78 -124 -122t-193 -44q-177 0 -289 127q-111 129 -111 348q0 257 125 402t357 145q100 0 192 -29q78 -27 92 -27q41 0 76 86l21 -2q-7 -86 -7 -323v-916q0 -137 23 -178q25 -38 96 -59zM815 305v428
q0 98 -20 131q-55 82 -224 82q-152 0 -236.5 -116.5t-84.5 -311.5q0 -228 83.5 -335t227.5 -107q129 0 207 78q31 36 37 59q7 18 10 92z" />
    <glyph glyph-name="r" unicode="r" horiz-adv-x="815" 
d="M526 8v-8h-420v8q76 25 97 62q22 36 22 176v463q0 129 -20 176q-27 63 -101 73v11q120 30 213 30q26 0 36.5 -8.5t11.5 -32.5q4 -28 4 -163q30 95 107.5 154t176.5 59q47 0 80 -13q37 -12 37 -47q0 -50 -35 -153h-10q-30 104 -139 104q-61 0 -115.5 -37.5t-79.5 -93.5
q-26 -59 -26 -176v-344q0 -134 30 -178q28 -38 131 -62z" />
    <glyph glyph-name="s" unicode="s" horiz-adv-x="841" 
d="M119 242h10q34 -107 113 -162q67 -43 170 -43q96 0 153.5 50t57.5 122q0 69 -48 117q-45 45 -190 110l-66 31q-200 92 -200 260q0 126 94.5 203.5t282.5 77.5q113 0 192 -29q37 -15 37 -49q0 -47 -25 -156h-12q-21 96 -86 137q-44 33 -137 33q-109 0 -167 -44.5
t-58 -123.5q0 -67 44 -112t162 -99l66 -30q143 -64 190 -129q48 -63 48 -150q0 -123 -93.5 -203t-261.5 -80q-134 0 -237 47q-54 28 -54 80q0 80 15 142z" />
    <glyph glyph-name="t" unicode="t" horiz-adv-x="649" 
d="M633 94l4 -8q-82 -104 -219 -104q-174 0 -195 161q-6 41 -6 148v616h-151v31q114 27 165 78q54 54 105 219h20v-254h226v-74h-226v-620q0 -83 9 -129q18 -103 129 -103q65 0 139 39z" />
    <glyph glyph-name="u" unicode="u" horiz-adv-x="1232" 
d="M866 164q-95 -191 -340 -191q-230 0 -288 172q-25 80 -25 220v337q0 129 -16 179q-21 65 -109 77v11q107 26 229 26q25 0 33 -9t8 -36v-6q0 -6 -0.5 -17.5t-1 -26.5t-1 -37.5t-1.5 -47.5q-2 -88 -2 -209v-213q0 -190 56 -258q55 -67 176 -67q124 0 209 73q43 40 57 90
q12 41 12 140v327q0 131 -16 181q-24 63 -109 79v11q110 26 232 26q24 0 32.5 -8.5t8.5 -36.5l-4 -147q-1 -38 -2 -86.5t-2 -81.5t-1 -55v-361q0 -162 103 -162q24 0 65 9l5 -7q-32 -32 -86.5 -54.5t-98.5 -22.5q-63 0 -92.5 42t-30.5 140z" />
    <glyph glyph-name="v" unicode="v" horiz-adv-x="1030" 
d="M561 0h-94q-61 184 -330 819q-40 101 -76 129q-18 14 -49 25v8h385v-8q-68 -20 -94 -39q-24 -15 -24 -41q0 -32 22 -90q171 -423 256 -656q40 116 242 654q26 63 24.5 93.5t-32.5 47.5q-48 23 -78 31v8h303v-8q-31 -13 -47 -23q-22 -13 -37 -37t-45 -94
q-284 -707 -326 -819z" />
    <glyph glyph-name="w" unicode="w" horiz-adv-x="1523" 
d="M762 799l-277 -799h-94l-239 815q-30 99 -66 127q-15 15 -53 29v10h385v-10q-62 -18 -86 -33q-37 -18 -37 -55t16 -99l170 -614q12 40 269 784h90q219 -608 274 -784l25 96l141 531q12 50 12 92q0 36 -32 53q-20 11 -72 29v10h305v-10q-69 -24 -92 -53q-18 -26 -39 -101
l-227 -817h-95z" />
    <glyph glyph-name="x" unicode="x" horiz-adv-x="1077" 
d="M367 8v-8h-344v8q47 15 81 39q34 25 89 92l270 348l-238 332q-62 85 -94 117q-27 24 -68 35v10h400v-10q-63 -16 -82 -27q-25 -12 -25 -39q0 -31 43 -92l170 -240l168 236q41 65 41 98q0 22 -24 37q-24 13 -70 27v10h328v-10q-48 -16 -82 -45q-30 -23 -78 -84l-244 -314
l283 -391q47 -65 84 -90q26 -20 78 -39v-8h-426v8q56 14 86 31q24 12 24 37q0 35 -39 88l-196 274l-191 -258q-53 -77 -53 -106q0 -27 33 -41z" />
    <glyph glyph-name="y" unicode="y" horiz-adv-x="1062" 
d="M137 -264h13q24 -96 102 -96q83 0 127 84q76 139 127 276h-43l-326 819q-41 106 -76 127q-29 20 -49 27v8h383v-8q-65 -21 -92 -39q-24 -15 -24 -41q0 -31 22 -92q224 -583 256 -684l242 682q22 61 22 96q0 26 -30 47q-41 22 -78 31v8h303v-8q-49 -21 -51 -23
q-25 -19 -40 -43t-40 -92q-228 -598 -305 -815q-82 -218 -152 -342q-76 -129 -207 -129q-41 0 -71 10q-37 15 -37 53q0 56 24 144z" />
    <glyph glyph-name="z" unicode="z" horiz-adv-x="974" 
d="M827 0h-774v18q613 888 629 908q-212 0 -360 -4q-97 -3 -127 -56q-28 -48 -48 -125h-12q-18 108 -18 191q0 29 9.5 39t35.5 10h708v-20l-628 -902q201 0 393 4q111 3 149 33q50 41 93 154h12q0 -140 -8 -213q-1 -23 -12 -30t-42 -7z" />
    <glyph glyph-name="braceleft" unicode="{" horiz-adv-x="626" 
d="M578 -221v-15q-195 0 -275 66.5t-80 230.5v248q0 142 -43 212t-149 77v12q115 12 153 80q37 70 37 232v204q0 163 76 242q77 80 281 80v-14q-127 -18 -177 -80q-47 -62 -47 -219v-242q0 -128 -45.5 -195t-150.5 -92q105 -25 150.5 -87.5t45.5 -188.5v-264q0 -142 51 -208
t173 -79z" />
    <glyph glyph-name="bar" unicode="|" horiz-adv-x="532" 
d="M322 1481v-1717h-111v1717h111z" />
    <glyph glyph-name="braceright" unicode="}" horiz-adv-x="626" 
d="M55 1434v14q193 0 274 -67t81 -232v-248q0 -142 42.5 -211t149.5 -76v-14q-118 -12 -156 -80q-36 -65 -36 -231v-205q0 -164 -76 -240q-74 -80 -279 -80v15q127 15 174 80q50 62 50 219v241q0 128 44.5 194t149.5 91q-104 23 -149 87t-45 190v266q0 140 -50.5 205
t-173.5 82z" />
    <glyph glyph-name="asciitilde" unicode="~" horiz-adv-x="1302" 
d="M231 432l-75 62q138 196 290 196q88 0 234 -88q119 -70 182 -70q55 0 101 36t102 122l80 -59q-129 -205 -287 -205q-88 0 -215 74q-143 82 -201 82q-112 0 -211 -150z" />
    <glyph glyph-name="exclamdown" unicode="&#xa1;" horiz-adv-x="587" 
d="M201 252l37 379h28q8 -112 31 -377q43 -468 43 -485q0 -115 -92 -115q-96 0 -96 113q0 27 12 153zM250 1067q45 0 75.5 -29.5t30.5 -76.5q3 -37 -17.5 -64.5t-50 -38t-62.5 -6t-54 26.5q-22 23 -26.5 57.5t6.5 64.5t37.5 50t60.5 16z" />
    <glyph glyph-name="cent" unicode="&#xa2;" horiz-adv-x="1062" 
d="M639 -6v-187h-61v187q-198 11 -311 145t-113 367q0 237 115.5 378t308.5 160v193h61v-188q150 0 231 -37q45 -17 45 -60q0 -53 -30 -161h-13q-24 112 -86 153q-55 36 -147 39v-899h29q148 0 264 94l8 -4v-8q0 -16 -16 -45q-34 -50 -110.5 -86.5t-174.5 -40.5zM309 537
q0 -384 269 -443v885q-123 -21 -196 -132t-73 -310z" />
    <glyph glyph-name="sterling" unicode="&#xa3;" horiz-adv-x="1204" 
d="M879 686v-76h-322l4 -86q0 -151 -54 -238.5t-177 -152.5q31 2 250 2l329 6q92 3 121 37q37 43 72 115h10q0 -139 -16 -240q-6 -31 -27.5 -42t-75.5 -11h-874v88q57 9 104 33q97 47 138.5 135.5t41.5 249.5q0 46 -6 104h-196v76h188q-24 184 -24 254q0 414 444 414
q137 0 229 -29q49 -18 49 -65q0 -56 -26 -183h-14q-27 115 -79 163t-159 48q-149 0 -214 -83.5t-65 -248.5q0 -18 21 -270h328z" />
    <glyph glyph-name="currency" unicode="&#xa4;" horiz-adv-x="1112" 
d="M979 315l-84 -86l-115 119q-84 -69 -217 -69q-131 0 -213 67l-117 -117l-86 86l117 119q-69 100 -69 219q0 122 69 219l-117 119l86 86l117 -116q87 69 213 69q129 0 217 -67l115 114l84 -86l-115 -114q70 -88 70 -224q0 -122 -72 -219zM829 653q0 123 -75 201
q-76 82 -191 82q-116 0 -191 -80t-75 -199q0 -123 76.5 -204.5t193.5 -81.5q118 0 190 79t72 203z" />
    <glyph glyph-name="yen" unicode="&#xa5;" horiz-adv-x="1269" 
d="M1057 473v-57h-352v-166q0 -138 26 -180q22 -39 115 -60v-10h-432v10q95 21 116 62q25 39 25 182v162h-338v57h338v105l-68 110h-270v55h236l-240 398q-58 101 -102 139q-28 25 -74 37v10h442v-10q-46 -8 -96 -31q-33 -11 -33 -41q0 -20 47 -106l279 -482l266 463
q43 76 43 117q0 37 -51 57q-42 17 -70 23v10h369v-10q-67 -15 -113 -70q-30 -29 -73 -102l-244 -402h254v-55h-289l-63 -106v-109h352z" />
    <glyph glyph-name="brokenbar" unicode="&#xa6;" horiz-adv-x="497" 
d="M326 1380v-641h-119v641h119zM326 477v-639h-119v639h119z" />
    <glyph glyph-name="section" unicode="&#xa7;" horiz-adv-x="1015" 
d="M170 -74h8q23 -101 100.5 -159t182.5 -58q110 0 169.5 51t59.5 142q0 79 -35.5 133.5t-128.5 124.5l-233 176q-106 81 -145 146.5t-39 140.5q0 98 74.5 167t191.5 76q-156 114 -156 273q0 131 95.5 216t277.5 85q104 0 186 -29q64 -24 64 -74q0 -55 -29 -157h-8
q-18 91 -77.5 143.5t-154.5 52.5q-115 0 -169 -56t-54 -142q0 -64 35 -111.5t137 -128.5l183 -141q110 -86 161 -150q47 -56 47 -139q0 -108 -75 -178.5t-189 -75.5q178 -132 178 -291q0 -143 -96 -232t-285 -89q-153 0 -247 55q-52 27 -52 78q0 47 23 151zM375 461
l145 -111q56 -47 109 -47q46 0 76 21q79 49 79 141q0 51 -30.5 95t-110.5 104l-151 114q-62 45 -97 45q-25 0 -59 -15t-51 -34q-52 -52 -52 -121q0 -52 29 -89.5t113 -102.5z" />
    <glyph glyph-name="dieresis" unicode="&#xa8;" horiz-adv-x="446" 
d="M147 1292q0 -58 -55 -81t-96 18q-19 18 -23 45.5t4.5 52t31 41t52.5 14.5q39 0 62.5 -24.5t23.5 -65.5zM475 1292q0 -38 -25 -63t-63 -25q-37 0 -61.5 25t-24.5 63q-5 56 41.5 79.5t92.5 0t40 -79.5z" />
    <glyph glyph-name="copyright" unicode="&#xa9;" horiz-adv-x="1697" 
d="M1550 684q0 -304 -200 -510q-200 -203 -502 -203q-303 0 -502 205q-201 207 -201 508q0 303 201 510t500 207q305 0 504 -205q200 -206 200 -512zM846 1348q-274 0 -459 -191q-182 -191 -182 -473t182 -473q185 -188 461 -188q281 0 463 188t182 473q0 286 -184 473
q-182 191 -463 191zM1128 442h11q0 -71 -13 -125q-6 -24 -45 -36q-79 -31 -198 -31q-201 0 -306.5 111t-105.5 315t114.5 319t321.5 115q117 0 193 -29q41 -18 41 -47q0 -54 -19 -135h-14q-15 75 -45 105q-54 51 -164 51q-140 0 -219.5 -92t-79.5 -271q0 -187 80 -288
t231 -101q93 0 146 41q41 27 71 98z" />
    <glyph glyph-name="ordfeminine" unicode="&#xaa;" horiz-adv-x="667" 
d="M436 627q-53 -109 -194 -109q-82 0 -132.5 45.5t-50.5 118.5q0 101 111 131q68 22 199 37q45 6 55 16q6 9 6 37v31q0 75 -27 102q-37 37 -110 37q-121 0 -178 -69l-6 2q-3 9 -3 18q0 47 66 81t154 34q107 0 159 -46t52 -145q0 -55 -2 -125v-157q0 -55 15 -75t52 -20
q19 0 39 4l4 -6q-47 -47 -110 -47q-90 0 -99 105zM430 709v116q-21 -9 -49 -12q-115 -18 -148 -31q-67 -24 -67 -94q0 -52 33 -79t86 -27q63 0 106 30q24 17 33 45q6 21 6 52z" />
    <glyph glyph-name="guillemotleft" unicode="&#xab;" horiz-adv-x="905" 
d="M100 553l351 362l12 -10l-242 -397l238 -416l-13 -6l-344 363q-30 30 -30 51q0 25 28 53zM471 553l352 362l11 -10l-242 -397l237 -416l-10 -6l-344 363q-31 36 -31 51q0 26 27 53z" />
    <glyph glyph-name="logicalnot" unicode="&#xac;" horiz-adv-x="1302" 
d="M1108 621v-539h-104v432h-848v107h952z" />
    <glyph glyph-name="uni00AD" unicode="&#xad;" horiz-adv-x="692" 
d="M592 586v-109h-494v109h494z" />
    <glyph glyph-name="registered" unicode="&#xae;" horiz-adv-x="1697" 
d="M848 -29q-303 0 -502 205q-201 207 -201 508q0 303 201 510t500 207q303 0 504 -207q202 -205 202 -510q0 -304 -200 -510q-200 -203 -504 -203zM846 1348q-275 0 -457 -191t-182 -473t182 -473q182 -188 459 -188q281 0 463 188q184 187 184 473t-184 473
q-185 191 -465 191zM809 303v-10h-297v10q57 12 74 35q16 22 16 117v493q0 91 -16 113t-74 37v12h281q105 0 178 -18q155 -34 155 -199q0 -163 -186 -215q40 -13 88 -86l53 -86l62 -98q57 -85 147 -103v-10q-52 -8 -100 -8q-71 0 -107 22q-37 25 -92 117q-102 178 -110 190
q-21 35 -86 35h-74v-200q0 -95 14 -115q15 -21 74 -33zM721 1012v-312h67q76 0 117 21q92 44 92 166q0 110 -65 145q-45 25 -135 25h-39q-24 0 -30.5 -9t-6.5 -36z" />
    <glyph glyph-name="overscore" unicode="&#xaf;" horiz-adv-x="448" 
d="M479 1305v-97h-514v97h514z" />
    <glyph glyph-name="degree" unicode="&#xb0;" horiz-adv-x="659" 
d="M61 1139q0 118 78 196t195 78q114 0 189 -77t75 -197q0 -115 -78 -193t-190 -78q-115 0 -193 78q-76 76 -76 193zM129 1139q0 -91 57.5 -151t145.5 -60t145.5 60t57.5 151q0 92 -57.5 153.5t-145.5 61.5t-145.5 -61.5t-57.5 -153.5z" />
    <glyph glyph-name="plusminus" unicode="&#xb1;" horiz-adv-x="1302" 
d="M702 686v-416h-104v416h-414v102h414v414h104v-414h414v-102h-414zM1116 102v-102h-932v102h932z" />
    <glyph glyph-name="twosuperior" unicode="&#xb2;" 
d="M567 881h-518v55q254 181 338 303q86 121 86 229q0 181 -172 181q-134 0 -184 -140h-11q-12 59 -12 103q0 33 43 51q73 33 191 33q268 0 268 -223q0 -115 -100.5 -231t-329.5 -269q184 4 344 4q42 0 63 18q12 12 48 76h10q0 -85 -10 -160q-6 -30 -54 -30z" />
    <glyph glyph-name="threesuperior" unicode="&#xb3;" 
d="M78 1061h10q18 -66 70.5 -106t136.5 -40q90 0 138 53.5t48 141.5q0 80 -51.5 125t-142.5 45h-35v45h39q170 0 170 174q0 150 -156 150q-74 0 -117 -32t-69 -106h-10q-11 64 -11 103q0 31 41 49q67 33 191 33q123 0 187.5 -50t64.5 -139q0 -153 -183 -200
q203 -27 203 -195q0 -117 -81 -182.5t-224 -65.5q-129 0 -197 39q-32 19 -32 49q0 41 10 109z" />
    <glyph glyph-name="acute" unicode="&#xb4;" horiz-adv-x="446" 
d="M344 1382l-278 -245l-11 10l189 319q38 60 75 60q30 0 51 -17.5t21 -46.5q0 -39 -47 -80z" />
    <glyph glyph-name="mu" unicode="&#xb5;" horiz-adv-x="1280" 
d="M406 84v-186q0 -105 2 -168q1 -29 2 -54.5t1.5 -38t0.5 -14.5q0 -36 -15 -45q-22 -14 -143 -14l-6 8q16 240 16 674v456q0 125 -16 175q-20 69 -109 81v11q107 26 228 26q27 0 35 -7.5t8 -31.5v-6q0 -7 -0.5 -19t-1 -28t-1 -40t-1.5 -50q-3 -138 -3 -213v-211
q0 -108 12 -162t46 -90q63 -69 174 -69q129 0 211 73q43 43 57 92q10 45 10 144v321q0 131 -16 181q-24 63 -109 79v11q110 26 230 26q26 0 34.5 -8.5t8.5 -36.5l-4 -147q-4 -196 -4 -223v-357q0 -164 104 -164q29 0 64 7l4 -9q-31 -31 -85 -53t-98 -22q-61 0 -88 39.5
t-34 142.5q-83 -191 -308 -191q-71 0 -127.5 28.5t-78.5 82.5z" />
    <glyph glyph-name="paragraph" unicode="&#xb6;" horiz-adv-x="1110" 
d="M541 -221l-6 14q94 40 141 121q43 76 43 334v268q-40 -6 -90 -6q-209 0 -330 107t-121 307q0 158 71 262.5t202 142.5q110 35 313 35h197v-10q-89 -26 -113 -60q-27 -40 -27 -151v-887q0 -170 -8 -227q-9 -66 -45 -119q-66 -97 -227 -131z" />
    <glyph glyph-name="middot" unicode="&#xb7;" horiz-adv-x="473" 
d="M344 537q0 -48 -29.5 -78.5t-76.5 -30.5q-33 -4 -60 16t-38.5 49.5t-6.5 64t29 56.5q23 24 56.5 29.5t62 -5.5t48 -38t15.5 -63z" />
    <glyph glyph-name="cedilla" unicode="&#xb8;" horiz-adv-x="450" 
d="M61 -383v8l7 2q24 -24 88 -24q54 0 86 28.5t32 77.5q0 103 -108 103q-26 0 -41 -5l-8 9l73 202h46l-48 -139q94 0 143.5 -44.5t49.5 -115.5q0 -77 -54.5 -123.5t-142.5 -46.5q-94 0 -114 39q-9 12 -9 29z" />
    <glyph glyph-name="onesuperior" unicode="&#xb9;" 
d="M512 889v-8h-301v8q17 2 59 18q39 17 39 92v498q0 75 -10 102q-13 25 -51 25q-37 0 -47 -2l-2 16l219 62l10 -10q-4 -74 -4 -293v-398q0 -74 37 -92q20 -10 51 -18z" />
    <glyph glyph-name="ordmasculine" unicode="&#xba;" horiz-adv-x="733" 
d="M670 836q0 -153 -80.5 -236.5t-222.5 -83.5q-143 0 -222 77t-79 228t86.5 234.5t224.5 83.5q143 0 218 -77t75 -226zM555 825q0 271 -182 271q-88 0 -141.5 -62.5t-53.5 -202.5q0 -274 191 -274q186 0 186 268z" />
    <glyph glyph-name="guillemotright" unicode="&#xbb;" horiz-adv-x="905" 
d="M805 446l-350 -360l-13 8l242 400l-238 413l13 8l344 -360q31 -36 31 -53q0 -24 -29 -56zM434 446l-352 -360l-10 8l241 400l-237 413l10 8l344 -362q31 -31 31 -51q0 -29 -27 -56z" />
    <glyph glyph-name="onequarter" unicode="&#xbc;" horiz-adv-x="1628" 
d="M428 -33l692 1428l60 -27l-688 -1427zM520 541v-9h-301v9q22 3 60 20t38 90v498q0 75 -10 102q-13 25 -51 25q-37 0 -47 -2l-2 16l219 62l10 -11q-4 -74 -4 -292v-398q0 -74 37 -92q21 -12 51 -18zM1454 8v-8h-299v8q42 8 68 23q28 22 28 86v98h-389v59l418 541h86
q-2 -59 -2 -254v-264h133v-82h-133v-98q0 -70 35 -88q9 -6 55 -21zM944 297h307q0 172 4 414q-58 -83 -311 -414z" />
    <glyph glyph-name="onehalf" unicode="&#xbd;" horiz-adv-x="1628" 
d="M397 -33l693 1428l59 -27l-688 -1427zM508 541v-9h-301v9q21 3 59 20q39 17 39 90v498q0 75 -10 102q-13 25 -51 25q-37 0 -47 -2l-2 16l219 62l10 -11q-4 -74 -4 -292v-398q0 -74 37 -92q21 -12 51 -18zM1477 0h-519v55q254 181 338 303q86 121 86 230q0 180 -172 180
q-134 0 -184 -139h-10q-12 59 -12 102q0 33 43 51q73 33 190 33q268 0 268 -223q0 -115 -100.5 -231t-329.5 -269q184 4 344 4q42 0 64 19q11 11 47 75h10q0 -84 -10 -159q-6 -31 -53 -31z" />
    <glyph glyph-name="threequarters" unicode="&#xbe;" horiz-adv-x="1628" 
d="M512 -33l692 1428l60 -27l-689 -1427zM160 713h10q18 -66 70.5 -106t136.5 -40q90 0 138 53.5t48 141.5q0 80 -51.5 125t-142.5 45h-35v45h39q170 0 170 174q0 149 -156 149q-73 0 -114.5 -31.5t-71.5 -105.5h-11q-10 58 -10 103q0 31 41 49q67 33 191 33
q123 0 187.5 -50t64.5 -139q0 -154 -183 -201q203 -27 203 -194q0 -117 -81 -182.5t-224 -65.5q-129 0 -197 39q-32 19 -32 49q0 41 10 109zM1499 8v-8h-299v8q42 8 68 23q28 22 28 86v98h-389v59l418 541h86q-2 -59 -2 -254v-264h133v-82h-133v-98q0 -70 35 -88
q9 -6 55 -21zM989 297h307q0 172 4 414q-58 -83 -311 -414z" />
    <glyph glyph-name="questiondown" unicode="&#xbf;" horiz-adv-x="878" 
d="M541 633h26q17 -116 17 -141q0 -74 -29 -130q-29 -53 -131 -133q-139 -115 -139 -276q0 -108 51.5 -170t157.5 -62q96 0 148.5 47.5t80.5 143.5h10q19 -87 19 -150q0 -47 -58 -71q-87 -37 -223 -37q-171 0 -260.5 75.5t-89.5 213.5q0 98 49 174q46 71 188 176
q93 68 129 110.5t43 98.5q11 64 11 131zM537 1067q45 0 75.5 -30t30.5 -79t-30 -78.5t-78 -29.5q-47 0 -76 29.5t-29 78.5t29.5 79t77.5 30z" />
    <glyph glyph-name="Agrave" unicode="&#xc0;" horiz-adv-x="1320" 
d="M375 10v-10h-365v10q63 15 88 47q41 47 78 140l324 866q1 3 9 23.5t19 49.5t23 62q43 114 61 168h105l106 -291l318 -874q42 -114 73 -148q27 -27 95 -43v-10h-437v10q54 11 93 35q28 19 28 55q0 26 -24 103l-101 286h-495l-101 -282q-27 -73 -24 -112.5t45 -57.5
q25 -14 82 -27zM621 1190l-226 -635h447l-113 317l-74 211zM528 1776l263 -273l-11 -12l-331 178q-68 35 -68 78q0 30 21.5 49t52.5 19q40 0 73 -39z" />
    <glyph glyph-name="Aacute" unicode="&#xc1;" horiz-adv-x="1320" 
d="M375 10v-10h-365v10q63 15 88 47q41 47 78 140l324 866q1 3 9 23.5t19 49.5t23 62q43 114 61 168h105l106 -291l318 -874q42 -114 73 -148q27 -27 95 -43v-10h-437v10q54 11 93 35q28 19 28 55q0 26 -24 103l-101 286h-495l-101 -282q-27 -73 -24 -112.5t45 -57.5
q25 -14 82 -27zM621 1190l-226 -635h447l-113 317l-74 211zM887 1659l-332 -178l-10 12l262 270q38 41 74 41q30 0 51.5 -18.5t21.5 -48.5q0 -44 -67 -78z" />
    <glyph glyph-name="Acircumflex" unicode="&#xc2;" horiz-adv-x="1320" 
d="M375 10v-10h-365v10q63 15 88 47q41 47 78 140l324 866q1 3 9 23.5t19 49.5t23 62q43 114 61 168h105l106 -291l318 -874q42 -114 73 -148q27 -27 95 -43v-10h-437v10q54 11 93 35q28 19 28 55q0 26 -24 103l-101 286h-495l-101 -282q-27 -73 -24 -112.5t45 -57.5
q25 -14 82 -27zM621 1190l-226 -635h447l-113 317l-74 211zM735 1729l226 -256l-9 -11l-290 172l-281 -172l-8 11l225 256q34 40 72 40q31 0 65 -40z" />
    <glyph glyph-name="Atilde" unicode="&#xc3;" horiz-adv-x="1320" 
d="M375 10v-10h-365v10q63 15 88 47q41 47 78 140l324 866q1 3 9 23.5t19 49.5t23 62q43 114 61 168h105l106 -291l318 -874q42 -114 73 -148q27 -27 95 -43v-10h-437v10q54 11 93 35q28 19 28 55q0 26 -24 103l-101 286h-495l-101 -282q-27 -73 -24 -112.5t45 -57.5
q25 -14 82 -27zM621 1190l-226 -635h447l-113 317l-74 211zM952 1720l13 -4q-50 -188 -164 -188q-64 0 -146 39q-75 37 -127 37q-85 0 -133 -97l-12 4q13 49 31 95q20 45 55 77.5t78 32.5q51 0 147 -45q75 -37 127 -37q84 0 131 86z" />
    <glyph glyph-name="Adieresis" unicode="&#xc4;" horiz-adv-x="1320" 
d="M375 10v-10h-365v10q63 15 88 47q41 47 78 140l324 866q1 3 9 23.5t19 49.5t23 62q43 114 61 168h105l106 -291l318 -874q42 -114 73 -148q27 -27 95 -43v-10h-437v10q54 11 93 35q28 19 28 55q0 26 -24 103l-101 286h-495l-101 -282q-27 -73 -24 -112.5t45 -57.5
q25 -14 82 -27zM621 1190l-226 -635h447l-113 317l-74 211zM580 1593q5 -54 -41.5 -76.5t-93.5 0t-42 76.5q-4 57 43 80.5t93.5 0t40.5 -80.5zM930 1593q5 -54 -41.5 -76.5t-93 0t-41.5 76.5q-4 57 43 80.5t93 0t40 -80.5z" />
    <glyph glyph-name="Aring" unicode="&#xc5;" horiz-adv-x="1320" 
d="M375 10v-10h-365v10q63 15 88 47q41 47 78 140l324 866q1 3 9 23.5t19 49.5t23 62q43 114 61 168h105l106 -291l318 -874q42 -114 73 -148q27 -27 95 -43v-10h-437v10q54 11 93 35q28 19 28 55q0 26 -24 103l-101 286h-495l-101 -282q-27 -73 -24 -112.5t45 -57.5
q25 -14 82 -27zM621 1190l-226 -635h447l-113 317l-74 211zM825 1622q0 -70 -45 -118t-116 -48q-69 0 -115.5 47t-46.5 119q0 73 46 117.5t120 44.5q70 0 113.5 -44.5t43.5 -117.5zM664 1743q-54 0 -85.5 -33.5t-31.5 -87.5q0 -53 33 -88t88 -35q71 -7 99.5 57t-2 128.5
t-101.5 58.5z" />
    <glyph glyph-name="AE" unicode="&#xc6;" horiz-adv-x="1884" 
d="M397 10v-10h-393v10q66 15 109 58q43 40 106 131l647 958q52 76 52 121q0 24 -25.5 41t-95.5 37v10h895q57 0 57 -51q0 -54 -20 -205h-13q-24 90 -51 128.5t-70 49.5q-41 12 -135 12h-209q-35 0 -47 -12.5t-12 -48.5v-496h164q99 0 162 13q49 7 70.5 34.5t41.5 98.5h15
v-350h-15q-14 64 -42.5 93.5t-90.5 39.5q-40 6 -139 6h-166v-512q0 -58 19 -78t79 -20h230q124 0 176 43q54 45 106 170h10q0 -126 -10 -218q-6 -42 -18 -52.5t-51 -10.5h-834v10q80 21 109 53q28 28 28 179v250h-528l-178 -281q-62 -95 -62 -127q0 -29 33 -43
q34 -15 96 -31zM553 557h483v735q-157 -250 -483 -735z" />
    <glyph glyph-name="Ccedilla" unicode="&#xc7;" horiz-adv-x="1284" 
d="M565 -395v8l6 2q33 -23 93 -23q56 0 90 29.5t34 79.5q0 104 -116 104q-11 0 -39 -4l-10 9l61 167q-280 26 -426.5 209.5t-146.5 495.5q0 341 180 526t520 185q197 0 315 -47q66 -28 66 -74q0 -59 -35 -193h-12q-21 98 -70 156q-87 90 -280 90q-243 0 -375.5 -162
t-132.5 -467q0 -310 138.5 -482.5t395.5 -172.5q158 0 250 65q68 50 115 146h12q-3 -112 -18 -162q-9 -37 -80 -67q-121 -50 -324 -50q-35 0 -45 2l-33 -100q100 0 149.5 -45t49.5 -121q0 -79 -57 -126.5t-150 -47.5q-90 0 -117 41q-8 11 -8 29z" />
    <glyph glyph-name="Egrave" unicode="&#xc8;" horiz-adv-x="1107" 
d="M958 0h-835v10q76 21 108 53q31 28 31 179v905q0 127 -26 153q-27 34 -113 56v10h803q27 0 36 -8.5t9 -34.5t-19 -205h-12q-44 152 -117 170q-47 12 -135 12h-211q-34 0 -46.5 -14.5t-12.5 -50.5v-492h164q97 0 157 13q53 10 76.5 36t40.5 93h12v-342h-12
q-12 63 -40.5 92t-90.5 39q-41 6 -141 6h-166v-512q0 -58 19 -79t79 -21h229q130 0 181 45q44 35 100 166h12q0 -118 -16 -230q-4 -31 -16.5 -40t-47.5 -9zM426 1776l262 -273l-10 -12l-332 178q-67 34 -67 78q0 30 21 49t52 19q41 0 74 -39z" />
    <glyph glyph-name="Eacute" unicode="&#xc9;" horiz-adv-x="1107" 
d="M958 0h-835v10q76 21 108 53q31 28 31 179v905q0 127 -26 153q-27 34 -113 56v10h803q27 0 36 -8.5t9 -34.5t-19 -205h-12q-44 152 -117 170q-47 12 -135 12h-211q-34 0 -46.5 -14.5t-12.5 -50.5v-492h164q97 0 157 13q53 10 76.5 36t40.5 93h12v-342h-12
q-12 63 -40.5 92t-90.5 39q-41 6 -141 6h-166v-512q0 -58 19 -79t79 -21h229q130 0 181 45q44 35 100 166h12q0 -118 -16 -230q-4 -31 -16.5 -40t-47.5 -9zM836 1659l-332 -178l-10 12l262 270q38 41 73 41q30 0 52 -18.5t22 -48.5q0 -44 -67 -78z" />
    <glyph glyph-name="Ecircumflex" unicode="&#xca;" horiz-adv-x="1107" 
d="M958 0h-835v10q76 21 108 53q31 28 31 179v905q0 127 -26 153q-27 34 -113 56v10h803q27 0 36 -8.5t9 -34.5t-19 -205h-12q-44 152 -117 170q-47 12 -135 12h-211q-34 0 -46.5 -14.5t-12.5 -50.5v-492h164q97 0 157 13q53 10 76.5 36t40.5 93h12v-342h-12
q-12 63 -40.5 92t-90.5 39q-41 6 -141 6h-166v-512q0 -58 19 -79t79 -21h229q130 0 181 45q44 35 100 166h12q0 -118 -16 -230q-4 -31 -16.5 -40t-47.5 -9zM672 1729l225 -256l-8 -11l-291 172l-281 -172l-8 11l226 256q34 40 71 40q32 0 66 -40z" />
    <glyph glyph-name="Edieresis" unicode="&#xcb;" horiz-adv-x="1107" 
d="M958 0h-835v10q76 21 108 53q31 28 31 179v905q0 127 -26 153q-27 34 -113 56v10h803q27 0 36 -8.5t9 -34.5t-19 -205h-12q-44 152 -117 170q-47 12 -135 12h-211q-34 0 -46.5 -14.5t-12.5 -50.5v-492h164q97 0 157 13q53 10 76.5 36t40.5 93h12v-342h-12
q-12 63 -40.5 92t-90.5 39q-41 6 -141 6h-166v-512q0 -58 19 -79t79 -21h229q130 0 181 45q44 35 100 166h12q0 -118 -16 -230q-4 -31 -16.5 -40t-47.5 -9zM516 1593q5 -54 -41.5 -76.5t-93 0t-41.5 76.5q-4 57 43 80.5t93 0t40 -80.5zM866 1593q5 -54 -41.5 -76.5t-93 0
t-41.5 76.5q-4 57 43 80.5t93 0t40 -80.5z" />
    <glyph glyph-name="Igrave" unicode="&#xcc;" horiz-adv-x="679" 
d="M559 10v-10h-436v10q92 21 117 64q22 39 22 190v844q0 150 -22 186q-24 38 -117 62v10h436v-10q-94 -22 -115 -56q-26 -39 -26 -190v-848q0 -148 26 -190q21 -38 115 -62zM193 1776l262 -273l-11 -12l-331 178q-68 35 -68 78q0 30 21.5 49t52.5 19q41 0 74 -39z" />
    <glyph glyph-name="Iacute" unicode="&#xcd;" horiz-adv-x="679" 
d="M559 10v-10h-436v10q92 21 117 64q22 39 22 190v844q0 150 -22 186q-24 38 -117 62v10h436v-10q-94 -22 -115 -56q-26 -39 -26 -190v-848q0 -148 26 -190q21 -38 115 -62zM557 1669l-332 -178l-10 12l262 271q38 41 74 41q30 0 52 -19t22 -49q0 -43 -68 -78z" />
    <glyph glyph-name="Icircumflex" unicode="&#xce;" horiz-adv-x="679" 
d="M559 10v-10h-436v10q92 21 117 64q22 39 22 190v844q0 150 -22 186q-24 38 -117 62v10h436v-10q-94 -22 -115 -56q-26 -39 -26 -190v-848q0 -148 26 -190q21 -38 115 -62zM406 1729l225 -256l-8 -11l-291 172l-281 -172l-8 11l225 256q34 40 72 40q32 0 66 -40z" />
    <glyph glyph-name="Idieresis" unicode="&#xcf;" horiz-adv-x="679" 
d="M559 10v-10h-436v10q92 21 117 64q22 39 22 190v844q0 150 -22 186q-24 38 -117 62v10h436v-10q-94 -22 -115 -56q-26 -39 -26 -190v-848q0 -148 26 -190q21 -38 115 -62zM250 1593q5 -54 -41.5 -76.5t-93 0t-41.5 76.5q-4 57 43 80.5t93 0t40 -80.5zM600 1593
q5 -54 -41.5 -76.5t-93 0t-41.5 76.5q-4 57 43 80.5t93 0t40 -80.5z" />
    <glyph glyph-name="Eth" unicode="&#xd0;" horiz-adv-x="1460" 
d="M608 0h-485v10q64 19 88.5 34.5t34.5 45.5q16 56 16 195v395h-170v76h170v317q0 164 -16 207q-18 52 -123 76v10h526q296 0 447 -92q256 -164 256 -553q0 -721 -744 -721zM418 680v-416q0 -108 10 -141q9 -33 41 -43q56 -17 152 -17q557 0 557 644q0 313 -148 464
q-123 129 -436 129q-130 0 -156 -26q-20 -20 -20 -129v-389h401v-76h-401z" />
    <glyph glyph-name="Ntilde" unicode="&#xd1;" horiz-adv-x="1492" 
d="M500 10v-10h-379v10q91 22 119 70q22 31 22 199q0 227 2 397q2 172 2 385q0 189 -20 225q-26 42 -123 70v10h258q37 0 59 -31q659 -937 746 -1079l-8 838q0 150 -21 188q-27 53 -123 74v10h367v-10q-91 -28 -117 -70q-22 -39 -22 -201v-1099h-82l-842 1220
q10 -570 10 -925q0 -155 23 -199q28 -45 129 -72zM1051 1720l12 -4q-50 -188 -164 -188q-63 0 -145 39q-75 37 -127 37q-85 0 -133 -97l-13 4q12 49 31 95q20 45 55 77.5t78 32.5q52 0 148 -45q75 -37 127 -37q84 0 131 86z" />
    <glyph glyph-name="Ograve" unicode="&#xd2;" horiz-adv-x="1472" 
d="M1362 700q0 -348 -165 -537.5t-462 -189.5q-294 0 -459 178.5t-165 518.5q0 146 33.5 266.5t92 204.5t139 141.5t173 84t196.5 26.5q297 0 457 -178.5t160 -514.5zM1192 676q0 365 -137 514q-120 137 -310 137q-52 0 -101 -11t-103 -36.5t-98 -73.5t-80 -115t-56 -169.5
t-20 -229.5q0 -329 118 -491t332 -162q210 0 332.5 163.5t122.5 473.5zM612 1776l262 -273l-10 -12l-332 178q-67 34 -67 78q0 30 21.5 49t52.5 19q40 0 73 -39z" />
    <glyph glyph-name="Oacute" unicode="&#xd3;" horiz-adv-x="1472" 
d="M1362 700q0 -348 -165 -537.5t-462 -189.5q-294 0 -459 178.5t-165 518.5q0 146 33.5 266.5t92 204.5t139 141.5t173 84t196.5 26.5q297 0 457 -178.5t160 -514.5zM1192 676q0 365 -137 514q-120 137 -310 137q-52 0 -101 -11t-103 -36.5t-98 -73.5t-80 -115t-56 -169.5
t-20 -229.5q0 -329 118 -491t332 -162q210 0 332.5 163.5t122.5 473.5zM958 1669l-331 -178l-11 12l263 271q38 41 73 41q30 0 52 -19t22 -49q0 -43 -68 -78z" />
    <glyph glyph-name="Ocircumflex" unicode="&#xd4;" horiz-adv-x="1472" 
d="M1362 700q0 -348 -165 -537.5t-462 -189.5q-294 0 -459 178.5t-165 518.5q0 146 33.5 266.5t92 204.5t139 141.5t173 84t196.5 26.5q297 0 457 -178.5t160 -514.5zM1192 676q0 365 -137 514q-120 137 -310 137q-52 0 -101 -11t-103 -36.5t-98 -73.5t-80 -115t-56 -169.5
t-20 -229.5q0 -329 118 -491t332 -162q210 0 332.5 163.5t122.5 473.5zM815 1729l225 -256l-8 -11l-291 172l-280 -172l-8 11l225 256q34 40 72 40q31 0 65 -40z" />
    <glyph glyph-name="Otilde" unicode="&#xd5;" horiz-adv-x="1472" 
d="M1362 700q0 -348 -165 -537.5t-462 -189.5q-294 0 -459 178.5t-165 518.5q0 146 33.5 266.5t92 204.5t139 141.5t173 84t196.5 26.5q297 0 457 -178.5t160 -514.5zM1192 676q0 365 -137 514q-120 137 -310 137q-52 0 -101 -11t-103 -36.5t-98 -73.5t-80 -115t-56 -169.5
t-20 -229.5q0 -329 118 -491t332 -162q210 0 332.5 163.5t122.5 473.5zM1020 1720l12 -4q-50 -188 -164 -188q-63 0 -145 39q-75 37 -127 37q-85 0 -133 -97l-12 4q14 56 30 95q20 45 55 77.5t78 32.5q52 0 148 -45q75 -37 127 -37q84 0 131 86z" />
    <glyph glyph-name="Odieresis" unicode="&#xd6;" horiz-adv-x="1472" 
d="M1362 700q0 -348 -165 -537.5t-462 -189.5q-294 0 -459 178.5t-165 518.5q0 146 33.5 266.5t92 204.5t139 141.5t173 84t196.5 26.5q297 0 457 -178.5t160 -514.5zM1192 676q0 365 -137 514q-120 137 -310 137q-52 0 -101 -11t-103 -36.5t-98 -73.5t-80 -115t-56 -169.5
t-20 -229.5q0 -329 118 -491t332 -162q210 0 332.5 163.5t122.5 473.5zM649 1593q5 -54 -41.5 -76.5t-93 0t-41.5 76.5q-4 57 43 80.5t93 0t40 -80.5zM999 1593q5 -54 -41.5 -76.5t-93 0t-41.5 76.5q-4 57 43 80.5t93 0t40 -80.5z" />
    <glyph glyph-name="multiply" unicode="&#xd7;" horiz-adv-x="1302" 
d="M649 489l-313 -317l-68 70l310 321l-312 320l72 75l313 -319l310 317l71 -71l-309 -320l311 -319l-69 -74z" />
    <glyph glyph-name="Oslash" unicode="&#xd8;" horiz-adv-x="1472" 
d="M334 98l-111 -151l-55 39l117 157q-174 180 -174 531q0 147 34.5 268t94 205t141.5 142t175.5 85t197.5 27q228 0 374 -107l117 158l55 -39l-118 -162q188 -179 188 -546q0 -349 -167 -540.5t-464 -191.5q-250 0 -405 125zM1200 680q0 295 -98 463l-694 -946
q122 -158 337 -158q210 0 332.5 164.5t122.5 476.5zM285 696q0 -270 84 -436l692 940q-116 137 -309 137q-137 0 -250 -73q-98 -66 -157.5 -206t-59.5 -362z" />
    <glyph glyph-name="Ugrave" unicode="&#xd9;" horiz-adv-x="1495" 
d="M106 1356v10h437v-10q-95 -24 -119 -68q-23 -44 -23 -145v-596q0 -210 41 -316q73 -186 336 -186q115 0 202 38t126 101q63 100 63 365v549q0 154 -28 196q-27 41 -119 62v10h377v-10q-84 -22 -109 -60q-35 -41 -35 -198v-523q0 -170 -20 -269t-70 -165
q-122 -168 -420 -168q-327 0 -436 189q-63 108 -63 399v578q0 114 -23 155q-24 38 -117 62zM604 1776l262 -273l-10 -12l-332 178q-67 34 -67 78q0 30 21 49t52 19q41 0 74 -39z" />
    <glyph glyph-name="Uacute" unicode="&#xda;" horiz-adv-x="1495" 
d="M106 1356v10h437v-10q-95 -24 -119 -68q-23 -44 -23 -145v-596q0 -210 41 -316q73 -186 336 -186q115 0 202 38t126 101q63 100 63 365v549q0 154 -28 196q-27 41 -119 62v10h377v-10q-84 -22 -109 -60q-35 -41 -35 -198v-523q0 -170 -20 -269t-70 -165
q-122 -168 -420 -168q-327 0 -436 189q-63 108 -63 399v578q0 114 -23 155q-24 38 -117 62zM1008 1669l-332 -178l-10 12l262 271q38 41 73 41q30 0 52 -19t22 -49q0 -44 -67 -78z" />
    <glyph glyph-name="Ucircumflex" unicode="&#xdb;" horiz-adv-x="1495" 
d="M106 1356v10h437v-10q-95 -24 -119 -68q-23 -44 -23 -145v-596q0 -210 41 -316q73 -186 336 -186q115 0 202 38t126 101q63 100 63 365v549q0 154 -28 196q-27 41 -119 62v10h377v-10q-84 -22 -109 -60q-35 -41 -35 -198v-523q0 -170 -20 -269t-70 -165
q-122 -168 -420 -168q-327 0 -436 189q-63 108 -63 399v578q0 114 -23 155q-24 38 -117 62zM844 1729l225 -256l-8 -11l-291 172l-281 -172l-8 11l226 256q34 40 71 40q32 0 66 -40z" />
    <glyph glyph-name="Udieresis" unicode="&#xdc;" horiz-adv-x="1495" 
d="M106 1356v10h437v-10q-95 -24 -119 -68q-23 -44 -23 -145v-596q0 -210 41 -316q73 -186 336 -186q115 0 202 38t126 101q63 100 63 365v549q0 154 -28 196q-27 41 -119 62v10h377v-10q-84 -22 -109 -60q-35 -41 -35 -198v-523q0 -170 -20 -269t-70 -165
q-122 -168 -420 -168q-327 0 -436 189q-63 108 -63 399v578q0 114 -23 155q-24 38 -117 62zM680 1593q5 -54 -41.5 -76.5t-93 0t-41.5 76.5q-4 57 43 80.5t93 0t40 -80.5zM1030 1593q5 -54 -41.5 -76.5t-93 0t-41.5 76.5q-4 57 43 80.5t93 0t40 -80.5z" />
    <glyph glyph-name="Yacute" unicode="&#xdd;" horiz-adv-x="1263" 
d="M846 10v-10h-434v10q94 25 114 64q25 42 25 184v324l-365 600q-65 105 -102 137q-40 29 -72 37v10h447v-10q-57 -12 -94 -31q-29 -16 -29 -43q0 -36 41 -104l299 -510q54 98 285 491q40 70 40 119q0 34 -38 51q-26 11 -74 27v10h362v-10q-60 -14 -106 -66
q-35 -41 -74 -106l-364 -590v-338q0 -145 26 -184q21 -34 113 -62zM903 1669l-332 -178l-10 12l262 271q38 41 74 41q30 0 52 -19t22 -49q0 -43 -68 -78z" />
    <glyph glyph-name="Thorn" unicode="&#xde;" horiz-adv-x="1198" 
d="M565 10v-10h-442v10q96 27 117 62q22 39 22 186v852q0 150 -22 186t-117 60v10h436v-10q-97 -21 -117 -58q-24 -40 -24 -178v-41q55 8 141 8q100 0 166 -7.5t133 -30.5q107 -37 164 -117.5t57 -220.5q0 -200 -137.5 -302t-384.5 -102q-71 0 -139 6v-61q0 -147 26 -180
q27 -40 121 -62zM418 938v-561q70 -6 129 -6q364 0 364 338q0 105 -44.5 181t-125.5 105q-82 29 -202 29q-76 0 -98.5 -17.5t-22.5 -68.5z" />
    <glyph glyph-name="germandbls" unicode="&#xdf;" horiz-adv-x="1062" 
d="M330 0h-242v10q57 18 80 47q31 39 31 174v646q0 272 34 356q83 213 330 213q140 0 218.5 -70t78.5 -192q0 -147 -129 -264l-90 -82q-63 -57 -63 -99q0 -25 22 -48.5t92 -74.5l135 -96q154 -109 154 -260q0 -116 -76 -201q-74 -86 -235 -86q-129 0 -191 39q-35 21 -35 64
q0 54 19 141h10q37 -174 203 -174q89 0 137.5 49t48.5 127q0 64 -24 104t-105 97l-133 98q-78 57 -106.5 94.5t-28.5 81.5q0 76 94 164l88 80q103 95 103 244q0 96 -52 149t-141 53q-137 0 -192 -114q-41 -87 -41 -277v-735q0 -144 6 -258z" />
    <glyph glyph-name="agrave" unicode="&#xe0;" horiz-adv-x="1032" 
d="M688 147q-88 -172 -303 -172q-135 0 -217 75t-82 198q0 157 178 215q77 24 316 59q74 9 90 25q12 15 12 63v52q0 143 -51 194q-52 55 -180 55q-104 0 -178.5 -30t-104.5 -80l-6 2q-4 12 -4 28q0 78 100 127q103 50 238 50q166 0 246.5 -70.5t80.5 -230.5q0 -99 -2 -226
v-276q0 -93 23.5 -124.5t81.5 -31.5q35 0 65 10l4 -8q-71 -74 -161 -74q-140 0 -146 170zM682 276v216q-26 -13 -66 -19q-234 -43 -264 -53q-119 -40 -119 -170q0 -91 56.5 -140t146.5 -49q81 0 145 34t89 98q12 30 12 83zM397 1468l189 -321l-11 -10l-278 245
q-47 41 -47 80q0 29 21 46.5t51 17.5q41 0 75 -58z" />
    <glyph glyph-name="aacute" unicode="&#xe1;" horiz-adv-x="1032" 
d="M688 147q-88 -172 -303 -172q-135 0 -217 75t-82 198q0 157 178 215q77 24 316 59q74 9 90 25q12 15 12 63v52q0 143 -51 194q-52 55 -180 55q-104 0 -178.5 -30t-104.5 -80l-6 2q-4 12 -4 28q0 78 100 127q103 50 238 50q166 0 246.5 -70.5t80.5 -230.5q0 -99 -2 -226
v-276q0 -93 23.5 -124.5t81.5 -31.5q35 0 65 10l4 -8q-71 -74 -161 -74q-140 0 -146 170zM682 276v216q-26 -13 -66 -19q-234 -43 -264 -53q-119 -40 -119 -170q0 -91 56.5 -140t146.5 -49q81 0 145 34t89 98q12 30 12 83zM700 1382l-278 -245l-10 10l188 319q38 60 76 60
q30 0 51 -17.5t21 -46.5q0 -38 -48 -80z" />
    <glyph glyph-name="acircumflex" unicode="&#xe2;" horiz-adv-x="1032" 
d="M688 147q-88 -172 -303 -172q-135 0 -217 75t-82 198q0 157 178 215q77 24 316 59q74 9 90 25q12 15 12 63v52q0 143 -51 194q-52 55 -180 55q-104 0 -178.5 -30t-104.5 -80l-6 2q-4 12 -4 28q0 78 100 127q103 50 238 50q166 0 246.5 -70.5t80.5 -230.5q0 -99 -2 -226
v-276q0 -93 23.5 -124.5t81.5 -31.5q35 0 65 10l4 -8q-71 -74 -161 -74q-140 0 -146 170zM682 276v216q-26 -13 -66 -19q-234 -43 -264 -53q-119 -40 -119 -170q0 -91 56.5 -140t146.5 -49q81 0 145 34t89 98q12 30 12 83zM559 1427l203 -284l-8 -8l-267 200l-258 -198l-8 6
l205 287q33 45 68 45q29 0 65 -48z" />
    <glyph glyph-name="atilde" unicode="&#xe3;" horiz-adv-x="1032" 
d="M688 147q-88 -172 -303 -172q-135 0 -217 75t-82 198q0 157 178 215q77 24 316 59q74 9 90 25q12 15 12 63v52q0 143 -51 194q-52 55 -180 55q-104 0 -178.5 -30t-104.5 -80l-6 2q-4 12 -4 28q0 78 100 127q103 50 238 50q166 0 246.5 -70.5t80.5 -230.5q0 -99 -2 -226
v-276q0 -93 23.5 -124.5t81.5 -31.5q35 0 65 10l4 -8q-71 -74 -161 -74q-140 0 -146 170zM682 276v216q-26 -13 -66 -19q-234 -43 -264 -53q-119 -40 -119 -170q0 -91 56.5 -140t146.5 -49q81 0 145 34t89 98q12 30 12 83zM764 1374l12 -4q-13 -50 -28 -88
q-14 -37 -49.5 -68.5t-80.5 -31.5q-50 0 -137 41q-65 32 -119 32q-83 0 -126 -94l-13 4q14 54 31 97q15 42 49.5 75t75.5 33q57 0 139 -43q71 -39 123 -39q76 0 123 86z" />
    <glyph glyph-name="adieresis" unicode="&#xe4;" horiz-adv-x="1032" 
d="M688 147q-88 -172 -303 -172q-135 0 -217 75t-82 198q0 157 178 215q77 24 316 59q74 9 90 25q12 15 12 63v52q0 143 -51 194q-52 55 -180 55q-104 0 -178.5 -30t-104.5 -80l-6 2q-4 12 -4 28q0 78 100 127q103 50 238 50q166 0 246.5 -70.5t80.5 -230.5q0 -99 -2 -226
v-276q0 -93 23.5 -124.5t81.5 -31.5q35 0 65 10l4 -8q-71 -74 -161 -74q-140 0 -146 170zM682 276v216q-26 -13 -66 -19q-234 -43 -264 -53q-119 -40 -119 -170q0 -91 56.5 -140t146.5 -49q81 0 145 34t89 98q12 30 12 83zM414 1280q0 -58 -55.5 -81t-96.5 18
q-19 18 -23 45.5t5 52t31.5 41t52.5 14.5q39 0 62.5 -24.5t23.5 -65.5zM741 1280q0 -38 -25 -63t-63 -25q-37 0 -61.5 25t-24.5 63q-5 56 41.5 79.5t92.5 0t40 -79.5z" />
    <glyph glyph-name="aring" unicode="&#xe5;" horiz-adv-x="1032" 
d="M688 147q-88 -172 -303 -172q-135 0 -217 75t-82 198q0 157 178 215q77 24 316 59q74 9 90 25q12 15 12 63v52q0 143 -51 194q-52 55 -180 55q-104 0 -178.5 -30t-104.5 -80l-6 2q-4 12 -4 28q0 78 100 127q103 50 238 50q166 0 246.5 -70.5t80.5 -230.5q0 -99 -2 -226
v-276q0 -93 23.5 -124.5t81.5 -31.5q35 0 65 10l4 -8q-71 -74 -161 -74q-140 0 -146 170zM682 276v216q-26 -13 -66 -19q-234 -43 -264 -53q-119 -40 -119 -170q0 -91 56.5 -140t146.5 -49q81 0 145 34t89 98q12 30 12 83zM651 1296q0 -73 -46.5 -121.5t-119.5 -48.5
q-72 0 -119 49t-47 121q0 73 48 118.5t122 45.5q72 0 117 -45.5t45 -118.5zM606 1294q0 56 -33.5 90.5t-87.5 34.5q-55 0 -86.5 -33.5t-31.5 -89.5q0 -55 33 -91t89 -36q53 0 85 35t32 90z" />
    <glyph glyph-name="ae" unicode="&#xe6;" horiz-adv-x="1564" 
d="M754 162q-132 -187 -363 -187q-131 0 -219 82q-86 83 -86 205q0 196 246 254q123 28 346 37q2 14 2 106q0 141 -45 189q-55 61 -184 61q-213 0 -283 -116l-6 2q-4 16 -4 28q0 79 102 131q105 54 234 54q243 0 290 -183q109 183 338 183q176 0 268.5 -101t92.5 -278
q0 -105 -6 -117q-9 -18 -60 -18h-594v-11q0 -226 103 -321q101 -94 252 -94q169 0 295 102l6 -4v-10q0 -17 -11 -35q-39 -63 -125.5 -105.5t-207.5 -42.5q-272 0 -381 189zM725 213q-47 109 -47 279q-142 -3 -270 -33q-175 -43 -175 -189q0 -94 61.5 -147t151.5 -53
q181 0 279 143zM827 553h502q4 46 4 104q0 139 -56 215t-165 76q-128 0 -205.5 -110t-79.5 -285z" />
    <glyph glyph-name="ccedilla" unicode="&#xe7;" horiz-adv-x="925" 
d="M365 -383v8l6 2q24 -24 88 -24q54 0 86.5 28.5t32.5 77.5q0 103 -109 103q-26 0 -41 -5l-8 9l59 161q-182 23 -281.5 152t-99.5 348q0 254 133 392.5t355 138.5q137 0 215 -35q45 -20 45 -58q0 -49 -29 -159h-10q-26 100 -86 147q-51 39 -150 39q-145 0 -232 -107.5
t-87 -324.5q0 -231 96 -338q98 -104 252 -104q150 0 266 90l6 -2v-13q0 -14 -16 -43q-34 -57 -112 -92t-191 -35h-31l-30 -94q94 0 143 -44.5t49 -115.5q0 -77 -54.5 -123.5t-142.5 -46.5q-94 0 -114 39q-8 11 -8 29z" />
    <glyph glyph-name="egrave" unicode="&#xe8;" horiz-adv-x="995" 
d="M256 598h502q4 36 4 64q0 286 -219 286q-128 0 -203.5 -93.5t-83.5 -256.5zM844 537h-592v-27q0 -104 21 -184t54.5 -127.5t81.5 -78t95.5 -41.5t101.5 -11q169 0 295 102l6 -4v-10q0 -16 -10 -33q-38 -65 -124.5 -107.5t-209.5 -42.5q-228 0 -346.5 134.5t-118.5 373.5
q0 250 125 387q128 140 330 140q177 0 267.5 -97t90.5 -274q0 -69 -8 -82q-9 -18 -59 -18zM453 1468l188 -321l-10 -10l-279 245q-47 41 -47 80q0 29 21 46.5t51 17.5q42 0 76 -58z" />
    <glyph glyph-name="eacute" unicode="&#xe9;" horiz-adv-x="995" 
d="M256 598h502q4 36 4 64q0 286 -219 286q-128 0 -203.5 -93.5t-83.5 -256.5zM844 537h-592v-27q0 -104 21 -184t54.5 -127.5t81.5 -78t95.5 -41.5t101.5 -11q169 0 295 102l6 -4v-10q0 -16 -10 -33q-38 -65 -124.5 -107.5t-209.5 -42.5q-228 0 -346.5 134.5t-118.5 373.5
q0 250 125 387q128 140 330 140q177 0 267.5 -97t90.5 -274q0 -69 -8 -82q-9 -18 -59 -18zM741 1382l-278 -245l-10 10l188 319q38 60 76 60q30 0 50.5 -17.5t20.5 -46.5q0 -39 -47 -80z" />
    <glyph glyph-name="ecircumflex" unicode="&#xea;" horiz-adv-x="995" 
d="M256 598h502q4 36 4 64q0 286 -219 286q-128 0 -203.5 -93.5t-83.5 -256.5zM844 537h-592v-27q0 -104 21 -184t54.5 -127.5t81.5 -78t95.5 -41.5t101.5 -11q169 0 295 102l6 -4v-10q0 -16 -10 -33q-38 -65 -124.5 -107.5t-209.5 -42.5q-228 0 -346.5 134.5t-118.5 373.5
q0 250 125 387q128 140 330 140q177 0 267.5 -97t90.5 -274q0 -69 -8 -82q-9 -18 -59 -18zM592 1427l203 -284l-9 -8l-266 200l-258 -198l-8 6l205 287q33 45 67 45q30 0 66 -48z" />
    <glyph glyph-name="edieresis" unicode="&#xeb;" horiz-adv-x="995" 
d="M256 598h502q4 36 4 64q0 286 -219 286q-128 0 -203.5 -93.5t-83.5 -256.5zM844 537h-592v-27q0 -104 21 -184t54.5 -127.5t81.5 -78t95.5 -41.5t101.5 -11q169 0 295 102l6 -4v-10q0 -16 -10 -33q-38 -65 -124.5 -107.5t-209.5 -42.5q-228 0 -346.5 134.5t-118.5 373.5
q0 250 125 387q128 140 330 140q177 0 267.5 -97t90.5 -274q0 -69 -8 -82q-9 -18 -59 -18zM479 1292q0 -58 -55 -81t-96 18q-19 18 -23 45.5t4.5 52t31 41t52.5 14.5q39 0 62.5 -24.5t23.5 -65.5zM807 1292q0 -38 -25 -63t-63 -25q-37 0 -61.5 25t-24.5 63q-5 56 41.5 79.5
t92.5 0t40 -79.5z" />
    <glyph glyph-name="igrave" unicode="&#xec;" horiz-adv-x="591" 
d="M178 1468l189 -321l-11 -10l-278 245q-47 41 -47 80q0 29 20.5 46.5t50.5 17.5q42 0 76 -58zM494 8v-8h-388v8q76 25 97 62q22 36 22 172v465q0 135 -18 176q-28 66 -103 75v11q123 30 224 30q25 0 34 -10.5t9 -42.5q0 -5 -0.5 -24.5t-1.5 -60t-2 -83.5q-2 -98 -2 -207
v-327q0 -132 24 -172q26 -42 105 -64z" />
    <glyph glyph-name="iacute" unicode="&#xed;" horiz-adv-x="591" 
d="M436 1382l-278 -245l-11 10l189 319q38 60 76 60q30 0 50.5 -17.5t20.5 -46.5q0 -39 -47 -80zM494 8v-8h-388v8q76 25 97 62q22 36 22 172v465q0 135 -18 176q-28 66 -103 75v11q123 30 224 30q25 0 34 -10.5t9 -42.5q0 -5 -0.5 -24.5t-1.5 -60t-2 -83.5q-2 -98 -2 -207
v-327q0 -132 24 -172q26 -42 105 -64z" />
    <glyph glyph-name="icircumflex" unicode="&#xee;" horiz-adv-x="591" 
d="M494 8v-8h-388v8q76 25 97 62q22 36 22 172v465q0 135 -18 176q-28 66 -103 75v11q123 30 224 30q25 0 34 -10.5t9 -42.5q0 -5 -0.5 -24.5t-1.5 -60t-2 -83.5q-2 -98 -2 -207v-327q0 -132 24 -172q26 -42 105 -64zM348 1427l203 -284l-8 -8l-267 200l-258 -198l-8 6
l205 287q33 45 68 45q29 0 65 -48z" />
    <glyph glyph-name="idieresis" unicode="&#xef;" horiz-adv-x="591" 
d="M211 1292q5 -54 -41.5 -76.5t-93 0t-41.5 76.5q-4 55 43 78.5t93 0.5t40 -79zM539 1292q0 -38 -25 -63t-63 -25q-37 0 -61.5 25t-24.5 63q-5 56 41.5 79.5t92.5 0t40 -79.5zM494 8v-8h-388v8q76 25 97 62q22 36 22 172v465q0 135 -18 176q-28 66 -103 75v11
q123 30 224 30q25 0 34 -10.5t9 -42.5q0 -5 -0.5 -24.5t-1.5 -60t-2 -83.5q-2 -98 -2 -207v-327q0 -132 24 -172q26 -42 105 -64z" />
    <glyph glyph-name="eth" unicode="&#xf0;" horiz-adv-x="1132" 
d="M928 1427l39 -55l-170 -106q237 -290 237 -744q0 -259 -123.5 -404t-345.5 -145q-220 0 -342.5 127.5t-122.5 374.5q0 254 133 387t336 133q194 0 273 -116q-38 187 -135 331l-195 -120l-37 57l191 117q-115 141 -269 192l23 49q197 -47 332 -188zM881 477
q0 455 -308 455q-119 0 -213 -90q-49 -49 -77.5 -141t-28.5 -212q0 -223 85 -338.5t230 -115.5q149 0 230.5 112t81.5 330z" />
    <glyph glyph-name="ntilde" unicode="&#xf1;" horiz-adv-x="1239" 
d="M494 8v-8h-388v8q73 22 97 62q22 39 22 174v467q0 136 -22 178q-28 60 -99 69v11q123 30 213 30q44 0 50 -36q2 -16 2 -154q41 92 137 145.5t219 53.5q219 0 268 -168q21 -64 21 -215v-375q0 -145 26 -184q20 -33 105 -58v-8h-387v8q70 21 94 62q22 42 22 178v332
q0 208 -49 266q-55 67 -170 67q-116 0 -204 -61q-57 -42 -72 -102q-14 -43 -14 -119v-385q0 -138 24 -176q24 -41 105 -62zM885 1374l12 -4q-11 -43 -29 -88q-14 -37 -49 -68.5t-80 -31.5q-50 0 -137 41q-65 32 -119 32q-84 0 -127 -94l-12 4q14 54 31 97q15 42 49.5 75
t75.5 33q57 0 139 -43q71 -39 123 -39q76 0 123 86z" />
    <glyph glyph-name="ograve" unicode="&#xf2;" horiz-adv-x="1132" 
d="M1034 504q0 -253 -123.5 -392t-345.5 -139q-220 0 -343.5 128.5t-123.5 379.5q0 259 138 391q139 136 348 136q221 0 335.5 -128t114.5 -376zM881 487q0 459 -303 459q-45 0 -87.5 -11.5t-86.5 -42.5t-76.5 -79.5t-53 -129.5t-20.5 -185q0 -231 84.5 -347t230.5 -116
t229 115t83 337zM471 1468l188 -321l-10 -10l-278 245q-47 41 -47 80q0 29 20.5 46.5t50.5 17.5q42 0 76 -58z" />
    <glyph glyph-name="oacute" unicode="&#xf3;" horiz-adv-x="1132" 
d="M1034 504q0 -253 -123.5 -392t-345.5 -139q-220 0 -343.5 128.5t-123.5 379.5q0 259 138 391q139 136 348 136q221 0 335.5 -128t114.5 -376zM881 487q0 459 -303 459q-45 0 -87.5 -11.5t-86.5 -42.5t-76.5 -79.5t-53 -129.5t-20.5 -185q0 -231 84.5 -347t230.5 -116
t229 115t83 337zM758 1382l-279 -245l-10 10l188 319q38 60 76 60q30 0 51 -17.5t21 -46.5q0 -39 -47 -80z" />
    <glyph glyph-name="ocircumflex" unicode="&#xf4;" horiz-adv-x="1132" 
d="M1034 504q0 -253 -123.5 -392t-345.5 -139q-220 0 -343.5 128.5t-123.5 379.5q0 259 138 391q139 136 348 136q221 0 335.5 -128t114.5 -376zM881 487q0 459 -303 459q-45 0 -87.5 -11.5t-86.5 -42.5t-76.5 -79.5t-53 -129.5t-20.5 -185q0 -231 84.5 -347t230.5 -116
t229 115t83 337zM641 1427l203 -284l-8 -8l-267 200l-258 -198l-8 6l205 287q33 45 67 45q30 0 66 -48z" />
    <glyph glyph-name="otilde" unicode="&#xf5;" horiz-adv-x="1132" 
d="M1034 504q0 -253 -123.5 -392t-345.5 -139q-220 0 -343.5 128.5t-123.5 379.5q0 259 138 391q139 136 348 136q221 0 335.5 -128t114.5 -376zM881 487q0 459 -303 459q-45 0 -87.5 -11.5t-86.5 -42.5t-76.5 -79.5t-53 -129.5t-20.5 -185q0 -231 84.5 -347t230.5 -116
t229 115t83 337zM834 1374l12 -4q-11 -43 -29 -88q-14 -37 -49 -68.5t-80 -31.5q-50 0 -137 41q-65 32 -119 32q-84 0 -127 -94l-12 4q14 54 31 97q15 42 49.5 75t75.5 33q57 0 139 -43q71 -39 123 -39q76 0 123 86z" />
    <glyph glyph-name="odieresis" unicode="&#xf6;" horiz-adv-x="1132" 
d="M1034 504q0 -253 -123.5 -392t-345.5 -139q-220 0 -343.5 128.5t-123.5 379.5q0 259 138 391q139 136 348 136q221 0 335.5 -128t114.5 -376zM881 487q0 459 -303 459q-45 0 -87.5 -11.5t-86.5 -42.5t-76.5 -79.5t-53 -129.5t-20.5 -185q0 -231 84.5 -347t230.5 -116
t229 115t83 337zM489 1292q5 -54 -41.5 -76.5t-93 0t-41.5 76.5q-4 55 43 78.5t93 0.5t40 -79zM817 1292q0 -38 -25 -63t-63 -25q-37 0 -61.5 25t-24.5 63q-5 56 41.5 79.5t92.5 0t40 -79.5z" />
    <glyph glyph-name="divide" unicode="&#xf7;" horiz-adv-x="1302" 
d="M745 858q0 -38 -23 -62t-60 -24q-38 -4 -62.5 24t-23.5 63t22 63q28 23 62.5 24.5t61.5 -24t23 -64.5zM1114 604v-104h-926v104h926zM745 240q0 -38 -23 -62t-60 -24q-38 0 -62.5 24.5t-24.5 61.5q-6 55 40 78t91.5 0t38.5 -78z" />
    <glyph glyph-name="oslash" unicode="&#xf8;" horiz-adv-x="1132" 
d="M281 51l-93 -125l-51 35l94 129q-133 133 -133 391q0 259 138 391q139 136 348 136q159 0 266 -70l98 133l51 -35l-100 -137q135 -126 135 -395q0 -253 -123.5 -392t-345.5 -139q-168 0 -284 78zM881 487q0 198 -58 308l-477 -654q78 -106 223 -106t228.5 115t83.5 337z
M254 498q0 -191 57 -299l475 651q-78 96 -208 96q-45 0 -87.5 -11.5t-86.5 -43t-76.5 -80t-53 -129t-20.5 -184.5z" />
    <glyph glyph-name="ugrave" unicode="&#xf9;" horiz-adv-x="1232" 
d="M866 164q-95 -191 -340 -191q-230 0 -288 172q-25 80 -25 220v337q0 129 -16 179q-21 65 -109 77v11q107 26 229 26q25 0 33 -9t8 -36v-6q0 -6 -0.5 -17.5t-1 -26.5t-1 -37.5t-1.5 -47.5q-2 -88 -2 -209v-213q0 -190 56 -258q55 -67 176 -67q124 0 209 73q43 40 57 90
q12 41 12 140v327q0 131 -16 181q-24 63 -109 79v11q110 26 232 26q24 0 32.5 -8.5t8.5 -36.5l-4 -147q-1 -38 -2 -86.5t-2 -81.5t-1 -55v-361q0 -162 103 -162q24 0 65 9l5 -7q-32 -32 -86.5 -54.5t-98.5 -22.5q-63 0 -92.5 42t-30.5 140zM487 1473l189 -322l-10 -10
l-279 245q-47 41 -47 80q0 29 21 46.5t51 17.5q41 0 75 -57z" />
    <glyph glyph-name="uacute" unicode="&#xfa;" horiz-adv-x="1232" 
d="M866 164q-95 -191 -340 -191q-230 0 -288 172q-25 80 -25 220v337q0 129 -16 179q-21 65 -109 77v11q107 26 229 26q25 0 33 -9t8 -36v-6q0 -6 -0.5 -17.5t-1 -26.5t-1 -37.5t-1.5 -47.5q-2 -88 -2 -209v-213q0 -190 56 -258q55 -67 176 -67q124 0 209 73q43 40 57 90
q12 41 12 140v327q0 131 -16 181q-24 63 -109 79v11q110 26 232 26q24 0 32.5 -8.5t8.5 -36.5l-4 -147q-1 -38 -2 -86.5t-2 -81.5t-1 -55v-361q0 -162 103 -162q24 0 65 9l5 -7q-32 -32 -86.5 -54.5t-98.5 -22.5q-63 0 -92.5 42t-30.5 140zM778 1382l-278 -245l-11 10
l189 319q38 60 76 60q30 0 50.5 -17.5t20.5 -46.5q0 -39 -47 -80z" />
    <glyph glyph-name="ucircumflex" unicode="&#xfb;" horiz-adv-x="1232" 
d="M866 164q-95 -191 -340 -191q-230 0 -288 172q-25 80 -25 220v337q0 129 -16 179q-21 65 -109 77v11q107 26 229 26q25 0 33 -9t8 -36v-6q0 -6 -0.5 -17.5t-1 -26.5t-1 -37.5t-1.5 -47.5q-2 -88 -2 -209v-213q0 -190 56 -258q55 -67 176 -67q124 0 209 73q43 40 57 90
q12 41 12 140v327q0 131 -16 181q-24 63 -109 79v11q110 26 232 26q24 0 32.5 -8.5t8.5 -36.5l-4 -147q-1 -38 -2 -86.5t-2 -81.5t-1 -55v-361q0 -162 103 -162q24 0 65 9l5 -7q-32 -32 -86.5 -54.5t-98.5 -22.5q-63 0 -92.5 42t-30.5 140zM670 1427l202 -284l-8 -8
l-266 200l-258 -198l-8 6l205 287q33 45 67 45q30 0 66 -48z" />
    <glyph glyph-name="udieresis" unicode="&#xfc;" horiz-adv-x="1232" 
d="M866 164q-95 -191 -340 -191q-230 0 -288 172q-25 80 -25 220v337q0 129 -16 179q-21 65 -109 77v11q107 26 229 26q25 0 33 -9t8 -36v-6q0 -6 -0.5 -17.5t-1 -26.5t-1 -37.5t-1.5 -47.5q-2 -88 -2 -209v-213q0 -190 56 -258q55 -67 176 -67q124 0 209 73q43 40 57 90
q12 41 12 140v327q0 131 -16 181q-24 63 -109 79v11q110 26 232 26q24 0 32.5 -8.5t8.5 -36.5l-4 -147q-1 -38 -2 -86.5t-2 -81.5t-1 -55v-361q0 -162 103 -162q24 0 65 9l5 -7q-32 -32 -86.5 -54.5t-98.5 -22.5q-63 0 -92.5 42t-30.5 140zM526 1292q5 -54 -41.5 -76.5
t-93 0t-41.5 76.5q-4 55 43 78.5t93 0.5t40 -79zM854 1292q0 -38 -25 -63t-63 -25q-37 0 -61.5 25t-24.5 63q-5 56 41.5 79.5t92.5 0t40 -79.5z" />
    <glyph glyph-name="yacute" unicode="&#xfd;" horiz-adv-x="1062" 
d="M137 -264h13q24 -96 102 -96q83 0 127 84q76 139 127 276h-43l-326 819q-41 106 -76 127q-29 20 -49 27v8h383v-8q-65 -21 -92 -39q-24 -15 -24 -41q0 -31 22 -92q224 -583 256 -684l242 682q22 61 22 96q0 26 -30 47q-41 22 -78 31v8h303v-8q-49 -21 -51 -23
q-25 -19 -40 -43t-40 -92q-228 -598 -305 -815q-82 -218 -152 -342q-76 -129 -207 -129q-41 0 -71 10q-37 15 -37 53q0 56 24 144zM774 1382l-278 -245l-11 10l189 319q38 60 76 60q30 0 50.5 -17.5t20.5 -46.5q0 -39 -47 -80z" />
    <glyph glyph-name="thorn" unicode="&#xfe;" horiz-adv-x="1153" 
d="M502 -442v-9h-420v9q73 22 96 61q23 38 23 172v1370q0 121 -15 162q-21 66 -106 82v10q124 31 227 31q23 0 31 -10t8 -39q0 -99 -2 -244v-334q31 85 123.5 138t208.5 53q185 0 281 -127t96 -373q0 -253 -127 -387.5t-346 -134.5q-155 0 -240 49v-242q0 -133 29 -176
q22 -32 133 -61zM340 647v-416q0 -70 25 -106q24 -32 83.5 -53t129.5 -21q149 0 233 107t84 311q0 241 -69 346t-210 105q-129 0 -213 -78q-31 -31 -47 -74t-16 -121z" />
    <glyph glyph-name="ydieresis" unicode="&#xff;" horiz-adv-x="1062" 
d="M137 -264h13q24 -96 102 -96q83 0 127 84q76 139 127 276h-43l-326 819q-41 106 -76 127q-29 20 -49 27v8h383v-8q-65 -21 -92 -39q-24 -15 -24 -41q0 -31 22 -92q224 -583 256 -684l242 682q22 61 22 96q0 26 -30 47q-41 22 -78 31v8h303v-8q-49 -21 -51 -23
q-25 -19 -40 -43t-40 -92q-228 -598 -305 -815q-82 -218 -152 -342q-76 -129 -207 -129q-41 0 -71 10q-37 15 -37 53q0 56 24 144zM467 1292q0 -58 -55.5 -81t-96.5 18q-19 18 -23 45.5t5 52t31.5 41t52.5 14.5q39 0 62.5 -24.5t23.5 -65.5zM795 1292q0 -38 -25 -63t-63 -25
q-37 0 -61.5 25t-24.5 63q-5 56 41.5 79.5t92.5 0t40 -79.5z" />
    <glyph glyph-name="Amacron" unicode="&#x100;" horiz-adv-x="1320" 
d="M375 10v-10h-365v10q63 15 88 47q41 47 78 140l324 866q1 3 9 23.5t19 49.5t23 62q43 114 61 168h105l106 -291l318 -874q42 -114 73 -148q27 -27 95 -43v-10h-437v10q54 11 93 35q28 19 28 55q0 26 -24 103l-101 286h-495l-101 -282q-27 -73 -24 -112.5t45 -57.5
q25 -14 82 -27zM621 1190l-226 -635h447l-113 317l-74 211zM932 1649v-99h-533v99h533z" />
    <glyph glyph-name="amacron" unicode="&#x101;" horiz-adv-x="1032" 
d="M688 147q-88 -172 -303 -172q-135 0 -217 75t-82 198q0 157 178 215q77 24 316 59q74 9 90 25q12 15 12 63v52q0 143 -51 194q-52 55 -180 55q-104 0 -178.5 -30t-104.5 -80l-6 2q-4 12 -4 28q0 78 100 127q103 50 238 50q166 0 246.5 -70.5t80.5 -230.5q0 -99 -2 -226
v-276q0 -93 23.5 -124.5t81.5 -31.5q35 0 65 10l4 -8q-71 -74 -161 -74q-140 0 -146 170zM682 276v216q-26 -13 -66 -19q-234 -43 -264 -53q-119 -40 -119 -170q0 -91 56.5 -140t146.5 -49q81 0 145 34t89 98q12 30 12 83zM764 1305v-97h-514v97h514z" />
    <glyph glyph-name="Abreve" unicode="&#x102;" horiz-adv-x="1320" 
d="M375 10v-10h-365v10q63 15 88 47q41 47 78 140l324 866q1 3 9 23.5t19 49.5t23 62q43 114 61 168h105l106 -291l318 -874q42 -114 73 -148q27 -27 95 -43v-10h-437v10q54 11 93 35q28 19 28 55q0 26 -24 103l-101 286h-495l-101 -282q-27 -73 -24 -112.5t45 -57.5
q25 -14 82 -27zM621 1190l-226 -635h447l-113 317l-74 211zM909 1769l15 -2q-9 -120 -64 -196q-52 -76 -198 -76q-139 0 -192.5 69t-53.5 203l14 2q21 -86 72.5 -125.5t159.5 -39.5q106 0 161 39.5t86 125.5z" />
    <glyph glyph-name="abreve" unicode="&#x103;" horiz-adv-x="1032" 
d="M688 147q-88 -172 -303 -172q-135 0 -217 75t-82 198q0 157 178 215q77 24 316 59q74 9 90 25q12 15 12 63v52q0 143 -51 194q-52 55 -180 55q-104 0 -178.5 -30t-104.5 -80l-6 2q-4 12 -4 28q0 78 100 127q103 50 238 50q166 0 246.5 -70.5t80.5 -230.5q0 -99 -2 -226
v-276q0 -93 23.5 -124.5t81.5 -31.5q35 0 65 10l4 -8q-71 -74 -161 -74q-140 0 -146 170zM682 276v216q-26 -13 -66 -19q-234 -43 -264 -53q-119 -40 -119 -170q0 -91 56.5 -140t146.5 -49q81 0 145 34t89 98q12 30 12 83zM733 1419l12 -2q-9 -276 -253 -276q-151 0 -199 92
q-39 74 -39 186l14 2q21 -90 70.5 -131t153.5 -41t156 40t85 130z" />
    <glyph glyph-name="Aogonek" unicode="&#x104;" horiz-adv-x="1320" 
d="M1178 -336l6 -2v-8q0 -14 -13 -27q-43 -43 -124 -43q-94 0 -144.5 48t-50.5 126q0 159 219 242h-199v10q54 11 93 35q28 19 28 55q0 26 -24 103l-101 286h-495l-101 -282q-27 -73 -24 -112.5t45 -57.5q25 -14 82 -27v-10h-365v10q63 15 88 47q41 47 78 140l324 866
q1 3 9 23.5t19 49.5t23 62q43 114 61 168h105l106 -291l318 -874q42 -114 73 -148q27 -27 95 -43v-10h-201q-145 -89 -145 -231q0 -57 32 -91t92 -34q68 0 91 20zM621 1190l-226 -635h447l-113 317l-74 211z" />
    <glyph glyph-name="aogonek" unicode="&#x105;" horiz-adv-x="1032" 
d="M938 -330l6 -4v-8q0 -11 -12 -23q-38 -41 -121 -41q-89 0 -137.5 46.5t-48.5 123.5q0 139 166 218q-100 21 -103 165q-88 -172 -303 -172q-135 0 -217 75t-82 198q0 157 178 215q77 24 316 59q74 9 90 25q12 15 12 63v52q0 143 -51 194q-52 55 -180 55q-104 0 -178.5 -30
t-104.5 -80l-6 2q-4 12 -4 28q0 78 100 127q103 50 238 50q166 0 246.5 -70.5t80.5 -230.5q0 -99 -2 -226v-276q0 -93 23.5 -124.5t81.5 -31.5q35 0 65 10l4 -8q-68 -71 -157 -74q-107 -76 -107 -204q0 -56 31.5 -89.5t89.5 -33.5q60 0 86 20zM682 276v216q-26 -13 -66 -19
q-234 -43 -264 -53q-119 -40 -119 -170q0 -91 56.5 -140t146.5 -49q81 0 145 34t89 98q12 30 12 83z" />
    <glyph glyph-name="Cacute" unicode="&#x106;" horiz-adv-x="1284" 
d="M1186 252h12q-3 -112 -18 -162q-9 -37 -80 -67q-121 -50 -324 -50q-323 0 -494 186t-171 523q0 341 180 526t520 185q197 0 315 -47q66 -28 66 -74q0 -59 -35 -193h-12q-21 98 -70 156q-87 90 -280 90q-243 0 -375.5 -162t-132.5 -467q0 -310 138.5 -482.5t395.5 -172.5
q158 0 250 65q68 50 115 146zM987 1669l-332 -178l-10 12l262 271q38 41 74 41q30 0 52 -19t22 -49q0 -43 -68 -78z" />
    <glyph glyph-name="cacute" unicode="&#x107;" horiz-adv-x="925" 
d="M866 158l6 -2v-13q0 -14 -16 -43q-34 -57 -112 -92t-191 -35q-215 0 -335 132t-120 372q0 254 133 392.5t355 138.5q137 0 215 -35q45 -20 45 -58q0 -49 -29 -159h-10q-26 100 -86 147q-51 39 -150 39q-145 0 -232 -107.5t-87 -324.5q0 -231 96 -338q98 -104 252 -104
q150 0 266 90zM756 1382l-279 -245l-10 10l188 319q38 60 76 60q30 0 51 -17.5t21 -46.5q0 -39 -47 -80z" />
    <glyph glyph-name="Ccircumflex" unicode="&#x108;" horiz-adv-x="1284" 
d="M1186 252h12q-3 -112 -18 -162q-9 -37 -80 -67q-121 -50 -324 -50q-323 0 -494 186t-171 523q0 341 180 526t520 185q197 0 315 -47q66 -28 66 -74q0 -59 -35 -193h-12q-21 98 -70 156q-87 90 -280 90q-243 0 -375.5 -162t-132.5 -467q0 -310 138.5 -482.5t395.5 -172.5
q158 0 250 65q68 50 115 146zM831 1729l226 -256l-8 -11l-291 172l-281 -172l-8 11l225 256q34 40 72 40q31 0 65 -40z" />
    <glyph glyph-name="ccircumflex" unicode="&#x109;" horiz-adv-x="925" 
d="M866 158l6 -2v-13q0 -14 -16 -43q-34 -57 -112 -92t-191 -35q-215 0 -335 132t-120 372q0 254 133 392.5t355 138.5q137 0 215 -35q45 -20 45 -58q0 -49 -29 -159h-10q-26 100 -86 147q-51 39 -150 39q-145 0 -232 -107.5t-87 -324.5q0 -231 96 -338q98 -104 252 -104
q150 0 266 90zM618 1427l203 -284l-8 -8l-266 200l-258 -198l-8 6l204 287q33 45 68 45q29 0 65 -48z" />
    <glyph glyph-name="Cdotaccent" unicode="&#x10a;" horiz-adv-x="1284" 
d="M1186 252h12q-3 -112 -18 -162q-9 -37 -80 -67q-121 -50 -324 -50q-323 0 -494 186t-171 523q0 341 180 526t520 185q197 0 315 -47q66 -28 66 -74q0 -59 -35 -193h-12q-21 98 -70 156q-87 90 -280 90q-243 0 -375.5 -162t-132.5 -467q0 -310 138.5 -482.5t395.5 -172.5
q158 0 250 65q68 50 115 146zM745 1503q-55 -6 -78 43.5t0.5 98.5t80.5 43q55 6 78 -43.5t-0.5 -98.5t-80.5 -43z" />
    <glyph glyph-name="cdotaccent" unicode="&#x10b;" horiz-adv-x="925" 
d="M866 158l6 -2v-13q0 -14 -16 -43q-34 -57 -112 -92t-191 -35q-215 0 -335 132t-120 372q0 254 133 392.5t355 138.5q137 0 215 -35q45 -20 45 -58q0 -49 -29 -159h-10q-26 100 -86 147q-51 39 -150 39q-145 0 -232 -107.5t-87 -324.5q0 -231 96 -338q98 -104 252 -104
q150 0 266 90zM553 1200q-55 -6 -78.5 43t0 98t80.5 43q54 6 77 -43t0 -98t-79 -43z" />
    <glyph glyph-name="Ccaron" unicode="&#x10c;" horiz-adv-x="1284" 
d="M1186 252h12q-3 -112 -18 -162q-9 -37 -80 -67q-121 -50 -324 -50q-323 0 -494 186t-171 523q0 341 180 526t520 185q197 0 315 -47q66 -28 66 -74q0 -59 -35 -193h-12q-21 98 -70 156q-87 90 -280 90q-243 0 -375.5 -162t-132.5 -467q0 -310 138.5 -482.5t395.5 -172.5
q158 0 250 65q68 50 115 146zM670 1524l-224 256l9 10l288 -172l283 172l8 -10l-227 -258q-37 -39 -69.5 -39t-67.5 41z" />
    <glyph glyph-name="ccaron" unicode="&#x10d;" horiz-adv-x="925" 
d="M866 158l6 -2v-13q0 -14 -16 -43q-34 -57 -112 -92t-191 -35q-215 0 -335 132t-120 372q0 254 133 392.5t355 138.5q137 0 215 -35q45 -20 45 -58q0 -49 -29 -159h-10q-26 100 -86 147q-51 39 -150 39q-145 0 -232 -107.5t-87 -324.5q0 -231 96 -338q98 -104 252 -104
q150 0 266 90zM483 1184l-202 284l8 9l266 -199l258 199l8 -9l-205 -286q-30 -43 -67 -43t-66 45z" />
    <glyph glyph-name="Dcaron" unicode="&#x10e;" horiz-adv-x="1460" 
d="M608 0h-485v10q64 19 88.5 34.5t34.5 45.5q16 56 16 195v788q0 164 -16 207q-18 52 -123 76v10h526q296 0 447 -92q256 -164 256 -553q0 -721 -744 -721zM418 1145v-881q0 -108 10 -141q9 -33 41 -43q56 -17 152 -17q557 0 557 644q0 313 -148 464q-123 129 -436 129
q-130 0 -156 -26q-20 -20 -20 -129zM600 1524l-223 256l8 10l289 -172l282 172l9 -10l-228 -258q-37 -39 -69.5 -39t-67.5 41z" />
    <glyph glyph-name="dcaron" unicode="&#x10f;" horiz-adv-x="1198" 
d="M819 152q-36 -79 -118 -128t-181 -49q-199 0 -310.5 127.5t-111.5 362.5q0 255 128.5 399t361.5 144q144 0 227 -62v223q0 104 -16 154q-21 66 -107 82v10q130 31 228 31q41 0 41 -49q0 -5 -1 -43.5t-2 -114.5t-2 -160q-2 -193 -2 -374v-482q0 -166 97 -166q38 0 65 6
l6 -8q-76 -73 -180 -73q-63 0 -91 38t-32 132zM815 279v452q0 52 -8 96q-6 33 -31 58q-61 61 -196 61q-161 0 -244.5 -119.5t-83.5 -322.5q0 -232 90 -336q92 -102 223 -102q135 0 207 81q29 29 37 66q6 24 6 66zM1075 1030l-8 12q143 101 143 195q0 41 -36 61
q-50 27 -50 76q0 33 24 55.5t62 22.5q54 0 82.5 -34t28.5 -97q0 -81 -66.5 -159t-179.5 -132z" />
    <glyph glyph-name="Dcroat" unicode="&#x110;" horiz-adv-x="1460" 
d="M608 0h-485v10q64 19 88.5 34.5t34.5 45.5q16 56 16 195v395h-170v76h170v317q0 164 -16 207q-18 52 -123 76v10h526q296 0 447 -92q256 -164 256 -553q0 -721 -744 -721zM418 680v-416q0 -108 10 -141q9 -33 41 -43q56 -17 152 -17q557 0 557 644q0 313 -148 464
q-123 129 -436 129q-130 0 -156 -26q-20 -20 -20 -129v-389h401v-76h-401z" />
    <glyph glyph-name="dslash" unicode="&#x111;" horiz-adv-x="1198" 
d="M819 152q-36 -79 -118 -128t-181 -49q-199 0 -310.5 127.5t-111.5 362.5q0 255 128.5 399t361.5 144q144 0 227 -62v209h-262v68h260q-3 69 -14 100q-21 66 -107 82v10q130 31 228 31q41 0 41 -49q0 -91 -3 -174h177v-68h-177q-4 -438 -4 -450v-482q0 -166 97 -166
q38 0 65 6l6 -8q-76 -73 -180 -73q-63 0 -91 38t-32 132zM815 279v452q0 52 -8 96q-6 33 -31 58q-61 61 -196 61q-161 0 -244.5 -119.5t-83.5 -322.5q0 -232 90 -336q92 -102 223 -102q135 0 207 81q29 29 37 66q6 24 6 66z" />
    <glyph glyph-name="Emacron" unicode="&#x112;" horiz-adv-x="1107" 
d="M958 0h-835v10q76 21 108 53q31 28 31 179v905q0 127 -26 153q-27 34 -113 56v10h803q27 0 36 -8.5t9 -34.5t-19 -205h-12q-44 152 -117 170q-47 12 -135 12h-211q-34 0 -46.5 -14.5t-12.5 -50.5v-492h164q97 0 157 13q53 10 76.5 36t40.5 93h12v-342h-12
q-12 63 -40.5 92t-90.5 39q-41 6 -141 6h-166v-512q0 -58 19 -79t79 -21h229q130 0 181 45q44 35 100 166h12q0 -118 -16 -230q-4 -31 -16.5 -40t-47.5 -9zM864 1649v-99h-532v99h532z" />
    <glyph glyph-name="emacron" unicode="&#x113;" horiz-adv-x="995" 
d="M256 598h502q4 36 4 64q0 286 -219 286q-128 0 -203.5 -93.5t-83.5 -256.5zM844 537h-592v-27q0 -104 21 -184t54.5 -127.5t81.5 -78t95.5 -41.5t101.5 -11q169 0 295 102l6 -4v-10q0 -16 -10 -33q-38 -65 -124.5 -107.5t-209.5 -42.5q-228 0 -346.5 134.5t-118.5 373.5
q0 250 125 387q128 140 330 140q177 0 267.5 -97t90.5 -274q0 -69 -8 -82q-9 -18 -59 -18zM799 1305v-97h-514v97h514z" />
    <glyph glyph-name="Ebreve" unicode="&#x114;" horiz-adv-x="1107" 
d="M958 0h-835v10q76 21 108 53q31 28 31 179v905q0 127 -26 153q-27 34 -113 56v10h803q27 0 36 -8.5t9 -34.5t-19 -205h-12q-44 152 -117 170q-47 12 -135 12h-211q-34 0 -46.5 -14.5t-12.5 -50.5v-492h164q97 0 157 13q53 10 76.5 36t40.5 93h12v-342h-12
q-12 63 -40.5 92t-90.5 39q-41 6 -141 6h-166v-512q0 -58 19 -79t79 -21h229q130 0 181 45q44 35 100 166h12q0 -118 -16 -230q-4 -31 -16.5 -40t-47.5 -9zM831 1769l15 -2q-9 -120 -64 -196q-52 -76 -198 -76q-139 0 -192.5 69t-53.5 203l14 2q21 -86 72.5 -125.5
t159.5 -39.5q106 0 161 39.5t86 125.5z" />
    <glyph glyph-name="ebreve" unicode="&#x115;" horiz-adv-x="995" 
d="M256 598h502q4 36 4 64q0 286 -219 286q-128 0 -203.5 -93.5t-83.5 -256.5zM844 537h-592v-27q0 -104 21 -184t54.5 -127.5t81.5 -78t95.5 -41.5t101.5 -11q169 0 295 102l6 -4v-10q0 -16 -10 -33q-38 -65 -124.5 -107.5t-209.5 -42.5q-228 0 -346.5 134.5t-118.5 373.5
q0 250 125 387q128 140 330 140q177 0 267.5 -97t90.5 -274q0 -69 -8 -82q-9 -18 -59 -18zM772 1419l12 -2q-9 -276 -254 -276q-150 0 -198 92q-39 74 -39 186l14 2q21 -90 70 -131t153 -41t156.5 40t85.5 130z" />
    <glyph glyph-name="Edotaccent" unicode="&#x116;" horiz-adv-x="1107" 
d="M958 0h-835v10q76 21 108 53q31 28 31 179v905q0 127 -26 153q-27 34 -113 56v10h803q27 0 36 -8.5t9 -34.5t-19 -205h-12q-44 152 -117 170q-47 12 -135 12h-211q-34 0 -46.5 -14.5t-12.5 -50.5v-492h164q97 0 157 13q53 10 76.5 36t40.5 93h12v-342h-12
q-12 63 -40.5 92t-90.5 39q-41 6 -141 6h-166v-512q0 -58 19 -79t79 -21h229q130 0 181 45q44 35 100 166h12q0 -118 -16 -230q-4 -31 -16.5 -40t-47.5 -9zM592 1503q-55 -6 -78.5 43.5t0 98.5t80.5 43q55 6 78.5 -43.5t0 -98.5t-80.5 -43z" />
    <glyph glyph-name="edotaccent" unicode="&#x117;" horiz-adv-x="995" 
d="M256 598h502q4 36 4 64q0 286 -219 286q-128 0 -203.5 -93.5t-83.5 -256.5zM844 537h-592v-27q0 -104 21 -184t54.5 -127.5t81.5 -78t95.5 -41.5t101.5 -11q169 0 295 102l6 -4v-10q0 -16 -10 -33q-38 -65 -124.5 -107.5t-209.5 -42.5q-228 0 -346.5 134.5t-118.5 373.5
q0 250 125 387q128 140 330 140q177 0 267.5 -97t90.5 -274q0 -69 -8 -82q-9 -18 -59 -18zM532 1200q-55 -6 -78 43t0.5 98t80.5 43q54 6 77 -43t-0.5 -98t-79.5 -43z" />
    <glyph glyph-name="Eogonek" unicode="&#x118;" horiz-adv-x="1107" 
d="M903 0h-780v10q76 21 108 53q31 28 31 179v905q0 127 -26 153q-27 34 -113 56v10h803q27 0 36 -8.5t9 -34.5t-19 -205h-12q-44 152 -117 170q-47 12 -135 12h-211q-34 0 -46.5 -14.5t-12.5 -50.5v-492h164q97 0 157 13q53 10 76.5 36t40.5 93h12v-342h-12
q-12 63 -40.5 92t-90.5 39q-41 6 -141 6h-166v-512q0 -58 19 -79t79 -21h229q130 0 181 45q44 35 100 166h12q0 -118 -16 -230q-4 -31 -16.5 -40t-47.5 -9h-18q-145 -89 -145 -231q0 -57 32.5 -91t92.5 -34q67 0 90 20l6 -2v-8q0 -15 -12 -27q-43 -43 -125 -43
q-94 0 -144.5 48t-50.5 126q0 159 219 242z" />
    <glyph glyph-name="eogonek" unicode="&#x119;" horiz-adv-x="995" 
d="M768 -330l6 -4v-8q0 -11 -12 -23q-38 -41 -121 -41q-90 0 -138 46.5t-48 123.5q0 128 153 211q-10 -2 -45 -2q-228 0 -346.5 134.5t-118.5 373.5q0 250 125 387q128 140 330 140q177 0 267.5 -97t90.5 -274q0 -69 -8 -82q-9 -18 -59 -18h-592v-27q0 -104 21 -184
t54.5 -127.5t81.5 -78t95.5 -41.5t101.5 -11q169 0 295 102l6 -4v-10q0 -16 -10 -33q-60 -102 -217 -137q-119 -85 -119 -213q0 -56 31.5 -89.5t89.5 -33.5q60 0 86 20zM256 598h502q4 36 4 64q0 286 -219 286q-128 0 -203.5 -93.5t-83.5 -256.5z" />
    <glyph glyph-name="Ecaron" unicode="&#x11a;" horiz-adv-x="1107" 
d="M958 0h-835v10q76 21 108 53q31 28 31 179v905q0 127 -26 153q-27 34 -113 56v10h803q27 0 36 -8.5t9 -34.5t-19 -205h-12q-44 152 -117 170q-47 12 -135 12h-211q-34 0 -46.5 -14.5t-12.5 -50.5v-492h164q97 0 157 13q53 10 76.5 36t40.5 93h12v-342h-12
q-12 63 -40.5 92t-90.5 39q-41 6 -141 6h-166v-512q0 -58 19 -79t79 -21h229q130 0 181 45q44 35 100 166h12q0 -118 -16 -230q-4 -31 -16.5 -40t-47.5 -9zM532 1524l-223 256l8 10l289 -172l283 172l8 -10l-227 -258q-37 -39 -70 -39t-68 41z" />
    <glyph glyph-name="ecaron" unicode="&#x11b;" horiz-adv-x="995" 
d="M256 598h502q4 36 4 64q0 286 -219 286q-128 0 -203.5 -93.5t-83.5 -256.5zM844 537h-592v-27q0 -104 21 -184t54.5 -127.5t81.5 -78t95.5 -41.5t101.5 -11q169 0 295 102l6 -4v-10q0 -16 -10 -33q-38 -65 -124.5 -107.5t-209.5 -42.5q-228 0 -346.5 134.5t-118.5 373.5
q0 250 125 387q128 140 330 140q177 0 267.5 -97t90.5 -274q0 -69 -8 -82q-9 -18 -59 -18zM469 1184l-203 284l8 9l267 -199l258 199l8 -9l-205 -286q-30 -43 -67 -43t-66 45z" />
    <glyph glyph-name="Gcircumflex" unicode="&#x11c;" horiz-adv-x="1419" 
d="M1247 25q-78 -9 -184 -27q-141 -25 -258 -25q-322 0 -510 185q-186 183 -186 524q0 339 189 525t540 186q203 0 342 -47q39 -14 53 -28t14 -40q0 -84 -33 -199h-12q-22 96 -53 135q-77 111 -311 111q-269 0 -410 -158.5t-141 -474.5q0 -304 142 -475.5t409 -171.5
q68 0 134 13t89 32q16 16 16 82v166q0 160 -22 199q-28 42 -127 63v10h420v-10q-75 -29 -91 -59q-24 -40 -24 -199v-137q0 -125 14 -180zM860 1729l225 -256l-8 -11l-291 172l-280 -172l-8 11l225 256q34 40 72 40q31 0 65 -40z" />
    <glyph glyph-name="gcircumflex" unicode="&#x11d;" horiz-adv-x="1013" 
d="M332 350q-219 77 -219 312q0 156 103.5 251t283.5 95q117 0 200 -45q213 3 275 51l6 -2q-4 -73 -20.5 -98t-57.5 -25q-58 0 -125 12q76 -85 76 -227q0 -158 -104 -250t-273 -92q-9 0 -45.5 2t-40.5 2q-19 0 -41 -19q-31 -31 -31 -63q0 -58 89 -76q254 -47 354 -72
q213 -53 213 -225q0 -159 -130 -249.5t-362 -90.5q-209 0 -319.5 71t-110.5 193q0 88 70 155.5t221 100.5q-125 34 -125 132q0 93 113 157zM426 39q-101 0 -195 -82q-59 -53 -59 -145q0 -93 92 -152q89 -57 225 -57q166 0 257.5 59.5t91.5 163.5q0 107 -127 154
q-48 18 -152 38q-94 21 -133 21zM707 670q0 276 -213 276q-108 0 -171 -69t-63 -207q0 -279 221 -279q226 0 226 279zM580 1427l202 -284l-8 -8l-266 200l-258 -198l-8 6l204 287q33 45 68 45q30 0 66 -48z" />
    <glyph glyph-name="Gbreve" unicode="&#x11e;" horiz-adv-x="1419" 
d="M1247 25q-78 -9 -184 -27q-141 -25 -258 -25q-322 0 -510 185q-186 183 -186 524q0 339 189 525t540 186q203 0 342 -47q39 -14 53 -28t14 -40q0 -84 -33 -199h-12q-22 96 -53 135q-77 111 -311 111q-269 0 -410 -158.5t-141 -474.5q0 -304 142 -475.5t409 -171.5
q68 0 134 13t89 32q16 16 16 82v166q0 160 -22 199q-28 42 -127 63v10h420v-10q-75 -29 -91 -59q-24 -40 -24 -199v-137q0 -125 14 -180zM1016 1769l14 -2q-9 -122 -63 -196q-52 -76 -199 -76q-139 0 -192.5 69t-53.5 203l15 2q21 -86 72 -125.5t159 -39.5q106 0 161.5 39.5
t86.5 125.5z" />
    <glyph glyph-name="gbreve" unicode="&#x11f;" horiz-adv-x="1013" 
d="M332 350q-219 77 -219 312q0 156 103.5 251t283.5 95q117 0 200 -45q213 3 275 51l6 -2q-4 -73 -20.5 -98t-57.5 -25q-58 0 -125 12q76 -85 76 -227q0 -158 -104 -250t-273 -92q-9 0 -45.5 2t-40.5 2q-19 0 -41 -19q-31 -31 -31 -63q0 -58 89 -76q254 -47 354 -72
q213 -53 213 -225q0 -159 -130 -249.5t-362 -90.5q-209 0 -319.5 71t-110.5 193q0 88 70 155.5t221 100.5q-125 34 -125 132q0 93 113 157zM426 39q-101 0 -195 -82q-59 -53 -59 -145q0 -93 92 -152q89 -57 225 -57q166 0 257.5 59.5t91.5 163.5q0 107 -127 154
q-48 18 -152 38q-94 21 -133 21zM707 670q0 276 -213 276q-108 0 -171 -69t-63 -207q0 -279 221 -279q226 0 226 279zM731 1419l12 -2q-9 -276 -254 -276q-150 0 -198 92q-39 74 -39 186l14 2q21 -90 70 -131t153 -41t156.5 40t85.5 130z" />
    <glyph glyph-name="Gdotaccent" unicode="&#x120;" horiz-adv-x="1419" 
d="M1247 25q-78 -9 -184 -27q-141 -25 -258 -25q-322 0 -510 185q-186 183 -186 524q0 339 189 525t540 186q203 0 342 -47q39 -14 53 -28t14 -40q0 -84 -33 -199h-12q-22 96 -53 135q-77 111 -311 111q-269 0 -410 -158.5t-141 -474.5q0 -304 142 -475.5t409 -171.5
q68 0 134 13t89 32q16 16 16 82v166q0 160 -22 199q-28 42 -127 63v10h420v-10q-75 -29 -91 -59q-24 -40 -24 -199v-137q0 -125 14 -180zM782 1503q-55 -6 -78.5 43.5t0 98.5t80.5 43q55 6 78.5 -43.5t0 -98.5t-80.5 -43z" />
    <glyph glyph-name="gdotaccent" unicode="&#x121;" horiz-adv-x="1013" 
d="M332 350q-219 77 -219 312q0 156 103.5 251t283.5 95q117 0 200 -45q213 3 275 51l6 -2q-4 -73 -20.5 -98t-57.5 -25q-58 0 -125 12q76 -85 76 -227q0 -158 -104 -250t-273 -92q-9 0 -45.5 2t-40.5 2q-19 0 -41 -19q-31 -31 -31 -63q0 -58 89 -76q254 -47 354 -72
q213 -53 213 -225q0 -159 -130 -249.5t-362 -90.5q-209 0 -319.5 71t-110.5 193q0 88 70 155.5t221 100.5q-125 34 -125 132q0 93 113 157zM426 39q-101 0 -195 -82q-59 -53 -59 -145q0 -93 92 -152q89 -57 225 -57q166 0 257.5 59.5t91.5 163.5q0 107 -127 154
q-48 18 -152 38q-94 21 -133 21zM707 670q0 276 -213 276q-108 0 -171 -69t-63 -207q0 -279 221 -279q226 0 226 279zM485 1200q-55 -6 -78.5 43t0 98t80.5 43q54 6 77 -43t0 -98t-79 -43z" />
    <glyph glyph-name="Gcommaaccent" unicode="&#x122;" horiz-adv-x="1419" 
d="M1247 25q-78 -9 -184 -27q-141 -25 -258 -25q-322 0 -510 185q-186 183 -186 524q0 339 189 525t540 186q203 0 342 -47q39 -14 53 -28t14 -40q0 -84 -33 -199h-12q-22 96 -53 135q-77 111 -311 111q-269 0 -410 -158.5t-141 -474.5q0 -304 142 -475.5t409 -171.5
q68 0 134 13t89 32q16 16 16 82v166q0 160 -22 199q-28 42 -127 63v10h420v-10q-75 -29 -91 -59q-24 -40 -24 -199v-137q0 -125 14 -180zM621 -518l-9 14q144 99 144 193q0 40 -37 61q-49 27 -49 76q0 33 24 55.5t62 22.5q54 0 82 -34t28 -97q0 -81 -66 -159t-179 -132z" />
    <glyph glyph-name="gcommaaccent" unicode="&#x123;" horiz-adv-x="1013" 
d="M332 350q-219 77 -219 312q0 156 103.5 251t283.5 95q117 0 200 -45q213 3 275 51l6 -2q-4 -73 -20.5 -98t-57.5 -25q-58 0 -125 12q76 -85 76 -227q0 -158 -104 -250t-273 -92q-9 0 -45.5 2t-40.5 2q-19 0 -41 -19q-31 -31 -31 -63q0 -58 89 -76q254 -47 354 -72
q213 -53 213 -225q0 -159 -130 -249.5t-362 -90.5q-209 0 -319.5 71t-110.5 193q0 88 70 155.5t221 100.5q-125 34 -125 132q0 93 113 157zM426 39q-101 0 -195 -82q-59 -53 -59 -145q0 -93 92 -152q89 -57 225 -57q166 0 257.5 59.5t91.5 163.5q0 107 -127 154
q-48 18 -152 38q-94 21 -133 21zM707 670q0 276 -213 276q-108 0 -171 -69t-63 -207q0 -279 221 -279q226 0 226 279zM637 1559l16 -29q-149 -101 -149 -184q0 -39 37 -60q51 -34 51 -76q0 -36 -24 -59t-62 -23q-54 0 -83.5 35.5t-29.5 98.5q0 78 65.5 157.5t178.5 139.5z
" />
    <glyph glyph-name="Hcircumflex" unicode="&#x124;" horiz-adv-x="1542" 
d="M559 10v-10h-436v10q92 21 117 64q22 39 22 190v844q0 152 -22 188q-25 39 -117 60v10h436v-10q-92 -20 -115 -58q-26 -39 -26 -188v-365h706v363q0 152 -22 188q-28 39 -117 60v10h434v-10q-91 -22 -114 -58q-25 -36 -25 -188v-848q0 -148 25 -190q24 -38 114 -62v-10
h-434v10q92 21 117 64q22 39 22 190v416h-706v-418q0 -148 26 -190q21 -38 115 -62zM842 1729l225 -256l-8 -11l-291 172l-281 -172l-8 11l226 256q34 40 71 40q32 0 66 -40z" />
    <glyph glyph-name="hcircumflex" unicode="&#x125;" horiz-adv-x="1230" 
d="M485 8v-8h-387v8q78 24 99 62q22 39 22 180v893q0 141 -16 184q-25 66 -105 78v10q130 31 221 31q27 0 36.5 -10.5t9.5 -40.5l-1 -29q-1 -30 -2 -93t-2 -136q-2 -166 -2 -330q48 93 144 147t217 54q213 0 266 -164q23 -74 23 -217v-367q0 -156 26 -192q22 -38 103 -60v-8
h-387v8q68 20 96 62q22 42 22 190v328q0 199 -47 258q-55 67 -172 67q-119 0 -207 -61q-56 -41 -71 -102q-13 -57 -13 -123v-373q0 -148 25 -184q24 -41 102 -62zM416 1726l225 -256l-8 -10l-291 172l-281 -172l-8 10l226 256q35 41 71 41q31 0 66 -41z" />
    <glyph glyph-name="Hbar" unicode="&#x126;" horiz-adv-x="1542" 
d="M559 10v-10h-436v10q92 21 117 64q22 39 22 190v711h-170v78h170v55q0 152 -22 188q-25 39 -117 60v10h436v-10q-92 -20 -115 -58q-26 -39 -26 -188v-57h706v55q0 152 -22 188q-28 39 -117 60v10h434v-10q-91 -22 -114 -58q-25 -36 -25 -188v-57h172v-78h-172v-713
q0 -148 25 -190q24 -38 114 -62v-10h-434v10q92 21 117 64q22 39 22 190v416h-706v-418q0 -148 26 -190q21 -38 115 -62zM418 975v-230h706v230h-706z" />
    <glyph glyph-name="hbar" unicode="&#x127;" horiz-adv-x="1230" 
d="M485 8v-8h-387v8q78 24 99 62q22 39 22 180v893v8h-170v74h168q-3 68 -14 102q-25 66 -105 78v10q130 31 221 31q27 0 36.5 -10.5t9.5 -40.5q0 -1 -0.5 -12t-0.5 -28.5t-0.5 -38.5t-1 -45.5t-0.5 -45.5h269v-74h-271q-2 -86 -2 -344q48 93 144 147t217 54q213 0 266 -164
q23 -74 23 -217v-367q0 -156 26 -192q22 -38 103 -60v-8h-387v8q68 20 96 62q22 42 22 190v328q0 199 -47 258q-55 67 -172 67q-119 0 -207 -61q-56 -41 -71 -102q-13 -57 -13 -123v-373q0 -148 25 -184q24 -41 102 -62z" />
    <glyph glyph-name="Itilde" unicode="&#x128;" horiz-adv-x="679" 
d="M559 10v-10h-436v10q92 21 117 64q22 39 22 190v844q0 150 -22 186q-24 38 -117 62v10h436v-10q-94 -22 -115 -56q-26 -39 -26 -190v-848q0 -148 26 -190q21 -38 115 -62zM618 1720l13 -4q-50 -188 -164 -188q-63 0 -145 39q-75 37 -127 37q-86 0 -134 -97l-12 4
q12 49 31 95q20 45 55 77.5t78 32.5q51 0 147 -45q75 -37 127 -37q84 0 131 86z" />
    <glyph glyph-name="itilde" unicode="&#x129;" horiz-adv-x="591" 
d="M549 1374l12 -4q-11 -43 -29 -88q-14 -37 -49 -68.5t-80 -31.5q-50 0 -137 41q-65 32 -119 32q-84 0 -127 -94l-12 4q14 54 31 97q15 42 49.5 75t75.5 33q57 0 139 -43q71 -39 123 -39q76 0 123 86zM494 8v-8h-388v8q76 25 97 62q22 36 22 172v465q0 135 -18 176
q-28 66 -103 75v11q123 30 224 30q25 0 34 -10.5t9 -42.5q0 -5 -0.5 -24.5t-1.5 -60t-2 -83.5q-2 -98 -2 -207v-327q0 -132 24 -172q26 -42 105 -64z" />
    <glyph glyph-name="Imacron" unicode="&#x12a;" horiz-adv-x="679" 
d="M559 10v-10h-436v10q92 21 117 64q22 39 22 190v844q0 150 -22 186q-24 38 -117 62v10h436v-10q-94 -22 -115 -56q-26 -39 -26 -190v-848q0 -148 26 -190q21 -38 115 -62zM608 1649v-99h-532v99h532z" />
    <glyph glyph-name="imacron" unicode="&#x12b;" horiz-adv-x="591" 
d="M545 1305v-97h-514v97h514zM494 8v-8h-388v8q76 25 97 62q22 36 22 172v465q0 135 -18 176q-28 66 -103 75v11q123 30 224 30q25 0 34 -10.5t9 -42.5q0 -5 -0.5 -24.5t-1.5 -60t-2 -83.5q-2 -98 -2 -207v-327q0 -132 24 -172q26 -42 105 -64z" />
    <glyph glyph-name="Ibreve" unicode="&#x12c;" horiz-adv-x="679" 
d="M559 10v-10h-436v10q92 21 117 64q22 39 22 190v844q0 150 -22 186q-24 38 -117 62v10h436v-10q-94 -22 -115 -56q-26 -39 -26 -190v-848q0 -148 26 -190q21 -38 115 -62zM580 1769l14 -2q-9 -120 -64 -196q-52 -76 -198 -76q-139 0 -192.5 69t-53.5 203l14 2
q21 -86 72.5 -125.5t159.5 -39.5q106 0 161.5 39.5t86.5 125.5z" />
    <glyph glyph-name="ibreve" unicode="&#x12d;" horiz-adv-x="591" 
d="M518 1419l12 -2q-9 -276 -254 -276q-150 0 -198 92q-39 74 -39 186l14 2q21 -90 70 -131t153 -41t156.5 40t85.5 130zM494 8v-8h-388v8q76 25 97 62q22 36 22 172v465q0 135 -18 176q-28 66 -103 75v11q123 30 224 30q25 0 34 -10.5t9 -42.5q0 -5 -0.5 -24.5t-1.5 -60
t-2 -83.5q-2 -98 -2 -207v-327q0 -132 24 -172q26 -42 105 -64z" />
    <glyph glyph-name="Iogonek" unicode="&#x12e;" horiz-adv-x="679" 
d="M416 -336l6 -2v-8q0 -15 -12 -27q-43 -43 -125 -43q-94 0 -144.5 48t-50.5 126q0 159 219 242h-186v10q92 21 117 64q22 39 22 190v844q0 150 -22 186q-24 38 -117 62v10h436v-10q-94 -22 -115 -56q-26 -39 -26 -190v-848q0 -148 26 -190q21 -38 115 -62v-10h-213
q-145 -89 -145 -231q0 -57 32.5 -91t92.5 -34q67 0 90 20z" />
    <glyph glyph-name="iogonek" unicode="&#x12f;" horiz-adv-x="591" 
d="M383 -330l6 -4v-8q0 -11 -12 -23q-38 -41 -121 -41q-90 0 -138 46.5t-48 123.5q0 154 211 236h-175v8q76 25 97 62q22 39 22 176v461q0 135 -18 176q-28 66 -103 75v11q123 30 224 30q25 0 34 -10.5t9 -42.5q0 -5 -0.5 -24.5t-1.5 -60t-2 -83.5q-2 -98 -2 -207v-325
q0 -134 24 -174q26 -46 105 -64v-8h-177q-141 -88 -141 -227q0 -56 31.5 -89.5t89.5 -33.5q60 0 86 20zM276 1225q-44 0 -72 28t-28 74q0 47 28 76t75 29q61 7 86.5 -48.5t-1 -110.5t-88.5 -48z" />
    <glyph glyph-name="Idot" unicode="&#x130;" horiz-adv-x="679" 
d="M559 10v-10h-436v10q92 21 117 64q22 39 22 190v844q0 150 -22 186q-24 38 -117 62v10h436v-10q-94 -22 -115 -56q-26 -39 -26 -190v-848q0 -148 26 -190q21 -38 115 -62zM338 1503q-55 -6 -78.5 43.5t0 98.5t80.5 43q55 6 78.5 -43.5t0 -98.5t-80.5 -43z" />
    <glyph glyph-name="dotlessi" unicode="&#x131;" horiz-adv-x="591" 
d="M494 8v-8h-388v8q76 25 97 62q22 36 22 172v465q0 135 -18 176q-28 66 -103 75v11q123 30 224 30q25 0 34 -10.5t9 -42.5q0 -5 -0.5 -24.5t-1.5 -60t-2 -83.5q-2 -98 -2 -207v-327q0 -132 24 -172q26 -42 105 -64z" />
    <glyph glyph-name="IJ" unicode="&#x132;" horiz-adv-x="1355" 
d="M559 10v-10h-436v10q92 21 117 64q22 39 22 190v844q0 150 -22 186q-24 38 -117 62v10h436v-10q-94 -22 -115 -56q-26 -39 -26 -190v-848q0 -148 26 -190q21 -38 115 -62zM655 -102h15q27 -152 143 -152q84 0 115 66q37 84 37 415v883q0 146 -23 184q-24 38 -129 62v10
h444v-10q-84 -21 -112 -56q-25 -42 -25 -190q0 -158 4 -580q1 -92 2 -173.5t1.5 -119.5t0.5 -42q0 -160 -14 -234q-13 -84 -51 -145q-39 -65 -112 -103.5t-163 -38.5q-68 0 -112 13q-41 12 -41 49q0 72 20 162z" />
    <glyph glyph-name="ij" unicode="&#x133;" horiz-adv-x="1107" 
d="M494 8v-8h-388v8q76 25 97 62q22 39 22 176v461q0 135 -18 176q-28 66 -103 75v11q123 30 224 30q25 0 34 -10.5t9 -42.5q0 -5 -0.5 -24.5t-1.5 -60t-2 -83.5q-2 -98 -2 -207v-325q0 -134 24 -174q26 -46 105 -64zM276 1225q-44 0 -72 28t-28 74q0 47 28 76t75 29
q61 7 86.5 -48.5t-1 -110.5t-88.5 -48zM485 -260h11q27 -133 129 -133q81 0 110 63q35 72 35 387v645q0 134 -18 181q-31 66 -103 75v11q123 30 223 30q25 0 34 -11t9 -42q0 -3 -0.5 -22t-1.5 -59t-2 -83q-2 -100 -2 -211q0 -147 2 -260t2 -256q0 -154 -10 -239
q-9 -79 -49 -142q-74 -133 -250 -133q-68 0 -102 15q-37 15 -37 47q0 56 20 137zM821 1225q-44 0 -72 28t-28 74q0 48 27.5 76.5t74.5 28.5q61 7 86.5 -48.5t-0.5 -110.5t-88 -48z" />
    <glyph glyph-name="Jcircumflex" unicode="&#x134;" horiz-adv-x="675" 
d="M-25 -102h15q27 -152 143 -152q84 0 115 66q37 84 37 415v883q0 146 -23 184q-24 38 -129 62v10h445v-10q-86 -21 -113 -56q-25 -42 -25 -190q0 -158 4 -580q1 -93 2 -173.5t2 -119.5t1 -42q0 -155 -15 -234q-13 -84 -51 -145q-39 -65 -111.5 -103.5t-162.5 -38.5
q-69 0 -113 13q-41 12 -41 49q0 72 20 162zM438 1729l226 -256l-9 -11l-290 172l-281 -172l-8 11l225 256q34 40 72 40q31 0 65 -40z" />
    <glyph glyph-name="jcircumflex" unicode="&#x135;" horiz-adv-x="575" 
d="M-59 -260h10q27 -133 129 -133q81 0 110 63q35 72 35 387v645q0 134 -18 181q-31 66 -103 75v11q123 30 224 30q25 0 34 -11t9 -42q0 -3 -0.5 -22t-1.5 -59t-2 -83q-2 -100 -2 -211q0 -147 2 -260t2 -256q0 -146 -11 -239q-9 -79 -49 -142q-74 -133 -250 -133
q-67 0 -102 15q-37 15 -37 47q0 51 21 137zM350 1427l203 -284l-8 -8l-266 200l-259 -198l-8 6l205 287q33 45 68 45q29 0 65 -48z" />
    <glyph glyph-name="Kcommaaccent" unicode="&#x136;" horiz-adv-x="1333" 
d="M559 10v-10h-436v10q88 21 117 64q22 39 22 190v844q0 152 -22 188t-117 60v10h436v-10q-94 -22 -115 -56q-26 -39 -26 -190v-444q119 113 413 450q99 114 99 166q0 50 -113 74v10h402v-10q-66 -19 -103 -51q-44 -38 -117 -119l-366 -400q281 -395 377 -514
q117 -145 186 -198q43 -35 121 -60v-12q-85 -6 -182 -6q-69 0 -109.5 20t-89.5 80q-155 199 -418 588l-100 -100v-324q0 -146 26 -188q21 -38 115 -62zM561 -518l-8 14q143 98 143 193q0 40 -37 61q-49 27 -49 76q0 33 24 55.5t62 22.5q54 0 82.5 -34t28.5 -97
q0 -81 -66.5 -159t-179.5 -132z" />
    <glyph glyph-name="kcommaaccent" unicode="&#x137;" horiz-adv-x="1089" 
d="M492 8v-8h-390v8q78 24 99 62q22 36 22 190v893q0 137 -18 178q-30 65 -103 74v10q118 31 222 31q27 0 36 -10.5t9 -44.5q0 -3 -0.5 -30.5t-1.5 -85.5t-2 -122q-3 -218 -3 -256v-399q177 153 275 262q92 100 92 141q0 49 -94 70v10h358v-10q-38 -12 -84 -43
q-31 -22 -121 -109l-223 -215q280 -426 406 -536q46 -37 110 -48v-8q-67 -18 -166 -18q-91 0 -153 80q-124 161 -299 444l-101 -88v-166q0 -158 25 -194q27 -41 105 -62zM446 -518l-8 14q144 99 144 193q0 40 -37 61q-49 27 -49 76q0 33 24 55.5t62 22.5q54 0 82 -34t28 -97
q0 -81 -66.5 -159t-179.5 -132z" />
    <glyph glyph-name="kgreenlandic" unicode="&#x138;" horiz-adv-x="1089" 
d="M492 8v-8h-390v8q78 24 99 62q22 39 22 190v447q0 139 -20 178q-30 61 -101 73v9q100 32 222 32q27 0 36 -11t9 -46q0 -10 -0.5 -33.5t-1.5 -68.5t-2 -86q-3 -150 -3 -185v-71q168 148 277 262q92 103 92 141q0 49 -100 70v10h364v-10q-25 -6 -84 -39q-5 -3 -25.5 -21.5
t-27.5 -23.5l-70 -68l-223 -215q280 -429 406 -536q40 -34 110 -52v-8q-60 -14 -170 -14q-90 0 -149 80q-84 111 -299 442l-101 -86v-166q0 -158 25 -194q24 -41 105 -62z" />
    <glyph glyph-name="Lacute" unicode="&#x139;" horiz-adv-x="1095" 
d="M961 0h-838v10q79 21 108 53q31 36 31 179v866q0 150 -24 188q-29 37 -115 60v10h442v-10q-95 -22 -121 -58q-26 -33 -26 -188v-942q0 -58 19 -79t79 -21h223q134 0 181 41q53 44 106 172h12q-5 -113 -16 -220q-4 -41 -14.5 -51t-46.5 -10zM551 1669l-332 -178l-10 12
l262 271q38 41 74 41q30 0 51.5 -19t21.5 -49q0 -44 -67 -78z" />
    <glyph glyph-name="lacute" unicode="&#x13a;" horiz-adv-x="589" 
d="M487 8v-8h-387v8q76 25 97 62q24 40 24 180v907q0 119 -14 162q-21 74 -109 86v10q124 31 230 31q23 0 31 -11t8 -46q0 -6 -1 -38.5t-2 -95t-2 -131.5q-2 -158 -2 -266v-602q0 -148 23 -186q35 -47 104 -62zM467 1702l-332 -178l-10 12l262 270q38 41 74 41
q30 0 52 -18.5t22 -48.5q0 -43 -68 -78z" />
    <glyph glyph-name="Lcommaaccent" unicode="&#x13b;" horiz-adv-x="1095" 
d="M961 0h-838v10q79 21 108 53q31 36 31 179v866q0 150 -24 188q-29 37 -115 60v10h442v-10q-95 -22 -121 -58q-26 -33 -26 -188v-942q0 -58 19 -79t79 -21h223q134 0 181 41q53 44 106 172h12q-5 -113 -16 -220q-4 -41 -14.5 -51t-46.5 -10zM473 -518l-8 14
q143 98 143 193q0 40 -37 61q-49 27 -49 76q0 33 24 55.5t62 22.5q54 0 82.5 -34t28.5 -97q0 -81 -66.5 -159t-179.5 -132z" />
    <glyph glyph-name="lcommaaccent" unicode="&#x13c;" horiz-adv-x="589" 
d="M487 8v-8h-387v8q76 25 97 62q24 40 24 180v907q0 119 -14 162q-21 74 -109 86v10q124 31 230 31q23 0 31 -11t8 -46q0 -6 -1 -38.5t-2 -95t-2 -131.5q-2 -158 -2 -266v-602q0 -148 23 -186q35 -47 104 -62zM145 -518l-8 14q144 99 144 193q0 40 -37 61q-49 27 -49 76
q0 33 24 55.5t62 22.5q54 0 82 -34t28 -97q0 -81 -66.5 -159t-179.5 -132z" />
    <glyph glyph-name="Lcaron" unicode="&#x13d;" horiz-adv-x="1095" 
d="M961 0h-838v10q79 21 108 53q31 36 31 179v866q0 150 -24 188q-29 37 -115 60v10h442v-10q-95 -22 -121 -58q-26 -33 -26 -188v-942q0 -58 19 -79t79 -21h223q134 0 181 41q53 44 106 172h12q-5 -113 -16 -220q-4 -41 -14.5 -51t-46.5 -10zM645 985l-8 12
q143 101 143 195q0 40 -37 61q-49 27 -49 76q0 33 24 55.5t62 22.5q54 0 82.5 -34t28.5 -97q0 -81 -66.5 -159t-179.5 -132z" />
    <glyph glyph-name="lcaron" unicode="&#x13e;" horiz-adv-x="589" 
d="M487 8v-8h-387v8q76 25 97 62q24 40 24 180v907q0 119 -14 162q-21 74 -109 86v10q124 31 230 31q23 0 31 -11t8 -46q0 -6 -1 -38.5t-2 -95t-2 -131.5q-2 -158 -2 -266v-602q0 -148 23 -186q35 -47 104 -62zM483 1030l-8 12q143 101 143 195q0 41 -36 61q-50 27 -50 76
q0 33 24 55.5t62 22.5q54 0 82.5 -34t28.5 -97q0 -81 -66.5 -159t-179.5 -132z" />
    <glyph glyph-name="Ldot" unicode="&#x13f;" horiz-adv-x="1095" 
d="M989 664q0 -48 -30.5 -79.5t-77.5 -31.5q-48 0 -78.5 31t-30.5 80q0 51 30.5 81.5t80.5 30.5q47 0 76.5 -30.5t29.5 -81.5zM961 0h-838v10q79 21 108 53q31 36 31 179v866q0 150 -24 188q-29 37 -115 60v10h442v-10q-95 -22 -121 -58q-26 -33 -26 -188v-942q0 -58 19 -79
t79 -21h223q134 0 181 41q53 44 106 172h12q-5 -113 -16 -220q-4 -41 -14.5 -51t-46.5 -10z" />
    <glyph glyph-name="ldot" unicode="&#x140;" horiz-adv-x="780" 
d="M682 569q-45 0 -74.5 30t-29.5 77q-4 36 16 64t49.5 38.5t62 5.5t52.5 -28q22 -22 27 -56.5t-5.5 -64.5t-37 -50t-60.5 -16zM487 8v-8h-387v8q76 25 97 62q24 40 24 180v907q0 119 -14 162q-21 74 -109 86v10q124 31 230 31q23 0 31 -11t8 -46q0 -6 -1 -38.5t-2 -95
t-2 -131.5q-2 -158 -2 -266v-602q0 -148 23 -186q35 -47 104 -62z" />
    <glyph glyph-name="Lslash" unicode="&#x141;" horiz-adv-x="1095" 
d="M262 553l-174 -109l-41 62l215 135v467q0 150 -24 188q-29 37 -115 60v10h442v-10q-95 -22 -121 -58q-26 -33 -26 -188v-371l332 209l38 -63l-370 -234v-483q0 -58 19 -79t79 -21h223q134 0 181 41q53 44 106 172h12q-5 -113 -16 -220q-4 -41 -14.5 -51t-46.5 -10h-838
v10q79 21 108 53q31 36 31 179v311z" />
    <glyph glyph-name="lslash" unicode="&#x142;" horiz-adv-x="589" 
d="M221 627l-162 -97l-34 62l196 117v448q0 119 -14 162q-21 74 -109 86v10q124 31 230 31q23 0 31 -11t8 -46q0 -6 -1 -38.5t-2 -95t-2 -131.5q-2 -158 -2 -266v-67l166 100l35 -62l-201 -120v-453q0 -148 23 -186q35 -47 104 -62v-8h-387v8q76 25 97 62q24 40 24 180v377z
" />
    <glyph glyph-name="Nacute" unicode="&#x143;" horiz-adv-x="1492" 
d="M500 10v-10h-379v10q91 22 119 70q22 31 22 199q0 227 2 397q2 172 2 385q0 189 -20 225q-26 42 -123 70v10h258q37 0 59 -31q659 -937 746 -1079l-8 838q0 150 -21 188q-27 53 -123 74v10h367v-10q-91 -28 -117 -70q-22 -39 -22 -201v-1099h-82l-842 1220
q10 -570 10 -925q0 -155 23 -199q28 -45 129 -72zM999 1669l-331 -178l-11 12l263 271q38 41 73 41q30 0 52 -19t22 -49q0 -43 -68 -78z" />
    <glyph glyph-name="nacute" unicode="&#x144;" horiz-adv-x="1239" 
d="M494 8v-8h-388v8q73 22 97 62q22 39 22 174v467q0 136 -22 178q-28 60 -99 69v11q123 30 213 30q44 0 50 -36q2 -16 2 -154q41 92 137 145.5t219 53.5q219 0 268 -168q21 -64 21 -215v-375q0 -145 26 -184q20 -33 105 -58v-8h-387v8q70 21 94 62q22 42 22 178v332
q0 208 -49 266q-55 67 -170 67q-116 0 -204 -61q-57 -42 -72 -102q-14 -43 -14 -119v-385q0 -138 24 -176q24 -41 105 -62zM829 1382l-278 -245l-10 10l188 319q38 60 76 60q30 0 51 -17.5t21 -46.5q0 -38 -48 -80z" />
    <glyph glyph-name="Ncommaaccent" unicode="&#x145;" horiz-adv-x="1492" 
d="M500 10v-10h-379v10q91 22 119 70q22 31 22 199q0 227 2 397q2 172 2 385q0 189 -20 225q-26 42 -123 70v10h258q37 0 59 -31q659 -937 746 -1079l-8 838q0 150 -21 188q-27 53 -123 74v10h367v-10q-91 -28 -117 -70q-22 -39 -22 -201v-1099h-82l-842 1220
q10 -570 10 -925q0 -155 23 -199q28 -45 129 -72zM612 -518l-8 14q144 99 144 193q0 40 -37 61q-49 27 -49 76q0 33 24 55.5t62 22.5q54 0 82 -34t28 -97q0 -81 -66.5 -159t-179.5 -132z" />
    <glyph glyph-name="ncommaaccent" unicode="&#x146;" horiz-adv-x="1239" 
d="M494 8v-8h-388v8q73 22 97 62q22 39 22 174v467q0 136 -22 178q-28 60 -99 69v11q123 30 213 30q44 0 50 -36q2 -16 2 -154q41 92 137 145.5t219 53.5q219 0 268 -168q21 -64 21 -215v-375q0 -145 26 -184q20 -33 105 -58v-8h-387v8q70 21 94 62q22 42 22 178v332
q0 208 -49 266q-55 67 -170 67q-116 0 -204 -61q-57 -42 -72 -102q-14 -43 -14 -119v-385q0 -138 24 -176q24 -41 105 -62zM475 -518l-8 14q143 98 143 193q0 40 -37 61q-49 27 -49 76q0 33 24 55.5t62 22.5q54 0 82.5 -34t28.5 -97q0 -81 -66.5 -159t-179.5 -132z" />
    <glyph glyph-name="Ncaron" unicode="&#x147;" horiz-adv-x="1492" 
d="M500 10v-10h-379v10q91 22 119 70q22 31 22 199q0 227 2 397q2 172 2 385q0 189 -20 225q-26 42 -123 70v10h258q37 0 59 -31q659 -937 746 -1079l-8 838q0 150 -21 188q-27 53 -123 74v10h367v-10q-91 -28 -117 -70q-22 -39 -22 -201v-1099h-82l-842 1220
q10 -570 10 -925q0 -155 23 -199q28 -45 129 -72zM692 1524l-223 256l8 10l289 -172l283 172l8 -10l-228 -258q-37 -39 -69.5 -39t-67.5 41z" />
    <glyph glyph-name="ncaron" unicode="&#x148;" horiz-adv-x="1239" 
d="M494 8v-8h-388v8q73 22 97 62q22 39 22 174v467q0 136 -22 178q-28 60 -99 69v11q123 30 213 30q44 0 50 -36q2 -16 2 -154q41 92 137 145.5t219 53.5q219 0 268 -168q21 -64 21 -215v-375q0 -145 26 -184q20 -33 105 -58v-8h-387v8q70 21 94 62q22 42 22 178v332
q0 208 -49 266q-55 67 -170 67q-116 0 -204 -61q-57 -42 -72 -102q-14 -43 -14 -119v-385q0 -138 24 -176q24 -41 105 -62zM547 1184l-203 284l8 9l266 -199l259 199l8 -9l-205 -286q-30 -43 -68 -43q-36 0 -65 45z" />
    <glyph glyph-name="napostrophe" unicode="&#x149;" horiz-adv-x="1239" 
d="M494 8v-8h-388v8q73 22 97 62q22 39 22 174v467q0 136 -22 178q-28 60 -99 69v11q123 30 213 30q44 0 50 -36q2 -16 2 -154q41 92 137 145.5t219 53.5q219 0 268 -168q21 -64 21 -215v-375q0 -145 26 -184q20 -33 105 -58v-8h-387v8q70 21 94 62q22 42 22 178v332
q0 208 -49 266q-55 67 -170 67q-116 0 -204 -61q-57 -42 -72 -102q-14 -43 -14 -119v-385q0 -138 24 -176q24 -41 105 -62zM109 1104l-9 14q144 99 144 193q0 40 -37 61q-49 27 -49 76q0 33 24 55.5t62 22.5q54 0 82 -34t28 -97q0 -81 -66 -159t-179 -132z" />
    <glyph glyph-name="Eng" unicode="&#x14a;" horiz-adv-x="1492" 
d="M500 10v-10h-381v10q93 21 121 70q22 31 22 199q4 738 4 782q0 189 -20 225q-21 43 -123 70v10h260q35 0 53 -27q617 -874 746 -1077q0 205 -6 832q0 160 -19 192q-29 50 -125 70v10h369v-10q-91 -25 -117 -70q-22 -49 -22 -201v-1040q0 -145 -11 -238q-9 -79 -43 -139
q-32 -60 -99.5 -94.5t-152.5 -34.5q-65 0 -98 10q-41 12 -41 50q0 46 19 163h12q12 -71 51.5 -111t95.5 -40q80 0 123 61q47 62 47 252v82l-827 1200l10 -925q3 -173 23 -199q28 -45 129 -72z" />
    <glyph glyph-name="eng" unicode="&#x14b;" horiz-adv-x="1239" 
d="M494 8v-8h-388v8q73 22 97 62q22 39 22 174v467q0 129 -22 178q-26 60 -99 69v11q123 30 213 30q44 0 50 -36q2 -16 2 -154q42 93 139.5 146t220.5 53q215 0 264 -168q21 -64 21 -232v-555q0 -154 -10 -246q-8 -76 -46 -143q-32 -62 -101.5 -98.5t-156.5 -36.5
q-55 0 -96 14q-39 12 -39 51q0 56 19 134h12q21 -131 135 -131q77 0 111 67q32 65 32 381v530q0 207 -49 271q-52 67 -170 67q-134 0 -211 -65q-52 -40 -67 -98q-12 -44 -12 -125v-379q0 -138 24 -176q24 -41 105 -62z" />
    <glyph glyph-name="Omacron" unicode="&#x14c;" horiz-adv-x="1472" 
d="M1362 700q0 -348 -165 -537.5t-462 -189.5q-294 0 -459 178.5t-165 518.5q0 146 33.5 266.5t92 204.5t139 141.5t173 84t196.5 26.5q297 0 457 -178.5t160 -514.5zM1192 676q0 365 -137 514q-120 137 -310 137q-52 0 -101 -11t-103 -36.5t-98 -73.5t-80 -115t-56 -169.5
t-20 -229.5q0 -329 118 -491t332 -162q210 0 332.5 163.5t122.5 473.5zM1016 1649v-99h-533v99h533z" />
    <glyph glyph-name="omacron" unicode="&#x14d;" horiz-adv-x="1132" 
d="M1034 504q0 -253 -123.5 -392t-345.5 -139q-220 0 -343.5 128.5t-123.5 379.5q0 259 138 391q139 136 348 136q221 0 335.5 -128t114.5 -376zM881 487q0 459 -303 459q-45 0 -87.5 -11.5t-86.5 -42.5t-76.5 -79.5t-53 -129.5t-20.5 -185q0 -231 84.5 -347t230.5 -116
t229 115t83 337zM831 1305v-97h-514v97h514z" />
    <glyph glyph-name="Obreve" unicode="&#x14e;" horiz-adv-x="1472" 
d="M1362 700q0 -348 -165 -537.5t-462 -189.5q-294 0 -459 178.5t-165 518.5q0 146 33.5 266.5t92 204.5t139 141.5t173 84t196.5 26.5q297 0 457 -178.5t160 -514.5zM1192 676q0 365 -137 514q-120 137 -310 137q-52 0 -101 -11t-103 -36.5t-98 -73.5t-80 -115t-56 -169.5
t-20 -229.5q0 -329 118 -491t332 -162q210 0 332.5 163.5t122.5 473.5zM981 1769l14 -2q-9 -122 -63 -196q-52 -76 -199 -76q-139 0 -192.5 69t-53.5 203l15 2q21 -86 72 -125.5t159 -39.5q106 0 161.5 39.5t86.5 125.5z" />
    <glyph glyph-name="obreve" unicode="&#x14f;" horiz-adv-x="1132" 
d="M1034 504q0 -253 -123.5 -392t-345.5 -139q-220 0 -343.5 128.5t-123.5 379.5q0 259 138 391q139 136 348 136q221 0 335.5 -128t114.5 -376zM881 487q0 459 -303 459q-45 0 -87.5 -11.5t-86.5 -42.5t-76.5 -79.5t-53 -129.5t-20.5 -185q0 -231 84.5 -347t230.5 -116
t229 115t83 337zM805 1419l12 -2q-9 -276 -254 -276q-150 0 -198 92q-39 74 -39 186l14 2q21 -90 70 -131t153 -41t156.5 40t85.5 130z" />
    <glyph glyph-name="Ohungarumlaut" unicode="&#x150;" horiz-adv-x="1472" 
d="M1362 700q0 -348 -165 -537.5t-462 -189.5q-294 0 -459 178.5t-165 518.5q0 146 33.5 266.5t92 204.5t139 141.5t173 84t196.5 26.5q297 0 457 -178.5t160 -514.5zM1192 676q0 365 -137 514q-120 137 -310 137q-52 0 -101 -11t-103 -36.5t-98 -73.5t-80 -115t-56 -169.5
t-20 -229.5q0 -329 118 -491t332 -162q210 0 332.5 163.5t122.5 473.5zM825 1665l-321 -174l-10 12l254 264q41 41 75 41q31 0 50.5 -15.5t19.5 -45.5q0 -44 -68 -82zM1163 1665l-323 -174l-9 12l254 264q38 41 74 41q31 0 50.5 -15.5t19.5 -45.5q0 -47 -66 -82z" />
    <glyph glyph-name="ohungarumlaut" unicode="&#x151;" horiz-adv-x="1132" 
d="M1034 504q0 -253 -123.5 -392t-345.5 -139q-220 0 -343.5 128.5t-123.5 379.5q0 259 138 391q139 136 348 136q221 0 335.5 -128t114.5 -376zM881 487q0 459 -303 459q-45 0 -87.5 -11.5t-86.5 -42.5t-76.5 -79.5t-53 -129.5t-20.5 -185q0 -231 84.5 -347t230.5 -116
t229 115t83 337zM651 1378l-260 -241l-10 10l172 313q34 58 80 58q26 0 45.5 -17.5t19.5 -42.5q0 -36 -47 -80zM932 1378l-262 -241l-11 10l175 311q35 60 77 60q26 0 46 -17.5t20 -42.5q0 -41 -45 -80z" />
    <glyph glyph-name="OE" unicode="&#x152;" horiz-adv-x="1869" 
d="M1788 281h12q0 -112 -12 -211q-4 -44 -17.5 -57t-52.5 -13h-551q-88 0 -221 -8t-225 -8q-610 0 -610 694q0 343 178 524q182 182 483 182q54 0 201 -10q117 -8 207 -8h497q31 0 43.5 -11.5t12.5 -37.5q0 -55 -19 -207h-12q-29 94 -52.5 130.5t-60.5 47.5q-37 12 -137 12
h-217q-32 0 -43.5 -14t-11.5 -51v-490h168q76 0 155 11q50 10 72 35t41 92h14v-338h-14q-12 62 -39 90.5t-88 38.5q-40 6 -139 6h-170v-512q0 -59 18 -79.5t78 -20.5h231q123 0 174 45q58 52 107 168zM1022 221v942q0 82 -25 107q-55 49 -223 49q-232 0 -358.5 -165.5
t-126.5 -461.5q0 -309 112 -475.5t340 -167.5q195 0 248 47q33 26 33 125z" />
    <glyph glyph-name="oe" unicode="&#x153;" horiz-adv-x="1763" 
d="M950 197q-111 -224 -387 -224q-217 0 -341 129t-124 379q0 259 138 391q139 136 348 136q274 0 377 -222q109 222 370 222q177 0 268 -97.5t91 -273.5q0 -70 -9 -85t-57 -15h-592v-33q0 -235 103 -338q101 -98 251 -98q173 0 293 102l7 -4v-10q0 -15 -11 -33
q-33 -62 -121.5 -106t-210.5 -44q-291 0 -393 224zM881 494q0 230 -79.5 341t-221.5 111q-47 0 -90 -11.5t-87 -43t-76 -80t-52.5 -129t-20.5 -184.5q0 -231 85 -347t230 -116q147 0 229.5 115.5t82.5 343.5zM1036 598h502q4 46 4 55q0 139 -55.5 217t-165.5 78
q-126 0 -202.5 -96.5t-82.5 -253.5z" />
    <glyph glyph-name="Racute" unicode="&#x154;" horiz-adv-x="1327" 
d="M561 10v-10h-438v10q93 24 117 62q22 39 22 190v850q0 148 -22 184q-26 38 -117 60v10h424q180 0 289 -33q110 -31 168.5 -117.5t58.5 -214.5q0 -134 -73.5 -226.5t-209.5 -135.5q24 -11 43.5 -30.5t48.5 -61.5q6 -9 17.5 -25t20 -29t14.5 -24l75 -121l95 -149
q110 -172 229 -187v-10q-85 -10 -139 -10q-120 0 -162 39q-56 53 -137 194l-185 320q-26 37 -55.5 50t-83.5 13h-143v-348q0 -156 26 -192q25 -31 117 -58zM418 1227v-555h119q133 0 198 30q156 68 156 295q0 189 -109 254q-82 49 -233 49h-64q-41 0 -54 -14.5t-13 -58.5z
M852 1669l-332 -178l-10 12l262 271q38 41 74 41q30 0 52 -19t22 -49q0 -43 -68 -78z" />
    <glyph glyph-name="racute" unicode="&#x155;" horiz-adv-x="815" 
d="M526 8v-8h-420v8q76 25 97 62q22 36 22 176v463q0 129 -20 176q-27 63 -101 73v11q120 30 213 30q26 0 36.5 -8.5t11.5 -32.5q4 -28 4 -163q30 95 107.5 154t176.5 59q47 0 80 -13q37 -12 37 -47q0 -50 -35 -153h-10q-30 104 -139 104q-61 0 -115.5 -37.5t-79.5 -93.5
q-26 -59 -26 -176v-344q0 -134 30 -178q28 -38 131 -62zM674 1382l-279 -245l-10 10l188 319q38 60 76 60q30 0 51 -17.5t21 -46.5q0 -39 -47 -80z" />
    <glyph glyph-name="Rcommaaccent" unicode="&#x156;" horiz-adv-x="1327" 
d="M561 10v-10h-438v10q93 24 117 62q22 39 22 190v850q0 148 -22 184q-26 38 -117 60v10h424q180 0 289 -33q110 -31 168.5 -117.5t58.5 -214.5q0 -134 -73.5 -226.5t-209.5 -135.5q24 -11 43.5 -30.5t48.5 -61.5q6 -9 17.5 -25t20 -29t14.5 -24l75 -121l95 -149
q110 -172 229 -187v-10q-85 -10 -139 -10q-120 0 -162 39q-56 53 -137 194l-185 320q-26 37 -55.5 50t-83.5 13h-143v-348q0 -156 26 -192q25 -31 117 -58zM418 1227v-555h119q133 0 198 30q156 68 156 295q0 189 -109 254q-82 49 -233 49h-64q-41 0 -54 -14.5t-13 -58.5z
M569 -518l-8 14q144 99 144 193q0 40 -37 61q-50 27 -50 76q0 33 24.5 55.5t62.5 22.5q54 0 82 -34t28 -97q0 -81 -66.5 -159t-179.5 -132z" />
    <glyph glyph-name="rcommaaccent" unicode="&#x157;" horiz-adv-x="815" 
d="M526 8v-8h-420v8q76 25 97 62q22 36 22 176v463q0 129 -20 176q-27 63 -101 73v11q120 30 213 30q26 0 36.5 -8.5t11.5 -32.5q4 -28 4 -163q30 95 107.5 154t176.5 59q47 0 80 -13q37 -12 37 -47q0 -50 -35 -153h-10q-30 104 -139 104q-61 0 -115.5 -37.5t-79.5 -93.5
q-26 -59 -26 -176v-344q0 -134 30 -178q28 -38 131 -62zM162 -518l-8 14q143 98 143 193q0 40 -37 61q-49 27 -49 76q0 33 24 55.5t62 22.5q54 0 82.5 -34t28.5 -97q0 -81 -66.5 -159t-179.5 -132z" />
    <glyph glyph-name="Rcaron" unicode="&#x158;" horiz-adv-x="1327" 
d="M561 10v-10h-438v10q93 24 117 62q22 39 22 190v850q0 148 -22 184q-26 38 -117 60v10h424q180 0 289 -33q110 -31 168.5 -117.5t58.5 -214.5q0 -134 -73.5 -226.5t-209.5 -135.5q24 -11 43.5 -30.5t48.5 -61.5q6 -9 17.5 -25t20 -29t14.5 -24l75 -121l95 -149
q110 -172 229 -187v-10q-85 -10 -139 -10q-120 0 -162 39q-56 53 -137 194l-185 320q-26 37 -55.5 50t-83.5 13h-143v-348q0 -156 26 -192q25 -31 117 -58zM418 1227v-555h119q133 0 198 30q156 68 156 295q0 189 -109 254q-82 49 -233 49h-64q-41 0 -54 -14.5t-13 -58.5z
M518 1524l-223 256l8 10l289 -172l282 172l9 -10l-228 -258q-37 -39 -69.5 -39t-67.5 41z" />
    <glyph glyph-name="rcaron" unicode="&#x159;" horiz-adv-x="815" 
d="M526 8v-8h-420v8q76 25 97 62q22 36 22 176v463q0 129 -20 176q-27 63 -101 73v11q120 30 213 30q26 0 36.5 -8.5t11.5 -32.5q4 -28 4 -163q30 95 107.5 154t176.5 59q47 0 80 -13q37 -12 37 -47q0 -50 -35 -153h-10q-30 104 -139 104q-61 0 -115.5 -37.5t-79.5 -93.5
q-26 -59 -26 -176v-344q0 -134 30 -178q28 -38 131 -62zM375 1184l-203 284l8 9l266 -199l259 199l8 -9l-205 -286q-30 -43 -68 -43q-36 0 -65 45z" />
    <glyph glyph-name="Sacute" unicode="&#x15a;" horiz-adv-x="1060" 
d="M137 293h15q24 -106 108 -178q94 -76 242 -76q149 0 227 78q76 76 76 178q0 101 -60 170q-59 71 -243 158l-101 47q-254 120 -254 358q0 149 115 258q116 107 348 107q147 0 238 -31q38 -13 50.5 -26t12.5 -38q0 -43 -28 -180h-13q-35 114 -88 156q-65 53 -198 53
q-140 0 -219.5 -69.5t-79.5 -184.5q0 -87 49 -151q52 -64 207 -140l96 -45q171 -82 239 -170.5t68 -208.5q0 -174 -121.5 -279.5t-337.5 -105.5q-187 0 -299 62q-63 37 -63 82q0 84 14 176zM791 1669l-332 -178l-10 12l262 271q38 41 73 41q30 0 52 -19t22 -49
q0 -44 -67 -78z" />
    <glyph glyph-name="sacute" unicode="&#x15b;" horiz-adv-x="841" 
d="M119 242h10q34 -107 113 -162q67 -43 170 -43q96 0 153.5 50t57.5 122q0 69 -48 117q-45 45 -190 110l-66 31q-200 92 -200 260q0 126 94.5 203.5t282.5 77.5q113 0 192 -29q37 -15 37 -49q0 -47 -25 -156h-12q-21 96 -86 137q-44 33 -137 33q-109 0 -167 -44.5
t-58 -123.5q0 -67 44 -112t162 -99l66 -30q143 -64 190 -129q48 -63 48 -150q0 -123 -93.5 -203t-261.5 -80q-134 0 -237 47q-54 28 -54 80q0 80 15 142zM653 1382l-278 -245l-10 10l188 319q38 60 76 60q30 0 50.5 -17.5t20.5 -46.5q0 -39 -47 -80z" />
    <glyph glyph-name="Scircumflex" unicode="&#x15c;" horiz-adv-x="1060" 
d="M137 293h15q24 -106 108 -178q94 -76 242 -76q149 0 227 78q76 76 76 178q0 101 -60 170q-59 71 -243 158l-101 47q-254 120 -254 358q0 149 115 258q116 107 348 107q147 0 238 -31q38 -13 50.5 -26t12.5 -38q0 -43 -28 -180h-13q-35 114 -88 156q-65 53 -198 53
q-140 0 -219.5 -69.5t-79.5 -184.5q0 -87 49 -151q52 -64 207 -140l96 -45q171 -82 239 -170.5t68 -208.5q0 -174 -121.5 -279.5t-337.5 -105.5q-187 0 -299 62q-63 37 -63 82q0 84 14 176zM618 1729l226 -256l-8 -11l-291 172l-281 -172l-8 11l225 256q34 40 72 40
q31 0 65 -40z" />
    <glyph glyph-name="scircumflex" unicode="&#x15d;" horiz-adv-x="841" 
d="M119 242h10q34 -107 113 -162q67 -43 170 -43q96 0 153.5 50t57.5 122q0 69 -48 117q-45 45 -190 110l-66 31q-200 92 -200 260q0 126 94.5 203.5t282.5 77.5q113 0 192 -29q37 -15 37 -49q0 -47 -25 -156h-12q-21 96 -86 137q-44 33 -137 33q-109 0 -167 -44.5
t-58 -123.5q0 -67 44 -112t162 -99l66 -30q143 -64 190 -129q48 -63 48 -150q0 -123 -93.5 -203t-261.5 -80q-134 0 -237 47q-54 28 -54 80q0 80 15 142zM510 1427l203 -284l-8 -8l-267 200l-258 -198l-8 6l205 287q33 45 67 45q30 0 66 -48z" />
    <glyph glyph-name="Scedilla" unicode="&#x15e;" horiz-adv-x="1060" 
d="M352 -395v8l6 2q33 -23 93 -23q56 0 90 29.5t34 79.5q0 104 -116 104q-11 0 -39 -4l-10 9l61 163q-182 3 -285 62q-63 37 -63 82q0 84 14 176h15q24 -106 108 -178q94 -76 242 -76q149 0 227 78q76 76 76 178q0 101 -60 170q-59 71 -243 158l-101 47q-254 120 -254 358
q0 149 115 258q116 107 348 107q147 0 238 -31q38 -13 50.5 -26t12.5 -38q0 -43 -28 -180h-13q-35 114 -88 156q-65 53 -198 53q-140 0 -219.5 -69.5t-79.5 -184.5q0 -87 49 -151q52 -64 207 -140l96 -45q171 -82 239 -170.5t68 -208.5q0 -165 -113.5 -271.5t-312.5 -113.5
l-33 -98q100 0 149.5 -45t49.5 -121q0 -79 -57 -126.5t-150 -47.5q-90 0 -117 41q-8 11 -8 29z" />
    <glyph glyph-name="scedilla" unicode="&#x15f;" horiz-adv-x="841" 
d="M258 -383v8l6 2q24 -24 88 -24q54 0 86.5 28.5t32.5 77.5q0 103 -109 103q-25 0 -40 -5l-9 9l58 157q-126 6 -213 47q-54 28 -54 80q0 80 15 142h10q34 -107 113 -162q67 -43 170 -43q96 0 153.5 50t57.5 122q0 69 -48 117q-45 45 -190 110l-66 31q-200 92 -200 260
q0 126 94.5 203.5t282.5 77.5q113 0 192 -29q37 -15 37 -49q0 -47 -25 -156h-12q-21 96 -86 137q-44 33 -137 33q-109 0 -167 -44.5t-58 -123.5q0 -67 44 -112t162 -99l66 -30q143 -64 190 -129q48 -63 48 -150q0 -120 -87 -198.5t-247 -84.5l-31 -94q94 0 143.5 -44.5
t49.5 -115.5q0 -77 -54.5 -123.5t-142.5 -46.5q-95 0 -115 39q-8 11 -8 29z" />
    <glyph glyph-name="Scaron" unicode="&#x160;" horiz-adv-x="1060" 
d="M137 293h15q24 -106 108 -178q94 -76 242 -76q149 0 227 78q76 76 76 178q0 101 -60 170q-59 71 -243 158l-101 47q-254 120 -254 358q0 149 115 258q116 107 348 107q147 0 238 -31q38 -13 50.5 -26t12.5 -38q0 -43 -28 -180h-13q-35 114 -88 156q-65 53 -198 53
q-140 0 -219.5 -69.5t-79.5 -184.5q0 -87 49 -151q52 -64 207 -140l96 -45q171 -82 239 -170.5t68 -208.5q0 -174 -121.5 -279.5t-337.5 -105.5q-187 0 -299 62q-63 37 -63 82q0 84 14 176zM479 1524l-223 256l8 10l289 -172l283 172l8 -10l-228 -258q-37 -39 -69.5 -39
t-67.5 41z" />
    <glyph glyph-name="scaron" unicode="&#x161;" horiz-adv-x="841" 
d="M119 242h10q34 -107 113 -162q67 -43 170 -43q96 0 153.5 50t57.5 122q0 69 -48 117q-45 45 -190 110l-66 31q-200 92 -200 260q0 126 94.5 203.5t282.5 77.5q113 0 192 -29q37 -15 37 -49q0 -47 -25 -156h-12q-21 96 -86 137q-44 33 -137 33q-109 0 -167 -44.5
t-58 -123.5q0 -67 44 -112t162 -99l66 -30q143 -64 190 -129q48 -63 48 -150q0 -123 -93.5 -203t-261.5 -80q-134 0 -237 47q-54 28 -54 80q0 80 15 142zM379 1184l-203 284l8 9l267 -199l258 199l8 -9l-205 -286q-30 -43 -68 -43q-36 0 -65 45z" />
    <glyph glyph-name="uni0162" unicode="&#x162;" horiz-adv-x="1202" 
d="M436 -395v8l6 2q33 -23 93 -23q56 0 90 29.5t34 79.5q0 104 -116 104q-11 0 -39 -4l-10 9l69 190h-192v10q90 21 116 64q23 41 23 190v975q0 35 -11.5 48t-43.5 13h-123q-87 0 -139 -10q-44 -11 -75 -53.5t-63 -138.5h-10q-10 163 -10 223q0 28 7.5 36.5t35.5 8.5h1020
q30 0 37.5 -8t7.5 -35q0 -92 -10 -225h-11q-25 98 -57 139.5t-82 52.5q-68 10 -141 10h-115q-35 0 -47 -12.5t-12 -48.5v-975q0 -158 24 -192q24 -41 117 -62v-10h-199l-41 -125q100 0 149.5 -45t49.5 -121q0 -79 -57 -126.5t-150 -47.5q-90 0 -117 41q-8 11 -8 29z" />
    <glyph glyph-name="uni0163" unicode="&#x163;" horiz-adv-x="649" 
d="M238 -383v8l6 2q24 -24 88 -24q54 0 86.5 28.5t32.5 77.5q0 103 -109 103q-26 0 -41 -5l-8 9l61 172q-113 27 -131 155q-6 41 -6 148v616h-151v31q114 27 165 78q54 54 105 219h20v-254h226v-74h-226v-620q0 -83 9 -129q18 -103 129 -103q65 0 139 39l4 -8
q-82 -104 -219 -104h-19l-34 -103q94 0 143 -44.5t49 -115.5q0 -77 -54.5 -123.5t-142.5 -46.5q-94 0 -114 39q-8 11 -8 29z" />
    <glyph glyph-name="Tcaron" unicode="&#x164;" horiz-adv-x="1202" 
d="M809 10v-10h-438v10q90 21 116 64q23 41 23 190v975q0 35 -11.5 48t-43.5 13h-123q-87 0 -139 -10q-44 -11 -75 -53.5t-63 -138.5h-10q-10 163 -10 223q0 28 7.5 36.5t35.5 8.5h1020q30 0 37.5 -8t7.5 -35q0 -92 -10 -225h-11q-25 98 -57 139.5t-82 52.5q-68 10 -141 10
h-115q-35 0 -47 -12.5t-12 -48.5v-975q0 -158 24 -192q24 -41 117 -62zM516 1524l-223 256l8 10l289 -172l282 172l9 -10l-228 -258q-37 -39 -69.5 -39t-67.5 41z" />
    <glyph glyph-name="tcaron" unicode="&#x165;" horiz-adv-x="649" 
d="M633 94l4 -8q-82 -104 -219 -104q-174 0 -195 161q-6 41 -6 148v616h-151v31q114 27 165 78q54 54 105 219h20v-254h226v-74h-226v-620q0 -83 9 -129q18 -103 129 -103q65 0 139 39zM479 1087l-8 13q143 101 143 194q0 42 -36 62q-50 27 -50 76q0 33 24 55t62 22
q54 0 82.5 -34t28.5 -97q0 -81 -66.5 -159t-179.5 -132z" />
    <glyph glyph-name="Tbar" unicode="&#x166;" horiz-adv-x="1202" 
d="M821 10v-10h-438v10q92 21 117 64q22 39 22 190v445h-319v75h319v455q0 35 -11.5 48t-43.5 13h-123q-87 0 -139 -10q-44 -11 -74.5 -53t-62.5 -139h-11q-10 163 -10 223q0 28 7.5 36.5t35.5 8.5h1020q30 0 37.5 -8t7.5 -35q0 -92 -10 -225h-10q-25 98 -57.5 139.5
t-82.5 52.5q-68 10 -141 10h-115q-35 0 -47 -12.5t-12 -48.5v-455h338v-75h-338v-445q0 -156 25 -192q24 -41 116 -62z" />
    <glyph glyph-name="tbar" unicode="&#x167;" horiz-adv-x="649" 
d="M633 94l4 -8q-82 -104 -219 -104q-174 0 -195 161q-6 41 -6 148v297h-141v71h141v248h-151v31q114 27 165 78q54 54 105 219h20v-254h226v-74h-226v-248h215v-71h-215v-301q0 -83 9 -129q18 -103 129 -103q65 0 139 39z" />
    <glyph glyph-name="Utilde" unicode="&#x168;" horiz-adv-x="1495" 
d="M106 1356v10h437v-10q-95 -24 -119 -68q-23 -44 -23 -145v-596q0 -210 41 -316q73 -186 336 -186q115 0 202 38t126 101q63 100 63 365v549q0 154 -28 196q-27 41 -119 62v10h377v-10q-84 -22 -109 -60q-35 -41 -35 -198v-523q0 -170 -20 -269t-70 -165
q-122 -168 -420 -168q-327 0 -436 189q-63 108 -63 399v578q0 114 -23 155q-24 38 -117 62zM1063 1720l12 -4q-50 -188 -164 -188q-63 0 -145 39q-75 37 -127 37q-85 0 -133 -97l-12 4q14 56 30 95q20 45 55 77.5t78 32.5q52 0 148 -45q75 -37 127 -37q84 0 131 86z" />
    <glyph glyph-name="utilde" unicode="&#x169;" horiz-adv-x="1232" 
d="M866 164q-95 -191 -340 -191q-230 0 -288 172q-25 80 -25 220v337q0 129 -16 179q-21 65 -109 77v11q107 26 229 26q25 0 33 -9t8 -36v-6q0 -6 -0.5 -17.5t-1 -26.5t-1 -37.5t-1.5 -47.5q-2 -88 -2 -209v-213q0 -190 56 -258q55 -67 176 -67q124 0 209 73q43 40 57 90
q12 41 12 140v327q0 131 -16 181q-24 63 -109 79v11q110 26 232 26q24 0 32.5 -8.5t8.5 -36.5l-4 -147q-1 -38 -2 -86.5t-2 -81.5t-1 -55v-361q0 -162 103 -162q24 0 65 9l5 -7q-32 -32 -86.5 -54.5t-98.5 -22.5q-63 0 -92.5 42t-30.5 140zM887 1374l12 -4q-11 -43 -29 -88
q-14 -37 -49 -68.5t-80 -31.5q-50 0 -137 41q-65 32 -119 32q-84 0 -127 -94l-12 4q14 54 31 97q15 42 49.5 75t75.5 33q57 0 139 -43q71 -39 123 -39q76 0 123 86z" />
    <glyph glyph-name="Umacron" unicode="&#x16a;" horiz-adv-x="1495" 
d="M106 1356v10h437v-10q-95 -24 -119 -68q-23 -44 -23 -145v-596q0 -210 41 -316q73 -186 336 -186q115 0 202 38t126 101q63 100 63 365v549q0 154 -28 196q-27 41 -119 62v10h377v-10q-84 -22 -109 -60q-35 -41 -35 -198v-523q0 -170 -20 -269t-70 -165
q-122 -168 -420 -168q-327 0 -436 189q-63 108 -63 399v578q0 114 -23 155q-24 38 -117 62zM1028 1649v-99h-532v99h532z" />
    <glyph glyph-name="umacron" unicode="&#x16b;" horiz-adv-x="1232" 
d="M866 164q-95 -191 -340 -191q-230 0 -288 172q-25 80 -25 220v337q0 129 -16 179q-21 65 -109 77v11q107 26 229 26q25 0 33 -9t8 -36v-6q0 -6 -0.5 -17.5t-1 -26.5t-1 -37.5t-1.5 -47.5q-2 -88 -2 -209v-213q0 -190 56 -258q55 -67 176 -67q124 0 209 73q43 40 57 90
q12 41 12 140v327q0 131 -16 181q-24 63 -109 79v11q110 26 232 26q24 0 32.5 -8.5t8.5 -36.5l-4 -147q-1 -38 -2 -86.5t-2 -81.5t-1 -55v-361q0 -162 103 -162q24 0 65 9l5 -7q-32 -32 -86.5 -54.5t-98.5 -22.5q-63 0 -92.5 42t-30.5 140zM862 1305v-97h-514v97h514z" />
    <glyph glyph-name="Ubreve" unicode="&#x16c;" horiz-adv-x="1495" 
d="M106 1356v10h437v-10q-95 -24 -119 -68q-23 -44 -23 -145v-596q0 -210 41 -316q73 -186 336 -186q115 0 202 38t126 101q63 100 63 365v549q0 154 -28 196q-27 41 -119 62v10h377v-10q-84 -22 -109 -60q-35 -41 -35 -198v-523q0 -170 -20 -269t-70 -165
q-122 -168 -420 -168q-327 0 -436 189q-63 108 -63 399v578q0 114 -23 155q-24 38 -117 62zM1016 1769l14 -2q-9 -122 -63 -196q-52 -76 -199 -76q-139 0 -192.5 69t-53.5 203l15 2q21 -86 72 -125.5t159 -39.5q106 0 161.5 39.5t86.5 125.5z" />
    <glyph glyph-name="ubreve" unicode="&#x16d;" horiz-adv-x="1232" 
d="M866 164q-95 -191 -340 -191q-230 0 -288 172q-25 80 -25 220v337q0 129 -16 179q-21 65 -109 77v11q107 26 229 26q25 0 33 -9t8 -36v-6q0 -6 -0.5 -17.5t-1 -26.5t-1 -37.5t-1.5 -47.5q-2 -88 -2 -209v-213q0 -190 56 -258q55 -67 176 -67q124 0 209 73q43 40 57 90
q12 41 12 140v327q0 131 -16 181q-24 63 -109 79v11q110 26 232 26q24 0 32.5 -8.5t8.5 -36.5l-4 -147q-1 -38 -2 -86.5t-2 -81.5t-1 -55v-361q0 -162 103 -162q24 0 65 9l5 -7q-32 -32 -86.5 -54.5t-98.5 -22.5q-63 0 -92.5 42t-30.5 140zM838 1419l12 -2
q-9 -276 -254 -276q-151 0 -199 92q-39 74 -39 186l15 2q21 -90 70 -131t153 -41t156.5 40t85.5 130z" />
    <glyph glyph-name="Uring" unicode="&#x16e;" horiz-adv-x="1495" 
d="M106 1356v10h437v-10q-95 -24 -119 -68q-23 -44 -23 -145v-596q0 -210 41 -316q73 -186 336 -186q115 0 202 38t126 101q63 100 63 365v549q0 154 -28 196q-27 41 -119 62v10h377v-10q-84 -22 -109 -60q-35 -41 -35 -198v-523q0 -170 -20 -269t-70 -165
q-122 -168 -420 -168q-327 0 -436 189q-63 108 -63 399v578q0 114 -23 155q-24 38 -117 62zM940 1622q0 -70 -45.5 -118t-116.5 -48q-69 0 -115.5 47t-46.5 119q0 73 46 117.5t120 44.5q70 0 114 -44.5t44 -117.5zM778 1743q-53 0 -84.5 -33t-31.5 -88q0 -53 32.5 -88
t87.5 -35q71 -7 99.5 57t-2 128.5t-101.5 58.5z" />
    <glyph glyph-name="uring" unicode="&#x16f;" horiz-adv-x="1232" 
d="M866 164q-95 -191 -340 -191q-230 0 -288 172q-25 80 -25 220v337q0 129 -16 179q-21 65 -109 77v11q107 26 229 26q25 0 33 -9t8 -36v-6q0 -6 -0.5 -17.5t-1 -26.5t-1 -37.5t-1.5 -47.5q-2 -88 -2 -209v-213q0 -190 56 -258q55 -67 176 -67q124 0 209 73q43 40 57 90
q12 41 12 140v327q0 131 -16 181q-24 63 -109 79v11q110 26 232 26q24 0 32.5 -8.5t8.5 -36.5l-4 -147q-1 -38 -2 -86.5t-2 -81.5t-1 -55v-361q0 -162 103 -162q24 0 65 9l5 -7q-32 -32 -86.5 -54.5t-98.5 -22.5q-63 0 -92.5 42t-30.5 140zM768 1296q0 -73 -46.5 -121.5
t-119.5 -48.5q-72 0 -119 49t-47 121q0 73 48 118.5t122 45.5q72 0 117 -45.5t45 -118.5zM723 1294q0 56 -33.5 90.5t-87.5 34.5q-55 0 -87 -33.5t-32 -89.5q0 -55 33.5 -91t89.5 -36q53 0 85 35t32 90z" />
    <glyph glyph-name="Uhungarumlaut" unicode="&#x170;" horiz-adv-x="1495" 
d="M106 1356v10h437v-10q-95 -24 -119 -68q-23 -44 -23 -145v-596q0 -210 41 -316q73 -186 336 -186q115 0 202 38t126 101q63 100 63 365v549q0 154 -28 196q-27 41 -119 62v10h377v-10q-84 -22 -109 -60q-35 -41 -35 -198v-523q0 -170 -20 -269t-70 -165
q-122 -168 -420 -168q-327 0 -436 189q-63 108 -63 399v578q0 114 -23 155q-24 38 -117 62zM817 1665l-321 -174l-11 12l254 264q41 41 76 41q31 0 50.5 -15.5t19.5 -45.5q0 -44 -68 -82zM1155 1665l-324 -174l-8 12l254 264q38 41 74 41q31 0 50.5 -15.5t19.5 -45.5
q0 -47 -66 -82z" />
    <glyph glyph-name="uhungarumlaut" unicode="&#x171;" horiz-adv-x="1232" 
d="M866 164q-95 -191 -340 -191q-230 0 -288 172q-25 80 -25 220v337q0 129 -16 179q-21 65 -109 77v11q107 26 229 26q25 0 33 -9t8 -36v-6q0 -6 -0.5 -17.5t-1 -26.5t-1 -37.5t-1.5 -47.5q-2 -88 -2 -209v-213q0 -190 56 -258q55 -67 176 -67q124 0 209 73q43 40 57 90
q12 41 12 140v327q0 131 -16 181q-24 63 -109 79v11q110 26 232 26q24 0 32.5 -8.5t8.5 -36.5l-4 -147q-1 -38 -2 -86.5t-2 -81.5t-1 -55v-361q0 -162 103 -162q24 0 65 9l5 -7q-32 -32 -86.5 -54.5t-98.5 -22.5q-63 0 -92.5 42t-30.5 140zM664 1378l-261 -241l-10 10
l172 313q34 58 80 58q26 0 46 -17.5t20 -42.5q0 -36 -47 -80zM944 1378l-262 -241l-10 10l174 311q35 60 78 60q26 0 45.5 -17.5t19.5 -42.5q0 -41 -45 -80z" />
    <glyph glyph-name="Uogonek" unicode="&#x172;" horiz-adv-x="1495" 
d="M903 -336l6 -2v-8q0 -15 -12 -27q-43 -43 -125 -43q-94 0 -144 48t-50 126q0 132 159 215q-322 3 -428 189q-63 108 -63 399v578q0 114 -23 155q-24 38 -117 62v10h437v-10q-95 -24 -119 -68q-23 -44 -23 -145v-596q0 -210 41 -316q73 -186 336 -186q115 0 202 38
t126 101q63 100 63 365v549q0 154 -28 196q-27 41 -119 62v10h377v-10q-84 -22 -109 -60q-35 -41 -35 -198v-523q0 -170 -20 -269t-70 -165q-112 -151 -366 -166q-111 -82 -111 -206q0 -57 32.5 -91t92.5 -34q67 0 90 20z" />
    <glyph glyph-name="uogonek" unicode="&#x173;" horiz-adv-x="1232" 
d="M1092 -330l6 -4v-8q0 -10 -13 -23q-38 -41 -120 -41q-90 0 -138.5 46.5t-48.5 123.5q0 139 176 222q-85 18 -88 178q-95 -191 -340 -191q-230 0 -288 172q-25 80 -25 220v337q0 129 -16 179q-21 65 -109 77v11q107 26 229 26q25 0 33 -9t8 -36v-6q0 -6 -0.5 -17.5
t-1 -26.5t-1 -37.5t-1.5 -47.5q-2 -88 -2 -209v-213q0 -190 56 -258q55 -67 176 -67q124 0 209 73q43 40 57 90q12 41 12 140v327q0 131 -16 181q-24 63 -109 79v11q110 26 232 26q24 0 32.5 -8.5t8.5 -36.5l-4 -147q-1 -38 -2 -86.5t-2 -81.5t-1 -55v-361q0 -162 103 -162
q24 0 65 9l5 -7q-68 -68 -177 -77q-112 -81 -112 -209q0 -56 31.5 -89.5t89.5 -33.5q60 0 86 20z" />
    <glyph glyph-name="Wcircumflex" unicode="&#x174;" horiz-adv-x="1947" 
d="M604 0h-110q-11 59 -78 315l-215 844q-35 131 -80 160q-32 22 -86 37v10h440v-10q-62 -19 -94 -37q-33 -14 -33 -53q0 -40 12 -92q216 -860 238 -969q54 188 352 1128h107q309 -913 375 -1130l227 956q12 59 12 101q0 35 -41 59q-48 21 -102 37v10h385v-10l-80 -33
q-34 -18 -49.5 -48.5t-36.5 -113.5l-215 -842q-59 -233 -78 -319h-111q-354 1085 -378 1149q-42 -158 -361 -1149zM1069 1729l225 -256l-8 -11l-291 172l-280 -172l-8 11l225 256q34 40 72 40q31 0 65 -40z" />
    <glyph glyph-name="wcircumflex" unicode="&#x175;" horiz-adv-x="1523" 
d="M762 799l-277 -799h-94l-239 815q-30 99 -66 127q-15 15 -53 29v10h385v-10q-62 -18 -86 -33q-37 -18 -37 -55t16 -99l170 -614q12 40 269 784h90q219 -608 274 -784l25 96l141 531q12 50 12 92q0 36 -32 53q-20 11 -72 29v10h305v-10q-69 -24 -92 -53q-18 -26 -39 -101
l-227 -817h-95zM854 1427l203 -284l-8 -8l-267 200l-258 -198l-8 6l205 287q33 45 67 45q30 0 66 -48z" />
    <glyph glyph-name="Ycircumflex" unicode="&#x176;" horiz-adv-x="1263" 
d="M846 10v-10h-434v10q94 25 114 64q25 42 25 184v324l-365 600q-65 105 -102 137q-40 29 -72 37v10h447v-10q-57 -12 -94 -31q-29 -16 -29 -43q0 -36 41 -104l299 -510q54 98 285 491q40 70 40 119q0 34 -38 51q-26 11 -74 27v10h362v-10q-60 -14 -106 -66
q-35 -41 -74 -106l-364 -590v-338q0 -145 26 -184q21 -34 113 -62zM735 1729l226 -256l-9 -11l-290 172l-281 -172l-8 11l225 256q34 40 72 40q31 0 65 -40z" />
    <glyph glyph-name="ycircumflex" unicode="&#x177;" horiz-adv-x="1062" 
d="M137 -264h13q24 -96 102 -96q83 0 127 84q76 139 127 276h-43l-326 819q-41 106 -76 127q-29 20 -49 27v8h383v-8q-65 -21 -92 -39q-24 -15 -24 -41q0 -31 22 -92q224 -583 256 -684l242 682q22 61 22 96q0 26 -30 47q-41 22 -78 31v8h303v-8q-49 -21 -51 -23
q-25 -19 -40 -43t-40 -92q-228 -598 -305 -815q-82 -218 -152 -342q-76 -129 -207 -129q-41 0 -71 10q-37 15 -37 53q0 56 24 144zM616 1427l203 -284l-8 -8l-266 200l-258 -198l-8 6l204 287q33 45 68 45q29 0 65 -48z" />
    <glyph glyph-name="Ydieresis" unicode="&#x178;" horiz-adv-x="1263" 
d="M846 10v-10h-434v10q94 25 114 64q25 42 25 184v324l-365 600q-65 105 -102 137q-40 29 -72 37v10h447v-10q-57 -12 -94 -31q-29 -16 -29 -43q0 -36 41 -104l299 -510q54 98 285 491q40 70 40 119q0 34 -38 51q-26 11 -74 27v10h362v-10q-60 -14 -106 -66
q-35 -41 -74 -106l-364 -590v-338q0 -145 26 -184q21 -34 113 -62zM571 1593q5 -54 -41.5 -76.5t-93 0t-41.5 76.5q-4 57 43 80.5t93 0t40 -80.5zM922 1593q5 -54 -41.5 -76.5t-93.5 0t-42 76.5q-4 57 43 80.5t93.5 0t40.5 -80.5z" />
    <glyph glyph-name="Zacute" unicode="&#x179;" horiz-adv-x="1208" 
d="M1073 0h-1032v16l858 1284q-349 0 -561 -4q-121 -3 -154 -53q-22 -32 -49 -133h-12q-19 136 -19 211q0 27 7.5 36t31.5 9h971v-18l-858 -1280q143 0 573 4q157 3 203 49q44 41 101 155h10q0 -116 -21 -239q-1 -20 -12.5 -28.5t-36.5 -8.5zM821 1669l-332 -178l-10 12
l262 271q38 41 74 41q30 0 52 -19t22 -49q0 -43 -68 -78z" />
    <glyph glyph-name="zacute" unicode="&#x17a;" horiz-adv-x="974" 
d="M827 0h-774v18q613 888 629 908q-212 0 -360 -4q-97 -3 -127 -56q-28 -48 -48 -125h-12q-18 108 -18 191q0 29 9.5 39t35.5 10h708v-20l-628 -902q201 0 393 4q111 3 149 33q50 41 93 154h12q0 -140 -8 -213q-1 -23 -12 -30t-42 -7zM719 1382l-279 -245l-10 10l188 319
q38 60 76 60q30 0 51 -17.5t21 -46.5q0 -39 -47 -80z" />
    <glyph glyph-name="Zdotaccent" unicode="&#x17b;" horiz-adv-x="1208" 
d="M1073 0h-1032v16l858 1284q-349 0 -561 -4q-121 -3 -154 -53q-22 -32 -49 -133h-12q-19 136 -19 211q0 27 7.5 36t31.5 9h971v-18l-858 -1280q143 0 573 4q157 3 203 49q44 41 101 155h10q0 -116 -21 -239q-1 -20 -12.5 -28.5t-36.5 -8.5zM612 1503q-55 -6 -78.5 43.5
t0 98.5t80.5 43q55 6 78.5 -43.5t0 -98.5t-80.5 -43z" />
    <glyph glyph-name="zdotaccent" unicode="&#x17c;" horiz-adv-x="974" 
d="M827 0h-774v18q613 888 629 908q-212 0 -360 -4q-97 -3 -127 -56q-28 -48 -48 -125h-12q-18 108 -18 191q0 29 9.5 39t35.5 10h708v-20l-628 -902q201 0 393 4q111 3 149 33q50 41 93 154h12q0 -140 -8 -213q-1 -23 -12 -30t-42 -7zM502 1200q-55 -6 -78.5 43t0 98
t80.5 43q54 6 77 -43t0 -98t-79 -43z" />
    <glyph glyph-name="Zcaron" unicode="&#x17d;" horiz-adv-x="1208" 
d="M1073 0h-1032v16l858 1284q-349 0 -561 -4q-121 -3 -154 -53q-22 -32 -49 -133h-12q-19 136 -19 211q0 27 7.5 36t31.5 9h971v-18l-858 -1280q143 0 573 4q157 3 203 49q44 41 101 155h10q0 -116 -21 -239q-1 -20 -12.5 -28.5t-36.5 -8.5zM539 1524l-224 256l9 10
l288 -172l283 172l8 -10l-227 -258q-37 -39 -69.5 -39t-67.5 41z" />
    <glyph glyph-name="zcaron" unicode="&#x17e;" horiz-adv-x="974" 
d="M827 0h-774v18q613 888 629 908q-212 0 -360 -4q-97 -3 -127 -56q-28 -48 -48 -125h-12q-18 108 -18 191q0 29 9.5 39t35.5 10h708v-20l-628 -902q201 0 393 4q111 3 149 33q50 41 93 154h12q0 -140 -8 -213q-1 -23 -12 -30t-42 -7zM428 1184l-203 284l8 9l267 -199
l258 199l8 -9l-205 -286q-30 -43 -67 -43t-66 45z" />
    <glyph glyph-name="longs" unicode="&#x17f;" horiz-adv-x="610" 
d="M522 10v-10h-420v10q72 21 95 58q24 34 24 190v692q0 132 17 236q24 130 113 195t224 65q89 0 142 -16q41 -15 41 -50q0 -37 -29 -147h-12q-18 87 -60 123q-36 28 -98 28q-117 0 -166 -102q-33 -67 -33 -297v-721q0 -152 27 -192q21 -35 135 -62z" />
    <glyph glyph-name="uni018F" unicode="&#x18f;" horiz-adv-x="1376" 
d="M1090 528h-807q-4 -54 -4 -86q0 -183 106 -292q108 -111 279 -111q196 0 305.5 128.5t120.5 360.5zM197 602h899v47q0 144 -25.5 253t-68 177t-106 110.5t-131.5 58.5t-153 16q-263 0 -452 -162l-6 4v10q0 25 14 47q47 78 176 142q130 65 315 65q605 0 605 -686
q0 -344 -158 -527.5t-453 -183.5q-262 0 -405.5 138t-143.5 376q0 70 13 93q9 22 80 22z" />
    <glyph glyph-name="florin" unicode="&#x192;" horiz-adv-x="1046" 
d="M803 805v-72h-252l-62 -555q-27 -227 -96 -332q-102 -163 -264 -163q-90 0 -133 16q-53 18 -53 70q0 51 22 137h12q35 -160 154 -160q60 0 97.5 35t64.5 110q28 77 49 283l55 559h-198v72h207l12 115q24 223 106 325q94 119 275 119q95 0 157 -21q58 -21 58 -65t-31 -162
h-10q-18 97 -64 139.5t-123 42.5q-94 0 -145 -75q-39 -56 -57 -211l-25 -207h244z" />
    <glyph glyph-name="Aringacute" unicode="&#x1fa;" horiz-adv-x="1331" 
d="M829 1501q0 -53 -27.5 -93t-72.5 -54q54 -155 98 -271l320 -882q40 -112 76 -148q37 -32 96 -43v-10h-442v10q54 10 94 35q30 18 30 55q0 34 -26 105l-101 289h-499l-101 -285q-24 -65 -24 -115q0 -40 45 -57q38 -16 84 -27v-10h-369v10q60 12 90 47q37 37 76 140
l330 872l102 285q-94 37 -94 145q0 69 45 113.5t117 44.5q68 0 110.5 -43.5t42.5 -112.5zM625 1196l-228 -637h451zM782 1499q4 37 -16.5 66.5t-51 41.5t-65 6.5t-57.5 -30.5q-24 -25 -29 -60.5t6.5 -65.5t40 -51.5t66.5 -21.5q49 0 77.5 32t28.5 83zM905 1860l-301 -162
l-10 14l231 248q39 39 72 39q30 0 50 -17.5t20 -46.5q0 -40 -62 -75z" />
    <glyph glyph-name="aringacute" unicode="&#x1fb;" horiz-adv-x="1032" 
d="M690 150q-43 -85 -123.5 -130t-179.5 -45q-135 0 -216 75t-81 198q0 164 176 217q76 24 314 57q78 9 94 25q10 13 10 63v52q0 128 -47 184q-59 65 -186 65q-206 0 -281 -118l-8 2q-2 8 -2 28q0 80 100 131q105 54 238 54q168 0 247.5 -73t79.5 -237q0 -96 -2 -219v-270
q0 -93 23.5 -125.5t81.5 -32.5q30 0 65 12l4 -8q-70 -73 -161 -73q-70 0 -104.5 39t-41.5 129zM684 285v207q-20 -10 -66 -19q-221 -41 -264 -55q-116 -40 -116 -168q0 -91 55 -139t143 -48q81 0 146 34t90 98q12 35 12 90zM676 1290q0 -73 -46.5 -120.5t-119.5 -47.5
q-72 0 -119 48t-47 120q0 73 48 119.5t122 46.5q73 0 117.5 -45.5t44.5 -120.5zM633 1288q0 55 -34.5 90t-88.5 35q-55 0 -87 -33.5t-32 -89.5t32.5 -90.5t90.5 -34.5q54 0 86.5 34.5t32.5 88.5zM739 1765l-278 -245l-12 10l190 319q34 58 76 58q31 0 51 -16.5t20 -45.5
q0 -39 -47 -80z" />
    <glyph glyph-name="AEacute" unicode="&#x1fc;" horiz-adv-x="1884" 
d="M397 10v-10h-393v10q66 15 109 58q43 40 106 131l647 958q52 76 52 121q0 24 -25.5 41t-95.5 37v10h895q57 0 57 -51q0 -54 -20 -205h-13q-24 90 -51 128.5t-70 49.5q-41 12 -135 12h-209q-35 0 -47 -12.5t-12 -48.5v-496h164q99 0 162 13q49 7 70.5 34.5t41.5 98.5h15
v-350h-15q-14 64 -42.5 93.5t-90.5 39.5q-40 6 -139 6h-166v-512q0 -58 19 -78t79 -20h230q124 0 176 43q54 45 106 170h10q0 -126 -10 -218q-6 -42 -18 -52.5t-51 -10.5h-834v10q80 21 109 53q28 28 28 179v250h-528l-178 -281q-62 -95 -62 -127q0 -29 33 -43
q34 -15 96 -31zM553 557h483v735q-157 -250 -483 -735zM1548 1669l-331 -178l-11 12l262 271q38 41 74 41q30 0 52 -19t22 -49q0 -43 -68 -78z" />
    <glyph glyph-name="aeacute" unicode="&#x1fd;" horiz-adv-x="1564" 
d="M754 162q-132 -187 -363 -187q-131 0 -219 82q-86 83 -86 205q0 196 246 254q123 28 346 37q2 14 2 106q0 141 -45 189q-55 61 -184 61q-213 0 -283 -116l-6 2q-4 16 -4 28q0 79 102 131q105 54 234 54q243 0 290 -183q109 183 338 183q176 0 268.5 -101t92.5 -278
q0 -105 -6 -117q-9 -18 -60 -18h-594v-11q0 -226 103 -321q101 -94 252 -94q169 0 295 102l6 -4v-10q0 -17 -11 -35q-39 -63 -125.5 -105.5t-207.5 -42.5q-272 0 -381 189zM725 213q-47 109 -47 279q-142 -3 -270 -33q-175 -43 -175 -189q0 -94 61.5 -147t151.5 -53
q181 0 279 143zM827 553h502q4 46 4 104q0 139 -56 215t-165 76q-128 0 -205.5 -110t-79.5 -285zM1051 1382l-279 -245l-10 10l188 319q38 60 76 60q30 0 51 -17.5t21 -46.5q0 -39 -47 -80z" />
    <glyph glyph-name="Oslashacute" unicode="&#x1fe;" horiz-adv-x="1472" 
d="M334 98l-111 -151l-55 39l117 157q-174 180 -174 531q0 147 34.5 268t94 205t141.5 142t175.5 85t197.5 27q228 0 374 -107l117 158l55 -39l-118 -162q188 -179 188 -546q0 -349 -167 -540.5t-464 -191.5q-250 0 -405 125zM1200 680q0 295 -98 463l-694 -946
q122 -158 337 -158q210 0 332.5 164.5t122.5 476.5zM285 696q0 -270 84 -436l692 940q-116 137 -309 137q-137 0 -250 -73q-98 -66 -157.5 -206t-59.5 -362zM991 1669l-332 -178l-10 12l262 271q38 41 74 41q30 0 52 -19t22 -49q0 -43 -68 -78z" />
    <glyph glyph-name="oslashacute" unicode="&#x1ff;" horiz-adv-x="1132" 
d="M281 51l-93 -125l-51 35l94 129q-133 133 -133 391q0 259 138 391q139 136 348 136q159 0 266 -70l98 133l51 -35l-100 -137q135 -126 135 -395q0 -253 -123.5 -392t-345.5 -139q-168 0 -284 78zM881 487q0 198 -58 308l-477 -654q78 -106 223 -106t228.5 115t83.5 337z
M254 498q0 -191 57 -299l475 651q-78 96 -208 96q-45 0 -87.5 -11.5t-86.5 -43t-76.5 -80t-53 -129t-20.5 -184.5zM795 1382l-279 -245l-10 10l188 319q38 60 76 60q30 0 51 -17.5t21 -46.5q0 -39 -47 -80z" />
    <glyph glyph-name="uni0218" unicode="&#x218;" horiz-adv-x="1060" 
d="M137 293h15q24 -106 108 -178q94 -76 242 -76q149 0 227 78q76 76 76 178q0 101 -60 170q-59 71 -243 158l-101 47q-254 120 -254 358q0 149 115 258q116 107 348 107q147 0 238 -31q38 -13 50.5 -26t12.5 -38q0 -43 -28 -180h-13q-35 114 -88 156q-65 53 -198 53
q-140 0 -219.5 -69.5t-79.5 -184.5q0 -87 49 -151q52 -64 207 -140l96 -45q171 -82 239 -170.5t68 -208.5q0 -174 -121.5 -279.5t-337.5 -105.5q-187 0 -299 62q-63 37 -63 82q0 84 14 176zM397 -518l-8 14q143 98 143 193q0 41 -36 61q-50 27 -50 76q0 33 24 55.5t62 22.5
q54 0 82.5 -34t28.5 -97q0 -81 -66.5 -159t-179.5 -132z" />
    <glyph glyph-name="uni0219" unicode="&#x219;" horiz-adv-x="841" 
d="M119 242h10q34 -107 113 -162q67 -43 170 -43q96 0 153.5 50t57.5 122q0 69 -48 117q-45 45 -190 110l-66 31q-200 92 -200 260q0 126 94.5 203.5t282.5 77.5q113 0 192 -29q37 -15 37 -49q0 -47 -25 -156h-12q-21 96 -86 137q-44 33 -137 33q-109 0 -167 -44.5
t-58 -123.5q0 -67 44 -112t162 -99l66 -30q143 -64 190 -129q48 -63 48 -150q0 -123 -93.5 -203t-261.5 -80q-134 0 -237 47q-54 28 -54 80q0 80 15 142zM297 -518l-8 14q143 98 143 193q0 40 -37 61q-49 27 -49 76q0 33 24 55.5t62 22.5q54 0 82.5 -34t28.5 -97
q0 -81 -66.5 -159t-179.5 -132z" />
    <glyph glyph-name="uni021A" unicode="&#x21a;" horiz-adv-x="1202" 
d="M809 10v-10h-438v10q90 21 116 64q23 41 23 190v975q0 35 -11.5 48t-43.5 13h-123q-87 0 -139 -10q-44 -11 -75 -53.5t-63 -138.5h-10q-10 163 -10 223q0 28 7.5 36.5t35.5 8.5h1020q30 0 37.5 -8t7.5 -35q0 -92 -10 -225h-11q-25 98 -57 139.5t-82 52.5q-68 10 -141 10
h-115q-35 0 -47 -12.5t-12 -48.5v-975q0 -158 24 -192q24 -41 117 -62zM455 -518l-9 14q144 99 144 193q0 40 -37 61q-49 27 -49 76q0 33 24 55.5t62 22.5q54 0 82 -34t28 -97q0 -81 -66 -159t-179 -132z" />
    <glyph glyph-name="uni021B" unicode="&#x21b;" horiz-adv-x="649" 
d="M633 94l4 -8q-82 -104 -219 -104q-174 0 -195 161q-6 41 -6 148v616h-151v31q114 27 165 78q54 54 105 219h20v-254h226v-74h-226v-620q0 -83 9 -129q18 -103 129 -103q65 0 139 39zM258 -518l-8 14q143 98 143 193q0 40 -37 61q-49 27 -49 76q0 33 24 55.5t62 22.5
q54 0 82.5 -34t28.5 -97q0 -81 -66.5 -159t-179.5 -132z" />
    <glyph glyph-name="uni0259" unicode="&#x259;" horiz-adv-x="995" 
d="M748 383h-504q-4 -36 -4 -64q0 -136 61 -211t176 -75q126 0 194.5 91.5t76.5 258.5zM156 444h596v27q0 250 -88 344q-88 98 -238 98q-188 0 -309 -100l-8 4v8q0 8 10 35q35 60 129.5 104t220.5 44q434 0 434 -508q0 -249 -116 -388t-320 -139q-181 0 -279 99.5t-98 273.5
q0 67 8 80q9 18 58 18z" />
    <glyph glyph-name="circumflex" unicode="&#x2c6;" horiz-adv-x="448" 
d="M291 1427l203 -284l-9 -8l-266 200l-258 -198l-8 6l205 287q33 45 67 45q30 0 66 -48z" />
    <glyph glyph-name="caron" unicode="&#x2c7;" horiz-adv-x="448" 
d="M156 1184l-203 284l8 9l266 -199l258 199l9 -9l-205 -286q-30 -43 -68 -43q-36 0 -65 45z" />
    <glyph glyph-name="breve" unicode="&#x2d8;" horiz-adv-x="448" 
d="M459 1419l12 -2q-9 -276 -254 -276q-151 0 -199 92q-38 72 -38 186l14 2q21 -90 70 -131t153 -41t156.5 40t85.5 130z" />
    <glyph glyph-name="dotaccent" unicode="&#x2d9;" horiz-adv-x="446" 
d="M223 1200q-55 -6 -78.5 43t0 98t80.5 43q54 6 77 -43t0 -98t-79 -43z" />
    <glyph glyph-name="ring" unicode="&#x2da;" horiz-adv-x="448" 
d="M391 1296q0 -73 -46.5 -121.5t-119.5 -48.5q-72 0 -119 49t-47 121q0 73 48 118.5t122 45.5q72 0 117 -45.5t45 -118.5zM346 1294q0 56 -33.5 90.5t-87.5 34.5q-55 0 -87 -33.5t-32 -89.5q0 -55 33.5 -91t89.5 -36q53 0 85 35t32 90z" />
    <glyph glyph-name="ogonek" unicode="&#x2db;" horiz-adv-x="446" 
d="M397 -330l6 -4v-8q0 -11 -12 -23q-38 -41 -121 -41q-89 0 -137.5 46.5t-48.5 123.5q0 169 256 252l8 -6q-158 -96 -158 -237q0 -56 31.5 -89.5t89.5 -33.5q60 0 86 20z" />
    <glyph glyph-name="tilde" unicode="&#x2dc;" horiz-adv-x="448" 
d="M487 1374l13 -4q-11 -43 -29 -88q-14 -37 -49 -68.5t-80 -31.5q-50 0 -137 41q-65 32 -119 32q-84 0 -127 -94l-12 4q16 61 30 97q15 42 49.5 75t75.5 33q58 0 140 -43q71 -39 123 -39q75 0 122 86z" />
    <glyph glyph-name="hungarumlaut" unicode="&#x2dd;" horiz-adv-x="446" 
d="M193 1378l-261 -241l-10 10l172 313q34 58 80 58q26 0 46 -17.5t20 -42.5q0 -36 -47 -80zM473 1378l-262 -241l-10 10l174 311q35 60 78 60q26 0 45.5 -17.5t19.5 -42.5q0 -41 -45 -80z" />
    <glyph glyph-name="uni0394" unicode="&#x394;" horiz-adv-x="1390" 
d="M768 1366l563 -1366h-1280l584 1366h133zM657 1245q-97 -256 -462 -1110h911q-413 1010 -449 1110z" />
    <glyph glyph-name="uni03A9" unicode="&#x3a9;" horiz-adv-x="1495" 
d="M668 111v-111h-453q-38 0 -50.5 9t-17.5 38q-12 71 -12 197h8q42 -94 90 -103q55 -14 308 -14q-165 76 -263 232.5t-98 371.5q0 169 47.5 302.5t130.5 209.5q163 150 396 150q263 0 404.5 -160t141.5 -485q0 -213 -100.5 -371.5t-277.5 -249.5q246 3 323 16q53 9 94 101
h11q-6 -111 -19 -197q-5 -27 -20.5 -37t-53.5 -10h-454v111q142 47 233 221q92 176 92 403q0 312 -94 452t-284 140q-185 0 -291.5 -148t-106.5 -446q0 -233 90 -411q87 -172 226 -211z" />
    <glyph glyph-name="uni03BC" unicode="&#x3bc;" horiz-adv-x="1280" 
d="M406 84v-186q0 -105 2 -168q1 -29 2 -54.5t1.5 -38t0.5 -14.5q0 -36 -15 -45q-22 -14 -143 -14l-6 8q16 240 16 674v456q0 125 -16 175q-20 69 -109 81v11q107 26 228 26q27 0 35 -7.5t8 -31.5v-6q0 -7 -0.5 -19t-1 -28t-1 -40t-1.5 -50q-3 -138 -3 -213v-211
q0 -108 12 -162t46 -90q63 -69 174 -69q129 0 211 73q43 43 57 92q10 45 10 144v321q0 131 -16 181q-24 63 -109 79v11q110 26 230 26q26 0 34.5 -8.5t8.5 -36.5l-4 -147q-4 -196 -4 -223v-357q0 -164 104 -164q29 0 64 7l4 -9q-31 -31 -85 -53t-98 -22q-61 0 -88 39.5
t-34 142.5q-83 -191 -308 -191q-71 0 -127.5 28.5t-78.5 82.5z" />
    <glyph glyph-name="pi" unicode="&#x3c0;" horiz-adv-x="1312" 
d="M281 -4l-9 14q114 190 117 858h-18q-85 0 -132.5 -29t-91.5 -108l-18 6q18 121 76 191q41 53 184 53h803v-113h-170v-639q0 -94 22 -132t76 -38q47 0 74 9l2 -7q-77 -77 -188 -77q-87 0 -111 82q-14 43 -14 190v612h-387q0 -677 -56 -831q-7 -29 -27.5 -41t-58.5 -12
q-46 0 -73 12z" />
    <glyph glyph-name="Wgrave" unicode="&#x1e80;" horiz-adv-x="1947" 
d="M604 0h-110q-11 59 -78 315l-215 844q-35 131 -80 160q-32 22 -86 37v10h440v-10q-62 -19 -94 -37q-33 -14 -33 -53q0 -40 12 -92q216 -860 238 -969q54 188 352 1128h107q309 -913 375 -1130l227 956q12 59 12 101q0 35 -41 59q-48 21 -102 37v10h385v-10l-80 -33
q-34 -18 -49.5 -48.5t-36.5 -113.5l-215 -842q-59 -233 -78 -319h-111q-354 1085 -378 1149q-42 -158 -361 -1149zM840 1776l262 -273l-10 -12l-332 178q-68 35 -68 78q0 30 21.5 49t52.5 19q41 0 74 -39z" />
    <glyph glyph-name="wgrave" unicode="&#x1e81;" horiz-adv-x="1523" 
d="M762 799l-277 -799h-94l-239 815q-30 99 -66 127q-15 15 -53 29v10h385v-10q-62 -18 -86 -33q-37 -18 -37 -55t16 -99l170 -614q12 40 269 784h90q219 -608 274 -784l25 96l141 531q12 50 12 92q0 36 -32 53q-20 11 -72 29v10h305v-10q-69 -24 -92 -53q-18 -26 -39 -101
l-227 -817h-95zM672 1468l188 -321l-10 -10l-279 245q-47 41 -47 80q0 29 21 46.5t51 17.5q42 0 76 -58z" />
    <glyph glyph-name="Wacute" unicode="&#x1e82;" horiz-adv-x="1947" 
d="M604 0h-110q-11 59 -78 315l-215 844q-35 131 -80 160q-32 22 -86 37v10h440v-10q-62 -19 -94 -37q-33 -14 -33 -53q0 -40 12 -92q216 -860 238 -969q54 188 352 1128h107q309 -913 375 -1130l227 956q12 59 12 101q0 35 -41 59q-48 21 -102 37v10h385v-10l-80 -33
q-34 -18 -49.5 -48.5t-36.5 -113.5l-215 -842q-59 -233 -78 -319h-111q-354 1085 -378 1149q-42 -158 -361 -1149zM1247 1669l-332 -178l-10 12l262 271q38 41 74 41q30 0 52 -19t22 -49q0 -43 -68 -78z" />
    <glyph glyph-name="wacute" unicode="&#x1e83;" horiz-adv-x="1523" 
d="M762 799l-277 -799h-94l-239 815q-30 99 -66 127q-15 15 -53 29v10h385v-10q-62 -18 -86 -33q-37 -18 -37 -55t16 -99l170 -614q12 40 269 784h90q219 -608 274 -784l25 96l141 531q12 50 12 92q0 36 -32 53q-20 11 -72 29v10h305v-10q-69 -24 -92 -53q-18 -26 -39 -101
l-227 -817h-95zM981 1382l-279 -245l-10 10l189 319q38 60 75 60q30 0 51 -17.5t21 -46.5q0 -39 -47 -80z" />
    <glyph glyph-name="Wdieresis" unicode="&#x1e84;" horiz-adv-x="1947" 
d="M604 0h-110q-11 59 -78 315l-215 844q-35 131 -80 160q-32 22 -86 37v10h440v-10q-62 -19 -94 -37q-33 -14 -33 -53q0 -40 12 -92q216 -860 238 -969q54 188 352 1128h107q309 -913 375 -1130l227 956q12 59 12 101q0 35 -41 59q-48 21 -102 37v10h385v-10l-80 -33
q-34 -18 -49.5 -48.5t-36.5 -113.5l-215 -842q-59 -233 -78 -319h-111q-354 1085 -378 1149q-42 -158 -361 -1149zM907 1593q5 -54 -41.5 -76.5t-93 0t-41.5 76.5q-4 57 43 80.5t93 0t40 -80.5zM1257 1593q5 -54 -41.5 -76.5t-93 0t-41.5 76.5q-4 57 43 80.5t93 0t40 -80.5z
" />
    <glyph glyph-name="wdieresis" unicode="&#x1e85;" horiz-adv-x="1523" 
d="M762 799l-277 -799h-94l-239 815q-30 99 -66 127q-15 15 -53 29v10h385v-10q-62 -18 -86 -33q-37 -18 -37 -55t16 -99l170 -614q12 40 269 784h90q219 -608 274 -784l25 96l141 531q12 50 12 92q0 36 -32 53q-20 11 -72 29v10h305v-10q-69 -24 -92 -53q-18 -26 -39 -101
l-227 -817h-95zM715 1292q5 -54 -41.5 -76.5t-93 0t-41.5 76.5q-4 55 43 78.5t93 0.5t40 -79zM1042 1292q0 -38 -25 -63t-63 -25q-37 0 -61.5 25t-24.5 63q-5 56 41.5 79.5t92.5 0t40 -79.5z" />
    <glyph glyph-name="Ygrave" unicode="&#x1ef2;" horiz-adv-x="1263" 
d="M846 10v-10h-434v10q94 25 114 64q25 42 25 184v324l-365 600q-65 105 -102 137q-40 29 -72 37v10h447v-10q-57 -12 -94 -31q-29 -16 -29 -43q0 -36 41 -104l299 -510q54 98 285 491q40 70 40 119q0 34 -38 51q-26 11 -74 27v10h362v-10q-60 -14 -106 -66
q-35 -41 -74 -106l-364 -590v-338q0 -145 26 -184q21 -34 113 -62zM502 1776l262 -273l-10 -12l-332 178q-68 35 -68 78q0 30 21.5 49t52.5 19q41 0 74 -39z" />
    <glyph glyph-name="ygrave" unicode="&#x1ef3;" horiz-adv-x="1062" 
d="M137 -264h13q24 -96 102 -96q83 0 127 84q76 139 127 276h-43l-326 819q-41 106 -76 127q-29 20 -49 27v8h383v-8q-65 -21 -92 -39q-24 -15 -24 -41q0 -31 22 -92q224 -583 256 -684l242 682q22 61 22 96q0 26 -30 47q-41 22 -78 31v8h303v-8q-49 -21 -51 -23
q-25 -19 -40 -43t-40 -92q-228 -598 -305 -815q-82 -218 -152 -342q-76 -129 -207 -129q-41 0 -71 10q-37 15 -37 53q0 56 24 144zM418 1468l188 -321l-10 -10l-279 245q-47 41 -47 80q0 29 21 46.5t51 17.5q42 0 76 -58z" />
    <glyph glyph-name="endash" unicode="&#x2013;" horiz-adv-x="1169" 
d="M1049 586v-109h-951v109h951z" />
    <glyph glyph-name="emdash" unicode="&#x2014;" horiz-adv-x="1937" 
d="M1837 586v-109h-1739v109h1739z" />
    <glyph glyph-name="quoteleft" unicode="&#x2018;" horiz-adv-x="401" 
d="M358 1489l11 -12q-75 -55 -121.5 -120.5t-46.5 -121.5q0 -48 49 -72q59 -27 59 -86q0 -39 -27.5 -66.5t-68.5 -27.5q-57 0 -90 40.5t-33 113.5q0 97 69.5 188.5t198.5 163.5z" />
    <glyph glyph-name="quoteright" unicode="&#x2019;" horiz-adv-x="401" 
d="M63 987l-10 12q75 55 121.5 121.5t46.5 122.5q0 45 -49 72q-59 27 -59 86q0 39 27.5 66.5t68.5 27.5q57 0 90 -40.5t33 -113.5q0 -97 -70 -188.5t-199 -165.5z" />
    <glyph glyph-name="quotesinglbase" unicode="&#x201a;" horiz-adv-x="401" 
d="M63 -297l-10 12q75 55 121.5 120.5t46.5 121.5q0 48 -49 72q-59 27 -59 86q0 41 27.5 67.5t68.5 26.5q123 0 123 -154q0 -201 -269 -352z" />
    <glyph glyph-name="quotedblleft" unicode="&#x201c;" horiz-adv-x="743" 
d="M676 1489l10 -12q-75 -55 -120.5 -120.5t-45.5 -121.5q0 -48 47 -72q62 -30 62 -86q0 -38 -29 -66t-70 -28q-120 0 -120 154q0 97 69 188.5t197 163.5zM358 1489l11 -12q-75 -55 -121.5 -120.5t-46.5 -121.5q0 -48 47 -72q61 -30 61 -86q0 -39 -27.5 -66.5t-68.5 -27.5
q-57 0 -90 40.5t-33 113.5q0 97 69.5 188.5t198.5 163.5z" />
    <glyph glyph-name="quotedblright" unicode="&#x201d;" horiz-adv-x="743" 
d="M63 983l-10 12q170 126 170 242q0 48 -49 72q-61 34 -61 88q0 39 27.5 65.5t68.5 26.5q123 0 123 -154q0 -95 -70 -188t-199 -164zM383 983l-10 12q168 125 168 242q0 48 -49 72q-62 35 -62 88q0 38 28.5 65t69.5 27q123 0 123 -154q0 -94 -70 -186.5t-198 -165.5z" />
    <glyph glyph-name="quotedblbase" unicode="&#x201e;" horiz-adv-x="743" 
d="M63 -299l-10 14q170 120 170 242q0 45 -49 72q-61 30 -61 86q0 39 27.5 66.5t68.5 27.5q57 0 90 -40.5t33 -113.5q0 -97 -69.5 -189t-199.5 -165zM383 -299l-10 14q77 57 122.5 121.5t45.5 120.5q0 45 -49 72q-62 30 -62 86q0 39 28.5 66.5t69.5 27.5q57 0 90 -40.5
t33 -113.5q0 -97 -69.5 -189t-198.5 -165z" />
    <glyph glyph-name="dagger" unicode="&#x2020;" horiz-adv-x="1069" 
d="M131 934q0 80 80 80q12 0 51.5 -10t110 -26.5t139.5 -27.5q-8 81 -25 178q-7 45 -16 95.5t-12.5 74t-3.5 35.5q0 84 80 84q75 0 75 -84q0 -24 -8 -65q-39 -244 -47 -318q36 6 139 29q140 35 162 35q78 0 78 -76q0 -37 -21.5 -58.5t-56.5 -21.5q-12 0 -50.5 7t-110 19.5
t-140.5 22.5q9 -176 27 -473q20 -279 20 -381q0 -82 -67 -82q-72 0 -72 82q0 101 20 377q18 257 29 477q-66 -9 -139 -23t-111.5 -21t-50.5 -5q-33 0 -56.5 21t-23.5 55z" />
    <glyph glyph-name="daggerdbl" unicode="&#x2021;" horiz-adv-x="1069" 
d="M512 461q-74 -10 -142.5 -23t-104 -20.5t-48.5 -7.5q-36 0 -58 19t-22 54q0 74 80 74q12 0 47 -7.5t104 -22t144 -25.5v416q-74 -10 -143.5 -21.5t-104 -18t-47.5 -6.5q-36 0 -58 19t-22 53q0 76 80 76q12 0 48 -8.5t105 -23.5t142 -27q-11 96 -23 165q-30 192 -30 207
q0 84 78 84q77 0 77 -84q0 -24 -8 -71q-1 -7 -20 -123t-27 -178q69 11 139.5 26.5t108.5 24t49 8.5q78 0 78 -74t-78 -74q-11 0 -46.5 6.5t-106 18t-144.5 21.5v-416q75 11 145.5 25.5t105.5 22t46 7.5q78 0 78 -76q0 -71 -78 -71q-12 0 -49.5 7.5t-107.5 20.5t-140 23
q7 -67 25 -189q30 -228 30 -241q0 -84 -77 -84q-78 0 -78 82q0 27 8 82q1 8 20 145t25 205z" />
    <glyph glyph-name="bullet" unicode="&#x2022;" horiz-adv-x="774" 
d="M637 551q0 -111 -70 -180.5t-182 -69.5q-107 0 -178.5 70t-71.5 178q0 117 71 187.5t187 70.5q110 0 177 -70t67 -186z" />
    <glyph glyph-name="ellipsis" unicode="&#x2026;" horiz-adv-x="2134" 
d="M379 -23q-45 0 -76 30.5t-31 78.5q0 49 30.5 79t78.5 30q47 0 75.5 -29.5t28.5 -79.5q0 -49 -29.5 -79t-76.5 -30zM1067 -23q-45 0 -75.5 30t-30.5 79t30 79t78 30q47 0 76 -30t29 -79t-29.5 -79t-77.5 -30zM1753 -23q-45 0 -74.5 30t-29.5 79t30 79t78 30q47 0 75 -29.5
t28 -79.5q0 -49 -29.5 -79t-77.5 -30z" />
    <glyph glyph-name="perthousand" unicode="&#x2030;" horiz-adv-x="2420" 
d="M684 930q0 -195 -77.5 -304.5t-223.5 -109.5q-162 0 -232.5 105.5t-70.5 314.5q0 196 82 304t229 108q158 0 225.5 -105t67.5 -313zM563 926q0 205 -37 288.5t-135 83.5q-188 0 -188 -348q0 -199 43 -291t141 -92q176 0 176 359zM465 -33l692 1428l60 -27l-689 -1427z
M1595 397q0 -194 -78 -303.5t-223 -109.5q-162 0 -233.5 105t-71.5 314q0 195 83.5 303.5t230.5 108.5q158 0 225 -105t67 -313zM1473 397q0 206 -37 287.5t-138 81.5q-184 0 -184 -348q0 -199 43 -291t141 -92q175 0 175 362zM2341 397q0 -194 -78 -303.5t-223 -109.5
q-162 0 -233.5 105t-71.5 314q0 196 82.5 304t230.5 108q158 0 225.5 -105t67.5 -313zM2218 397q0 207 -36.5 288t-137.5 81q-186 0 -186 -348q0 -200 42.5 -291.5t143.5 -91.5q174 0 174 362z" />
    <glyph glyph-name="guilsinglleft" unicode="&#x2039;" horiz-adv-x="534" 
d="M100 553l351 362l12 -10l-242 -397l238 -416l-13 -6l-344 363q-30 30 -30 51q0 25 28 53z" />
    <glyph glyph-name="guilsinglright" unicode="&#x203a;" horiz-adv-x="534" 
d="M440 446l-350 -360l-12 8l244 400l-240 413l12 8l342 -360q33 -33 33 -53q0 -24 -29 -56z" />
    <glyph glyph-name="fraction" unicode="&#x2044;" horiz-adv-x="196" 
d="M-279 -33l693 1428l59 -27l-688 -1427z" />
    <glyph glyph-name="zero.superior" unicode="&#x2070;" 
d="M659 1278q0 -194 -78 -304t-223 -110q-162 0 -233.5 105.5t-71.5 314.5q0 196 83 304t231 108q158 0 225 -105t67 -313zM537 1274q0 206 -38 289.5t-137 83.5q-186 0 -186 -349q0 -202 42.5 -292.5t143.5 -90.5q175 0 175 359z" />
    <glyph glyph-name="four.superior" unicode="&#x2074;" 
d="M635 889v-8h-299v8q43 8 67 22q29 23 29 86v99h-389v59l418 541h86q-2 -59 -2 -254v-264h133v-82h-133v-99q0 -70 35 -88q7 -4 55 -20zM125 1178h307q0 171 4 413q-49 -70 -311 -413z" />
    <glyph glyph-name="five.superior" unicode="&#x2075;" 
d="M92 1053h12q14 -62 67.5 -101t135.5 -39q92 0 142.5 57.5t50.5 153.5q0 97 -48.5 147t-134.5 50q-89 0 -180 -45l-8 6l47 399h412v-96q-334 0 -379 2l-25 -229q75 35 162 35q132 0 204.5 -62t72.5 -192q0 -128 -83 -201.5t-229 -73.5q-133 0 -198 41q-29 23 -29 49
q0 66 8 99z" />
    <glyph glyph-name="six.superior" unicode="&#x2076;" 
d="M193 1255q25 56 83 90.5t132 34.5q111 0 175 -63.5t64 -179.5q0 -120 -74.5 -196.5t-197.5 -76.5q-144 0 -218.5 99.5t-74.5 275.5q0 68 10 129.5t35.5 123t64.5 105.5t102 71.5t144 27.5q85 0 137 -19q39 -14 39 -41q0 -40 -18 -110h-8q-34 123 -162 123
q-227 0 -233 -394zM201 1157q0 -94 41 -168q44 -74 131 -74q70 0 112.5 56t42.5 159q0 92 -41.5 139.5t-115.5 47.5q-91 0 -144 -74q-26 -36 -26 -86z" />
    <glyph glyph-name="seven.superior" unicode="&#x2077;" 
d="M311 860l-86 14q113 295 334 709q-63 0 -149 -2h-215q-64 0 -78 -20q-13 -13 -29 -68h-12q-8 44 -8 147q0 41 41 41h524v-53q-129 -292 -322 -768z" />
    <glyph glyph-name="eight.superior" unicode="&#x2078;" 
d="M432 1323q203 -77 203 -227q0 -106 -78 -169t-207 -63q-130 0 -200 57.5t-70 151.5q0 142 182 207q-145 71 -145 207q0 93 68 151t180 58q239 0 239 -180q0 -123 -172 -193zM293 1262q-125 -64 -125 -185q-4 -56 30.5 -97t84 -56t104.5 -7.5t90 39.5q51 42 51 109
t-51 110t-184 87zM403 1339q117 71 117 174q0 63 -40.5 99.5t-112.5 36.5q-70 0 -110 -37t-40 -94q0 -59 38.5 -98.5t147.5 -80.5z" />
    <glyph glyph-name="nine.superior" unicode="&#x2079;" 
d="M522 1305q-56 -127 -211 -127q-112 0 -175.5 64t-63.5 181q0 119 77 196t203 77q285 0 285 -373q0 -180 -70 -311q-37 -70 -109 -109t-169 -39q-100 0 -154 23q-35 18 -35 41q0 33 17 106h10q27 -123 166 -123q119 0 173 98.5t56 295.5zM516 1413q0 236 -164 236
q-71 0 -117.5 -57.5t-46.5 -159.5q0 -91 42.5 -140t113.5 -49q90 0 145 76q27 35 27 94z" />
    <glyph glyph-name="parenleft.superior" unicode="&#x207d;" horiz-adv-x="401" 
d="M383 743l-6 -14q-305 102 -305 537q0 175 75 306t230 195l6 -14q-215 -126 -215 -485q0 -408 215 -525z" />
    <glyph glyph-name="parenright.superior" unicode="&#x207e;" horiz-adv-x="401" 
d="M16 1753l7 14q305 -102 305 -536q0 -175 -75.5 -306.5t-229.5 -195.5l-7 12q215 126 215 488q0 404 -215 524z" />
    <glyph glyph-name="n.superior" unicode="&#x207f;" horiz-adv-x="798" 
d="M326 541v-9h-260v9q50 15 59 37q16 22 16 102v278q0 72 -16 109q-19 31 -62 37v8q61 21 150 21q32 0 35 -25v-88q61 119 225 119q135 0 170 -103q12 -40 12 -141v-213q0 -85 17 -109q8 -17 65 -32v-9h-260v9q45 12 60 37q14 20 14 102v205q0 111 -29.5 149.5t-101.5 38.5
q-74 0 -127 -39q-25 -20 -41 -59q-6 -24 -6 -68v-227q0 -85 14 -102q9 -22 66 -37z" />
    <glyph glyph-name="zero.inferior" unicode="&#x2080;" 
d="M659 397q0 -194 -78 -303.5t-223 -109.5q-162 0 -233.5 105t-71.5 314q0 196 83 304t231 108q158 0 225 -105t67 -313zM537 393q0 206 -38 289.5t-137 83.5q-186 0 -186 -348q0 -202 42.5 -292.5t143.5 -90.5q175 0 175 358z" />
    <glyph glyph-name="one.inferior" unicode="&#x2081;" 
d="M512 8v-8h-301v8q13 2 59 19q39 17 39 92v497q0 76 -10 103q-12 24 -51 24q-37 0 -47 -2l-2 17l219 61l10 -10q-4 -74 -4 -293v-397q0 -74 37 -92q24 -12 51 -19z" />
    <glyph glyph-name="two.inferior" unicode="&#x2082;" 
d="M567 0h-518v55q254 181 338 303q86 121 86 230q0 180 -172 180q-134 0 -184 -139h-11q-12 59 -12 102q0 33 43 51q73 33 191 33q268 0 268 -223q0 -115 -100.5 -231t-329.5 -269q184 4 344 4q41 0 63 19q14 13 48 75h10q0 -84 -10 -159q-6 -31 -54 -31z" />
    <glyph glyph-name="three.inferior" unicode="&#x2083;" 
d="M78 180h10q18 -65 70.5 -105t136.5 -40q90 0 138 53t48 141q0 80 -51.5 125t-142.5 45h-35v45h39q170 0 170 174q0 150 -156 150q-75 0 -117.5 -31.5t-68.5 -105.5h-10q-11 64 -11 102q0 31 41 49q67 33 191 33q123 0 187.5 -49.5t64.5 -138.5q0 -154 -183 -201
q203 -27 203 -195q0 -117 -81 -182t-224 -65q-129 0 -197 39q-32 19 -32 49q0 40 10 108z" />
    <glyph glyph-name="four.inferior" unicode="&#x2084;" 
d="M635 8v-8h-299v8q40 8 67 23q29 23 29 86v98h-389v59l418 541h86q-2 -59 -2 -254v-264h133v-82h-133v-98q0 -70 35 -88q9 -6 55 -21zM125 297h307q0 172 4 414q-58 -83 -311 -414z" />
    <glyph glyph-name="five.inferior" unicode="&#x2085;" 
d="M92 172h12q14 -62 67.5 -100.5t135.5 -38.5q92 0 142.5 57.5t50.5 153.5t-48.5 146t-134.5 50q-89 0 -180 -45l-8 6l47 400h412v-96q-334 0 -379 2l-25 -230q75 35 162 35q132 0 204.5 -62t72.5 -192q0 -128 -83 -201t-229 -73q-133 0 -198 41q-29 23 -29 49q0 65 8 98z
" />
    <glyph glyph-name="six.inferior" unicode="&#x2086;" 
d="M193 375q25 56 83 90.5t132 34.5q111 0 175 -64t64 -180q0 -120 -74.5 -196t-197.5 -76q-145 0 -219 99t-74 275q0 68 10 129.5t35.5 123t64.5 105.5t102 71.5t144 27.5q88 0 137 -18q39 -14 39 -41q0 -40 -18 -111h-8q-34 123 -162 123q-227 0 -233 -393zM201 276
q0 -93 41 -167q44 -74 131 -74q70 0 112.5 56t42.5 159q0 92 -41.5 139t-115.5 47q-91 0 -144 -74q-26 -36 -26 -86z" />
    <glyph glyph-name="seven.inferior" unicode="&#x2087;" 
d="M311 -20l-86 14q112 292 334 708q-63 0 -149 -2h-215q-64 0 -78 -20q-13 -13 -29 -68h-12q-8 44 -8 148q0 41 41 41h524v-53q-129 -292 -322 -768z" />
    <glyph glyph-name="eight.inferior" unicode="&#x2088;" 
d="M432 442q203 -77 203 -227q0 -105 -78 -168t-207 -63q-130 0 -200 57.5t-70 151.5q0 141 182 206q-145 71 -145 207q0 93 68 151t180 58q239 0 239 -180q0 -123 -172 -193zM293 381q-125 -64 -125 -184q-4 -56 30.5 -97t84 -56t104.5 -7.5t90 39.5q51 42 51 108
q0 67 -51 110t-184 87zM403 459q117 71 117 174q0 63 -40.5 99t-112.5 36q-70 0 -110 -37t-40 -94q0 -59 38.5 -98t147.5 -80z" />
    <glyph glyph-name="nine.inferior" unicode="&#x2089;" 
d="M522 424q-56 -127 -211 -127q-111 0 -175 64.5t-64 181.5q0 119 77 195.5t203 76.5q285 0 285 -373q0 -180 -70 -311q-37 -70 -109 -108.5t-169 -38.5q-102 0 -154 22q-35 18 -35 41q0 34 17 107h10q27 -123 166 -123q119 0 173 98t56 295zM516 532q0 236 -164 236
q-71 0 -117.5 -57.5t-46.5 -159.5q0 -91 42.5 -140t113.5 -49q90 0 145 76q27 34 27 94z" />
    <glyph glyph-name="parenleft.inferior" unicode="&#x208d;" horiz-adv-x="401" 
d="M383 -137l-6 -15q-305 102 -305 537q0 176 75 307.5t230 194.5l6 -15q-215 -126 -215 -485q0 -407 215 -524z" />
    <glyph glyph-name="parenright.inferior" unicode="&#x208e;" horiz-adv-x="401" 
d="M16 872l7 15q305 -102 305 -537q0 -175 -75.5 -306.5t-229.5 -195.5l-7 13q215 126 215 487q0 404 -215 524z" />
    <glyph glyph-name="Euro" unicode="&#x20ac;" horiz-adv-x="1355" 
d="M995 571v-55h-477q29 -233 136 -354t286 -121q119 0 205 59q56 41 102 144h15q-3 -105 -17 -154q-9 -44 -74 -74q-90 -43 -266 -43q-238 0 -379 141t-170 402h-186v55h180q-2 18 -2 91q0 64 6 126h-184v56h190q38 248 186 379t394 131q168 0 252 -35q63 -23 63 -66
q0 -63 -28 -194h-17q-28 114 -71 160q-60 69 -211 69q-166 0 -272.5 -114.5t-135.5 -329.5h475v-56h-481q-4 -46 -4 -108q0 -86 2 -109h483z" />
    <glyph glyph-name="afii61289" unicode="&#x2113;" horiz-adv-x="923" 
d="M365 561q360 249 360 574q0 80 -35.5 127t-95.5 47q-96 0 -152 -115q-71 -151 -77 -633zM813 147l6 -2q0 -7 -4 -39q-5 -31 -31 -57q-88 -76 -227 -76q-181 0 -258 150q-63 126 -72 303q-63 -36 -131 -66l-20 48q62 26 149 77q0 326 29 502q27 161 102 266
q89 121 238 121q227 0 227 -254q0 -333 -454 -622q3 -173 34 -279q25 -76 76.5 -121t116.5 -45q125 0 219 94z" />
    <glyph glyph-name="trademark" unicode="&#x2122;" horiz-adv-x="1726" 
d="M569 717v-8h-260v8q47 12 62 33q12 18 12 92v452q0 17 -6 23t-25 6h-53q-56 0 -74 -6q-40 -12 -71 -96h-9q-6 64 -6 112q0 33 25 33h545q26 0 26 -31q0 -52 -4 -114h-8q-30 92 -78 98q-28 4 -72 4h-51q-28 0 -28 -29v-454q0 -75 12 -90q20 -20 63 -33zM999 717v-8h-213v8
q47 11 62.5 28.5t19.5 75.5l13 383q2 23 2 84q0 28 -17 45q-17 12 -55 23v10h164q24 0 33 -18q158 -374 198 -476q22 63 191 474q9 20 26 20h164v-10q-33 -9 -53 -25q-14 -14 -14 -49q0 -62 18 -481q3 -46 21 -60q13 -13 57 -24v-8h-264v8q47 15 59 24q19 16 19 66
q0 61 -15 475l-221 -549h-45q-72 168 -168 404l-59 141q0 -113 -2 -250q-2 -135 -2 -215q0 -51 16 -70q11 -14 65 -26z" />
    <glyph glyph-name="Omega" unicode="&#x2126;" horiz-adv-x="1482" 
d="M668 111v-111h-453q-38 0 -50.5 9t-17.5 38q-12 71 -12 197h8q42 -94 90 -103q55 -14 308 -14q-165 76 -263 232.5t-98 371.5q0 169 47.5 302.5t130.5 209.5q163 150 396 150q263 0 404.5 -160t141.5 -485q0 -213 -100.5 -371.5t-277.5 -249.5q246 3 323 16q53 9 94 101
h11q-6 -111 -19 -197q-5 -27 -20.5 -37t-53.5 -10h-454v111q142 47 233 221q92 176 92 403q0 312 -94 452t-284 140q-185 0 -291.5 -148t-106.5 -446q0 -233 90 -411q87 -172 226 -211z" />
    <glyph glyph-name="estimated" unicode="&#x212e;" horiz-adv-x="1769" 
d="M1665 684v-18h-1262q-8 0 -8 -11v-387q0 -21 19 -43q194 -209 475 -209q146 0 277.5 62t224.5 172h114q-112 -129 -273.5 -202t-344.5 -73q-318 0 -551 207q-227 205 -227 502q0 295 227 500q233 207 551 207q321 0 551 -207q227 -205 227 -500zM1382 715v389
q0 25 -22 47q-199 199 -471 199q-275 0 -473 -207q-21 -18 -21 -49v-379q0 -10 8 -10h967q12 0 12 10z" />
    <glyph glyph-name="onethird" unicode="&#x2153;" horiz-adv-x="1628" 
d="M399 -33l693 1428l59 -27l-688 -1427zM510 541v-9h-301v9q21 3 59 20q39 17 39 90v498q0 75 -10 102q-13 25 -51 25q-37 0 -47 -2l-2 16l219 62l10 -11q-4 -74 -4 -292v-398q0 -74 37 -92q21 -12 51 -18zM973 180h10q18 -65 70.5 -105t136.5 -40q90 0 138 53t48 141
q0 80 -51.5 125t-142.5 45h-35v45h39q170 0 170 174q0 150 -156 150q-75 0 -117.5 -31.5t-68.5 -105.5h-10q-11 64 -11 102q0 31 41 49q67 33 191 33q123 0 187.5 -49.5t64.5 -138.5q0 -154 -183 -201q203 -27 203 -195q0 -117 -81 -182t-224 -65q-129 0 -197 39
q-32 19 -32 49q0 40 10 108z" />
    <glyph glyph-name="twothirds" unicode="&#x2154;" horiz-adv-x="1628" 
d="M500 -33l692 1428l59 -27l-688 -1427zM616 532h-518v56q254 181 338 303q86 121 86 229q0 180 -172 180q-134 0 -184 -139h-10q-13 63 -13 103q0 33 43 51q73 33 191 33q268 0 268 -224q0 -114 -100.5 -229.5t-329.5 -269.5q180 4 344 4q43 0 64 18q22 22 47 76h10
q0 -85 -10 -160q-6 -31 -54 -31zM1051 180h10q18 -65 70.5 -105t136.5 -40q90 0 138 53t48 141q0 80 -51.5 125t-142.5 45h-35v45h39q170 0 170 174q0 150 -156 150q-75 0 -117.5 -31.5t-68.5 -105.5h-11q-10 58 -10 102q0 31 41 49q67 33 191 33q123 0 187 -49.5t64 -138.5
q0 -154 -182 -201q203 -27 203 -195q0 -117 -81 -182t-224 -65q-129 0 -197 39q-33 20 -33 49q0 33 11 108z" />
    <glyph glyph-name="oneeighth" unicode="&#x215b;" horiz-adv-x="1628" 
d="M401 -33l693 1428l59 -27l-688 -1427zM510 541v-9h-301v9q21 3 59 20q39 17 39 90v498q0 75 -10 102q-13 25 -51 25q-37 0 -47 -2l-2 16l219 62l10 -11q-4 -74 -4 -292v-398q0 -74 37 -92q21 -12 51 -18zM1305 442q202 -76 202 -227q0 -106 -77.5 -168.5t-206.5 -62.5
q-130 0 -200.5 57.5t-70.5 151.5q0 141 183 206q-146 71 -146 207q0 93 68 151t180 58q240 0 240 -180q0 -123 -172 -193zM1165 381q-125 -64 -125 -184q-4 -56 30.5 -97t84.5 -56t105 -7.5t90 39.5q51 42 51 108q0 67 -51 110t-185 87zM1276 459q117 71 117 174
q0 63 -41 99t-113 36q-70 0 -109.5 -37t-39.5 -94q0 -59 38.5 -98t147.5 -80z" />
    <glyph glyph-name="threeeighths" unicode="&#x215c;" horiz-adv-x="1628" 
d="M451 -33l692 1428l59 -27l-688 -1427zM127 713h10q18 -66 70.5 -106t136.5 -40q90 0 138 53.5t48 141.5q0 80 -51.5 125t-142.5 45h-35v45h39q170 0 170 174q0 149 -156 149q-73 0 -114.5 -31.5t-71.5 -105.5h-10q-11 64 -11 103q0 31 41 49q67 33 191 33
q123 0 187.5 -50t64.5 -139q0 -154 -182 -201q202 -27 202 -194q0 -117 -81 -182.5t-224 -65.5q-128 0 -196 39q-33 20 -33 49q0 41 10 109zM1329 442q203 -77 203 -227q0 -105 -78 -168t-207 -63q-130 0 -200 57.5t-70 151.5q0 141 182 206q-145 71 -145 207q0 93 68 151
t180 58q239 0 239 -180q0 -123 -172 -193zM1190 381q-125 -64 -125 -184q-4 -56 30.5 -97t84 -56t104.5 -7.5t90 39.5q51 42 51 108q0 67 -51 110t-184 87zM1300 459q117 71 117 174q0 63 -40.5 99t-112.5 36q-70 0 -110 -37t-40 -94q0 -59 38.5 -98t147.5 -80z" />
    <glyph glyph-name="fiveeighths" unicode="&#x215d;" horiz-adv-x="1628" 
d="M473 -33l692 1428l60 -27l-688 -1427zM143 705h13q14 -62 67 -101t135 -39q92 0 142.5 57.5t50.5 153.5q0 97 -48 147t-134 50q-90 0 -181 -45l-8 6l47 399h412v-96q-334 0 -379 2l-24 -229q72 34 161 34q132 0 204.5 -62t72.5 -191q0 -128 -83 -201.5t-229 -73.5
q-133 0 -198 41q-29 23 -29 49q0 66 8 99zM1356 442q203 -77 203 -227q0 -105 -78 -168t-207 -63q-130 0 -200 57.5t-70 151.5q0 141 182 206q-146 71 -146 207q0 93 68 151t180 58q240 0 240 -180q0 -123 -172 -193zM1217 381q-125 -64 -125 -184q-4 -56 30.5 -97t84 -56
t104.5 -7.5t90 39.5q51 42 51 108q0 67 -51 110t-184 87zM1327 459q117 71 117 174q0 63 -41 99t-113 36q-70 0 -109.5 -37t-39.5 -94q0 -59 38.5 -98t147.5 -80z" />
    <glyph glyph-name="seveneighths" unicode="&#x215e;" horiz-adv-x="1628" 
d="M393 -33l692 1428l60 -27l-688 -1427zM371 512l-86 14q116 302 333 709q-63 0 -149 -2h-215q-63 0 -78 -21q-14 -14 -29 -67h-12q-8 44 -8 147q0 41 41 41h524v-53q-118 -266 -321 -768zM1305 442q202 -76 202 -227q0 -106 -77.5 -168.5t-206.5 -62.5q-130 0 -200.5 57.5
t-70.5 151.5q0 141 183 206q-146 71 -146 207q0 93 68 151t180 58q240 0 240 -180q0 -123 -172 -193zM1165 381q-125 -64 -125 -184q-4 -56 30.5 -97t84.5 -56t105 -7.5t90 39.5q51 42 51 108q0 67 -51 110t-185 87zM1276 459q117 71 117 174q0 63 -41 99t-113 36
q-70 0 -109.5 -37t-39.5 -94q0 -59 38.5 -98t147.5 -80z" />
    <glyph glyph-name="arrowleft" unicode="&#x2190;" horiz-adv-x="1501" 
d="M1446 721v-113q-1091 0 -1204 2q156 -143 549 -536l-76 -80l-674 670l670 671l77 -78l-288 -286l-189 -185l-71 -69q230 4 1206 4z" />
    <glyph glyph-name="arrowup" unicode="&#x2191;" horiz-adv-x="1501" 
d="M811 0h-117q0 968 4 1202l-540 -549l-76 78l672 674l669 -674l-75 -78q-454 454 -539 549q2 -113 2 -1202z" />
    <glyph glyph-name="arrowright" unicode="&#x2192;" horiz-adv-x="1501" 
d="M55 623v114q975 0 1205 -4l-553 541l81 78l670 -672l-674 -672l-75 80q450 445 551 537q-115 -2 -1205 -2z" />
    <glyph glyph-name="arrowdown" unicode="&#x2193;" horiz-adv-x="1501" 
d="M694 1382h117q0 -756 -4 -1202q97 108 539 547l75 -76l-667 -674l-672 672l80 78q418 -419 534 -545q-2 115 -2 1200z" />
    <glyph glyph-name="uni2196" unicode="&#x2196;" horiz-adv-x="1501" 
d="M461 1034l858 -852l-80 -82q-45 45 -202.5 203.5t-235.5 235.5l-283 284l-125 129q4 -160 4 -768h-110v953h950v-107h-410q-104 1 -192.5 2t-128 1.5t-45.5 0.5z" />
    <glyph glyph-name="uni2197" unicode="&#x2197;" horiz-adv-x="1501" 
d="M1116 956l-848 -856l-78 82l861 854q-46 0 -105 -2q-234 -4 -674 -4v107h949v-953h-109q0 690 4 772z" />
    <glyph glyph-name="uni2198" unicode="&#x2198;" horiz-adv-x="1501" 
d="M1044 283l-851 850l77 81l848 -852q-4 78 -4 768h107v-952h-949v109q291 0 408 -2q105 0 191.5 -0.5t129.5 -0.5z" />
    <glyph glyph-name="uni2199" unicode="&#x2199;" horiz-adv-x="1501" 
d="M391 362l846 852l82 -79l-858 -852h100q339 6 674 6v-109h-948v950h108q0 -608 -4 -768z" />
    <glyph glyph-name="partialdiff" unicode="&#x2202;" horiz-adv-x="1200" 
d="M842 750q2 14 2 98q0 227 -82 359t-223 132q-110 0 -171 -40.5t-94 -120.5h-10q-8 41 -8 106q0 44 51 70q112 53 258 53q432 0 432 -631q0 -404 -105 -603.5t-339 -199.5q-176 0 -273.5 112t-97.5 308q0 221 115 336q116 113 289 113t256 -92zM834 674q-25 52 -87.5 80
t-138.5 28q-126 0 -196 -101.5t-70 -291.5q0 -183 61 -268.5t164 -85.5q225 0 260 397q7 89 7 242z" />
    <glyph glyph-name="increment" unicode="&#x2206;" horiz-adv-x="1380" 
d="M768 1366l563 -1366h-1280l584 1366h133zM657 1245q-97 -256 -462 -1110h911q-413 1010 -449 1110z" />
    <glyph glyph-name="product" unicode="&#x220f;" horiz-adv-x="1462" 
d="M1339 -197v-10h-428v10q95 21 117 64q23 41 23 190v1170q0 43 -16.5 58t-61.5 15h-496q-41 0 -53 -14t-12 -63v-1168q0 -151 24 -192q22 -36 115 -60v-10h-430v10q92 21 117 64q22 39 22 190v1051q0 154 -22 190q-29 37 -117 58v10h1218v-10q-89 -21 -112 -60
q-25 -45 -25 -186v-1055q0 -150 25 -192q22 -39 112 -60z" />
    <glyph glyph-name="summation" unicode="&#x2211;" horiz-adv-x="1228" 
d="M1053 -207h-992v19l601 768l-517 766v20h873q51 0 68.5 -9.5t17.5 -35.5q0 -62 -14 -160h-13q-27 85 -78 119q-37 18 -98 18q-182 2 -545 2l445 -663l-551 -700h663q79 0 125 14q30 7 48 27t49 73h12q-9 -163 -17 -207q-5 -30 -20 -40.5t-57 -10.5z" />
    <glyph glyph-name="minus" unicode="&#x2212;" horiz-adv-x="1302" 
d="M1116 610v-106h-932v106h932z" />
    <glyph glyph-name="uni2215" unicode="&#x2215;" horiz-adv-x="196" 
d="M-279 -33l693 1428l59 -27l-688 -1427z" />
    <glyph glyph-name="uni2219" unicode="&#x2219;" horiz-adv-x="473" 
d="M344 537q0 -48 -29.5 -78.5t-76.5 -30.5q-33 -4 -60 16t-38.5 49.5t-6.5 64t29 56.5q23 24 56.5 29.5t62 -5.5t48 -38t15.5 -63z" />
    <glyph glyph-name="radical" unicode="&#x221a;" horiz-adv-x="1300" 
d="M1253 1419l-546 -1720h-107l-344 678l-115 -55l-26 55l254 127l315 -645l481 1581z" />
    <glyph glyph-name="infinity" unicode="&#x221e;" horiz-adv-x="1361" 
d="M688 621q83 107 157 155.5t159 48.5q116 0 188 -76.5t72 -199.5q0 -121 -76 -203q-77 -80 -195 -80q-88 0 -157.5 45t-155.5 158q-94 -113 -162 -158t-153 -45q-120 0 -192.5 76.5t-72.5 196.5q0 125 77.5 205.5t199.5 80.5q86 0 152 -44.5t159 -159.5zM625 541
q-80 108 -136 151q-49 43 -118 43q-80 0 -127 -52.5t-47 -135.5t46.5 -136t123.5 -53q70 0 129 43t129 140zM737 547q74 -102 134 -145.5t124 -43.5q73 0 121.5 52.5t48.5 132.5q0 85 -45.5 137.5t-120.5 52.5q-125 0 -262 -186z" />
    <glyph glyph-name="integral" unicode="&#x222b;" horiz-adv-x="774" 
d="M80 -213h12q27 -111 127 -111q123 0 123 207q0 97 -4 191l-41 858q-4 144 -4 160q0 150 69 232.5t203 82.5q59 0 107 -10q47 -12 47 -47q0 -54 -14 -123h-13q-34 119 -125 119q-70 0 -101.5 -46t-31.5 -153q0 -54 4 -148l43 -897q4 -152 4 -188q0 -141 -75 -220t-201 -79
q-59 0 -100 12q-46 15 -46 54q0 26 17 106z" />
    <glyph glyph-name="approxequal" unicode="&#x2248;" horiz-adv-x="1302" 
d="M231 610l-75 64q138 196 290 196q80 0 234 -92q115 -65 182 -65q56 0 102 35t101 120l80 -59q-129 -205 -287 -205q-84 0 -215 76q-136 80 -201 80q-112 0 -211 -150zM231 248l-75 61q138 197 290 197q80 0 234 -92q119 -70 182 -70q56 0 102 36t101 124l80 -60
q-126 -202 -287 -202q-90 0 -215 73q-140 82 -201 82q-110 0 -211 -149z" />
    <glyph glyph-name="notequal" unicode="&#x2260;" horiz-adv-x="1288" 
d="M573 315l-143 -299h-92l145 299h-305v105h357l131 272h-488v103h537l135 278h90l-133 -278h303v-103h-354l-131 -272h485v-105h-537z" />
    <glyph glyph-name="lessequal" unicode="&#x2264;" horiz-adv-x="1302" 
d="M1055 358v-122l-832 385v96l832 393v-117l-713 -321zM1055 102v-102h-832v102h832z" />
    <glyph glyph-name="greaterequal" unicode="&#x2265;" horiz-adv-x="1302" 
d="M248 989v121l831 -383v-98l-831 -393v120l710 322zM1079 102v-102h-831v102h831z" />
    <glyph glyph-name="lozenge" unicode="&#x25ca;" horiz-adv-x="1302" 
d="M264 666l336 667h111l327 -665l-329 -668h-109zM655 1221l-274 -555l274 -553l267 555z" />
    <glyph glyph-name="commaaccent" unicode="&#xf6c3;" horiz-adv-x="428" 
d="M98 -518l-8 14q143 98 143 193q0 41 -36 61q-50 27 -50 76q0 33 24 55.5t62 22.5q54 0 82.5 -34t28.5 -97q0 -81 -66.5 -159t-179.5 -132z" />
    <glyph glyph-name="s_t" unicode="&#xfb06;" horiz-adv-x="1452" 
d="M119 242h12q26 -97 105 -154q68 -51 174 -51q102 0 158.5 49.5t56.5 126.5q0 67 -50 111q-46 41 -188 110l-70 33q-110 51 -153 113t-43 147q0 124 95.5 202.5t279.5 78.5q68 0 110 -11q-78 69 -78 166q0 117 85 181.5t247 64.5q196 0 305 -74v-354h226v-74h-226v-612
q0 -97 6 -131q18 -109 125 -109q71 0 138 37l6 -6q-88 -104 -215 -104q-172 0 -193 161q-6 55 -6 148v616h-152v31q107 27 148 68q70 67 82 307q-84 35 -236 35q-128 0 -194 -54t-66 -149q0 -103 60 -160q26 -7 39 -14q24 -15 24 -43q0 -49 -26 -156h-13q-24 95 -74 133
q-48 39 -155 39q-105 0 -162 -47t-57 -123q0 -65 43 -108t157 -95l72 -32q135 -63 184.5 -125.5t49.5 -153.5q0 -129 -91.5 -208t-269.5 -79q-142 0 -231 50q-54 28 -54 73q0 82 15 146z" />
    <glyph glyph-name="CR.001" horiz-adv-x="681" 
 />
    <glyph glyph-name="Dotlessi" horiz-adv-x="655" 
d="M559 10v-10h-436v10q92 21 117 64q22 39 22 190v844q0 150 -22 186q-24 38 -117 62v10h436v-10q-94 -22 -115 -56q-26 -39 -26 -190v-848q0 -148 26 -190q21 -38 115 -62z" />
    <glyph glyph-name="Euro.denominator" horiz-adv-x="880" 
d="M641 346v-43h-291q34 -272 258 -272q81 0 135 45q35 28 60 82h10q-3 -70 -10 -103q-6 -25 -49 -43q-61 -28 -172 -28q-151 0 -240.5 82t-112.5 237h-114v43h110q-2 10 -2 53q0 10 4 72h-112v41h116q55 303 373 303q101 0 162 -22q41 -15 41 -41q0 -42 -19 -123h-10
q-15 59 -41 92q-39 45 -139 45q-214 0 -248 -254h291v-41h-295q-2 -14 -2 -61q0 -50 2 -64h295z" />
    <glyph glyph-name="Euro.numerator" horiz-adv-x="880" 
d="M641 879v-43h-291q34 -273 258 -273q81 0 135 45q35 28 60 82h10q-3 -70 -10 -102q-9 -28 -49 -43q-69 -29 -172 -29q-151 0 -240.5 82.5t-112.5 237.5h-114v43h110q-2 10 -2 53q0 10 4 72h-112v40h116q55 304 373 304q98 0 162 -23q41 -15 41 -41q0 -42 -19 -123h-10
q-15 59 -41 92q-39 45 -139 45q-214 0 -248 -254h291v-40h-295q-2 -14 -2 -62q0 -49 2 -63h295z" />
    <glyph glyph-name="Euro.oldstyle" horiz-adv-x="1314" 
d="M969 516v-55h-469q31 -207 136.5 -315.5t278.5 -108.5q118 0 201 59q63 48 101 135h14q-3 -87 -19 -147q-10 -43 -73 -70q-96 -41 -262 -41q-230 0 -367.5 126t-169.5 362h-184v55h178q-4 40 -4 98q0 62 6 117h-180v55h186q39 229 185.5 353.5t385.5 124.5q163 0 248 -33
q62 -21 62 -64q0 -62 -27 -182h-14q-23 92 -64 139q-70 76 -217 76q-162 0 -267 -108t-134 -306h469v-55h-475q-1 -16 -2 -38t-2 -37t-1 -25q0 -12 1 -29t2 -42.5t2 -43.5h475z" />
    <glyph glyph-name="Kgreenlandic" horiz-adv-x="1468" 
d="M1530 1489l18 -21q-172 -126 -172 -235q0 -43 49 -70q60 -38 60 -86q0 -41 -28 -68.5t-71 -27.5q-57 0 -89.5 41.5t-32.5 114.5q0 97 69 188.5t197 163.5zM559 10v-10h-436v10q88 21 117 64q22 39 22 190v844q0 152 -22 188t-117 60v10h436v-10q-94 -22 -115 -56
q-26 -39 -26 -190v-444q119 113 413 450q99 114 99 166q0 50 -113 74v10h402v-10q-66 -19 -103 -51q-44 -38 -117 -119l-366 -400q281 -395 377 -514q117 -145 186 -198q43 -35 121 -60v-12q-85 -6 -182 -6q-69 0 -109.5 20t-89.5 80q-155 199 -418 588l-100 -100v-324
q0 -146 26 -188q21 -38 115 -62z" />
    <glyph glyph-name="S_S" horiz-adv-x="2158" 
d="M1206 293h15q24 -106 108 -178q94 -76 242 -76q149 0 227 78q76 76 76 178t-59 170q-58 70 -244 158l-101 47q-253 119 -253 358q0 150 114 258q116 107 348 107q147 0 238 -31q38 -13 50.5 -26t12.5 -38q0 -43 -28 -180h-13q-35 114 -88 156q-65 53 -198 53
q-140 0 -219.5 -69.5t-79.5 -184.5q0 -87 49 -151q52 -64 207 -140l96 -45q171 -82 239 -170.5t68 -208.5q0 -174 -121.5 -279.5t-337.5 -105.5q-187 0 -299 62q-63 37 -63 82q0 84 14 176zM137 293h15q24 -106 108 -178q94 -76 242 -76q149 0 227 78q76 76 76 178
q0 101 -60 170q-59 71 -243 158l-101 47q-254 120 -254 358q0 149 115 258q116 107 348 107q147 0 238 -31q38 -13 50.5 -26t12.5 -38q0 -43 -28 -180h-13q-35 114 -88 156q-65 53 -198 53q-140 0 -219.5 -69.5t-79.5 -184.5q0 -87 49 -151q52 -64 207 -140l96 -45
q171 -82 239 -170.5t68 -208.5q0 -174 -121.5 -279.5t-337.5 -105.5q-187 0 -299 62q-63 37 -63 82q0 84 14 176z" />
    <glyph glyph-name="T_h" horiz-adv-x="2281" 
d="M821 10v-10h-438v10q92 21 117 64q22 36 22 190v975q0 35 -11.5 48t-43.5 13h-123q-87 0 -139 -10q-80 -15 -135 -196h-13q-10 163 -10 227q0 28 7.5 36.5t35.5 8.5h1167q91 66 144 66q29 0 29 -37q0 -151 -7 -588q43 92 141.5 147.5t221.5 55.5q217 0 266 -166
q23 -77 23 -228v-358q0 -150 24 -190q25 -36 107 -60v-8h-389v8q73 25 94 62q24 37 24 188v332q0 196 -49 254q-57 69 -168 69q-132 0 -213 -63q-46 -37 -67 -105q-15 -47 -15 -118v-375q0 -142 25 -184q23 -39 104 -60v-8h-387v8q76 25 97 62q24 37 24 178v926
q0 60 -15.5 84t-56.5 32q-58 10 -147 10h-328q-35 0 -47 -12.5t-12 -48.5v-979q0 -152 25 -188q24 -41 116 -62z" />
    <glyph glyph-name="Tcaron_h" horiz-adv-x="2281" 
d="M821 10v-10h-438v10q92 21 117 64q22 36 22 190v975q0 35 -11.5 48t-43.5 13h-123q-87 0 -139 -10q-80 -15 -135 -196h-13q-10 163 -10 227q0 28 7.5 36.5t35.5 8.5h1167q91 66 144 66q29 0 29 -37q0 -151 -7 -588q43 92 141.5 147.5t221.5 55.5q217 0 266 -166
q23 -77 23 -228v-358q0 -150 24 -190q25 -36 107 -60v-8h-389v8q73 25 94 62q24 37 24 188v332q0 196 -49 254q-57 69 -168 69q-132 0 -213 -63q-46 -37 -67 -105q-15 -47 -15 -118v-375q0 -142 25 -184q23 -39 104 -60v-8h-387v8q76 25 97 62q24 37 24 178v926
q0 60 -15.5 84t-56.5 32q-58 10 -147 10h-328q-35 0 -47 -12.5t-12 -48.5v-979q0 -152 25 -188q24 -41 116 -62zM528 1524l-223 256l8 10l289 -172l283 172l8 -10l-227 -258q-37 -39 -70 -39t-68 41z" />
    <glyph glyph-name="a.sc" horiz-adv-x="1079" 
d="M317 10v-10h-311v10q48 6 74 35q40 43 65 109l258 653q1 4 5 15t14.5 36.5t19.5 48.5l52 133h100q7 -21 86 -225l252 -655q37 -89 59 -111q24 -24 82 -39v-10h-383v10q49 8 80 29q23 10 23 45q0 24 -19 76l-78 209h-393l-74 -205q-22 -64 -22 -88q0 -25 37 -43
q32 -14 73 -23zM326 426h348l-170 471q-9 -26 -178 -471z" />
    <glyph glyph-name="a.superior" horiz-adv-x="669" 
d="M438 627q-56 -109 -194 -109q-84 0 -133.5 45t-49.5 119q0 101 111 131q60 18 197 35q47 6 57 16q6 9 6 37v29q0 74 -29 106q-37 37 -108 37q-117 0 -180 -69l-6 2q-3 9 -3 18q0 47 66.5 81t155.5 34q209 0 209 -191q0 -55 -2 -125v-157q0 -55 15.5 -75t53.5 -20
q11 0 39 4l2 -6q-47 -47 -110 -47q-91 0 -97 105zM432 709v114q-12 -6 -43 -10q-108 -18 -156 -33q-65 -24 -65 -92q0 -52 32.5 -79t84.5 -27q61 0 104 30q28 19 37 45q6 15 6 52z" />
    <glyph glyph-name="aacute.sc" horiz-adv-x="1079" 
d="M317 10v-10h-311v10q48 6 74 35q40 43 65 109l258 653q1 4 5 15t14.5 36.5t19.5 48.5l52 133h100q7 -21 86 -225l252 -655q37 -89 59 -111q24 -24 82 -39v-10h-383v10q49 8 80 29q23 10 23 45q0 24 -19 76l-78 209h-393l-74 -205q-22 -64 -22 -88q0 -25 37 -43
q32 -14 73 -23zM326 426h348l-170 471q-9 -26 -178 -471zM750 1409l-279 -246l-10 11l188 321q34 55 76 55q31 0 51.5 -16.5t20.5 -44.5q0 -39 -47 -80z" />
    <glyph glyph-name="abreve.sc" horiz-adv-x="1079" 
d="M317 10v-10h-311v10q48 6 74 35q40 43 65 109l258 653q1 4 5 15t14.5 36.5t19.5 48.5l52 133h100q7 -21 86 -225l252 -655q37 -89 59 -111q24 -24 82 -39v-10h-383v10q49 8 80 29q23 10 23 45q0 24 -19 76l-78 209h-393l-74 -205q-22 -64 -22 -88q0 -25 37 -43
q32 -14 73 -23zM326 426h348l-170 471q-9 -26 -178 -471zM778 1446l13 -2q-9 -275 -254 -275q-150 0 -199 91q-39 74 -39 186l14 2q22 -87 71 -128.5t153 -41.5q103 0 155.5 40t85.5 128z" />
    <glyph glyph-name="acircumflex.sc" horiz-adv-x="1079" 
d="M317 10v-10h-311v10q48 6 74 35q40 43 65 109l258 653q1 4 5 15t14.5 36.5t19.5 48.5l52 133h100q7 -21 86 -225l252 -655q37 -89 59 -111q24 -24 82 -39v-10h-383v10q49 8 80 29q23 10 23 45q0 24 -19 76l-78 209h-393l-74 -205q-22 -64 -22 -88q0 -25 37 -43
q32 -14 73 -23zM326 426h348l-170 471q-9 -26 -178 -471zM612 1456l203 -285l-8 -8l-266 201l-258 -201l-9 8l205 287q34 43 68 43q32 0 65 -45z" />
    <glyph glyph-name="acute.cap" horiz-adv-x="448" 
d="M358 1669l-331 -178l-11 12l263 271q38 41 73 41q30 0 52 -19t22 -49q0 -43 -68 -78z" />
    <glyph glyph-name="acute.sc" horiz-adv-x="446" 
d="M344 1409l-278 -246l-11 11l189 321q34 55 75 55q31 0 51.5 -16.5t20.5 -44.5q0 -39 -47 -80z" />
    <glyph glyph-name="adieresis.sc" horiz-adv-x="1079" 
d="M317 10v-10h-311v10q48 6 74 35q40 43 65 109l258 653q1 4 5 15t14.5 36.5t19.5 48.5l52 133h100q7 -21 86 -225l252 -655q37 -89 59 -111q24 -24 82 -39v-10h-383v10q49 8 80 29q23 10 23 45q0 24 -19 76l-78 209h-393l-74 -205q-22 -64 -22 -88q0 -25 37 -43
q32 -14 73 -23zM326 426h348l-170 471q-9 -26 -178 -471zM465 1319q0 -38 -25 -62t-63 -24q-37 0 -62.5 24t-25.5 62q-4 57 43 80.5t93 0t40 -80.5zM793 1319q0 -38 -25 -62t-63 -24q-37 0 -62 24t-25 62q-5 57 41.5 80.5t93 0t40.5 -80.5z" />
    <glyph glyph-name="ae.sc" horiz-adv-x="1542" 
d="M328 10v-10h-328v10q45 9 88 43q33 24 86 99l516 725q43 58 43 92q0 37 -100 63v8h756q25 0 33 -7t8 -27q0 -89 -15 -172h-10q-40 129 -96 143q-27 8 -113 8h-168q-26 0 -35.5 -10t-9.5 -35v-367h133q90 0 133 9q35 6 51 28t35 80h13v-291h-13q-14 51 -37.5 76.5
t-66.5 32.5q-46 6 -113 6h-135v-381q0 -44 16 -61t62 -17h184q100 0 139 33q47 41 91 137h10q0 -105 -12 -182q-4 -29 -13.5 -36t-40.5 -7h-694v10q59 14 90 41q25 25 25 133v189h-424l-137 -201q-52 -76 -52 -104q0 -26 25 -35q27 -14 76 -23zM840 975l-385 -547h385v547z
" />
    </font>
</defs>
</svg>
